%TF.GenerationSoftware,KiCad,Pcbnew,9.0.3*%
%TF.CreationDate,2025-10-15T19:42:06+02:00*%
%TF.ProjectId,esp32_blinds_controller,65737033-325f-4626-9c69-6e64735f636f,V0.3*%
%TF.SameCoordinates,Original*%
%TF.FileFunction,Soldermask,Bot*%
%TF.FilePolarity,Negative*%
%FSLAX46Y46*%
G04 Gerber Fmt 4.6, Leading zero omitted, Abs format (unit mm)*
G04 Created by KiCad (PCBNEW 9.0.3) date 2025-10-15 19:42:06*
%MOMM*%
%LPD*%
G01*
G04 APERTURE LIST*
G04 APERTURE END LIST*
G36*
X109994517Y-132232882D02*
G01*
X110011062Y-132243938D01*
X110022118Y-132260483D01*
X110026000Y-132280000D01*
X110026000Y-134880000D01*
X110022118Y-134899517D01*
X110011062Y-134916062D01*
X109994517Y-134927118D01*
X109975000Y-134931000D01*
X107375000Y-134931000D01*
X107355483Y-134927118D01*
X107338938Y-134916062D01*
X107327882Y-134899517D01*
X107324000Y-134880000D01*
X107324000Y-132280000D01*
X107327882Y-132260483D01*
X107338938Y-132243938D01*
X107355483Y-132232882D01*
X107375000Y-132229000D01*
X109975000Y-132229000D01*
X109994517Y-132232882D01*
G37*
G36*
X159994517Y-132232882D02*
G01*
X160011062Y-132243938D01*
X160022118Y-132260483D01*
X160026000Y-132280000D01*
X160026000Y-134880000D01*
X160022118Y-134899517D01*
X160011062Y-134916062D01*
X159994517Y-134927118D01*
X159975000Y-134931000D01*
X157375000Y-134931000D01*
X157355483Y-134927118D01*
X157338938Y-134916062D01*
X157327882Y-134899517D01*
X157324000Y-134880000D01*
X157324000Y-132280000D01*
X157327882Y-132260483D01*
X157338938Y-132243938D01*
X157355483Y-132232882D01*
X157375000Y-132229000D01*
X159975000Y-132229000D01*
X159994517Y-132232882D01*
G37*
G36*
X113990385Y-132266328D02*
G01*
X114192005Y-132331839D01*
X114380896Y-132428083D01*
X114552404Y-132552692D01*
X114702308Y-132702596D01*
X114826917Y-132874104D01*
X114923161Y-133062995D01*
X114988672Y-133264615D01*
X115021835Y-133474002D01*
X115021835Y-133685998D01*
X114988672Y-133895385D01*
X114923161Y-134097005D01*
X114826917Y-134285896D01*
X114702308Y-134457404D01*
X114552404Y-134607308D01*
X114380896Y-134731917D01*
X114192005Y-134828161D01*
X113990385Y-134893672D01*
X113780998Y-134926835D01*
X113569002Y-134926835D01*
X113359615Y-134893672D01*
X113157995Y-134828161D01*
X112969104Y-134731917D01*
X112797596Y-134607308D01*
X112647692Y-134457404D01*
X112523083Y-134285896D01*
X112426839Y-134097005D01*
X112361328Y-133895385D01*
X112328165Y-133685998D01*
X112328165Y-133474002D01*
X112361328Y-133264615D01*
X112426839Y-133062995D01*
X112523083Y-132874104D01*
X112647692Y-132702596D01*
X112797596Y-132552692D01*
X112969104Y-132428083D01*
X113157995Y-132331839D01*
X113359615Y-132266328D01*
X113569002Y-132233165D01*
X113780998Y-132233165D01*
X113990385Y-132266328D01*
G37*
G36*
X118990385Y-132266328D02*
G01*
X119192005Y-132331839D01*
X119380896Y-132428083D01*
X119552404Y-132552692D01*
X119702308Y-132702596D01*
X119826917Y-132874104D01*
X119923161Y-133062995D01*
X119988672Y-133264615D01*
X120021835Y-133474002D01*
X120021835Y-133685998D01*
X119988672Y-133895385D01*
X119923161Y-134097005D01*
X119826917Y-134285896D01*
X119702308Y-134457404D01*
X119552404Y-134607308D01*
X119380896Y-134731917D01*
X119192005Y-134828161D01*
X118990385Y-134893672D01*
X118780998Y-134926835D01*
X118569002Y-134926835D01*
X118359615Y-134893672D01*
X118157995Y-134828161D01*
X117969104Y-134731917D01*
X117797596Y-134607308D01*
X117647692Y-134457404D01*
X117523083Y-134285896D01*
X117426839Y-134097005D01*
X117361328Y-133895385D01*
X117328165Y-133685998D01*
X117328165Y-133474002D01*
X117361328Y-133264615D01*
X117426839Y-133062995D01*
X117523083Y-132874104D01*
X117647692Y-132702596D01*
X117797596Y-132552692D01*
X117969104Y-132428083D01*
X118157995Y-132331839D01*
X118359615Y-132266328D01*
X118569002Y-132233165D01*
X118780998Y-132233165D01*
X118990385Y-132266328D01*
G37*
G36*
X123990385Y-132266328D02*
G01*
X124192005Y-132331839D01*
X124380896Y-132428083D01*
X124552404Y-132552692D01*
X124702308Y-132702596D01*
X124826917Y-132874104D01*
X124923161Y-133062995D01*
X124988672Y-133264615D01*
X125021835Y-133474002D01*
X125021835Y-133685998D01*
X124988672Y-133895385D01*
X124923161Y-134097005D01*
X124826917Y-134285896D01*
X124702308Y-134457404D01*
X124552404Y-134607308D01*
X124380896Y-134731917D01*
X124192005Y-134828161D01*
X123990385Y-134893672D01*
X123780998Y-134926835D01*
X123569002Y-134926835D01*
X123359615Y-134893672D01*
X123157995Y-134828161D01*
X122969104Y-134731917D01*
X122797596Y-134607308D01*
X122647692Y-134457404D01*
X122523083Y-134285896D01*
X122426839Y-134097005D01*
X122361328Y-133895385D01*
X122328165Y-133685998D01*
X122328165Y-133474002D01*
X122361328Y-133264615D01*
X122426839Y-133062995D01*
X122523083Y-132874104D01*
X122647692Y-132702596D01*
X122797596Y-132552692D01*
X122969104Y-132428083D01*
X123157995Y-132331839D01*
X123359615Y-132266328D01*
X123569002Y-132233165D01*
X123780998Y-132233165D01*
X123990385Y-132266328D01*
G37*
G36*
X128990385Y-132266328D02*
G01*
X129192005Y-132331839D01*
X129380896Y-132428083D01*
X129552404Y-132552692D01*
X129702308Y-132702596D01*
X129826917Y-132874104D01*
X129923161Y-133062995D01*
X129988672Y-133264615D01*
X130021835Y-133474002D01*
X130021835Y-133685998D01*
X129988672Y-133895385D01*
X129923161Y-134097005D01*
X129826917Y-134285896D01*
X129702308Y-134457404D01*
X129552404Y-134607308D01*
X129380896Y-134731917D01*
X129192005Y-134828161D01*
X128990385Y-134893672D01*
X128780998Y-134926835D01*
X128569002Y-134926835D01*
X128359615Y-134893672D01*
X128157995Y-134828161D01*
X127969104Y-134731917D01*
X127797596Y-134607308D01*
X127647692Y-134457404D01*
X127523083Y-134285896D01*
X127426839Y-134097005D01*
X127361328Y-133895385D01*
X127328165Y-133685998D01*
X127328165Y-133474002D01*
X127361328Y-133264615D01*
X127426839Y-133062995D01*
X127523083Y-132874104D01*
X127647692Y-132702596D01*
X127797596Y-132552692D01*
X127969104Y-132428083D01*
X128157995Y-132331839D01*
X128359615Y-132266328D01*
X128569002Y-132233165D01*
X128780998Y-132233165D01*
X128990385Y-132266328D01*
G37*
G36*
X133990385Y-132266328D02*
G01*
X134192005Y-132331839D01*
X134380896Y-132428083D01*
X134552404Y-132552692D01*
X134702308Y-132702596D01*
X134826917Y-132874104D01*
X134923161Y-133062995D01*
X134988672Y-133264615D01*
X135021835Y-133474002D01*
X135021835Y-133685998D01*
X134988672Y-133895385D01*
X134923161Y-134097005D01*
X134826917Y-134285896D01*
X134702308Y-134457404D01*
X134552404Y-134607308D01*
X134380896Y-134731917D01*
X134192005Y-134828161D01*
X133990385Y-134893672D01*
X133780998Y-134926835D01*
X133569002Y-134926835D01*
X133359615Y-134893672D01*
X133157995Y-134828161D01*
X132969104Y-134731917D01*
X132797596Y-134607308D01*
X132647692Y-134457404D01*
X132523083Y-134285896D01*
X132426839Y-134097005D01*
X132361328Y-133895385D01*
X132328165Y-133685998D01*
X132328165Y-133474002D01*
X132361328Y-133264615D01*
X132426839Y-133062995D01*
X132523083Y-132874104D01*
X132647692Y-132702596D01*
X132797596Y-132552692D01*
X132969104Y-132428083D01*
X133157995Y-132331839D01*
X133359615Y-132266328D01*
X133569002Y-132233165D01*
X133780998Y-132233165D01*
X133990385Y-132266328D01*
G37*
G36*
X138990385Y-132266328D02*
G01*
X139192005Y-132331839D01*
X139380896Y-132428083D01*
X139552404Y-132552692D01*
X139702308Y-132702596D01*
X139826917Y-132874104D01*
X139923161Y-133062995D01*
X139988672Y-133264615D01*
X140021835Y-133474002D01*
X140021835Y-133685998D01*
X139988672Y-133895385D01*
X139923161Y-134097005D01*
X139826917Y-134285896D01*
X139702308Y-134457404D01*
X139552404Y-134607308D01*
X139380896Y-134731917D01*
X139192005Y-134828161D01*
X138990385Y-134893672D01*
X138780998Y-134926835D01*
X138569002Y-134926835D01*
X138359615Y-134893672D01*
X138157995Y-134828161D01*
X137969104Y-134731917D01*
X137797596Y-134607308D01*
X137647692Y-134457404D01*
X137523083Y-134285896D01*
X137426839Y-134097005D01*
X137361328Y-133895385D01*
X137328165Y-133685998D01*
X137328165Y-133474002D01*
X137361328Y-133264615D01*
X137426839Y-133062995D01*
X137523083Y-132874104D01*
X137647692Y-132702596D01*
X137797596Y-132552692D01*
X137969104Y-132428083D01*
X138157995Y-132331839D01*
X138359615Y-132266328D01*
X138569002Y-132233165D01*
X138780998Y-132233165D01*
X138990385Y-132266328D01*
G37*
G36*
X143990385Y-132266328D02*
G01*
X144192005Y-132331839D01*
X144380896Y-132428083D01*
X144552404Y-132552692D01*
X144702308Y-132702596D01*
X144826917Y-132874104D01*
X144923161Y-133062995D01*
X144988672Y-133264615D01*
X145021835Y-133474002D01*
X145021835Y-133685998D01*
X144988672Y-133895385D01*
X144923161Y-134097005D01*
X144826917Y-134285896D01*
X144702308Y-134457404D01*
X144552404Y-134607308D01*
X144380896Y-134731917D01*
X144192005Y-134828161D01*
X143990385Y-134893672D01*
X143780998Y-134926835D01*
X143569002Y-134926835D01*
X143359615Y-134893672D01*
X143157995Y-134828161D01*
X142969104Y-134731917D01*
X142797596Y-134607308D01*
X142647692Y-134457404D01*
X142523083Y-134285896D01*
X142426839Y-134097005D01*
X142361328Y-133895385D01*
X142328165Y-133685998D01*
X142328165Y-133474002D01*
X142361328Y-133264615D01*
X142426839Y-133062995D01*
X142523083Y-132874104D01*
X142647692Y-132702596D01*
X142797596Y-132552692D01*
X142969104Y-132428083D01*
X143157995Y-132331839D01*
X143359615Y-132266328D01*
X143569002Y-132233165D01*
X143780998Y-132233165D01*
X143990385Y-132266328D01*
G37*
G36*
X163990385Y-132266328D02*
G01*
X164192005Y-132331839D01*
X164380896Y-132428083D01*
X164552404Y-132552692D01*
X164702308Y-132702596D01*
X164826917Y-132874104D01*
X164923161Y-133062995D01*
X164988672Y-133264615D01*
X165021835Y-133474002D01*
X165021835Y-133685998D01*
X164988672Y-133895385D01*
X164923161Y-134097005D01*
X164826917Y-134285896D01*
X164702308Y-134457404D01*
X164552404Y-134607308D01*
X164380896Y-134731917D01*
X164192005Y-134828161D01*
X163990385Y-134893672D01*
X163780998Y-134926835D01*
X163569002Y-134926835D01*
X163359615Y-134893672D01*
X163157995Y-134828161D01*
X162969104Y-134731917D01*
X162797596Y-134607308D01*
X162647692Y-134457404D01*
X162523083Y-134285896D01*
X162426839Y-134097005D01*
X162361328Y-133895385D01*
X162328165Y-133685998D01*
X162328165Y-133474002D01*
X162361328Y-133264615D01*
X162426839Y-133062995D01*
X162523083Y-132874104D01*
X162647692Y-132702596D01*
X162797596Y-132552692D01*
X162969104Y-132428083D01*
X163157995Y-132331839D01*
X163359615Y-132266328D01*
X163569002Y-132233165D01*
X163780998Y-132233165D01*
X163990385Y-132266328D01*
G37*
G36*
X168990385Y-132266328D02*
G01*
X169192005Y-132331839D01*
X169380896Y-132428083D01*
X169552404Y-132552692D01*
X169702308Y-132702596D01*
X169826917Y-132874104D01*
X169923161Y-133062995D01*
X169988672Y-133264615D01*
X170021835Y-133474002D01*
X170021835Y-133685998D01*
X169988672Y-133895385D01*
X169923161Y-134097005D01*
X169826917Y-134285896D01*
X169702308Y-134457404D01*
X169552404Y-134607308D01*
X169380896Y-134731917D01*
X169192005Y-134828161D01*
X168990385Y-134893672D01*
X168780998Y-134926835D01*
X168569002Y-134926835D01*
X168359615Y-134893672D01*
X168157995Y-134828161D01*
X167969104Y-134731917D01*
X167797596Y-134607308D01*
X167647692Y-134457404D01*
X167523083Y-134285896D01*
X167426839Y-134097005D01*
X167361328Y-133895385D01*
X167328165Y-133685998D01*
X167328165Y-133474002D01*
X167361328Y-133264615D01*
X167426839Y-133062995D01*
X167523083Y-132874104D01*
X167647692Y-132702596D01*
X167797596Y-132552692D01*
X167969104Y-132428083D01*
X168157995Y-132331839D01*
X168359615Y-132266328D01*
X168569002Y-132233165D01*
X168780998Y-132233165D01*
X168990385Y-132266328D01*
G37*
G36*
X173990385Y-132266328D02*
G01*
X174192005Y-132331839D01*
X174380896Y-132428083D01*
X174552404Y-132552692D01*
X174702308Y-132702596D01*
X174826917Y-132874104D01*
X174923161Y-133062995D01*
X174988672Y-133264615D01*
X175021835Y-133474002D01*
X175021835Y-133685998D01*
X174988672Y-133895385D01*
X174923161Y-134097005D01*
X174826917Y-134285896D01*
X174702308Y-134457404D01*
X174552404Y-134607308D01*
X174380896Y-134731917D01*
X174192005Y-134828161D01*
X173990385Y-134893672D01*
X173780998Y-134926835D01*
X173569002Y-134926835D01*
X173359615Y-134893672D01*
X173157995Y-134828161D01*
X172969104Y-134731917D01*
X172797596Y-134607308D01*
X172647692Y-134457404D01*
X172523083Y-134285896D01*
X172426839Y-134097005D01*
X172361328Y-133895385D01*
X172328165Y-133685998D01*
X172328165Y-133474002D01*
X172361328Y-133264615D01*
X172426839Y-133062995D01*
X172523083Y-132874104D01*
X172647692Y-132702596D01*
X172797596Y-132552692D01*
X172969104Y-132428083D01*
X173157995Y-132331839D01*
X173359615Y-132266328D01*
X173569002Y-132233165D01*
X173780998Y-132233165D01*
X173990385Y-132266328D01*
G37*
G36*
X178990385Y-132266328D02*
G01*
X179192005Y-132331839D01*
X179380896Y-132428083D01*
X179552404Y-132552692D01*
X179702308Y-132702596D01*
X179826917Y-132874104D01*
X179923161Y-133062995D01*
X179988672Y-133264615D01*
X180021835Y-133474002D01*
X180021835Y-133685998D01*
X179988672Y-133895385D01*
X179923161Y-134097005D01*
X179826917Y-134285896D01*
X179702308Y-134457404D01*
X179552404Y-134607308D01*
X179380896Y-134731917D01*
X179192005Y-134828161D01*
X178990385Y-134893672D01*
X178780998Y-134926835D01*
X178569002Y-134926835D01*
X178359615Y-134893672D01*
X178157995Y-134828161D01*
X177969104Y-134731917D01*
X177797596Y-134607308D01*
X177647692Y-134457404D01*
X177523083Y-134285896D01*
X177426839Y-134097005D01*
X177361328Y-133895385D01*
X177328165Y-133685998D01*
X177328165Y-133474002D01*
X177361328Y-133264615D01*
X177426839Y-133062995D01*
X177523083Y-132874104D01*
X177647692Y-132702596D01*
X177797596Y-132552692D01*
X177969104Y-132428083D01*
X178157995Y-132331839D01*
X178359615Y-132266328D01*
X178569002Y-132233165D01*
X178780998Y-132233165D01*
X178990385Y-132266328D01*
G37*
G36*
X183990385Y-132266328D02*
G01*
X184192005Y-132331839D01*
X184380896Y-132428083D01*
X184552404Y-132552692D01*
X184702308Y-132702596D01*
X184826917Y-132874104D01*
X184923161Y-133062995D01*
X184988672Y-133264615D01*
X185021835Y-133474002D01*
X185021835Y-133685998D01*
X184988672Y-133895385D01*
X184923161Y-134097005D01*
X184826917Y-134285896D01*
X184702308Y-134457404D01*
X184552404Y-134607308D01*
X184380896Y-134731917D01*
X184192005Y-134828161D01*
X183990385Y-134893672D01*
X183780998Y-134926835D01*
X183569002Y-134926835D01*
X183359615Y-134893672D01*
X183157995Y-134828161D01*
X182969104Y-134731917D01*
X182797596Y-134607308D01*
X182647692Y-134457404D01*
X182523083Y-134285896D01*
X182426839Y-134097005D01*
X182361328Y-133895385D01*
X182328165Y-133685998D01*
X182328165Y-133474002D01*
X182361328Y-133264615D01*
X182426839Y-133062995D01*
X182523083Y-132874104D01*
X182647692Y-132702596D01*
X182797596Y-132552692D01*
X182969104Y-132428083D01*
X183157995Y-132331839D01*
X183359615Y-132266328D01*
X183569002Y-132233165D01*
X183780998Y-132233165D01*
X183990385Y-132266328D01*
G37*
G36*
X188990385Y-132266328D02*
G01*
X189192005Y-132331839D01*
X189380896Y-132428083D01*
X189552404Y-132552692D01*
X189702308Y-132702596D01*
X189826917Y-132874104D01*
X189923161Y-133062995D01*
X189988672Y-133264615D01*
X190021835Y-133474002D01*
X190021835Y-133685998D01*
X189988672Y-133895385D01*
X189923161Y-134097005D01*
X189826917Y-134285896D01*
X189702308Y-134457404D01*
X189552404Y-134607308D01*
X189380896Y-134731917D01*
X189192005Y-134828161D01*
X188990385Y-134893672D01*
X188780998Y-134926835D01*
X188569002Y-134926835D01*
X188359615Y-134893672D01*
X188157995Y-134828161D01*
X187969104Y-134731917D01*
X187797596Y-134607308D01*
X187647692Y-134457404D01*
X187523083Y-134285896D01*
X187426839Y-134097005D01*
X187361328Y-133895385D01*
X187328165Y-133685998D01*
X187328165Y-133474002D01*
X187361328Y-133264615D01*
X187426839Y-133062995D01*
X187523083Y-132874104D01*
X187647692Y-132702596D01*
X187797596Y-132552692D01*
X187969104Y-132428083D01*
X188157995Y-132331839D01*
X188359615Y-132266328D01*
X188569002Y-132233165D01*
X188780998Y-132233165D01*
X188990385Y-132266328D01*
G37*
G36*
X193990385Y-132266328D02*
G01*
X194192005Y-132331839D01*
X194380896Y-132428083D01*
X194552404Y-132552692D01*
X194702308Y-132702596D01*
X194826917Y-132874104D01*
X194923161Y-133062995D01*
X194988672Y-133264615D01*
X195021835Y-133474002D01*
X195021835Y-133685998D01*
X194988672Y-133895385D01*
X194923161Y-134097005D01*
X194826917Y-134285896D01*
X194702308Y-134457404D01*
X194552404Y-134607308D01*
X194380896Y-134731917D01*
X194192005Y-134828161D01*
X193990385Y-134893672D01*
X193780998Y-134926835D01*
X193569002Y-134926835D01*
X193359615Y-134893672D01*
X193157995Y-134828161D01*
X192969104Y-134731917D01*
X192797596Y-134607308D01*
X192647692Y-134457404D01*
X192523083Y-134285896D01*
X192426839Y-134097005D01*
X192361328Y-133895385D01*
X192328165Y-133685998D01*
X192328165Y-133474002D01*
X192361328Y-133264615D01*
X192426839Y-133062995D01*
X192523083Y-132874104D01*
X192647692Y-132702596D01*
X192797596Y-132552692D01*
X192969104Y-132428083D01*
X193157995Y-132331839D01*
X193359615Y-132266328D01*
X193569002Y-132233165D01*
X193780998Y-132233165D01*
X193990385Y-132266328D01*
G37*
G36*
X105561061Y-119792108D02*
G01*
X105894625Y-119868241D01*
X106217567Y-119981244D01*
X106525826Y-120129693D01*
X106815526Y-120311724D01*
X107083023Y-120525046D01*
X107324954Y-120766977D01*
X107538276Y-121034474D01*
X107720307Y-121324174D01*
X107868756Y-121632433D01*
X107981759Y-121955375D01*
X108057892Y-122288939D01*
X108096200Y-122628929D01*
X108096200Y-122971071D01*
X108057892Y-123311061D01*
X107981759Y-123644625D01*
X107868756Y-123967567D01*
X107720307Y-124275826D01*
X107538276Y-124565526D01*
X107324954Y-124833023D01*
X107083023Y-125074954D01*
X106815526Y-125288276D01*
X106525826Y-125470307D01*
X106217567Y-125618756D01*
X105894625Y-125731759D01*
X105561061Y-125807892D01*
X105221071Y-125846200D01*
X104878929Y-125846200D01*
X104538939Y-125807892D01*
X104205375Y-125731759D01*
X103882433Y-125618756D01*
X103574174Y-125470307D01*
X103284474Y-125288276D01*
X103016977Y-125074954D01*
X102775046Y-124833023D01*
X102561724Y-124565526D01*
X102379693Y-124275826D01*
X102231244Y-123967567D01*
X102118241Y-123644625D01*
X102042108Y-123311061D01*
X102003800Y-122971071D01*
X102003800Y-122628929D01*
X102042108Y-122288939D01*
X102118241Y-121955375D01*
X102231244Y-121632433D01*
X102379693Y-121324174D01*
X102561724Y-121034474D01*
X102775046Y-120766977D01*
X103016977Y-120525046D01*
X103284474Y-120311724D01*
X103574174Y-120129693D01*
X103882433Y-119981244D01*
X104205375Y-119868241D01*
X104538939Y-119792108D01*
X104878929Y-119753800D01*
X105221071Y-119753800D01*
X105561061Y-119792108D01*
G37*
G36*
X197811061Y-119792108D02*
G01*
X198144625Y-119868241D01*
X198467567Y-119981244D01*
X198775826Y-120129693D01*
X199065526Y-120311724D01*
X199333023Y-120525046D01*
X199574954Y-120766977D01*
X199788276Y-121034474D01*
X199970307Y-121324174D01*
X200118756Y-121632433D01*
X200231759Y-121955375D01*
X200307892Y-122288939D01*
X200346200Y-122628929D01*
X200346200Y-122971071D01*
X200307892Y-123311061D01*
X200231759Y-123644625D01*
X200118756Y-123967567D01*
X199970307Y-124275826D01*
X199788276Y-124565526D01*
X199574954Y-124833023D01*
X199333023Y-125074954D01*
X199065526Y-125288276D01*
X198775826Y-125470307D01*
X198467567Y-125618756D01*
X198144625Y-125731759D01*
X197811061Y-125807892D01*
X197471071Y-125846200D01*
X197128929Y-125846200D01*
X196788939Y-125807892D01*
X196455375Y-125731759D01*
X196132433Y-125618756D01*
X195824174Y-125470307D01*
X195534474Y-125288276D01*
X195266977Y-125074954D01*
X195025046Y-124833023D01*
X194811724Y-124565526D01*
X194629693Y-124275826D01*
X194481244Y-123967567D01*
X194368241Y-123644625D01*
X194292108Y-123311061D01*
X194253800Y-122971071D01*
X194253800Y-122628929D01*
X194292108Y-122288939D01*
X194368241Y-121955375D01*
X194481244Y-121632433D01*
X194629693Y-121324174D01*
X194811724Y-121034474D01*
X195025046Y-120766977D01*
X195266977Y-120525046D01*
X195534474Y-120311724D01*
X195824174Y-120129693D01*
X196132433Y-119981244D01*
X196455375Y-119868241D01*
X196788939Y-119792108D01*
X197128929Y-119753800D01*
X197471071Y-119753800D01*
X197811061Y-119792108D01*
G37*
G36*
X112703712Y-120557447D02*
G01*
X112897871Y-120620533D01*
X113079771Y-120713215D01*
X113244932Y-120833212D01*
X113389288Y-120977568D01*
X113509285Y-121142729D01*
X113601967Y-121324629D01*
X113665053Y-121518788D01*
X113696989Y-121720425D01*
X113696989Y-121924575D01*
X113665053Y-122126212D01*
X113601967Y-122320371D01*
X113509285Y-122502271D01*
X113389288Y-122667432D01*
X113244932Y-122811788D01*
X113079771Y-122931785D01*
X112897871Y-123024467D01*
X112703712Y-123087553D01*
X112502075Y-123119489D01*
X112297925Y-123119489D01*
X112096288Y-123087553D01*
X111902129Y-123024467D01*
X111720229Y-122931785D01*
X111555068Y-122811788D01*
X111410712Y-122667432D01*
X111290715Y-122502271D01*
X111198033Y-122320371D01*
X111134947Y-122126212D01*
X111103011Y-121924575D01*
X111103011Y-121720425D01*
X111134947Y-121518788D01*
X111198033Y-121324629D01*
X111290715Y-121142729D01*
X111410712Y-120977568D01*
X111555068Y-120833212D01*
X111720229Y-120713215D01*
X111902129Y-120620533D01*
X112096288Y-120557447D01*
X112297925Y-120525511D01*
X112502075Y-120525511D01*
X112703712Y-120557447D01*
G37*
G36*
X124703712Y-120557447D02*
G01*
X124897871Y-120620533D01*
X125079771Y-120713215D01*
X125244932Y-120833212D01*
X125389288Y-120977568D01*
X125509285Y-121142729D01*
X125601967Y-121324629D01*
X125665053Y-121518788D01*
X125696989Y-121720425D01*
X125696989Y-121924575D01*
X125665053Y-122126212D01*
X125601967Y-122320371D01*
X125509285Y-122502271D01*
X125389288Y-122667432D01*
X125244932Y-122811788D01*
X125079771Y-122931785D01*
X124897871Y-123024467D01*
X124703712Y-123087553D01*
X124502075Y-123119489D01*
X124297925Y-123119489D01*
X124096288Y-123087553D01*
X123902129Y-123024467D01*
X123720229Y-122931785D01*
X123555068Y-122811788D01*
X123410712Y-122667432D01*
X123290715Y-122502271D01*
X123198033Y-122320371D01*
X123134947Y-122126212D01*
X123103011Y-121924575D01*
X123103011Y-121720425D01*
X123134947Y-121518788D01*
X123198033Y-121324629D01*
X123290715Y-121142729D01*
X123410712Y-120977568D01*
X123555068Y-120833212D01*
X123720229Y-120713215D01*
X123902129Y-120620533D01*
X124096288Y-120557447D01*
X124297925Y-120525511D01*
X124502075Y-120525511D01*
X124703712Y-120557447D01*
G37*
G36*
X131603712Y-120557447D02*
G01*
X131797871Y-120620533D01*
X131979771Y-120713215D01*
X132144932Y-120833212D01*
X132289288Y-120977568D01*
X132409285Y-121142729D01*
X132501967Y-121324629D01*
X132565053Y-121518788D01*
X132596989Y-121720425D01*
X132596989Y-121924575D01*
X132565053Y-122126212D01*
X132501967Y-122320371D01*
X132409285Y-122502271D01*
X132289288Y-122667432D01*
X132144932Y-122811788D01*
X131979771Y-122931785D01*
X131797871Y-123024467D01*
X131603712Y-123087553D01*
X131402075Y-123119489D01*
X131197925Y-123119489D01*
X130996288Y-123087553D01*
X130802129Y-123024467D01*
X130620229Y-122931785D01*
X130455068Y-122811788D01*
X130310712Y-122667432D01*
X130190715Y-122502271D01*
X130098033Y-122320371D01*
X130034947Y-122126212D01*
X130003011Y-121924575D01*
X130003011Y-121720425D01*
X130034947Y-121518788D01*
X130098033Y-121324629D01*
X130190715Y-121142729D01*
X130310712Y-120977568D01*
X130455068Y-120833212D01*
X130620229Y-120713215D01*
X130802129Y-120620533D01*
X130996288Y-120557447D01*
X131197925Y-120525511D01*
X131402075Y-120525511D01*
X131603712Y-120557447D01*
G37*
G36*
X143603712Y-120557447D02*
G01*
X143797871Y-120620533D01*
X143979771Y-120713215D01*
X144144932Y-120833212D01*
X144289288Y-120977568D01*
X144409285Y-121142729D01*
X144501967Y-121324629D01*
X144565053Y-121518788D01*
X144596989Y-121720425D01*
X144596989Y-121924575D01*
X144565053Y-122126212D01*
X144501967Y-122320371D01*
X144409285Y-122502271D01*
X144289288Y-122667432D01*
X144144932Y-122811788D01*
X143979771Y-122931785D01*
X143797871Y-123024467D01*
X143603712Y-123087553D01*
X143402075Y-123119489D01*
X143197925Y-123119489D01*
X142996288Y-123087553D01*
X142802129Y-123024467D01*
X142620229Y-122931785D01*
X142455068Y-122811788D01*
X142310712Y-122667432D01*
X142190715Y-122502271D01*
X142098033Y-122320371D01*
X142034947Y-122126212D01*
X142003011Y-121924575D01*
X142003011Y-121720425D01*
X142034947Y-121518788D01*
X142098033Y-121324629D01*
X142190715Y-121142729D01*
X142310712Y-120977568D01*
X142455068Y-120833212D01*
X142620229Y-120713215D01*
X142802129Y-120620533D01*
X142996288Y-120557447D01*
X143197925Y-120525511D01*
X143402075Y-120525511D01*
X143603712Y-120557447D01*
G37*
G36*
X159103712Y-120557447D02*
G01*
X159297871Y-120620533D01*
X159479771Y-120713215D01*
X159644932Y-120833212D01*
X159789288Y-120977568D01*
X159909285Y-121142729D01*
X160001967Y-121324629D01*
X160065053Y-121518788D01*
X160096989Y-121720425D01*
X160096989Y-121924575D01*
X160065053Y-122126212D01*
X160001967Y-122320371D01*
X159909285Y-122502271D01*
X159789288Y-122667432D01*
X159644932Y-122811788D01*
X159479771Y-122931785D01*
X159297871Y-123024467D01*
X159103712Y-123087553D01*
X158902075Y-123119489D01*
X158697925Y-123119489D01*
X158496288Y-123087553D01*
X158302129Y-123024467D01*
X158120229Y-122931785D01*
X157955068Y-122811788D01*
X157810712Y-122667432D01*
X157690715Y-122502271D01*
X157598033Y-122320371D01*
X157534947Y-122126212D01*
X157503011Y-121924575D01*
X157503011Y-121720425D01*
X157534947Y-121518788D01*
X157598033Y-121324629D01*
X157690715Y-121142729D01*
X157810712Y-120977568D01*
X157955068Y-120833212D01*
X158120229Y-120713215D01*
X158302129Y-120620533D01*
X158496288Y-120557447D01*
X158697925Y-120525511D01*
X158902075Y-120525511D01*
X159103712Y-120557447D01*
G37*
G36*
X171103712Y-120557447D02*
G01*
X171297871Y-120620533D01*
X171479771Y-120713215D01*
X171644932Y-120833212D01*
X171789288Y-120977568D01*
X171909285Y-121142729D01*
X172001967Y-121324629D01*
X172065053Y-121518788D01*
X172096989Y-121720425D01*
X172096989Y-121924575D01*
X172065053Y-122126212D01*
X172001967Y-122320371D01*
X171909285Y-122502271D01*
X171789288Y-122667432D01*
X171644932Y-122811788D01*
X171479771Y-122931785D01*
X171297871Y-123024467D01*
X171103712Y-123087553D01*
X170902075Y-123119489D01*
X170697925Y-123119489D01*
X170496288Y-123087553D01*
X170302129Y-123024467D01*
X170120229Y-122931785D01*
X169955068Y-122811788D01*
X169810712Y-122667432D01*
X169690715Y-122502271D01*
X169598033Y-122320371D01*
X169534947Y-122126212D01*
X169503011Y-121924575D01*
X169503011Y-121720425D01*
X169534947Y-121518788D01*
X169598033Y-121324629D01*
X169690715Y-121142729D01*
X169810712Y-120977568D01*
X169955068Y-120833212D01*
X170120229Y-120713215D01*
X170302129Y-120620533D01*
X170496288Y-120557447D01*
X170697925Y-120525511D01*
X170902075Y-120525511D01*
X171103712Y-120557447D01*
G37*
G36*
X178153712Y-120557447D02*
G01*
X178347871Y-120620533D01*
X178529771Y-120713215D01*
X178694932Y-120833212D01*
X178839288Y-120977568D01*
X178959285Y-121142729D01*
X179051967Y-121324629D01*
X179115053Y-121518788D01*
X179146989Y-121720425D01*
X179146989Y-121924575D01*
X179115053Y-122126212D01*
X179051967Y-122320371D01*
X178959285Y-122502271D01*
X178839288Y-122667432D01*
X178694932Y-122811788D01*
X178529771Y-122931785D01*
X178347871Y-123024467D01*
X178153712Y-123087553D01*
X177952075Y-123119489D01*
X177747925Y-123119489D01*
X177546288Y-123087553D01*
X177352129Y-123024467D01*
X177170229Y-122931785D01*
X177005068Y-122811788D01*
X176860712Y-122667432D01*
X176740715Y-122502271D01*
X176648033Y-122320371D01*
X176584947Y-122126212D01*
X176553011Y-121924575D01*
X176553011Y-121720425D01*
X176584947Y-121518788D01*
X176648033Y-121324629D01*
X176740715Y-121142729D01*
X176860712Y-120977568D01*
X177005068Y-120833212D01*
X177170229Y-120713215D01*
X177352129Y-120620533D01*
X177546288Y-120557447D01*
X177747925Y-120525511D01*
X177952075Y-120525511D01*
X178153712Y-120557447D01*
G37*
G36*
X190153712Y-120557447D02*
G01*
X190347871Y-120620533D01*
X190529771Y-120713215D01*
X190694932Y-120833212D01*
X190839288Y-120977568D01*
X190959285Y-121142729D01*
X191051967Y-121324629D01*
X191115053Y-121518788D01*
X191146989Y-121720425D01*
X191146989Y-121924575D01*
X191115053Y-122126212D01*
X191051967Y-122320371D01*
X190959285Y-122502271D01*
X190839288Y-122667432D01*
X190694932Y-122811788D01*
X190529771Y-122931785D01*
X190347871Y-123024467D01*
X190153712Y-123087553D01*
X189952075Y-123119489D01*
X189747925Y-123119489D01*
X189546288Y-123087553D01*
X189352129Y-123024467D01*
X189170229Y-122931785D01*
X189005068Y-122811788D01*
X188860712Y-122667432D01*
X188740715Y-122502271D01*
X188648033Y-122320371D01*
X188584947Y-122126212D01*
X188553011Y-121924575D01*
X188553011Y-121720425D01*
X188584947Y-121518788D01*
X188648033Y-121324629D01*
X188740715Y-121142729D01*
X188860712Y-120977568D01*
X189005068Y-120833212D01*
X189170229Y-120713215D01*
X189352129Y-120620533D01*
X189546288Y-120557447D01*
X189747925Y-120525511D01*
X189952075Y-120525511D01*
X190153712Y-120557447D01*
G37*
G36*
X112703712Y-108357447D02*
G01*
X112897871Y-108420533D01*
X113079771Y-108513215D01*
X113244932Y-108633212D01*
X113389288Y-108777568D01*
X113509285Y-108942729D01*
X113601967Y-109124629D01*
X113665053Y-109318788D01*
X113696989Y-109520425D01*
X113696989Y-109724575D01*
X113665053Y-109926212D01*
X113601967Y-110120371D01*
X113509285Y-110302271D01*
X113389288Y-110467432D01*
X113244932Y-110611788D01*
X113079771Y-110731785D01*
X112897871Y-110824467D01*
X112703712Y-110887553D01*
X112502075Y-110919489D01*
X112297925Y-110919489D01*
X112096288Y-110887553D01*
X111902129Y-110824467D01*
X111720229Y-110731785D01*
X111555068Y-110611788D01*
X111410712Y-110467432D01*
X111290715Y-110302271D01*
X111198033Y-110120371D01*
X111134947Y-109926212D01*
X111103011Y-109724575D01*
X111103011Y-109520425D01*
X111134947Y-109318788D01*
X111198033Y-109124629D01*
X111290715Y-108942729D01*
X111410712Y-108777568D01*
X111555068Y-108633212D01*
X111720229Y-108513215D01*
X111902129Y-108420533D01*
X112096288Y-108357447D01*
X112297925Y-108325511D01*
X112502075Y-108325511D01*
X112703712Y-108357447D01*
G37*
G36*
X124703712Y-108357447D02*
G01*
X124897871Y-108420533D01*
X125079771Y-108513215D01*
X125244932Y-108633212D01*
X125389288Y-108777568D01*
X125509285Y-108942729D01*
X125601967Y-109124629D01*
X125665053Y-109318788D01*
X125696989Y-109520425D01*
X125696989Y-109724575D01*
X125665053Y-109926212D01*
X125601967Y-110120371D01*
X125509285Y-110302271D01*
X125389288Y-110467432D01*
X125244932Y-110611788D01*
X125079771Y-110731785D01*
X124897871Y-110824467D01*
X124703712Y-110887553D01*
X124502075Y-110919489D01*
X124297925Y-110919489D01*
X124096288Y-110887553D01*
X123902129Y-110824467D01*
X123720229Y-110731785D01*
X123555068Y-110611788D01*
X123410712Y-110467432D01*
X123290715Y-110302271D01*
X123198033Y-110120371D01*
X123134947Y-109926212D01*
X123103011Y-109724575D01*
X123103011Y-109520425D01*
X123134947Y-109318788D01*
X123198033Y-109124629D01*
X123290715Y-108942729D01*
X123410712Y-108777568D01*
X123555068Y-108633212D01*
X123720229Y-108513215D01*
X123902129Y-108420533D01*
X124096288Y-108357447D01*
X124297925Y-108325511D01*
X124502075Y-108325511D01*
X124703712Y-108357447D01*
G37*
G36*
X131603712Y-108357447D02*
G01*
X131797871Y-108420533D01*
X131979771Y-108513215D01*
X132144932Y-108633212D01*
X132289288Y-108777568D01*
X132409285Y-108942729D01*
X132501967Y-109124629D01*
X132565053Y-109318788D01*
X132596989Y-109520425D01*
X132596989Y-109724575D01*
X132565053Y-109926212D01*
X132501967Y-110120371D01*
X132409285Y-110302271D01*
X132289288Y-110467432D01*
X132144932Y-110611788D01*
X131979771Y-110731785D01*
X131797871Y-110824467D01*
X131603712Y-110887553D01*
X131402075Y-110919489D01*
X131197925Y-110919489D01*
X130996288Y-110887553D01*
X130802129Y-110824467D01*
X130620229Y-110731785D01*
X130455068Y-110611788D01*
X130310712Y-110467432D01*
X130190715Y-110302271D01*
X130098033Y-110120371D01*
X130034947Y-109926212D01*
X130003011Y-109724575D01*
X130003011Y-109520425D01*
X130034947Y-109318788D01*
X130098033Y-109124629D01*
X130190715Y-108942729D01*
X130310712Y-108777568D01*
X130455068Y-108633212D01*
X130620229Y-108513215D01*
X130802129Y-108420533D01*
X130996288Y-108357447D01*
X131197925Y-108325511D01*
X131402075Y-108325511D01*
X131603712Y-108357447D01*
G37*
G36*
X143603712Y-108357447D02*
G01*
X143797871Y-108420533D01*
X143979771Y-108513215D01*
X144144932Y-108633212D01*
X144289288Y-108777568D01*
X144409285Y-108942729D01*
X144501967Y-109124629D01*
X144565053Y-109318788D01*
X144596989Y-109520425D01*
X144596989Y-109724575D01*
X144565053Y-109926212D01*
X144501967Y-110120371D01*
X144409285Y-110302271D01*
X144289288Y-110467432D01*
X144144932Y-110611788D01*
X143979771Y-110731785D01*
X143797871Y-110824467D01*
X143603712Y-110887553D01*
X143402075Y-110919489D01*
X143197925Y-110919489D01*
X142996288Y-110887553D01*
X142802129Y-110824467D01*
X142620229Y-110731785D01*
X142455068Y-110611788D01*
X142310712Y-110467432D01*
X142190715Y-110302271D01*
X142098033Y-110120371D01*
X142034947Y-109926212D01*
X142003011Y-109724575D01*
X142003011Y-109520425D01*
X142034947Y-109318788D01*
X142098033Y-109124629D01*
X142190715Y-108942729D01*
X142310712Y-108777568D01*
X142455068Y-108633212D01*
X142620229Y-108513215D01*
X142802129Y-108420533D01*
X142996288Y-108357447D01*
X143197925Y-108325511D01*
X143402075Y-108325511D01*
X143603712Y-108357447D01*
G37*
G36*
X159103712Y-108357447D02*
G01*
X159297871Y-108420533D01*
X159479771Y-108513215D01*
X159644932Y-108633212D01*
X159789288Y-108777568D01*
X159909285Y-108942729D01*
X160001967Y-109124629D01*
X160065053Y-109318788D01*
X160096989Y-109520425D01*
X160096989Y-109724575D01*
X160065053Y-109926212D01*
X160001967Y-110120371D01*
X159909285Y-110302271D01*
X159789288Y-110467432D01*
X159644932Y-110611788D01*
X159479771Y-110731785D01*
X159297871Y-110824467D01*
X159103712Y-110887553D01*
X158902075Y-110919489D01*
X158697925Y-110919489D01*
X158496288Y-110887553D01*
X158302129Y-110824467D01*
X158120229Y-110731785D01*
X157955068Y-110611788D01*
X157810712Y-110467432D01*
X157690715Y-110302271D01*
X157598033Y-110120371D01*
X157534947Y-109926212D01*
X157503011Y-109724575D01*
X157503011Y-109520425D01*
X157534947Y-109318788D01*
X157598033Y-109124629D01*
X157690715Y-108942729D01*
X157810712Y-108777568D01*
X157955068Y-108633212D01*
X158120229Y-108513215D01*
X158302129Y-108420533D01*
X158496288Y-108357447D01*
X158697925Y-108325511D01*
X158902075Y-108325511D01*
X159103712Y-108357447D01*
G37*
G36*
X171103712Y-108357447D02*
G01*
X171297871Y-108420533D01*
X171479771Y-108513215D01*
X171644932Y-108633212D01*
X171789288Y-108777568D01*
X171909285Y-108942729D01*
X172001967Y-109124629D01*
X172065053Y-109318788D01*
X172096989Y-109520425D01*
X172096989Y-109724575D01*
X172065053Y-109926212D01*
X172001967Y-110120371D01*
X171909285Y-110302271D01*
X171789288Y-110467432D01*
X171644932Y-110611788D01*
X171479771Y-110731785D01*
X171297871Y-110824467D01*
X171103712Y-110887553D01*
X170902075Y-110919489D01*
X170697925Y-110919489D01*
X170496288Y-110887553D01*
X170302129Y-110824467D01*
X170120229Y-110731785D01*
X169955068Y-110611788D01*
X169810712Y-110467432D01*
X169690715Y-110302271D01*
X169598033Y-110120371D01*
X169534947Y-109926212D01*
X169503011Y-109724575D01*
X169503011Y-109520425D01*
X169534947Y-109318788D01*
X169598033Y-109124629D01*
X169690715Y-108942729D01*
X169810712Y-108777568D01*
X169955068Y-108633212D01*
X170120229Y-108513215D01*
X170302129Y-108420533D01*
X170496288Y-108357447D01*
X170697925Y-108325511D01*
X170902075Y-108325511D01*
X171103712Y-108357447D01*
G37*
G36*
X178153712Y-108357447D02*
G01*
X178347871Y-108420533D01*
X178529771Y-108513215D01*
X178694932Y-108633212D01*
X178839288Y-108777568D01*
X178959285Y-108942729D01*
X179051967Y-109124629D01*
X179115053Y-109318788D01*
X179146989Y-109520425D01*
X179146989Y-109724575D01*
X179115053Y-109926212D01*
X179051967Y-110120371D01*
X178959285Y-110302271D01*
X178839288Y-110467432D01*
X178694932Y-110611788D01*
X178529771Y-110731785D01*
X178347871Y-110824467D01*
X178153712Y-110887553D01*
X177952075Y-110919489D01*
X177747925Y-110919489D01*
X177546288Y-110887553D01*
X177352129Y-110824467D01*
X177170229Y-110731785D01*
X177005068Y-110611788D01*
X176860712Y-110467432D01*
X176740715Y-110302271D01*
X176648033Y-110120371D01*
X176584947Y-109926212D01*
X176553011Y-109724575D01*
X176553011Y-109520425D01*
X176584947Y-109318788D01*
X176648033Y-109124629D01*
X176740715Y-108942729D01*
X176860712Y-108777568D01*
X177005068Y-108633212D01*
X177170229Y-108513215D01*
X177352129Y-108420533D01*
X177546288Y-108357447D01*
X177747925Y-108325511D01*
X177952075Y-108325511D01*
X178153712Y-108357447D01*
G37*
G36*
X190153712Y-108357447D02*
G01*
X190347871Y-108420533D01*
X190529771Y-108513215D01*
X190694932Y-108633212D01*
X190839288Y-108777568D01*
X190959285Y-108942729D01*
X191051967Y-109124629D01*
X191115053Y-109318788D01*
X191146989Y-109520425D01*
X191146989Y-109724575D01*
X191115053Y-109926212D01*
X191051967Y-110120371D01*
X190959285Y-110302271D01*
X190839288Y-110467432D01*
X190694932Y-110611788D01*
X190529771Y-110731785D01*
X190347871Y-110824467D01*
X190153712Y-110887553D01*
X189952075Y-110919489D01*
X189747925Y-110919489D01*
X189546288Y-110887553D01*
X189352129Y-110824467D01*
X189170229Y-110731785D01*
X189005068Y-110611788D01*
X188860712Y-110467432D01*
X188740715Y-110302271D01*
X188648033Y-110120371D01*
X188584947Y-109926212D01*
X188553011Y-109724575D01*
X188553011Y-109520425D01*
X188584947Y-109318788D01*
X188648033Y-109124629D01*
X188740715Y-108942729D01*
X188860712Y-108777568D01*
X189005068Y-108633212D01*
X189170229Y-108513215D01*
X189352129Y-108420533D01*
X189546288Y-108357447D01*
X189747925Y-108325511D01*
X189952075Y-108325511D01*
X190153712Y-108357447D01*
G37*
G36*
X119669517Y-106325382D02*
G01*
X119686062Y-106336438D01*
X119697118Y-106352983D01*
X119701000Y-106372500D01*
X119701000Y-108872500D01*
X119697118Y-108892017D01*
X119686062Y-108908562D01*
X119669517Y-108919618D01*
X119650000Y-108923500D01*
X117150000Y-108923500D01*
X117130483Y-108919618D01*
X117113938Y-108908562D01*
X117102882Y-108892017D01*
X117099000Y-108872500D01*
X117099000Y-106372500D01*
X117102882Y-106352983D01*
X117113938Y-106336438D01*
X117130483Y-106325382D01*
X117150000Y-106321500D01*
X119650000Y-106321500D01*
X119669517Y-106325382D01*
G37*
G36*
X138569517Y-106325382D02*
G01*
X138586062Y-106336438D01*
X138597118Y-106352983D01*
X138601000Y-106372500D01*
X138601000Y-108872500D01*
X138597118Y-108892017D01*
X138586062Y-108908562D01*
X138569517Y-108919618D01*
X138550000Y-108923500D01*
X136050000Y-108923500D01*
X136030483Y-108919618D01*
X136013938Y-108908562D01*
X136002882Y-108892017D01*
X135999000Y-108872500D01*
X135999000Y-106372500D01*
X136002882Y-106352983D01*
X136013938Y-106336438D01*
X136030483Y-106325382D01*
X136050000Y-106321500D01*
X138550000Y-106321500D01*
X138569517Y-106325382D01*
G37*
G36*
X166069517Y-106325382D02*
G01*
X166086062Y-106336438D01*
X166097118Y-106352983D01*
X166101000Y-106372500D01*
X166101000Y-108872500D01*
X166097118Y-108892017D01*
X166086062Y-108908562D01*
X166069517Y-108919618D01*
X166050000Y-108923500D01*
X163550000Y-108923500D01*
X163530483Y-108919618D01*
X163513938Y-108908562D01*
X163502882Y-108892017D01*
X163499000Y-108872500D01*
X163499000Y-106372500D01*
X163502882Y-106352983D01*
X163513938Y-106336438D01*
X163530483Y-106325382D01*
X163550000Y-106321500D01*
X166050000Y-106321500D01*
X166069517Y-106325382D01*
G37*
G36*
X185119517Y-106325382D02*
G01*
X185136062Y-106336438D01*
X185147118Y-106352983D01*
X185151000Y-106372500D01*
X185151000Y-108872500D01*
X185147118Y-108892017D01*
X185136062Y-108908562D01*
X185119517Y-108919618D01*
X185100000Y-108923500D01*
X182600000Y-108923500D01*
X182580483Y-108919618D01*
X182563938Y-108908562D01*
X182552882Y-108892017D01*
X182549000Y-108872500D01*
X182549000Y-106372500D01*
X182552882Y-106352983D01*
X182563938Y-106336438D01*
X182580483Y-106325382D01*
X182600000Y-106321500D01*
X185100000Y-106321500D01*
X185119517Y-106325382D01*
G37*
G36*
X147168914Y-103606995D02*
G01*
X147177612Y-103610835D01*
X147185212Y-103611943D01*
X147232718Y-103635167D01*
X147270106Y-103651676D01*
X147273567Y-103655137D01*
X147274501Y-103655594D01*
X147344405Y-103725498D01*
X147344861Y-103726431D01*
X147348324Y-103729894D01*
X147364836Y-103767291D01*
X147388056Y-103814787D01*
X147389162Y-103822384D01*
X147393005Y-103831086D01*
X147401000Y-103900000D01*
X147401000Y-106100000D01*
X147393005Y-106168914D01*
X147389162Y-106177615D01*
X147388056Y-106185212D01*
X147364841Y-106232697D01*
X147348324Y-106270106D01*
X147344860Y-106273569D01*
X147344405Y-106274501D01*
X147274501Y-106344405D01*
X147273569Y-106344860D01*
X147270106Y-106348324D01*
X147232697Y-106364841D01*
X147185212Y-106388056D01*
X147177615Y-106389162D01*
X147168914Y-106393005D01*
X147100000Y-106401000D01*
X146100000Y-106401000D01*
X146031086Y-106393005D01*
X146022384Y-106389162D01*
X146014787Y-106388056D01*
X145967291Y-106364836D01*
X145929894Y-106348324D01*
X145926431Y-106344861D01*
X145925498Y-106344405D01*
X145855594Y-106274501D01*
X145855137Y-106273567D01*
X145851676Y-106270106D01*
X145835167Y-106232718D01*
X145811943Y-106185212D01*
X145810835Y-106177612D01*
X145806995Y-106168914D01*
X145799000Y-106100000D01*
X145799000Y-103900000D01*
X145806995Y-103831086D01*
X145810835Y-103822387D01*
X145811943Y-103814787D01*
X145835172Y-103767270D01*
X145851676Y-103729894D01*
X145855136Y-103726433D01*
X145855594Y-103725498D01*
X145925498Y-103655594D01*
X145926433Y-103655136D01*
X145929894Y-103651676D01*
X145967270Y-103635172D01*
X146014787Y-103611943D01*
X146022387Y-103610835D01*
X146031086Y-103606995D01*
X146100000Y-103599000D01*
X147100000Y-103599000D01*
X147168914Y-103606995D01*
G37*
G36*
X151968914Y-103606995D02*
G01*
X151977612Y-103610835D01*
X151985212Y-103611943D01*
X152032718Y-103635167D01*
X152070106Y-103651676D01*
X152073567Y-103655137D01*
X152074501Y-103655594D01*
X152144405Y-103725498D01*
X152144861Y-103726431D01*
X152148324Y-103729894D01*
X152164836Y-103767291D01*
X152188056Y-103814787D01*
X152189162Y-103822384D01*
X152193005Y-103831086D01*
X152201000Y-103900000D01*
X152201000Y-106100000D01*
X152193005Y-106168914D01*
X152189162Y-106177615D01*
X152188056Y-106185212D01*
X152164841Y-106232697D01*
X152148324Y-106270106D01*
X152144860Y-106273569D01*
X152144405Y-106274501D01*
X152074501Y-106344405D01*
X152073569Y-106344860D01*
X152070106Y-106348324D01*
X152032697Y-106364841D01*
X151985212Y-106388056D01*
X151977615Y-106389162D01*
X151968914Y-106393005D01*
X151900000Y-106401000D01*
X150900000Y-106401000D01*
X150831086Y-106393005D01*
X150822384Y-106389162D01*
X150814787Y-106388056D01*
X150767291Y-106364836D01*
X150729894Y-106348324D01*
X150726431Y-106344861D01*
X150725498Y-106344405D01*
X150655594Y-106274501D01*
X150655137Y-106273567D01*
X150651676Y-106270106D01*
X150635167Y-106232718D01*
X150611943Y-106185212D01*
X150610835Y-106177612D01*
X150606995Y-106168914D01*
X150599000Y-106100000D01*
X150599000Y-103900000D01*
X150606995Y-103831086D01*
X150610835Y-103822387D01*
X150611943Y-103814787D01*
X150635172Y-103767270D01*
X150651676Y-103729894D01*
X150655136Y-103726433D01*
X150655594Y-103725498D01*
X150725498Y-103655594D01*
X150726433Y-103655136D01*
X150729894Y-103651676D01*
X150767270Y-103635172D01*
X150814787Y-103611943D01*
X150822387Y-103610835D01*
X150831086Y-103606995D01*
X150900000Y-103599000D01*
X151900000Y-103599000D01*
X151968914Y-103606995D01*
G37*
G36*
X125468914Y-103506995D02*
G01*
X125477612Y-103510835D01*
X125485212Y-103511943D01*
X125532718Y-103535167D01*
X125570106Y-103551676D01*
X125573567Y-103555137D01*
X125574501Y-103555594D01*
X125644405Y-103625498D01*
X125644861Y-103626431D01*
X125648324Y-103629894D01*
X125664836Y-103667291D01*
X125688056Y-103714787D01*
X125689162Y-103722384D01*
X125693005Y-103731086D01*
X125701000Y-103800000D01*
X125701000Y-106000000D01*
X125693005Y-106068914D01*
X125689162Y-106077615D01*
X125688056Y-106085212D01*
X125664841Y-106132697D01*
X125648324Y-106170106D01*
X125644860Y-106173569D01*
X125644405Y-106174501D01*
X125574501Y-106244405D01*
X125573569Y-106244860D01*
X125570106Y-106248324D01*
X125532697Y-106264841D01*
X125485212Y-106288056D01*
X125477615Y-106289162D01*
X125468914Y-106293005D01*
X125400000Y-106301000D01*
X124400000Y-106301000D01*
X124331086Y-106293005D01*
X124322384Y-106289162D01*
X124314787Y-106288056D01*
X124267291Y-106264836D01*
X124229894Y-106248324D01*
X124226431Y-106244861D01*
X124225498Y-106244405D01*
X124155594Y-106174501D01*
X124155137Y-106173567D01*
X124151676Y-106170106D01*
X124135167Y-106132718D01*
X124111943Y-106085212D01*
X124110835Y-106077612D01*
X124106995Y-106068914D01*
X124099000Y-106000000D01*
X124099000Y-103800000D01*
X124106995Y-103731086D01*
X124110835Y-103722387D01*
X124111943Y-103714787D01*
X124135172Y-103667270D01*
X124151676Y-103629894D01*
X124155136Y-103626433D01*
X124155594Y-103625498D01*
X124225498Y-103555594D01*
X124226433Y-103555136D01*
X124229894Y-103551676D01*
X124267270Y-103535172D01*
X124314787Y-103511943D01*
X124322387Y-103510835D01*
X124331086Y-103506995D01*
X124400000Y-103499000D01*
X125400000Y-103499000D01*
X125468914Y-103506995D01*
G37*
G36*
X130268914Y-103506995D02*
G01*
X130277612Y-103510835D01*
X130285212Y-103511943D01*
X130332718Y-103535167D01*
X130370106Y-103551676D01*
X130373567Y-103555137D01*
X130374501Y-103555594D01*
X130444405Y-103625498D01*
X130444861Y-103626431D01*
X130448324Y-103629894D01*
X130464836Y-103667291D01*
X130488056Y-103714787D01*
X130489162Y-103722384D01*
X130493005Y-103731086D01*
X130501000Y-103800000D01*
X130501000Y-106000000D01*
X130493005Y-106068914D01*
X130489162Y-106077615D01*
X130488056Y-106085212D01*
X130464841Y-106132697D01*
X130448324Y-106170106D01*
X130444860Y-106173569D01*
X130444405Y-106174501D01*
X130374501Y-106244405D01*
X130373569Y-106244860D01*
X130370106Y-106248324D01*
X130332697Y-106264841D01*
X130285212Y-106288056D01*
X130277615Y-106289162D01*
X130268914Y-106293005D01*
X130200000Y-106301000D01*
X129200000Y-106301000D01*
X129131086Y-106293005D01*
X129122384Y-106289162D01*
X129114787Y-106288056D01*
X129067291Y-106264836D01*
X129029894Y-106248324D01*
X129026431Y-106244861D01*
X129025498Y-106244405D01*
X128955594Y-106174501D01*
X128955137Y-106173567D01*
X128951676Y-106170106D01*
X128935167Y-106132718D01*
X128911943Y-106085212D01*
X128910835Y-106077612D01*
X128906995Y-106068914D01*
X128899000Y-106000000D01*
X128899000Y-103800000D01*
X128906995Y-103731086D01*
X128910835Y-103722387D01*
X128911943Y-103714787D01*
X128935172Y-103667270D01*
X128951676Y-103629894D01*
X128955136Y-103626433D01*
X128955594Y-103625498D01*
X129025498Y-103555594D01*
X129026433Y-103555136D01*
X129029894Y-103551676D01*
X129067270Y-103535172D01*
X129114787Y-103511943D01*
X129122387Y-103510835D01*
X129131086Y-103506995D01*
X129200000Y-103499000D01*
X130200000Y-103499000D01*
X130268914Y-103506995D01*
G37*
G36*
X172018914Y-103106995D02*
G01*
X172027612Y-103110835D01*
X172035212Y-103111943D01*
X172082718Y-103135167D01*
X172120106Y-103151676D01*
X172123567Y-103155137D01*
X172124501Y-103155594D01*
X172194405Y-103225498D01*
X172194861Y-103226431D01*
X172198324Y-103229894D01*
X172214836Y-103267291D01*
X172238056Y-103314787D01*
X172239162Y-103322384D01*
X172243005Y-103331086D01*
X172251000Y-103400000D01*
X172251000Y-105600000D01*
X172243005Y-105668914D01*
X172239162Y-105677615D01*
X172238056Y-105685212D01*
X172214841Y-105732697D01*
X172198324Y-105770106D01*
X172194860Y-105773569D01*
X172194405Y-105774501D01*
X172124501Y-105844405D01*
X172123569Y-105844860D01*
X172120106Y-105848324D01*
X172082697Y-105864841D01*
X172035212Y-105888056D01*
X172027615Y-105889162D01*
X172018914Y-105893005D01*
X171950000Y-105901000D01*
X170950000Y-105901000D01*
X170881086Y-105893005D01*
X170872384Y-105889162D01*
X170864787Y-105888056D01*
X170817291Y-105864836D01*
X170779894Y-105848324D01*
X170776431Y-105844861D01*
X170775498Y-105844405D01*
X170705594Y-105774501D01*
X170705137Y-105773567D01*
X170701676Y-105770106D01*
X170685167Y-105732718D01*
X170661943Y-105685212D01*
X170660835Y-105677612D01*
X170656995Y-105668914D01*
X170649000Y-105600000D01*
X170649000Y-103400000D01*
X170656995Y-103331086D01*
X170660835Y-103322387D01*
X170661943Y-103314787D01*
X170685172Y-103267270D01*
X170701676Y-103229894D01*
X170705136Y-103226433D01*
X170705594Y-103225498D01*
X170775498Y-103155594D01*
X170776433Y-103155136D01*
X170779894Y-103151676D01*
X170817270Y-103135172D01*
X170864787Y-103111943D01*
X170872387Y-103110835D01*
X170881086Y-103106995D01*
X170950000Y-103099000D01*
X171950000Y-103099000D01*
X172018914Y-103106995D01*
G37*
G36*
X176818914Y-103106995D02*
G01*
X176827612Y-103110835D01*
X176835212Y-103111943D01*
X176882718Y-103135167D01*
X176920106Y-103151676D01*
X176923567Y-103155137D01*
X176924501Y-103155594D01*
X176994405Y-103225498D01*
X176994861Y-103226431D01*
X176998324Y-103229894D01*
X177014836Y-103267291D01*
X177038056Y-103314787D01*
X177039162Y-103322384D01*
X177043005Y-103331086D01*
X177051000Y-103400000D01*
X177051000Y-105600000D01*
X177043005Y-105668914D01*
X177039162Y-105677615D01*
X177038056Y-105685212D01*
X177014841Y-105732697D01*
X176998324Y-105770106D01*
X176994860Y-105773569D01*
X176994405Y-105774501D01*
X176924501Y-105844405D01*
X176923569Y-105844860D01*
X176920106Y-105848324D01*
X176882697Y-105864841D01*
X176835212Y-105888056D01*
X176827615Y-105889162D01*
X176818914Y-105893005D01*
X176750000Y-105901000D01*
X175750000Y-105901000D01*
X175681086Y-105893005D01*
X175672384Y-105889162D01*
X175664787Y-105888056D01*
X175617291Y-105864836D01*
X175579894Y-105848324D01*
X175576431Y-105844861D01*
X175575498Y-105844405D01*
X175505594Y-105774501D01*
X175505137Y-105773567D01*
X175501676Y-105770106D01*
X175485167Y-105732718D01*
X175461943Y-105685212D01*
X175460835Y-105677612D01*
X175456995Y-105668914D01*
X175449000Y-105600000D01*
X175449000Y-103400000D01*
X175456995Y-103331086D01*
X175460835Y-103322387D01*
X175461943Y-103314787D01*
X175485172Y-103267270D01*
X175501676Y-103229894D01*
X175505136Y-103226433D01*
X175505594Y-103225498D01*
X175575498Y-103155594D01*
X175576433Y-103155136D01*
X175579894Y-103151676D01*
X175617270Y-103135172D01*
X175664787Y-103111943D01*
X175672387Y-103110835D01*
X175681086Y-103106995D01*
X175750000Y-103099000D01*
X176750000Y-103099000D01*
X176818914Y-103106995D01*
G37*
G36*
X191018914Y-102956995D02*
G01*
X191027612Y-102960835D01*
X191035212Y-102961943D01*
X191082718Y-102985167D01*
X191120106Y-103001676D01*
X191123567Y-103005137D01*
X191124501Y-103005594D01*
X191194405Y-103075498D01*
X191194861Y-103076431D01*
X191198324Y-103079894D01*
X191214836Y-103117291D01*
X191238056Y-103164787D01*
X191239162Y-103172384D01*
X191243005Y-103181086D01*
X191251000Y-103250000D01*
X191251000Y-105450000D01*
X191243005Y-105518914D01*
X191239162Y-105527615D01*
X191238056Y-105535212D01*
X191214841Y-105582697D01*
X191198324Y-105620106D01*
X191194860Y-105623569D01*
X191194405Y-105624501D01*
X191124501Y-105694405D01*
X191123569Y-105694860D01*
X191120106Y-105698324D01*
X191082697Y-105714841D01*
X191035212Y-105738056D01*
X191027615Y-105739162D01*
X191018914Y-105743005D01*
X190950000Y-105751000D01*
X189950000Y-105751000D01*
X189881086Y-105743005D01*
X189872384Y-105739162D01*
X189864787Y-105738056D01*
X189817291Y-105714836D01*
X189779894Y-105698324D01*
X189776431Y-105694861D01*
X189775498Y-105694405D01*
X189705594Y-105624501D01*
X189705137Y-105623567D01*
X189701676Y-105620106D01*
X189685167Y-105582718D01*
X189661943Y-105535212D01*
X189660835Y-105527612D01*
X189656995Y-105518914D01*
X189649000Y-105450000D01*
X189649000Y-103250000D01*
X189656995Y-103181086D01*
X189660835Y-103172387D01*
X189661943Y-103164787D01*
X189685172Y-103117270D01*
X189701676Y-103079894D01*
X189705136Y-103076433D01*
X189705594Y-103075498D01*
X189775498Y-103005594D01*
X189776433Y-103005136D01*
X189779894Y-103001676D01*
X189817270Y-102985172D01*
X189864787Y-102961943D01*
X189872387Y-102960835D01*
X189881086Y-102956995D01*
X189950000Y-102949000D01*
X190950000Y-102949000D01*
X191018914Y-102956995D01*
G37*
G36*
X195818914Y-102956995D02*
G01*
X195827612Y-102960835D01*
X195835212Y-102961943D01*
X195882718Y-102985167D01*
X195920106Y-103001676D01*
X195923567Y-103005137D01*
X195924501Y-103005594D01*
X195994405Y-103075498D01*
X195994861Y-103076431D01*
X195998324Y-103079894D01*
X196014836Y-103117291D01*
X196038056Y-103164787D01*
X196039162Y-103172384D01*
X196043005Y-103181086D01*
X196051000Y-103250000D01*
X196051000Y-105450000D01*
X196043005Y-105518914D01*
X196039162Y-105527615D01*
X196038056Y-105535212D01*
X196014841Y-105582697D01*
X195998324Y-105620106D01*
X195994860Y-105623569D01*
X195994405Y-105624501D01*
X195924501Y-105694405D01*
X195923569Y-105694860D01*
X195920106Y-105698324D01*
X195882697Y-105714841D01*
X195835212Y-105738056D01*
X195827615Y-105739162D01*
X195818914Y-105743005D01*
X195750000Y-105751000D01*
X194750000Y-105751000D01*
X194681086Y-105743005D01*
X194672384Y-105739162D01*
X194664787Y-105738056D01*
X194617291Y-105714836D01*
X194579894Y-105698324D01*
X194576431Y-105694861D01*
X194575498Y-105694405D01*
X194505594Y-105624501D01*
X194505137Y-105623567D01*
X194501676Y-105620106D01*
X194485167Y-105582718D01*
X194461943Y-105535212D01*
X194460835Y-105527612D01*
X194456995Y-105518914D01*
X194449000Y-105450000D01*
X194449000Y-103250000D01*
X194456995Y-103181086D01*
X194460835Y-103172387D01*
X194461943Y-103164787D01*
X194485172Y-103117270D01*
X194501676Y-103079894D01*
X194505136Y-103076433D01*
X194505594Y-103075498D01*
X194575498Y-103005594D01*
X194576433Y-103005136D01*
X194579894Y-103001676D01*
X194617270Y-102985172D01*
X194664787Y-102961943D01*
X194672387Y-102960835D01*
X194681086Y-102956995D01*
X194750000Y-102949000D01*
X195750000Y-102949000D01*
X195818914Y-102956995D01*
G37*
G36*
X157878807Y-83055932D02*
G01*
X157881404Y-83056776D01*
X157881645Y-83057107D01*
X157889598Y-83060402D01*
X157896972Y-83078205D01*
X157903305Y-83086922D01*
X157904991Y-83097564D01*
X157906000Y-83100000D01*
X157906000Y-84600000D01*
X157894063Y-84628817D01*
X157893223Y-84631404D01*
X157892892Y-84631643D01*
X157889598Y-84639598D01*
X157871792Y-84646973D01*
X157863077Y-84653305D01*
X157852436Y-84654990D01*
X157850000Y-84656000D01*
X157846067Y-84656000D01*
X157307920Y-84656000D01*
X157300000Y-84656000D01*
X157289672Y-84651722D01*
X157238013Y-84651722D01*
X157234737Y-84651722D01*
X157220243Y-84649814D01*
X157094164Y-84616032D01*
X157080658Y-84610437D01*
X157077822Y-84608799D01*
X157077818Y-84608798D01*
X156970460Y-84546815D01*
X156970456Y-84546811D01*
X156967619Y-84545174D01*
X156956021Y-84536275D01*
X156863725Y-84443979D01*
X156854826Y-84432381D01*
X156853188Y-84429545D01*
X156853184Y-84429539D01*
X156791201Y-84322181D01*
X156791198Y-84322174D01*
X156789563Y-84319342D01*
X156783968Y-84305836D01*
X156783119Y-84302669D01*
X156751034Y-84182924D01*
X156751033Y-84182919D01*
X156750186Y-84179757D01*
X156748278Y-84165263D01*
X156748278Y-84125044D01*
X156747970Y-84121127D01*
X156745009Y-84102436D01*
X156744000Y-84100000D01*
X156744000Y-83600000D01*
X156748278Y-83589671D01*
X156748278Y-83534737D01*
X156750186Y-83520243D01*
X156751033Y-83517081D01*
X156751034Y-83517075D01*
X156783119Y-83397330D01*
X156783120Y-83397325D01*
X156783968Y-83394164D01*
X156789563Y-83380658D01*
X156791196Y-83377828D01*
X156791201Y-83377818D01*
X156853184Y-83270460D01*
X156853191Y-83270450D01*
X156854826Y-83267619D01*
X156863725Y-83256021D01*
X156866035Y-83253710D01*
X156866039Y-83253706D01*
X156953706Y-83166039D01*
X156953710Y-83166035D01*
X156956021Y-83163725D01*
X156967619Y-83154826D01*
X156970450Y-83153191D01*
X156970460Y-83153184D01*
X157077818Y-83091201D01*
X157077828Y-83091196D01*
X157080658Y-83089563D01*
X157094164Y-83083968D01*
X157097325Y-83083120D01*
X157097330Y-83083119D01*
X157217075Y-83051034D01*
X157217081Y-83051033D01*
X157220243Y-83050186D01*
X157234737Y-83048278D01*
X157274954Y-83048278D01*
X157278871Y-83047970D01*
X157297564Y-83045008D01*
X157300000Y-83044000D01*
X157850000Y-83044000D01*
X157878807Y-83055932D01*
G37*
G36*
X159910328Y-83048278D02*
G01*
X159961987Y-83048278D01*
X159965263Y-83048278D01*
X159979757Y-83050186D01*
X159982919Y-83051033D01*
X159982924Y-83051034D01*
X160102669Y-83083119D01*
X160102671Y-83083120D01*
X160105836Y-83083968D01*
X160119342Y-83089563D01*
X160122174Y-83091198D01*
X160122181Y-83091201D01*
X160229539Y-83153184D01*
X160229545Y-83153188D01*
X160232381Y-83154826D01*
X160243979Y-83163725D01*
X160336275Y-83256021D01*
X160345174Y-83267619D01*
X160346811Y-83270456D01*
X160346815Y-83270460D01*
X160408798Y-83377818D01*
X160408799Y-83377822D01*
X160410437Y-83380658D01*
X160416032Y-83394164D01*
X160449814Y-83520243D01*
X160451722Y-83534737D01*
X160451722Y-83538013D01*
X160451722Y-83574954D01*
X160452030Y-83578871D01*
X160454991Y-83597564D01*
X160456000Y-83600000D01*
X160456000Y-84100000D01*
X160451722Y-84110328D01*
X160451722Y-84165263D01*
X160449814Y-84179757D01*
X160416032Y-84305836D01*
X160410437Y-84319342D01*
X160345174Y-84432381D01*
X160336275Y-84443979D01*
X160243979Y-84536275D01*
X160232381Y-84545174D01*
X160229539Y-84546814D01*
X160229539Y-84546815D01*
X160122181Y-84608798D01*
X160119342Y-84610437D01*
X160105836Y-84616032D01*
X159979757Y-84649814D01*
X159965263Y-84651722D01*
X159961987Y-84651722D01*
X159925046Y-84651722D01*
X159921129Y-84652030D01*
X159902435Y-84654991D01*
X159900000Y-84656000D01*
X159896067Y-84656000D01*
X159357919Y-84656000D01*
X159350000Y-84656000D01*
X159321185Y-84644064D01*
X159318595Y-84643223D01*
X159318354Y-84642892D01*
X159310402Y-84639598D01*
X159303027Y-84621795D01*
X159296694Y-84613077D01*
X159295008Y-84602434D01*
X159294000Y-84600000D01*
X159294000Y-83100000D01*
X159305930Y-83071196D01*
X159306776Y-83068595D01*
X159307108Y-83068353D01*
X159310402Y-83060402D01*
X159328202Y-83053028D01*
X159336922Y-83046694D01*
X159347565Y-83045008D01*
X159350000Y-83044000D01*
X159900000Y-83044000D01*
X159910328Y-83048278D01*
G37*
G36*
X164128807Y-83055932D02*
G01*
X164131404Y-83056776D01*
X164131645Y-83057107D01*
X164139598Y-83060402D01*
X164146972Y-83078205D01*
X164153305Y-83086922D01*
X164154991Y-83097564D01*
X164156000Y-83100000D01*
X164156000Y-84600000D01*
X164144063Y-84628817D01*
X164143223Y-84631404D01*
X164142892Y-84631643D01*
X164139598Y-84639598D01*
X164121792Y-84646973D01*
X164113077Y-84653305D01*
X164102436Y-84654990D01*
X164100000Y-84656000D01*
X164096067Y-84656000D01*
X163557920Y-84656000D01*
X163550000Y-84656000D01*
X163539672Y-84651722D01*
X163488013Y-84651722D01*
X163484737Y-84651722D01*
X163470243Y-84649814D01*
X163344164Y-84616032D01*
X163330658Y-84610437D01*
X163327822Y-84608799D01*
X163327818Y-84608798D01*
X163220460Y-84546815D01*
X163220456Y-84546811D01*
X163217619Y-84545174D01*
X163206021Y-84536275D01*
X163113725Y-84443979D01*
X163104826Y-84432381D01*
X163103188Y-84429545D01*
X163103184Y-84429539D01*
X163041201Y-84322181D01*
X163041198Y-84322174D01*
X163039563Y-84319342D01*
X163033968Y-84305836D01*
X163033119Y-84302669D01*
X163001034Y-84182924D01*
X163001033Y-84182919D01*
X163000186Y-84179757D01*
X162998278Y-84165263D01*
X162998278Y-84125044D01*
X162997970Y-84121127D01*
X162995009Y-84102436D01*
X162994000Y-84100000D01*
X162994000Y-83600000D01*
X162998278Y-83589671D01*
X162998278Y-83534737D01*
X163000186Y-83520243D01*
X163001033Y-83517081D01*
X163001034Y-83517075D01*
X163033119Y-83397330D01*
X163033120Y-83397325D01*
X163033968Y-83394164D01*
X163039563Y-83380658D01*
X163041196Y-83377828D01*
X163041201Y-83377818D01*
X163103184Y-83270460D01*
X163103191Y-83270450D01*
X163104826Y-83267619D01*
X163113725Y-83256021D01*
X163116035Y-83253710D01*
X163116039Y-83253706D01*
X163203706Y-83166039D01*
X163203710Y-83166035D01*
X163206021Y-83163725D01*
X163217619Y-83154826D01*
X163220450Y-83153191D01*
X163220460Y-83153184D01*
X163327818Y-83091201D01*
X163327828Y-83091196D01*
X163330658Y-83089563D01*
X163344164Y-83083968D01*
X163347325Y-83083120D01*
X163347330Y-83083119D01*
X163467075Y-83051034D01*
X163467081Y-83051033D01*
X163470243Y-83050186D01*
X163484737Y-83048278D01*
X163524954Y-83048278D01*
X163528871Y-83047970D01*
X163547564Y-83045008D01*
X163550000Y-83044000D01*
X164100000Y-83044000D01*
X164128807Y-83055932D01*
G37*
G36*
X166160328Y-83048278D02*
G01*
X166211987Y-83048278D01*
X166215263Y-83048278D01*
X166229757Y-83050186D01*
X166232919Y-83051033D01*
X166232924Y-83051034D01*
X166352669Y-83083119D01*
X166352671Y-83083120D01*
X166355836Y-83083968D01*
X166369342Y-83089563D01*
X166372174Y-83091198D01*
X166372181Y-83091201D01*
X166479539Y-83153184D01*
X166479545Y-83153188D01*
X166482381Y-83154826D01*
X166493979Y-83163725D01*
X166586275Y-83256021D01*
X166595174Y-83267619D01*
X166596811Y-83270456D01*
X166596815Y-83270460D01*
X166658798Y-83377818D01*
X166658799Y-83377822D01*
X166660437Y-83380658D01*
X166666032Y-83394164D01*
X166699814Y-83520243D01*
X166701722Y-83534737D01*
X166701722Y-83538013D01*
X166701722Y-83574954D01*
X166702030Y-83578871D01*
X166704991Y-83597564D01*
X166706000Y-83600000D01*
X166706000Y-84100000D01*
X166701722Y-84110328D01*
X166701722Y-84165263D01*
X166699814Y-84179757D01*
X166666032Y-84305836D01*
X166660437Y-84319342D01*
X166595174Y-84432381D01*
X166586275Y-84443979D01*
X166493979Y-84536275D01*
X166482381Y-84545174D01*
X166479539Y-84546814D01*
X166479539Y-84546815D01*
X166372181Y-84608798D01*
X166369342Y-84610437D01*
X166355836Y-84616032D01*
X166229757Y-84649814D01*
X166215263Y-84651722D01*
X166211987Y-84651722D01*
X166175046Y-84651722D01*
X166171129Y-84652030D01*
X166152435Y-84654991D01*
X166150000Y-84656000D01*
X166146067Y-84656000D01*
X165607919Y-84656000D01*
X165600000Y-84656000D01*
X165571185Y-84644064D01*
X165568595Y-84643223D01*
X165568354Y-84642892D01*
X165560402Y-84639598D01*
X165553027Y-84621795D01*
X165546694Y-84613077D01*
X165545008Y-84602434D01*
X165544000Y-84600000D01*
X165544000Y-83100000D01*
X165555930Y-83071196D01*
X165556776Y-83068595D01*
X165557108Y-83068353D01*
X165560402Y-83060402D01*
X165578202Y-83053028D01*
X165586922Y-83046694D01*
X165597565Y-83045008D01*
X165600000Y-83044000D01*
X166150000Y-83044000D01*
X166160328Y-83048278D01*
G37*
G36*
X170378807Y-83055932D02*
G01*
X170381404Y-83056776D01*
X170381645Y-83057107D01*
X170389598Y-83060402D01*
X170396972Y-83078205D01*
X170403305Y-83086922D01*
X170404991Y-83097564D01*
X170406000Y-83100000D01*
X170406000Y-84600000D01*
X170394063Y-84628817D01*
X170393223Y-84631404D01*
X170392892Y-84631643D01*
X170389598Y-84639598D01*
X170371792Y-84646973D01*
X170363077Y-84653305D01*
X170352436Y-84654990D01*
X170350000Y-84656000D01*
X170346067Y-84656000D01*
X169807920Y-84656000D01*
X169800000Y-84656000D01*
X169789672Y-84651722D01*
X169738013Y-84651722D01*
X169734737Y-84651722D01*
X169720243Y-84649814D01*
X169594164Y-84616032D01*
X169580658Y-84610437D01*
X169577822Y-84608799D01*
X169577818Y-84608798D01*
X169470460Y-84546815D01*
X169470456Y-84546811D01*
X169467619Y-84545174D01*
X169456021Y-84536275D01*
X169363725Y-84443979D01*
X169354826Y-84432381D01*
X169353188Y-84429545D01*
X169353184Y-84429539D01*
X169291201Y-84322181D01*
X169291198Y-84322174D01*
X169289563Y-84319342D01*
X169283968Y-84305836D01*
X169283119Y-84302669D01*
X169251034Y-84182924D01*
X169251033Y-84182919D01*
X169250186Y-84179757D01*
X169248278Y-84165263D01*
X169248278Y-84125044D01*
X169247970Y-84121127D01*
X169245009Y-84102436D01*
X169244000Y-84100000D01*
X169244000Y-83600000D01*
X169248278Y-83589671D01*
X169248278Y-83534737D01*
X169250186Y-83520243D01*
X169251033Y-83517081D01*
X169251034Y-83517075D01*
X169283119Y-83397330D01*
X169283120Y-83397325D01*
X169283968Y-83394164D01*
X169289563Y-83380658D01*
X169291196Y-83377828D01*
X169291201Y-83377818D01*
X169353184Y-83270460D01*
X169353191Y-83270450D01*
X169354826Y-83267619D01*
X169363725Y-83256021D01*
X169366035Y-83253710D01*
X169366039Y-83253706D01*
X169453706Y-83166039D01*
X169453710Y-83166035D01*
X169456021Y-83163725D01*
X169467619Y-83154826D01*
X169470450Y-83153191D01*
X169470460Y-83153184D01*
X169577818Y-83091201D01*
X169577828Y-83091196D01*
X169580658Y-83089563D01*
X169594164Y-83083968D01*
X169597325Y-83083120D01*
X169597330Y-83083119D01*
X169717075Y-83051034D01*
X169717081Y-83051033D01*
X169720243Y-83050186D01*
X169734737Y-83048278D01*
X169774954Y-83048278D01*
X169778871Y-83047970D01*
X169797564Y-83045008D01*
X169800000Y-83044000D01*
X170350000Y-83044000D01*
X170378807Y-83055932D01*
G37*
G36*
X172410328Y-83048278D02*
G01*
X172461987Y-83048278D01*
X172465263Y-83048278D01*
X172479757Y-83050186D01*
X172482919Y-83051033D01*
X172482924Y-83051034D01*
X172602669Y-83083119D01*
X172602671Y-83083120D01*
X172605836Y-83083968D01*
X172619342Y-83089563D01*
X172622174Y-83091198D01*
X172622181Y-83091201D01*
X172729539Y-83153184D01*
X172729545Y-83153188D01*
X172732381Y-83154826D01*
X172743979Y-83163725D01*
X172836275Y-83256021D01*
X172845174Y-83267619D01*
X172846811Y-83270456D01*
X172846815Y-83270460D01*
X172908798Y-83377818D01*
X172908799Y-83377822D01*
X172910437Y-83380658D01*
X172916032Y-83394164D01*
X172949814Y-83520243D01*
X172951722Y-83534737D01*
X172951722Y-83538013D01*
X172951722Y-83574954D01*
X172952030Y-83578871D01*
X172954991Y-83597564D01*
X172956000Y-83600000D01*
X172956000Y-84100000D01*
X172951722Y-84110328D01*
X172951722Y-84165263D01*
X172949814Y-84179757D01*
X172916032Y-84305836D01*
X172910437Y-84319342D01*
X172845174Y-84432381D01*
X172836275Y-84443979D01*
X172743979Y-84536275D01*
X172732381Y-84545174D01*
X172729539Y-84546814D01*
X172729539Y-84546815D01*
X172622181Y-84608798D01*
X172619342Y-84610437D01*
X172605836Y-84616032D01*
X172479757Y-84649814D01*
X172465263Y-84651722D01*
X172461987Y-84651722D01*
X172425046Y-84651722D01*
X172421129Y-84652030D01*
X172402435Y-84654991D01*
X172400000Y-84656000D01*
X172396067Y-84656000D01*
X171857919Y-84656000D01*
X171850000Y-84656000D01*
X171821185Y-84644064D01*
X171818595Y-84643223D01*
X171818354Y-84642892D01*
X171810402Y-84639598D01*
X171803027Y-84621795D01*
X171796694Y-84613077D01*
X171795008Y-84602434D01*
X171794000Y-84600000D01*
X171794000Y-83100000D01*
X171805930Y-83071196D01*
X171806776Y-83068595D01*
X171807108Y-83068353D01*
X171810402Y-83060402D01*
X171828202Y-83053028D01*
X171836922Y-83046694D01*
X171847565Y-83045008D01*
X171850000Y-83044000D01*
X172400000Y-83044000D01*
X172410328Y-83048278D01*
G37*
G36*
X159119517Y-83052882D02*
G01*
X159136062Y-83063938D01*
X159147118Y-83080483D01*
X159151000Y-83100000D01*
X159151000Y-84600000D01*
X159147118Y-84619517D01*
X159136062Y-84636062D01*
X159119517Y-84647118D01*
X159100000Y-84651000D01*
X158100000Y-84651000D01*
X158080483Y-84647118D01*
X158063938Y-84636062D01*
X158052882Y-84619517D01*
X158049000Y-84600000D01*
X158049000Y-83100000D01*
X158052882Y-83080483D01*
X158063938Y-83063938D01*
X158080483Y-83052882D01*
X158100000Y-83049000D01*
X159100000Y-83049000D01*
X159119517Y-83052882D01*
G37*
G36*
X165369517Y-83052882D02*
G01*
X165386062Y-83063938D01*
X165397118Y-83080483D01*
X165401000Y-83100000D01*
X165401000Y-84600000D01*
X165397118Y-84619517D01*
X165386062Y-84636062D01*
X165369517Y-84647118D01*
X165350000Y-84651000D01*
X164350000Y-84651000D01*
X164330483Y-84647118D01*
X164313938Y-84636062D01*
X164302882Y-84619517D01*
X164299000Y-84600000D01*
X164299000Y-83100000D01*
X164302882Y-83080483D01*
X164313938Y-83063938D01*
X164330483Y-83052882D01*
X164350000Y-83049000D01*
X165350000Y-83049000D01*
X165369517Y-83052882D01*
G37*
G36*
X171619517Y-83052882D02*
G01*
X171636062Y-83063938D01*
X171647118Y-83080483D01*
X171651000Y-83100000D01*
X171651000Y-84600000D01*
X171647118Y-84619517D01*
X171636062Y-84636062D01*
X171619517Y-84647118D01*
X171600000Y-84651000D01*
X170600000Y-84651000D01*
X170580483Y-84647118D01*
X170563938Y-84636062D01*
X170552882Y-84619517D01*
X170549000Y-84600000D01*
X170549000Y-83100000D01*
X170552882Y-83080483D01*
X170563938Y-83063938D01*
X170580483Y-83052882D01*
X170600000Y-83049000D01*
X171600000Y-83049000D01*
X171619517Y-83052882D01*
G37*
G36*
X118472517Y-73410382D02*
G01*
X118489062Y-73421438D01*
X118500118Y-73437983D01*
X118504000Y-73457500D01*
X118504000Y-75757500D01*
X118500118Y-75777017D01*
X118489062Y-75793562D01*
X118472517Y-75804618D01*
X118453000Y-75808500D01*
X116953000Y-75808500D01*
X116933483Y-75804618D01*
X116916938Y-75793562D01*
X116905882Y-75777017D01*
X116902000Y-75757500D01*
X116902000Y-73457500D01*
X116905882Y-73437983D01*
X116916938Y-73421438D01*
X116933483Y-73410382D01*
X116953000Y-73406500D01*
X118453000Y-73406500D01*
X118472517Y-73410382D01*
G37*
G36*
X120475518Y-73440991D02*
G01*
X120620589Y-73501081D01*
X120751149Y-73588319D01*
X120862181Y-73699351D01*
X120949419Y-73829911D01*
X121009509Y-73974982D01*
X121040143Y-74128988D01*
X121044000Y-74207500D01*
X121044000Y-75007500D01*
X121040143Y-75086012D01*
X121009509Y-75240018D01*
X120949419Y-75385089D01*
X120862181Y-75515649D01*
X120751149Y-75626681D01*
X120620589Y-75713919D01*
X120475518Y-75774009D01*
X120321512Y-75804643D01*
X120164488Y-75804643D01*
X120010482Y-75774009D01*
X119865411Y-75713919D01*
X119734851Y-75626681D01*
X119623819Y-75515649D01*
X119536581Y-75385089D01*
X119476491Y-75240018D01*
X119445857Y-75086012D01*
X119442000Y-75007500D01*
X119442000Y-74207500D01*
X119445857Y-74128988D01*
X119476491Y-73974982D01*
X119536581Y-73829911D01*
X119623819Y-73699351D01*
X119734851Y-73588319D01*
X119865411Y-73501081D01*
X120010482Y-73440991D01*
X120164488Y-73410357D01*
X120321512Y-73410357D01*
X120475518Y-73440991D01*
G37*
G36*
X123015518Y-73440991D02*
G01*
X123160589Y-73501081D01*
X123291149Y-73588319D01*
X123402181Y-73699351D01*
X123489419Y-73829911D01*
X123549509Y-73974982D01*
X123580143Y-74128988D01*
X123584000Y-74207500D01*
X123584000Y-75007500D01*
X123580143Y-75086012D01*
X123549509Y-75240018D01*
X123489419Y-75385089D01*
X123402181Y-75515649D01*
X123291149Y-75626681D01*
X123160589Y-75713919D01*
X123015518Y-75774009D01*
X122861512Y-75804643D01*
X122704488Y-75804643D01*
X122550482Y-75774009D01*
X122405411Y-75713919D01*
X122274851Y-75626681D01*
X122163819Y-75515649D01*
X122076581Y-75385089D01*
X122016491Y-75240018D01*
X121985857Y-75086012D01*
X121982000Y-75007500D01*
X121982000Y-74207500D01*
X121985857Y-74128988D01*
X122016491Y-73974982D01*
X122076581Y-73829911D01*
X122163819Y-73699351D01*
X122274851Y-73588319D01*
X122405411Y-73501081D01*
X122550482Y-73440991D01*
X122704488Y-73410357D01*
X122861512Y-73410357D01*
X123015518Y-73440991D01*
G37*
G36*
X105561061Y-68892108D02*
G01*
X105894625Y-68968241D01*
X106217567Y-69081244D01*
X106525826Y-69229693D01*
X106815526Y-69411724D01*
X107083023Y-69625046D01*
X107324954Y-69866977D01*
X107538276Y-70134474D01*
X107720307Y-70424174D01*
X107868756Y-70732433D01*
X107981759Y-71055375D01*
X108057892Y-71388939D01*
X108096200Y-71728929D01*
X108096200Y-72071071D01*
X108057892Y-72411061D01*
X107981759Y-72744625D01*
X107868756Y-73067567D01*
X107720307Y-73375826D01*
X107538276Y-73665526D01*
X107324954Y-73933023D01*
X107083023Y-74174954D01*
X106815526Y-74388276D01*
X106525826Y-74570307D01*
X106217567Y-74718756D01*
X105894625Y-74831759D01*
X105561061Y-74907892D01*
X105221071Y-74946200D01*
X104878929Y-74946200D01*
X104538939Y-74907892D01*
X104205375Y-74831759D01*
X103882433Y-74718756D01*
X103574174Y-74570307D01*
X103284474Y-74388276D01*
X103016977Y-74174954D01*
X102775046Y-73933023D01*
X102561724Y-73665526D01*
X102379693Y-73375826D01*
X102231244Y-73067567D01*
X102118241Y-72744625D01*
X102042108Y-72411061D01*
X102003800Y-72071071D01*
X102003800Y-71728929D01*
X102042108Y-71388939D01*
X102118241Y-71055375D01*
X102231244Y-70732433D01*
X102379693Y-70424174D01*
X102561724Y-70134474D01*
X102775046Y-69866977D01*
X103016977Y-69625046D01*
X103284474Y-69411724D01*
X103574174Y-69229693D01*
X103882433Y-69081244D01*
X104205375Y-68968241D01*
X104538939Y-68892108D01*
X104878929Y-68853800D01*
X105221071Y-68853800D01*
X105561061Y-68892108D01*
G37*
G36*
X197811061Y-68892108D02*
G01*
X198144625Y-68968241D01*
X198467567Y-69081244D01*
X198775826Y-69229693D01*
X199065526Y-69411724D01*
X199333023Y-69625046D01*
X199574954Y-69866977D01*
X199788276Y-70134474D01*
X199970307Y-70424174D01*
X200118756Y-70732433D01*
X200231759Y-71055375D01*
X200307892Y-71388939D01*
X200346200Y-71728929D01*
X200346200Y-72071071D01*
X200307892Y-72411061D01*
X200231759Y-72744625D01*
X200118756Y-73067567D01*
X199970307Y-73375826D01*
X199788276Y-73665526D01*
X199574954Y-73933023D01*
X199333023Y-74174954D01*
X199065526Y-74388276D01*
X198775826Y-74570307D01*
X198467567Y-74718756D01*
X198144625Y-74831759D01*
X197811061Y-74907892D01*
X197471071Y-74946200D01*
X197128929Y-74946200D01*
X196788939Y-74907892D01*
X196455375Y-74831759D01*
X196132433Y-74718756D01*
X195824174Y-74570307D01*
X195534474Y-74388276D01*
X195266977Y-74174954D01*
X195025046Y-73933023D01*
X194811724Y-73665526D01*
X194629693Y-73375826D01*
X194481244Y-73067567D01*
X194368241Y-72744625D01*
X194292108Y-72411061D01*
X194253800Y-72071071D01*
X194253800Y-71728929D01*
X194292108Y-71388939D01*
X194368241Y-71055375D01*
X194481244Y-70732433D01*
X194629693Y-70424174D01*
X194811724Y-70134474D01*
X195025046Y-69866977D01*
X195266977Y-69625046D01*
X195534474Y-69411724D01*
X195824174Y-69229693D01*
X196132433Y-69081244D01*
X196455375Y-68968241D01*
X196788939Y-68892108D01*
X197128929Y-68853800D01*
X197471071Y-68853800D01*
X197811061Y-68892108D01*
G37*
G36*
X131468914Y-68381995D02*
G01*
X131477612Y-68385835D01*
X131485212Y-68386943D01*
X131532718Y-68410167D01*
X131570106Y-68426676D01*
X131573567Y-68430137D01*
X131574501Y-68430594D01*
X131644405Y-68500498D01*
X131644861Y-68501431D01*
X131648324Y-68504894D01*
X131664836Y-68542291D01*
X131688056Y-68589787D01*
X131689162Y-68597384D01*
X131693005Y-68606086D01*
X131701000Y-68675000D01*
X131701000Y-70125000D01*
X131693005Y-70193914D01*
X131689162Y-70202615D01*
X131688056Y-70210212D01*
X131664841Y-70257697D01*
X131648324Y-70295106D01*
X131644860Y-70298569D01*
X131644405Y-70299501D01*
X131574501Y-70369405D01*
X131573569Y-70369860D01*
X131570106Y-70373324D01*
X131532697Y-70389841D01*
X131485212Y-70413056D01*
X131477615Y-70414162D01*
X131468914Y-70418005D01*
X131400000Y-70426000D01*
X130200000Y-70426000D01*
X130131086Y-70418005D01*
X130122384Y-70414162D01*
X130114787Y-70413056D01*
X130067291Y-70389836D01*
X130029894Y-70373324D01*
X130026431Y-70369861D01*
X130025498Y-70369405D01*
X129955594Y-70299501D01*
X129955137Y-70298567D01*
X129951676Y-70295106D01*
X129935167Y-70257718D01*
X129911943Y-70210212D01*
X129910835Y-70202612D01*
X129906995Y-70193914D01*
X129899000Y-70125000D01*
X129899000Y-68675000D01*
X129906995Y-68606086D01*
X129910835Y-68597387D01*
X129911943Y-68589787D01*
X129935172Y-68542270D01*
X129951676Y-68504894D01*
X129955136Y-68501433D01*
X129955594Y-68500498D01*
X130025498Y-68430594D01*
X130026433Y-68430136D01*
X130029894Y-68426676D01*
X130067270Y-68410172D01*
X130114787Y-68386943D01*
X130122387Y-68385835D01*
X130131086Y-68381995D01*
X130200000Y-68374000D01*
X131400000Y-68374000D01*
X131468914Y-68381995D01*
G37*
G36*
X133561546Y-68412797D02*
G01*
X133724728Y-68480389D01*
X133871588Y-68578518D01*
X133996482Y-68703412D01*
X134094611Y-68850272D01*
X134162203Y-69013454D01*
X134196661Y-69186687D01*
X134201000Y-69275000D01*
X134201000Y-69525000D01*
X134196661Y-69613313D01*
X134162203Y-69786546D01*
X134094611Y-69949728D01*
X133996482Y-70096588D01*
X133871588Y-70221482D01*
X133724728Y-70319611D01*
X133561546Y-70387203D01*
X133388313Y-70421661D01*
X133211687Y-70421661D01*
X133038454Y-70387203D01*
X132875272Y-70319611D01*
X132728412Y-70221482D01*
X132603518Y-70096588D01*
X132505389Y-69949728D01*
X132437797Y-69786546D01*
X132403339Y-69613313D01*
X132399000Y-69525000D01*
X132399000Y-69275000D01*
X132403339Y-69186687D01*
X132437797Y-69013454D01*
X132505389Y-68850272D01*
X132603518Y-68703412D01*
X132728412Y-68578518D01*
X132875272Y-68480389D01*
X133038454Y-68412797D01*
X133211687Y-68378339D01*
X133388313Y-68378339D01*
X133561546Y-68412797D01*
G37*
G36*
X136061546Y-68412797D02*
G01*
X136224728Y-68480389D01*
X136371588Y-68578518D01*
X136496482Y-68703412D01*
X136594611Y-68850272D01*
X136662203Y-69013454D01*
X136696661Y-69186687D01*
X136701000Y-69275000D01*
X136701000Y-69525000D01*
X136696661Y-69613313D01*
X136662203Y-69786546D01*
X136594611Y-69949728D01*
X136496482Y-70096588D01*
X136371588Y-70221482D01*
X136224728Y-70319611D01*
X136061546Y-70387203D01*
X135888313Y-70421661D01*
X135711687Y-70421661D01*
X135538454Y-70387203D01*
X135375272Y-70319611D01*
X135228412Y-70221482D01*
X135103518Y-70096588D01*
X135005389Y-69949728D01*
X134937797Y-69786546D01*
X134903339Y-69613313D01*
X134899000Y-69525000D01*
X134899000Y-69275000D01*
X134903339Y-69186687D01*
X134937797Y-69013454D01*
X135005389Y-68850272D01*
X135103518Y-68703412D01*
X135228412Y-68578518D01*
X135375272Y-68480389D01*
X135538454Y-68412797D01*
X135711687Y-68378339D01*
X135888313Y-68378339D01*
X136061546Y-68412797D01*
G37*
G36*
X138561546Y-68412797D02*
G01*
X138724728Y-68480389D01*
X138871588Y-68578518D01*
X138996482Y-68703412D01*
X139094611Y-68850272D01*
X139162203Y-69013454D01*
X139196661Y-69186687D01*
X139201000Y-69275000D01*
X139201000Y-69525000D01*
X139196661Y-69613313D01*
X139162203Y-69786546D01*
X139094611Y-69949728D01*
X138996482Y-70096588D01*
X138871588Y-70221482D01*
X138724728Y-70319611D01*
X138561546Y-70387203D01*
X138388313Y-70421661D01*
X138211687Y-70421661D01*
X138038454Y-70387203D01*
X137875272Y-70319611D01*
X137728412Y-70221482D01*
X137603518Y-70096588D01*
X137505389Y-69949728D01*
X137437797Y-69786546D01*
X137403339Y-69613313D01*
X137399000Y-69525000D01*
X137399000Y-69275000D01*
X137403339Y-69186687D01*
X137437797Y-69013454D01*
X137505389Y-68850272D01*
X137603518Y-68703412D01*
X137728412Y-68578518D01*
X137875272Y-68480389D01*
X138038454Y-68412797D01*
X138211687Y-68378339D01*
X138388313Y-68378339D01*
X138561546Y-68412797D01*
G37*
G36*
X141061546Y-68412797D02*
G01*
X141224728Y-68480389D01*
X141371588Y-68578518D01*
X141496482Y-68703412D01*
X141594611Y-68850272D01*
X141662203Y-69013454D01*
X141696661Y-69186687D01*
X141701000Y-69275000D01*
X141701000Y-69525000D01*
X141696661Y-69613313D01*
X141662203Y-69786546D01*
X141594611Y-69949728D01*
X141496482Y-70096588D01*
X141371588Y-70221482D01*
X141224728Y-70319611D01*
X141061546Y-70387203D01*
X140888313Y-70421661D01*
X140711687Y-70421661D01*
X140538454Y-70387203D01*
X140375272Y-70319611D01*
X140228412Y-70221482D01*
X140103518Y-70096588D01*
X140005389Y-69949728D01*
X139937797Y-69786546D01*
X139903339Y-69613313D01*
X139899000Y-69525000D01*
X139899000Y-69275000D01*
X139903339Y-69186687D01*
X139937797Y-69013454D01*
X140005389Y-68850272D01*
X140103518Y-68703412D01*
X140228412Y-68578518D01*
X140375272Y-68480389D01*
X140538454Y-68412797D01*
X140711687Y-68378339D01*
X140888313Y-68378339D01*
X141061546Y-68412797D01*
G37*
G36*
X143561546Y-68412797D02*
G01*
X143724728Y-68480389D01*
X143871588Y-68578518D01*
X143996482Y-68703412D01*
X144094611Y-68850272D01*
X144162203Y-69013454D01*
X144196661Y-69186687D01*
X144201000Y-69275000D01*
X144201000Y-69525000D01*
X144196661Y-69613313D01*
X144162203Y-69786546D01*
X144094611Y-69949728D01*
X143996482Y-70096588D01*
X143871588Y-70221482D01*
X143724728Y-70319611D01*
X143561546Y-70387203D01*
X143388313Y-70421661D01*
X143211687Y-70421661D01*
X143038454Y-70387203D01*
X142875272Y-70319611D01*
X142728412Y-70221482D01*
X142603518Y-70096588D01*
X142505389Y-69949728D01*
X142437797Y-69786546D01*
X142403339Y-69613313D01*
X142399000Y-69525000D01*
X142399000Y-69275000D01*
X142403339Y-69186687D01*
X142437797Y-69013454D01*
X142505389Y-68850272D01*
X142603518Y-68703412D01*
X142728412Y-68578518D01*
X142875272Y-68480389D01*
X143038454Y-68412797D01*
X143211687Y-68378339D01*
X143388313Y-68378339D01*
X143561546Y-68412797D01*
G37*
G36*
X144994517Y-59812882D02*
G01*
X145011062Y-59823938D01*
X145022118Y-59840483D01*
X145026000Y-59860000D01*
X145026000Y-62460000D01*
X145022118Y-62479517D01*
X145011062Y-62496062D01*
X144994517Y-62507118D01*
X144975000Y-62511000D01*
X142375000Y-62511000D01*
X142355483Y-62507118D01*
X142338938Y-62496062D01*
X142327882Y-62479517D01*
X142324000Y-62460000D01*
X142324000Y-59860000D01*
X142327882Y-59840483D01*
X142338938Y-59823938D01*
X142355483Y-59812882D01*
X142375000Y-59809000D01*
X144975000Y-59809000D01*
X144994517Y-59812882D01*
G37*
G36*
X194994517Y-59812882D02*
G01*
X195011062Y-59823938D01*
X195022118Y-59840483D01*
X195026000Y-59860000D01*
X195026000Y-62460000D01*
X195022118Y-62479517D01*
X195011062Y-62496062D01*
X194994517Y-62507118D01*
X194975000Y-62511000D01*
X192375000Y-62511000D01*
X192355483Y-62507118D01*
X192338938Y-62496062D01*
X192327882Y-62479517D01*
X192324000Y-62460000D01*
X192324000Y-59860000D01*
X192327882Y-59840483D01*
X192338938Y-59823938D01*
X192355483Y-59812882D01*
X192375000Y-59809000D01*
X194975000Y-59809000D01*
X194994517Y-59812882D01*
G37*
G36*
X108990385Y-59846328D02*
G01*
X109192005Y-59911839D01*
X109380896Y-60008083D01*
X109552404Y-60132692D01*
X109702308Y-60282596D01*
X109826917Y-60454104D01*
X109923161Y-60642995D01*
X109988672Y-60844615D01*
X110021835Y-61054002D01*
X110021835Y-61265998D01*
X109988672Y-61475385D01*
X109923161Y-61677005D01*
X109826917Y-61865896D01*
X109702308Y-62037404D01*
X109552404Y-62187308D01*
X109380896Y-62311917D01*
X109192005Y-62408161D01*
X108990385Y-62473672D01*
X108780998Y-62506835D01*
X108569002Y-62506835D01*
X108359615Y-62473672D01*
X108157995Y-62408161D01*
X107969104Y-62311917D01*
X107797596Y-62187308D01*
X107647692Y-62037404D01*
X107523083Y-61865896D01*
X107426839Y-61677005D01*
X107361328Y-61475385D01*
X107328165Y-61265998D01*
X107328165Y-61054002D01*
X107361328Y-60844615D01*
X107426839Y-60642995D01*
X107523083Y-60454104D01*
X107647692Y-60282596D01*
X107797596Y-60132692D01*
X107969104Y-60008083D01*
X108157995Y-59911839D01*
X108359615Y-59846328D01*
X108569002Y-59813165D01*
X108780998Y-59813165D01*
X108990385Y-59846328D01*
G37*
G36*
X113990385Y-59846328D02*
G01*
X114192005Y-59911839D01*
X114380896Y-60008083D01*
X114552404Y-60132692D01*
X114702308Y-60282596D01*
X114826917Y-60454104D01*
X114923161Y-60642995D01*
X114988672Y-60844615D01*
X115021835Y-61054002D01*
X115021835Y-61265998D01*
X114988672Y-61475385D01*
X114923161Y-61677005D01*
X114826917Y-61865896D01*
X114702308Y-62037404D01*
X114552404Y-62187308D01*
X114380896Y-62311917D01*
X114192005Y-62408161D01*
X113990385Y-62473672D01*
X113780998Y-62506835D01*
X113569002Y-62506835D01*
X113359615Y-62473672D01*
X113157995Y-62408161D01*
X112969104Y-62311917D01*
X112797596Y-62187308D01*
X112647692Y-62037404D01*
X112523083Y-61865896D01*
X112426839Y-61677005D01*
X112361328Y-61475385D01*
X112328165Y-61265998D01*
X112328165Y-61054002D01*
X112361328Y-60844615D01*
X112426839Y-60642995D01*
X112523083Y-60454104D01*
X112647692Y-60282596D01*
X112797596Y-60132692D01*
X112969104Y-60008083D01*
X113157995Y-59911839D01*
X113359615Y-59846328D01*
X113569002Y-59813165D01*
X113780998Y-59813165D01*
X113990385Y-59846328D01*
G37*
G36*
X118990385Y-59846328D02*
G01*
X119192005Y-59911839D01*
X119380896Y-60008083D01*
X119552404Y-60132692D01*
X119702308Y-60282596D01*
X119826917Y-60454104D01*
X119923161Y-60642995D01*
X119988672Y-60844615D01*
X120021835Y-61054002D01*
X120021835Y-61265998D01*
X119988672Y-61475385D01*
X119923161Y-61677005D01*
X119826917Y-61865896D01*
X119702308Y-62037404D01*
X119552404Y-62187308D01*
X119380896Y-62311917D01*
X119192005Y-62408161D01*
X118990385Y-62473672D01*
X118780998Y-62506835D01*
X118569002Y-62506835D01*
X118359615Y-62473672D01*
X118157995Y-62408161D01*
X117969104Y-62311917D01*
X117797596Y-62187308D01*
X117647692Y-62037404D01*
X117523083Y-61865896D01*
X117426839Y-61677005D01*
X117361328Y-61475385D01*
X117328165Y-61265998D01*
X117328165Y-61054002D01*
X117361328Y-60844615D01*
X117426839Y-60642995D01*
X117523083Y-60454104D01*
X117647692Y-60282596D01*
X117797596Y-60132692D01*
X117969104Y-60008083D01*
X118157995Y-59911839D01*
X118359615Y-59846328D01*
X118569002Y-59813165D01*
X118780998Y-59813165D01*
X118990385Y-59846328D01*
G37*
G36*
X123990385Y-59846328D02*
G01*
X124192005Y-59911839D01*
X124380896Y-60008083D01*
X124552404Y-60132692D01*
X124702308Y-60282596D01*
X124826917Y-60454104D01*
X124923161Y-60642995D01*
X124988672Y-60844615D01*
X125021835Y-61054002D01*
X125021835Y-61265998D01*
X124988672Y-61475385D01*
X124923161Y-61677005D01*
X124826917Y-61865896D01*
X124702308Y-62037404D01*
X124552404Y-62187308D01*
X124380896Y-62311917D01*
X124192005Y-62408161D01*
X123990385Y-62473672D01*
X123780998Y-62506835D01*
X123569002Y-62506835D01*
X123359615Y-62473672D01*
X123157995Y-62408161D01*
X122969104Y-62311917D01*
X122797596Y-62187308D01*
X122647692Y-62037404D01*
X122523083Y-61865896D01*
X122426839Y-61677005D01*
X122361328Y-61475385D01*
X122328165Y-61265998D01*
X122328165Y-61054002D01*
X122361328Y-60844615D01*
X122426839Y-60642995D01*
X122523083Y-60454104D01*
X122647692Y-60282596D01*
X122797596Y-60132692D01*
X122969104Y-60008083D01*
X123157995Y-59911839D01*
X123359615Y-59846328D01*
X123569002Y-59813165D01*
X123780998Y-59813165D01*
X123990385Y-59846328D01*
G37*
G36*
X128990385Y-59846328D02*
G01*
X129192005Y-59911839D01*
X129380896Y-60008083D01*
X129552404Y-60132692D01*
X129702308Y-60282596D01*
X129826917Y-60454104D01*
X129923161Y-60642995D01*
X129988672Y-60844615D01*
X130021835Y-61054002D01*
X130021835Y-61265998D01*
X129988672Y-61475385D01*
X129923161Y-61677005D01*
X129826917Y-61865896D01*
X129702308Y-62037404D01*
X129552404Y-62187308D01*
X129380896Y-62311917D01*
X129192005Y-62408161D01*
X128990385Y-62473672D01*
X128780998Y-62506835D01*
X128569002Y-62506835D01*
X128359615Y-62473672D01*
X128157995Y-62408161D01*
X127969104Y-62311917D01*
X127797596Y-62187308D01*
X127647692Y-62037404D01*
X127523083Y-61865896D01*
X127426839Y-61677005D01*
X127361328Y-61475385D01*
X127328165Y-61265998D01*
X127328165Y-61054002D01*
X127361328Y-60844615D01*
X127426839Y-60642995D01*
X127523083Y-60454104D01*
X127647692Y-60282596D01*
X127797596Y-60132692D01*
X127969104Y-60008083D01*
X128157995Y-59911839D01*
X128359615Y-59846328D01*
X128569002Y-59813165D01*
X128780998Y-59813165D01*
X128990385Y-59846328D01*
G37*
G36*
X133990385Y-59846328D02*
G01*
X134192005Y-59911839D01*
X134380896Y-60008083D01*
X134552404Y-60132692D01*
X134702308Y-60282596D01*
X134826917Y-60454104D01*
X134923161Y-60642995D01*
X134988672Y-60844615D01*
X135021835Y-61054002D01*
X135021835Y-61265998D01*
X134988672Y-61475385D01*
X134923161Y-61677005D01*
X134826917Y-61865896D01*
X134702308Y-62037404D01*
X134552404Y-62187308D01*
X134380896Y-62311917D01*
X134192005Y-62408161D01*
X133990385Y-62473672D01*
X133780998Y-62506835D01*
X133569002Y-62506835D01*
X133359615Y-62473672D01*
X133157995Y-62408161D01*
X132969104Y-62311917D01*
X132797596Y-62187308D01*
X132647692Y-62037404D01*
X132523083Y-61865896D01*
X132426839Y-61677005D01*
X132361328Y-61475385D01*
X132328165Y-61265998D01*
X132328165Y-61054002D01*
X132361328Y-60844615D01*
X132426839Y-60642995D01*
X132523083Y-60454104D01*
X132647692Y-60282596D01*
X132797596Y-60132692D01*
X132969104Y-60008083D01*
X133157995Y-59911839D01*
X133359615Y-59846328D01*
X133569002Y-59813165D01*
X133780998Y-59813165D01*
X133990385Y-59846328D01*
G37*
G36*
X138990385Y-59846328D02*
G01*
X139192005Y-59911839D01*
X139380896Y-60008083D01*
X139552404Y-60132692D01*
X139702308Y-60282596D01*
X139826917Y-60454104D01*
X139923161Y-60642995D01*
X139988672Y-60844615D01*
X140021835Y-61054002D01*
X140021835Y-61265998D01*
X139988672Y-61475385D01*
X139923161Y-61677005D01*
X139826917Y-61865896D01*
X139702308Y-62037404D01*
X139552404Y-62187308D01*
X139380896Y-62311917D01*
X139192005Y-62408161D01*
X138990385Y-62473672D01*
X138780998Y-62506835D01*
X138569002Y-62506835D01*
X138359615Y-62473672D01*
X138157995Y-62408161D01*
X137969104Y-62311917D01*
X137797596Y-62187308D01*
X137647692Y-62037404D01*
X137523083Y-61865896D01*
X137426839Y-61677005D01*
X137361328Y-61475385D01*
X137328165Y-61265998D01*
X137328165Y-61054002D01*
X137361328Y-60844615D01*
X137426839Y-60642995D01*
X137523083Y-60454104D01*
X137647692Y-60282596D01*
X137797596Y-60132692D01*
X137969104Y-60008083D01*
X138157995Y-59911839D01*
X138359615Y-59846328D01*
X138569002Y-59813165D01*
X138780998Y-59813165D01*
X138990385Y-59846328D01*
G37*
G36*
X158990385Y-59846328D02*
G01*
X159192005Y-59911839D01*
X159380896Y-60008083D01*
X159552404Y-60132692D01*
X159702308Y-60282596D01*
X159826917Y-60454104D01*
X159923161Y-60642995D01*
X159988672Y-60844615D01*
X160021835Y-61054002D01*
X160021835Y-61265998D01*
X159988672Y-61475385D01*
X159923161Y-61677005D01*
X159826917Y-61865896D01*
X159702308Y-62037404D01*
X159552404Y-62187308D01*
X159380896Y-62311917D01*
X159192005Y-62408161D01*
X158990385Y-62473672D01*
X158780998Y-62506835D01*
X158569002Y-62506835D01*
X158359615Y-62473672D01*
X158157995Y-62408161D01*
X157969104Y-62311917D01*
X157797596Y-62187308D01*
X157647692Y-62037404D01*
X157523083Y-61865896D01*
X157426839Y-61677005D01*
X157361328Y-61475385D01*
X157328165Y-61265998D01*
X157328165Y-61054002D01*
X157361328Y-60844615D01*
X157426839Y-60642995D01*
X157523083Y-60454104D01*
X157647692Y-60282596D01*
X157797596Y-60132692D01*
X157969104Y-60008083D01*
X158157995Y-59911839D01*
X158359615Y-59846328D01*
X158569002Y-59813165D01*
X158780998Y-59813165D01*
X158990385Y-59846328D01*
G37*
G36*
X163990385Y-59846328D02*
G01*
X164192005Y-59911839D01*
X164380896Y-60008083D01*
X164552404Y-60132692D01*
X164702308Y-60282596D01*
X164826917Y-60454104D01*
X164923161Y-60642995D01*
X164988672Y-60844615D01*
X165021835Y-61054002D01*
X165021835Y-61265998D01*
X164988672Y-61475385D01*
X164923161Y-61677005D01*
X164826917Y-61865896D01*
X164702308Y-62037404D01*
X164552404Y-62187308D01*
X164380896Y-62311917D01*
X164192005Y-62408161D01*
X163990385Y-62473672D01*
X163780998Y-62506835D01*
X163569002Y-62506835D01*
X163359615Y-62473672D01*
X163157995Y-62408161D01*
X162969104Y-62311917D01*
X162797596Y-62187308D01*
X162647692Y-62037404D01*
X162523083Y-61865896D01*
X162426839Y-61677005D01*
X162361328Y-61475385D01*
X162328165Y-61265998D01*
X162328165Y-61054002D01*
X162361328Y-60844615D01*
X162426839Y-60642995D01*
X162523083Y-60454104D01*
X162647692Y-60282596D01*
X162797596Y-60132692D01*
X162969104Y-60008083D01*
X163157995Y-59911839D01*
X163359615Y-59846328D01*
X163569002Y-59813165D01*
X163780998Y-59813165D01*
X163990385Y-59846328D01*
G37*
G36*
X168990385Y-59846328D02*
G01*
X169192005Y-59911839D01*
X169380896Y-60008083D01*
X169552404Y-60132692D01*
X169702308Y-60282596D01*
X169826917Y-60454104D01*
X169923161Y-60642995D01*
X169988672Y-60844615D01*
X170021835Y-61054002D01*
X170021835Y-61265998D01*
X169988672Y-61475385D01*
X169923161Y-61677005D01*
X169826917Y-61865896D01*
X169702308Y-62037404D01*
X169552404Y-62187308D01*
X169380896Y-62311917D01*
X169192005Y-62408161D01*
X168990385Y-62473672D01*
X168780998Y-62506835D01*
X168569002Y-62506835D01*
X168359615Y-62473672D01*
X168157995Y-62408161D01*
X167969104Y-62311917D01*
X167797596Y-62187308D01*
X167647692Y-62037404D01*
X167523083Y-61865896D01*
X167426839Y-61677005D01*
X167361328Y-61475385D01*
X167328165Y-61265998D01*
X167328165Y-61054002D01*
X167361328Y-60844615D01*
X167426839Y-60642995D01*
X167523083Y-60454104D01*
X167647692Y-60282596D01*
X167797596Y-60132692D01*
X167969104Y-60008083D01*
X168157995Y-59911839D01*
X168359615Y-59846328D01*
X168569002Y-59813165D01*
X168780998Y-59813165D01*
X168990385Y-59846328D01*
G37*
G36*
X173990385Y-59846328D02*
G01*
X174192005Y-59911839D01*
X174380896Y-60008083D01*
X174552404Y-60132692D01*
X174702308Y-60282596D01*
X174826917Y-60454104D01*
X174923161Y-60642995D01*
X174988672Y-60844615D01*
X175021835Y-61054002D01*
X175021835Y-61265998D01*
X174988672Y-61475385D01*
X174923161Y-61677005D01*
X174826917Y-61865896D01*
X174702308Y-62037404D01*
X174552404Y-62187308D01*
X174380896Y-62311917D01*
X174192005Y-62408161D01*
X173990385Y-62473672D01*
X173780998Y-62506835D01*
X173569002Y-62506835D01*
X173359615Y-62473672D01*
X173157995Y-62408161D01*
X172969104Y-62311917D01*
X172797596Y-62187308D01*
X172647692Y-62037404D01*
X172523083Y-61865896D01*
X172426839Y-61677005D01*
X172361328Y-61475385D01*
X172328165Y-61265998D01*
X172328165Y-61054002D01*
X172361328Y-60844615D01*
X172426839Y-60642995D01*
X172523083Y-60454104D01*
X172647692Y-60282596D01*
X172797596Y-60132692D01*
X172969104Y-60008083D01*
X173157995Y-59911839D01*
X173359615Y-59846328D01*
X173569002Y-59813165D01*
X173780998Y-59813165D01*
X173990385Y-59846328D01*
G37*
G36*
X178990385Y-59846328D02*
G01*
X179192005Y-59911839D01*
X179380896Y-60008083D01*
X179552404Y-60132692D01*
X179702308Y-60282596D01*
X179826917Y-60454104D01*
X179923161Y-60642995D01*
X179988672Y-60844615D01*
X180021835Y-61054002D01*
X180021835Y-61265998D01*
X179988672Y-61475385D01*
X179923161Y-61677005D01*
X179826917Y-61865896D01*
X179702308Y-62037404D01*
X179552404Y-62187308D01*
X179380896Y-62311917D01*
X179192005Y-62408161D01*
X178990385Y-62473672D01*
X178780998Y-62506835D01*
X178569002Y-62506835D01*
X178359615Y-62473672D01*
X178157995Y-62408161D01*
X177969104Y-62311917D01*
X177797596Y-62187308D01*
X177647692Y-62037404D01*
X177523083Y-61865896D01*
X177426839Y-61677005D01*
X177361328Y-61475385D01*
X177328165Y-61265998D01*
X177328165Y-61054002D01*
X177361328Y-60844615D01*
X177426839Y-60642995D01*
X177523083Y-60454104D01*
X177647692Y-60282596D01*
X177797596Y-60132692D01*
X177969104Y-60008083D01*
X178157995Y-59911839D01*
X178359615Y-59846328D01*
X178569002Y-59813165D01*
X178780998Y-59813165D01*
X178990385Y-59846328D01*
G37*
G36*
X183990385Y-59846328D02*
G01*
X184192005Y-59911839D01*
X184380896Y-60008083D01*
X184552404Y-60132692D01*
X184702308Y-60282596D01*
X184826917Y-60454104D01*
X184923161Y-60642995D01*
X184988672Y-60844615D01*
X185021835Y-61054002D01*
X185021835Y-61265998D01*
X184988672Y-61475385D01*
X184923161Y-61677005D01*
X184826917Y-61865896D01*
X184702308Y-62037404D01*
X184552404Y-62187308D01*
X184380896Y-62311917D01*
X184192005Y-62408161D01*
X183990385Y-62473672D01*
X183780998Y-62506835D01*
X183569002Y-62506835D01*
X183359615Y-62473672D01*
X183157995Y-62408161D01*
X182969104Y-62311917D01*
X182797596Y-62187308D01*
X182647692Y-62037404D01*
X182523083Y-61865896D01*
X182426839Y-61677005D01*
X182361328Y-61475385D01*
X182328165Y-61265998D01*
X182328165Y-61054002D01*
X182361328Y-60844615D01*
X182426839Y-60642995D01*
X182523083Y-60454104D01*
X182647692Y-60282596D01*
X182797596Y-60132692D01*
X182969104Y-60008083D01*
X183157995Y-59911839D01*
X183359615Y-59846328D01*
X183569002Y-59813165D01*
X183780998Y-59813165D01*
X183990385Y-59846328D01*
G37*
G36*
X188990385Y-59846328D02*
G01*
X189192005Y-59911839D01*
X189380896Y-60008083D01*
X189552404Y-60132692D01*
X189702308Y-60282596D01*
X189826917Y-60454104D01*
X189923161Y-60642995D01*
X189988672Y-60844615D01*
X190021835Y-61054002D01*
X190021835Y-61265998D01*
X189988672Y-61475385D01*
X189923161Y-61677005D01*
X189826917Y-61865896D01*
X189702308Y-62037404D01*
X189552404Y-62187308D01*
X189380896Y-62311917D01*
X189192005Y-62408161D01*
X188990385Y-62473672D01*
X188780998Y-62506835D01*
X188569002Y-62506835D01*
X188359615Y-62473672D01*
X188157995Y-62408161D01*
X187969104Y-62311917D01*
X187797596Y-62187308D01*
X187647692Y-62037404D01*
X187523083Y-61865896D01*
X187426839Y-61677005D01*
X187361328Y-61475385D01*
X187328165Y-61265998D01*
X187328165Y-61054002D01*
X187361328Y-60844615D01*
X187426839Y-60642995D01*
X187523083Y-60454104D01*
X187647692Y-60282596D01*
X187797596Y-60132692D01*
X187969104Y-60008083D01*
X188157995Y-59911839D01*
X188359615Y-59846328D01*
X188569002Y-59813165D01*
X188780998Y-59813165D01*
X188990385Y-59846328D01*
G37*
M02*
