M48
; DRILL file {KiCad 9.0.3} date 2025-10-14T20:30:44+0200
; FORMAT={-:-/ absolute / inch / decimal}
; #@! TF.CreationDate,2025-10-14T20:30:44+02:00
; #@! TF.GenerationSoftware,Kicad,Pcbnew,9.0.3
; #@! TF.FileFunction,Plated,1,2,PTH
FMAT,2
INCH
; #@! TA.AperFunction,Plated,PTH,ViaDrill
T1C0.0118
; #@! TA.AperFunction,Plated,PTH,ComponentDrill
T2C0.0394
; #@! TA.AperFunction,Plated,PTH,ComponentDrill
T3C0.0512
; #@! TA.AperFunction,Plated,PTH,ComponentDrill
T4C0.0984
%
G90
G05
T1
X4.0157Y-3.8583
X4.0315Y-2.2382
X4.3327Y-3.2776
X4.4508Y-2.7343
X4.6161Y-3.4094
X4.6673Y-3.7185
X4.7185Y-3.7185
X4.7677Y-3.7205
X4.8169Y-3.7185
X5.0276Y-2.8012
X5.0394Y-3.8583
X5.1496Y-3.3012
X5.5138Y-3.6161
X5.5157Y-3.2579
X5.6122Y-3.2441
X5.6181Y-3.0118
X5.6319Y-2.7815
X5.6654Y-3.2539
X5.6752Y-2.874
X5.7106Y-3.4429
X5.7146Y-3.6142
X5.7244Y-2.998
X5.7618Y-3.4114
X5.7638Y-3.6142
X5.813Y-3.2461
X5.813Y-3.3858
X5.815Y-3.6161
X5.8268Y-2.9232
X5.9587Y-3.2539
X5.9665Y-2.874
X5.9843Y-3.3031
X6.0059Y-3.0059
X6.0197Y-2.7815
X6.0551Y-3.6949
X6.3701Y-3.3031
X6.6142Y-3.3031
X6.8484Y-3.3012
X6.9587Y-3.3504
X6.9606Y-2.6516
X7.0571Y-3.7343
X7.0579Y-3.4705
X7.1437Y-2.6516
X7.1713Y-3.3484
X7.2736Y-3.4941
X7.2736Y-3.7343
X7.3465Y-2.6476
X7.4134Y-3.3406
X7.5079Y-2.6457
X7.5098Y-3.7343
X7.5116Y-3.5177
X7.6358Y-3.3406
X7.685Y-4.0157
X7.738Y-3.5453
X7.7382Y-3.7343
X7.874Y-3.8583
X7.878Y-2.2402
T2
X4.634Y-2.9373
X4.734Y-2.9373
X4.834Y-2.9373
X5.1545Y-2.7329
X5.2545Y-2.7329
X5.3545Y-2.7329
X5.4545Y-2.7329
X5.5545Y-2.7329
T3
X4.2785Y-2.4079
X4.2785Y-5.2591
X4.4252Y-4.3158
X4.4252Y-4.7962
X4.4754Y-2.4079
X4.4754Y-5.2591
X4.6614Y-4.2371
X4.6722Y-2.4079
X4.6722Y-5.2591
X4.8691Y-2.4079
X4.8691Y-5.2591
X4.8976Y-4.3158
X4.8976Y-4.7962
X5.0659Y-2.4079
X5.0659Y-5.2591
X5.1693Y-4.3158
X5.1693Y-4.7962
X5.2628Y-2.4079
X5.2628Y-5.2591
X5.4055Y-4.2371
X5.4596Y-2.4079
X5.4596Y-5.2591
X5.6417Y-4.3158
X5.6417Y-4.7962
X5.6565Y-2.4079
X5.6565Y-5.2591
X6.247Y-2.4079
X6.247Y-5.2591
X6.252Y-4.3158
X6.252Y-4.7962
X6.4439Y-2.4079
X6.4439Y-5.2591
X6.4882Y-4.2371
X6.6407Y-2.4079
X6.6407Y-5.2591
X6.7244Y-4.3158
X6.7244Y-4.7962
X6.8376Y-2.4079
X6.8376Y-5.2591
X7.002Y-4.3158
X7.002Y-4.7962
X7.0344Y-2.4079
X7.0344Y-5.2591
X7.2313Y-2.4079
X7.2313Y-5.2591
X7.2382Y-4.2371
X7.4281Y-2.4079
X7.4281Y-5.2591
X7.4744Y-4.3158
X7.4744Y-4.7962
X7.625Y-2.4079
X7.625Y-5.2591
T4
X4.1358Y-2.8307
X4.1358Y-4.8346
X7.7677Y-2.8307
X7.7677Y-4.8346
M30
