%TF.GenerationSoftware,KiCad,Pcbnew,9.0.3*%
%TF.CreationDate,2025-10-06T20:13:02+02:00*%
%TF.ProjectId,esp32_blinds_controller,65737033-325f-4626-9c69-6e64735f636f,V0.3*%
%TF.SameCoordinates,Original*%
%TF.FileFunction,Legend,Bot*%
%TF.FilePolarity,Positive*%
%FSLAX46Y46*%
G04 Gerber Fmt 4.6, Leading zero omitted, Abs format (unit mm)*
G04 Created by KiCad (PCBNEW 9.0.3) date 2025-10-06 20:13:02*
%MOMM*%
%LPD*%
G01*
G04 APERTURE LIST*
%ADD10C,0.150000*%
%ADD11C,0.120000*%
%TA.AperFunction,Profile*%
%ADD12C,0.050000*%
%TD*%
%TA.AperFunction,Profile*%
%ADD13C,0.120000*%
%TD*%
G04 APERTURE END LIST*
D10*
X165564285Y-85819104D02*
X165088095Y-85819104D01*
X165659523Y-86104819D02*
X165326190Y-85104819D01*
X165326190Y-85104819D02*
X164992857Y-86104819D01*
X164135714Y-86104819D02*
X164707142Y-86104819D01*
X164421428Y-86104819D02*
X164421428Y-85104819D01*
X164421428Y-85104819D02*
X164516666Y-85247676D01*
X164516666Y-85247676D02*
X164611904Y-85342914D01*
X164611904Y-85342914D02*
X164707142Y-85390533D01*
X161964285Y-84304819D02*
X162535713Y-84304819D01*
X162249999Y-84304819D02*
X162249999Y-83304819D01*
X162249999Y-83304819D02*
X162345237Y-83447676D01*
X162345237Y-83447676D02*
X162440475Y-83542914D01*
X162440475Y-83542914D02*
X162535713Y-83590533D01*
X167783332Y-83304819D02*
X167164285Y-83304819D01*
X167164285Y-83304819D02*
X167497618Y-83685771D01*
X167497618Y-83685771D02*
X167354761Y-83685771D01*
X167354761Y-83685771D02*
X167259523Y-83733390D01*
X167259523Y-83733390D02*
X167211904Y-83781009D01*
X167211904Y-83781009D02*
X167164285Y-83876247D01*
X167164285Y-83876247D02*
X167164285Y-84114342D01*
X167164285Y-84114342D02*
X167211904Y-84209580D01*
X167211904Y-84209580D02*
X167259523Y-84257200D01*
X167259523Y-84257200D02*
X167354761Y-84304819D01*
X167354761Y-84304819D02*
X167640475Y-84304819D01*
X167640475Y-84304819D02*
X167735713Y-84257200D01*
X167735713Y-84257200D02*
X167783332Y-84209580D01*
X128038094Y-102854819D02*
X128038094Y-101854819D01*
X128038094Y-101854819D02*
X127799999Y-101854819D01*
X127799999Y-101854819D02*
X127657142Y-101902438D01*
X127657142Y-101902438D02*
X127561904Y-101997676D01*
X127561904Y-101997676D02*
X127514285Y-102092914D01*
X127514285Y-102092914D02*
X127466666Y-102283390D01*
X127466666Y-102283390D02*
X127466666Y-102426247D01*
X127466666Y-102426247D02*
X127514285Y-102616723D01*
X127514285Y-102616723D02*
X127561904Y-102711961D01*
X127561904Y-102711961D02*
X127657142Y-102807200D01*
X127657142Y-102807200D02*
X127799999Y-102854819D01*
X127799999Y-102854819D02*
X128038094Y-102854819D01*
X126514285Y-102854819D02*
X127085713Y-102854819D01*
X126799999Y-102854819D02*
X126799999Y-101854819D01*
X126799999Y-101854819D02*
X126895237Y-101997676D01*
X126895237Y-101997676D02*
X126990475Y-102092914D01*
X126990475Y-102092914D02*
X127085713Y-102140533D01*
X193588094Y-102304819D02*
X193588094Y-101304819D01*
X193588094Y-101304819D02*
X193349999Y-101304819D01*
X193349999Y-101304819D02*
X193207142Y-101352438D01*
X193207142Y-101352438D02*
X193111904Y-101447676D01*
X193111904Y-101447676D02*
X193064285Y-101542914D01*
X193064285Y-101542914D02*
X193016666Y-101733390D01*
X193016666Y-101733390D02*
X193016666Y-101876247D01*
X193016666Y-101876247D02*
X193064285Y-102066723D01*
X193064285Y-102066723D02*
X193111904Y-102161961D01*
X193111904Y-102161961D02*
X193207142Y-102257200D01*
X193207142Y-102257200D02*
X193349999Y-102304819D01*
X193349999Y-102304819D02*
X193588094Y-102304819D01*
X192683332Y-101304819D02*
X192064285Y-101304819D01*
X192064285Y-101304819D02*
X192397618Y-101685771D01*
X192397618Y-101685771D02*
X192254761Y-101685771D01*
X192254761Y-101685771D02*
X192159523Y-101733390D01*
X192159523Y-101733390D02*
X192111904Y-101781009D01*
X192111904Y-101781009D02*
X192064285Y-101876247D01*
X192064285Y-101876247D02*
X192064285Y-102114342D01*
X192064285Y-102114342D02*
X192111904Y-102209580D01*
X192111904Y-102209580D02*
X192159523Y-102257200D01*
X192159523Y-102257200D02*
X192254761Y-102304819D01*
X192254761Y-102304819D02*
X192540475Y-102304819D01*
X192540475Y-102304819D02*
X192635713Y-102257200D01*
X192635713Y-102257200D02*
X192683332Y-102209580D01*
X149738094Y-102954819D02*
X149738094Y-101954819D01*
X149738094Y-101954819D02*
X149499999Y-101954819D01*
X149499999Y-101954819D02*
X149357142Y-102002438D01*
X149357142Y-102002438D02*
X149261904Y-102097676D01*
X149261904Y-102097676D02*
X149214285Y-102192914D01*
X149214285Y-102192914D02*
X149166666Y-102383390D01*
X149166666Y-102383390D02*
X149166666Y-102526247D01*
X149166666Y-102526247D02*
X149214285Y-102716723D01*
X149214285Y-102716723D02*
X149261904Y-102811961D01*
X149261904Y-102811961D02*
X149357142Y-102907200D01*
X149357142Y-102907200D02*
X149499999Y-102954819D01*
X149499999Y-102954819D02*
X149738094Y-102954819D01*
X148309523Y-102288152D02*
X148309523Y-102954819D01*
X148547618Y-101907200D02*
X148785713Y-102621485D01*
X148785713Y-102621485D02*
X148166666Y-102621485D01*
X171814285Y-85819104D02*
X171338095Y-85819104D01*
X171909523Y-86104819D02*
X171576190Y-85104819D01*
X171576190Y-85104819D02*
X171242857Y-86104819D01*
X170719047Y-85104819D02*
X170623809Y-85104819D01*
X170623809Y-85104819D02*
X170528571Y-85152438D01*
X170528571Y-85152438D02*
X170480952Y-85200057D01*
X170480952Y-85200057D02*
X170433333Y-85295295D01*
X170433333Y-85295295D02*
X170385714Y-85485771D01*
X170385714Y-85485771D02*
X170385714Y-85723866D01*
X170385714Y-85723866D02*
X170433333Y-85914342D01*
X170433333Y-85914342D02*
X170480952Y-86009580D01*
X170480952Y-86009580D02*
X170528571Y-86057200D01*
X170528571Y-86057200D02*
X170623809Y-86104819D01*
X170623809Y-86104819D02*
X170719047Y-86104819D01*
X170719047Y-86104819D02*
X170814285Y-86057200D01*
X170814285Y-86057200D02*
X170861904Y-86009580D01*
X170861904Y-86009580D02*
X170909523Y-85914342D01*
X170909523Y-85914342D02*
X170957142Y-85723866D01*
X170957142Y-85723866D02*
X170957142Y-85485771D01*
X170957142Y-85485771D02*
X170909523Y-85295295D01*
X170909523Y-85295295D02*
X170861904Y-85200057D01*
X170861904Y-85200057D02*
X170814285Y-85152438D01*
X170814285Y-85152438D02*
X170719047Y-85104819D01*
X174033332Y-83304819D02*
X173414285Y-83304819D01*
X173414285Y-83304819D02*
X173747618Y-83685771D01*
X173747618Y-83685771D02*
X173604761Y-83685771D01*
X173604761Y-83685771D02*
X173509523Y-83733390D01*
X173509523Y-83733390D02*
X173461904Y-83781009D01*
X173461904Y-83781009D02*
X173414285Y-83876247D01*
X173414285Y-83876247D02*
X173414285Y-84114342D01*
X173414285Y-84114342D02*
X173461904Y-84209580D01*
X173461904Y-84209580D02*
X173509523Y-84257200D01*
X173509523Y-84257200D02*
X173604761Y-84304819D01*
X173604761Y-84304819D02*
X173890475Y-84304819D01*
X173890475Y-84304819D02*
X173985713Y-84257200D01*
X173985713Y-84257200D02*
X174033332Y-84209580D01*
X168214285Y-84304819D02*
X168785713Y-84304819D01*
X168499999Y-84304819D02*
X168499999Y-83304819D01*
X168499999Y-83304819D02*
X168595237Y-83447676D01*
X168595237Y-83447676D02*
X168690475Y-83542914D01*
X168690475Y-83542914D02*
X168785713Y-83590533D01*
X174588094Y-102454819D02*
X174588094Y-101454819D01*
X174588094Y-101454819D02*
X174349999Y-101454819D01*
X174349999Y-101454819D02*
X174207142Y-101502438D01*
X174207142Y-101502438D02*
X174111904Y-101597676D01*
X174111904Y-101597676D02*
X174064285Y-101692914D01*
X174064285Y-101692914D02*
X174016666Y-101883390D01*
X174016666Y-101883390D02*
X174016666Y-102026247D01*
X174016666Y-102026247D02*
X174064285Y-102216723D01*
X174064285Y-102216723D02*
X174111904Y-102311961D01*
X174111904Y-102311961D02*
X174207142Y-102407200D01*
X174207142Y-102407200D02*
X174349999Y-102454819D01*
X174349999Y-102454819D02*
X174588094Y-102454819D01*
X173635713Y-101550057D02*
X173588094Y-101502438D01*
X173588094Y-101502438D02*
X173492856Y-101454819D01*
X173492856Y-101454819D02*
X173254761Y-101454819D01*
X173254761Y-101454819D02*
X173159523Y-101502438D01*
X173159523Y-101502438D02*
X173111904Y-101550057D01*
X173111904Y-101550057D02*
X173064285Y-101645295D01*
X173064285Y-101645295D02*
X173064285Y-101740533D01*
X173064285Y-101740533D02*
X173111904Y-101883390D01*
X173111904Y-101883390D02*
X173683332Y-102454819D01*
X173683332Y-102454819D02*
X173064285Y-102454819D01*
X159314285Y-85819104D02*
X158838095Y-85819104D01*
X159409523Y-86104819D02*
X159076190Y-85104819D01*
X159076190Y-85104819D02*
X158742857Y-86104819D01*
X158457142Y-85200057D02*
X158409523Y-85152438D01*
X158409523Y-85152438D02*
X158314285Y-85104819D01*
X158314285Y-85104819D02*
X158076190Y-85104819D01*
X158076190Y-85104819D02*
X157980952Y-85152438D01*
X157980952Y-85152438D02*
X157933333Y-85200057D01*
X157933333Y-85200057D02*
X157885714Y-85295295D01*
X157885714Y-85295295D02*
X157885714Y-85390533D01*
X157885714Y-85390533D02*
X157933333Y-85533390D01*
X157933333Y-85533390D02*
X158504761Y-86104819D01*
X158504761Y-86104819D02*
X157885714Y-86104819D01*
X155714285Y-84304819D02*
X156285713Y-84304819D01*
X155999999Y-84304819D02*
X155999999Y-83304819D01*
X155999999Y-83304819D02*
X156095237Y-83447676D01*
X156095237Y-83447676D02*
X156190475Y-83542914D01*
X156190475Y-83542914D02*
X156285713Y-83590533D01*
X161533332Y-83304819D02*
X160914285Y-83304819D01*
X160914285Y-83304819D02*
X161247618Y-83685771D01*
X161247618Y-83685771D02*
X161104761Y-83685771D01*
X161104761Y-83685771D02*
X161009523Y-83733390D01*
X161009523Y-83733390D02*
X160961904Y-83781009D01*
X160961904Y-83781009D02*
X160914285Y-83876247D01*
X160914285Y-83876247D02*
X160914285Y-84114342D01*
X160914285Y-84114342D02*
X160961904Y-84209580D01*
X160961904Y-84209580D02*
X161009523Y-84257200D01*
X161009523Y-84257200D02*
X161104761Y-84304819D01*
X161104761Y-84304819D02*
X161390475Y-84304819D01*
X161390475Y-84304819D02*
X161485713Y-84257200D01*
X161485713Y-84257200D02*
X161533332Y-84209580D01*
D11*
%TO.C,A1*%
X162800000Y-84150000D02*
X162800000Y-83550000D01*
X163450000Y-82850000D02*
X166250000Y-82850000D01*
X166250000Y-84850000D02*
X163450000Y-84850000D01*
X166900000Y-83550000D02*
X166900000Y-84150000D01*
X162800000Y-83550000D02*
G75*
G02*
X163500000Y-82850000I699999J1D01*
G01*
X163500000Y-84850000D02*
G75*
G02*
X162800000Y-84150000I-1J699999D01*
G01*
X166200000Y-82850000D02*
G75*
G02*
X166900000Y-83550000I0J-700000D01*
G01*
X166900000Y-84150000D02*
G75*
G02*
X166200000Y-84850000I-700000J0D01*
G01*
%TO.C,D1*%
X124900000Y-106510000D02*
X130710000Y-106510000D01*
X130710000Y-103290000D02*
X124900000Y-103290000D01*
X130710000Y-106510000D02*
X130710000Y-103290000D01*
%TO.C,D3*%
X190450000Y-105960000D02*
X196260000Y-105960000D01*
X196260000Y-102740000D02*
X190450000Y-102740000D01*
X196260000Y-105960000D02*
X196260000Y-102740000D01*
%TO.C,D4*%
X146600000Y-106610000D02*
X152410000Y-106610000D01*
X152410000Y-103390000D02*
X146600000Y-103390000D01*
X152410000Y-106610000D02*
X152410000Y-103390000D01*
%TO.C,A0*%
X169050000Y-84150000D02*
X169050000Y-83550000D01*
X169700000Y-82850000D02*
X172500000Y-82850000D01*
X172500000Y-84850000D02*
X169700000Y-84850000D01*
X173150000Y-83550000D02*
X173150000Y-84150000D01*
X169050000Y-83550000D02*
G75*
G02*
X169750000Y-82850000I699999J1D01*
G01*
X169750000Y-84850000D02*
G75*
G02*
X169050000Y-84150000I-1J699999D01*
G01*
X172450000Y-82850000D02*
G75*
G02*
X173150000Y-83550000I0J-700000D01*
G01*
X173150000Y-84150000D02*
G75*
G02*
X172450000Y-84850000I-700000J0D01*
G01*
%TO.C,D2*%
X171450000Y-106110000D02*
X177260000Y-106110000D01*
X177260000Y-102890000D02*
X171450000Y-102890000D01*
X177260000Y-106110000D02*
X177260000Y-102890000D01*
%TO.C,A2*%
X156550000Y-84150000D02*
X156550000Y-83550000D01*
X157200000Y-82850000D02*
X160000000Y-82850000D01*
X160000000Y-84850000D02*
X157200000Y-84850000D01*
X160650000Y-83550000D02*
X160650000Y-84150000D01*
X156550000Y-83550000D02*
G75*
G02*
X157250000Y-82850000I699999J1D01*
G01*
X157250000Y-84850000D02*
G75*
G02*
X156550000Y-84150000I-1J699999D01*
G01*
X159950000Y-82850000D02*
G75*
G02*
X160650000Y-83550000I0J-700000D01*
G01*
X160650000Y-84150000D02*
G75*
G02*
X159950000Y-84850000I-700000J0D01*
G01*
%TD*%
D12*
X139900000Y-103600000D02*
G75*
G02*
X141100000Y-104800000I0J-1200000D01*
G01*
X167400000Y-103700000D02*
G75*
G02*
X168600000Y-104900000I0J-1200000D01*
G01*
X168600000Y-110400000D02*
G75*
G02*
X167600000Y-110400000I-500000J0D01*
G01*
X187700000Y-110300000D02*
X187700000Y-104800000D01*
X161100000Y-110400000D02*
X161100000Y-104900000D01*
X134600000Y-110300000D02*
X134600000Y-104800000D01*
X122200000Y-110350000D02*
G75*
G02*
X121200000Y-110350000I-500000J0D01*
G01*
X122200000Y-110350000D02*
X122200000Y-104850000D01*
X134800000Y-103600000D02*
X139900000Y-103600000D01*
X162300000Y-104700000D02*
X167400000Y-104700000D01*
X141100000Y-110300000D02*
X141100000Y-104800000D01*
X181200000Y-110300000D02*
G75*
G02*
X180200000Y-110300000I-500000J0D01*
G01*
X121000000Y-103650000D02*
G75*
G02*
X122200000Y-104850000I0J-1200000D01*
G01*
X181400000Y-104600000D02*
X186500000Y-104600000D01*
X162100000Y-104900000D02*
G75*
G02*
X162300000Y-104700000I200000J0D01*
G01*
X133600000Y-104800000D02*
G75*
G02*
X134800000Y-103600000I1200000J0D01*
G01*
X121200000Y-110350000D02*
X121200000Y-104850000D01*
X187700000Y-110300000D02*
G75*
G02*
X186700000Y-110300000I-500000J0D01*
G01*
X115900000Y-104650000D02*
X121000000Y-104650000D01*
X115700000Y-110350000D02*
X115700000Y-104850000D01*
X167400000Y-104700000D02*
G75*
G02*
X167600000Y-104900000I0J-200000D01*
G01*
X141100000Y-110300000D02*
G75*
G02*
X140100000Y-110300000I-500000J0D01*
G01*
X186700000Y-110300000D02*
X186700000Y-104800000D01*
X180200000Y-104800000D02*
G75*
G02*
X181400000Y-103600000I1200000J0D01*
G01*
X134800000Y-104600000D02*
X139900000Y-104600000D01*
X181200000Y-104800000D02*
G75*
G02*
X181400000Y-104600000I200000J0D01*
G01*
X186500000Y-104600000D02*
G75*
G02*
X186700000Y-104800000I0J-200000D01*
G01*
X162100000Y-110400000D02*
G75*
G02*
X161100000Y-110400000I-500000J0D01*
G01*
X139900000Y-104600000D02*
G75*
G02*
X140100000Y-104800000I0J-200000D01*
G01*
X115700000Y-110350000D02*
G75*
G02*
X114700000Y-110350000I-500000J0D01*
G01*
X186500000Y-103600000D02*
G75*
G02*
X187700000Y-104800000I0J-1200000D01*
G01*
X180200000Y-110300000D02*
X180200000Y-104800000D01*
X162100000Y-110400000D02*
X162100000Y-104900000D01*
X134600000Y-104800000D02*
G75*
G02*
X134800000Y-104600000I200000J0D01*
G01*
X115900000Y-103650000D02*
X121000000Y-103650000D01*
X121000000Y-104650000D02*
G75*
G02*
X121200000Y-104850000I0J-200000D01*
G01*
X140100000Y-110300000D02*
X140100000Y-104800000D01*
X181200000Y-110300000D02*
X181200000Y-104800000D01*
X114700000Y-110350000D02*
X114700000Y-104850000D01*
X168600000Y-110400000D02*
X168600000Y-104900000D01*
X162300000Y-103700000D02*
X167400000Y-103700000D01*
X167600000Y-110400000D02*
X167600000Y-104900000D01*
X161100000Y-104900000D02*
G75*
G02*
X162300000Y-103700000I1200000J0D01*
G01*
X134600000Y-110300000D02*
G75*
G02*
X133600000Y-110300000I-500000J0D01*
G01*
X181400000Y-103600000D02*
X186500000Y-103600000D01*
X115700000Y-104850000D02*
G75*
G02*
X115900000Y-104650000I200000J0D01*
G01*
X114700000Y-104850000D02*
G75*
G02*
X115900000Y-103650000I1200000J0D01*
G01*
X133600000Y-110300000D02*
X133600000Y-104800000D01*
D13*
%TO.C,MOD1*%
X101175000Y-55745000D02*
X101175000Y-138995000D01*
X101175000Y-138995000D02*
X201175000Y-138995000D01*
X201175000Y-55745000D02*
X101175000Y-55745000D01*
X201175000Y-138995000D02*
X201175000Y-55745000D01*
%TD*%
M02*
