M48
; DRILL file {KiCad 9.0.3} date 2025-10-06T20:13:00+0200
; FORMAT={-:-/ absolute / metric / decimal}
; #@! TF.CreationDate,2025-10-06T20:13:00+02:00
; #@! TF.GenerationSoftware,Kicad,Pcbnew,9.0.3
; #@! TF.FileFunction,Plated,1,2,PTH
FMAT,2
METRIC
; #@! TA.AperFunction,Plated,PTH,ViaDrill
T1C0.300
; #@! TA.AperFunction,Plated,PTH,ComponentDrill
T2C1.000
; #@! TA.AperFunction,Plated,PTH,ComponentDrill
T3C1.300
; #@! TA.AperFunction,Plated,PTH,ComponentDrill
T4C2.500
%
G90
G05
T1
X102.0Y-98.0
X102.4Y-56.85
X110.05Y-83.25
X113.05Y-69.45
X117.25Y-86.6
X118.55Y-94.45
X119.85Y-94.45
X121.1Y-94.5
X122.35Y-94.45
X127.7Y-71.15
X128.0Y-98.0
X130.8Y-83.85
X140.05Y-91.85
X140.1Y-82.75
X142.55Y-82.4
X142.7Y-76.5
X143.05Y-70.65
X143.9Y-82.65
X144.15Y-73.0
X145.05Y-87.45
X145.15Y-91.8
X145.4Y-76.15
X146.35Y-86.65
X146.4Y-91.8
X147.65Y-82.45
X147.65Y-86.0
X147.7Y-91.85
X148.0Y-74.25
X151.35Y-82.65
X151.55Y-73.0
X152.0Y-83.9
X152.55Y-76.35
X152.9Y-70.65
X153.8Y-93.85
X161.8Y-83.9
X168.0Y-83.9
X173.95Y-83.85
X176.75Y-85.1
X176.8Y-67.35
X179.25Y-94.85
X179.27Y-88.15
X181.45Y-67.35
X182.15Y-85.05
X184.75Y-88.75
X184.75Y-94.85
X186.6Y-67.25
X188.3Y-84.85
X190.7Y-67.2
X190.75Y-94.85
X190.795Y-89.35
X193.95Y-84.85
X195.2Y-102.0
X196.545Y-90.05
X196.55Y-94.85
X200.0Y-98.0
X200.1Y-56.9
T2
X117.703Y-74.608
X120.243Y-74.608
X122.783Y-74.608
X130.925Y-69.415
X133.465Y-69.415
X136.005Y-69.415
X138.545Y-69.415
X141.085Y-69.415
T3
X108.675Y-61.16
X108.675Y-133.58
X112.4Y-109.622
X112.4Y-121.822
X113.675Y-61.16
X113.675Y-133.58
X118.4Y-107.622
X118.675Y-61.16
X118.675Y-133.58
X123.675Y-61.16
X123.675Y-133.58
X124.4Y-109.622
X124.4Y-121.822
X128.675Y-61.16
X128.675Y-133.58
X131.3Y-109.622
X131.3Y-121.822
X133.675Y-61.16
X133.675Y-133.58
X137.3Y-107.622
X138.675Y-61.16
X138.675Y-133.58
X143.3Y-109.622
X143.3Y-121.822
X143.675Y-61.16
X143.675Y-133.58
X158.675Y-61.16
X158.675Y-133.58
X158.8Y-109.622
X158.8Y-121.822
X163.675Y-61.16
X163.675Y-133.58
X164.8Y-107.622
X168.675Y-61.16
X168.675Y-133.58
X170.8Y-109.622
X170.8Y-121.822
X173.675Y-61.16
X173.675Y-133.58
X177.85Y-109.622
X177.85Y-121.822
X178.675Y-61.16
X178.675Y-133.58
X183.675Y-61.16
X183.675Y-133.58
X183.85Y-107.622
X188.675Y-61.16
X188.675Y-133.58
X189.85Y-109.622
X189.85Y-121.822
X193.675Y-61.16
X193.675Y-133.58
T4
X105.05Y-71.9
X105.05Y-122.8
X197.3Y-71.9
X197.3Y-122.8
M30
