%TF.GenerationSoftware,KiCad,Pcbnew,9.0.3*%
%TF.CreationDate,2025-10-06T20:13:02+02:00*%
%TF.ProjectId,esp32_blinds_controller,65737033-325f-4626-9c69-6e64735f636f,V0.3*%
%TF.SameCoordinates,Original*%
%TF.FileFunction,Copper,L2,Bot*%
%TF.FilePolarity,Positive*%
%FSLAX46Y46*%
G04 Gerber Fmt 4.6, Leading zero omitted, Abs format (unit mm)*
G04 Created by KiCad (PCBNEW 9.0.3) date 2025-10-06 20:13:02*
%MOMM*%
%LPD*%
G01*
G04 APERTURE LIST*
G04 Aperture macros list*
%AMRoundRect*
0 Rectangle with rounded corners*
0 $1 Rounding radius*
0 $2 $3 $4 $5 $6 $7 $8 $9 X,Y pos of 4 corners*
0 Add a 4 corners polygon primitive as box body*
4,1,4,$2,$3,$4,$5,$6,$7,$8,$9,$2,$3,0*
0 Add four circle primitives for the rounded corners*
1,1,$1+$1,$2,$3*
1,1,$1+$1,$4,$5*
1,1,$1+$1,$6,$7*
1,1,$1+$1,$8,$9*
0 Add four rect primitives between the rounded corners*
20,1,$1+$1,$2,$3,$4,$5,0*
20,1,$1+$1,$4,$5,$6,$7,0*
20,1,$1+$1,$6,$7,$8,$9,0*
20,1,$1+$1,$8,$9,$2,$3,0*%
%AMFreePoly0*
4,1,23,0.550000,-0.750000,0.000000,-0.750000,0.000000,-0.745722,-0.065263,-0.745722,-0.191342,-0.711940,-0.304381,-0.646677,-0.396677,-0.554381,-0.461940,-0.441342,-0.495722,-0.315263,-0.495722,-0.250000,-0.500000,-0.250000,-0.500000,0.250000,-0.495722,0.250000,-0.495722,0.315263,-0.461940,0.441342,-0.396677,0.554381,-0.304381,0.646677,-0.191342,0.711940,-0.065263,0.745722,0.000000,0.745722,
0.000000,0.750000,0.550000,0.750000,0.550000,-0.750000,0.550000,-0.750000,$1*%
%AMFreePoly1*
4,1,23,0.000000,0.745722,0.065263,0.745722,0.191342,0.711940,0.304381,0.646677,0.396677,0.554381,0.461940,0.441342,0.495722,0.315263,0.495722,0.250000,0.500000,0.250000,0.500000,-0.250000,0.495722,-0.250000,0.495722,-0.315263,0.461940,-0.441342,0.396677,-0.554381,0.304381,-0.646677,0.191342,-0.711940,0.065263,-0.745722,0.000000,-0.745722,0.000000,-0.750000,-0.550000,-0.750000,
-0.550000,0.750000,0.000000,0.750000,0.000000,0.745722,0.000000,0.745722,$1*%
G04 Aperture macros list end*
%ADD10C,0.300000*%
%TA.AperFunction,NonConductor*%
%ADD11C,0.300000*%
%TD*%
%TA.AperFunction,ComponentPad*%
%ADD12R,1.700000X1.700000*%
%TD*%
%TA.AperFunction,ComponentPad*%
%ADD13O,1.700000X1.700000*%
%TD*%
%TA.AperFunction,ComponentPad*%
%ADD14R,2.500000X2.500000*%
%TD*%
%TA.AperFunction,ComponentPad*%
%ADD15O,2.500000X2.500000*%
%TD*%
%TA.AperFunction,ComponentPad*%
%ADD16R,2.600000X2.600000*%
%TD*%
%TA.AperFunction,ComponentPad*%
%ADD17C,2.600000*%
%TD*%
%TA.AperFunction,ComponentPad*%
%ADD18C,6.000000*%
%TD*%
%TA.AperFunction,ComponentPad*%
%ADD19R,1.500000X2.300000*%
%TD*%
%TA.AperFunction,ComponentPad*%
%ADD20O,1.500000X2.300000*%
%TD*%
%TA.AperFunction,SMDPad,CuDef*%
%ADD21FreePoly0,0.000000*%
%TD*%
%TA.AperFunction,SMDPad,CuDef*%
%ADD22R,1.000000X1.500000*%
%TD*%
%TA.AperFunction,SMDPad,CuDef*%
%ADD23FreePoly1,0.000000*%
%TD*%
%TA.AperFunction,SMDPad,CuDef*%
%ADD24RoundRect,0.250000X0.500000X1.100000X-0.500000X1.100000X-0.500000X-1.100000X0.500000X-1.100000X0*%
%TD*%
%TA.AperFunction,ViaPad*%
%ADD25C,0.600000*%
%TD*%
%TA.AperFunction,ViaPad*%
%ADD26C,0.650000*%
%TD*%
%TA.AperFunction,Conductor*%
%ADD27C,2.000000*%
%TD*%
%TA.AperFunction,Conductor*%
%ADD28C,0.500000*%
%TD*%
%TA.AperFunction,Conductor*%
%ADD29C,1.000000*%
%TD*%
%TA.AperFunction,Conductor*%
%ADD30C,0.200000*%
%TD*%
%TA.AperFunction,Profile*%
%ADD31C,0.050000*%
%TD*%
%TA.AperFunction,Profile*%
%ADD32C,0.120000*%
%TD*%
G04 APERTURE END LIST*
D10*
D11*
X199216917Y-116500828D02*
X199216917Y-117572257D01*
X199216917Y-117572257D02*
X199288346Y-117786542D01*
X199288346Y-117786542D02*
X199431203Y-117929400D01*
X199431203Y-117929400D02*
X199645489Y-118000828D01*
X199645489Y-118000828D02*
X199788346Y-118000828D01*
X198502632Y-118000828D02*
X198502632Y-116500828D01*
X197645489Y-118000828D02*
X198288346Y-117143685D01*
X197645489Y-116500828D02*
X198502632Y-117357971D01*
X196502632Y-117215114D02*
X196288346Y-117286542D01*
X196288346Y-117286542D02*
X196216917Y-117357971D01*
X196216917Y-117357971D02*
X196145489Y-117500828D01*
X196145489Y-117500828D02*
X196145489Y-117715114D01*
X196145489Y-117715114D02*
X196216917Y-117857971D01*
X196216917Y-117857971D02*
X196288346Y-117929400D01*
X196288346Y-117929400D02*
X196431203Y-118000828D01*
X196431203Y-118000828D02*
X197002632Y-118000828D01*
X197002632Y-118000828D02*
X197002632Y-116500828D01*
X197002632Y-116500828D02*
X196502632Y-116500828D01*
X196502632Y-116500828D02*
X196359775Y-116572257D01*
X196359775Y-116572257D02*
X196288346Y-116643685D01*
X196288346Y-116643685D02*
X196216917Y-116786542D01*
X196216917Y-116786542D02*
X196216917Y-116929400D01*
X196216917Y-116929400D02*
X196288346Y-117072257D01*
X196288346Y-117072257D02*
X196359775Y-117143685D01*
X196359775Y-117143685D02*
X196502632Y-117215114D01*
X196502632Y-117215114D02*
X197002632Y-117215114D01*
X195502632Y-118000828D02*
X195502632Y-116500828D01*
D12*
%TO.P,J1,1,Pin_1*%
%TO.N,+3V3*%
X130925000Y-69415000D03*
D13*
%TO.P,J1,2,Pin_2*%
%TO.N,/INT*%
X133465000Y-69415000D03*
%TO.P,J1,3,Pin_3*%
%TO.N,/SDA*%
X136005000Y-69415000D03*
%TO.P,J1,4,Pin_4*%
%TO.N,/SCL*%
X138545000Y-69415000D03*
%TO.P,J1,5,Pin_5*%
%TO.N,GND*%
X141085000Y-69415000D03*
%TD*%
D14*
%TO.P,K2,1*%
%TO.N,Net-(K1-Pad4)*%
X137300000Y-107622500D03*
D15*
%TO.P,K2,2*%
%TO.N,VBUS*%
X131300000Y-109622500D03*
%TO.P,K2,3*%
%TO.N,/L1-UP*%
X131300000Y-121822500D03*
%TO.P,K2,4*%
%TO.N,/L1-SW*%
X143300000Y-121822500D03*
%TO.P,K2,5*%
%TO.N,/nUP1*%
X143300000Y-109622500D03*
%TD*%
D14*
%TO.P,K4,1*%
%TO.N,Net-(K3-Pad4)*%
X183850000Y-107622500D03*
D15*
%TO.P,K4,2*%
%TO.N,VBUS*%
X177850000Y-109622500D03*
%TO.P,K4,3*%
%TO.N,/L2-UP*%
X177850000Y-121822500D03*
%TO.P,K4,4*%
%TO.N,/L2-SW*%
X189850000Y-121822500D03*
%TO.P,K4,5*%
%TO.N,/nUP2*%
X189850000Y-109622500D03*
%TD*%
D14*
%TO.P,K1,1*%
%TO.N,/L1*%
X118400000Y-107622500D03*
D15*
%TO.P,K1,2*%
%TO.N,VBUS*%
X112400000Y-109622500D03*
%TO.P,K1,3*%
%TO.N,/L1-DOWN*%
X112400000Y-121822500D03*
%TO.P,K1,4*%
%TO.N,Net-(K1-Pad4)*%
X124400000Y-121822500D03*
%TO.P,K1,5*%
%TO.N,/nDOWN1*%
X124400000Y-109622500D03*
%TD*%
D16*
%TO.P,MOD1,A1,A1*%
%TO.N,/L1-DOWN*%
X108675000Y-133580000D03*
D17*
%TO.P,MOD1,A2,A2*%
X113675000Y-133580000D03*
%TO.P,MOD1,A3,A3*%
%TO.N,/L1*%
X118675000Y-133580000D03*
%TO.P,MOD1,A4,A4*%
X123675000Y-133580000D03*
%TO.P,MOD1,A5,A5*%
%TO.N,/L1-UP*%
X128675000Y-133580000D03*
%TO.P,MOD1,A6,A6*%
X133675000Y-133580000D03*
%TO.P,MOD1,A7,A7*%
%TO.N,/L1-SW*%
X138675000Y-133580000D03*
%TO.P,MOD1,A8,A8*%
X143675000Y-133580000D03*
D16*
%TO.P,MOD1,B1,B1*%
%TO.N,/L2-DOWN*%
X158675000Y-133580000D03*
D17*
%TO.P,MOD1,B2,B2*%
X163675000Y-133580000D03*
%TO.P,MOD1,B3,B3*%
%TO.N,/L2*%
X168675000Y-133580000D03*
%TO.P,MOD1,B4,B4*%
X173675000Y-133580000D03*
%TO.P,MOD1,B5,B5*%
%TO.N,/L2-UP*%
X178675000Y-133580000D03*
%TO.P,MOD1,B6,B6*%
X183675000Y-133580000D03*
%TO.P,MOD1,B7,B7*%
%TO.N,/L2-SW*%
X188675000Y-133580000D03*
%TO.P,MOD1,B8,B8*%
X193675000Y-133580000D03*
D16*
%TO.P,MOD1,C1,C1*%
%TO.N,/IN4_H*%
X193675000Y-61160000D03*
D17*
%TO.P,MOD1,C2,C2*%
%TO.N,/IN3_H*%
X188675000Y-61160000D03*
%TO.P,MOD1,C3,C3*%
%TO.N,/IN2_H*%
X183675000Y-61160000D03*
%TO.P,MOD1,C4,C4*%
%TO.N,/IN1_H*%
X178675000Y-61160000D03*
%TO.P,MOD1,C5,C5*%
%TO.N,VBUS*%
X173675000Y-61160000D03*
%TO.P,MOD1,C6,C6*%
X168675000Y-61160000D03*
%TO.P,MOD1,C7,C7*%
X163675000Y-61160000D03*
%TO.P,MOD1,C8,C8*%
X158675000Y-61160000D03*
D16*
%TO.P,MOD1,D1,D1*%
%TO.N,/SCL*%
X143675000Y-61160000D03*
D17*
%TO.P,MOD1,D2,D2*%
%TO.N,/SDA*%
X138675000Y-61160000D03*
%TO.P,MOD1,D3,D3*%
%TO.N,/INT*%
X133675000Y-61160000D03*
%TO.P,MOD1,D4,D4*%
%TO.N,+3V3*%
X128675000Y-61160000D03*
%TO.P,MOD1,D5,D5*%
%TO.N,GND*%
X123675000Y-61160000D03*
%TO.P,MOD1,D6,D6*%
X118675000Y-61160000D03*
%TO.P,MOD1,D7,D7*%
%TO.N,VBUS*%
X113675000Y-61160000D03*
%TO.P,MOD1,D8,D8*%
X108675000Y-61160000D03*
D18*
%TO.P,MOD1,MH1*%
%TO.N,N/C*%
X105050000Y-71900000D03*
%TO.P,MOD1,MH2*%
X197300000Y-71900000D03*
%TO.P,MOD1,MH3*%
X105050000Y-122800000D03*
%TO.P,MOD1,MH4*%
X197300000Y-122800000D03*
%TD*%
D19*
%TO.P,U3,1,IN*%
%TO.N,VBUS*%
X117703000Y-74607500D03*
D20*
%TO.P,U3,2,GND*%
%TO.N,GND*%
X120243000Y-74607500D03*
%TO.P,U3,3,OUT*%
%TO.N,+3V3*%
X122783000Y-74607500D03*
%TD*%
D14*
%TO.P,K3,1*%
%TO.N,/L2*%
X164800000Y-107622500D03*
D15*
%TO.P,K3,2*%
%TO.N,VBUS*%
X158800000Y-109622500D03*
%TO.P,K3,3*%
%TO.N,/L2-DOWN*%
X158800000Y-121822500D03*
%TO.P,K3,4*%
%TO.N,Net-(K3-Pad4)*%
X170800000Y-121822500D03*
%TO.P,K3,5*%
%TO.N,/nDOWN2*%
X170800000Y-109622500D03*
%TD*%
D21*
%TO.P,A1,1,A*%
%TO.N,GND*%
X163550000Y-83850000D03*
D22*
%TO.P,A1,2,C*%
%TO.N,/A1*%
X164850000Y-83850000D03*
D23*
%TO.P,A1,3,B*%
%TO.N,+3V3*%
X166150000Y-83850000D03*
%TD*%
D24*
%TO.P,D1,1,K*%
%TO.N,VBUS*%
X129700000Y-104900000D03*
%TO.P,D1,2,A*%
%TO.N,/nDOWN1*%
X124900000Y-104900000D03*
%TD*%
%TO.P,D3,1,K*%
%TO.N,VBUS*%
X195250000Y-104350000D03*
%TO.P,D3,2,A*%
%TO.N,/nUP2*%
X190450000Y-104350000D03*
%TD*%
%TO.P,D4,1,K*%
%TO.N,VBUS*%
X151400000Y-105000000D03*
%TO.P,D4,2,A*%
%TO.N,/nUP1*%
X146600000Y-105000000D03*
%TD*%
D21*
%TO.P,A0,1,A*%
%TO.N,GND*%
X169800000Y-83850000D03*
D22*
%TO.P,A0,2,C*%
%TO.N,/A0*%
X171100000Y-83850000D03*
D23*
%TO.P,A0,3,B*%
%TO.N,+3V3*%
X172400000Y-83850000D03*
%TD*%
D24*
%TO.P,D2,1,K*%
%TO.N,VBUS*%
X176250000Y-104500000D03*
%TO.P,D2,2,A*%
%TO.N,/nDOWN2*%
X171450000Y-104500000D03*
%TD*%
D21*
%TO.P,A2,1,A*%
%TO.N,GND*%
X157300000Y-83850000D03*
D22*
%TO.P,A2,2,C*%
%TO.N,/A2*%
X158600000Y-83850000D03*
D23*
%TO.P,A2,3,B*%
%TO.N,+3V3*%
X159900000Y-83850000D03*
%TD*%
D25*
%TO.N,GND*%
X142700000Y-76500000D03*
X152550000Y-76350000D03*
X142550000Y-82400000D03*
X152900000Y-70650000D03*
X147650000Y-82450000D03*
X130800000Y-83850000D03*
X127700000Y-71150000D03*
X176750000Y-85100000D03*
D26*
X140100000Y-82750000D03*
D25*
X151350000Y-82650000D03*
X148000000Y-74250000D03*
X102400000Y-56850000D03*
X200100000Y-56900000D03*
X188300000Y-84850000D03*
X200000000Y-98000000D03*
X143050000Y-70650000D03*
X182150000Y-85050000D03*
X176800000Y-67350000D03*
X186600000Y-67250000D03*
X181450000Y-67350000D03*
D26*
X117250000Y-86600000D03*
D25*
X110050000Y-83250000D03*
X190700000Y-67200000D03*
X113050000Y-69450000D03*
X145400000Y-76150000D03*
X128000000Y-98000000D03*
X102000000Y-98000000D03*
X193950000Y-84850000D03*
D26*
%TO.N,/nDOWN2*%
X121100000Y-94500000D03*
%TO.N,/nDOWN1*%
X118550000Y-94450000D03*
%TO.N,/nUP2*%
X122350000Y-94450000D03*
%TO.N,/nUP1*%
X119850000Y-94450000D03*
%TO.N,VBUS*%
X195200000Y-102000000D03*
D25*
%TO.N,+3V3*%
X184750000Y-94850000D03*
X143900000Y-82650000D03*
X153800000Y-93850000D03*
X151550000Y-73000000D03*
D26*
X168000000Y-83900000D03*
D25*
X196550000Y-94850000D03*
X144150000Y-73000000D03*
X152000000Y-83900000D03*
X179250000Y-94850000D03*
X190750000Y-94850000D03*
D26*
X173950000Y-83850000D03*
X161800000Y-83900000D03*
D25*
%TO.N,/A0*%
X145050000Y-87450000D03*
%TO.N,/A1*%
X146350000Y-86650000D03*
%TO.N,/A2*%
X147650000Y-86000000D03*
%TO.N,/IN1_L*%
X145150000Y-91800000D03*
X179270000Y-88150000D03*
%TO.N,/IN2_L*%
X146400000Y-91800000D03*
X184750000Y-88750000D03*
%TO.N,/IN3_L*%
X147700000Y-91850000D03*
X190795000Y-89350000D03*
%TO.N,/IN4_L*%
X196545000Y-90050000D03*
X140050000Y-91850000D03*
%TD*%
D27*
%TO.N,Net-(K1-Pad4)*%
X133850000Y-115950000D02*
X126800000Y-115950000D01*
X126800000Y-115950000D02*
X124400000Y-118350000D01*
X137300000Y-107622500D02*
X137300000Y-112500000D01*
X137300000Y-112500000D02*
X133850000Y-115950000D01*
X124400000Y-118350000D02*
X124400000Y-121822500D01*
D28*
%TO.N,/nDOWN2*%
X121100000Y-94500000D02*
X121100000Y-95350000D01*
X121100000Y-95350000D02*
X126500000Y-100750000D01*
X168350000Y-100750000D02*
X170800000Y-103200000D01*
X126500000Y-100750000D02*
X168350000Y-100750000D01*
X170800000Y-103200000D02*
X170800000Y-109622500D01*
D27*
%TO.N,/L2*%
X168675000Y-126025000D02*
X168675000Y-133580000D01*
X164800000Y-107622500D02*
X164800000Y-122150000D01*
X164800000Y-122150000D02*
X168675000Y-126025000D01*
X173675000Y-133580000D02*
X168675000Y-133580000D01*
%TO.N,Net-(K3-Pad4)*%
X181550000Y-115150000D02*
X183850000Y-112850000D01*
X173900000Y-115150000D02*
X181550000Y-115150000D01*
X170800000Y-118250000D02*
X173900000Y-115150000D01*
X183850000Y-112850000D02*
X183850000Y-107622500D01*
X170800000Y-121822500D02*
X170800000Y-118250000D01*
%TO.N,/L1*%
X123675000Y-133580000D02*
X118675000Y-133580000D01*
X118675000Y-133580000D02*
X118400000Y-133305000D01*
X118400000Y-133305000D02*
X118400000Y-107622500D01*
D28*
%TO.N,/nDOWN1*%
X124900000Y-109122500D02*
X124400000Y-109622500D01*
X124900000Y-104900000D02*
X124900000Y-109122500D01*
X124950000Y-102550000D02*
X124950000Y-104850000D01*
X124950000Y-104850000D02*
X124900000Y-104900000D01*
X118550000Y-94450000D02*
X118550000Y-96150000D01*
X118550000Y-96150000D02*
X124950000Y-102550000D01*
%TO.N,/nUP2*%
X122350000Y-95150000D02*
X126850000Y-99650000D01*
X189850000Y-103150000D02*
X189850000Y-109622500D01*
X122350000Y-94450000D02*
X122350000Y-95150000D01*
X186350000Y-99650000D02*
X189850000Y-103150000D01*
X126850000Y-99650000D02*
X186350000Y-99650000D01*
%TO.N,/nUP1*%
X143300000Y-104200000D02*
X143300000Y-109622500D01*
X143300000Y-109622500D02*
X143300000Y-105000000D01*
X125950000Y-101850000D02*
X140950000Y-101850000D01*
X140950000Y-101850000D02*
X143300000Y-104200000D01*
X119850000Y-95750000D02*
X125950000Y-101850000D01*
X143300000Y-105000000D02*
X146600000Y-105000000D01*
X119850000Y-94450000D02*
X119850000Y-95750000D01*
D29*
%TO.N,VBUS*%
X129900000Y-108222500D02*
X131300000Y-109622500D01*
X151400000Y-105000000D02*
X157000000Y-105000000D01*
X177850000Y-107100000D02*
X177850000Y-109622500D01*
X176400000Y-103650000D02*
X176400000Y-105650000D01*
X157000000Y-105000000D02*
X158800000Y-106800000D01*
X129700000Y-104900000D02*
X129900000Y-105100000D01*
X195250000Y-104200000D02*
X195250000Y-104350000D01*
X195200000Y-104150000D02*
X195250000Y-104200000D01*
X158800000Y-106800000D02*
X158800000Y-109622500D01*
X176400000Y-105650000D02*
X177850000Y-107100000D01*
X195200000Y-102000000D02*
X195200000Y-104150000D01*
X129900000Y-105100000D02*
X129900000Y-108222500D01*
D27*
%TO.N,/L1-DOWN*%
X113675000Y-129775000D02*
X113675000Y-133580000D01*
X108675000Y-133580000D02*
X113675000Y-133580000D01*
X112400000Y-121822500D02*
X112400000Y-128350000D01*
X112400000Y-128350000D02*
X113750000Y-129700000D01*
X113750000Y-129700000D02*
X113675000Y-129775000D01*
%TO.N,/L1-UP*%
X133675000Y-129025000D02*
X133675000Y-133580000D01*
X128675000Y-133580000D02*
X133675000Y-133580000D01*
X131300000Y-126650000D02*
X133675000Y-129025000D01*
X131300000Y-121822500D02*
X131300000Y-126650000D01*
%TO.N,/L1-SW*%
X138675000Y-133580000D02*
X143675000Y-133580000D01*
X143300000Y-121822500D02*
X143300000Y-133205000D01*
X143300000Y-133205000D02*
X143675000Y-133580000D01*
%TO.N,/L2-DOWN*%
X158800000Y-121822500D02*
X158800000Y-133455000D01*
X163675000Y-133580000D02*
X158675000Y-133580000D01*
X158800000Y-133455000D02*
X158675000Y-133580000D01*
%TO.N,/L2-SW*%
X189850000Y-121822500D02*
X189850000Y-125700000D01*
X188675000Y-126875000D02*
X188675000Y-133580000D01*
X193675000Y-133580000D02*
X188675000Y-133580000D01*
X189850000Y-125700000D02*
X188675000Y-126875000D01*
%TO.N,/L2-UP*%
X178675000Y-133580000D02*
X178675000Y-122647500D01*
X178675000Y-122647500D02*
X177850000Y-121822500D01*
X183675000Y-133580000D02*
X178675000Y-133580000D01*
D28*
%TO.N,/SCL*%
X143675000Y-62625000D02*
X143675000Y-61160000D01*
X138545000Y-69415000D02*
X138545000Y-67755000D01*
X138545000Y-67755000D02*
X143675000Y-62625000D01*
%TO.N,/SDA*%
X136005000Y-66495000D02*
X136005000Y-69415000D01*
X138675000Y-63825000D02*
X136005000Y-66495000D01*
X138675000Y-61160000D02*
X138675000Y-63825000D01*
%TO.N,+3V3*%
X173950000Y-83850000D02*
X172400000Y-83850000D01*
X140000000Y-94200000D02*
X139100000Y-93300000D01*
X139100000Y-88650000D02*
X143900000Y-83850000D01*
X153800000Y-93850000D02*
X153450000Y-94200000D01*
X144150000Y-82400000D02*
X143900000Y-82650000D01*
X152000000Y-83900000D02*
X143950000Y-83900000D01*
X143900000Y-83850000D02*
X143900000Y-82650000D01*
X157050000Y-94850000D02*
X156050000Y-93850000D01*
X156050000Y-93850000D02*
X153800000Y-93850000D01*
X196550000Y-94850000D02*
X190750000Y-94850000D01*
X144150000Y-73000000D02*
X151550000Y-73000000D01*
X168000000Y-83900000D02*
X166200000Y-83900000D01*
X143950000Y-83900000D02*
X143900000Y-83850000D01*
X130925000Y-69415000D02*
X130925000Y-72375000D01*
X161800000Y-83900000D02*
X159950000Y-83900000D01*
X190750000Y-94850000D02*
X184750000Y-94850000D01*
X131550000Y-73000000D02*
X144150000Y-73000000D01*
X179250000Y-94850000D02*
X157050000Y-94850000D01*
X144150000Y-73000000D02*
X144150000Y-82400000D01*
X153450000Y-94200000D02*
X140000000Y-94200000D01*
X166200000Y-83900000D02*
X166150000Y-83850000D01*
X184750000Y-94850000D02*
X179250000Y-94850000D01*
X131350000Y-72800000D02*
X131550000Y-73000000D01*
X159950000Y-83900000D02*
X159900000Y-83850000D01*
X130925000Y-72375000D02*
X131350000Y-72800000D01*
X139100000Y-93300000D02*
X139100000Y-88650000D01*
%TO.N,/INT*%
X133465000Y-69415000D02*
X133465000Y-61370000D01*
X133465000Y-61370000D02*
X133675000Y-61160000D01*
D30*
%TO.N,/A0*%
X168000000Y-87450000D02*
X145050000Y-87450000D01*
X171100000Y-83850000D02*
X171100000Y-84350000D01*
X171100000Y-84350000D02*
X168000000Y-87450000D01*
%TO.N,/A1*%
X164200000Y-86350000D02*
X163900000Y-86650000D01*
X164850000Y-83850000D02*
X164850000Y-85700000D01*
X164850000Y-85700000D02*
X164200000Y-86350000D01*
X163900000Y-86650000D02*
X146350000Y-86650000D01*
%TO.N,/A2*%
X158600000Y-83850000D02*
X158600000Y-85500000D01*
X158100000Y-86000000D02*
X147650000Y-86000000D01*
X158600000Y-85500000D02*
X158100000Y-86000000D01*
%TO.N,/IN1_L*%
X145150000Y-89300000D02*
X145150000Y-91800000D01*
X146300000Y-88150000D02*
X145150000Y-89300000D01*
X179270000Y-88150000D02*
X146300000Y-88150000D01*
%TO.N,/IN2_L*%
X184201000Y-88751000D02*
X147649000Y-88751000D01*
X184750000Y-88750000D02*
X184202000Y-88750000D01*
X146400000Y-90000000D02*
X146400000Y-91800000D01*
X184202000Y-88750000D02*
X184201000Y-88751000D01*
X147649000Y-88751000D02*
X146400000Y-90000000D01*
%TO.N,/IN3_L*%
X147700000Y-90250000D02*
X147700000Y-91850000D01*
X148600000Y-89350000D02*
X147700000Y-90250000D01*
X190795000Y-89350000D02*
X148600000Y-89350000D01*
%TO.N,/IN4_L*%
X148650000Y-92400000D02*
X148650000Y-90700000D01*
X140800000Y-93350000D02*
X147700000Y-93350000D01*
X148650000Y-90700000D02*
X149300000Y-90050000D01*
X149300000Y-90050000D02*
X196545000Y-90050000D01*
X140050000Y-92600000D02*
X140800000Y-93350000D01*
X140050000Y-91850000D02*
X140050000Y-92600000D01*
X147700000Y-93350000D02*
X148650000Y-92400000D01*
%TD*%
%TA.AperFunction,Conductor*%
%TO.N,GND*%
G36*
X200617539Y-56265185D02*
G01*
X200663294Y-56317989D01*
X200674500Y-56369500D01*
X200674500Y-70292404D01*
X200654815Y-70359443D01*
X200602011Y-70405198D01*
X200532853Y-70415142D01*
X200469297Y-70386117D01*
X200441142Y-70350857D01*
X200306106Y-70098224D01*
X200306105Y-70098222D01*
X200306100Y-70098213D01*
X200115019Y-69812240D01*
X199896828Y-69546373D01*
X199896827Y-69546372D01*
X199896823Y-69546367D01*
X199653632Y-69303176D01*
X199387765Y-69084985D01*
X199387764Y-69084984D01*
X199387760Y-69084981D01*
X199101787Y-68893900D01*
X199101782Y-68893897D01*
X199101775Y-68893893D01*
X198798469Y-68731772D01*
X198798464Y-68731770D01*
X198739103Y-68707182D01*
X198705394Y-68693219D01*
X198480706Y-68600150D01*
X198151572Y-68500308D01*
X197814248Y-68433210D01*
X197814249Y-68433210D01*
X197556456Y-68407821D01*
X197471969Y-68399500D01*
X197128031Y-68399500D01*
X197049966Y-68407188D01*
X196785750Y-68433210D01*
X196448427Y-68500308D01*
X196119293Y-68600150D01*
X195801535Y-68731770D01*
X195801530Y-68731772D01*
X195498224Y-68893893D01*
X195498206Y-68893904D01*
X195212248Y-69084975D01*
X195212234Y-69084985D01*
X194946367Y-69303176D01*
X194703176Y-69546367D01*
X194484985Y-69812234D01*
X194484975Y-69812248D01*
X194293904Y-70098206D01*
X194293893Y-70098224D01*
X194131772Y-70401530D01*
X194131770Y-70401535D01*
X194000150Y-70719293D01*
X193900308Y-71048427D01*
X193833210Y-71385750D01*
X193799500Y-71728034D01*
X193799500Y-72071965D01*
X193833210Y-72414249D01*
X193900308Y-72751572D01*
X194000150Y-73080706D01*
X194063435Y-73233489D01*
X194115362Y-73358853D01*
X194131770Y-73398464D01*
X194131772Y-73398469D01*
X194293893Y-73701775D01*
X194293904Y-73701793D01*
X194484975Y-73987751D01*
X194484985Y-73987765D01*
X194703176Y-74253632D01*
X194946367Y-74496823D01*
X194946372Y-74496827D01*
X194946373Y-74496828D01*
X195212240Y-74715019D01*
X195498213Y-74906100D01*
X195498222Y-74906105D01*
X195498224Y-74906106D01*
X195801530Y-75068227D01*
X195801532Y-75068227D01*
X195801538Y-75068231D01*
X196119295Y-75199850D01*
X196448422Y-75299690D01*
X196785750Y-75366789D01*
X197128031Y-75400500D01*
X197128034Y-75400500D01*
X197471966Y-75400500D01*
X197471969Y-75400500D01*
X197814250Y-75366789D01*
X198151578Y-75299690D01*
X198480705Y-75199850D01*
X198798462Y-75068231D01*
X199101787Y-74906100D01*
X199387760Y-74715019D01*
X199653627Y-74496828D01*
X199896828Y-74253627D01*
X200115019Y-73987760D01*
X200306100Y-73701787D01*
X200441142Y-73449142D01*
X200490104Y-73399297D01*
X200558242Y-73383837D01*
X200623922Y-73407669D01*
X200666290Y-73463226D01*
X200674500Y-73507595D01*
X200674500Y-98876000D01*
X200654815Y-98943039D01*
X200602011Y-98988794D01*
X200550500Y-99000000D01*
X186764776Y-99000000D01*
X186711381Y-98986625D01*
X186711124Y-98987247D01*
X186706933Y-98985511D01*
X186706322Y-98985358D01*
X186705490Y-98984913D01*
X186568917Y-98928343D01*
X186568907Y-98928340D01*
X186423920Y-98899500D01*
X186423918Y-98899500D01*
X127212230Y-98899500D01*
X127145191Y-98879815D01*
X127124549Y-98863181D01*
X123146238Y-94884870D01*
X123112753Y-94823547D01*
X123117737Y-94753855D01*
X123119338Y-94749785D01*
X123143776Y-94690789D01*
X123175500Y-94531305D01*
X123175500Y-94368695D01*
X123175500Y-94368692D01*
X123143777Y-94209216D01*
X123143776Y-94209215D01*
X123143776Y-94209211D01*
X123115359Y-94140606D01*
X123081549Y-94058980D01*
X123081547Y-94058976D01*
X122991211Y-93923779D01*
X122991205Y-93923771D01*
X122876228Y-93808794D01*
X122876220Y-93808788D01*
X122741023Y-93718452D01*
X122741019Y-93718450D01*
X122590793Y-93656225D01*
X122590783Y-93656222D01*
X122431307Y-93624500D01*
X122431305Y-93624500D01*
X122268695Y-93624500D01*
X122268693Y-93624500D01*
X122109216Y-93656222D01*
X122109206Y-93656225D01*
X121958980Y-93718450D01*
X121958976Y-93718452D01*
X121823779Y-93808788D01*
X121823770Y-93808795D01*
X121786631Y-93845934D01*
X121725308Y-93879419D01*
X121655616Y-93874433D01*
X121630061Y-93861355D01*
X121491017Y-93768449D01*
X121340793Y-93706225D01*
X121340783Y-93706222D01*
X121181307Y-93674500D01*
X121181305Y-93674500D01*
X121018695Y-93674500D01*
X121018693Y-93674500D01*
X120859216Y-93706222D01*
X120859206Y-93706225D01*
X120708980Y-93768450D01*
X120708977Y-93768452D01*
X120569938Y-93861355D01*
X120503261Y-93882233D01*
X120435881Y-93863748D01*
X120413366Y-93845933D01*
X120376228Y-93808794D01*
X120376220Y-93808788D01*
X120241023Y-93718452D01*
X120241019Y-93718450D01*
X120090793Y-93656225D01*
X120090783Y-93656222D01*
X119931307Y-93624500D01*
X119931305Y-93624500D01*
X119768695Y-93624500D01*
X119768693Y-93624500D01*
X119609216Y-93656222D01*
X119609206Y-93656225D01*
X119458980Y-93718450D01*
X119458976Y-93718452D01*
X119323779Y-93808788D01*
X119323771Y-93808794D01*
X119287681Y-93844885D01*
X119226358Y-93878370D01*
X119156666Y-93873386D01*
X119112319Y-93844885D01*
X119076228Y-93808794D01*
X119076220Y-93808788D01*
X118941023Y-93718452D01*
X118941019Y-93718450D01*
X118790793Y-93656225D01*
X118790783Y-93656222D01*
X118631307Y-93624500D01*
X118631305Y-93624500D01*
X118468695Y-93624500D01*
X118468693Y-93624500D01*
X118309216Y-93656222D01*
X118309206Y-93656225D01*
X118158980Y-93718450D01*
X118158976Y-93718452D01*
X118023779Y-93808788D01*
X118023771Y-93808794D01*
X117908794Y-93923771D01*
X117908788Y-93923779D01*
X117818452Y-94058976D01*
X117818450Y-94058980D01*
X117756225Y-94209206D01*
X117756222Y-94209216D01*
X117724500Y-94368692D01*
X117724500Y-94368695D01*
X117724500Y-94531305D01*
X117724500Y-94531307D01*
X117724499Y-94531307D01*
X117756222Y-94690783D01*
X117756224Y-94690789D01*
X117790061Y-94772478D01*
X117799500Y-94819931D01*
X117799500Y-96223918D01*
X117799500Y-96223920D01*
X117799499Y-96223920D01*
X117828340Y-96368907D01*
X117828343Y-96368917D01*
X117884914Y-96505492D01*
X117917812Y-96554727D01*
X117917813Y-96554730D01*
X117967046Y-96628414D01*
X117967052Y-96628421D01*
X120126951Y-98788319D01*
X120160436Y-98849642D01*
X120155452Y-98919334D01*
X120113580Y-98975267D01*
X120048116Y-98999684D01*
X120039270Y-99000000D01*
X101799500Y-99000000D01*
X101732461Y-98980315D01*
X101686706Y-98927511D01*
X101675500Y-98876000D01*
X101675500Y-73507595D01*
X101695185Y-73440556D01*
X101747989Y-73394801D01*
X101817147Y-73384857D01*
X101880703Y-73413882D01*
X101908858Y-73449142D01*
X102043893Y-73701775D01*
X102043904Y-73701793D01*
X102234975Y-73987751D01*
X102234985Y-73987765D01*
X102453176Y-74253632D01*
X102696367Y-74496823D01*
X102696372Y-74496827D01*
X102696373Y-74496828D01*
X102962240Y-74715019D01*
X103248213Y-74906100D01*
X103248222Y-74906105D01*
X103248224Y-74906106D01*
X103551530Y-75068227D01*
X103551532Y-75068227D01*
X103551538Y-75068231D01*
X103869295Y-75199850D01*
X104198422Y-75299690D01*
X104535750Y-75366789D01*
X104878031Y-75400500D01*
X104878034Y-75400500D01*
X105221966Y-75400500D01*
X105221969Y-75400500D01*
X105564250Y-75366789D01*
X105901578Y-75299690D01*
X106230705Y-75199850D01*
X106548462Y-75068231D01*
X106851787Y-74906100D01*
X107137760Y-74715019D01*
X107403627Y-74496828D01*
X107646828Y-74253627D01*
X107865019Y-73987760D01*
X108056100Y-73701787D01*
X108212259Y-73409635D01*
X116452500Y-73409635D01*
X116452500Y-75805370D01*
X116452501Y-75805376D01*
X116458908Y-75864983D01*
X116509202Y-75999828D01*
X116509206Y-75999835D01*
X116595452Y-76115044D01*
X116595455Y-76115047D01*
X116710664Y-76201293D01*
X116710671Y-76201297D01*
X116845517Y-76251591D01*
X116845516Y-76251591D01*
X116852444Y-76252335D01*
X116905127Y-76258000D01*
X118500872Y-76257999D01*
X118560483Y-76251591D01*
X118695331Y-76201296D01*
X118810546Y-76115046D01*
X118896796Y-75999831D01*
X118947091Y-75864983D01*
X118953500Y-75805373D01*
X118953499Y-75740913D01*
X118973183Y-75673877D01*
X119025986Y-75628121D01*
X119095144Y-75618177D01*
X119158700Y-75647201D01*
X119177817Y-75668029D01*
X119289555Y-75821821D01*
X119428678Y-75960944D01*
X119587856Y-76076595D01*
X119763162Y-76165918D01*
X119950283Y-76226718D01*
X119993000Y-76233484D01*
X119993000Y-75040512D01*
X120050007Y-75073425D01*
X120177174Y-75107500D01*
X120308826Y-75107500D01*
X120435993Y-75073425D01*
X120493000Y-75040512D01*
X120493000Y-76233483D01*
X120535716Y-76226718D01*
X120722837Y-76165918D01*
X120898143Y-76076595D01*
X121057321Y-75960944D01*
X121196444Y-75821821D01*
X121312097Y-75662641D01*
X121402234Y-75485736D01*
X121450208Y-75434939D01*
X121518029Y-75418144D01*
X121584164Y-75440681D01*
X121623204Y-75485735D01*
X121624115Y-75487524D01*
X121624116Y-75487525D01*
X121713476Y-75662905D01*
X121829172Y-75822146D01*
X121968354Y-75961328D01*
X122127595Y-76077024D01*
X122202214Y-76115044D01*
X122302970Y-76166382D01*
X122302972Y-76166382D01*
X122302975Y-76166384D01*
X122403317Y-76198987D01*
X122490173Y-76227209D01*
X122684578Y-76258000D01*
X122684583Y-76258000D01*
X122881422Y-76258000D01*
X123075826Y-76227209D01*
X123155574Y-76201297D01*
X123263025Y-76166384D01*
X123438405Y-76077024D01*
X123597646Y-75961328D01*
X123736828Y-75822146D01*
X123852524Y-75662905D01*
X123941884Y-75487525D01*
X124002709Y-75300326D01*
X124018623Y-75199849D01*
X124033500Y-75105922D01*
X124033500Y-74109077D01*
X124002709Y-73914673D01*
X123947501Y-73744763D01*
X123941884Y-73727475D01*
X123941882Y-73727472D01*
X123941882Y-73727470D01*
X123868246Y-73582952D01*
X123852524Y-73552095D01*
X123736828Y-73392854D01*
X123597646Y-73253672D01*
X123438405Y-73137976D01*
X123263029Y-73048617D01*
X123075826Y-72987790D01*
X122881422Y-72957000D01*
X122881417Y-72957000D01*
X122684583Y-72957000D01*
X122684578Y-72957000D01*
X122490173Y-72987790D01*
X122302970Y-73048617D01*
X122127594Y-73137976D01*
X122036741Y-73203985D01*
X121968354Y-73253672D01*
X121968352Y-73253674D01*
X121968351Y-73253674D01*
X121829174Y-73392851D01*
X121829174Y-73392852D01*
X121829172Y-73392854D01*
X121794514Y-73440556D01*
X121713476Y-73552094D01*
X121623204Y-73729264D01*
X121575229Y-73780060D01*
X121507408Y-73796855D01*
X121441274Y-73774318D01*
X121402234Y-73729264D01*
X121312095Y-73552356D01*
X121196444Y-73393178D01*
X121057321Y-73254055D01*
X120898143Y-73138404D01*
X120722835Y-73049081D01*
X120535705Y-72988278D01*
X120493000Y-72981514D01*
X120493000Y-74174488D01*
X120435993Y-74141575D01*
X120308826Y-74107500D01*
X120177174Y-74107500D01*
X120050007Y-74141575D01*
X119993000Y-74174488D01*
X119993000Y-72981514D01*
X119992999Y-72981514D01*
X119950294Y-72988278D01*
X119763164Y-73049081D01*
X119587856Y-73138404D01*
X119428678Y-73254055D01*
X119289555Y-73393178D01*
X119177817Y-73546971D01*
X119122486Y-73589637D01*
X119052873Y-73595615D01*
X118991078Y-73563009D01*
X118956721Y-73502170D01*
X118953499Y-73474085D01*
X118953499Y-73409629D01*
X118953498Y-73409623D01*
X118953497Y-73409616D01*
X118947091Y-73350017D01*
X118911157Y-73253674D01*
X118896797Y-73215171D01*
X118896793Y-73215164D01*
X118810547Y-73099955D01*
X118810544Y-73099952D01*
X118695335Y-73013706D01*
X118695328Y-73013702D01*
X118560482Y-72963408D01*
X118560483Y-72963408D01*
X118500883Y-72957001D01*
X118500881Y-72957000D01*
X118500873Y-72957000D01*
X118500864Y-72957000D01*
X116905129Y-72957000D01*
X116905123Y-72957001D01*
X116845516Y-72963408D01*
X116710671Y-73013702D01*
X116710664Y-73013706D01*
X116595455Y-73099952D01*
X116595452Y-73099955D01*
X116509206Y-73215164D01*
X116509202Y-73215171D01*
X116458908Y-73350017D01*
X116452501Y-73409616D01*
X116452501Y-73409623D01*
X116452500Y-73409635D01*
X108212259Y-73409635D01*
X108218231Y-73398462D01*
X108349850Y-73080705D01*
X108449690Y-72751578D01*
X108516789Y-72414250D01*
X108550500Y-72071969D01*
X108550500Y-71728031D01*
X108516789Y-71385750D01*
X108449690Y-71048422D01*
X108349850Y-70719295D01*
X108218231Y-70401538D01*
X108209988Y-70386117D01*
X108056106Y-70098224D01*
X108056105Y-70098222D01*
X108056100Y-70098213D01*
X107865019Y-69812240D01*
X107646828Y-69546373D01*
X107646827Y-69546372D01*
X107646823Y-69546367D01*
X107403632Y-69303176D01*
X107137765Y-69084985D01*
X107137764Y-69084984D01*
X107137760Y-69084981D01*
X106851787Y-68893900D01*
X106851782Y-68893897D01*
X106851775Y-68893893D01*
X106548469Y-68731772D01*
X106548464Y-68731770D01*
X106510261Y-68715946D01*
X106298825Y-68628366D01*
X106230710Y-68600151D01*
X105957043Y-68517135D01*
X129574500Y-68517135D01*
X129574500Y-70312870D01*
X129574501Y-70312876D01*
X129580908Y-70372483D01*
X129631202Y-70507328D01*
X129631206Y-70507335D01*
X129717452Y-70622544D01*
X129717455Y-70622547D01*
X129832664Y-70708793D01*
X129832671Y-70708797D01*
X129860813Y-70719293D01*
X129967517Y-70759091D01*
X130027127Y-70765500D01*
X130050497Y-70765499D01*
X130117536Y-70785181D01*
X130163292Y-70837983D01*
X130174500Y-70889499D01*
X130174500Y-72448918D01*
X130174500Y-72448920D01*
X130174499Y-72448920D01*
X130203340Y-72593907D01*
X130203343Y-72593917D01*
X130259913Y-72730490D01*
X130259914Y-72730491D01*
X130259916Y-72730495D01*
X130283973Y-72766498D01*
X130283975Y-72766501D01*
X130283976Y-72766503D01*
X130342049Y-72853417D01*
X131071586Y-73582954D01*
X131090536Y-73595615D01*
X131127852Y-73620548D01*
X131194505Y-73665084D01*
X131251080Y-73688518D01*
X131331088Y-73721659D01*
X131447241Y-73744763D01*
X131466468Y-73748587D01*
X131476081Y-73750500D01*
X131476082Y-73750500D01*
X131476083Y-73750500D01*
X131623918Y-73750500D01*
X143275500Y-73750500D01*
X143342539Y-73770185D01*
X143388294Y-73822989D01*
X143399500Y-73874500D01*
X143399500Y-81967059D01*
X143379815Y-82034098D01*
X143363181Y-82054740D01*
X143278213Y-82139707D01*
X143278210Y-82139711D01*
X143190609Y-82270814D01*
X143190602Y-82270827D01*
X143130264Y-82416498D01*
X143130261Y-82416510D01*
X143099500Y-82571153D01*
X143099500Y-82728846D01*
X143130261Y-82883489D01*
X143130263Y-82883497D01*
X143140061Y-82907151D01*
X143149500Y-82954604D01*
X143149500Y-83487770D01*
X143129815Y-83554809D01*
X143113181Y-83575451D01*
X138517048Y-88171583D01*
X138497784Y-88200415D01*
X138478647Y-88229057D01*
X138434919Y-88294499D01*
X138434912Y-88294511D01*
X138378343Y-88431082D01*
X138378340Y-88431092D01*
X138349500Y-88576079D01*
X138349500Y-88576082D01*
X138349500Y-93373918D01*
X138349500Y-93373920D01*
X138349499Y-93373920D01*
X138378340Y-93518907D01*
X138378343Y-93518917D01*
X138434913Y-93655489D01*
X138434914Y-93655491D01*
X138434916Y-93655495D01*
X138447559Y-93674417D01*
X138447617Y-93674503D01*
X138447616Y-93674503D01*
X138517046Y-93778414D01*
X138517052Y-93778421D01*
X139417049Y-94678416D01*
X139488367Y-94749734D01*
X139521585Y-94782952D01*
X139644498Y-94865080D01*
X139644511Y-94865087D01*
X139781082Y-94921656D01*
X139781087Y-94921658D01*
X139781091Y-94921658D01*
X139781092Y-94921659D01*
X139926079Y-94950500D01*
X139926082Y-94950500D01*
X153523920Y-94950500D01*
X153632797Y-94928842D01*
X153668913Y-94921658D01*
X153805495Y-94865084D01*
X153854729Y-94832186D01*
X153928416Y-94782952D01*
X154074549Y-94636819D01*
X154135872Y-94603334D01*
X154162230Y-94600500D01*
X155687770Y-94600500D01*
X155754809Y-94620185D01*
X155775451Y-94636819D01*
X156467049Y-95328416D01*
X156571584Y-95432951D01*
X156571585Y-95432952D01*
X156694498Y-95515080D01*
X156694511Y-95515087D01*
X156727227Y-95528638D01*
X156733142Y-95531088D01*
X156831088Y-95571659D01*
X156947241Y-95594763D01*
X156971689Y-95599626D01*
X156976081Y-95600500D01*
X156976082Y-95600500D01*
X156976083Y-95600500D01*
X157123918Y-95600500D01*
X178945396Y-95600500D01*
X178992844Y-95609937D01*
X179016503Y-95619737D01*
X179016508Y-95619738D01*
X179016511Y-95619739D01*
X179171153Y-95650499D01*
X179171156Y-95650500D01*
X179171158Y-95650500D01*
X179328844Y-95650500D01*
X179328845Y-95650499D01*
X179405152Y-95635320D01*
X179483488Y-95619739D01*
X179483489Y-95619738D01*
X179483497Y-95619737D01*
X179507155Y-95609937D01*
X179554604Y-95600500D01*
X184445396Y-95600500D01*
X184492844Y-95609937D01*
X184516503Y-95619737D01*
X184516508Y-95619738D01*
X184516511Y-95619739D01*
X184671153Y-95650499D01*
X184671156Y-95650500D01*
X184671158Y-95650500D01*
X184828844Y-95650500D01*
X184828845Y-95650499D01*
X184905152Y-95635320D01*
X184983488Y-95619739D01*
X184983489Y-95619738D01*
X184983497Y-95619737D01*
X185007155Y-95609937D01*
X185054604Y-95600500D01*
X190445396Y-95600500D01*
X190492844Y-95609937D01*
X190516503Y-95619737D01*
X190516508Y-95619738D01*
X190516511Y-95619739D01*
X190671153Y-95650499D01*
X190671156Y-95650500D01*
X190671158Y-95650500D01*
X190828844Y-95650500D01*
X190828845Y-95650499D01*
X190905152Y-95635320D01*
X190983488Y-95619739D01*
X190983489Y-95619738D01*
X190983497Y-95619737D01*
X191007155Y-95609937D01*
X191054604Y-95600500D01*
X196245396Y-95600500D01*
X196292844Y-95609937D01*
X196316503Y-95619737D01*
X196316508Y-95619738D01*
X196316511Y-95619739D01*
X196471153Y-95650499D01*
X196471156Y-95650500D01*
X196471158Y-95650500D01*
X196628844Y-95650500D01*
X196628845Y-95650499D01*
X196783497Y-95619737D01*
X196929179Y-95559394D01*
X197060289Y-95471789D01*
X197171789Y-95360289D01*
X197259394Y-95229179D01*
X197319737Y-95083497D01*
X197350500Y-94928842D01*
X197350500Y-94771158D01*
X197350500Y-94771155D01*
X197350499Y-94771153D01*
X197346238Y-94749734D01*
X197319737Y-94616503D01*
X197314282Y-94603334D01*
X197259397Y-94470827D01*
X197259390Y-94470814D01*
X197171789Y-94339711D01*
X197171786Y-94339707D01*
X197060292Y-94228213D01*
X197060288Y-94228210D01*
X196929185Y-94140609D01*
X196929172Y-94140602D01*
X196783501Y-94080264D01*
X196783489Y-94080261D01*
X196628845Y-94049500D01*
X196628842Y-94049500D01*
X196471158Y-94049500D01*
X196471155Y-94049500D01*
X196316511Y-94080260D01*
X196316506Y-94080262D01*
X196316504Y-94080262D01*
X196316503Y-94080263D01*
X196292844Y-94090062D01*
X196245396Y-94099500D01*
X191054604Y-94099500D01*
X191007155Y-94090062D01*
X190983497Y-94080263D01*
X190983493Y-94080262D01*
X190983488Y-94080260D01*
X190828845Y-94049500D01*
X190828842Y-94049500D01*
X190671158Y-94049500D01*
X190671155Y-94049500D01*
X190516511Y-94080260D01*
X190516506Y-94080262D01*
X190516504Y-94080262D01*
X190516503Y-94080263D01*
X190492844Y-94090062D01*
X190445396Y-94099500D01*
X185054604Y-94099500D01*
X185007155Y-94090062D01*
X184983497Y-94080263D01*
X184983493Y-94080262D01*
X184983488Y-94080260D01*
X184828845Y-94049500D01*
X184828842Y-94049500D01*
X184671158Y-94049500D01*
X184671155Y-94049500D01*
X184516511Y-94080260D01*
X184516506Y-94080262D01*
X184516504Y-94080262D01*
X184516503Y-94080263D01*
X184492844Y-94090062D01*
X184445396Y-94099500D01*
X179554604Y-94099500D01*
X179507155Y-94090062D01*
X179483497Y-94080263D01*
X179483493Y-94080262D01*
X179483488Y-94080260D01*
X179328845Y-94049500D01*
X179328842Y-94049500D01*
X179171158Y-94049500D01*
X179171155Y-94049500D01*
X179016511Y-94080260D01*
X179016506Y-94080262D01*
X179016504Y-94080262D01*
X179016503Y-94080263D01*
X178992844Y-94090062D01*
X178945396Y-94099500D01*
X157412229Y-94099500D01*
X157345190Y-94079815D01*
X157324548Y-94063181D01*
X156528421Y-93267052D01*
X156528414Y-93267046D01*
X156428818Y-93200499D01*
X156428817Y-93200499D01*
X156405495Y-93184916D01*
X156405488Y-93184912D01*
X156268917Y-93128343D01*
X156268907Y-93128340D01*
X156123920Y-93099500D01*
X156123918Y-93099500D01*
X154104604Y-93099500D01*
X154057155Y-93090062D01*
X154033497Y-93080263D01*
X154033493Y-93080262D01*
X154033488Y-93080260D01*
X153878845Y-93049500D01*
X153878842Y-93049500D01*
X153721158Y-93049500D01*
X153721155Y-93049500D01*
X153566510Y-93080261D01*
X153566498Y-93080264D01*
X153420827Y-93140602D01*
X153420814Y-93140609D01*
X153289711Y-93228210D01*
X153289707Y-93228213D01*
X153178213Y-93339707D01*
X153178207Y-93339715D01*
X153141675Y-93394390D01*
X153088063Y-93439196D01*
X153038573Y-93449500D01*
X148749097Y-93449500D01*
X148682058Y-93429815D01*
X148636303Y-93377011D01*
X148626359Y-93307853D01*
X148655384Y-93244297D01*
X148661416Y-93237819D01*
X148849734Y-93049500D01*
X149008506Y-92890727D01*
X149008511Y-92890724D01*
X149018714Y-92880520D01*
X149018716Y-92880520D01*
X149130520Y-92768716D01*
X149182284Y-92679057D01*
X149209577Y-92631785D01*
X149250501Y-92479057D01*
X149250501Y-92320943D01*
X149250501Y-92313348D01*
X149250500Y-92313330D01*
X149250500Y-91000097D01*
X149270185Y-90933058D01*
X149286819Y-90912416D01*
X149512416Y-90686819D01*
X149573739Y-90653334D01*
X149600097Y-90650500D01*
X195965234Y-90650500D01*
X196032273Y-90670185D01*
X196034125Y-90671398D01*
X196165814Y-90759390D01*
X196165827Y-90759397D01*
X196311498Y-90819735D01*
X196311503Y-90819737D01*
X196466153Y-90850499D01*
X196466156Y-90850500D01*
X196466158Y-90850500D01*
X196623844Y-90850500D01*
X196623845Y-90850499D01*
X196778497Y-90819737D01*
X196924179Y-90759394D01*
X197055289Y-90671789D01*
X197166789Y-90560289D01*
X197254394Y-90429179D01*
X197314737Y-90283497D01*
X197345500Y-90128842D01*
X197345500Y-89971158D01*
X197345500Y-89971155D01*
X197345499Y-89971153D01*
X197314737Y-89816503D01*
X197294736Y-89768215D01*
X197254397Y-89670827D01*
X197254390Y-89670814D01*
X197166789Y-89539711D01*
X197166786Y-89539707D01*
X197055292Y-89428213D01*
X197055288Y-89428210D01*
X196924185Y-89340609D01*
X196924172Y-89340602D01*
X196778501Y-89280264D01*
X196778489Y-89280261D01*
X196623845Y-89249500D01*
X196623842Y-89249500D01*
X196466158Y-89249500D01*
X196466155Y-89249500D01*
X196311510Y-89280261D01*
X196311498Y-89280264D01*
X196165827Y-89340602D01*
X196165814Y-89340609D01*
X196034125Y-89428602D01*
X195967447Y-89449480D01*
X195965234Y-89449500D01*
X191719500Y-89449500D01*
X191652461Y-89429815D01*
X191606706Y-89377011D01*
X191595500Y-89325500D01*
X191595500Y-89271155D01*
X191595499Y-89271153D01*
X191585512Y-89220945D01*
X191564737Y-89116503D01*
X191521546Y-89012229D01*
X191504397Y-88970827D01*
X191504390Y-88970814D01*
X191416789Y-88839711D01*
X191416786Y-88839707D01*
X191305292Y-88728213D01*
X191305288Y-88728210D01*
X191174185Y-88640609D01*
X191174172Y-88640602D01*
X191028501Y-88580264D01*
X191028489Y-88580261D01*
X190873845Y-88549500D01*
X190873842Y-88549500D01*
X190716158Y-88549500D01*
X190716155Y-88549500D01*
X190561510Y-88580261D01*
X190561498Y-88580264D01*
X190415827Y-88640602D01*
X190415814Y-88640609D01*
X190284125Y-88728602D01*
X190217447Y-88749480D01*
X190215234Y-88749500D01*
X185667848Y-88749500D01*
X185600809Y-88729815D01*
X185555054Y-88677011D01*
X185546231Y-88649692D01*
X185519738Y-88516508D01*
X185519737Y-88516507D01*
X185519737Y-88516503D01*
X185484355Y-88431082D01*
X185459397Y-88370827D01*
X185459390Y-88370814D01*
X185371789Y-88239711D01*
X185371786Y-88239707D01*
X185260292Y-88128213D01*
X185260288Y-88128210D01*
X185129185Y-88040609D01*
X185129172Y-88040602D01*
X184983501Y-87980264D01*
X184983489Y-87980261D01*
X184828845Y-87949500D01*
X184828842Y-87949500D01*
X184671158Y-87949500D01*
X184671155Y-87949500D01*
X184516510Y-87980261D01*
X184516498Y-87980264D01*
X184370827Y-88040602D01*
X184370814Y-88040609D01*
X184239125Y-88128602D01*
X184221996Y-88133965D01*
X184207052Y-88143908D01*
X184174407Y-88148866D01*
X184172447Y-88149480D01*
X184172202Y-88149484D01*
X184171194Y-88149500D01*
X184122942Y-88149500D01*
X184119904Y-88150313D01*
X184109188Y-88150484D01*
X184108857Y-88150392D01*
X184107220Y-88150500D01*
X180188046Y-88150500D01*
X180121007Y-88130815D01*
X180075252Y-88078011D01*
X180066429Y-88050691D01*
X180048447Y-87960292D01*
X180039737Y-87916503D01*
X180003569Y-87829185D01*
X179979397Y-87770827D01*
X179979390Y-87770814D01*
X179891789Y-87639711D01*
X179891786Y-87639707D01*
X179780292Y-87528213D01*
X179780288Y-87528210D01*
X179649185Y-87440609D01*
X179649172Y-87440602D01*
X179503501Y-87380264D01*
X179503489Y-87380261D01*
X179348845Y-87349500D01*
X179348842Y-87349500D01*
X179191158Y-87349500D01*
X179191155Y-87349500D01*
X179036510Y-87380261D01*
X179036498Y-87380264D01*
X178890827Y-87440602D01*
X178890814Y-87440609D01*
X178759125Y-87528602D01*
X178692447Y-87549480D01*
X178690234Y-87549500D01*
X169049097Y-87549500D01*
X168982058Y-87529815D01*
X168936303Y-87477011D01*
X168926359Y-87407853D01*
X168955384Y-87344297D01*
X168961416Y-87337819D01*
X171162416Y-85136818D01*
X171223739Y-85103333D01*
X171250097Y-85100499D01*
X171647871Y-85100499D01*
X171647872Y-85100499D01*
X171695721Y-85095355D01*
X171707475Y-85094092D01*
X171707476Y-85094091D01*
X171707483Y-85094091D01*
X171707489Y-85094088D01*
X171708478Y-85093855D01*
X171710536Y-85093762D01*
X171715197Y-85093262D01*
X171715228Y-85093553D01*
X171754651Y-85091791D01*
X171850000Y-85105500D01*
X171850003Y-85105500D01*
X172465819Y-85105500D01*
X172465826Y-85105500D01*
X172596662Y-85088275D01*
X172723829Y-85054200D01*
X172845743Y-85003701D01*
X172959757Y-84937875D01*
X173064449Y-84857541D01*
X173157541Y-84764449D01*
X173237875Y-84659757D01*
X173237883Y-84659742D01*
X173240128Y-84656384D01*
X173241649Y-84657400D01*
X173244971Y-84654231D01*
X173249965Y-84643297D01*
X173269781Y-84630561D01*
X173286827Y-84614300D01*
X173300098Y-84611078D01*
X173308743Y-84605523D01*
X173343678Y-84600500D01*
X173580068Y-84600500D01*
X173627520Y-84609939D01*
X173709206Y-84643774D01*
X173709211Y-84643776D01*
X173709215Y-84643776D01*
X173709216Y-84643777D01*
X173868692Y-84675500D01*
X173868695Y-84675500D01*
X174031307Y-84675500D01*
X174170197Y-84647872D01*
X174190789Y-84643776D01*
X174341021Y-84581548D01*
X174341023Y-84581547D01*
X174430457Y-84521789D01*
X174476225Y-84491208D01*
X174591208Y-84376225D01*
X174656052Y-84279179D01*
X174681547Y-84241023D01*
X174681549Y-84241019D01*
X174743774Y-84090793D01*
X174743776Y-84090789D01*
X174765554Y-83981305D01*
X174775500Y-83931307D01*
X174775500Y-83768692D01*
X174743777Y-83609216D01*
X174743776Y-83609215D01*
X174743776Y-83609211D01*
X174721242Y-83554809D01*
X174681549Y-83458980D01*
X174681547Y-83458976D01*
X174591211Y-83323779D01*
X174591205Y-83323771D01*
X174476228Y-83208794D01*
X174476220Y-83208788D01*
X174341023Y-83118452D01*
X174341019Y-83118450D01*
X174190793Y-83056225D01*
X174190783Y-83056222D01*
X174031307Y-83024500D01*
X174031305Y-83024500D01*
X173868695Y-83024500D01*
X173868693Y-83024500D01*
X173709216Y-83056222D01*
X173709206Y-83056225D01*
X173627520Y-83090061D01*
X173619343Y-83091687D01*
X173615003Y-83094477D01*
X173580068Y-83099500D01*
X173343678Y-83099500D01*
X173276639Y-83079815D01*
X173241352Y-83042798D01*
X173240128Y-83043616D01*
X173237879Y-83040250D01*
X173237875Y-83040243D01*
X173226562Y-83025500D01*
X173157544Y-82935555D01*
X173157541Y-82935551D01*
X173064449Y-82842459D01*
X173064444Y-82842455D01*
X172959767Y-82762132D01*
X172959749Y-82762120D01*
X172845751Y-82696303D01*
X172845750Y-82696302D01*
X172723829Y-82645800D01*
X172623465Y-82618907D01*
X172596662Y-82611725D01*
X172596661Y-82611724D01*
X172596658Y-82611724D01*
X172465833Y-82594500D01*
X172465826Y-82594500D01*
X171850000Y-82594500D01*
X171849997Y-82594500D01*
X171778057Y-82599645D01*
X171766267Y-82603107D01*
X171715439Y-82604468D01*
X171715196Y-82606738D01*
X171647883Y-82599501D01*
X171647881Y-82599500D01*
X171647873Y-82599500D01*
X171647864Y-82599500D01*
X170552129Y-82599500D01*
X170552123Y-82599501D01*
X170492516Y-82605908D01*
X170357671Y-82656202D01*
X170357664Y-82656206D01*
X170242455Y-82742452D01*
X170242452Y-82742455D01*
X170156206Y-82857664D01*
X170156202Y-82857671D01*
X170105908Y-82992517D01*
X170099501Y-83052116D01*
X170099500Y-83052135D01*
X170099500Y-84449902D01*
X170079815Y-84516941D01*
X170063181Y-84537583D01*
X167787584Y-86813181D01*
X167726261Y-86846666D01*
X167699903Y-86849500D01*
X164849097Y-86849500D01*
X164782058Y-86829815D01*
X164736303Y-86777011D01*
X164726359Y-86707853D01*
X164755384Y-86644297D01*
X164761416Y-86637819D01*
X164982736Y-86416498D01*
X165208506Y-86190727D01*
X165208511Y-86190724D01*
X165218714Y-86180520D01*
X165218716Y-86180520D01*
X165330520Y-86068716D01*
X165383466Y-85977011D01*
X165407180Y-85935937D01*
X165407183Y-85935932D01*
X165409575Y-85931788D01*
X165409577Y-85931785D01*
X165450501Y-85779057D01*
X165450501Y-85620943D01*
X165450501Y-85613348D01*
X165450500Y-85613330D01*
X165450500Y-85227108D01*
X165470185Y-85160069D01*
X165522989Y-85114314D01*
X165592143Y-85104370D01*
X165600000Y-85105500D01*
X165600003Y-85105500D01*
X166215819Y-85105500D01*
X166215826Y-85105500D01*
X166346662Y-85088275D01*
X166473829Y-85054200D01*
X166595743Y-85003701D01*
X166709757Y-84937875D01*
X166814449Y-84857541D01*
X166907541Y-84764449D01*
X166957754Y-84699010D01*
X167014179Y-84657811D01*
X167056127Y-84650500D01*
X167630068Y-84650500D01*
X167677520Y-84659939D01*
X167742415Y-84686819D01*
X167759211Y-84693776D01*
X167759215Y-84693776D01*
X167759216Y-84693777D01*
X167918692Y-84725500D01*
X167918695Y-84725500D01*
X168081307Y-84725500D01*
X168214461Y-84699013D01*
X168240789Y-84693776D01*
X168361505Y-84643774D01*
X168391019Y-84631549D01*
X168391023Y-84631547D01*
X168465853Y-84581547D01*
X168526225Y-84541208D01*
X168641208Y-84426225D01*
X168731548Y-84291021D01*
X168793776Y-84140789D01*
X168825500Y-83981305D01*
X168825500Y-83818695D01*
X168825500Y-83818692D01*
X168793777Y-83659216D01*
X168793776Y-83659215D01*
X168793776Y-83659211D01*
X168793774Y-83659206D01*
X168731549Y-83508980D01*
X168731547Y-83508976D01*
X168641211Y-83373779D01*
X168641205Y-83373771D01*
X168526228Y-83258794D01*
X168526220Y-83258788D01*
X168391023Y-83168452D01*
X168391019Y-83168450D01*
X168240793Y-83106225D01*
X168240783Y-83106222D01*
X168081307Y-83074500D01*
X168081305Y-83074500D01*
X167918695Y-83074500D01*
X167918693Y-83074500D01*
X167759216Y-83106222D01*
X167759206Y-83106225D01*
X167677520Y-83140061D01*
X167630068Y-83149500D01*
X167122546Y-83149500D01*
X167055507Y-83129815D01*
X167015159Y-83087500D01*
X166987879Y-83040250D01*
X166987875Y-83040243D01*
X166976562Y-83025500D01*
X166907544Y-82935555D01*
X166907541Y-82935551D01*
X166814449Y-82842459D01*
X166814444Y-82842455D01*
X166709767Y-82762132D01*
X166709749Y-82762120D01*
X166595751Y-82696303D01*
X166595750Y-82696302D01*
X166473829Y-82645800D01*
X166373465Y-82618907D01*
X166346662Y-82611725D01*
X166346661Y-82611724D01*
X166346658Y-82611724D01*
X166215833Y-82594500D01*
X166215826Y-82594500D01*
X165600000Y-82594500D01*
X165599997Y-82594500D01*
X165528057Y-82599645D01*
X165516267Y-82603107D01*
X165465439Y-82604468D01*
X165465196Y-82606738D01*
X165397883Y-82599501D01*
X165397881Y-82599500D01*
X165397873Y-82599500D01*
X165397864Y-82599500D01*
X164302129Y-82599500D01*
X164302123Y-82599501D01*
X164242516Y-82605908D01*
X164107671Y-82656202D01*
X164107664Y-82656206D01*
X163992455Y-82742452D01*
X163992452Y-82742455D01*
X163906206Y-82857664D01*
X163906202Y-82857671D01*
X163855908Y-82992517D01*
X163849501Y-83052116D01*
X163849500Y-83052135D01*
X163849500Y-84647870D01*
X163849501Y-84647876D01*
X163855908Y-84707483D01*
X163906202Y-84842328D01*
X163906206Y-84842335D01*
X163992452Y-84957544D01*
X163992455Y-84957547D01*
X164107664Y-85043793D01*
X164107669Y-85043796D01*
X164168833Y-85066608D01*
X164186558Y-85079877D01*
X164206703Y-85089077D01*
X164213984Y-85100407D01*
X164224766Y-85108478D01*
X164232504Y-85129226D01*
X164244477Y-85147855D01*
X164247628Y-85169770D01*
X164249184Y-85173942D01*
X164249500Y-85182790D01*
X164249500Y-85399903D01*
X164229815Y-85466942D01*
X164213181Y-85487584D01*
X163687584Y-86013181D01*
X163626261Y-86046666D01*
X163599903Y-86049500D01*
X159190919Y-86049500D01*
X159123880Y-86029815D01*
X159078125Y-85977011D01*
X159068181Y-85907853D01*
X159083531Y-85863501D01*
X159132284Y-85779057D01*
X159159577Y-85731784D01*
X159200501Y-85579057D01*
X159200501Y-85420942D01*
X159200501Y-85413347D01*
X159200500Y-85413329D01*
X159200500Y-85227108D01*
X159220185Y-85160069D01*
X159272989Y-85114314D01*
X159342143Y-85104370D01*
X159350000Y-85105500D01*
X159350003Y-85105500D01*
X159965819Y-85105500D01*
X159965826Y-85105500D01*
X160096662Y-85088275D01*
X160223829Y-85054200D01*
X160345743Y-85003701D01*
X160459757Y-84937875D01*
X160564449Y-84857541D01*
X160657541Y-84764449D01*
X160707754Y-84699010D01*
X160764179Y-84657811D01*
X160806127Y-84650500D01*
X161430068Y-84650500D01*
X161477520Y-84659939D01*
X161542415Y-84686819D01*
X161559211Y-84693776D01*
X161559215Y-84693776D01*
X161559216Y-84693777D01*
X161718692Y-84725500D01*
X161718695Y-84725500D01*
X161881307Y-84725500D01*
X162014461Y-84699013D01*
X162040789Y-84693776D01*
X162161505Y-84643774D01*
X162191019Y-84631549D01*
X162191023Y-84631547D01*
X162265853Y-84581547D01*
X162326225Y-84541208D01*
X162441208Y-84426225D01*
X162531548Y-84291021D01*
X162593776Y-84140789D01*
X162625500Y-83981305D01*
X162625500Y-83818695D01*
X162625500Y-83818692D01*
X162593777Y-83659216D01*
X162593776Y-83659215D01*
X162593776Y-83659211D01*
X162593774Y-83659206D01*
X162531549Y-83508980D01*
X162531547Y-83508976D01*
X162441211Y-83373779D01*
X162441205Y-83373771D01*
X162326228Y-83258794D01*
X162326220Y-83258788D01*
X162191023Y-83168452D01*
X162191019Y-83168450D01*
X162040793Y-83106225D01*
X162040783Y-83106222D01*
X161881307Y-83074500D01*
X161881305Y-83074500D01*
X161718695Y-83074500D01*
X161718693Y-83074500D01*
X161559216Y-83106222D01*
X161559206Y-83106225D01*
X161477520Y-83140061D01*
X161430068Y-83149500D01*
X160872546Y-83149500D01*
X160805507Y-83129815D01*
X160765159Y-83087500D01*
X160737879Y-83040250D01*
X160737875Y-83040243D01*
X160726562Y-83025500D01*
X160657544Y-82935555D01*
X160657541Y-82935551D01*
X160564449Y-82842459D01*
X160564444Y-82842455D01*
X160459767Y-82762132D01*
X160459749Y-82762120D01*
X160345751Y-82696303D01*
X160345750Y-82696302D01*
X160223829Y-82645800D01*
X160123465Y-82618907D01*
X160096662Y-82611725D01*
X160096661Y-82611724D01*
X160096658Y-82611724D01*
X159965833Y-82594500D01*
X159965826Y-82594500D01*
X159350000Y-82594500D01*
X159349997Y-82594500D01*
X159278057Y-82599645D01*
X159266267Y-82603107D01*
X159215439Y-82604468D01*
X159215196Y-82606738D01*
X159147883Y-82599501D01*
X159147881Y-82599500D01*
X159147873Y-82599500D01*
X159147864Y-82599500D01*
X158052129Y-82599500D01*
X158052123Y-82599501D01*
X157992516Y-82605908D01*
X157857671Y-82656202D01*
X157857664Y-82656206D01*
X157742455Y-82742452D01*
X157742452Y-82742455D01*
X157656206Y-82857664D01*
X157656202Y-82857671D01*
X157605908Y-82992517D01*
X157599501Y-83052116D01*
X157599500Y-83052135D01*
X157599500Y-84647870D01*
X157599501Y-84647876D01*
X157605908Y-84707483D01*
X157656202Y-84842328D01*
X157656206Y-84842335D01*
X157742452Y-84957544D01*
X157742455Y-84957547D01*
X157857664Y-85043793D01*
X157857669Y-85043796D01*
X157918833Y-85066608D01*
X157936558Y-85079877D01*
X157956703Y-85089077D01*
X157963984Y-85100407D01*
X157974766Y-85108478D01*
X157982504Y-85129226D01*
X157994477Y-85147855D01*
X157997628Y-85169770D01*
X157999184Y-85173942D01*
X157999500Y-85182790D01*
X157999500Y-85199901D01*
X157979815Y-85266940D01*
X157963182Y-85287582D01*
X157887584Y-85363181D01*
X157826261Y-85396666D01*
X157799902Y-85399500D01*
X148229766Y-85399500D01*
X148162727Y-85379815D01*
X148160875Y-85378602D01*
X148029185Y-85290609D01*
X148029172Y-85290602D01*
X147883501Y-85230264D01*
X147883489Y-85230261D01*
X147728845Y-85199500D01*
X147728842Y-85199500D01*
X147571158Y-85199500D01*
X147571155Y-85199500D01*
X147416510Y-85230261D01*
X147416498Y-85230264D01*
X147270827Y-85290602D01*
X147270814Y-85290609D01*
X147139711Y-85378210D01*
X147139707Y-85378213D01*
X147028213Y-85489707D01*
X147028210Y-85489711D01*
X146940609Y-85620814D01*
X146940602Y-85620827D01*
X146880264Y-85766498D01*
X146880261Y-85766507D01*
X146866243Y-85836981D01*
X146833857Y-85898891D01*
X146773141Y-85933465D01*
X146703372Y-85929724D01*
X146697174Y-85927349D01*
X146583501Y-85880264D01*
X146583489Y-85880261D01*
X146428845Y-85849500D01*
X146428842Y-85849500D01*
X146271158Y-85849500D01*
X146271155Y-85849500D01*
X146116510Y-85880261D01*
X146116498Y-85880264D01*
X145970827Y-85940602D01*
X145970814Y-85940609D01*
X145839711Y-86028210D01*
X145839707Y-86028213D01*
X145728213Y-86139707D01*
X145728210Y-86139711D01*
X145640609Y-86270814D01*
X145640602Y-86270827D01*
X145580264Y-86416498D01*
X145580261Y-86416510D01*
X145549500Y-86571153D01*
X145549500Y-86604865D01*
X145529815Y-86671904D01*
X145477011Y-86717659D01*
X145407853Y-86727603D01*
X145378048Y-86719427D01*
X145373780Y-86717659D01*
X145283497Y-86680263D01*
X145283494Y-86680262D01*
X145283491Y-86680261D01*
X145128845Y-86649500D01*
X145128842Y-86649500D01*
X144971158Y-86649500D01*
X144971155Y-86649500D01*
X144816510Y-86680261D01*
X144816498Y-86680264D01*
X144670827Y-86740602D01*
X144670814Y-86740609D01*
X144539711Y-86828210D01*
X144539707Y-86828213D01*
X144428213Y-86939707D01*
X144428210Y-86939711D01*
X144340609Y-87070814D01*
X144340602Y-87070827D01*
X144280264Y-87216498D01*
X144280261Y-87216510D01*
X144249500Y-87371153D01*
X144249500Y-87528846D01*
X144280261Y-87683489D01*
X144280264Y-87683501D01*
X144340602Y-87829172D01*
X144340609Y-87829185D01*
X144428210Y-87960288D01*
X144428213Y-87960292D01*
X144539707Y-88071786D01*
X144539711Y-88071789D01*
X144670814Y-88159390D01*
X144670827Y-88159397D01*
X144816498Y-88219735D01*
X144816503Y-88219737D01*
X144971153Y-88250499D01*
X144971156Y-88250500D01*
X145050901Y-88250500D01*
X145117940Y-88270185D01*
X145163695Y-88322989D01*
X145173639Y-88392147D01*
X145144614Y-88455703D01*
X145138582Y-88462181D01*
X144784778Y-88815985D01*
X144784772Y-88815991D01*
X144781286Y-88819478D01*
X144781284Y-88819480D01*
X144669480Y-88931284D01*
X144639335Y-88983497D01*
X144633676Y-88993298D01*
X144633674Y-88993301D01*
X144590424Y-89068213D01*
X144590423Y-89068215D01*
X144549499Y-89220943D01*
X144549499Y-89220945D01*
X144549499Y-89389046D01*
X144549500Y-89389059D01*
X144549500Y-91220234D01*
X144529815Y-91287273D01*
X144528602Y-91289125D01*
X144440609Y-91420814D01*
X144440602Y-91420827D01*
X144380264Y-91566498D01*
X144380261Y-91566510D01*
X144349500Y-91721153D01*
X144349500Y-91878846D01*
X144380261Y-92033489D01*
X144380264Y-92033501D01*
X144440602Y-92179172D01*
X144440609Y-92179185D01*
X144528210Y-92310288D01*
X144528213Y-92310292D01*
X144639707Y-92421786D01*
X144639711Y-92421789D01*
X144770814Y-92509390D01*
X144770821Y-92509394D01*
X144774549Y-92510938D01*
X144828953Y-92554778D01*
X144851019Y-92621072D01*
X144833741Y-92688771D01*
X144782605Y-92736383D01*
X144727098Y-92749500D01*
X141100097Y-92749500D01*
X141033058Y-92729815D01*
X141012416Y-92713181D01*
X140738834Y-92439599D01*
X140705349Y-92378276D01*
X140710333Y-92308584D01*
X140723410Y-92283032D01*
X140759394Y-92229179D01*
X140819737Y-92083497D01*
X140850500Y-91928842D01*
X140850500Y-91771158D01*
X140850500Y-91771155D01*
X140850499Y-91771153D01*
X140819738Y-91616510D01*
X140819737Y-91616503D01*
X140819735Y-91616498D01*
X140759397Y-91470827D01*
X140759390Y-91470814D01*
X140671789Y-91339711D01*
X140671786Y-91339707D01*
X140560292Y-91228213D01*
X140560288Y-91228210D01*
X140429185Y-91140609D01*
X140429172Y-91140602D01*
X140283501Y-91080264D01*
X140283489Y-91080261D01*
X140128845Y-91049500D01*
X140128842Y-91049500D01*
X139974500Y-91049500D01*
X139907461Y-91029815D01*
X139861706Y-90977011D01*
X139850500Y-90925500D01*
X139850500Y-89012229D01*
X139870185Y-88945190D01*
X139886819Y-88924548D01*
X144124548Y-84686819D01*
X144185871Y-84653334D01*
X144212229Y-84650500D01*
X151695396Y-84650500D01*
X151742844Y-84659937D01*
X151766503Y-84669737D01*
X151766508Y-84669738D01*
X151766511Y-84669739D01*
X151921153Y-84700499D01*
X151921156Y-84700500D01*
X151921158Y-84700500D01*
X152078844Y-84700500D01*
X152078845Y-84700499D01*
X152233497Y-84669737D01*
X152367335Y-84614300D01*
X152379172Y-84609397D01*
X152379172Y-84609396D01*
X152379179Y-84609394D01*
X152510289Y-84521789D01*
X152621789Y-84410289D01*
X152709394Y-84279179D01*
X152769737Y-84133497D01*
X152800500Y-83978842D01*
X152800500Y-83821158D01*
X152800500Y-83821155D01*
X152800499Y-83821153D01*
X152769738Y-83666510D01*
X152769737Y-83666503D01*
X152746004Y-83609206D01*
X152709397Y-83520827D01*
X152709390Y-83520814D01*
X152621789Y-83389711D01*
X152621786Y-83389707D01*
X152510292Y-83278213D01*
X152510288Y-83278210D01*
X152379185Y-83190609D01*
X152379172Y-83190602D01*
X152233501Y-83130264D01*
X152233489Y-83130261D01*
X152078845Y-83099500D01*
X152078842Y-83099500D01*
X151921158Y-83099500D01*
X151921155Y-83099500D01*
X151766511Y-83130260D01*
X151766506Y-83130262D01*
X151766504Y-83130262D01*
X151766503Y-83130263D01*
X151742844Y-83140062D01*
X151695396Y-83149500D01*
X144774500Y-83149500D01*
X144765814Y-83146949D01*
X144756853Y-83148238D01*
X144732812Y-83137259D01*
X144707461Y-83129815D01*
X144701533Y-83122974D01*
X144693297Y-83119213D01*
X144679007Y-83096978D01*
X144661706Y-83077011D01*
X144659418Y-83066496D01*
X144655523Y-83060435D01*
X144650500Y-83025500D01*
X144650500Y-83012229D01*
X144670185Y-82945190D01*
X144686820Y-82924547D01*
X144732948Y-82878419D01*
X144732951Y-82878416D01*
X144815084Y-82755495D01*
X144871658Y-82618913D01*
X144900500Y-82473918D01*
X144900500Y-82326083D01*
X144900500Y-73874500D01*
X144920185Y-73807461D01*
X144972989Y-73761706D01*
X145024500Y-73750500D01*
X151245396Y-73750500D01*
X151292844Y-73759937D01*
X151316503Y-73769737D01*
X151316508Y-73769738D01*
X151316511Y-73769739D01*
X151471153Y-73800499D01*
X151471156Y-73800500D01*
X151471158Y-73800500D01*
X151628844Y-73800500D01*
X151628845Y-73800499D01*
X151783497Y-73769737D01*
X151929179Y-73709394D01*
X152060289Y-73621789D01*
X152171789Y-73510289D01*
X152259394Y-73379179D01*
X152319737Y-73233497D01*
X152350500Y-73078842D01*
X152350500Y-72921158D01*
X152350500Y-72921155D01*
X152350499Y-72921153D01*
X152319738Y-72766510D01*
X152319737Y-72766503D01*
X152313555Y-72751578D01*
X152259397Y-72620827D01*
X152259390Y-72620814D01*
X152171789Y-72489711D01*
X152171786Y-72489707D01*
X152060292Y-72378213D01*
X152060288Y-72378210D01*
X151929185Y-72290609D01*
X151929172Y-72290602D01*
X151783501Y-72230264D01*
X151783489Y-72230261D01*
X151628845Y-72199500D01*
X151628842Y-72199500D01*
X151471158Y-72199500D01*
X151471155Y-72199500D01*
X151316511Y-72230260D01*
X151316506Y-72230262D01*
X151316504Y-72230262D01*
X151316503Y-72230263D01*
X151292844Y-72240062D01*
X151245396Y-72249500D01*
X144454604Y-72249500D01*
X144407155Y-72240062D01*
X144383497Y-72230263D01*
X144383493Y-72230262D01*
X144383488Y-72230260D01*
X144228845Y-72199500D01*
X144228842Y-72199500D01*
X144071158Y-72199500D01*
X144071155Y-72199500D01*
X143916511Y-72230260D01*
X143916506Y-72230262D01*
X143916504Y-72230262D01*
X143916503Y-72230263D01*
X143892844Y-72240062D01*
X143845396Y-72249500D01*
X131912230Y-72249500D01*
X131882789Y-72240855D01*
X131852803Y-72234332D01*
X131847787Y-72230577D01*
X131845191Y-72229815D01*
X131824549Y-72213181D01*
X131711819Y-72100451D01*
X131678334Y-72039128D01*
X131675500Y-72012770D01*
X131675500Y-70889499D01*
X131695185Y-70822460D01*
X131747989Y-70776705D01*
X131799500Y-70765499D01*
X131822871Y-70765499D01*
X131822872Y-70765499D01*
X131882483Y-70759091D01*
X132017331Y-70708796D01*
X132132546Y-70622546D01*
X132218796Y-70507331D01*
X132267810Y-70375916D01*
X132309681Y-70319984D01*
X132375145Y-70295566D01*
X132443418Y-70310417D01*
X132471673Y-70331569D01*
X132585213Y-70445109D01*
X132757179Y-70570048D01*
X132757181Y-70570049D01*
X132757184Y-70570051D01*
X132946588Y-70666557D01*
X133148757Y-70732246D01*
X133358713Y-70765500D01*
X133358714Y-70765500D01*
X133571286Y-70765500D01*
X133571287Y-70765500D01*
X133781243Y-70732246D01*
X133983412Y-70666557D01*
X134172816Y-70570051D01*
X134259138Y-70507335D01*
X134344786Y-70445109D01*
X134344788Y-70445106D01*
X134344792Y-70445104D01*
X134495104Y-70294792D01*
X134495106Y-70294788D01*
X134495109Y-70294786D01*
X134620048Y-70122820D01*
X134620047Y-70122820D01*
X134620051Y-70122816D01*
X134624514Y-70114054D01*
X134672488Y-70063259D01*
X134740308Y-70046463D01*
X134806444Y-70068999D01*
X134845486Y-70114056D01*
X134849951Y-70122820D01*
X134974890Y-70294786D01*
X135125213Y-70445109D01*
X135297179Y-70570048D01*
X135297181Y-70570049D01*
X135297184Y-70570051D01*
X135486588Y-70666557D01*
X135688757Y-70732246D01*
X135898713Y-70765500D01*
X135898714Y-70765500D01*
X136111286Y-70765500D01*
X136111287Y-70765500D01*
X136321243Y-70732246D01*
X136523412Y-70666557D01*
X136712816Y-70570051D01*
X136799138Y-70507335D01*
X136884786Y-70445109D01*
X136884788Y-70445106D01*
X136884792Y-70445104D01*
X137035104Y-70294792D01*
X137035106Y-70294788D01*
X137035109Y-70294786D01*
X137160048Y-70122820D01*
X137160047Y-70122820D01*
X137160051Y-70122816D01*
X137164514Y-70114054D01*
X137212488Y-70063259D01*
X137280308Y-70046463D01*
X137346444Y-70068999D01*
X137385486Y-70114056D01*
X137389951Y-70122820D01*
X137514890Y-70294786D01*
X137665213Y-70445109D01*
X137837179Y-70570048D01*
X137837181Y-70570049D01*
X137837184Y-70570051D01*
X138026588Y-70666557D01*
X138228757Y-70732246D01*
X138438713Y-70765500D01*
X138438714Y-70765500D01*
X138651286Y-70765500D01*
X138651287Y-70765500D01*
X138861243Y-70732246D01*
X139063412Y-70666557D01*
X139252816Y-70570051D01*
X139339138Y-70507335D01*
X139424786Y-70445109D01*
X139424788Y-70445106D01*
X139424792Y-70445104D01*
X139575104Y-70294792D01*
X139575106Y-70294788D01*
X139575109Y-70294786D01*
X139700048Y-70122820D01*
X139700051Y-70122816D01*
X139704793Y-70113508D01*
X139752763Y-70062711D01*
X139820583Y-70045911D01*
X139886719Y-70068445D01*
X139925763Y-70113500D01*
X139930377Y-70122555D01*
X140055272Y-70294459D01*
X140055276Y-70294464D01*
X140205535Y-70444723D01*
X140205540Y-70444727D01*
X140377442Y-70569620D01*
X140566782Y-70666095D01*
X140768871Y-70731757D01*
X140835000Y-70742231D01*
X140835000Y-69848012D01*
X140892007Y-69880925D01*
X141019174Y-69915000D01*
X141150826Y-69915000D01*
X141277993Y-69880925D01*
X141335000Y-69848012D01*
X141335000Y-70742230D01*
X141401126Y-70731757D01*
X141401129Y-70731757D01*
X141603217Y-70666095D01*
X141792557Y-70569620D01*
X141964459Y-70444727D01*
X141964464Y-70444723D01*
X142114723Y-70294464D01*
X142114727Y-70294459D01*
X142239620Y-70122557D01*
X142336095Y-69933217D01*
X142401757Y-69731129D01*
X142401757Y-69731126D01*
X142412231Y-69665000D01*
X141518012Y-69665000D01*
X141550925Y-69607993D01*
X141585000Y-69480826D01*
X141585000Y-69349174D01*
X141550925Y-69222007D01*
X141518012Y-69165000D01*
X142412231Y-69165000D01*
X142401757Y-69098873D01*
X142401757Y-69098870D01*
X142336095Y-68896782D01*
X142239620Y-68707442D01*
X142114727Y-68535540D01*
X142114723Y-68535535D01*
X141964464Y-68385276D01*
X141964459Y-68385272D01*
X141792557Y-68260379D01*
X141603215Y-68163903D01*
X141401124Y-68098241D01*
X141335000Y-68087768D01*
X141335000Y-68981988D01*
X141277993Y-68949075D01*
X141150826Y-68915000D01*
X141019174Y-68915000D01*
X140892007Y-68949075D01*
X140835000Y-68981988D01*
X140835000Y-68087768D01*
X140834999Y-68087768D01*
X140768875Y-68098241D01*
X140566784Y-68163903D01*
X140377442Y-68260379D01*
X140205540Y-68385272D01*
X140205535Y-68385276D01*
X140055276Y-68535535D01*
X140055272Y-68535540D01*
X139930378Y-68707443D01*
X139925762Y-68716502D01*
X139877784Y-68767295D01*
X139809963Y-68784087D01*
X139743829Y-68761546D01*
X139704794Y-68716493D01*
X139700051Y-68707184D01*
X139700049Y-68707181D01*
X139700048Y-68707179D01*
X139575109Y-68535213D01*
X139424794Y-68384898D01*
X139424788Y-68384893D01*
X139346615Y-68328097D01*
X139343274Y-68323765D01*
X139338297Y-68321492D01*
X139322164Y-68296389D01*
X139303949Y-68272767D01*
X139302696Y-68266095D01*
X139300523Y-68262714D01*
X139295500Y-68227779D01*
X139295500Y-68117229D01*
X139315185Y-68050190D01*
X139331819Y-68029548D01*
X141344787Y-66016580D01*
X144257952Y-63103415D01*
X144285205Y-63062627D01*
X144316624Y-63015605D01*
X144370236Y-62970802D01*
X144419724Y-62960499D01*
X145022871Y-62960499D01*
X145022872Y-62960499D01*
X145082483Y-62954091D01*
X145217331Y-62903796D01*
X145332546Y-62817546D01*
X145418796Y-62702331D01*
X145469091Y-62567483D01*
X145475500Y-62507873D01*
X145475499Y-61041995D01*
X156874500Y-61041995D01*
X156874500Y-61278004D01*
X156874501Y-61278020D01*
X156905306Y-61512010D01*
X156966394Y-61739993D01*
X157056714Y-61958045D01*
X157056719Y-61958056D01*
X157127677Y-62080957D01*
X157174727Y-62162450D01*
X157174729Y-62162453D01*
X157174730Y-62162454D01*
X157318406Y-62349697D01*
X157318412Y-62349704D01*
X157485295Y-62516587D01*
X157485302Y-62516593D01*
X157595306Y-62601001D01*
X157672550Y-62660273D01*
X157745397Y-62702331D01*
X157876943Y-62778280D01*
X157876948Y-62778282D01*
X157876951Y-62778284D01*
X158095007Y-62868606D01*
X158322986Y-62929693D01*
X158556989Y-62960500D01*
X158556996Y-62960500D01*
X158793004Y-62960500D01*
X158793011Y-62960500D01*
X159027014Y-62929693D01*
X159254993Y-62868606D01*
X159473049Y-62778284D01*
X159677450Y-62660273D01*
X159864699Y-62516592D01*
X160031592Y-62349699D01*
X160175273Y-62162450D01*
X160293284Y-61958049D01*
X160383606Y-61739993D01*
X160444693Y-61512014D01*
X160475500Y-61278011D01*
X160475500Y-61041995D01*
X161874500Y-61041995D01*
X161874500Y-61278004D01*
X161874501Y-61278020D01*
X161905306Y-61512010D01*
X161966394Y-61739993D01*
X162056714Y-61958045D01*
X162056719Y-61958056D01*
X162127677Y-62080957D01*
X162174727Y-62162450D01*
X162174729Y-62162453D01*
X162174730Y-62162454D01*
X162318406Y-62349697D01*
X162318412Y-62349704D01*
X162485295Y-62516587D01*
X162485302Y-62516593D01*
X162595306Y-62601001D01*
X162672550Y-62660273D01*
X162745397Y-62702331D01*
X162876943Y-62778280D01*
X162876948Y-62778282D01*
X162876951Y-62778284D01*
X163095007Y-62868606D01*
X163322986Y-62929693D01*
X163556989Y-62960500D01*
X163556996Y-62960500D01*
X163793004Y-62960500D01*
X163793011Y-62960500D01*
X164027014Y-62929693D01*
X164254993Y-62868606D01*
X164473049Y-62778284D01*
X164677450Y-62660273D01*
X164864699Y-62516592D01*
X165031592Y-62349699D01*
X165175273Y-62162450D01*
X165293284Y-61958049D01*
X165383606Y-61739993D01*
X165444693Y-61512014D01*
X165475500Y-61278011D01*
X165475500Y-61041995D01*
X166874500Y-61041995D01*
X166874500Y-61278004D01*
X166874501Y-61278020D01*
X166905306Y-61512010D01*
X166966394Y-61739993D01*
X167056714Y-61958045D01*
X167056719Y-61958056D01*
X167127677Y-62080957D01*
X167174727Y-62162450D01*
X167174729Y-62162453D01*
X167174730Y-62162454D01*
X167318406Y-62349697D01*
X167318412Y-62349704D01*
X167485295Y-62516587D01*
X167485302Y-62516593D01*
X167595306Y-62601001D01*
X167672550Y-62660273D01*
X167745397Y-62702331D01*
X167876943Y-62778280D01*
X167876948Y-62778282D01*
X167876951Y-62778284D01*
X168095007Y-62868606D01*
X168322986Y-62929693D01*
X168556989Y-62960500D01*
X168556996Y-62960500D01*
X168793004Y-62960500D01*
X168793011Y-62960500D01*
X169027014Y-62929693D01*
X169254993Y-62868606D01*
X169473049Y-62778284D01*
X169677450Y-62660273D01*
X169864699Y-62516592D01*
X170031592Y-62349699D01*
X170175273Y-62162450D01*
X170293284Y-61958049D01*
X170383606Y-61739993D01*
X170444693Y-61512014D01*
X170475500Y-61278011D01*
X170475500Y-61041995D01*
X171874500Y-61041995D01*
X171874500Y-61278004D01*
X171874501Y-61278020D01*
X171905306Y-61512010D01*
X171966394Y-61739993D01*
X172056714Y-61958045D01*
X172056719Y-61958056D01*
X172127677Y-62080957D01*
X172174727Y-62162450D01*
X172174729Y-62162453D01*
X172174730Y-62162454D01*
X172318406Y-62349697D01*
X172318412Y-62349704D01*
X172485295Y-62516587D01*
X172485302Y-62516593D01*
X172595306Y-62601001D01*
X172672550Y-62660273D01*
X172745397Y-62702331D01*
X172876943Y-62778280D01*
X172876948Y-62778282D01*
X172876951Y-62778284D01*
X173095007Y-62868606D01*
X173322986Y-62929693D01*
X173556989Y-62960500D01*
X173556996Y-62960500D01*
X173793004Y-62960500D01*
X173793011Y-62960500D01*
X174027014Y-62929693D01*
X174254993Y-62868606D01*
X174473049Y-62778284D01*
X174677450Y-62660273D01*
X174864699Y-62516592D01*
X175031592Y-62349699D01*
X175175273Y-62162450D01*
X175293284Y-61958049D01*
X175383606Y-61739993D01*
X175444693Y-61512014D01*
X175475500Y-61278011D01*
X175475500Y-61041995D01*
X176874500Y-61041995D01*
X176874500Y-61278004D01*
X176874501Y-61278020D01*
X176905306Y-61512010D01*
X176966394Y-61739993D01*
X177056714Y-61958045D01*
X177056719Y-61958056D01*
X177127677Y-62080957D01*
X177174727Y-62162450D01*
X177174729Y-62162453D01*
X177174730Y-62162454D01*
X177318406Y-62349697D01*
X177318412Y-62349704D01*
X177485295Y-62516587D01*
X177485302Y-62516593D01*
X177595306Y-62601001D01*
X177672550Y-62660273D01*
X177745397Y-62702331D01*
X177876943Y-62778280D01*
X177876948Y-62778282D01*
X177876951Y-62778284D01*
X178095007Y-62868606D01*
X178322986Y-62929693D01*
X178556989Y-62960500D01*
X178556996Y-62960500D01*
X178793004Y-62960500D01*
X178793011Y-62960500D01*
X179027014Y-62929693D01*
X179254993Y-62868606D01*
X179473049Y-62778284D01*
X179677450Y-62660273D01*
X179864699Y-62516592D01*
X180031592Y-62349699D01*
X180175273Y-62162450D01*
X180293284Y-61958049D01*
X180383606Y-61739993D01*
X180444693Y-61512014D01*
X180475500Y-61278011D01*
X180475500Y-61041995D01*
X181874500Y-61041995D01*
X181874500Y-61278004D01*
X181874501Y-61278020D01*
X181905306Y-61512010D01*
X181966394Y-61739993D01*
X182056714Y-61958045D01*
X182056719Y-61958056D01*
X182127677Y-62080957D01*
X182174727Y-62162450D01*
X182174729Y-62162453D01*
X182174730Y-62162454D01*
X182318406Y-62349697D01*
X182318412Y-62349704D01*
X182485295Y-62516587D01*
X182485302Y-62516593D01*
X182595306Y-62601001D01*
X182672550Y-62660273D01*
X182745397Y-62702331D01*
X182876943Y-62778280D01*
X182876948Y-62778282D01*
X182876951Y-62778284D01*
X183095007Y-62868606D01*
X183322986Y-62929693D01*
X183556989Y-62960500D01*
X183556996Y-62960500D01*
X183793004Y-62960500D01*
X183793011Y-62960500D01*
X184027014Y-62929693D01*
X184254993Y-62868606D01*
X184473049Y-62778284D01*
X184677450Y-62660273D01*
X184864699Y-62516592D01*
X185031592Y-62349699D01*
X185175273Y-62162450D01*
X185293284Y-61958049D01*
X185383606Y-61739993D01*
X185444693Y-61512014D01*
X185475500Y-61278011D01*
X185475500Y-61041995D01*
X186874500Y-61041995D01*
X186874500Y-61278004D01*
X186874501Y-61278020D01*
X186905306Y-61512010D01*
X186966394Y-61739993D01*
X187056714Y-61958045D01*
X187056719Y-61958056D01*
X187127677Y-62080957D01*
X187174727Y-62162450D01*
X187174729Y-62162453D01*
X187174730Y-62162454D01*
X187318406Y-62349697D01*
X187318412Y-62349704D01*
X187485295Y-62516587D01*
X187485302Y-62516593D01*
X187595306Y-62601001D01*
X187672550Y-62660273D01*
X187745397Y-62702331D01*
X187876943Y-62778280D01*
X187876948Y-62778282D01*
X187876951Y-62778284D01*
X188095007Y-62868606D01*
X188322986Y-62929693D01*
X188556989Y-62960500D01*
X188556996Y-62960500D01*
X188793004Y-62960500D01*
X188793011Y-62960500D01*
X189027014Y-62929693D01*
X189254993Y-62868606D01*
X189473049Y-62778284D01*
X189677450Y-62660273D01*
X189864699Y-62516592D01*
X190031592Y-62349699D01*
X190175273Y-62162450D01*
X190293284Y-61958049D01*
X190383606Y-61739993D01*
X190444693Y-61512014D01*
X190475500Y-61278011D01*
X190475500Y-61041989D01*
X190444693Y-60807986D01*
X190383606Y-60580007D01*
X190293284Y-60361951D01*
X190293282Y-60361948D01*
X190293280Y-60361943D01*
X190251118Y-60288918D01*
X190175273Y-60157550D01*
X190031592Y-59970301D01*
X190031587Y-59970295D01*
X189873427Y-59812135D01*
X191874500Y-59812135D01*
X191874500Y-62507870D01*
X191874501Y-62507876D01*
X191880908Y-62567483D01*
X191931202Y-62702328D01*
X191931206Y-62702335D01*
X192017452Y-62817544D01*
X192017455Y-62817547D01*
X192132664Y-62903793D01*
X192132671Y-62903797D01*
X192267517Y-62954091D01*
X192267516Y-62954091D01*
X192274444Y-62954835D01*
X192327127Y-62960500D01*
X195022872Y-62960499D01*
X195082483Y-62954091D01*
X195217331Y-62903796D01*
X195332546Y-62817546D01*
X195418796Y-62702331D01*
X195469091Y-62567483D01*
X195475500Y-62507873D01*
X195475499Y-59812128D01*
X195469091Y-59752517D01*
X195457977Y-59722720D01*
X195418797Y-59617671D01*
X195418793Y-59617664D01*
X195332547Y-59502455D01*
X195332544Y-59502452D01*
X195217335Y-59416206D01*
X195217328Y-59416202D01*
X195082482Y-59365908D01*
X195082483Y-59365908D01*
X195022883Y-59359501D01*
X195022881Y-59359500D01*
X195022873Y-59359500D01*
X195022864Y-59359500D01*
X192327129Y-59359500D01*
X192327123Y-59359501D01*
X192267516Y-59365908D01*
X192132671Y-59416202D01*
X192132664Y-59416206D01*
X192017455Y-59502452D01*
X192017452Y-59502455D01*
X191931206Y-59617664D01*
X191931202Y-59617671D01*
X191880908Y-59752517D01*
X191875437Y-59803408D01*
X191874501Y-59812123D01*
X191874500Y-59812135D01*
X189873427Y-59812135D01*
X189864704Y-59803412D01*
X189864697Y-59803406D01*
X189677454Y-59659730D01*
X189677453Y-59659729D01*
X189677450Y-59659727D01*
X189595957Y-59612677D01*
X189473056Y-59541719D01*
X189473045Y-59541714D01*
X189254993Y-59451394D01*
X189123670Y-59416206D01*
X189027014Y-59390307D01*
X189027013Y-59390306D01*
X189027010Y-59390306D01*
X188793020Y-59359501D01*
X188793017Y-59359500D01*
X188793011Y-59359500D01*
X188556989Y-59359500D01*
X188556983Y-59359500D01*
X188556979Y-59359501D01*
X188322989Y-59390306D01*
X188095006Y-59451394D01*
X187876954Y-59541714D01*
X187876943Y-59541719D01*
X187672545Y-59659730D01*
X187485302Y-59803406D01*
X187485295Y-59803412D01*
X187318412Y-59970295D01*
X187318406Y-59970302D01*
X187174730Y-60157545D01*
X187174727Y-60157549D01*
X187174727Y-60157550D01*
X187167014Y-60170909D01*
X187056719Y-60361943D01*
X187056714Y-60361954D01*
X186966394Y-60580006D01*
X186905306Y-60807989D01*
X186874501Y-61041979D01*
X186874500Y-61041995D01*
X185475500Y-61041995D01*
X185475500Y-61041989D01*
X185444693Y-60807986D01*
X185383606Y-60580007D01*
X185293284Y-60361951D01*
X185293282Y-60361948D01*
X185293280Y-60361943D01*
X185251118Y-60288918D01*
X185175273Y-60157550D01*
X185031592Y-59970301D01*
X185031587Y-59970295D01*
X184864704Y-59803412D01*
X184864697Y-59803406D01*
X184677454Y-59659730D01*
X184677453Y-59659729D01*
X184677450Y-59659727D01*
X184595957Y-59612677D01*
X184473056Y-59541719D01*
X184473045Y-59541714D01*
X184254993Y-59451394D01*
X184123670Y-59416206D01*
X184027014Y-59390307D01*
X184027013Y-59390306D01*
X184027010Y-59390306D01*
X183793020Y-59359501D01*
X183793017Y-59359500D01*
X183793011Y-59359500D01*
X183556989Y-59359500D01*
X183556983Y-59359500D01*
X183556979Y-59359501D01*
X183322989Y-59390306D01*
X183095006Y-59451394D01*
X182876954Y-59541714D01*
X182876943Y-59541719D01*
X182672545Y-59659730D01*
X182485302Y-59803406D01*
X182485295Y-59803412D01*
X182318412Y-59970295D01*
X182318406Y-59970302D01*
X182174730Y-60157545D01*
X182174727Y-60157549D01*
X182174727Y-60157550D01*
X182167014Y-60170909D01*
X182056719Y-60361943D01*
X182056714Y-60361954D01*
X181966394Y-60580006D01*
X181905306Y-60807989D01*
X181874501Y-61041979D01*
X181874500Y-61041995D01*
X180475500Y-61041995D01*
X180475500Y-61041989D01*
X180444693Y-60807986D01*
X180383606Y-60580007D01*
X180293284Y-60361951D01*
X180293282Y-60361948D01*
X180293280Y-60361943D01*
X180251118Y-60288918D01*
X180175273Y-60157550D01*
X180031592Y-59970301D01*
X180031587Y-59970295D01*
X179864704Y-59803412D01*
X179864697Y-59803406D01*
X179677454Y-59659730D01*
X179677453Y-59659729D01*
X179677450Y-59659727D01*
X179595957Y-59612677D01*
X179473056Y-59541719D01*
X179473045Y-59541714D01*
X179254993Y-59451394D01*
X179123670Y-59416206D01*
X179027014Y-59390307D01*
X179027013Y-59390306D01*
X179027010Y-59390306D01*
X178793020Y-59359501D01*
X178793017Y-59359500D01*
X178793011Y-59359500D01*
X178556989Y-59359500D01*
X178556983Y-59359500D01*
X178556979Y-59359501D01*
X178322989Y-59390306D01*
X178095006Y-59451394D01*
X177876954Y-59541714D01*
X177876943Y-59541719D01*
X177672545Y-59659730D01*
X177485302Y-59803406D01*
X177485295Y-59803412D01*
X177318412Y-59970295D01*
X177318406Y-59970302D01*
X177174730Y-60157545D01*
X177174727Y-60157549D01*
X177174727Y-60157550D01*
X177167014Y-60170909D01*
X177056719Y-60361943D01*
X177056714Y-60361954D01*
X176966394Y-60580006D01*
X176905306Y-60807989D01*
X176874501Y-61041979D01*
X176874500Y-61041995D01*
X175475500Y-61041995D01*
X175475500Y-61041989D01*
X175444693Y-60807986D01*
X175383606Y-60580007D01*
X175293284Y-60361951D01*
X175293282Y-60361948D01*
X175293280Y-60361943D01*
X175251118Y-60288918D01*
X175175273Y-60157550D01*
X175031592Y-59970301D01*
X175031587Y-59970295D01*
X174864704Y-59803412D01*
X174864697Y-59803406D01*
X174677454Y-59659730D01*
X174677453Y-59659729D01*
X174677450Y-59659727D01*
X174595957Y-59612677D01*
X174473056Y-59541719D01*
X174473045Y-59541714D01*
X174254993Y-59451394D01*
X174123670Y-59416206D01*
X174027014Y-59390307D01*
X174027013Y-59390306D01*
X174027010Y-59390306D01*
X173793020Y-59359501D01*
X173793017Y-59359500D01*
X173793011Y-59359500D01*
X173556989Y-59359500D01*
X173556983Y-59359500D01*
X173556979Y-59359501D01*
X173322989Y-59390306D01*
X173095006Y-59451394D01*
X172876954Y-59541714D01*
X172876943Y-59541719D01*
X172672545Y-59659730D01*
X172485302Y-59803406D01*
X172485295Y-59803412D01*
X172318412Y-59970295D01*
X172318406Y-59970302D01*
X172174730Y-60157545D01*
X172174727Y-60157549D01*
X172174727Y-60157550D01*
X172167014Y-60170909D01*
X172056719Y-60361943D01*
X172056714Y-60361954D01*
X171966394Y-60580006D01*
X171905306Y-60807989D01*
X171874501Y-61041979D01*
X171874500Y-61041995D01*
X170475500Y-61041995D01*
X170475500Y-61041989D01*
X170444693Y-60807986D01*
X170383606Y-60580007D01*
X170293284Y-60361951D01*
X170293282Y-60361948D01*
X170293280Y-60361943D01*
X170251118Y-60288918D01*
X170175273Y-60157550D01*
X170031592Y-59970301D01*
X170031587Y-59970295D01*
X169864704Y-59803412D01*
X169864697Y-59803406D01*
X169677454Y-59659730D01*
X169677453Y-59659729D01*
X169677450Y-59659727D01*
X169595957Y-59612677D01*
X169473056Y-59541719D01*
X169473045Y-59541714D01*
X169254993Y-59451394D01*
X169123670Y-59416206D01*
X169027014Y-59390307D01*
X169027013Y-59390306D01*
X169027010Y-59390306D01*
X168793020Y-59359501D01*
X168793017Y-59359500D01*
X168793011Y-59359500D01*
X168556989Y-59359500D01*
X168556983Y-59359500D01*
X168556979Y-59359501D01*
X168322989Y-59390306D01*
X168095006Y-59451394D01*
X167876954Y-59541714D01*
X167876943Y-59541719D01*
X167672545Y-59659730D01*
X167485302Y-59803406D01*
X167485295Y-59803412D01*
X167318412Y-59970295D01*
X167318406Y-59970302D01*
X167174730Y-60157545D01*
X167174727Y-60157549D01*
X167174727Y-60157550D01*
X167167014Y-60170909D01*
X167056719Y-60361943D01*
X167056714Y-60361954D01*
X166966394Y-60580006D01*
X166905306Y-60807989D01*
X166874501Y-61041979D01*
X166874500Y-61041995D01*
X165475500Y-61041995D01*
X165475500Y-61041989D01*
X165444693Y-60807986D01*
X165383606Y-60580007D01*
X165293284Y-60361951D01*
X165293282Y-60361948D01*
X165293280Y-60361943D01*
X165251118Y-60288918D01*
X165175273Y-60157550D01*
X165031592Y-59970301D01*
X165031587Y-59970295D01*
X164864704Y-59803412D01*
X164864697Y-59803406D01*
X164677454Y-59659730D01*
X164677453Y-59659729D01*
X164677450Y-59659727D01*
X164595957Y-59612677D01*
X164473056Y-59541719D01*
X164473045Y-59541714D01*
X164254993Y-59451394D01*
X164123670Y-59416206D01*
X164027014Y-59390307D01*
X164027013Y-59390306D01*
X164027010Y-59390306D01*
X163793020Y-59359501D01*
X163793017Y-59359500D01*
X163793011Y-59359500D01*
X163556989Y-59359500D01*
X163556983Y-59359500D01*
X163556979Y-59359501D01*
X163322989Y-59390306D01*
X163095006Y-59451394D01*
X162876954Y-59541714D01*
X162876943Y-59541719D01*
X162672545Y-59659730D01*
X162485302Y-59803406D01*
X162485295Y-59803412D01*
X162318412Y-59970295D01*
X162318406Y-59970302D01*
X162174730Y-60157545D01*
X162174727Y-60157549D01*
X162174727Y-60157550D01*
X162167014Y-60170909D01*
X162056719Y-60361943D01*
X162056714Y-60361954D01*
X161966394Y-60580006D01*
X161905306Y-60807989D01*
X161874501Y-61041979D01*
X161874500Y-61041995D01*
X160475500Y-61041995D01*
X160475500Y-61041989D01*
X160444693Y-60807986D01*
X160383606Y-60580007D01*
X160293284Y-60361951D01*
X160293282Y-60361948D01*
X160293280Y-60361943D01*
X160251118Y-60288918D01*
X160175273Y-60157550D01*
X160031592Y-59970301D01*
X160031587Y-59970295D01*
X159864704Y-59803412D01*
X159864697Y-59803406D01*
X159677454Y-59659730D01*
X159677453Y-59659729D01*
X159677450Y-59659727D01*
X159595957Y-59612677D01*
X159473056Y-59541719D01*
X159473045Y-59541714D01*
X159254993Y-59451394D01*
X159123670Y-59416206D01*
X159027014Y-59390307D01*
X159027013Y-59390306D01*
X159027010Y-59390306D01*
X158793020Y-59359501D01*
X158793017Y-59359500D01*
X158793011Y-59359500D01*
X158556989Y-59359500D01*
X158556983Y-59359500D01*
X158556979Y-59359501D01*
X158322989Y-59390306D01*
X158095006Y-59451394D01*
X157876954Y-59541714D01*
X157876943Y-59541719D01*
X157672545Y-59659730D01*
X157485302Y-59803406D01*
X157485295Y-59803412D01*
X157318412Y-59970295D01*
X157318406Y-59970302D01*
X157174730Y-60157545D01*
X157174727Y-60157549D01*
X157174727Y-60157550D01*
X157167014Y-60170909D01*
X157056719Y-60361943D01*
X157056714Y-60361954D01*
X156966394Y-60580006D01*
X156905306Y-60807989D01*
X156874501Y-61041979D01*
X156874500Y-61041995D01*
X145475499Y-61041995D01*
X145475499Y-59812128D01*
X145469091Y-59752517D01*
X145457977Y-59722720D01*
X145418797Y-59617671D01*
X145418793Y-59617664D01*
X145332547Y-59502455D01*
X145332544Y-59502452D01*
X145217335Y-59416206D01*
X145217328Y-59416202D01*
X145082482Y-59365908D01*
X145082483Y-59365908D01*
X145022883Y-59359501D01*
X145022881Y-59359500D01*
X145022873Y-59359500D01*
X145022864Y-59359500D01*
X142327129Y-59359500D01*
X142327123Y-59359501D01*
X142267516Y-59365908D01*
X142132671Y-59416202D01*
X142132664Y-59416206D01*
X142017455Y-59502452D01*
X142017452Y-59502455D01*
X141931206Y-59617664D01*
X141931202Y-59617671D01*
X141880908Y-59752517D01*
X141875437Y-59803408D01*
X141874501Y-59812123D01*
X141874500Y-59812135D01*
X141874500Y-62507870D01*
X141874501Y-62507876D01*
X141880908Y-62567483D01*
X141931202Y-62702328D01*
X141931206Y-62702335D01*
X142017452Y-62817544D01*
X142017455Y-62817547D01*
X142133726Y-62904588D01*
X142175597Y-62960521D01*
X142180581Y-63030213D01*
X142147096Y-63091535D01*
X137962050Y-67276580D01*
X137962044Y-67276588D01*
X137912812Y-67350268D01*
X137912813Y-67350269D01*
X137879921Y-67399496D01*
X137879914Y-67399508D01*
X137823342Y-67536086D01*
X137823340Y-67536092D01*
X137794500Y-67681079D01*
X137794500Y-68227779D01*
X137774815Y-68294818D01*
X137743385Y-68328097D01*
X137665211Y-68384893D01*
X137665205Y-68384898D01*
X137514890Y-68535213D01*
X137389949Y-68707182D01*
X137385484Y-68715946D01*
X137337509Y-68766742D01*
X137269688Y-68783536D01*
X137203553Y-68760998D01*
X137164516Y-68715946D01*
X137160050Y-68707182D01*
X137035109Y-68535213D01*
X136884794Y-68384898D01*
X136884788Y-68384893D01*
X136806615Y-68328097D01*
X136763949Y-68272767D01*
X136755500Y-68227779D01*
X136755500Y-66857229D01*
X136775185Y-66790190D01*
X136791819Y-66769548D01*
X139257948Y-64303419D01*
X139257951Y-64303416D01*
X139340084Y-64180495D01*
X139396658Y-64043913D01*
X139425500Y-63898918D01*
X139425500Y-63751083D01*
X139425500Y-62877327D01*
X139445185Y-62810288D01*
X139487498Y-62769941D01*
X139677450Y-62660273D01*
X139864699Y-62516592D01*
X140031592Y-62349699D01*
X140175273Y-62162450D01*
X140293284Y-61958049D01*
X140383606Y-61739993D01*
X140444693Y-61512014D01*
X140475500Y-61278011D01*
X140475500Y-61041989D01*
X140444693Y-60807986D01*
X140383606Y-60580007D01*
X140293284Y-60361951D01*
X140293282Y-60361948D01*
X140293280Y-60361943D01*
X140251118Y-60288918D01*
X140175273Y-60157550D01*
X140031592Y-59970301D01*
X140031587Y-59970295D01*
X139864704Y-59803412D01*
X139864697Y-59803406D01*
X139677454Y-59659730D01*
X139677453Y-59659729D01*
X139677450Y-59659727D01*
X139595957Y-59612677D01*
X139473056Y-59541719D01*
X139473045Y-59541714D01*
X139254993Y-59451394D01*
X139123670Y-59416206D01*
X139027014Y-59390307D01*
X139027013Y-59390306D01*
X139027010Y-59390306D01*
X138793020Y-59359501D01*
X138793017Y-59359500D01*
X138793011Y-59359500D01*
X138556989Y-59359500D01*
X138556983Y-59359500D01*
X138556979Y-59359501D01*
X138322989Y-59390306D01*
X138095006Y-59451394D01*
X137876954Y-59541714D01*
X137876943Y-59541719D01*
X137672545Y-59659730D01*
X137485302Y-59803406D01*
X137485295Y-59803412D01*
X137318412Y-59970295D01*
X137318406Y-59970302D01*
X137174730Y-60157545D01*
X137174727Y-60157549D01*
X137174727Y-60157550D01*
X137167014Y-60170909D01*
X137056719Y-60361943D01*
X137056714Y-60361954D01*
X136966394Y-60580006D01*
X136905306Y-60807989D01*
X136874501Y-61041979D01*
X136874500Y-61041995D01*
X136874500Y-61278004D01*
X136874501Y-61278020D01*
X136905306Y-61512010D01*
X136966394Y-61739993D01*
X137056714Y-61958045D01*
X137056719Y-61958056D01*
X137127677Y-62080957D01*
X137174727Y-62162450D01*
X137174729Y-62162453D01*
X137174730Y-62162454D01*
X137318406Y-62349697D01*
X137318412Y-62349704D01*
X137485295Y-62516587D01*
X137485302Y-62516593D01*
X137595306Y-62601001D01*
X137672550Y-62660273D01*
X137862501Y-62769941D01*
X137910716Y-62820507D01*
X137924500Y-62877327D01*
X137924500Y-63462769D01*
X137904815Y-63529808D01*
X137888181Y-63550450D01*
X135422050Y-66016580D01*
X135422044Y-66016588D01*
X135372812Y-66090268D01*
X135372813Y-66090269D01*
X135339921Y-66139496D01*
X135339914Y-66139508D01*
X135283342Y-66276086D01*
X135283340Y-66276092D01*
X135254500Y-66421079D01*
X135254500Y-68227779D01*
X135234815Y-68294818D01*
X135203385Y-68328097D01*
X135125211Y-68384893D01*
X135125205Y-68384898D01*
X134974890Y-68535213D01*
X134849949Y-68707182D01*
X134845484Y-68715946D01*
X134797509Y-68766742D01*
X134729688Y-68783536D01*
X134663553Y-68760998D01*
X134624516Y-68715946D01*
X134620050Y-68707182D01*
X134495109Y-68535213D01*
X134344794Y-68384898D01*
X134344788Y-68384893D01*
X134266615Y-68328097D01*
X134223949Y-68272767D01*
X134215500Y-68227779D01*
X134215500Y-62967818D01*
X134235185Y-62900779D01*
X134287989Y-62855024D01*
X134292035Y-62853262D01*
X134395785Y-62810288D01*
X134473040Y-62778288D01*
X134473043Y-62778286D01*
X134473049Y-62778284D01*
X134677450Y-62660273D01*
X134864699Y-62516592D01*
X135031592Y-62349699D01*
X135175273Y-62162450D01*
X135293284Y-61958049D01*
X135383606Y-61739993D01*
X135444693Y-61512014D01*
X135475500Y-61278011D01*
X135475500Y-61041989D01*
X135444693Y-60807986D01*
X135383606Y-60580007D01*
X135293284Y-60361951D01*
X135293282Y-60361948D01*
X135293280Y-60361943D01*
X135251118Y-60288918D01*
X135175273Y-60157550D01*
X135031592Y-59970301D01*
X135031587Y-59970295D01*
X134864704Y-59803412D01*
X134864697Y-59803406D01*
X134677454Y-59659730D01*
X134677453Y-59659729D01*
X134677450Y-59659727D01*
X134595957Y-59612677D01*
X134473056Y-59541719D01*
X134473045Y-59541714D01*
X134254993Y-59451394D01*
X134123670Y-59416206D01*
X134027014Y-59390307D01*
X134027013Y-59390306D01*
X134027010Y-59390306D01*
X133793020Y-59359501D01*
X133793017Y-59359500D01*
X133793011Y-59359500D01*
X133556989Y-59359500D01*
X133556983Y-59359500D01*
X133556979Y-59359501D01*
X133322989Y-59390306D01*
X133095006Y-59451394D01*
X132876954Y-59541714D01*
X132876943Y-59541719D01*
X132672545Y-59659730D01*
X132485302Y-59803406D01*
X132485295Y-59803412D01*
X132318412Y-59970295D01*
X132318406Y-59970302D01*
X132174730Y-60157545D01*
X132174727Y-60157549D01*
X132174727Y-60157550D01*
X132167014Y-60170909D01*
X132056719Y-60361943D01*
X132056714Y-60361954D01*
X131966394Y-60580006D01*
X131905306Y-60807989D01*
X131874501Y-61041979D01*
X131874500Y-61041995D01*
X131874500Y-61278004D01*
X131874501Y-61278020D01*
X131905306Y-61512010D01*
X131966394Y-61739993D01*
X132056714Y-61958045D01*
X132056719Y-61958056D01*
X132127677Y-62080957D01*
X132174727Y-62162450D01*
X132174729Y-62162453D01*
X132174730Y-62162454D01*
X132318406Y-62349697D01*
X132318412Y-62349704D01*
X132485295Y-62516587D01*
X132485302Y-62516593D01*
X132665986Y-62655236D01*
X132707189Y-62711664D01*
X132714500Y-62753612D01*
X132714500Y-68227779D01*
X132694815Y-68294818D01*
X132663385Y-68328097D01*
X132585211Y-68384893D01*
X132471673Y-68498431D01*
X132410350Y-68531915D01*
X132340658Y-68526931D01*
X132284725Y-68485059D01*
X132267810Y-68454082D01*
X132218797Y-68322671D01*
X132218793Y-68322664D01*
X132132547Y-68207455D01*
X132132544Y-68207452D01*
X132017335Y-68121206D01*
X132017328Y-68121202D01*
X131882482Y-68070908D01*
X131882483Y-68070908D01*
X131822883Y-68064501D01*
X131822881Y-68064500D01*
X131822873Y-68064500D01*
X131822864Y-68064500D01*
X130027129Y-68064500D01*
X130027123Y-68064501D01*
X129967516Y-68070908D01*
X129832671Y-68121202D01*
X129832664Y-68121206D01*
X129717455Y-68207452D01*
X129717452Y-68207455D01*
X129631206Y-68322664D01*
X129631202Y-68322671D01*
X129580908Y-68457517D01*
X129574501Y-68517116D01*
X129574500Y-68517135D01*
X105957043Y-68517135D01*
X105901572Y-68500308D01*
X105564248Y-68433210D01*
X105564249Y-68433210D01*
X105306456Y-68407821D01*
X105221969Y-68399500D01*
X104878031Y-68399500D01*
X104799966Y-68407188D01*
X104535750Y-68433210D01*
X104198427Y-68500308D01*
X103869293Y-68600150D01*
X103551535Y-68731770D01*
X103551530Y-68731772D01*
X103248224Y-68893893D01*
X103248206Y-68893904D01*
X102962248Y-69084975D01*
X102962234Y-69084985D01*
X102696367Y-69303176D01*
X102453176Y-69546367D01*
X102234985Y-69812234D01*
X102234975Y-69812248D01*
X102043904Y-70098206D01*
X102043893Y-70098224D01*
X101908858Y-70350857D01*
X101859896Y-70400702D01*
X101791758Y-70416162D01*
X101726078Y-70392330D01*
X101683709Y-70336772D01*
X101675500Y-70292404D01*
X101675500Y-61041995D01*
X106874500Y-61041995D01*
X106874500Y-61278004D01*
X106874501Y-61278020D01*
X106905306Y-61512010D01*
X106966394Y-61739993D01*
X107056714Y-61958045D01*
X107056719Y-61958056D01*
X107127677Y-62080957D01*
X107174727Y-62162450D01*
X107174729Y-62162453D01*
X107174730Y-62162454D01*
X107318406Y-62349697D01*
X107318412Y-62349704D01*
X107485295Y-62516587D01*
X107485302Y-62516593D01*
X107595306Y-62601001D01*
X107672550Y-62660273D01*
X107745397Y-62702331D01*
X107876943Y-62778280D01*
X107876948Y-62778282D01*
X107876951Y-62778284D01*
X108095007Y-62868606D01*
X108322986Y-62929693D01*
X108556989Y-62960500D01*
X108556996Y-62960500D01*
X108793004Y-62960500D01*
X108793011Y-62960500D01*
X109027014Y-62929693D01*
X109254993Y-62868606D01*
X109473049Y-62778284D01*
X109677450Y-62660273D01*
X109864699Y-62516592D01*
X110031592Y-62349699D01*
X110175273Y-62162450D01*
X110293284Y-61958049D01*
X110383606Y-61739993D01*
X110444693Y-61512014D01*
X110475500Y-61278011D01*
X110475500Y-61041995D01*
X111874500Y-61041995D01*
X111874500Y-61278004D01*
X111874501Y-61278020D01*
X111905306Y-61512010D01*
X111966394Y-61739993D01*
X112056714Y-61958045D01*
X112056719Y-61958056D01*
X112127677Y-62080957D01*
X112174727Y-62162450D01*
X112174729Y-62162453D01*
X112174730Y-62162454D01*
X112318406Y-62349697D01*
X112318412Y-62349704D01*
X112485295Y-62516587D01*
X112485302Y-62516593D01*
X112595306Y-62601001D01*
X112672550Y-62660273D01*
X112745397Y-62702331D01*
X112876943Y-62778280D01*
X112876948Y-62778282D01*
X112876951Y-62778284D01*
X113095007Y-62868606D01*
X113322986Y-62929693D01*
X113556989Y-62960500D01*
X113556996Y-62960500D01*
X113793004Y-62960500D01*
X113793011Y-62960500D01*
X114027014Y-62929693D01*
X114254993Y-62868606D01*
X114473049Y-62778284D01*
X114677450Y-62660273D01*
X114864699Y-62516592D01*
X114873427Y-62507864D01*
X114919648Y-62461644D01*
X115031587Y-62349704D01*
X115031592Y-62349699D01*
X115175273Y-62162450D01*
X115293284Y-61958049D01*
X115383606Y-61739993D01*
X115444693Y-61512014D01*
X115475500Y-61278011D01*
X115475500Y-61042014D01*
X116875000Y-61042014D01*
X116875000Y-61277985D01*
X116905799Y-61511914D01*
X116966870Y-61739837D01*
X117057160Y-61957819D01*
X117057165Y-61957828D01*
X117175144Y-62162171D01*
X117175145Y-62162172D01*
X117237721Y-62243723D01*
X118073958Y-61407487D01*
X118098978Y-61467890D01*
X118170112Y-61574351D01*
X118260649Y-61664888D01*
X118367110Y-61736022D01*
X118427511Y-61761041D01*
X117591275Y-62597277D01*
X117672827Y-62659854D01*
X117672828Y-62659855D01*
X117877171Y-62777834D01*
X117877180Y-62777839D01*
X118095163Y-62868129D01*
X118095161Y-62868129D01*
X118323085Y-62929200D01*
X118557014Y-62959999D01*
X118557029Y-62960000D01*
X118792971Y-62960000D01*
X118792985Y-62959999D01*
X119026914Y-62929200D01*
X119254837Y-62868129D01*
X119472819Y-62777839D01*
X119472828Y-62777834D01*
X119677181Y-62659850D01*
X119758723Y-62597279D01*
X119758723Y-62597276D01*
X118922487Y-61761041D01*
X118982890Y-61736022D01*
X119089351Y-61664888D01*
X119179888Y-61574351D01*
X119251022Y-61467890D01*
X119276041Y-61407488D01*
X120112276Y-62243723D01*
X120112279Y-62243723D01*
X120174850Y-62162181D01*
X120292834Y-61957828D01*
X120292839Y-61957819D01*
X120383129Y-61739837D01*
X120444200Y-61511914D01*
X120474999Y-61277985D01*
X120475000Y-61277971D01*
X120475000Y-61042028D01*
X120474999Y-61042014D01*
X121875000Y-61042014D01*
X121875000Y-61277985D01*
X121905799Y-61511914D01*
X121966870Y-61739837D01*
X122057160Y-61957819D01*
X122057165Y-61957828D01*
X122175144Y-62162171D01*
X122175145Y-62162172D01*
X122237721Y-62243723D01*
X123073958Y-61407487D01*
X123098978Y-61467890D01*
X123170112Y-61574351D01*
X123260649Y-61664888D01*
X123367110Y-61736022D01*
X123427511Y-61761041D01*
X122591275Y-62597277D01*
X122672827Y-62659854D01*
X122672828Y-62659855D01*
X122877171Y-62777834D01*
X122877180Y-62777839D01*
X123095163Y-62868129D01*
X123095161Y-62868129D01*
X123323085Y-62929200D01*
X123557014Y-62959999D01*
X123557029Y-62960000D01*
X123792971Y-62960000D01*
X123792985Y-62959999D01*
X124026914Y-62929200D01*
X124254837Y-62868129D01*
X124472819Y-62777839D01*
X124472828Y-62777834D01*
X124677181Y-62659850D01*
X124758723Y-62597279D01*
X124758723Y-62597276D01*
X123922487Y-61761041D01*
X123982890Y-61736022D01*
X124089351Y-61664888D01*
X124179888Y-61574351D01*
X124251022Y-61467890D01*
X124276041Y-61407487D01*
X125112276Y-62243723D01*
X125112279Y-62243723D01*
X125174850Y-62162181D01*
X125292834Y-61957828D01*
X125292839Y-61957819D01*
X125383129Y-61739837D01*
X125444200Y-61511914D01*
X125474999Y-61277985D01*
X125475000Y-61277971D01*
X125475000Y-61042021D01*
X125474997Y-61041995D01*
X126874500Y-61041995D01*
X126874500Y-61278004D01*
X126874501Y-61278020D01*
X126905306Y-61512010D01*
X126966394Y-61739993D01*
X127056714Y-61958045D01*
X127056719Y-61958056D01*
X127127677Y-62080957D01*
X127174727Y-62162450D01*
X127174729Y-62162453D01*
X127174730Y-62162454D01*
X127318406Y-62349697D01*
X127318412Y-62349704D01*
X127485295Y-62516587D01*
X127485302Y-62516593D01*
X127595306Y-62601001D01*
X127672550Y-62660273D01*
X127745397Y-62702331D01*
X127876943Y-62778280D01*
X127876948Y-62778282D01*
X127876951Y-62778284D01*
X128095007Y-62868606D01*
X128322986Y-62929693D01*
X128556989Y-62960500D01*
X128556996Y-62960500D01*
X128793004Y-62960500D01*
X128793011Y-62960500D01*
X129027014Y-62929693D01*
X129254993Y-62868606D01*
X129473049Y-62778284D01*
X129677450Y-62660273D01*
X129864699Y-62516592D01*
X130031592Y-62349699D01*
X130175273Y-62162450D01*
X130293284Y-61958049D01*
X130383606Y-61739993D01*
X130444693Y-61512014D01*
X130475500Y-61278011D01*
X130475500Y-61041989D01*
X130444693Y-60807986D01*
X130383606Y-60580007D01*
X130293284Y-60361951D01*
X130293282Y-60361948D01*
X130293280Y-60361943D01*
X130251118Y-60288918D01*
X130175273Y-60157550D01*
X130031592Y-59970301D01*
X130031587Y-59970295D01*
X129864704Y-59803412D01*
X129864697Y-59803406D01*
X129677454Y-59659730D01*
X129677453Y-59659729D01*
X129677450Y-59659727D01*
X129595957Y-59612677D01*
X129473056Y-59541719D01*
X129473045Y-59541714D01*
X129254993Y-59451394D01*
X129123670Y-59416206D01*
X129027014Y-59390307D01*
X129027013Y-59390306D01*
X129027010Y-59390306D01*
X128793020Y-59359501D01*
X128793017Y-59359500D01*
X128793011Y-59359500D01*
X128556989Y-59359500D01*
X128556983Y-59359500D01*
X128556979Y-59359501D01*
X128322989Y-59390306D01*
X128095006Y-59451394D01*
X127876954Y-59541714D01*
X127876943Y-59541719D01*
X127672545Y-59659730D01*
X127485302Y-59803406D01*
X127485295Y-59803412D01*
X127318412Y-59970295D01*
X127318406Y-59970302D01*
X127174730Y-60157545D01*
X127174727Y-60157549D01*
X127174727Y-60157550D01*
X127167014Y-60170909D01*
X127056719Y-60361943D01*
X127056714Y-60361954D01*
X126966394Y-60580006D01*
X126905306Y-60807989D01*
X126874501Y-61041979D01*
X126874500Y-61041995D01*
X125474997Y-61041995D01*
X125444200Y-60808085D01*
X125383129Y-60580162D01*
X125292839Y-60362180D01*
X125292834Y-60362171D01*
X125174855Y-60157828D01*
X125174854Y-60157827D01*
X125112277Y-60076275D01*
X124276041Y-60912511D01*
X124251022Y-60852110D01*
X124179888Y-60745649D01*
X124089351Y-60655112D01*
X123982890Y-60583978D01*
X123922488Y-60558958D01*
X124758723Y-59722721D01*
X124677172Y-59660145D01*
X124677171Y-59660144D01*
X124472828Y-59542165D01*
X124472819Y-59542160D01*
X124254836Y-59451870D01*
X124254838Y-59451870D01*
X124026914Y-59390799D01*
X123792985Y-59360000D01*
X123557014Y-59360000D01*
X123323085Y-59390799D01*
X123095162Y-59451870D01*
X122877180Y-59542160D01*
X122877171Y-59542165D01*
X122672828Y-59660144D01*
X122672818Y-59660150D01*
X122591275Y-59722720D01*
X122591275Y-59722721D01*
X123427512Y-60558958D01*
X123367110Y-60583978D01*
X123260649Y-60655112D01*
X123170112Y-60745649D01*
X123098978Y-60852110D01*
X123073958Y-60912511D01*
X122237721Y-60076275D01*
X122237720Y-60076275D01*
X122175150Y-60157818D01*
X122175144Y-60157828D01*
X122057165Y-60362171D01*
X122057160Y-60362180D01*
X121966870Y-60580162D01*
X121905799Y-60808085D01*
X121875000Y-61042014D01*
X120474999Y-61042014D01*
X120444200Y-60808085D01*
X120383129Y-60580162D01*
X120292839Y-60362180D01*
X120292834Y-60362171D01*
X120174855Y-60157828D01*
X120174854Y-60157827D01*
X120112277Y-60076275D01*
X119276041Y-60912511D01*
X119251022Y-60852110D01*
X119179888Y-60745649D01*
X119089351Y-60655112D01*
X118982890Y-60583978D01*
X118922488Y-60558958D01*
X119758723Y-59722721D01*
X119677172Y-59660145D01*
X119677171Y-59660144D01*
X119472828Y-59542165D01*
X119472819Y-59542160D01*
X119254836Y-59451870D01*
X119254838Y-59451870D01*
X119026914Y-59390799D01*
X118792985Y-59360000D01*
X118557014Y-59360000D01*
X118323085Y-59390799D01*
X118095162Y-59451870D01*
X117877180Y-59542160D01*
X117877171Y-59542165D01*
X117672828Y-59660144D01*
X117672818Y-59660150D01*
X117591275Y-59722720D01*
X117591275Y-59722721D01*
X118427512Y-60558958D01*
X118367110Y-60583978D01*
X118260649Y-60655112D01*
X118170112Y-60745649D01*
X118098978Y-60852110D01*
X118073958Y-60912511D01*
X117237721Y-60076275D01*
X117237720Y-60076275D01*
X117175150Y-60157818D01*
X117175144Y-60157828D01*
X117057165Y-60362171D01*
X117057160Y-60362180D01*
X116966870Y-60580162D01*
X116905799Y-60808085D01*
X116875000Y-61042014D01*
X115475500Y-61042014D01*
X115475500Y-61041989D01*
X115444693Y-60807986D01*
X115383606Y-60580007D01*
X115293284Y-60361951D01*
X115293282Y-60361948D01*
X115293280Y-60361943D01*
X115251118Y-60288918D01*
X115175273Y-60157550D01*
X115031592Y-59970301D01*
X115031587Y-59970295D01*
X114864704Y-59803412D01*
X114864697Y-59803406D01*
X114677454Y-59659730D01*
X114677453Y-59659729D01*
X114677450Y-59659727D01*
X114595957Y-59612677D01*
X114473056Y-59541719D01*
X114473045Y-59541714D01*
X114254993Y-59451394D01*
X114123670Y-59416206D01*
X114027014Y-59390307D01*
X114027013Y-59390306D01*
X114027010Y-59390306D01*
X113793020Y-59359501D01*
X113793017Y-59359500D01*
X113793011Y-59359500D01*
X113556989Y-59359500D01*
X113556983Y-59359500D01*
X113556979Y-59359501D01*
X113322989Y-59390306D01*
X113095006Y-59451394D01*
X112876954Y-59541714D01*
X112876943Y-59541719D01*
X112672545Y-59659730D01*
X112485302Y-59803406D01*
X112485295Y-59803412D01*
X112318412Y-59970295D01*
X112318406Y-59970302D01*
X112174730Y-60157545D01*
X112174727Y-60157549D01*
X112174727Y-60157550D01*
X112167014Y-60170909D01*
X112056719Y-60361943D01*
X112056714Y-60361954D01*
X111966394Y-60580006D01*
X111905306Y-60807989D01*
X111874501Y-61041979D01*
X111874500Y-61041995D01*
X110475500Y-61041995D01*
X110475500Y-61041989D01*
X110444693Y-60807986D01*
X110383606Y-60580007D01*
X110293284Y-60361951D01*
X110293282Y-60361948D01*
X110293280Y-60361943D01*
X110251118Y-60288918D01*
X110175273Y-60157550D01*
X110031592Y-59970301D01*
X110031587Y-59970295D01*
X109864704Y-59803412D01*
X109864697Y-59803406D01*
X109677454Y-59659730D01*
X109677453Y-59659729D01*
X109677450Y-59659727D01*
X109595957Y-59612677D01*
X109473056Y-59541719D01*
X109473045Y-59541714D01*
X109254993Y-59451394D01*
X109123670Y-59416206D01*
X109027014Y-59390307D01*
X109027013Y-59390306D01*
X109027010Y-59390306D01*
X108793020Y-59359501D01*
X108793017Y-59359500D01*
X108793011Y-59359500D01*
X108556989Y-59359500D01*
X108556983Y-59359500D01*
X108556979Y-59359501D01*
X108322989Y-59390306D01*
X108095006Y-59451394D01*
X107876954Y-59541714D01*
X107876943Y-59541719D01*
X107672545Y-59659730D01*
X107485302Y-59803406D01*
X107485295Y-59803412D01*
X107318412Y-59970295D01*
X107318406Y-59970302D01*
X107174730Y-60157545D01*
X107174727Y-60157549D01*
X107174727Y-60157550D01*
X107167014Y-60170909D01*
X107056719Y-60361943D01*
X107056714Y-60361954D01*
X106966394Y-60580006D01*
X106905306Y-60807989D01*
X106874501Y-61041979D01*
X106874500Y-61041995D01*
X101675500Y-61041995D01*
X101675500Y-56369500D01*
X101695185Y-56302461D01*
X101747989Y-56256706D01*
X101799500Y-56245500D01*
X200550500Y-56245500D01*
X200617539Y-56265185D01*
G37*
%TD.AperFunction*%
%TD*%
D31*
X139900000Y-103600000D02*
G75*
G02*
X141100000Y-104800000I0J-1200000D01*
G01*
X167400000Y-103700000D02*
G75*
G02*
X168600000Y-104900000I0J-1200000D01*
G01*
X168600000Y-110400000D02*
G75*
G02*
X167600000Y-110400000I-500000J0D01*
G01*
X187700000Y-110300000D02*
X187700000Y-104800000D01*
X161100000Y-110400000D02*
X161100000Y-104900000D01*
X134600000Y-110300000D02*
X134600000Y-104800000D01*
X122200000Y-110350000D02*
G75*
G02*
X121200000Y-110350000I-500000J0D01*
G01*
X122200000Y-110350000D02*
X122200000Y-104850000D01*
X134800000Y-103600000D02*
X139900000Y-103600000D01*
X162300000Y-104700000D02*
X167400000Y-104700000D01*
X141100000Y-110300000D02*
X141100000Y-104800000D01*
X181200000Y-110300000D02*
G75*
G02*
X180200000Y-110300000I-500000J0D01*
G01*
X121000000Y-103650000D02*
G75*
G02*
X122200000Y-104850000I0J-1200000D01*
G01*
X181400000Y-104600000D02*
X186500000Y-104600000D01*
X162100000Y-104900000D02*
G75*
G02*
X162300000Y-104700000I200000J0D01*
G01*
X133600000Y-104800000D02*
G75*
G02*
X134800000Y-103600000I1200000J0D01*
G01*
X121200000Y-110350000D02*
X121200000Y-104850000D01*
X187700000Y-110300000D02*
G75*
G02*
X186700000Y-110300000I-500000J0D01*
G01*
X115900000Y-104650000D02*
X121000000Y-104650000D01*
X115700000Y-110350000D02*
X115700000Y-104850000D01*
X167400000Y-104700000D02*
G75*
G02*
X167600000Y-104900000I0J-200000D01*
G01*
X141100000Y-110300000D02*
G75*
G02*
X140100000Y-110300000I-500000J0D01*
G01*
X186700000Y-110300000D02*
X186700000Y-104800000D01*
X180200000Y-104800000D02*
G75*
G02*
X181400000Y-103600000I1200000J0D01*
G01*
X134800000Y-104600000D02*
X139900000Y-104600000D01*
X181200000Y-104800000D02*
G75*
G02*
X181400000Y-104600000I200000J0D01*
G01*
X186500000Y-104600000D02*
G75*
G02*
X186700000Y-104800000I0J-200000D01*
G01*
X162100000Y-110400000D02*
G75*
G02*
X161100000Y-110400000I-500000J0D01*
G01*
X139900000Y-104600000D02*
G75*
G02*
X140100000Y-104800000I0J-200000D01*
G01*
X115700000Y-110350000D02*
G75*
G02*
X114700000Y-110350000I-500000J0D01*
G01*
X186500000Y-103600000D02*
G75*
G02*
X187700000Y-104800000I0J-1200000D01*
G01*
X180200000Y-110300000D02*
X180200000Y-104800000D01*
X162100000Y-110400000D02*
X162100000Y-104900000D01*
X134600000Y-104800000D02*
G75*
G02*
X134800000Y-104600000I200000J0D01*
G01*
X115900000Y-103650000D02*
X121000000Y-103650000D01*
X121000000Y-104650000D02*
G75*
G02*
X121200000Y-104850000I0J-200000D01*
G01*
X140100000Y-110300000D02*
X140100000Y-104800000D01*
X181200000Y-110300000D02*
X181200000Y-104800000D01*
X114700000Y-110350000D02*
X114700000Y-104850000D01*
X168600000Y-110400000D02*
X168600000Y-104900000D01*
X162300000Y-103700000D02*
X167400000Y-103700000D01*
X167600000Y-110400000D02*
X167600000Y-104900000D01*
X161100000Y-104900000D02*
G75*
G02*
X162300000Y-103700000I1200000J0D01*
G01*
X134600000Y-110300000D02*
G75*
G02*
X133600000Y-110300000I-500000J0D01*
G01*
X181400000Y-103600000D02*
X186500000Y-103600000D01*
X115700000Y-104850000D02*
G75*
G02*
X115900000Y-104650000I200000J0D01*
G01*
X114700000Y-104850000D02*
G75*
G02*
X115900000Y-103650000I1200000J0D01*
G01*
X133600000Y-110300000D02*
X133600000Y-104800000D01*
D32*
%TO.C,MOD1*%
X101175000Y-55745000D02*
X101175000Y-138995000D01*
X101175000Y-138995000D02*
X201175000Y-138995000D01*
X201175000Y-55745000D02*
X101175000Y-55745000D01*
X201175000Y-138995000D02*
X201175000Y-55745000D01*
%TD*%
M02*
