%TF.GenerationSoftware,KiCad,Pcbnew,9.0.3*%
%TF.CreationDate,2025-10-06T20:13:02+02:00*%
%TF.ProjectId,esp32_blinds_controller,65737033-325f-4626-9c69-6e64735f636f,V0.3*%
%TF.SameCoordinates,Original*%
%TF.FileFunction,Legend,Top*%
%TF.FilePolarity,Positive*%
%FSLAX46Y46*%
G04 Gerber Fmt 4.6, Leading zero omitted, Abs format (unit mm)*
G04 Created by KiCad (PCBNEW 9.0.3) date 2025-10-06 20:13:02*
%MOMM*%
%LPD*%
G01*
G04 APERTURE LIST*
%ADD10C,0.300000*%
%ADD11C,0.150000*%
%ADD12C,0.500000*%
%ADD13C,0.120000*%
%TA.AperFunction,Profile*%
%ADD14C,0.050000*%
%TD*%
%TA.AperFunction,Profile*%
%ADD15C,0.120000*%
%TD*%
G04 APERTURE END LIST*
D10*
X104268256Y-114863774D02*
X103553970Y-115363774D01*
X104268256Y-115720917D02*
X102768256Y-115720917D01*
X102768256Y-115720917D02*
X102768256Y-115149488D01*
X102768256Y-115149488D02*
X102839685Y-115006631D01*
X102839685Y-115006631D02*
X102911113Y-114935202D01*
X102911113Y-114935202D02*
X103053970Y-114863774D01*
X103053970Y-114863774D02*
X103268256Y-114863774D01*
X103268256Y-114863774D02*
X103411113Y-114935202D01*
X103411113Y-114935202D02*
X103482542Y-115006631D01*
X103482542Y-115006631D02*
X103553970Y-115149488D01*
X103553970Y-115149488D02*
X103553970Y-115720917D01*
X103482542Y-114220917D02*
X103482542Y-113720917D01*
X104268256Y-113506631D02*
X104268256Y-114220917D01*
X104268256Y-114220917D02*
X102768256Y-114220917D01*
X102768256Y-114220917D02*
X102768256Y-113506631D01*
X102768256Y-113078059D02*
X104268256Y-112578059D01*
X104268256Y-112578059D02*
X102768256Y-112078059D01*
X102768256Y-110649488D02*
X104268256Y-110149488D01*
X104268256Y-110149488D02*
X102768256Y-109649488D01*
X102768256Y-108863774D02*
X102768256Y-108720917D01*
X102768256Y-108720917D02*
X102839685Y-108578060D01*
X102839685Y-108578060D02*
X102911113Y-108506632D01*
X102911113Y-108506632D02*
X103053970Y-108435203D01*
X103053970Y-108435203D02*
X103339685Y-108363774D01*
X103339685Y-108363774D02*
X103696828Y-108363774D01*
X103696828Y-108363774D02*
X103982542Y-108435203D01*
X103982542Y-108435203D02*
X104125399Y-108506632D01*
X104125399Y-108506632D02*
X104196828Y-108578060D01*
X104196828Y-108578060D02*
X104268256Y-108720917D01*
X104268256Y-108720917D02*
X104268256Y-108863774D01*
X104268256Y-108863774D02*
X104196828Y-109006632D01*
X104196828Y-109006632D02*
X104125399Y-109078060D01*
X104125399Y-109078060D02*
X103982542Y-109149489D01*
X103982542Y-109149489D02*
X103696828Y-109220917D01*
X103696828Y-109220917D02*
X103339685Y-109220917D01*
X103339685Y-109220917D02*
X103053970Y-109149489D01*
X103053970Y-109149489D02*
X102911113Y-109078060D01*
X102911113Y-109078060D02*
X102839685Y-109006632D01*
X102839685Y-109006632D02*
X102768256Y-108863774D01*
X104125399Y-107720918D02*
X104196828Y-107649489D01*
X104196828Y-107649489D02*
X104268256Y-107720918D01*
X104268256Y-107720918D02*
X104196828Y-107792346D01*
X104196828Y-107792346D02*
X104125399Y-107720918D01*
X104125399Y-107720918D02*
X104268256Y-107720918D01*
X102768256Y-107149489D02*
X102768256Y-106220917D01*
X102768256Y-106220917D02*
X103339685Y-106720917D01*
X103339685Y-106720917D02*
X103339685Y-106506632D01*
X103339685Y-106506632D02*
X103411113Y-106363775D01*
X103411113Y-106363775D02*
X103482542Y-106292346D01*
X103482542Y-106292346D02*
X103625399Y-106220917D01*
X103625399Y-106220917D02*
X103982542Y-106220917D01*
X103982542Y-106220917D02*
X104125399Y-106292346D01*
X104125399Y-106292346D02*
X104196828Y-106363775D01*
X104196828Y-106363775D02*
X104268256Y-106506632D01*
X104268256Y-106506632D02*
X104268256Y-106935203D01*
X104268256Y-106935203D02*
X104196828Y-107078060D01*
X104196828Y-107078060D02*
X104125399Y-107149489D01*
D11*
X104860588Y-127869819D02*
X104289160Y-127869819D01*
X104574874Y-127869819D02*
X104574874Y-126869819D01*
X104574874Y-126869819D02*
X104479636Y-127012676D01*
X104479636Y-127012676D02*
X104384398Y-127107914D01*
X104384398Y-127107914D02*
X104289160Y-127155533D01*
X137266666Y-71554819D02*
X137266666Y-72269104D01*
X137266666Y-72269104D02*
X137219047Y-72411961D01*
X137219047Y-72411961D02*
X137123809Y-72507200D01*
X137123809Y-72507200D02*
X136980952Y-72554819D01*
X136980952Y-72554819D02*
X136885714Y-72554819D01*
X138266666Y-72554819D02*
X137695238Y-72554819D01*
X137980952Y-72554819D02*
X137980952Y-71554819D01*
X137980952Y-71554819D02*
X137885714Y-71697676D01*
X137885714Y-71697676D02*
X137790476Y-71792914D01*
X137790476Y-71792914D02*
X137695238Y-71840533D01*
X173654819Y-80361904D02*
X174464342Y-80361904D01*
X174464342Y-80361904D02*
X174559580Y-80314285D01*
X174559580Y-80314285D02*
X174607200Y-80266666D01*
X174607200Y-80266666D02*
X174654819Y-80171428D01*
X174654819Y-80171428D02*
X174654819Y-79980952D01*
X174654819Y-79980952D02*
X174607200Y-79885714D01*
X174607200Y-79885714D02*
X174559580Y-79838095D01*
X174559580Y-79838095D02*
X174464342Y-79790476D01*
X174464342Y-79790476D02*
X173654819Y-79790476D01*
X173654819Y-79409523D02*
X173654819Y-78742857D01*
X173654819Y-78742857D02*
X174654819Y-79171428D01*
X114759580Y-78116666D02*
X114807200Y-78164285D01*
X114807200Y-78164285D02*
X114854819Y-78307142D01*
X114854819Y-78307142D02*
X114854819Y-78402380D01*
X114854819Y-78402380D02*
X114807200Y-78545237D01*
X114807200Y-78545237D02*
X114711961Y-78640475D01*
X114711961Y-78640475D02*
X114616723Y-78688094D01*
X114616723Y-78688094D02*
X114426247Y-78735713D01*
X114426247Y-78735713D02*
X114283390Y-78735713D01*
X114283390Y-78735713D02*
X114092914Y-78688094D01*
X114092914Y-78688094D02*
X113997676Y-78640475D01*
X113997676Y-78640475D02*
X113902438Y-78545237D01*
X113902438Y-78545237D02*
X113854819Y-78402380D01*
X113854819Y-78402380D02*
X113854819Y-78307142D01*
X113854819Y-78307142D02*
X113902438Y-78164285D01*
X113902438Y-78164285D02*
X113950057Y-78116666D01*
X113854819Y-77211904D02*
X113854819Y-77688094D01*
X113854819Y-77688094D02*
X114331009Y-77735713D01*
X114331009Y-77735713D02*
X114283390Y-77688094D01*
X114283390Y-77688094D02*
X114235771Y-77592856D01*
X114235771Y-77592856D02*
X114235771Y-77354761D01*
X114235771Y-77354761D02*
X114283390Y-77259523D01*
X114283390Y-77259523D02*
X114331009Y-77211904D01*
X114331009Y-77211904D02*
X114426247Y-77164285D01*
X114426247Y-77164285D02*
X114664342Y-77164285D01*
X114664342Y-77164285D02*
X114759580Y-77211904D01*
X114759580Y-77211904D02*
X114807200Y-77259523D01*
X114807200Y-77259523D02*
X114854819Y-77354761D01*
X114854819Y-77354761D02*
X114854819Y-77592856D01*
X114854819Y-77592856D02*
X114807200Y-77688094D01*
X114807200Y-77688094D02*
X114759580Y-77735713D01*
X183554819Y-92916666D02*
X183078628Y-93249999D01*
X183554819Y-93488094D02*
X182554819Y-93488094D01*
X182554819Y-93488094D02*
X182554819Y-93107142D01*
X182554819Y-93107142D02*
X182602438Y-93011904D01*
X182602438Y-93011904D02*
X182650057Y-92964285D01*
X182650057Y-92964285D02*
X182745295Y-92916666D01*
X182745295Y-92916666D02*
X182888152Y-92916666D01*
X182888152Y-92916666D02*
X182983390Y-92964285D01*
X182983390Y-92964285D02*
X183031009Y-93011904D01*
X183031009Y-93011904D02*
X183078628Y-93107142D01*
X183078628Y-93107142D02*
X183078628Y-93488094D01*
X182554819Y-92059523D02*
X182554819Y-92249999D01*
X182554819Y-92249999D02*
X182602438Y-92345237D01*
X182602438Y-92345237D02*
X182650057Y-92392856D01*
X182650057Y-92392856D02*
X182792914Y-92488094D01*
X182792914Y-92488094D02*
X182983390Y-92535713D01*
X182983390Y-92535713D02*
X183364342Y-92535713D01*
X183364342Y-92535713D02*
X183459580Y-92488094D01*
X183459580Y-92488094D02*
X183507200Y-92440475D01*
X183507200Y-92440475D02*
X183554819Y-92345237D01*
X183554819Y-92345237D02*
X183554819Y-92154761D01*
X183554819Y-92154761D02*
X183507200Y-92059523D01*
X183507200Y-92059523D02*
X183459580Y-92011904D01*
X183459580Y-92011904D02*
X183364342Y-91964285D01*
X183364342Y-91964285D02*
X183126247Y-91964285D01*
X183126247Y-91964285D02*
X183031009Y-92011904D01*
X183031009Y-92011904D02*
X182983390Y-92059523D01*
X182983390Y-92059523D02*
X182935771Y-92154761D01*
X182935771Y-92154761D02*
X182935771Y-92345237D01*
X182935771Y-92345237D02*
X182983390Y-92440475D01*
X182983390Y-92440475D02*
X183031009Y-92488094D01*
X183031009Y-92488094D02*
X183126247Y-92535713D01*
X146261905Y-108077319D02*
X146261905Y-107077319D01*
X146833333Y-108077319D02*
X146404762Y-107505890D01*
X146833333Y-107077319D02*
X146261905Y-107648747D01*
X147214286Y-107172557D02*
X147261905Y-107124938D01*
X147261905Y-107124938D02*
X147357143Y-107077319D01*
X147357143Y-107077319D02*
X147595238Y-107077319D01*
X147595238Y-107077319D02*
X147690476Y-107124938D01*
X147690476Y-107124938D02*
X147738095Y-107172557D01*
X147738095Y-107172557D02*
X147785714Y-107267795D01*
X147785714Y-107267795D02*
X147785714Y-107363033D01*
X147785714Y-107363033D02*
X147738095Y-107505890D01*
X147738095Y-107505890D02*
X147166667Y-108077319D01*
X147166667Y-108077319D02*
X147785714Y-108077319D01*
X149633333Y-74954819D02*
X149300000Y-74478628D01*
X149061905Y-74954819D02*
X149061905Y-73954819D01*
X149061905Y-73954819D02*
X149442857Y-73954819D01*
X149442857Y-73954819D02*
X149538095Y-74002438D01*
X149538095Y-74002438D02*
X149585714Y-74050057D01*
X149585714Y-74050057D02*
X149633333Y-74145295D01*
X149633333Y-74145295D02*
X149633333Y-74288152D01*
X149633333Y-74288152D02*
X149585714Y-74383390D01*
X149585714Y-74383390D02*
X149538095Y-74431009D01*
X149538095Y-74431009D02*
X149442857Y-74478628D01*
X149442857Y-74478628D02*
X149061905Y-74478628D01*
X150014286Y-74050057D02*
X150061905Y-74002438D01*
X150061905Y-74002438D02*
X150157143Y-73954819D01*
X150157143Y-73954819D02*
X150395238Y-73954819D01*
X150395238Y-73954819D02*
X150490476Y-74002438D01*
X150490476Y-74002438D02*
X150538095Y-74050057D01*
X150538095Y-74050057D02*
X150585714Y-74145295D01*
X150585714Y-74145295D02*
X150585714Y-74240533D01*
X150585714Y-74240533D02*
X150538095Y-74383390D01*
X150538095Y-74383390D02*
X149966667Y-74954819D01*
X149966667Y-74954819D02*
X150585714Y-74954819D01*
X141511905Y-72404819D02*
X141511905Y-71404819D01*
X141511905Y-71404819D02*
X141750000Y-71404819D01*
X141750000Y-71404819D02*
X141892857Y-71452438D01*
X141892857Y-71452438D02*
X141988095Y-71547676D01*
X141988095Y-71547676D02*
X142035714Y-71642914D01*
X142035714Y-71642914D02*
X142083333Y-71833390D01*
X142083333Y-71833390D02*
X142083333Y-71976247D01*
X142083333Y-71976247D02*
X142035714Y-72166723D01*
X142035714Y-72166723D02*
X141988095Y-72261961D01*
X141988095Y-72261961D02*
X141892857Y-72357200D01*
X141892857Y-72357200D02*
X141750000Y-72404819D01*
X141750000Y-72404819D02*
X141511905Y-72404819D01*
X142559524Y-72404819D02*
X142750000Y-72404819D01*
X142750000Y-72404819D02*
X142845238Y-72357200D01*
X142845238Y-72357200D02*
X142892857Y-72309580D01*
X142892857Y-72309580D02*
X142988095Y-72166723D01*
X142988095Y-72166723D02*
X143035714Y-71976247D01*
X143035714Y-71976247D02*
X143035714Y-71595295D01*
X143035714Y-71595295D02*
X142988095Y-71500057D01*
X142988095Y-71500057D02*
X142940476Y-71452438D01*
X142940476Y-71452438D02*
X142845238Y-71404819D01*
X142845238Y-71404819D02*
X142654762Y-71404819D01*
X142654762Y-71404819D02*
X142559524Y-71452438D01*
X142559524Y-71452438D02*
X142511905Y-71500057D01*
X142511905Y-71500057D02*
X142464286Y-71595295D01*
X142464286Y-71595295D02*
X142464286Y-71833390D01*
X142464286Y-71833390D02*
X142511905Y-71928628D01*
X142511905Y-71928628D02*
X142559524Y-71976247D01*
X142559524Y-71976247D02*
X142654762Y-72023866D01*
X142654762Y-72023866D02*
X142845238Y-72023866D01*
X142845238Y-72023866D02*
X142940476Y-71976247D01*
X142940476Y-71976247D02*
X142988095Y-71928628D01*
X142988095Y-71928628D02*
X143035714Y-71833390D01*
X127079819Y-91236904D02*
X127889342Y-91236904D01*
X127889342Y-91236904D02*
X127984580Y-91189285D01*
X127984580Y-91189285D02*
X128032200Y-91141666D01*
X128032200Y-91141666D02*
X128079819Y-91046428D01*
X128079819Y-91046428D02*
X128079819Y-90855952D01*
X128079819Y-90855952D02*
X128032200Y-90760714D01*
X128032200Y-90760714D02*
X127984580Y-90713095D01*
X127984580Y-90713095D02*
X127889342Y-90665476D01*
X127889342Y-90665476D02*
X127079819Y-90665476D01*
X127175057Y-90236904D02*
X127127438Y-90189285D01*
X127127438Y-90189285D02*
X127079819Y-90094047D01*
X127079819Y-90094047D02*
X127079819Y-89855952D01*
X127079819Y-89855952D02*
X127127438Y-89760714D01*
X127127438Y-89760714D02*
X127175057Y-89713095D01*
X127175057Y-89713095D02*
X127270295Y-89665476D01*
X127270295Y-89665476D02*
X127365533Y-89665476D01*
X127365533Y-89665476D02*
X127508390Y-89713095D01*
X127508390Y-89713095D02*
X128079819Y-90284523D01*
X128079819Y-90284523D02*
X128079819Y-89665476D01*
X184204819Y-73216666D02*
X183728628Y-73549999D01*
X184204819Y-73788094D02*
X183204819Y-73788094D01*
X183204819Y-73788094D02*
X183204819Y-73407142D01*
X183204819Y-73407142D02*
X183252438Y-73311904D01*
X183252438Y-73311904D02*
X183300057Y-73264285D01*
X183300057Y-73264285D02*
X183395295Y-73216666D01*
X183395295Y-73216666D02*
X183538152Y-73216666D01*
X183538152Y-73216666D02*
X183633390Y-73264285D01*
X183633390Y-73264285D02*
X183681009Y-73311904D01*
X183681009Y-73311904D02*
X183728628Y-73407142D01*
X183728628Y-73407142D02*
X183728628Y-73788094D01*
X184204819Y-72740475D02*
X184204819Y-72549999D01*
X184204819Y-72549999D02*
X184157200Y-72454761D01*
X184157200Y-72454761D02*
X184109580Y-72407142D01*
X184109580Y-72407142D02*
X183966723Y-72311904D01*
X183966723Y-72311904D02*
X183776247Y-72264285D01*
X183776247Y-72264285D02*
X183395295Y-72264285D01*
X183395295Y-72264285D02*
X183300057Y-72311904D01*
X183300057Y-72311904D02*
X183252438Y-72359523D01*
X183252438Y-72359523D02*
X183204819Y-72454761D01*
X183204819Y-72454761D02*
X183204819Y-72645237D01*
X183204819Y-72645237D02*
X183252438Y-72740475D01*
X183252438Y-72740475D02*
X183300057Y-72788094D01*
X183300057Y-72788094D02*
X183395295Y-72835713D01*
X183395295Y-72835713D02*
X183633390Y-72835713D01*
X183633390Y-72835713D02*
X183728628Y-72788094D01*
X183728628Y-72788094D02*
X183776247Y-72740475D01*
X183776247Y-72740475D02*
X183823866Y-72645237D01*
X183823866Y-72645237D02*
X183823866Y-72454761D01*
X183823866Y-72454761D02*
X183776247Y-72359523D01*
X183776247Y-72359523D02*
X183728628Y-72311904D01*
X183728628Y-72311904D02*
X183633390Y-72264285D01*
X193161905Y-108077319D02*
X193161905Y-107077319D01*
X193733333Y-108077319D02*
X193304762Y-107505890D01*
X193733333Y-107077319D02*
X193161905Y-107648747D01*
X194590476Y-107410652D02*
X194590476Y-108077319D01*
X194352381Y-107029700D02*
X194114286Y-107743985D01*
X194114286Y-107743985D02*
X194733333Y-107743985D01*
X181954819Y-73242857D02*
X181478628Y-73576190D01*
X181954819Y-73814285D02*
X180954819Y-73814285D01*
X180954819Y-73814285D02*
X180954819Y-73433333D01*
X180954819Y-73433333D02*
X181002438Y-73338095D01*
X181002438Y-73338095D02*
X181050057Y-73290476D01*
X181050057Y-73290476D02*
X181145295Y-73242857D01*
X181145295Y-73242857D02*
X181288152Y-73242857D01*
X181288152Y-73242857D02*
X181383390Y-73290476D01*
X181383390Y-73290476D02*
X181431009Y-73338095D01*
X181431009Y-73338095D02*
X181478628Y-73433333D01*
X181478628Y-73433333D02*
X181478628Y-73814285D01*
X181954819Y-72290476D02*
X181954819Y-72861904D01*
X181954819Y-72576190D02*
X180954819Y-72576190D01*
X180954819Y-72576190D02*
X181097676Y-72671428D01*
X181097676Y-72671428D02*
X181192914Y-72766666D01*
X181192914Y-72766666D02*
X181240533Y-72861904D01*
X181288152Y-71433333D02*
X181954819Y-71433333D01*
X180907200Y-71671428D02*
X181621485Y-71909523D01*
X181621485Y-71909523D02*
X181621485Y-71290476D01*
X189204819Y-73216666D02*
X188728628Y-73549999D01*
X189204819Y-73788094D02*
X188204819Y-73788094D01*
X188204819Y-73788094D02*
X188204819Y-73407142D01*
X188204819Y-73407142D02*
X188252438Y-73311904D01*
X188252438Y-73311904D02*
X188300057Y-73264285D01*
X188300057Y-73264285D02*
X188395295Y-73216666D01*
X188395295Y-73216666D02*
X188538152Y-73216666D01*
X188538152Y-73216666D02*
X188633390Y-73264285D01*
X188633390Y-73264285D02*
X188681009Y-73311904D01*
X188681009Y-73311904D02*
X188728628Y-73407142D01*
X188728628Y-73407142D02*
X188728628Y-73788094D01*
X188633390Y-72645237D02*
X188585771Y-72740475D01*
X188585771Y-72740475D02*
X188538152Y-72788094D01*
X188538152Y-72788094D02*
X188442914Y-72835713D01*
X188442914Y-72835713D02*
X188395295Y-72835713D01*
X188395295Y-72835713D02*
X188300057Y-72788094D01*
X188300057Y-72788094D02*
X188252438Y-72740475D01*
X188252438Y-72740475D02*
X188204819Y-72645237D01*
X188204819Y-72645237D02*
X188204819Y-72454761D01*
X188204819Y-72454761D02*
X188252438Y-72359523D01*
X188252438Y-72359523D02*
X188300057Y-72311904D01*
X188300057Y-72311904D02*
X188395295Y-72264285D01*
X188395295Y-72264285D02*
X188442914Y-72264285D01*
X188442914Y-72264285D02*
X188538152Y-72311904D01*
X188538152Y-72311904D02*
X188585771Y-72359523D01*
X188585771Y-72359523D02*
X188633390Y-72454761D01*
X188633390Y-72454761D02*
X188633390Y-72645237D01*
X188633390Y-72645237D02*
X188681009Y-72740475D01*
X188681009Y-72740475D02*
X188728628Y-72788094D01*
X188728628Y-72788094D02*
X188823866Y-72835713D01*
X188823866Y-72835713D02*
X189014342Y-72835713D01*
X189014342Y-72835713D02*
X189109580Y-72788094D01*
X189109580Y-72788094D02*
X189157200Y-72740475D01*
X189157200Y-72740475D02*
X189204819Y-72645237D01*
X189204819Y-72645237D02*
X189204819Y-72454761D01*
X189204819Y-72454761D02*
X189157200Y-72359523D01*
X189157200Y-72359523D02*
X189109580Y-72311904D01*
X189109580Y-72311904D02*
X189014342Y-72264285D01*
X189014342Y-72264285D02*
X188823866Y-72264285D01*
X188823866Y-72264285D02*
X188728628Y-72311904D01*
X188728628Y-72311904D02*
X188681009Y-72359523D01*
X188681009Y-72359523D02*
X188633390Y-72454761D01*
X172204819Y-80361904D02*
X173014342Y-80361904D01*
X173014342Y-80361904D02*
X173109580Y-80314285D01*
X173109580Y-80314285D02*
X173157200Y-80266666D01*
X173157200Y-80266666D02*
X173204819Y-80171428D01*
X173204819Y-80171428D02*
X173204819Y-79980952D01*
X173204819Y-79980952D02*
X173157200Y-79885714D01*
X173157200Y-79885714D02*
X173109580Y-79838095D01*
X173109580Y-79838095D02*
X173014342Y-79790476D01*
X173014342Y-79790476D02*
X172204819Y-79790476D01*
X172204819Y-78885714D02*
X172204819Y-79076190D01*
X172204819Y-79076190D02*
X172252438Y-79171428D01*
X172252438Y-79171428D02*
X172300057Y-79219047D01*
X172300057Y-79219047D02*
X172442914Y-79314285D01*
X172442914Y-79314285D02*
X172633390Y-79361904D01*
X172633390Y-79361904D02*
X173014342Y-79361904D01*
X173014342Y-79361904D02*
X173109580Y-79314285D01*
X173109580Y-79314285D02*
X173157200Y-79266666D01*
X173157200Y-79266666D02*
X173204819Y-79171428D01*
X173204819Y-79171428D02*
X173204819Y-78980952D01*
X173204819Y-78980952D02*
X173157200Y-78885714D01*
X173157200Y-78885714D02*
X173109580Y-78838095D01*
X173109580Y-78838095D02*
X173014342Y-78790476D01*
X173014342Y-78790476D02*
X172776247Y-78790476D01*
X172776247Y-78790476D02*
X172681009Y-78838095D01*
X172681009Y-78838095D02*
X172633390Y-78885714D01*
X172633390Y-78885714D02*
X172585771Y-78980952D01*
X172585771Y-78980952D02*
X172585771Y-79171428D01*
X172585771Y-79171428D02*
X172633390Y-79266666D01*
X172633390Y-79266666D02*
X172681009Y-79314285D01*
X172681009Y-79314285D02*
X172776247Y-79361904D01*
X158733333Y-73554819D02*
X158400000Y-73078628D01*
X158161905Y-73554819D02*
X158161905Y-72554819D01*
X158161905Y-72554819D02*
X158542857Y-72554819D01*
X158542857Y-72554819D02*
X158638095Y-72602438D01*
X158638095Y-72602438D02*
X158685714Y-72650057D01*
X158685714Y-72650057D02*
X158733333Y-72745295D01*
X158733333Y-72745295D02*
X158733333Y-72888152D01*
X158733333Y-72888152D02*
X158685714Y-72983390D01*
X158685714Y-72983390D02*
X158638095Y-73031009D01*
X158638095Y-73031009D02*
X158542857Y-73078628D01*
X158542857Y-73078628D02*
X158161905Y-73078628D01*
X159685714Y-73554819D02*
X159114286Y-73554819D01*
X159400000Y-73554819D02*
X159400000Y-72554819D01*
X159400000Y-72554819D02*
X159304762Y-72697676D01*
X159304762Y-72697676D02*
X159209524Y-72792914D01*
X159209524Y-72792914D02*
X159114286Y-72840533D01*
X178054819Y-92916666D02*
X177578628Y-93249999D01*
X178054819Y-93488094D02*
X177054819Y-93488094D01*
X177054819Y-93488094D02*
X177054819Y-93107142D01*
X177054819Y-93107142D02*
X177102438Y-93011904D01*
X177102438Y-93011904D02*
X177150057Y-92964285D01*
X177150057Y-92964285D02*
X177245295Y-92916666D01*
X177245295Y-92916666D02*
X177388152Y-92916666D01*
X177388152Y-92916666D02*
X177483390Y-92964285D01*
X177483390Y-92964285D02*
X177531009Y-93011904D01*
X177531009Y-93011904D02*
X177578628Y-93107142D01*
X177578628Y-93107142D02*
X177578628Y-93488094D01*
X177388152Y-92059523D02*
X178054819Y-92059523D01*
X177007200Y-92297618D02*
X177721485Y-92535713D01*
X177721485Y-92535713D02*
X177721485Y-91916666D01*
X152161905Y-73104819D02*
X152161905Y-72104819D01*
X152161905Y-72104819D02*
X152400000Y-72104819D01*
X152400000Y-72104819D02*
X152542857Y-72152438D01*
X152542857Y-72152438D02*
X152638095Y-72247676D01*
X152638095Y-72247676D02*
X152685714Y-72342914D01*
X152685714Y-72342914D02*
X152733333Y-72533390D01*
X152733333Y-72533390D02*
X152733333Y-72676247D01*
X152733333Y-72676247D02*
X152685714Y-72866723D01*
X152685714Y-72866723D02*
X152638095Y-72961961D01*
X152638095Y-72961961D02*
X152542857Y-73057200D01*
X152542857Y-73057200D02*
X152400000Y-73104819D01*
X152400000Y-73104819D02*
X152161905Y-73104819D01*
X153638095Y-72104819D02*
X153161905Y-72104819D01*
X153161905Y-72104819D02*
X153114286Y-72581009D01*
X153114286Y-72581009D02*
X153161905Y-72533390D01*
X153161905Y-72533390D02*
X153257143Y-72485771D01*
X153257143Y-72485771D02*
X153495238Y-72485771D01*
X153495238Y-72485771D02*
X153590476Y-72533390D01*
X153590476Y-72533390D02*
X153638095Y-72581009D01*
X153638095Y-72581009D02*
X153685714Y-72676247D01*
X153685714Y-72676247D02*
X153685714Y-72914342D01*
X153685714Y-72914342D02*
X153638095Y-73009580D01*
X153638095Y-73009580D02*
X153590476Y-73057200D01*
X153590476Y-73057200D02*
X153495238Y-73104819D01*
X153495238Y-73104819D02*
X153257143Y-73104819D01*
X153257143Y-73104819D02*
X153161905Y-73057200D01*
X153161905Y-73057200D02*
X153114286Y-73009580D01*
X179354819Y-73142857D02*
X178878628Y-73476190D01*
X179354819Y-73714285D02*
X178354819Y-73714285D01*
X178354819Y-73714285D02*
X178354819Y-73333333D01*
X178354819Y-73333333D02*
X178402438Y-73238095D01*
X178402438Y-73238095D02*
X178450057Y-73190476D01*
X178450057Y-73190476D02*
X178545295Y-73142857D01*
X178545295Y-73142857D02*
X178688152Y-73142857D01*
X178688152Y-73142857D02*
X178783390Y-73190476D01*
X178783390Y-73190476D02*
X178831009Y-73238095D01*
X178831009Y-73238095D02*
X178878628Y-73333333D01*
X178878628Y-73333333D02*
X178878628Y-73714285D01*
X179354819Y-72190476D02*
X179354819Y-72761904D01*
X179354819Y-72476190D02*
X178354819Y-72476190D01*
X178354819Y-72476190D02*
X178497676Y-72571428D01*
X178497676Y-72571428D02*
X178592914Y-72666666D01*
X178592914Y-72666666D02*
X178640533Y-72761904D01*
X178354819Y-71571428D02*
X178354819Y-71476190D01*
X178354819Y-71476190D02*
X178402438Y-71380952D01*
X178402438Y-71380952D02*
X178450057Y-71333333D01*
X178450057Y-71333333D02*
X178545295Y-71285714D01*
X178545295Y-71285714D02*
X178735771Y-71238095D01*
X178735771Y-71238095D02*
X178973866Y-71238095D01*
X178973866Y-71238095D02*
X179164342Y-71285714D01*
X179164342Y-71285714D02*
X179259580Y-71333333D01*
X179259580Y-71333333D02*
X179307200Y-71380952D01*
X179307200Y-71380952D02*
X179354819Y-71476190D01*
X179354819Y-71476190D02*
X179354819Y-71571428D01*
X179354819Y-71571428D02*
X179307200Y-71666666D01*
X179307200Y-71666666D02*
X179259580Y-71714285D01*
X179259580Y-71714285D02*
X179164342Y-71761904D01*
X179164342Y-71761904D02*
X178973866Y-71809523D01*
X178973866Y-71809523D02*
X178735771Y-71809523D01*
X178735771Y-71809523D02*
X178545295Y-71761904D01*
X178545295Y-71761904D02*
X178450057Y-71714285D01*
X178450057Y-71714285D02*
X178402438Y-71666666D01*
X178402438Y-71666666D02*
X178354819Y-71571428D01*
X107761905Y-108027319D02*
X107761905Y-107027319D01*
X108333333Y-108027319D02*
X107904762Y-107455890D01*
X108333333Y-107027319D02*
X107761905Y-107598747D01*
X109285714Y-108027319D02*
X108714286Y-108027319D01*
X109000000Y-108027319D02*
X109000000Y-107027319D01*
X109000000Y-107027319D02*
X108904762Y-107170176D01*
X108904762Y-107170176D02*
X108809524Y-107265414D01*
X108809524Y-107265414D02*
X108714286Y-107313033D01*
X187154819Y-73242857D02*
X186678628Y-73576190D01*
X187154819Y-73814285D02*
X186154819Y-73814285D01*
X186154819Y-73814285D02*
X186154819Y-73433333D01*
X186154819Y-73433333D02*
X186202438Y-73338095D01*
X186202438Y-73338095D02*
X186250057Y-73290476D01*
X186250057Y-73290476D02*
X186345295Y-73242857D01*
X186345295Y-73242857D02*
X186488152Y-73242857D01*
X186488152Y-73242857D02*
X186583390Y-73290476D01*
X186583390Y-73290476D02*
X186631009Y-73338095D01*
X186631009Y-73338095D02*
X186678628Y-73433333D01*
X186678628Y-73433333D02*
X186678628Y-73814285D01*
X187154819Y-72290476D02*
X187154819Y-72861904D01*
X187154819Y-72576190D02*
X186154819Y-72576190D01*
X186154819Y-72576190D02*
X186297676Y-72671428D01*
X186297676Y-72671428D02*
X186392914Y-72766666D01*
X186392914Y-72766666D02*
X186440533Y-72861904D01*
X186250057Y-71909523D02*
X186202438Y-71861904D01*
X186202438Y-71861904D02*
X186154819Y-71766666D01*
X186154819Y-71766666D02*
X186154819Y-71528571D01*
X186154819Y-71528571D02*
X186202438Y-71433333D01*
X186202438Y-71433333D02*
X186250057Y-71385714D01*
X186250057Y-71385714D02*
X186345295Y-71338095D01*
X186345295Y-71338095D02*
X186440533Y-71338095D01*
X186440533Y-71338095D02*
X186583390Y-71385714D01*
X186583390Y-71385714D02*
X187154819Y-71957142D01*
X187154819Y-71957142D02*
X187154819Y-71338095D01*
X158161905Y-68854819D02*
X158161905Y-67854819D01*
X158161905Y-67854819D02*
X158400000Y-67854819D01*
X158400000Y-67854819D02*
X158542857Y-67902438D01*
X158542857Y-67902438D02*
X158638095Y-67997676D01*
X158638095Y-67997676D02*
X158685714Y-68092914D01*
X158685714Y-68092914D02*
X158733333Y-68283390D01*
X158733333Y-68283390D02*
X158733333Y-68426247D01*
X158733333Y-68426247D02*
X158685714Y-68616723D01*
X158685714Y-68616723D02*
X158638095Y-68711961D01*
X158638095Y-68711961D02*
X158542857Y-68807200D01*
X158542857Y-68807200D02*
X158400000Y-68854819D01*
X158400000Y-68854819D02*
X158161905Y-68854819D01*
X159066667Y-67854819D02*
X159733333Y-67854819D01*
X159733333Y-67854819D02*
X159304762Y-68854819D01*
X158111905Y-71254819D02*
X158111905Y-70254819D01*
X158111905Y-70254819D02*
X158350000Y-70254819D01*
X158350000Y-70254819D02*
X158492857Y-70302438D01*
X158492857Y-70302438D02*
X158588095Y-70397676D01*
X158588095Y-70397676D02*
X158635714Y-70492914D01*
X158635714Y-70492914D02*
X158683333Y-70683390D01*
X158683333Y-70683390D02*
X158683333Y-70826247D01*
X158683333Y-70826247D02*
X158635714Y-71016723D01*
X158635714Y-71016723D02*
X158588095Y-71111961D01*
X158588095Y-71111961D02*
X158492857Y-71207200D01*
X158492857Y-71207200D02*
X158350000Y-71254819D01*
X158350000Y-71254819D02*
X158111905Y-71254819D01*
X159254762Y-70683390D02*
X159159524Y-70635771D01*
X159159524Y-70635771D02*
X159111905Y-70588152D01*
X159111905Y-70588152D02*
X159064286Y-70492914D01*
X159064286Y-70492914D02*
X159064286Y-70445295D01*
X159064286Y-70445295D02*
X159111905Y-70350057D01*
X159111905Y-70350057D02*
X159159524Y-70302438D01*
X159159524Y-70302438D02*
X159254762Y-70254819D01*
X159254762Y-70254819D02*
X159445238Y-70254819D01*
X159445238Y-70254819D02*
X159540476Y-70302438D01*
X159540476Y-70302438D02*
X159588095Y-70350057D01*
X159588095Y-70350057D02*
X159635714Y-70445295D01*
X159635714Y-70445295D02*
X159635714Y-70492914D01*
X159635714Y-70492914D02*
X159588095Y-70588152D01*
X159588095Y-70588152D02*
X159540476Y-70635771D01*
X159540476Y-70635771D02*
X159445238Y-70683390D01*
X159445238Y-70683390D02*
X159254762Y-70683390D01*
X159254762Y-70683390D02*
X159159524Y-70731009D01*
X159159524Y-70731009D02*
X159111905Y-70778628D01*
X159111905Y-70778628D02*
X159064286Y-70873866D01*
X159064286Y-70873866D02*
X159064286Y-71064342D01*
X159064286Y-71064342D02*
X159111905Y-71159580D01*
X159111905Y-71159580D02*
X159159524Y-71207200D01*
X159159524Y-71207200D02*
X159254762Y-71254819D01*
X159254762Y-71254819D02*
X159445238Y-71254819D01*
X159445238Y-71254819D02*
X159540476Y-71207200D01*
X159540476Y-71207200D02*
X159588095Y-71159580D01*
X159588095Y-71159580D02*
X159635714Y-71064342D01*
X159635714Y-71064342D02*
X159635714Y-70873866D01*
X159635714Y-70873866D02*
X159588095Y-70778628D01*
X159588095Y-70778628D02*
X159540476Y-70731009D01*
X159540476Y-70731009D02*
X159445238Y-70683390D01*
X170754819Y-80411904D02*
X171564342Y-80411904D01*
X171564342Y-80411904D02*
X171659580Y-80364285D01*
X171659580Y-80364285D02*
X171707200Y-80316666D01*
X171707200Y-80316666D02*
X171754819Y-80221428D01*
X171754819Y-80221428D02*
X171754819Y-80030952D01*
X171754819Y-80030952D02*
X171707200Y-79935714D01*
X171707200Y-79935714D02*
X171659580Y-79888095D01*
X171659580Y-79888095D02*
X171564342Y-79840476D01*
X171564342Y-79840476D02*
X170754819Y-79840476D01*
X170754819Y-78888095D02*
X170754819Y-79364285D01*
X170754819Y-79364285D02*
X171231009Y-79411904D01*
X171231009Y-79411904D02*
X171183390Y-79364285D01*
X171183390Y-79364285D02*
X171135771Y-79269047D01*
X171135771Y-79269047D02*
X171135771Y-79030952D01*
X171135771Y-79030952D02*
X171183390Y-78935714D01*
X171183390Y-78935714D02*
X171231009Y-78888095D01*
X171231009Y-78888095D02*
X171326247Y-78840476D01*
X171326247Y-78840476D02*
X171564342Y-78840476D01*
X171564342Y-78840476D02*
X171659580Y-78888095D01*
X171659580Y-78888095D02*
X171707200Y-78935714D01*
X171707200Y-78935714D02*
X171754819Y-79030952D01*
X171754819Y-79030952D02*
X171754819Y-79269047D01*
X171754819Y-79269047D02*
X171707200Y-79364285D01*
X171707200Y-79364285D02*
X171659580Y-79411904D01*
X141485714Y-73904819D02*
X141485714Y-72904819D01*
X141485714Y-72904819D02*
X141723809Y-72904819D01*
X141723809Y-72904819D02*
X141866666Y-72952438D01*
X141866666Y-72952438D02*
X141961904Y-73047676D01*
X141961904Y-73047676D02*
X142009523Y-73142914D01*
X142009523Y-73142914D02*
X142057142Y-73333390D01*
X142057142Y-73333390D02*
X142057142Y-73476247D01*
X142057142Y-73476247D02*
X142009523Y-73666723D01*
X142009523Y-73666723D02*
X141961904Y-73761961D01*
X141961904Y-73761961D02*
X141866666Y-73857200D01*
X141866666Y-73857200D02*
X141723809Y-73904819D01*
X141723809Y-73904819D02*
X141485714Y-73904819D01*
X143009523Y-73904819D02*
X142438095Y-73904819D01*
X142723809Y-73904819D02*
X142723809Y-72904819D01*
X142723809Y-72904819D02*
X142628571Y-73047676D01*
X142628571Y-73047676D02*
X142533333Y-73142914D01*
X142533333Y-73142914D02*
X142438095Y-73190533D01*
X143628571Y-72904819D02*
X143723809Y-72904819D01*
X143723809Y-72904819D02*
X143819047Y-72952438D01*
X143819047Y-72952438D02*
X143866666Y-73000057D01*
X143866666Y-73000057D02*
X143914285Y-73095295D01*
X143914285Y-73095295D02*
X143961904Y-73285771D01*
X143961904Y-73285771D02*
X143961904Y-73523866D01*
X143961904Y-73523866D02*
X143914285Y-73714342D01*
X143914285Y-73714342D02*
X143866666Y-73809580D01*
X143866666Y-73809580D02*
X143819047Y-73857200D01*
X143819047Y-73857200D02*
X143723809Y-73904819D01*
X143723809Y-73904819D02*
X143628571Y-73904819D01*
X143628571Y-73904819D02*
X143533333Y-73857200D01*
X143533333Y-73857200D02*
X143485714Y-73809580D01*
X143485714Y-73809580D02*
X143438095Y-73714342D01*
X143438095Y-73714342D02*
X143390476Y-73523866D01*
X143390476Y-73523866D02*
X143390476Y-73285771D01*
X143390476Y-73285771D02*
X143438095Y-73095295D01*
X143438095Y-73095295D02*
X143485714Y-73000057D01*
X143485714Y-73000057D02*
X143533333Y-72952438D01*
X143533333Y-72952438D02*
X143628571Y-72904819D01*
X151314819Y-89611904D02*
X152124342Y-89611904D01*
X152124342Y-89611904D02*
X152219580Y-89564285D01*
X152219580Y-89564285D02*
X152267200Y-89516666D01*
X152267200Y-89516666D02*
X152314819Y-89421428D01*
X152314819Y-89421428D02*
X152314819Y-89230952D01*
X152314819Y-89230952D02*
X152267200Y-89135714D01*
X152267200Y-89135714D02*
X152219580Y-89088095D01*
X152219580Y-89088095D02*
X152124342Y-89040476D01*
X152124342Y-89040476D02*
X151314819Y-89040476D01*
X152314819Y-88040476D02*
X152314819Y-88611904D01*
X152314819Y-88326190D02*
X151314819Y-88326190D01*
X151314819Y-88326190D02*
X151457676Y-88421428D01*
X151457676Y-88421428D02*
X151552914Y-88516666D01*
X151552914Y-88516666D02*
X151600533Y-88611904D01*
X145983333Y-75204819D02*
X145650000Y-74728628D01*
X145411905Y-75204819D02*
X145411905Y-74204819D01*
X145411905Y-74204819D02*
X145792857Y-74204819D01*
X145792857Y-74204819D02*
X145888095Y-74252438D01*
X145888095Y-74252438D02*
X145935714Y-74300057D01*
X145935714Y-74300057D02*
X145983333Y-74395295D01*
X145983333Y-74395295D02*
X145983333Y-74538152D01*
X145983333Y-74538152D02*
X145935714Y-74633390D01*
X145935714Y-74633390D02*
X145888095Y-74681009D01*
X145888095Y-74681009D02*
X145792857Y-74728628D01*
X145792857Y-74728628D02*
X145411905Y-74728628D01*
X146316667Y-74204819D02*
X146935714Y-74204819D01*
X146935714Y-74204819D02*
X146602381Y-74585771D01*
X146602381Y-74585771D02*
X146745238Y-74585771D01*
X146745238Y-74585771D02*
X146840476Y-74633390D01*
X146840476Y-74633390D02*
X146888095Y-74681009D01*
X146888095Y-74681009D02*
X146935714Y-74776247D01*
X146935714Y-74776247D02*
X146935714Y-75014342D01*
X146935714Y-75014342D02*
X146888095Y-75109580D01*
X146888095Y-75109580D02*
X146840476Y-75157200D01*
X146840476Y-75157200D02*
X146745238Y-75204819D01*
X146745238Y-75204819D02*
X146459524Y-75204819D01*
X146459524Y-75204819D02*
X146364286Y-75157200D01*
X146364286Y-75157200D02*
X146316667Y-75109580D01*
X101581667Y-68424819D02*
X101581667Y-67424819D01*
X101581667Y-67424819D02*
X101915000Y-68139104D01*
X101915000Y-68139104D02*
X102248333Y-67424819D01*
X102248333Y-67424819D02*
X102248333Y-68424819D01*
X102915000Y-67424819D02*
X103105476Y-67424819D01*
X103105476Y-67424819D02*
X103200714Y-67472438D01*
X103200714Y-67472438D02*
X103295952Y-67567676D01*
X103295952Y-67567676D02*
X103343571Y-67758152D01*
X103343571Y-67758152D02*
X103343571Y-68091485D01*
X103343571Y-68091485D02*
X103295952Y-68281961D01*
X103295952Y-68281961D02*
X103200714Y-68377200D01*
X103200714Y-68377200D02*
X103105476Y-68424819D01*
X103105476Y-68424819D02*
X102915000Y-68424819D01*
X102915000Y-68424819D02*
X102819762Y-68377200D01*
X102819762Y-68377200D02*
X102724524Y-68281961D01*
X102724524Y-68281961D02*
X102676905Y-68091485D01*
X102676905Y-68091485D02*
X102676905Y-67758152D01*
X102676905Y-67758152D02*
X102724524Y-67567676D01*
X102724524Y-67567676D02*
X102819762Y-67472438D01*
X102819762Y-67472438D02*
X102915000Y-67424819D01*
X103772143Y-68424819D02*
X103772143Y-67424819D01*
X103772143Y-67424819D02*
X104010238Y-67424819D01*
X104010238Y-67424819D02*
X104153095Y-67472438D01*
X104153095Y-67472438D02*
X104248333Y-67567676D01*
X104248333Y-67567676D02*
X104295952Y-67662914D01*
X104295952Y-67662914D02*
X104343571Y-67853390D01*
X104343571Y-67853390D02*
X104343571Y-67996247D01*
X104343571Y-67996247D02*
X104295952Y-68186723D01*
X104295952Y-68186723D02*
X104248333Y-68281961D01*
X104248333Y-68281961D02*
X104153095Y-68377200D01*
X104153095Y-68377200D02*
X104010238Y-68424819D01*
X104010238Y-68424819D02*
X103772143Y-68424819D01*
X105295952Y-68424819D02*
X104724524Y-68424819D01*
X105010238Y-68424819D02*
X105010238Y-67424819D01*
X105010238Y-67424819D02*
X104915000Y-67567676D01*
X104915000Y-67567676D02*
X104819762Y-67662914D01*
X104819762Y-67662914D02*
X104724524Y-67710533D01*
D12*
X102265851Y-134711619D02*
X104170613Y-134711619D01*
X101884899Y-135854476D02*
X103218232Y-131854476D01*
X103218232Y-131854476D02*
X104551566Y-135854476D01*
X199802042Y-62564523D02*
X199611566Y-62755000D01*
X199611566Y-62755000D02*
X199040137Y-62945476D01*
X199040137Y-62945476D02*
X198659185Y-62945476D01*
X198659185Y-62945476D02*
X198087756Y-62755000D01*
X198087756Y-62755000D02*
X197706804Y-62374047D01*
X197706804Y-62374047D02*
X197516327Y-61993095D01*
X197516327Y-61993095D02*
X197325851Y-61231190D01*
X197325851Y-61231190D02*
X197325851Y-60659761D01*
X197325851Y-60659761D02*
X197516327Y-59897857D01*
X197516327Y-59897857D02*
X197706804Y-59516904D01*
X197706804Y-59516904D02*
X198087756Y-59135952D01*
X198087756Y-59135952D02*
X198659185Y-58945476D01*
X198659185Y-58945476D02*
X199040137Y-58945476D01*
X199040137Y-58945476D02*
X199611566Y-59135952D01*
X199611566Y-59135952D02*
X199802042Y-59326428D01*
X198849661Y-133569238D02*
X199421089Y-133759714D01*
X199421089Y-133759714D02*
X199611566Y-133950190D01*
X199611566Y-133950190D02*
X199802042Y-134331142D01*
X199802042Y-134331142D02*
X199802042Y-134902571D01*
X199802042Y-134902571D02*
X199611566Y-135283523D01*
X199611566Y-135283523D02*
X199421089Y-135474000D01*
X199421089Y-135474000D02*
X199040137Y-135664476D01*
X199040137Y-135664476D02*
X197516327Y-135664476D01*
X197516327Y-135664476D02*
X197516327Y-131664476D01*
X197516327Y-131664476D02*
X198849661Y-131664476D01*
X198849661Y-131664476D02*
X199230613Y-131854952D01*
X199230613Y-131854952D02*
X199421089Y-132045428D01*
X199421089Y-132045428D02*
X199611566Y-132426380D01*
X199611566Y-132426380D02*
X199611566Y-132807333D01*
X199611566Y-132807333D02*
X199421089Y-133188285D01*
X199421089Y-133188285D02*
X199230613Y-133378761D01*
X199230613Y-133378761D02*
X198849661Y-133569238D01*
X198849661Y-133569238D02*
X197516327Y-133569238D01*
X102456327Y-62854476D02*
X102456327Y-58854476D01*
X102456327Y-58854476D02*
X103408708Y-58854476D01*
X103408708Y-58854476D02*
X103980137Y-59044952D01*
X103980137Y-59044952D02*
X104361089Y-59425904D01*
X104361089Y-59425904D02*
X104551566Y-59806857D01*
X104551566Y-59806857D02*
X104742042Y-60568761D01*
X104742042Y-60568761D02*
X104742042Y-61140190D01*
X104742042Y-61140190D02*
X104551566Y-61902095D01*
X104551566Y-61902095D02*
X104361089Y-62283047D01*
X104361089Y-62283047D02*
X103980137Y-62664000D01*
X103980137Y-62664000D02*
X103408708Y-62854476D01*
X103408708Y-62854476D02*
X102456327Y-62854476D01*
D11*
X169304819Y-80461904D02*
X170114342Y-80461904D01*
X170114342Y-80461904D02*
X170209580Y-80414285D01*
X170209580Y-80414285D02*
X170257200Y-80366666D01*
X170257200Y-80366666D02*
X170304819Y-80271428D01*
X170304819Y-80271428D02*
X170304819Y-80080952D01*
X170304819Y-80080952D02*
X170257200Y-79985714D01*
X170257200Y-79985714D02*
X170209580Y-79938095D01*
X170209580Y-79938095D02*
X170114342Y-79890476D01*
X170114342Y-79890476D02*
X169304819Y-79890476D01*
X169638152Y-78985714D02*
X170304819Y-78985714D01*
X169257200Y-79223809D02*
X169971485Y-79461904D01*
X169971485Y-79461904D02*
X169971485Y-78842857D01*
X195354819Y-92916666D02*
X194878628Y-93249999D01*
X195354819Y-93488094D02*
X194354819Y-93488094D01*
X194354819Y-93488094D02*
X194354819Y-93107142D01*
X194354819Y-93107142D02*
X194402438Y-93011904D01*
X194402438Y-93011904D02*
X194450057Y-92964285D01*
X194450057Y-92964285D02*
X194545295Y-92916666D01*
X194545295Y-92916666D02*
X194688152Y-92916666D01*
X194688152Y-92916666D02*
X194783390Y-92964285D01*
X194783390Y-92964285D02*
X194831009Y-93011904D01*
X194831009Y-93011904D02*
X194878628Y-93107142D01*
X194878628Y-93107142D02*
X194878628Y-93488094D01*
X194354819Y-92583332D02*
X194354819Y-91916666D01*
X194354819Y-91916666D02*
X195354819Y-92345237D01*
X113409580Y-68116666D02*
X113457200Y-68164285D01*
X113457200Y-68164285D02*
X113504819Y-68307142D01*
X113504819Y-68307142D02*
X113504819Y-68402380D01*
X113504819Y-68402380D02*
X113457200Y-68545237D01*
X113457200Y-68545237D02*
X113361961Y-68640475D01*
X113361961Y-68640475D02*
X113266723Y-68688094D01*
X113266723Y-68688094D02*
X113076247Y-68735713D01*
X113076247Y-68735713D02*
X112933390Y-68735713D01*
X112933390Y-68735713D02*
X112742914Y-68688094D01*
X112742914Y-68688094D02*
X112647676Y-68640475D01*
X112647676Y-68640475D02*
X112552438Y-68545237D01*
X112552438Y-68545237D02*
X112504819Y-68402380D01*
X112504819Y-68402380D02*
X112504819Y-68307142D01*
X112504819Y-68307142D02*
X112552438Y-68164285D01*
X112552438Y-68164285D02*
X112600057Y-68116666D01*
X112600057Y-67735713D02*
X112552438Y-67688094D01*
X112552438Y-67688094D02*
X112504819Y-67592856D01*
X112504819Y-67592856D02*
X112504819Y-67354761D01*
X112504819Y-67354761D02*
X112552438Y-67259523D01*
X112552438Y-67259523D02*
X112600057Y-67211904D01*
X112600057Y-67211904D02*
X112695295Y-67164285D01*
X112695295Y-67164285D02*
X112790533Y-67164285D01*
X112790533Y-67164285D02*
X112933390Y-67211904D01*
X112933390Y-67211904D02*
X113504819Y-67783332D01*
X113504819Y-67783332D02*
X113504819Y-67164285D01*
X119538095Y-66804819D02*
X119538095Y-67614342D01*
X119538095Y-67614342D02*
X119585714Y-67709580D01*
X119585714Y-67709580D02*
X119633333Y-67757200D01*
X119633333Y-67757200D02*
X119728571Y-67804819D01*
X119728571Y-67804819D02*
X119919047Y-67804819D01*
X119919047Y-67804819D02*
X120014285Y-67757200D01*
X120014285Y-67757200D02*
X120061904Y-67709580D01*
X120061904Y-67709580D02*
X120109523Y-67614342D01*
X120109523Y-67614342D02*
X120109523Y-66804819D01*
X120490476Y-66804819D02*
X121109523Y-66804819D01*
X121109523Y-66804819D02*
X120776190Y-67185771D01*
X120776190Y-67185771D02*
X120919047Y-67185771D01*
X120919047Y-67185771D02*
X121014285Y-67233390D01*
X121014285Y-67233390D02*
X121061904Y-67281009D01*
X121061904Y-67281009D02*
X121109523Y-67376247D01*
X121109523Y-67376247D02*
X121109523Y-67614342D01*
X121109523Y-67614342D02*
X121061904Y-67709580D01*
X121061904Y-67709580D02*
X121014285Y-67757200D01*
X121014285Y-67757200D02*
X120919047Y-67804819D01*
X120919047Y-67804819D02*
X120633333Y-67804819D01*
X120633333Y-67804819D02*
X120538095Y-67757200D01*
X120538095Y-67757200D02*
X120490476Y-67709580D01*
X153861905Y-108027319D02*
X153861905Y-107027319D01*
X154433333Y-108027319D02*
X154004762Y-107455890D01*
X154433333Y-107027319D02*
X153861905Y-107598747D01*
X154766667Y-107027319D02*
X155385714Y-107027319D01*
X155385714Y-107027319D02*
X155052381Y-107408271D01*
X155052381Y-107408271D02*
X155195238Y-107408271D01*
X155195238Y-107408271D02*
X155290476Y-107455890D01*
X155290476Y-107455890D02*
X155338095Y-107503509D01*
X155338095Y-107503509D02*
X155385714Y-107598747D01*
X155385714Y-107598747D02*
X155385714Y-107836842D01*
X155385714Y-107836842D02*
X155338095Y-107932080D01*
X155338095Y-107932080D02*
X155290476Y-107979700D01*
X155290476Y-107979700D02*
X155195238Y-108027319D01*
X155195238Y-108027319D02*
X154909524Y-108027319D01*
X154909524Y-108027319D02*
X154814286Y-107979700D01*
X154814286Y-107979700D02*
X154766667Y-107932080D01*
X193104819Y-73142857D02*
X192628628Y-73476190D01*
X193104819Y-73714285D02*
X192104819Y-73714285D01*
X192104819Y-73714285D02*
X192104819Y-73333333D01*
X192104819Y-73333333D02*
X192152438Y-73238095D01*
X192152438Y-73238095D02*
X192200057Y-73190476D01*
X192200057Y-73190476D02*
X192295295Y-73142857D01*
X192295295Y-73142857D02*
X192438152Y-73142857D01*
X192438152Y-73142857D02*
X192533390Y-73190476D01*
X192533390Y-73190476D02*
X192581009Y-73238095D01*
X192581009Y-73238095D02*
X192628628Y-73333333D01*
X192628628Y-73333333D02*
X192628628Y-73714285D01*
X193104819Y-72190476D02*
X193104819Y-72761904D01*
X193104819Y-72476190D02*
X192104819Y-72476190D01*
X192104819Y-72476190D02*
X192247676Y-72571428D01*
X192247676Y-72571428D02*
X192342914Y-72666666D01*
X192342914Y-72666666D02*
X192390533Y-72761904D01*
X193104819Y-71238095D02*
X193104819Y-71809523D01*
X193104819Y-71523809D02*
X192104819Y-71523809D01*
X192104819Y-71523809D02*
X192247676Y-71619047D01*
X192247676Y-71619047D02*
X192342914Y-71714285D01*
X192342914Y-71714285D02*
X192390533Y-71809523D01*
X177204819Y-73192857D02*
X176728628Y-73526190D01*
X177204819Y-73764285D02*
X176204819Y-73764285D01*
X176204819Y-73764285D02*
X176204819Y-73383333D01*
X176204819Y-73383333D02*
X176252438Y-73288095D01*
X176252438Y-73288095D02*
X176300057Y-73240476D01*
X176300057Y-73240476D02*
X176395295Y-73192857D01*
X176395295Y-73192857D02*
X176538152Y-73192857D01*
X176538152Y-73192857D02*
X176633390Y-73240476D01*
X176633390Y-73240476D02*
X176681009Y-73288095D01*
X176681009Y-73288095D02*
X176728628Y-73383333D01*
X176728628Y-73383333D02*
X176728628Y-73764285D01*
X177204819Y-72240476D02*
X177204819Y-72811904D01*
X177204819Y-72526190D02*
X176204819Y-72526190D01*
X176204819Y-72526190D02*
X176347676Y-72621428D01*
X176347676Y-72621428D02*
X176442914Y-72716666D01*
X176442914Y-72716666D02*
X176490533Y-72811904D01*
X176204819Y-71907142D02*
X176204819Y-71288095D01*
X176204819Y-71288095D02*
X176585771Y-71621428D01*
X176585771Y-71621428D02*
X176585771Y-71478571D01*
X176585771Y-71478571D02*
X176633390Y-71383333D01*
X176633390Y-71383333D02*
X176681009Y-71335714D01*
X176681009Y-71335714D02*
X176776247Y-71288095D01*
X176776247Y-71288095D02*
X177014342Y-71288095D01*
X177014342Y-71288095D02*
X177109580Y-71335714D01*
X177109580Y-71335714D02*
X177157200Y-71383333D01*
X177157200Y-71383333D02*
X177204819Y-71478571D01*
X177204819Y-71478571D02*
X177204819Y-71764285D01*
X177204819Y-71764285D02*
X177157200Y-71859523D01*
X177157200Y-71859523D02*
X177109580Y-71907142D01*
X152161905Y-74604819D02*
X152161905Y-73604819D01*
X152161905Y-73604819D02*
X152400000Y-73604819D01*
X152400000Y-73604819D02*
X152542857Y-73652438D01*
X152542857Y-73652438D02*
X152638095Y-73747676D01*
X152638095Y-73747676D02*
X152685714Y-73842914D01*
X152685714Y-73842914D02*
X152733333Y-74033390D01*
X152733333Y-74033390D02*
X152733333Y-74176247D01*
X152733333Y-74176247D02*
X152685714Y-74366723D01*
X152685714Y-74366723D02*
X152638095Y-74461961D01*
X152638095Y-74461961D02*
X152542857Y-74557200D01*
X152542857Y-74557200D02*
X152400000Y-74604819D01*
X152400000Y-74604819D02*
X152161905Y-74604819D01*
X153590476Y-73604819D02*
X153400000Y-73604819D01*
X153400000Y-73604819D02*
X153304762Y-73652438D01*
X153304762Y-73652438D02*
X153257143Y-73700057D01*
X153257143Y-73700057D02*
X153161905Y-73842914D01*
X153161905Y-73842914D02*
X153114286Y-74033390D01*
X153114286Y-74033390D02*
X153114286Y-74414342D01*
X153114286Y-74414342D02*
X153161905Y-74509580D01*
X153161905Y-74509580D02*
X153209524Y-74557200D01*
X153209524Y-74557200D02*
X153304762Y-74604819D01*
X153304762Y-74604819D02*
X153495238Y-74604819D01*
X153495238Y-74604819D02*
X153590476Y-74557200D01*
X153590476Y-74557200D02*
X153638095Y-74509580D01*
X153638095Y-74509580D02*
X153685714Y-74414342D01*
X153685714Y-74414342D02*
X153685714Y-74176247D01*
X153685714Y-74176247D02*
X153638095Y-74081009D01*
X153638095Y-74081009D02*
X153590476Y-74033390D01*
X153590476Y-74033390D02*
X153495238Y-73985771D01*
X153495238Y-73985771D02*
X153304762Y-73985771D01*
X153304762Y-73985771D02*
X153209524Y-74033390D01*
X153209524Y-74033390D02*
X153161905Y-74081009D01*
X153161905Y-74081009D02*
X153114286Y-74176247D01*
X135509580Y-78966666D02*
X135557200Y-79014285D01*
X135557200Y-79014285D02*
X135604819Y-79157142D01*
X135604819Y-79157142D02*
X135604819Y-79252380D01*
X135604819Y-79252380D02*
X135557200Y-79395237D01*
X135557200Y-79395237D02*
X135461961Y-79490475D01*
X135461961Y-79490475D02*
X135366723Y-79538094D01*
X135366723Y-79538094D02*
X135176247Y-79585713D01*
X135176247Y-79585713D02*
X135033390Y-79585713D01*
X135033390Y-79585713D02*
X134842914Y-79538094D01*
X134842914Y-79538094D02*
X134747676Y-79490475D01*
X134747676Y-79490475D02*
X134652438Y-79395237D01*
X134652438Y-79395237D02*
X134604819Y-79252380D01*
X134604819Y-79252380D02*
X134604819Y-79157142D01*
X134604819Y-79157142D02*
X134652438Y-79014285D01*
X134652438Y-79014285D02*
X134700057Y-78966666D01*
X134938152Y-78109523D02*
X135604819Y-78109523D01*
X134557200Y-78347618D02*
X135271485Y-78585713D01*
X135271485Y-78585713D02*
X135271485Y-77966666D01*
X189604819Y-92916666D02*
X189128628Y-93249999D01*
X189604819Y-93488094D02*
X188604819Y-93488094D01*
X188604819Y-93488094D02*
X188604819Y-93107142D01*
X188604819Y-93107142D02*
X188652438Y-93011904D01*
X188652438Y-93011904D02*
X188700057Y-92964285D01*
X188700057Y-92964285D02*
X188795295Y-92916666D01*
X188795295Y-92916666D02*
X188938152Y-92916666D01*
X188938152Y-92916666D02*
X189033390Y-92964285D01*
X189033390Y-92964285D02*
X189081009Y-93011904D01*
X189081009Y-93011904D02*
X189128628Y-93107142D01*
X189128628Y-93107142D02*
X189128628Y-93488094D01*
X188604819Y-92011904D02*
X188604819Y-92488094D01*
X188604819Y-92488094D02*
X189081009Y-92535713D01*
X189081009Y-92535713D02*
X189033390Y-92488094D01*
X189033390Y-92488094D02*
X188985771Y-92392856D01*
X188985771Y-92392856D02*
X188985771Y-92154761D01*
X188985771Y-92154761D02*
X189033390Y-92059523D01*
X189033390Y-92059523D02*
X189081009Y-92011904D01*
X189081009Y-92011904D02*
X189176247Y-91964285D01*
X189176247Y-91964285D02*
X189414342Y-91964285D01*
X189414342Y-91964285D02*
X189509580Y-92011904D01*
X189509580Y-92011904D02*
X189557200Y-92059523D01*
X189557200Y-92059523D02*
X189604819Y-92154761D01*
X189604819Y-92154761D02*
X189604819Y-92392856D01*
X189604819Y-92392856D02*
X189557200Y-92488094D01*
X189557200Y-92488094D02*
X189509580Y-92535713D01*
X128059580Y-69816666D02*
X128107200Y-69864285D01*
X128107200Y-69864285D02*
X128154819Y-70007142D01*
X128154819Y-70007142D02*
X128154819Y-70102380D01*
X128154819Y-70102380D02*
X128107200Y-70245237D01*
X128107200Y-70245237D02*
X128011961Y-70340475D01*
X128011961Y-70340475D02*
X127916723Y-70388094D01*
X127916723Y-70388094D02*
X127726247Y-70435713D01*
X127726247Y-70435713D02*
X127583390Y-70435713D01*
X127583390Y-70435713D02*
X127392914Y-70388094D01*
X127392914Y-70388094D02*
X127297676Y-70340475D01*
X127297676Y-70340475D02*
X127202438Y-70245237D01*
X127202438Y-70245237D02*
X127154819Y-70102380D01*
X127154819Y-70102380D02*
X127154819Y-70007142D01*
X127154819Y-70007142D02*
X127202438Y-69864285D01*
X127202438Y-69864285D02*
X127250057Y-69816666D01*
X128154819Y-68864285D02*
X128154819Y-69435713D01*
X128154819Y-69149999D02*
X127154819Y-69149999D01*
X127154819Y-69149999D02*
X127297676Y-69245237D01*
X127297676Y-69245237D02*
X127392914Y-69340475D01*
X127392914Y-69340475D02*
X127440533Y-69435713D01*
X152759580Y-95766666D02*
X152807200Y-95814285D01*
X152807200Y-95814285D02*
X152854819Y-95957142D01*
X152854819Y-95957142D02*
X152854819Y-96052380D01*
X152854819Y-96052380D02*
X152807200Y-96195237D01*
X152807200Y-96195237D02*
X152711961Y-96290475D01*
X152711961Y-96290475D02*
X152616723Y-96338094D01*
X152616723Y-96338094D02*
X152426247Y-96385713D01*
X152426247Y-96385713D02*
X152283390Y-96385713D01*
X152283390Y-96385713D02*
X152092914Y-96338094D01*
X152092914Y-96338094D02*
X151997676Y-96290475D01*
X151997676Y-96290475D02*
X151902438Y-96195237D01*
X151902438Y-96195237D02*
X151854819Y-96052380D01*
X151854819Y-96052380D02*
X151854819Y-95957142D01*
X151854819Y-95957142D02*
X151902438Y-95814285D01*
X151902438Y-95814285D02*
X151950057Y-95766666D01*
X151854819Y-95433332D02*
X151854819Y-94814285D01*
X151854819Y-94814285D02*
X152235771Y-95147618D01*
X152235771Y-95147618D02*
X152235771Y-95004761D01*
X152235771Y-95004761D02*
X152283390Y-94909523D01*
X152283390Y-94909523D02*
X152331009Y-94861904D01*
X152331009Y-94861904D02*
X152426247Y-94814285D01*
X152426247Y-94814285D02*
X152664342Y-94814285D01*
X152664342Y-94814285D02*
X152759580Y-94861904D01*
X152759580Y-94861904D02*
X152807200Y-94909523D01*
X152807200Y-94909523D02*
X152854819Y-95004761D01*
X152854819Y-95004761D02*
X152854819Y-95290475D01*
X152854819Y-95290475D02*
X152807200Y-95385713D01*
X152807200Y-95385713D02*
X152759580Y-95433332D01*
X191154819Y-73192857D02*
X190678628Y-73526190D01*
X191154819Y-73764285D02*
X190154819Y-73764285D01*
X190154819Y-73764285D02*
X190154819Y-73383333D01*
X190154819Y-73383333D02*
X190202438Y-73288095D01*
X190202438Y-73288095D02*
X190250057Y-73240476D01*
X190250057Y-73240476D02*
X190345295Y-73192857D01*
X190345295Y-73192857D02*
X190488152Y-73192857D01*
X190488152Y-73192857D02*
X190583390Y-73240476D01*
X190583390Y-73240476D02*
X190631009Y-73288095D01*
X190631009Y-73288095D02*
X190678628Y-73383333D01*
X190678628Y-73383333D02*
X190678628Y-73764285D01*
X191154819Y-72240476D02*
X191154819Y-72811904D01*
X191154819Y-72526190D02*
X190154819Y-72526190D01*
X190154819Y-72526190D02*
X190297676Y-72621428D01*
X190297676Y-72621428D02*
X190392914Y-72716666D01*
X190392914Y-72716666D02*
X190440533Y-72811904D01*
X190154819Y-71335714D02*
X190154819Y-71811904D01*
X190154819Y-71811904D02*
X190631009Y-71859523D01*
X190631009Y-71859523D02*
X190583390Y-71811904D01*
X190583390Y-71811904D02*
X190535771Y-71716666D01*
X190535771Y-71716666D02*
X190535771Y-71478571D01*
X190535771Y-71478571D02*
X190583390Y-71383333D01*
X190583390Y-71383333D02*
X190631009Y-71335714D01*
X190631009Y-71335714D02*
X190726247Y-71288095D01*
X190726247Y-71288095D02*
X190964342Y-71288095D01*
X190964342Y-71288095D02*
X191059580Y-71335714D01*
X191059580Y-71335714D02*
X191107200Y-71383333D01*
X191107200Y-71383333D02*
X191154819Y-71478571D01*
X191154819Y-71478571D02*
X191154819Y-71716666D01*
X191154819Y-71716666D02*
X191107200Y-71811904D01*
X191107200Y-71811904D02*
X191059580Y-71859523D01*
D13*
%TO.C,J1*%
X129595000Y-70745000D02*
X129595000Y-69415000D01*
X130925000Y-70745000D02*
X129595000Y-70745000D01*
X132195000Y-68085000D02*
X142415000Y-68085000D01*
X132195000Y-70745000D02*
X132195000Y-68085000D01*
X132195000Y-70745000D02*
X142415000Y-70745000D01*
X142415000Y-70745000D02*
X142415000Y-68085000D01*
%TO.C,U7*%
X192675000Y-78715000D02*
X192675000Y-85185000D01*
X192675000Y-85185000D02*
X197875000Y-85185000D01*
X197875000Y-78715000D02*
X192675000Y-78715000D01*
X197875000Y-80950000D02*
X197875000Y-78715000D01*
X197875000Y-85185000D02*
X197875000Y-82950000D01*
X197875000Y-82950000D02*
G75*
G02*
X197875000Y-80950000I0J1000000D01*
G01*
%TO.C,C5*%
X106640000Y-75604437D02*
X106640000Y-81360000D01*
X106640000Y-81360000D02*
X108990000Y-81360000D01*
X107704437Y-74540000D02*
X106640000Y-75604437D01*
X107704437Y-74540000D02*
X108990000Y-74540000D01*
X111897500Y-73512500D02*
X111897500Y-74300000D01*
X112291250Y-73906250D02*
X111503750Y-73906250D01*
X112395563Y-74540000D02*
X111110000Y-74540000D01*
X112395563Y-74540000D02*
X113460000Y-75604437D01*
X113460000Y-75604437D02*
X113460000Y-81360000D01*
X113460000Y-81360000D02*
X111110000Y-81360000D01*
%TO.C,R6*%
X184015000Y-92977064D02*
X184015000Y-92522936D01*
X185485000Y-92977064D02*
X185485000Y-92522936D01*
%TO.C,K2*%
X128950000Y-104972500D02*
X128950000Y-127672500D01*
X128950000Y-127672500D02*
X145650000Y-127672500D01*
X132800000Y-109822500D02*
X135950000Y-109822500D01*
X136300000Y-104712500D02*
X138300000Y-104712500D01*
X136950000Y-109222500D02*
X136950000Y-110422500D01*
X136950000Y-110022500D02*
X137650000Y-109622500D01*
X136950000Y-110422500D02*
X137650000Y-110422500D01*
X137650000Y-109222500D02*
X136950000Y-109222500D01*
X137650000Y-110422500D02*
X137650000Y-109222500D01*
X138650000Y-109822500D02*
X141800000Y-109822500D01*
X145650000Y-104972500D02*
X128950000Y-104972500D01*
X145650000Y-127672500D02*
X145650000Y-104972500D01*
%TO.C,R2*%
X150027064Y-72115000D02*
X149572936Y-72115000D01*
X150027064Y-73585000D02*
X149572936Y-73585000D01*
%TO.C,D9*%
X143140000Y-67200000D02*
X143140000Y-69200000D01*
X143140000Y-67200000D02*
X147150000Y-67200000D01*
X143140000Y-69200000D02*
X147150000Y-69200000D01*
%TO.C,U2*%
X116665000Y-90475000D02*
X116665000Y-88525000D01*
X116665000Y-90475000D02*
X116665000Y-92425000D01*
X126785000Y-90475000D02*
X126785000Y-88525000D01*
X126785000Y-90475000D02*
X126785000Y-92425000D01*
X127060000Y-88015000D02*
X126730000Y-87775000D01*
X127060000Y-87535000D01*
X127060000Y-88015000D01*
G36*
X127060000Y-88015000D02*
G01*
X126730000Y-87775000D01*
X127060000Y-87535000D01*
X127060000Y-88015000D01*
G37*
%TO.C,R9*%
X182965000Y-69527064D02*
X182965000Y-69072936D01*
X184435000Y-69527064D02*
X184435000Y-69072936D01*
%TO.C,K4*%
X175500000Y-104972500D02*
X175500000Y-127672500D01*
X175500000Y-127672500D02*
X192200000Y-127672500D01*
X179350000Y-109822500D02*
X182500000Y-109822500D01*
X182850000Y-104712500D02*
X184850000Y-104712500D01*
X183500000Y-109222500D02*
X183500000Y-110422500D01*
X183500000Y-110022500D02*
X184200000Y-109622500D01*
X183500000Y-110422500D02*
X184200000Y-110422500D01*
X184200000Y-109222500D02*
X183500000Y-109222500D01*
X184200000Y-110422500D02*
X184200000Y-109222500D01*
X185200000Y-109822500D02*
X188350000Y-109822500D01*
X192200000Y-104972500D02*
X175500000Y-104972500D01*
X192200000Y-127672500D02*
X192200000Y-104972500D01*
%TO.C,R14*%
X180765000Y-69527064D02*
X180765000Y-69072936D01*
X182235000Y-69527064D02*
X182235000Y-69072936D01*
%TO.C,R8*%
X187965000Y-69427064D02*
X187965000Y-68972936D01*
X189435000Y-69427064D02*
X189435000Y-68972936D01*
%TO.C,U6*%
X186925000Y-78715000D02*
X186925000Y-85185000D01*
X186925000Y-85185000D02*
X192125000Y-85185000D01*
X192125000Y-78715000D02*
X186925000Y-78715000D01*
X192125000Y-80950000D02*
X192125000Y-78715000D01*
X192125000Y-85185000D02*
X192125000Y-82950000D01*
X192125000Y-82950000D02*
G75*
G02*
X192125000Y-80950000I0J1000000D01*
G01*
%TO.C,R1*%
X155922936Y-72265000D02*
X156377064Y-72265000D01*
X155922936Y-73735000D02*
X156377064Y-73735000D01*
%TO.C,R4*%
X178515000Y-92977064D02*
X178515000Y-92522936D01*
X179985000Y-92977064D02*
X179985000Y-92522936D01*
%TO.C,D5*%
X152760000Y-67200000D02*
X148750000Y-67200000D01*
X152760000Y-69200000D02*
X148750000Y-69200000D01*
X152760000Y-69200000D02*
X152760000Y-67200000D01*
%TO.C,R10*%
X178165000Y-69527064D02*
X178165000Y-69072936D01*
X179635000Y-69527064D02*
X179635000Y-69072936D01*
%TO.C,K1*%
X110050000Y-104972500D02*
X110050000Y-127672500D01*
X110050000Y-127672500D02*
X126750000Y-127672500D01*
X113900000Y-109822500D02*
X117050000Y-109822500D01*
X117400000Y-104712500D02*
X119400000Y-104712500D01*
X118050000Y-109222500D02*
X118050000Y-110422500D01*
X118050000Y-110022500D02*
X118750000Y-109622500D01*
X118050000Y-110422500D02*
X118750000Y-110422500D01*
X118750000Y-109222500D02*
X118050000Y-109222500D01*
X118750000Y-110422500D02*
X118750000Y-109222500D01*
X119750000Y-109822500D02*
X122900000Y-109822500D01*
X126750000Y-104972500D02*
X110050000Y-104972500D01*
X126750000Y-127672500D02*
X126750000Y-104972500D01*
%TO.C,R12*%
X185865000Y-69427064D02*
X185865000Y-68972936D01*
X187335000Y-69427064D02*
X187335000Y-68972936D01*
%TO.C,D7*%
X153090000Y-67200000D02*
X153090000Y-69200000D01*
X153090000Y-67200000D02*
X157100000Y-67200000D01*
X153090000Y-69200000D02*
X157100000Y-69200000D01*
%TO.C,D8*%
X157760000Y-69650000D02*
X153750000Y-69650000D01*
X157760000Y-71650000D02*
X153750000Y-71650000D01*
X157760000Y-71650000D02*
X157760000Y-69650000D01*
%TO.C,U5*%
X180880000Y-78765000D02*
X180880000Y-85235000D01*
X180880000Y-85235000D02*
X186080000Y-85235000D01*
X186080000Y-78765000D02*
X180880000Y-78765000D01*
X186080000Y-81000000D02*
X186080000Y-78765000D01*
X186080000Y-85235000D02*
X186080000Y-83000000D01*
X186080000Y-83000000D02*
G75*
G02*
X186080000Y-81000000I0J1000000D01*
G01*
%TO.C,D10*%
X147860000Y-69650000D02*
X143850000Y-69650000D01*
X147860000Y-71650000D02*
X143850000Y-71650000D01*
X147860000Y-71650000D02*
X147860000Y-69650000D01*
%TO.C,U1*%
X139255000Y-84990000D02*
X139500000Y-84990000D01*
X139255000Y-88850000D02*
X139255000Y-84990000D01*
X139255000Y-88850000D02*
X139255000Y-92710000D01*
X139255000Y-92710000D02*
X139500000Y-92710000D01*
X151025000Y-84990000D02*
X150780000Y-84990000D01*
X151025000Y-88850000D02*
X151025000Y-84990000D01*
X151025000Y-88850000D02*
X151025000Y-92710000D01*
X151025000Y-92710000D02*
X150780000Y-92710000D01*
X151250000Y-84477500D02*
X150780000Y-84137500D01*
X151250000Y-83797500D01*
X151250000Y-84477500D01*
G36*
X151250000Y-84477500D02*
G01*
X150780000Y-84137500D01*
X151250000Y-83797500D01*
X151250000Y-84477500D01*
G37*
%TO.C,R3*%
X145960436Y-72165000D02*
X146414564Y-72165000D01*
X145960436Y-73635000D02*
X146414564Y-73635000D01*
%TO.C,MOD1*%
X105175000Y-65370000D02*
X102175000Y-65370000D01*
X105175000Y-129370000D02*
X102175000Y-129370000D01*
X105875000Y-137740000D02*
X105875000Y-138480000D01*
X105875000Y-138480000D02*
X106375000Y-138480000D01*
X106115000Y-66421000D02*
X106115000Y-56500000D01*
X106115000Y-128319000D02*
X106115000Y-138240000D01*
X106115000Y-128319000D02*
X146235000Y-128319000D01*
X106115000Y-131279000D02*
X146235000Y-131279000D01*
X106115000Y-136180000D02*
X146235000Y-136180000D01*
X106115000Y-137680000D02*
X146235000Y-137680000D01*
X106115000Y-138240000D02*
X146235000Y-138240000D01*
X107400000Y-62229000D02*
X107447000Y-62183000D01*
X107605000Y-62435000D02*
X107640000Y-62399000D01*
X109709000Y-59921000D02*
X109744000Y-59886000D01*
X109902000Y-60137000D02*
X109949000Y-60091000D01*
X112400000Y-62229000D02*
X112447000Y-62183000D01*
X112448000Y-134603000D02*
X112401000Y-134649000D01*
X112605000Y-62435000D02*
X112640000Y-62399000D01*
X112641000Y-134819000D02*
X112606000Y-134854000D01*
X114709000Y-59921000D02*
X114744000Y-59886000D01*
X114745000Y-132305000D02*
X114710000Y-132341000D01*
X114902000Y-60137000D02*
X114949000Y-60091000D01*
X114950000Y-132511000D02*
X114903000Y-132557000D01*
X117400000Y-62229000D02*
X117447000Y-62183000D01*
X117448000Y-134603000D02*
X117401000Y-134649000D01*
X117605000Y-62435000D02*
X117640000Y-62399000D01*
X117641000Y-134819000D02*
X117606000Y-134854000D01*
X119709000Y-59921000D02*
X119744000Y-59886000D01*
X119745000Y-132305000D02*
X119710000Y-132341000D01*
X119902000Y-60137000D02*
X119949000Y-60091000D01*
X119950000Y-132511000D02*
X119903000Y-132557000D01*
X122400000Y-62229000D02*
X122447000Y-62183000D01*
X122448000Y-134603000D02*
X122401000Y-134649000D01*
X122605000Y-62435000D02*
X122640000Y-62399000D01*
X122641000Y-134819000D02*
X122606000Y-134854000D01*
X124709000Y-59921000D02*
X124744000Y-59886000D01*
X124745000Y-132305000D02*
X124710000Y-132341000D01*
X124902000Y-60137000D02*
X124949000Y-60091000D01*
X124950000Y-132511000D02*
X124903000Y-132557000D01*
X127400000Y-62229000D02*
X127447000Y-62183000D01*
X127448000Y-134603000D02*
X127401000Y-134649000D01*
X127605000Y-62435000D02*
X127640000Y-62399000D01*
X127641000Y-134819000D02*
X127606000Y-134854000D01*
X129709000Y-59921000D02*
X129744000Y-59886000D01*
X129745000Y-132305000D02*
X129710000Y-132341000D01*
X129902000Y-60137000D02*
X129949000Y-60091000D01*
X129950000Y-132511000D02*
X129903000Y-132557000D01*
X132400000Y-62229000D02*
X132447000Y-62183000D01*
X132448000Y-134603000D02*
X132401000Y-134649000D01*
X132605000Y-62435000D02*
X132640000Y-62399000D01*
X132641000Y-134819000D02*
X132606000Y-134854000D01*
X134709000Y-59921000D02*
X134744000Y-59886000D01*
X134745000Y-132305000D02*
X134710000Y-132341000D01*
X134902000Y-60137000D02*
X134949000Y-60091000D01*
X134950000Y-132511000D02*
X134903000Y-132557000D01*
X137400000Y-62229000D02*
X137447000Y-62183000D01*
X137448000Y-134603000D02*
X137401000Y-134649000D01*
X137605000Y-62435000D02*
X137640000Y-62399000D01*
X137641000Y-134819000D02*
X137606000Y-134854000D01*
X139709000Y-59921000D02*
X139744000Y-59886000D01*
X139745000Y-132305000D02*
X139710000Y-132341000D01*
X139902000Y-60137000D02*
X139949000Y-60091000D01*
X139950000Y-132511000D02*
X139903000Y-132557000D01*
X142448000Y-134603000D02*
X142401000Y-134649000D01*
X142641000Y-134819000D02*
X142606000Y-134854000D01*
X144745000Y-132305000D02*
X144710000Y-132341000D01*
X144950000Y-132511000D02*
X144903000Y-132557000D01*
X146235000Y-56500000D02*
X106115000Y-56500000D01*
X146235000Y-57060000D02*
X106115000Y-57060000D01*
X146235000Y-58560000D02*
X106115000Y-58560000D01*
X146235000Y-63461000D02*
X106115000Y-63461000D01*
X146235000Y-66421000D02*
X106115000Y-66421000D01*
X146235000Y-66421000D02*
X146235000Y-56500000D01*
X146235000Y-128319000D02*
X146235000Y-138240000D01*
X146475000Y-56260000D02*
X145975000Y-56260000D01*
X146475000Y-57000000D02*
X146475000Y-56260000D01*
X147175000Y-65370000D02*
X155175000Y-65370000D01*
X147175000Y-129370000D02*
X155175000Y-129370000D01*
X151175000Y-57370000D02*
X151175000Y-65370000D01*
X151175000Y-137370000D02*
X151175000Y-129370000D01*
X155875000Y-137740000D02*
X155875000Y-138480000D01*
X155875000Y-138480000D02*
X156375000Y-138480000D01*
X156115000Y-66421000D02*
X156115000Y-56500000D01*
X156115000Y-128319000D02*
X156115000Y-138240000D01*
X156115000Y-128319000D02*
X196235000Y-128319000D01*
X156115000Y-131279000D02*
X196235000Y-131279000D01*
X156115000Y-136180000D02*
X196235000Y-136180000D01*
X156115000Y-137680000D02*
X196235000Y-137680000D01*
X156115000Y-138240000D02*
X196235000Y-138240000D01*
X157400000Y-62229000D02*
X157447000Y-62183000D01*
X157605000Y-62435000D02*
X157640000Y-62399000D01*
X159709000Y-59921000D02*
X159744000Y-59886000D01*
X159902000Y-60137000D02*
X159949000Y-60091000D01*
X162400000Y-62229000D02*
X162447000Y-62183000D01*
X162448000Y-134603000D02*
X162401000Y-134649000D01*
X162605000Y-62435000D02*
X162640000Y-62399000D01*
X162641000Y-134819000D02*
X162606000Y-134854000D01*
X164709000Y-59921000D02*
X164744000Y-59886000D01*
X164745000Y-132305000D02*
X164710000Y-132341000D01*
X164902000Y-60137000D02*
X164949000Y-60091000D01*
X164950000Y-132511000D02*
X164903000Y-132557000D01*
X167400000Y-62229000D02*
X167447000Y-62183000D01*
X167448000Y-134603000D02*
X167401000Y-134649000D01*
X167605000Y-62435000D02*
X167640000Y-62399000D01*
X167641000Y-134819000D02*
X167606000Y-134854000D01*
X169709000Y-59921000D02*
X169744000Y-59886000D01*
X169745000Y-132305000D02*
X169710000Y-132341000D01*
X169902000Y-60137000D02*
X169949000Y-60091000D01*
X169950000Y-132511000D02*
X169903000Y-132557000D01*
X172400000Y-62229000D02*
X172447000Y-62183000D01*
X172448000Y-134603000D02*
X172401000Y-134649000D01*
X172605000Y-62435000D02*
X172640000Y-62399000D01*
X172641000Y-134819000D02*
X172606000Y-134854000D01*
X174709000Y-59921000D02*
X174744000Y-59886000D01*
X174745000Y-132305000D02*
X174710000Y-132341000D01*
X174902000Y-60137000D02*
X174949000Y-60091000D01*
X174950000Y-132511000D02*
X174903000Y-132557000D01*
X177400000Y-62229000D02*
X177447000Y-62183000D01*
X177448000Y-134603000D02*
X177401000Y-134649000D01*
X177605000Y-62435000D02*
X177640000Y-62399000D01*
X177641000Y-134819000D02*
X177606000Y-134854000D01*
X179709000Y-59921000D02*
X179744000Y-59886000D01*
X179745000Y-132305000D02*
X179710000Y-132341000D01*
X179902000Y-60137000D02*
X179949000Y-60091000D01*
X179950000Y-132511000D02*
X179903000Y-132557000D01*
X182400000Y-62229000D02*
X182447000Y-62183000D01*
X182448000Y-134603000D02*
X182401000Y-134649000D01*
X182605000Y-62435000D02*
X182640000Y-62399000D01*
X182641000Y-134819000D02*
X182606000Y-134854000D01*
X184709000Y-59921000D02*
X184744000Y-59886000D01*
X184745000Y-132305000D02*
X184710000Y-132341000D01*
X184902000Y-60137000D02*
X184949000Y-60091000D01*
X184950000Y-132511000D02*
X184903000Y-132557000D01*
X187400000Y-62229000D02*
X187447000Y-62183000D01*
X187448000Y-134603000D02*
X187401000Y-134649000D01*
X187605000Y-62435000D02*
X187640000Y-62399000D01*
X187641000Y-134819000D02*
X187606000Y-134854000D01*
X189709000Y-59921000D02*
X189744000Y-59886000D01*
X189745000Y-132305000D02*
X189710000Y-132341000D01*
X189902000Y-60137000D02*
X189949000Y-60091000D01*
X189950000Y-132511000D02*
X189903000Y-132557000D01*
X192448000Y-134603000D02*
X192401000Y-134649000D01*
X192641000Y-134819000D02*
X192606000Y-134854000D01*
X194745000Y-132305000D02*
X194710000Y-132341000D01*
X194950000Y-132511000D02*
X194903000Y-132557000D01*
X196235000Y-56500000D02*
X156115000Y-56500000D01*
X196235000Y-57060000D02*
X156115000Y-57060000D01*
X196235000Y-58560000D02*
X156115000Y-58560000D01*
X196235000Y-63461000D02*
X156115000Y-63461000D01*
X196235000Y-66421000D02*
X156115000Y-66421000D01*
X196235000Y-66421000D02*
X196235000Y-56500000D01*
X196235000Y-128319000D02*
X196235000Y-138240000D01*
X196475000Y-56260000D02*
X195975000Y-56260000D01*
X196475000Y-57000000D02*
X196475000Y-56260000D01*
X197175000Y-129370000D02*
X200175000Y-129370000D01*
X200175000Y-65370000D02*
X197175000Y-65370000D01*
X107139573Y-134263042D02*
G75*
G02*
X107140000Y-132896000I1535427J683042D01*
G01*
X107991958Y-132044573D02*
G75*
G02*
X109359000Y-132045000I683042J-1535427D01*
G01*
X108703805Y-135260253D02*
G75*
G02*
X107991000Y-135115000I-28805J1680253D01*
G01*
X109358318Y-135114756D02*
G75*
G02*
X108675000Y-135260000I-683318J1534756D01*
G01*
X110210427Y-132896958D02*
G75*
G02*
X110210000Y-134264000I-1535427J-683042D01*
G01*
X142139573Y-61843042D02*
G75*
G02*
X142140000Y-60476000I1535427J683042D01*
G01*
X142991682Y-59625244D02*
G75*
G02*
X143675000Y-59480000I683318J-1534756D01*
G01*
X143646195Y-59479747D02*
G75*
G02*
X144359000Y-59625000I28805J-1680253D01*
G01*
X144358042Y-62695427D02*
G75*
G02*
X142991000Y-62695000I-683042J1535427D01*
G01*
X145210427Y-60476958D02*
G75*
G02*
X145210000Y-61844000I-1535427J-683042D01*
G01*
X157139573Y-134263042D02*
G75*
G02*
X157140000Y-132896000I1535427J683042D01*
G01*
X157991958Y-132044573D02*
G75*
G02*
X159359000Y-132045000I683042J-1535427D01*
G01*
X158703805Y-135260253D02*
G75*
G02*
X157991000Y-135115000I-28805J1680253D01*
G01*
X159358318Y-135114756D02*
G75*
G02*
X158675000Y-135260000I-683318J1534756D01*
G01*
X160210427Y-132896958D02*
G75*
G02*
X160210000Y-134264000I-1535427J-683042D01*
G01*
X192139573Y-61843042D02*
G75*
G02*
X192140000Y-60476000I1535427J683042D01*
G01*
X192991682Y-59625244D02*
G75*
G02*
X193675000Y-59480000I683318J-1534756D01*
G01*
X193646195Y-59479747D02*
G75*
G02*
X194359000Y-59625000I28805J-1680253D01*
G01*
X194358042Y-62695427D02*
G75*
G02*
X192991000Y-62695000I-683042J1535427D01*
G01*
X195210427Y-60476958D02*
G75*
G02*
X195210000Y-61844000I-1535427J-683042D01*
G01*
X110355000Y-61160000D02*
G75*
G02*
X106995000Y-61160000I-1680000J0D01*
G01*
X106995000Y-61160000D02*
G75*
G02*
X110355000Y-61160000I1680000J0D01*
G01*
X115355000Y-61160000D02*
G75*
G02*
X111995000Y-61160000I-1680000J0D01*
G01*
X111995000Y-61160000D02*
G75*
G02*
X115355000Y-61160000I1680000J0D01*
G01*
X115355000Y-133580000D02*
G75*
G02*
X111995000Y-133580000I-1680000J0D01*
G01*
X111995000Y-133580000D02*
G75*
G02*
X115355000Y-133580000I1680000J0D01*
G01*
X120355000Y-61160000D02*
G75*
G02*
X116995000Y-61160000I-1680000J0D01*
G01*
X116995000Y-61160000D02*
G75*
G02*
X120355000Y-61160000I1680000J0D01*
G01*
X120355000Y-133580000D02*
G75*
G02*
X116995000Y-133580000I-1680000J0D01*
G01*
X116995000Y-133580000D02*
G75*
G02*
X120355000Y-133580000I1680000J0D01*
G01*
X125355000Y-61160000D02*
G75*
G02*
X121995000Y-61160000I-1680000J0D01*
G01*
X121995000Y-61160000D02*
G75*
G02*
X125355000Y-61160000I1680000J0D01*
G01*
X125355000Y-133580000D02*
G75*
G02*
X121995000Y-133580000I-1680000J0D01*
G01*
X121995000Y-133580000D02*
G75*
G02*
X125355000Y-133580000I1680000J0D01*
G01*
X130355000Y-61160000D02*
G75*
G02*
X126995000Y-61160000I-1680000J0D01*
G01*
X126995000Y-61160000D02*
G75*
G02*
X130355000Y-61160000I1680000J0D01*
G01*
X130355000Y-133580000D02*
G75*
G02*
X126995000Y-133580000I-1680000J0D01*
G01*
X126995000Y-133580000D02*
G75*
G02*
X130355000Y-133580000I1680000J0D01*
G01*
X135355000Y-61160000D02*
G75*
G02*
X131995000Y-61160000I-1680000J0D01*
G01*
X131995000Y-61160000D02*
G75*
G02*
X135355000Y-61160000I1680000J0D01*
G01*
X135355000Y-133580000D02*
G75*
G02*
X131995000Y-133580000I-1680000J0D01*
G01*
X131995000Y-133580000D02*
G75*
G02*
X135355000Y-133580000I1680000J0D01*
G01*
X140355000Y-61160000D02*
G75*
G02*
X136995000Y-61160000I-1680000J0D01*
G01*
X136995000Y-61160000D02*
G75*
G02*
X140355000Y-61160000I1680000J0D01*
G01*
X140355000Y-133580000D02*
G75*
G02*
X136995000Y-133580000I-1680000J0D01*
G01*
X136995000Y-133580000D02*
G75*
G02*
X140355000Y-133580000I1680000J0D01*
G01*
X145355000Y-133580000D02*
G75*
G02*
X141995000Y-133580000I-1680000J0D01*
G01*
X141995000Y-133580000D02*
G75*
G02*
X145355000Y-133580000I1680000J0D01*
G01*
X160355000Y-61160000D02*
G75*
G02*
X156995000Y-61160000I-1680000J0D01*
G01*
X156995000Y-61160000D02*
G75*
G02*
X160355000Y-61160000I1680000J0D01*
G01*
X165355000Y-61160000D02*
G75*
G02*
X161995000Y-61160000I-1680000J0D01*
G01*
X161995000Y-61160000D02*
G75*
G02*
X165355000Y-61160000I1680000J0D01*
G01*
X165355000Y-133580000D02*
G75*
G02*
X161995000Y-133580000I-1680000J0D01*
G01*
X161995000Y-133580000D02*
G75*
G02*
X165355000Y-133580000I1680000J0D01*
G01*
X170355000Y-61160000D02*
G75*
G02*
X166995000Y-61160000I-1680000J0D01*
G01*
X166995000Y-61160000D02*
G75*
G02*
X170355000Y-61160000I1680000J0D01*
G01*
X170355000Y-133580000D02*
G75*
G02*
X166995000Y-133580000I-1680000J0D01*
G01*
X166995000Y-133580000D02*
G75*
G02*
X170355000Y-133580000I1680000J0D01*
G01*
X175355000Y-61160000D02*
G75*
G02*
X171995000Y-61160000I-1680000J0D01*
G01*
X171995000Y-61160000D02*
G75*
G02*
X175355000Y-61160000I1680000J0D01*
G01*
X175355000Y-133580000D02*
G75*
G02*
X171995000Y-133580000I-1680000J0D01*
G01*
X171995000Y-133580000D02*
G75*
G02*
X175355000Y-133580000I1680000J0D01*
G01*
X180355000Y-61160000D02*
G75*
G02*
X176995000Y-61160000I-1680000J0D01*
G01*
X176995000Y-61160000D02*
G75*
G02*
X180355000Y-61160000I1680000J0D01*
G01*
X180355000Y-133580000D02*
G75*
G02*
X176995000Y-133580000I-1680000J0D01*
G01*
X176995000Y-133580000D02*
G75*
G02*
X180355000Y-133580000I1680000J0D01*
G01*
X185355000Y-61160000D02*
G75*
G02*
X181995000Y-61160000I-1680000J0D01*
G01*
X181995000Y-61160000D02*
G75*
G02*
X185355000Y-61160000I1680000J0D01*
G01*
X185355000Y-133580000D02*
G75*
G02*
X181995000Y-133580000I-1680000J0D01*
G01*
X181995000Y-133580000D02*
G75*
G02*
X185355000Y-133580000I1680000J0D01*
G01*
X190355000Y-61160000D02*
G75*
G02*
X186995000Y-61160000I-1680000J0D01*
G01*
X186995000Y-61160000D02*
G75*
G02*
X190355000Y-61160000I1680000J0D01*
G01*
X190355000Y-133580000D02*
G75*
G02*
X186995000Y-133580000I-1680000J0D01*
G01*
X186995000Y-133580000D02*
G75*
G02*
X190355000Y-133580000I1680000J0D01*
G01*
X195355000Y-133580000D02*
G75*
G02*
X191995000Y-133580000I-1680000J0D01*
G01*
X191995000Y-133580000D02*
G75*
G02*
X195355000Y-133580000I1680000J0D01*
G01*
%TO.C,U4*%
X175200000Y-78765000D02*
X175200000Y-85235000D01*
X175200000Y-85235000D02*
X180400000Y-85235000D01*
X180400000Y-78765000D02*
X175200000Y-78765000D01*
X180400000Y-81000000D02*
X180400000Y-78765000D01*
X180400000Y-85235000D02*
X180400000Y-83000000D01*
X180400000Y-83000000D02*
G75*
G02*
X180400000Y-81000000I0J1000000D01*
G01*
%TO.C,R7*%
X195815000Y-92977064D02*
X195815000Y-92522936D01*
X197285000Y-92977064D02*
X197285000Y-92522936D01*
%TO.C,C2*%
X112315000Y-71961252D02*
X112315000Y-71438748D01*
X113785000Y-71961252D02*
X113785000Y-71438748D01*
%TO.C,U3*%
X114092000Y-75667500D02*
X114092000Y-76907500D01*
X114092000Y-76907500D02*
X115332000Y-76907500D01*
X114332000Y-68047500D02*
X114332000Y-76667500D01*
X114332000Y-68047500D02*
X126053000Y-68047500D01*
X114332000Y-76667500D02*
X126053000Y-76667500D01*
X126053000Y-68047500D02*
X126053000Y-76667500D01*
%TO.C,K3*%
X156450000Y-104972500D02*
X156450000Y-127672500D01*
X156450000Y-127672500D02*
X173150000Y-127672500D01*
X160300000Y-109822500D02*
X163450000Y-109822500D01*
X163800000Y-104712500D02*
X165800000Y-104712500D01*
X164450000Y-109222500D02*
X164450000Y-110422500D01*
X164450000Y-110022500D02*
X165150000Y-109622500D01*
X164450000Y-110422500D02*
X165150000Y-110422500D01*
X165150000Y-109222500D02*
X164450000Y-109222500D01*
X165150000Y-110422500D02*
X165150000Y-109222500D01*
X166150000Y-109822500D02*
X169300000Y-109822500D01*
X173150000Y-104972500D02*
X156450000Y-104972500D01*
X173150000Y-127672500D02*
X173150000Y-104972500D01*
%TO.C,R11*%
X191915000Y-69427064D02*
X191915000Y-68972936D01*
X193385000Y-69427064D02*
X193385000Y-68972936D01*
%TO.C,R13*%
X176065000Y-69527064D02*
X176065000Y-69072936D01*
X177535000Y-69527064D02*
X177535000Y-69072936D01*
%TO.C,D6*%
X148140000Y-69600000D02*
X148140000Y-71600000D01*
X148140000Y-69600000D02*
X152150000Y-69600000D01*
X148140000Y-71600000D02*
X152150000Y-71600000D01*
%TO.C,C4*%
X127390000Y-76454437D02*
X127390000Y-82210000D01*
X127390000Y-82210000D02*
X129740000Y-82210000D01*
X128454437Y-75390000D02*
X127390000Y-76454437D01*
X128454437Y-75390000D02*
X129740000Y-75390000D01*
X132647500Y-74362500D02*
X132647500Y-75150000D01*
X133041250Y-74756250D02*
X132253750Y-74756250D01*
X133145563Y-75390000D02*
X131860000Y-75390000D01*
X133145563Y-75390000D02*
X134210000Y-76454437D01*
X134210000Y-76454437D02*
X134210000Y-82210000D01*
X134210000Y-82210000D02*
X131860000Y-82210000D01*
%TO.C,R5*%
X190065000Y-92977064D02*
X190065000Y-92522936D01*
X191535000Y-92977064D02*
X191535000Y-92522936D01*
%TO.C,C1*%
X126965000Y-73311252D02*
X126965000Y-72788748D01*
X128435000Y-73311252D02*
X128435000Y-72788748D01*
%TO.C,C3*%
X151665000Y-93161252D02*
X151665000Y-92638748D01*
X153135000Y-93161252D02*
X153135000Y-92638748D01*
%TO.C,R15*%
X189965000Y-69427064D02*
X189965000Y-68972936D01*
X191435000Y-69427064D02*
X191435000Y-68972936D01*
%TD*%
D14*
X139900000Y-103600000D02*
G75*
G02*
X141100000Y-104800000I0J-1200000D01*
G01*
X167400000Y-103700000D02*
G75*
G02*
X168600000Y-104900000I0J-1200000D01*
G01*
X168600000Y-110400000D02*
G75*
G02*
X167600000Y-110400000I-500000J0D01*
G01*
X187700000Y-110300000D02*
X187700000Y-104800000D01*
X161100000Y-110400000D02*
X161100000Y-104900000D01*
X134600000Y-110300000D02*
X134600000Y-104800000D01*
X122200000Y-110350000D02*
G75*
G02*
X121200000Y-110350000I-500000J0D01*
G01*
X122200000Y-110350000D02*
X122200000Y-104850000D01*
X134800000Y-103600000D02*
X139900000Y-103600000D01*
X162300000Y-104700000D02*
X167400000Y-104700000D01*
X141100000Y-110300000D02*
X141100000Y-104800000D01*
X181200000Y-110300000D02*
G75*
G02*
X180200000Y-110300000I-500000J0D01*
G01*
X121000000Y-103650000D02*
G75*
G02*
X122200000Y-104850000I0J-1200000D01*
G01*
X181400000Y-104600000D02*
X186500000Y-104600000D01*
X162100000Y-104900000D02*
G75*
G02*
X162300000Y-104700000I200000J0D01*
G01*
X133600000Y-104800000D02*
G75*
G02*
X134800000Y-103600000I1200000J0D01*
G01*
X121200000Y-110350000D02*
X121200000Y-104850000D01*
X187700000Y-110300000D02*
G75*
G02*
X186700000Y-110300000I-500000J0D01*
G01*
X115900000Y-104650000D02*
X121000000Y-104650000D01*
X115700000Y-110350000D02*
X115700000Y-104850000D01*
X167400000Y-104700000D02*
G75*
G02*
X167600000Y-104900000I0J-200000D01*
G01*
X141100000Y-110300000D02*
G75*
G02*
X140100000Y-110300000I-500000J0D01*
G01*
X186700000Y-110300000D02*
X186700000Y-104800000D01*
X180200000Y-104800000D02*
G75*
G02*
X181400000Y-103600000I1200000J0D01*
G01*
X134800000Y-104600000D02*
X139900000Y-104600000D01*
X181200000Y-104800000D02*
G75*
G02*
X181400000Y-104600000I200000J0D01*
G01*
X186500000Y-104600000D02*
G75*
G02*
X186700000Y-104800000I0J-200000D01*
G01*
X162100000Y-110400000D02*
G75*
G02*
X161100000Y-110400000I-500000J0D01*
G01*
X139900000Y-104600000D02*
G75*
G02*
X140100000Y-104800000I0J-200000D01*
G01*
X115700000Y-110350000D02*
G75*
G02*
X114700000Y-110350000I-500000J0D01*
G01*
X186500000Y-103600000D02*
G75*
G02*
X187700000Y-104800000I0J-1200000D01*
G01*
X180200000Y-110300000D02*
X180200000Y-104800000D01*
X162100000Y-110400000D02*
X162100000Y-104900000D01*
X134600000Y-104800000D02*
G75*
G02*
X134800000Y-104600000I200000J0D01*
G01*
X115900000Y-103650000D02*
X121000000Y-103650000D01*
X121000000Y-104650000D02*
G75*
G02*
X121200000Y-104850000I0J-200000D01*
G01*
X140100000Y-110300000D02*
X140100000Y-104800000D01*
X181200000Y-110300000D02*
X181200000Y-104800000D01*
X114700000Y-110350000D02*
X114700000Y-104850000D01*
X168600000Y-110400000D02*
X168600000Y-104900000D01*
X162300000Y-103700000D02*
X167400000Y-103700000D01*
X167600000Y-110400000D02*
X167600000Y-104900000D01*
X161100000Y-104900000D02*
G75*
G02*
X162300000Y-103700000I1200000J0D01*
G01*
X134600000Y-110300000D02*
G75*
G02*
X133600000Y-110300000I-500000J0D01*
G01*
X181400000Y-103600000D02*
X186500000Y-103600000D01*
X115700000Y-104850000D02*
G75*
G02*
X115900000Y-104650000I200000J0D01*
G01*
X114700000Y-104850000D02*
G75*
G02*
X115900000Y-103650000I1200000J0D01*
G01*
X133600000Y-110300000D02*
X133600000Y-104800000D01*
D15*
%TO.C,MOD1*%
X101175000Y-55745000D02*
X101175000Y-138995000D01*
X101175000Y-138995000D02*
X201175000Y-138995000D01*
X201175000Y-55745000D02*
X101175000Y-55745000D01*
X201175000Y-138995000D02*
X201175000Y-55745000D01*
%TD*%
M02*
