M48
; DRILL file {KiCad 9.0.3} date 2025-10-14T20:28:44+0200
; FORMAT={-:-/ absolute / inch / decimal}
; #@! TF.CreationDate,2025-10-14T20:28:44+02:00
; #@! TF.GenerationSoftware,Kicad,Pcbnew,9.0.3
; #@! TF.FileFunction,Plated,1,2,PTH
FMAT,2
INCH
; #@! TA.AperFunction,Plated,PTH,ViaDrill
T1C0.0118
; #@! TA.AperFunction,Plated,PTH,ComponentDrill
T2C0.0374
; #@! TA.AperFunction,Plated,PTH,ComponentDrill
T3C0.0512
; #@! TA.AperFunction,Plated,PTH,ComponentDrill
T4C0.0984
%
G90
G05
T1
X4.3189Y-3.7362
X4.4409Y-3.7047
X4.6142Y-2.9567
X4.6142Y-3.0866
X4.6181Y-3.2165
X4.7362Y-3.4252
X5.1693Y-2.8031
X5.2087Y-2.8346
X5.2283Y-3.0866
X5.2601Y-2.8701
X5.2717Y-3.6417
X5.2953Y-3.0787
X5.3228Y-3.6417
X5.374Y-3.6417
X5.4252Y-3.0866
X5.4569Y-2.8346
X5.5236Y-3.0945
X5.5315Y-2.9567
X5.5551Y-3.1181
X5.5945Y-3.1457
X5.6538Y-2.8031
X5.7913Y-3.4528
X5.8189Y-3.4803
X5.8543Y-3.5276
X5.9134Y-3.5039
X6.0236Y-3.3976
X6.0744Y-3.1654
X6.0748Y-3.4803
X6.122Y-3.5276
X6.1772Y-3.1969
X6.1772Y-3.5039
X6.2244Y-3.4764
X6.2756Y-3.4488
X6.3244Y-3.4213
X6.374Y-3.3701
X6.3744Y-3.1654
X6.4244Y-3.1299
X6.4646Y-3.5512
X6.5039Y-3.5236
X6.5118Y-3.2323
X6.5433Y-3.5512
X6.5906Y-3.3976
X6.6732Y-3.4213
X6.7008Y-3.0
X6.7559Y-3.4488
X6.8346Y-3.4764
X6.9094Y-3.7559
X6.9449Y-3.5827
X7.0472Y-3.4764
X7.1732Y-3.5827
X7.2756Y-3.4488
X7.2913Y-2.9528
X7.3307Y-2.9213
X7.3701Y-2.9528
X7.4016Y-3.7087
X7.4055Y-3.5787
X7.5Y-2.9213
X7.5039Y-3.4213
X7.6339Y-3.5827
X7.7323Y-3.3976
X7.8819Y-2.5197
X7.8819Y-3.7598
T2
X4.5157Y-3.0236
X4.5157Y-3.1496
X4.6142Y-3.0236
X4.6142Y-3.1496
X4.7126Y-3.0236
X4.7126Y-3.1496
X4.811Y-3.0236
X4.811Y-3.1496
X4.9094Y-3.0236
X4.9094Y-3.1496
X5.0079Y-3.0236
X5.0079Y-3.1496
T3
X4.2758Y-2.69
X4.2785Y-4.9713
X4.4232Y-4.0315
X4.4232Y-4.5118
X4.4727Y-2.69
X4.4754Y-4.9713
X4.6594Y-3.9528
X4.6695Y-2.69
X4.6722Y-4.9713
X4.8664Y-2.69
X4.8691Y-4.9713
X4.8957Y-4.0315
X4.8957Y-4.5118
X5.0632Y-2.69
X5.0659Y-4.9713
X5.1673Y-4.0315
X5.1673Y-4.5118
X5.2601Y-2.69
X5.2628Y-4.9713
X5.4035Y-3.9528
X5.4569Y-2.69
X5.4596Y-4.9713
X5.6398Y-4.0315
X5.6398Y-4.5118
X5.6538Y-2.69
X5.6565Y-4.9713
X6.2443Y-2.69
X6.247Y-4.9713
X6.25Y-4.0315
X6.25Y-4.5118
X6.4412Y-2.69
X6.4439Y-4.9713
X6.4862Y-3.9528
X6.638Y-2.69
X6.6407Y-4.9713
X6.7224Y-4.0315
X6.7224Y-4.5118
X6.8349Y-2.69
X6.8376Y-4.9713
X7.0Y-4.0315
X7.0Y-4.5118
X7.0317Y-2.69
X7.0344Y-4.9713
X7.2286Y-2.69
X7.2313Y-4.9713
X7.2362Y-3.9528
X7.4254Y-2.69
X7.4281Y-4.9713
X7.4724Y-4.0315
X7.4724Y-4.5118
X7.6223Y-2.69
X7.625Y-4.9713
T4
X4.1407Y-3.0461
X4.1407Y-4.6209
X7.7628Y-3.0461
X7.7628Y-4.6209
M30
