%TF.GenerationSoftware,KiCad,Pcbnew,8.0.5*%
%TF.CreationDate,2025-07-29T09:58:19+02:00*%
%TF.ProjectId,esp32_blinds_controller,65737033-325f-4626-9c69-6e64735f636f,V0.2*%
%TF.SameCoordinates,Original*%
%TF.FileFunction,Soldermask,Bot*%
%TF.FilePolarity,Negative*%
%FSLAX46Y46*%
G04 Gerber Fmt 4.6, Leading zero omitted, Abs format (unit mm)*
G04 Created by KiCad (PCBNEW 8.0.5) date 2025-07-29 09:58:19*
%MOMM*%
%LPD*%
G01*
G04 APERTURE LIST*
G04 APERTURE END LIST*
G36*
X109994517Y-124922882D02*
G01*
X110011062Y-124933938D01*
X110022118Y-124950483D01*
X110026000Y-124970000D01*
X110026000Y-127570000D01*
X110022118Y-127589517D01*
X110011062Y-127606062D01*
X109994517Y-127617118D01*
X109975000Y-127621000D01*
X107375000Y-127621000D01*
X107355483Y-127617118D01*
X107338938Y-127606062D01*
X107327882Y-127589517D01*
X107324000Y-127570000D01*
X107324000Y-124970000D01*
X107327882Y-124950483D01*
X107338938Y-124933938D01*
X107355483Y-124922882D01*
X107375000Y-124919000D01*
X109975000Y-124919000D01*
X109994517Y-124922882D01*
G37*
G36*
X159994517Y-124922882D02*
G01*
X160011062Y-124933938D01*
X160022118Y-124950483D01*
X160026000Y-124970000D01*
X160026000Y-127570000D01*
X160022118Y-127589517D01*
X160011062Y-127606062D01*
X159994517Y-127617118D01*
X159975000Y-127621000D01*
X157375000Y-127621000D01*
X157355483Y-127617118D01*
X157338938Y-127606062D01*
X157327882Y-127589517D01*
X157324000Y-127570000D01*
X157324000Y-124970000D01*
X157327882Y-124950483D01*
X157338938Y-124933938D01*
X157355483Y-124922882D01*
X157375000Y-124919000D01*
X159975000Y-124919000D01*
X159994517Y-124922882D01*
G37*
G36*
X114006651Y-124960340D02*
G01*
X114217691Y-125032790D01*
X114413927Y-125138988D01*
X114590007Y-125276037D01*
X114741129Y-125440199D01*
X114863169Y-125626995D01*
X114952799Y-125831331D01*
X115007574Y-126047633D01*
X115026000Y-126270000D01*
X115007574Y-126492367D01*
X114952799Y-126708669D01*
X114863169Y-126913005D01*
X114741129Y-127099801D01*
X114590007Y-127263963D01*
X114413927Y-127401012D01*
X114217691Y-127507210D01*
X114006651Y-127579660D01*
X113786565Y-127616386D01*
X113563435Y-127616386D01*
X113343349Y-127579660D01*
X113132309Y-127507210D01*
X112936073Y-127401012D01*
X112759993Y-127263963D01*
X112608871Y-127099801D01*
X112486831Y-126913005D01*
X112397201Y-126708669D01*
X112342426Y-126492367D01*
X112324000Y-126270000D01*
X112342426Y-126047633D01*
X112397201Y-125831331D01*
X112486831Y-125626995D01*
X112608871Y-125440199D01*
X112759993Y-125276037D01*
X112936073Y-125138988D01*
X113132309Y-125032790D01*
X113343349Y-124960340D01*
X113563435Y-124923614D01*
X113786565Y-124923614D01*
X114006651Y-124960340D01*
G37*
G36*
X119006651Y-124960340D02*
G01*
X119217691Y-125032790D01*
X119413927Y-125138988D01*
X119590007Y-125276037D01*
X119741129Y-125440199D01*
X119863169Y-125626995D01*
X119952799Y-125831331D01*
X120007574Y-126047633D01*
X120026000Y-126270000D01*
X120007574Y-126492367D01*
X119952799Y-126708669D01*
X119863169Y-126913005D01*
X119741129Y-127099801D01*
X119590007Y-127263963D01*
X119413927Y-127401012D01*
X119217691Y-127507210D01*
X119006651Y-127579660D01*
X118786565Y-127616386D01*
X118563435Y-127616386D01*
X118343349Y-127579660D01*
X118132309Y-127507210D01*
X117936073Y-127401012D01*
X117759993Y-127263963D01*
X117608871Y-127099801D01*
X117486831Y-126913005D01*
X117397201Y-126708669D01*
X117342426Y-126492367D01*
X117324000Y-126270000D01*
X117342426Y-126047633D01*
X117397201Y-125831331D01*
X117486831Y-125626995D01*
X117608871Y-125440199D01*
X117759993Y-125276037D01*
X117936073Y-125138988D01*
X118132309Y-125032790D01*
X118343349Y-124960340D01*
X118563435Y-124923614D01*
X118786565Y-124923614D01*
X119006651Y-124960340D01*
G37*
G36*
X124006651Y-124960340D02*
G01*
X124217691Y-125032790D01*
X124413927Y-125138988D01*
X124590007Y-125276037D01*
X124741129Y-125440199D01*
X124863169Y-125626995D01*
X124952799Y-125831331D01*
X125007574Y-126047633D01*
X125026000Y-126270000D01*
X125007574Y-126492367D01*
X124952799Y-126708669D01*
X124863169Y-126913005D01*
X124741129Y-127099801D01*
X124590007Y-127263963D01*
X124413927Y-127401012D01*
X124217691Y-127507210D01*
X124006651Y-127579660D01*
X123786565Y-127616386D01*
X123563435Y-127616386D01*
X123343349Y-127579660D01*
X123132309Y-127507210D01*
X122936073Y-127401012D01*
X122759993Y-127263963D01*
X122608871Y-127099801D01*
X122486831Y-126913005D01*
X122397201Y-126708669D01*
X122342426Y-126492367D01*
X122324000Y-126270000D01*
X122342426Y-126047633D01*
X122397201Y-125831331D01*
X122486831Y-125626995D01*
X122608871Y-125440199D01*
X122759993Y-125276037D01*
X122936073Y-125138988D01*
X123132309Y-125032790D01*
X123343349Y-124960340D01*
X123563435Y-124923614D01*
X123786565Y-124923614D01*
X124006651Y-124960340D01*
G37*
G36*
X129006651Y-124960340D02*
G01*
X129217691Y-125032790D01*
X129413927Y-125138988D01*
X129590007Y-125276037D01*
X129741129Y-125440199D01*
X129863169Y-125626995D01*
X129952799Y-125831331D01*
X130007574Y-126047633D01*
X130026000Y-126270000D01*
X130007574Y-126492367D01*
X129952799Y-126708669D01*
X129863169Y-126913005D01*
X129741129Y-127099801D01*
X129590007Y-127263963D01*
X129413927Y-127401012D01*
X129217691Y-127507210D01*
X129006651Y-127579660D01*
X128786565Y-127616386D01*
X128563435Y-127616386D01*
X128343349Y-127579660D01*
X128132309Y-127507210D01*
X127936073Y-127401012D01*
X127759993Y-127263963D01*
X127608871Y-127099801D01*
X127486831Y-126913005D01*
X127397201Y-126708669D01*
X127342426Y-126492367D01*
X127324000Y-126270000D01*
X127342426Y-126047633D01*
X127397201Y-125831331D01*
X127486831Y-125626995D01*
X127608871Y-125440199D01*
X127759993Y-125276037D01*
X127936073Y-125138988D01*
X128132309Y-125032790D01*
X128343349Y-124960340D01*
X128563435Y-124923614D01*
X128786565Y-124923614D01*
X129006651Y-124960340D01*
G37*
G36*
X134006651Y-124960340D02*
G01*
X134217691Y-125032790D01*
X134413927Y-125138988D01*
X134590007Y-125276037D01*
X134741129Y-125440199D01*
X134863169Y-125626995D01*
X134952799Y-125831331D01*
X135007574Y-126047633D01*
X135026000Y-126270000D01*
X135007574Y-126492367D01*
X134952799Y-126708669D01*
X134863169Y-126913005D01*
X134741129Y-127099801D01*
X134590007Y-127263963D01*
X134413927Y-127401012D01*
X134217691Y-127507210D01*
X134006651Y-127579660D01*
X133786565Y-127616386D01*
X133563435Y-127616386D01*
X133343349Y-127579660D01*
X133132309Y-127507210D01*
X132936073Y-127401012D01*
X132759993Y-127263963D01*
X132608871Y-127099801D01*
X132486831Y-126913005D01*
X132397201Y-126708669D01*
X132342426Y-126492367D01*
X132324000Y-126270000D01*
X132342426Y-126047633D01*
X132397201Y-125831331D01*
X132486831Y-125626995D01*
X132608871Y-125440199D01*
X132759993Y-125276037D01*
X132936073Y-125138988D01*
X133132309Y-125032790D01*
X133343349Y-124960340D01*
X133563435Y-124923614D01*
X133786565Y-124923614D01*
X134006651Y-124960340D01*
G37*
G36*
X139006651Y-124960340D02*
G01*
X139217691Y-125032790D01*
X139413927Y-125138988D01*
X139590007Y-125276037D01*
X139741129Y-125440199D01*
X139863169Y-125626995D01*
X139952799Y-125831331D01*
X140007574Y-126047633D01*
X140026000Y-126270000D01*
X140007574Y-126492367D01*
X139952799Y-126708669D01*
X139863169Y-126913005D01*
X139741129Y-127099801D01*
X139590007Y-127263963D01*
X139413927Y-127401012D01*
X139217691Y-127507210D01*
X139006651Y-127579660D01*
X138786565Y-127616386D01*
X138563435Y-127616386D01*
X138343349Y-127579660D01*
X138132309Y-127507210D01*
X137936073Y-127401012D01*
X137759993Y-127263963D01*
X137608871Y-127099801D01*
X137486831Y-126913005D01*
X137397201Y-126708669D01*
X137342426Y-126492367D01*
X137324000Y-126270000D01*
X137342426Y-126047633D01*
X137397201Y-125831331D01*
X137486831Y-125626995D01*
X137608871Y-125440199D01*
X137759993Y-125276037D01*
X137936073Y-125138988D01*
X138132309Y-125032790D01*
X138343349Y-124960340D01*
X138563435Y-124923614D01*
X138786565Y-124923614D01*
X139006651Y-124960340D01*
G37*
G36*
X144006651Y-124960340D02*
G01*
X144217691Y-125032790D01*
X144413927Y-125138988D01*
X144590007Y-125276037D01*
X144741129Y-125440199D01*
X144863169Y-125626995D01*
X144952799Y-125831331D01*
X145007574Y-126047633D01*
X145026000Y-126270000D01*
X145007574Y-126492367D01*
X144952799Y-126708669D01*
X144863169Y-126913005D01*
X144741129Y-127099801D01*
X144590007Y-127263963D01*
X144413927Y-127401012D01*
X144217691Y-127507210D01*
X144006651Y-127579660D01*
X143786565Y-127616386D01*
X143563435Y-127616386D01*
X143343349Y-127579660D01*
X143132309Y-127507210D01*
X142936073Y-127401012D01*
X142759993Y-127263963D01*
X142608871Y-127099801D01*
X142486831Y-126913005D01*
X142397201Y-126708669D01*
X142342426Y-126492367D01*
X142324000Y-126270000D01*
X142342426Y-126047633D01*
X142397201Y-125831331D01*
X142486831Y-125626995D01*
X142608871Y-125440199D01*
X142759993Y-125276037D01*
X142936073Y-125138988D01*
X143132309Y-125032790D01*
X143343349Y-124960340D01*
X143563435Y-124923614D01*
X143786565Y-124923614D01*
X144006651Y-124960340D01*
G37*
G36*
X164006651Y-124960340D02*
G01*
X164217691Y-125032790D01*
X164413927Y-125138988D01*
X164590007Y-125276037D01*
X164741129Y-125440199D01*
X164863169Y-125626995D01*
X164952799Y-125831331D01*
X165007574Y-126047633D01*
X165026000Y-126270000D01*
X165007574Y-126492367D01*
X164952799Y-126708669D01*
X164863169Y-126913005D01*
X164741129Y-127099801D01*
X164590007Y-127263963D01*
X164413927Y-127401012D01*
X164217691Y-127507210D01*
X164006651Y-127579660D01*
X163786565Y-127616386D01*
X163563435Y-127616386D01*
X163343349Y-127579660D01*
X163132309Y-127507210D01*
X162936073Y-127401012D01*
X162759993Y-127263963D01*
X162608871Y-127099801D01*
X162486831Y-126913005D01*
X162397201Y-126708669D01*
X162342426Y-126492367D01*
X162324000Y-126270000D01*
X162342426Y-126047633D01*
X162397201Y-125831331D01*
X162486831Y-125626995D01*
X162608871Y-125440199D01*
X162759993Y-125276037D01*
X162936073Y-125138988D01*
X163132309Y-125032790D01*
X163343349Y-124960340D01*
X163563435Y-124923614D01*
X163786565Y-124923614D01*
X164006651Y-124960340D01*
G37*
G36*
X169006651Y-124960340D02*
G01*
X169217691Y-125032790D01*
X169413927Y-125138988D01*
X169590007Y-125276037D01*
X169741129Y-125440199D01*
X169863169Y-125626995D01*
X169952799Y-125831331D01*
X170007574Y-126047633D01*
X170026000Y-126270000D01*
X170007574Y-126492367D01*
X169952799Y-126708669D01*
X169863169Y-126913005D01*
X169741129Y-127099801D01*
X169590007Y-127263963D01*
X169413927Y-127401012D01*
X169217691Y-127507210D01*
X169006651Y-127579660D01*
X168786565Y-127616386D01*
X168563435Y-127616386D01*
X168343349Y-127579660D01*
X168132309Y-127507210D01*
X167936073Y-127401012D01*
X167759993Y-127263963D01*
X167608871Y-127099801D01*
X167486831Y-126913005D01*
X167397201Y-126708669D01*
X167342426Y-126492367D01*
X167324000Y-126270000D01*
X167342426Y-126047633D01*
X167397201Y-125831331D01*
X167486831Y-125626995D01*
X167608871Y-125440199D01*
X167759993Y-125276037D01*
X167936073Y-125138988D01*
X168132309Y-125032790D01*
X168343349Y-124960340D01*
X168563435Y-124923614D01*
X168786565Y-124923614D01*
X169006651Y-124960340D01*
G37*
G36*
X174006651Y-124960340D02*
G01*
X174217691Y-125032790D01*
X174413927Y-125138988D01*
X174590007Y-125276037D01*
X174741129Y-125440199D01*
X174863169Y-125626995D01*
X174952799Y-125831331D01*
X175007574Y-126047633D01*
X175026000Y-126270000D01*
X175007574Y-126492367D01*
X174952799Y-126708669D01*
X174863169Y-126913005D01*
X174741129Y-127099801D01*
X174590007Y-127263963D01*
X174413927Y-127401012D01*
X174217691Y-127507210D01*
X174006651Y-127579660D01*
X173786565Y-127616386D01*
X173563435Y-127616386D01*
X173343349Y-127579660D01*
X173132309Y-127507210D01*
X172936073Y-127401012D01*
X172759993Y-127263963D01*
X172608871Y-127099801D01*
X172486831Y-126913005D01*
X172397201Y-126708669D01*
X172342426Y-126492367D01*
X172324000Y-126270000D01*
X172342426Y-126047633D01*
X172397201Y-125831331D01*
X172486831Y-125626995D01*
X172608871Y-125440199D01*
X172759993Y-125276037D01*
X172936073Y-125138988D01*
X173132309Y-125032790D01*
X173343349Y-124960340D01*
X173563435Y-124923614D01*
X173786565Y-124923614D01*
X174006651Y-124960340D01*
G37*
G36*
X179006651Y-124960340D02*
G01*
X179217691Y-125032790D01*
X179413927Y-125138988D01*
X179590007Y-125276037D01*
X179741129Y-125440199D01*
X179863169Y-125626995D01*
X179952799Y-125831331D01*
X180007574Y-126047633D01*
X180026000Y-126270000D01*
X180007574Y-126492367D01*
X179952799Y-126708669D01*
X179863169Y-126913005D01*
X179741129Y-127099801D01*
X179590007Y-127263963D01*
X179413927Y-127401012D01*
X179217691Y-127507210D01*
X179006651Y-127579660D01*
X178786565Y-127616386D01*
X178563435Y-127616386D01*
X178343349Y-127579660D01*
X178132309Y-127507210D01*
X177936073Y-127401012D01*
X177759993Y-127263963D01*
X177608871Y-127099801D01*
X177486831Y-126913005D01*
X177397201Y-126708669D01*
X177342426Y-126492367D01*
X177324000Y-126270000D01*
X177342426Y-126047633D01*
X177397201Y-125831331D01*
X177486831Y-125626995D01*
X177608871Y-125440199D01*
X177759993Y-125276037D01*
X177936073Y-125138988D01*
X178132309Y-125032790D01*
X178343349Y-124960340D01*
X178563435Y-124923614D01*
X178786565Y-124923614D01*
X179006651Y-124960340D01*
G37*
G36*
X184006651Y-124960340D02*
G01*
X184217691Y-125032790D01*
X184413927Y-125138988D01*
X184590007Y-125276037D01*
X184741129Y-125440199D01*
X184863169Y-125626995D01*
X184952799Y-125831331D01*
X185007574Y-126047633D01*
X185026000Y-126270000D01*
X185007574Y-126492367D01*
X184952799Y-126708669D01*
X184863169Y-126913005D01*
X184741129Y-127099801D01*
X184590007Y-127263963D01*
X184413927Y-127401012D01*
X184217691Y-127507210D01*
X184006651Y-127579660D01*
X183786565Y-127616386D01*
X183563435Y-127616386D01*
X183343349Y-127579660D01*
X183132309Y-127507210D01*
X182936073Y-127401012D01*
X182759993Y-127263963D01*
X182608871Y-127099801D01*
X182486831Y-126913005D01*
X182397201Y-126708669D01*
X182342426Y-126492367D01*
X182324000Y-126270000D01*
X182342426Y-126047633D01*
X182397201Y-125831331D01*
X182486831Y-125626995D01*
X182608871Y-125440199D01*
X182759993Y-125276037D01*
X182936073Y-125138988D01*
X183132309Y-125032790D01*
X183343349Y-124960340D01*
X183563435Y-124923614D01*
X183786565Y-124923614D01*
X184006651Y-124960340D01*
G37*
G36*
X189006651Y-124960340D02*
G01*
X189217691Y-125032790D01*
X189413927Y-125138988D01*
X189590007Y-125276037D01*
X189741129Y-125440199D01*
X189863169Y-125626995D01*
X189952799Y-125831331D01*
X190007574Y-126047633D01*
X190026000Y-126270000D01*
X190007574Y-126492367D01*
X189952799Y-126708669D01*
X189863169Y-126913005D01*
X189741129Y-127099801D01*
X189590007Y-127263963D01*
X189413927Y-127401012D01*
X189217691Y-127507210D01*
X189006651Y-127579660D01*
X188786565Y-127616386D01*
X188563435Y-127616386D01*
X188343349Y-127579660D01*
X188132309Y-127507210D01*
X187936073Y-127401012D01*
X187759993Y-127263963D01*
X187608871Y-127099801D01*
X187486831Y-126913005D01*
X187397201Y-126708669D01*
X187342426Y-126492367D01*
X187324000Y-126270000D01*
X187342426Y-126047633D01*
X187397201Y-125831331D01*
X187486831Y-125626995D01*
X187608871Y-125440199D01*
X187759993Y-125276037D01*
X187936073Y-125138988D01*
X188132309Y-125032790D01*
X188343349Y-124960340D01*
X188563435Y-124923614D01*
X188786565Y-124923614D01*
X189006651Y-124960340D01*
G37*
G36*
X194006651Y-124960340D02*
G01*
X194217691Y-125032790D01*
X194413927Y-125138988D01*
X194590007Y-125276037D01*
X194741129Y-125440199D01*
X194863169Y-125626995D01*
X194952799Y-125831331D01*
X195007574Y-126047633D01*
X195026000Y-126270000D01*
X195007574Y-126492367D01*
X194952799Y-126708669D01*
X194863169Y-126913005D01*
X194741129Y-127099801D01*
X194590007Y-127263963D01*
X194413927Y-127401012D01*
X194217691Y-127507210D01*
X194006651Y-127579660D01*
X193786565Y-127616386D01*
X193563435Y-127616386D01*
X193343349Y-127579660D01*
X193132309Y-127507210D01*
X192936073Y-127401012D01*
X192759993Y-127263963D01*
X192608871Y-127099801D01*
X192486831Y-126913005D01*
X192397201Y-126708669D01*
X192342426Y-126492367D01*
X192324000Y-126270000D01*
X192342426Y-126047633D01*
X192397201Y-125831331D01*
X192486831Y-125626995D01*
X192608871Y-125440199D01*
X192759993Y-125276037D01*
X192936073Y-125138988D01*
X193132309Y-125032790D01*
X193343349Y-124960340D01*
X193563435Y-124923614D01*
X193786565Y-124923614D01*
X194006651Y-124960340D01*
G37*
G36*
X105516604Y-114338184D02*
G01*
X105853911Y-114395495D01*
X106182681Y-114490212D01*
X106498779Y-114621144D01*
X106798230Y-114786644D01*
X107077267Y-114984632D01*
X107332383Y-115212617D01*
X107560368Y-115467733D01*
X107758356Y-115746770D01*
X107923856Y-116046221D01*
X108054788Y-116362319D01*
X108149505Y-116691089D01*
X108206816Y-117028396D01*
X108226000Y-117370000D01*
X108206816Y-117711604D01*
X108149505Y-118048911D01*
X108054788Y-118377681D01*
X107923856Y-118693779D01*
X107758356Y-118993230D01*
X107560368Y-119272267D01*
X107332383Y-119527383D01*
X107077267Y-119755368D01*
X106798230Y-119953356D01*
X106498779Y-120118856D01*
X106182681Y-120249788D01*
X105853911Y-120344505D01*
X105516604Y-120401816D01*
X105175000Y-120421000D01*
X104833396Y-120401816D01*
X104496089Y-120344505D01*
X104167319Y-120249788D01*
X103851221Y-120118856D01*
X103551770Y-119953356D01*
X103272733Y-119755368D01*
X103017617Y-119527383D01*
X102789632Y-119272267D01*
X102591644Y-118993230D01*
X102426144Y-118693779D01*
X102295212Y-118377681D01*
X102200495Y-118048911D01*
X102143184Y-117711604D01*
X102124000Y-117370000D01*
X102143184Y-117028396D01*
X102200495Y-116691089D01*
X102295212Y-116362319D01*
X102426144Y-116046221D01*
X102591644Y-115746770D01*
X102789632Y-115467733D01*
X103017617Y-115212617D01*
X103272733Y-114984632D01*
X103551770Y-114786644D01*
X103851221Y-114621144D01*
X104167319Y-114490212D01*
X104496089Y-114395495D01*
X104833396Y-114338184D01*
X105175000Y-114319000D01*
X105516604Y-114338184D01*
G37*
G36*
X197516604Y-114338184D02*
G01*
X197853911Y-114395495D01*
X198182681Y-114490212D01*
X198498779Y-114621144D01*
X198798230Y-114786644D01*
X199077267Y-114984632D01*
X199332383Y-115212617D01*
X199560368Y-115467733D01*
X199758356Y-115746770D01*
X199923856Y-116046221D01*
X200054788Y-116362319D01*
X200149505Y-116691089D01*
X200206816Y-117028396D01*
X200226000Y-117370000D01*
X200206816Y-117711604D01*
X200149505Y-118048911D01*
X200054788Y-118377681D01*
X199923856Y-118693779D01*
X199758356Y-118993230D01*
X199560368Y-119272267D01*
X199332383Y-119527383D01*
X199077267Y-119755368D01*
X198798230Y-119953356D01*
X198498779Y-120118856D01*
X198182681Y-120249788D01*
X197853911Y-120344505D01*
X197516604Y-120401816D01*
X197175000Y-120421000D01*
X196833396Y-120401816D01*
X196496089Y-120344505D01*
X196167319Y-120249788D01*
X195851221Y-120118856D01*
X195551770Y-119953356D01*
X195272733Y-119755368D01*
X195017617Y-119527383D01*
X194789632Y-119272267D01*
X194591644Y-118993230D01*
X194426144Y-118693779D01*
X194295212Y-118377681D01*
X194200495Y-118048911D01*
X194143184Y-117711604D01*
X194124000Y-117370000D01*
X194143184Y-117028396D01*
X194200495Y-116691089D01*
X194295212Y-116362319D01*
X194426144Y-116046221D01*
X194591644Y-115746770D01*
X194789632Y-115467733D01*
X195017617Y-115212617D01*
X195272733Y-114984632D01*
X195551770Y-114786644D01*
X195851221Y-114621144D01*
X196167319Y-114490212D01*
X196496089Y-114395495D01*
X196833396Y-114338184D01*
X197175000Y-114319000D01*
X197516604Y-114338184D01*
G37*
G36*
X112402738Y-113303614D02*
G01*
X112457422Y-113303614D01*
X112517691Y-113313671D01*
X112575916Y-113318765D01*
X112621638Y-113331016D01*
X112669333Y-113338975D01*
X112733313Y-113360939D01*
X112794968Y-113377460D01*
X112832736Y-113395071D01*
X112872536Y-113408735D01*
X112937922Y-113444120D01*
X113000500Y-113473301D01*
X113029961Y-113493930D01*
X113061487Y-113510991D01*
X113125661Y-113560939D01*
X113186267Y-113603376D01*
X113207625Y-113624734D01*
X113231029Y-113642950D01*
X113291154Y-113708263D01*
X113346624Y-113763733D01*
X113360624Y-113783728D01*
X113376532Y-113801008D01*
X113429603Y-113882240D01*
X113476699Y-113949500D01*
X113484560Y-113966358D01*
X113494045Y-113980876D01*
X113537094Y-114079019D01*
X113572540Y-114155032D01*
X113575841Y-114167351D01*
X113580346Y-114177622D01*
X113610513Y-114296752D01*
X113631235Y-114374084D01*
X113631835Y-114380949D01*
X113633087Y-114385891D01*
X113647748Y-114562839D01*
X113651000Y-114600000D01*
X113647748Y-114637163D01*
X113633087Y-114814108D01*
X113631835Y-114819048D01*
X113631235Y-114825916D01*
X113610509Y-114903265D01*
X113580346Y-115022377D01*
X113575841Y-115032645D01*
X113572540Y-115044968D01*
X113537087Y-115120996D01*
X113494045Y-115219123D01*
X113484561Y-115233638D01*
X113476699Y-115250500D01*
X113429593Y-115317773D01*
X113376532Y-115398991D01*
X113360627Y-115416267D01*
X113346624Y-115436267D01*
X113291142Y-115491748D01*
X113231029Y-115557049D01*
X113207629Y-115575261D01*
X113186267Y-115596624D01*
X113125648Y-115639069D01*
X113061487Y-115689008D01*
X113029967Y-115706065D01*
X113000500Y-115726699D01*
X112937908Y-115755885D01*
X112872536Y-115791264D01*
X112832744Y-115804924D01*
X112794968Y-115822540D01*
X112733300Y-115839063D01*
X112669333Y-115861024D01*
X112621646Y-115868981D01*
X112575916Y-115881235D01*
X112517688Y-115886329D01*
X112457422Y-115896386D01*
X112402738Y-115896386D01*
X112350000Y-115901000D01*
X112297262Y-115896386D01*
X112242578Y-115896386D01*
X112182311Y-115886329D01*
X112124084Y-115881235D01*
X112078355Y-115868981D01*
X112030666Y-115861024D01*
X111966694Y-115839062D01*
X111905032Y-115822540D01*
X111867257Y-115804925D01*
X111827463Y-115791264D01*
X111762083Y-115755882D01*
X111699500Y-115726699D01*
X111670035Y-115706067D01*
X111638512Y-115689008D01*
X111574341Y-115639062D01*
X111513733Y-115596624D01*
X111492373Y-115575264D01*
X111468970Y-115557049D01*
X111408844Y-115491735D01*
X111353376Y-115436267D01*
X111339375Y-115416272D01*
X111323467Y-115398991D01*
X111270391Y-115317752D01*
X111223301Y-115250500D01*
X111215440Y-115233643D01*
X111205954Y-115219123D01*
X111162895Y-115120960D01*
X111127460Y-115044968D01*
X111124159Y-115032651D01*
X111119653Y-115022377D01*
X111089472Y-114903197D01*
X111068765Y-114825916D01*
X111068164Y-114819054D01*
X111066912Y-114814108D01*
X111052232Y-114636947D01*
X111049000Y-114600000D01*
X111052232Y-114563055D01*
X111066912Y-114385891D01*
X111068164Y-114380943D01*
X111068765Y-114374084D01*
X111089467Y-114296820D01*
X111119653Y-114177622D01*
X111124160Y-114167346D01*
X111127460Y-114155032D01*
X111162888Y-114079055D01*
X111205954Y-113980876D01*
X111215442Y-113966352D01*
X111223301Y-113949500D01*
X111270381Y-113882261D01*
X111323467Y-113801008D01*
X111339378Y-113783723D01*
X111353376Y-113763733D01*
X111408833Y-113708275D01*
X111468970Y-113642950D01*
X111492378Y-113624730D01*
X111513733Y-113603376D01*
X111574328Y-113560946D01*
X111638512Y-113510991D01*
X111670041Y-113493927D01*
X111699500Y-113473301D01*
X111762070Y-113444123D01*
X111827463Y-113408735D01*
X111867265Y-113395070D01*
X111905032Y-113377460D01*
X111966681Y-113360941D01*
X112030666Y-113338975D01*
X112078362Y-113331016D01*
X112124084Y-113318765D01*
X112182307Y-113313671D01*
X112242578Y-113303614D01*
X112297262Y-113303614D01*
X112350000Y-113299000D01*
X112402738Y-113303614D01*
G37*
G36*
X124402738Y-113303614D02*
G01*
X124457422Y-113303614D01*
X124517691Y-113313671D01*
X124575916Y-113318765D01*
X124621638Y-113331016D01*
X124669333Y-113338975D01*
X124733313Y-113360939D01*
X124794968Y-113377460D01*
X124832736Y-113395071D01*
X124872536Y-113408735D01*
X124937922Y-113444120D01*
X125000500Y-113473301D01*
X125029961Y-113493930D01*
X125061487Y-113510991D01*
X125125661Y-113560939D01*
X125186267Y-113603376D01*
X125207625Y-113624734D01*
X125231029Y-113642950D01*
X125291154Y-113708263D01*
X125346624Y-113763733D01*
X125360624Y-113783728D01*
X125376532Y-113801008D01*
X125429603Y-113882240D01*
X125476699Y-113949500D01*
X125484560Y-113966358D01*
X125494045Y-113980876D01*
X125537094Y-114079019D01*
X125572540Y-114155032D01*
X125575841Y-114167351D01*
X125580346Y-114177622D01*
X125610513Y-114296752D01*
X125631235Y-114374084D01*
X125631835Y-114380949D01*
X125633087Y-114385891D01*
X125647748Y-114562839D01*
X125651000Y-114600000D01*
X125647748Y-114637163D01*
X125633087Y-114814108D01*
X125631835Y-114819048D01*
X125631235Y-114825916D01*
X125610509Y-114903265D01*
X125580346Y-115022377D01*
X125575841Y-115032645D01*
X125572540Y-115044968D01*
X125537087Y-115120996D01*
X125494045Y-115219123D01*
X125484561Y-115233638D01*
X125476699Y-115250500D01*
X125429593Y-115317773D01*
X125376532Y-115398991D01*
X125360627Y-115416267D01*
X125346624Y-115436267D01*
X125291142Y-115491748D01*
X125231029Y-115557049D01*
X125207629Y-115575261D01*
X125186267Y-115596624D01*
X125125648Y-115639069D01*
X125061487Y-115689008D01*
X125029967Y-115706065D01*
X125000500Y-115726699D01*
X124937908Y-115755885D01*
X124872536Y-115791264D01*
X124832744Y-115804924D01*
X124794968Y-115822540D01*
X124733300Y-115839063D01*
X124669333Y-115861024D01*
X124621646Y-115868981D01*
X124575916Y-115881235D01*
X124517688Y-115886329D01*
X124457422Y-115896386D01*
X124402738Y-115896386D01*
X124350000Y-115901000D01*
X124297262Y-115896386D01*
X124242578Y-115896386D01*
X124182311Y-115886329D01*
X124124084Y-115881235D01*
X124078355Y-115868981D01*
X124030666Y-115861024D01*
X123966694Y-115839062D01*
X123905032Y-115822540D01*
X123867257Y-115804925D01*
X123827463Y-115791264D01*
X123762083Y-115755882D01*
X123699500Y-115726699D01*
X123670035Y-115706067D01*
X123638512Y-115689008D01*
X123574341Y-115639062D01*
X123513733Y-115596624D01*
X123492373Y-115575264D01*
X123468970Y-115557049D01*
X123408844Y-115491735D01*
X123353376Y-115436267D01*
X123339375Y-115416272D01*
X123323467Y-115398991D01*
X123270391Y-115317752D01*
X123223301Y-115250500D01*
X123215440Y-115233643D01*
X123205954Y-115219123D01*
X123162895Y-115120960D01*
X123127460Y-115044968D01*
X123124159Y-115032651D01*
X123119653Y-115022377D01*
X123089472Y-114903197D01*
X123068765Y-114825916D01*
X123068164Y-114819054D01*
X123066912Y-114814108D01*
X123052232Y-114636947D01*
X123049000Y-114600000D01*
X123052232Y-114563055D01*
X123066912Y-114385891D01*
X123068164Y-114380943D01*
X123068765Y-114374084D01*
X123089467Y-114296820D01*
X123119653Y-114177622D01*
X123124160Y-114167346D01*
X123127460Y-114155032D01*
X123162888Y-114079055D01*
X123205954Y-113980876D01*
X123215442Y-113966352D01*
X123223301Y-113949500D01*
X123270381Y-113882261D01*
X123323467Y-113801008D01*
X123339378Y-113783723D01*
X123353376Y-113763733D01*
X123408833Y-113708275D01*
X123468970Y-113642950D01*
X123492378Y-113624730D01*
X123513733Y-113603376D01*
X123574328Y-113560946D01*
X123638512Y-113510991D01*
X123670041Y-113493927D01*
X123699500Y-113473301D01*
X123762070Y-113444123D01*
X123827463Y-113408735D01*
X123867265Y-113395070D01*
X123905032Y-113377460D01*
X123966681Y-113360941D01*
X124030666Y-113338975D01*
X124078362Y-113331016D01*
X124124084Y-113318765D01*
X124182307Y-113313671D01*
X124242578Y-113303614D01*
X124297262Y-113303614D01*
X124350000Y-113299000D01*
X124402738Y-113303614D01*
G37*
G36*
X131302738Y-113303614D02*
G01*
X131357422Y-113303614D01*
X131417691Y-113313671D01*
X131475916Y-113318765D01*
X131521638Y-113331016D01*
X131569333Y-113338975D01*
X131633313Y-113360939D01*
X131694968Y-113377460D01*
X131732736Y-113395071D01*
X131772536Y-113408735D01*
X131837922Y-113444120D01*
X131900500Y-113473301D01*
X131929961Y-113493930D01*
X131961487Y-113510991D01*
X132025661Y-113560939D01*
X132086267Y-113603376D01*
X132107625Y-113624734D01*
X132131029Y-113642950D01*
X132191154Y-113708263D01*
X132246624Y-113763733D01*
X132260624Y-113783728D01*
X132276532Y-113801008D01*
X132329603Y-113882240D01*
X132376699Y-113949500D01*
X132384560Y-113966358D01*
X132394045Y-113980876D01*
X132437094Y-114079019D01*
X132472540Y-114155032D01*
X132475841Y-114167351D01*
X132480346Y-114177622D01*
X132510513Y-114296752D01*
X132531235Y-114374084D01*
X132531835Y-114380949D01*
X132533087Y-114385891D01*
X132547748Y-114562839D01*
X132551000Y-114600000D01*
X132547748Y-114637163D01*
X132533087Y-114814108D01*
X132531835Y-114819048D01*
X132531235Y-114825916D01*
X132510509Y-114903265D01*
X132480346Y-115022377D01*
X132475841Y-115032645D01*
X132472540Y-115044968D01*
X132437087Y-115120996D01*
X132394045Y-115219123D01*
X132384561Y-115233638D01*
X132376699Y-115250500D01*
X132329593Y-115317773D01*
X132276532Y-115398991D01*
X132260627Y-115416267D01*
X132246624Y-115436267D01*
X132191142Y-115491748D01*
X132131029Y-115557049D01*
X132107629Y-115575261D01*
X132086267Y-115596624D01*
X132025648Y-115639069D01*
X131961487Y-115689008D01*
X131929967Y-115706065D01*
X131900500Y-115726699D01*
X131837908Y-115755885D01*
X131772536Y-115791264D01*
X131732744Y-115804924D01*
X131694968Y-115822540D01*
X131633300Y-115839063D01*
X131569333Y-115861024D01*
X131521646Y-115868981D01*
X131475916Y-115881235D01*
X131417688Y-115886329D01*
X131357422Y-115896386D01*
X131302738Y-115896386D01*
X131250000Y-115901000D01*
X131197262Y-115896386D01*
X131142578Y-115896386D01*
X131082311Y-115886329D01*
X131024084Y-115881235D01*
X130978355Y-115868981D01*
X130930666Y-115861024D01*
X130866694Y-115839062D01*
X130805032Y-115822540D01*
X130767257Y-115804925D01*
X130727463Y-115791264D01*
X130662083Y-115755882D01*
X130599500Y-115726699D01*
X130570035Y-115706067D01*
X130538512Y-115689008D01*
X130474341Y-115639062D01*
X130413733Y-115596624D01*
X130392373Y-115575264D01*
X130368970Y-115557049D01*
X130308844Y-115491735D01*
X130253376Y-115436267D01*
X130239375Y-115416272D01*
X130223467Y-115398991D01*
X130170391Y-115317752D01*
X130123301Y-115250500D01*
X130115440Y-115233643D01*
X130105954Y-115219123D01*
X130062895Y-115120960D01*
X130027460Y-115044968D01*
X130024159Y-115032651D01*
X130019653Y-115022377D01*
X129989472Y-114903197D01*
X129968765Y-114825916D01*
X129968164Y-114819054D01*
X129966912Y-114814108D01*
X129952232Y-114636947D01*
X129949000Y-114600000D01*
X129952232Y-114563055D01*
X129966912Y-114385891D01*
X129968164Y-114380943D01*
X129968765Y-114374084D01*
X129989467Y-114296820D01*
X130019653Y-114177622D01*
X130024160Y-114167346D01*
X130027460Y-114155032D01*
X130062888Y-114079055D01*
X130105954Y-113980876D01*
X130115442Y-113966352D01*
X130123301Y-113949500D01*
X130170381Y-113882261D01*
X130223467Y-113801008D01*
X130239378Y-113783723D01*
X130253376Y-113763733D01*
X130308833Y-113708275D01*
X130368970Y-113642950D01*
X130392378Y-113624730D01*
X130413733Y-113603376D01*
X130474328Y-113560946D01*
X130538512Y-113510991D01*
X130570041Y-113493927D01*
X130599500Y-113473301D01*
X130662070Y-113444123D01*
X130727463Y-113408735D01*
X130767265Y-113395070D01*
X130805032Y-113377460D01*
X130866681Y-113360941D01*
X130930666Y-113338975D01*
X130978362Y-113331016D01*
X131024084Y-113318765D01*
X131082307Y-113313671D01*
X131142578Y-113303614D01*
X131197262Y-113303614D01*
X131250000Y-113299000D01*
X131302738Y-113303614D01*
G37*
G36*
X143302738Y-113303614D02*
G01*
X143357422Y-113303614D01*
X143417691Y-113313671D01*
X143475916Y-113318765D01*
X143521638Y-113331016D01*
X143569333Y-113338975D01*
X143633313Y-113360939D01*
X143694968Y-113377460D01*
X143732736Y-113395071D01*
X143772536Y-113408735D01*
X143837922Y-113444120D01*
X143900500Y-113473301D01*
X143929961Y-113493930D01*
X143961487Y-113510991D01*
X144025661Y-113560939D01*
X144086267Y-113603376D01*
X144107625Y-113624734D01*
X144131029Y-113642950D01*
X144191154Y-113708263D01*
X144246624Y-113763733D01*
X144260624Y-113783728D01*
X144276532Y-113801008D01*
X144329603Y-113882240D01*
X144376699Y-113949500D01*
X144384560Y-113966358D01*
X144394045Y-113980876D01*
X144437094Y-114079019D01*
X144472540Y-114155032D01*
X144475841Y-114167351D01*
X144480346Y-114177622D01*
X144510513Y-114296752D01*
X144531235Y-114374084D01*
X144531835Y-114380949D01*
X144533087Y-114385891D01*
X144547748Y-114562839D01*
X144551000Y-114600000D01*
X144547748Y-114637163D01*
X144533087Y-114814108D01*
X144531835Y-114819048D01*
X144531235Y-114825916D01*
X144510509Y-114903265D01*
X144480346Y-115022377D01*
X144475841Y-115032645D01*
X144472540Y-115044968D01*
X144437087Y-115120996D01*
X144394045Y-115219123D01*
X144384561Y-115233638D01*
X144376699Y-115250500D01*
X144329593Y-115317773D01*
X144276532Y-115398991D01*
X144260627Y-115416267D01*
X144246624Y-115436267D01*
X144191142Y-115491748D01*
X144131029Y-115557049D01*
X144107629Y-115575261D01*
X144086267Y-115596624D01*
X144025648Y-115639069D01*
X143961487Y-115689008D01*
X143929967Y-115706065D01*
X143900500Y-115726699D01*
X143837908Y-115755885D01*
X143772536Y-115791264D01*
X143732744Y-115804924D01*
X143694968Y-115822540D01*
X143633300Y-115839063D01*
X143569333Y-115861024D01*
X143521646Y-115868981D01*
X143475916Y-115881235D01*
X143417688Y-115886329D01*
X143357422Y-115896386D01*
X143302738Y-115896386D01*
X143250000Y-115901000D01*
X143197262Y-115896386D01*
X143142578Y-115896386D01*
X143082311Y-115886329D01*
X143024084Y-115881235D01*
X142978355Y-115868981D01*
X142930666Y-115861024D01*
X142866694Y-115839062D01*
X142805032Y-115822540D01*
X142767257Y-115804925D01*
X142727463Y-115791264D01*
X142662083Y-115755882D01*
X142599500Y-115726699D01*
X142570035Y-115706067D01*
X142538512Y-115689008D01*
X142474341Y-115639062D01*
X142413733Y-115596624D01*
X142392373Y-115575264D01*
X142368970Y-115557049D01*
X142308844Y-115491735D01*
X142253376Y-115436267D01*
X142239375Y-115416272D01*
X142223467Y-115398991D01*
X142170391Y-115317752D01*
X142123301Y-115250500D01*
X142115440Y-115233643D01*
X142105954Y-115219123D01*
X142062895Y-115120960D01*
X142027460Y-115044968D01*
X142024159Y-115032651D01*
X142019653Y-115022377D01*
X141989472Y-114903197D01*
X141968765Y-114825916D01*
X141968164Y-114819054D01*
X141966912Y-114814108D01*
X141952232Y-114636947D01*
X141949000Y-114600000D01*
X141952232Y-114563055D01*
X141966912Y-114385891D01*
X141968164Y-114380943D01*
X141968765Y-114374084D01*
X141989467Y-114296820D01*
X142019653Y-114177622D01*
X142024160Y-114167346D01*
X142027460Y-114155032D01*
X142062888Y-114079055D01*
X142105954Y-113980876D01*
X142115442Y-113966352D01*
X142123301Y-113949500D01*
X142170381Y-113882261D01*
X142223467Y-113801008D01*
X142239378Y-113783723D01*
X142253376Y-113763733D01*
X142308833Y-113708275D01*
X142368970Y-113642950D01*
X142392378Y-113624730D01*
X142413733Y-113603376D01*
X142474328Y-113560946D01*
X142538512Y-113510991D01*
X142570041Y-113493927D01*
X142599500Y-113473301D01*
X142662070Y-113444123D01*
X142727463Y-113408735D01*
X142767265Y-113395070D01*
X142805032Y-113377460D01*
X142866681Y-113360941D01*
X142930666Y-113338975D01*
X142978362Y-113331016D01*
X143024084Y-113318765D01*
X143082307Y-113313671D01*
X143142578Y-113303614D01*
X143197262Y-113303614D01*
X143250000Y-113299000D01*
X143302738Y-113303614D01*
G37*
G36*
X158802738Y-113303614D02*
G01*
X158857422Y-113303614D01*
X158917691Y-113313671D01*
X158975916Y-113318765D01*
X159021638Y-113331016D01*
X159069333Y-113338975D01*
X159133313Y-113360939D01*
X159194968Y-113377460D01*
X159232736Y-113395071D01*
X159272536Y-113408735D01*
X159337922Y-113444120D01*
X159400500Y-113473301D01*
X159429961Y-113493930D01*
X159461487Y-113510991D01*
X159525661Y-113560939D01*
X159586267Y-113603376D01*
X159607625Y-113624734D01*
X159631029Y-113642950D01*
X159691154Y-113708263D01*
X159746624Y-113763733D01*
X159760624Y-113783728D01*
X159776532Y-113801008D01*
X159829603Y-113882240D01*
X159876699Y-113949500D01*
X159884560Y-113966358D01*
X159894045Y-113980876D01*
X159937094Y-114079019D01*
X159972540Y-114155032D01*
X159975841Y-114167351D01*
X159980346Y-114177622D01*
X160010513Y-114296752D01*
X160031235Y-114374084D01*
X160031835Y-114380949D01*
X160033087Y-114385891D01*
X160047748Y-114562839D01*
X160051000Y-114600000D01*
X160047748Y-114637163D01*
X160033087Y-114814108D01*
X160031835Y-114819048D01*
X160031235Y-114825916D01*
X160010509Y-114903265D01*
X159980346Y-115022377D01*
X159975841Y-115032645D01*
X159972540Y-115044968D01*
X159937087Y-115120996D01*
X159894045Y-115219123D01*
X159884561Y-115233638D01*
X159876699Y-115250500D01*
X159829593Y-115317773D01*
X159776532Y-115398991D01*
X159760627Y-115416267D01*
X159746624Y-115436267D01*
X159691142Y-115491748D01*
X159631029Y-115557049D01*
X159607629Y-115575261D01*
X159586267Y-115596624D01*
X159525648Y-115639069D01*
X159461487Y-115689008D01*
X159429967Y-115706065D01*
X159400500Y-115726699D01*
X159337908Y-115755885D01*
X159272536Y-115791264D01*
X159232744Y-115804924D01*
X159194968Y-115822540D01*
X159133300Y-115839063D01*
X159069333Y-115861024D01*
X159021646Y-115868981D01*
X158975916Y-115881235D01*
X158917688Y-115886329D01*
X158857422Y-115896386D01*
X158802738Y-115896386D01*
X158750000Y-115901000D01*
X158697262Y-115896386D01*
X158642578Y-115896386D01*
X158582311Y-115886329D01*
X158524084Y-115881235D01*
X158478355Y-115868981D01*
X158430666Y-115861024D01*
X158366694Y-115839062D01*
X158305032Y-115822540D01*
X158267257Y-115804925D01*
X158227463Y-115791264D01*
X158162083Y-115755882D01*
X158099500Y-115726699D01*
X158070035Y-115706067D01*
X158038512Y-115689008D01*
X157974341Y-115639062D01*
X157913733Y-115596624D01*
X157892373Y-115575264D01*
X157868970Y-115557049D01*
X157808844Y-115491735D01*
X157753376Y-115436267D01*
X157739375Y-115416272D01*
X157723467Y-115398991D01*
X157670391Y-115317752D01*
X157623301Y-115250500D01*
X157615440Y-115233643D01*
X157605954Y-115219123D01*
X157562895Y-115120960D01*
X157527460Y-115044968D01*
X157524159Y-115032651D01*
X157519653Y-115022377D01*
X157489472Y-114903197D01*
X157468765Y-114825916D01*
X157468164Y-114819054D01*
X157466912Y-114814108D01*
X157452232Y-114636947D01*
X157449000Y-114600000D01*
X157452232Y-114563055D01*
X157466912Y-114385891D01*
X157468164Y-114380943D01*
X157468765Y-114374084D01*
X157489467Y-114296820D01*
X157519653Y-114177622D01*
X157524160Y-114167346D01*
X157527460Y-114155032D01*
X157562888Y-114079055D01*
X157605954Y-113980876D01*
X157615442Y-113966352D01*
X157623301Y-113949500D01*
X157670381Y-113882261D01*
X157723467Y-113801008D01*
X157739378Y-113783723D01*
X157753376Y-113763733D01*
X157808833Y-113708275D01*
X157868970Y-113642950D01*
X157892378Y-113624730D01*
X157913733Y-113603376D01*
X157974328Y-113560946D01*
X158038512Y-113510991D01*
X158070041Y-113493927D01*
X158099500Y-113473301D01*
X158162070Y-113444123D01*
X158227463Y-113408735D01*
X158267265Y-113395070D01*
X158305032Y-113377460D01*
X158366681Y-113360941D01*
X158430666Y-113338975D01*
X158478362Y-113331016D01*
X158524084Y-113318765D01*
X158582307Y-113313671D01*
X158642578Y-113303614D01*
X158697262Y-113303614D01*
X158750000Y-113299000D01*
X158802738Y-113303614D01*
G37*
G36*
X170802738Y-113303614D02*
G01*
X170857422Y-113303614D01*
X170917691Y-113313671D01*
X170975916Y-113318765D01*
X171021638Y-113331016D01*
X171069333Y-113338975D01*
X171133313Y-113360939D01*
X171194968Y-113377460D01*
X171232736Y-113395071D01*
X171272536Y-113408735D01*
X171337922Y-113444120D01*
X171400500Y-113473301D01*
X171429961Y-113493930D01*
X171461487Y-113510991D01*
X171525661Y-113560939D01*
X171586267Y-113603376D01*
X171607625Y-113624734D01*
X171631029Y-113642950D01*
X171691154Y-113708263D01*
X171746624Y-113763733D01*
X171760624Y-113783728D01*
X171776532Y-113801008D01*
X171829603Y-113882240D01*
X171876699Y-113949500D01*
X171884560Y-113966358D01*
X171894045Y-113980876D01*
X171937094Y-114079019D01*
X171972540Y-114155032D01*
X171975841Y-114167351D01*
X171980346Y-114177622D01*
X172010513Y-114296752D01*
X172031235Y-114374084D01*
X172031835Y-114380949D01*
X172033087Y-114385891D01*
X172047748Y-114562839D01*
X172051000Y-114600000D01*
X172047748Y-114637163D01*
X172033087Y-114814108D01*
X172031835Y-114819048D01*
X172031235Y-114825916D01*
X172010509Y-114903265D01*
X171980346Y-115022377D01*
X171975841Y-115032645D01*
X171972540Y-115044968D01*
X171937087Y-115120996D01*
X171894045Y-115219123D01*
X171884561Y-115233638D01*
X171876699Y-115250500D01*
X171829593Y-115317773D01*
X171776532Y-115398991D01*
X171760627Y-115416267D01*
X171746624Y-115436267D01*
X171691142Y-115491748D01*
X171631029Y-115557049D01*
X171607629Y-115575261D01*
X171586267Y-115596624D01*
X171525648Y-115639069D01*
X171461487Y-115689008D01*
X171429967Y-115706065D01*
X171400500Y-115726699D01*
X171337908Y-115755885D01*
X171272536Y-115791264D01*
X171232744Y-115804924D01*
X171194968Y-115822540D01*
X171133300Y-115839063D01*
X171069333Y-115861024D01*
X171021646Y-115868981D01*
X170975916Y-115881235D01*
X170917688Y-115886329D01*
X170857422Y-115896386D01*
X170802738Y-115896386D01*
X170750000Y-115901000D01*
X170697262Y-115896386D01*
X170642578Y-115896386D01*
X170582311Y-115886329D01*
X170524084Y-115881235D01*
X170478355Y-115868981D01*
X170430666Y-115861024D01*
X170366694Y-115839062D01*
X170305032Y-115822540D01*
X170267257Y-115804925D01*
X170227463Y-115791264D01*
X170162083Y-115755882D01*
X170099500Y-115726699D01*
X170070035Y-115706067D01*
X170038512Y-115689008D01*
X169974341Y-115639062D01*
X169913733Y-115596624D01*
X169892373Y-115575264D01*
X169868970Y-115557049D01*
X169808844Y-115491735D01*
X169753376Y-115436267D01*
X169739375Y-115416272D01*
X169723467Y-115398991D01*
X169670391Y-115317752D01*
X169623301Y-115250500D01*
X169615440Y-115233643D01*
X169605954Y-115219123D01*
X169562895Y-115120960D01*
X169527460Y-115044968D01*
X169524159Y-115032651D01*
X169519653Y-115022377D01*
X169489472Y-114903197D01*
X169468765Y-114825916D01*
X169468164Y-114819054D01*
X169466912Y-114814108D01*
X169452232Y-114636947D01*
X169449000Y-114600000D01*
X169452232Y-114563055D01*
X169466912Y-114385891D01*
X169468164Y-114380943D01*
X169468765Y-114374084D01*
X169489467Y-114296820D01*
X169519653Y-114177622D01*
X169524160Y-114167346D01*
X169527460Y-114155032D01*
X169562888Y-114079055D01*
X169605954Y-113980876D01*
X169615442Y-113966352D01*
X169623301Y-113949500D01*
X169670381Y-113882261D01*
X169723467Y-113801008D01*
X169739378Y-113783723D01*
X169753376Y-113763733D01*
X169808833Y-113708275D01*
X169868970Y-113642950D01*
X169892378Y-113624730D01*
X169913733Y-113603376D01*
X169974328Y-113560946D01*
X170038512Y-113510991D01*
X170070041Y-113493927D01*
X170099500Y-113473301D01*
X170162070Y-113444123D01*
X170227463Y-113408735D01*
X170267265Y-113395070D01*
X170305032Y-113377460D01*
X170366681Y-113360941D01*
X170430666Y-113338975D01*
X170478362Y-113331016D01*
X170524084Y-113318765D01*
X170582307Y-113313671D01*
X170642578Y-113303614D01*
X170697262Y-113303614D01*
X170750000Y-113299000D01*
X170802738Y-113303614D01*
G37*
G36*
X177852738Y-113303614D02*
G01*
X177907422Y-113303614D01*
X177967691Y-113313671D01*
X178025916Y-113318765D01*
X178071638Y-113331016D01*
X178119333Y-113338975D01*
X178183313Y-113360939D01*
X178244968Y-113377460D01*
X178282736Y-113395071D01*
X178322536Y-113408735D01*
X178387922Y-113444120D01*
X178450500Y-113473301D01*
X178479961Y-113493930D01*
X178511487Y-113510991D01*
X178575661Y-113560939D01*
X178636267Y-113603376D01*
X178657625Y-113624734D01*
X178681029Y-113642950D01*
X178741154Y-113708263D01*
X178796624Y-113763733D01*
X178810624Y-113783728D01*
X178826532Y-113801008D01*
X178879603Y-113882240D01*
X178926699Y-113949500D01*
X178934560Y-113966358D01*
X178944045Y-113980876D01*
X178987094Y-114079019D01*
X179022540Y-114155032D01*
X179025841Y-114167351D01*
X179030346Y-114177622D01*
X179060513Y-114296752D01*
X179081235Y-114374084D01*
X179081835Y-114380949D01*
X179083087Y-114385891D01*
X179097748Y-114562839D01*
X179101000Y-114600000D01*
X179097748Y-114637163D01*
X179083087Y-114814108D01*
X179081835Y-114819048D01*
X179081235Y-114825916D01*
X179060509Y-114903265D01*
X179030346Y-115022377D01*
X179025841Y-115032645D01*
X179022540Y-115044968D01*
X178987087Y-115120996D01*
X178944045Y-115219123D01*
X178934561Y-115233638D01*
X178926699Y-115250500D01*
X178879593Y-115317773D01*
X178826532Y-115398991D01*
X178810627Y-115416267D01*
X178796624Y-115436267D01*
X178741142Y-115491748D01*
X178681029Y-115557049D01*
X178657629Y-115575261D01*
X178636267Y-115596624D01*
X178575648Y-115639069D01*
X178511487Y-115689008D01*
X178479967Y-115706065D01*
X178450500Y-115726699D01*
X178387908Y-115755885D01*
X178322536Y-115791264D01*
X178282744Y-115804924D01*
X178244968Y-115822540D01*
X178183300Y-115839063D01*
X178119333Y-115861024D01*
X178071646Y-115868981D01*
X178025916Y-115881235D01*
X177967688Y-115886329D01*
X177907422Y-115896386D01*
X177852738Y-115896386D01*
X177800000Y-115901000D01*
X177747262Y-115896386D01*
X177692578Y-115896386D01*
X177632311Y-115886329D01*
X177574084Y-115881235D01*
X177528355Y-115868981D01*
X177480666Y-115861024D01*
X177416694Y-115839062D01*
X177355032Y-115822540D01*
X177317257Y-115804925D01*
X177277463Y-115791264D01*
X177212083Y-115755882D01*
X177149500Y-115726699D01*
X177120035Y-115706067D01*
X177088512Y-115689008D01*
X177024341Y-115639062D01*
X176963733Y-115596624D01*
X176942373Y-115575264D01*
X176918970Y-115557049D01*
X176858844Y-115491735D01*
X176803376Y-115436267D01*
X176789375Y-115416272D01*
X176773467Y-115398991D01*
X176720391Y-115317752D01*
X176673301Y-115250500D01*
X176665440Y-115233643D01*
X176655954Y-115219123D01*
X176612895Y-115120960D01*
X176577460Y-115044968D01*
X176574159Y-115032651D01*
X176569653Y-115022377D01*
X176539472Y-114903197D01*
X176518765Y-114825916D01*
X176518164Y-114819054D01*
X176516912Y-114814108D01*
X176502232Y-114636947D01*
X176499000Y-114600000D01*
X176502232Y-114563055D01*
X176516912Y-114385891D01*
X176518164Y-114380943D01*
X176518765Y-114374084D01*
X176539467Y-114296820D01*
X176569653Y-114177622D01*
X176574160Y-114167346D01*
X176577460Y-114155032D01*
X176612888Y-114079055D01*
X176655954Y-113980876D01*
X176665442Y-113966352D01*
X176673301Y-113949500D01*
X176720381Y-113882261D01*
X176773467Y-113801008D01*
X176789378Y-113783723D01*
X176803376Y-113763733D01*
X176858833Y-113708275D01*
X176918970Y-113642950D01*
X176942378Y-113624730D01*
X176963733Y-113603376D01*
X177024328Y-113560946D01*
X177088512Y-113510991D01*
X177120041Y-113493927D01*
X177149500Y-113473301D01*
X177212070Y-113444123D01*
X177277463Y-113408735D01*
X177317265Y-113395070D01*
X177355032Y-113377460D01*
X177416681Y-113360941D01*
X177480666Y-113338975D01*
X177528362Y-113331016D01*
X177574084Y-113318765D01*
X177632307Y-113313671D01*
X177692578Y-113303614D01*
X177747262Y-113303614D01*
X177800000Y-113299000D01*
X177852738Y-113303614D01*
G37*
G36*
X189852738Y-113303614D02*
G01*
X189907422Y-113303614D01*
X189967691Y-113313671D01*
X190025916Y-113318765D01*
X190071638Y-113331016D01*
X190119333Y-113338975D01*
X190183313Y-113360939D01*
X190244968Y-113377460D01*
X190282736Y-113395071D01*
X190322536Y-113408735D01*
X190387922Y-113444120D01*
X190450500Y-113473301D01*
X190479961Y-113493930D01*
X190511487Y-113510991D01*
X190575661Y-113560939D01*
X190636267Y-113603376D01*
X190657625Y-113624734D01*
X190681029Y-113642950D01*
X190741154Y-113708263D01*
X190796624Y-113763733D01*
X190810624Y-113783728D01*
X190826532Y-113801008D01*
X190879603Y-113882240D01*
X190926699Y-113949500D01*
X190934560Y-113966358D01*
X190944045Y-113980876D01*
X190987094Y-114079019D01*
X191022540Y-114155032D01*
X191025841Y-114167351D01*
X191030346Y-114177622D01*
X191060513Y-114296752D01*
X191081235Y-114374084D01*
X191081835Y-114380949D01*
X191083087Y-114385891D01*
X191097748Y-114562839D01*
X191101000Y-114600000D01*
X191097748Y-114637163D01*
X191083087Y-114814108D01*
X191081835Y-114819048D01*
X191081235Y-114825916D01*
X191060509Y-114903265D01*
X191030346Y-115022377D01*
X191025841Y-115032645D01*
X191022540Y-115044968D01*
X190987087Y-115120996D01*
X190944045Y-115219123D01*
X190934561Y-115233638D01*
X190926699Y-115250500D01*
X190879593Y-115317773D01*
X190826532Y-115398991D01*
X190810627Y-115416267D01*
X190796624Y-115436267D01*
X190741142Y-115491748D01*
X190681029Y-115557049D01*
X190657629Y-115575261D01*
X190636267Y-115596624D01*
X190575648Y-115639069D01*
X190511487Y-115689008D01*
X190479967Y-115706065D01*
X190450500Y-115726699D01*
X190387908Y-115755885D01*
X190322536Y-115791264D01*
X190282744Y-115804924D01*
X190244968Y-115822540D01*
X190183300Y-115839063D01*
X190119333Y-115861024D01*
X190071646Y-115868981D01*
X190025916Y-115881235D01*
X189967688Y-115886329D01*
X189907422Y-115896386D01*
X189852738Y-115896386D01*
X189800000Y-115901000D01*
X189747262Y-115896386D01*
X189692578Y-115896386D01*
X189632311Y-115886329D01*
X189574084Y-115881235D01*
X189528355Y-115868981D01*
X189480666Y-115861024D01*
X189416694Y-115839062D01*
X189355032Y-115822540D01*
X189317257Y-115804925D01*
X189277463Y-115791264D01*
X189212083Y-115755882D01*
X189149500Y-115726699D01*
X189120035Y-115706067D01*
X189088512Y-115689008D01*
X189024341Y-115639062D01*
X188963733Y-115596624D01*
X188942373Y-115575264D01*
X188918970Y-115557049D01*
X188858844Y-115491735D01*
X188803376Y-115436267D01*
X188789375Y-115416272D01*
X188773467Y-115398991D01*
X188720391Y-115317752D01*
X188673301Y-115250500D01*
X188665440Y-115233643D01*
X188655954Y-115219123D01*
X188612895Y-115120960D01*
X188577460Y-115044968D01*
X188574159Y-115032651D01*
X188569653Y-115022377D01*
X188539472Y-114903197D01*
X188518765Y-114825916D01*
X188518164Y-114819054D01*
X188516912Y-114814108D01*
X188502232Y-114636947D01*
X188499000Y-114600000D01*
X188502232Y-114563055D01*
X188516912Y-114385891D01*
X188518164Y-114380943D01*
X188518765Y-114374084D01*
X188539467Y-114296820D01*
X188569653Y-114177622D01*
X188574160Y-114167346D01*
X188577460Y-114155032D01*
X188612888Y-114079055D01*
X188655954Y-113980876D01*
X188665442Y-113966352D01*
X188673301Y-113949500D01*
X188720381Y-113882261D01*
X188773467Y-113801008D01*
X188789378Y-113783723D01*
X188803376Y-113763733D01*
X188858833Y-113708275D01*
X188918970Y-113642950D01*
X188942378Y-113624730D01*
X188963733Y-113603376D01*
X189024328Y-113560946D01*
X189088512Y-113510991D01*
X189120041Y-113493927D01*
X189149500Y-113473301D01*
X189212070Y-113444123D01*
X189277463Y-113408735D01*
X189317265Y-113395070D01*
X189355032Y-113377460D01*
X189416681Y-113360941D01*
X189480666Y-113338975D01*
X189528362Y-113331016D01*
X189574084Y-113318765D01*
X189632307Y-113313671D01*
X189692578Y-113303614D01*
X189747262Y-113303614D01*
X189800000Y-113299000D01*
X189852738Y-113303614D01*
G37*
G36*
X112402738Y-101103614D02*
G01*
X112457422Y-101103614D01*
X112517691Y-101113671D01*
X112575916Y-101118765D01*
X112621638Y-101131016D01*
X112669333Y-101138975D01*
X112733313Y-101160939D01*
X112794968Y-101177460D01*
X112832736Y-101195071D01*
X112872536Y-101208735D01*
X112937922Y-101244120D01*
X113000500Y-101273301D01*
X113029961Y-101293930D01*
X113061487Y-101310991D01*
X113125661Y-101360939D01*
X113186267Y-101403376D01*
X113207625Y-101424734D01*
X113231029Y-101442950D01*
X113291154Y-101508263D01*
X113346624Y-101563733D01*
X113360624Y-101583728D01*
X113376532Y-101601008D01*
X113429603Y-101682240D01*
X113476699Y-101749500D01*
X113484560Y-101766358D01*
X113494045Y-101780876D01*
X113537094Y-101879019D01*
X113572540Y-101955032D01*
X113575841Y-101967351D01*
X113580346Y-101977622D01*
X113610513Y-102096752D01*
X113631235Y-102174084D01*
X113631835Y-102180949D01*
X113633087Y-102185891D01*
X113647748Y-102362839D01*
X113651000Y-102400000D01*
X113647748Y-102437163D01*
X113633087Y-102614108D01*
X113631835Y-102619048D01*
X113631235Y-102625916D01*
X113610509Y-102703265D01*
X113580346Y-102822377D01*
X113575841Y-102832645D01*
X113572540Y-102844968D01*
X113537087Y-102920996D01*
X113494045Y-103019123D01*
X113484561Y-103033638D01*
X113476699Y-103050500D01*
X113429593Y-103117773D01*
X113376532Y-103198991D01*
X113360627Y-103216267D01*
X113346624Y-103236267D01*
X113291142Y-103291748D01*
X113231029Y-103357049D01*
X113207629Y-103375261D01*
X113186267Y-103396624D01*
X113125648Y-103439069D01*
X113061487Y-103489008D01*
X113029967Y-103506065D01*
X113000500Y-103526699D01*
X112937908Y-103555885D01*
X112872536Y-103591264D01*
X112832744Y-103604924D01*
X112794968Y-103622540D01*
X112733300Y-103639063D01*
X112669333Y-103661024D01*
X112621646Y-103668981D01*
X112575916Y-103681235D01*
X112517688Y-103686329D01*
X112457422Y-103696386D01*
X112402738Y-103696386D01*
X112350000Y-103701000D01*
X112297262Y-103696386D01*
X112242578Y-103696386D01*
X112182311Y-103686329D01*
X112124084Y-103681235D01*
X112078355Y-103668981D01*
X112030666Y-103661024D01*
X111966694Y-103639062D01*
X111905032Y-103622540D01*
X111867257Y-103604925D01*
X111827463Y-103591264D01*
X111762083Y-103555882D01*
X111699500Y-103526699D01*
X111670035Y-103506067D01*
X111638512Y-103489008D01*
X111574341Y-103439062D01*
X111513733Y-103396624D01*
X111492373Y-103375264D01*
X111468970Y-103357049D01*
X111408844Y-103291735D01*
X111353376Y-103236267D01*
X111339375Y-103216272D01*
X111323467Y-103198991D01*
X111270391Y-103117752D01*
X111223301Y-103050500D01*
X111215440Y-103033643D01*
X111205954Y-103019123D01*
X111162895Y-102920960D01*
X111127460Y-102844968D01*
X111124159Y-102832651D01*
X111119653Y-102822377D01*
X111089472Y-102703197D01*
X111068765Y-102625916D01*
X111068164Y-102619054D01*
X111066912Y-102614108D01*
X111052232Y-102436947D01*
X111049000Y-102400000D01*
X111052232Y-102363055D01*
X111066912Y-102185891D01*
X111068164Y-102180943D01*
X111068765Y-102174084D01*
X111089467Y-102096820D01*
X111119653Y-101977622D01*
X111124160Y-101967346D01*
X111127460Y-101955032D01*
X111162888Y-101879055D01*
X111205954Y-101780876D01*
X111215442Y-101766352D01*
X111223301Y-101749500D01*
X111270381Y-101682261D01*
X111323467Y-101601008D01*
X111339378Y-101583723D01*
X111353376Y-101563733D01*
X111408833Y-101508275D01*
X111468970Y-101442950D01*
X111492378Y-101424730D01*
X111513733Y-101403376D01*
X111574328Y-101360946D01*
X111638512Y-101310991D01*
X111670041Y-101293927D01*
X111699500Y-101273301D01*
X111762070Y-101244123D01*
X111827463Y-101208735D01*
X111867265Y-101195070D01*
X111905032Y-101177460D01*
X111966681Y-101160941D01*
X112030666Y-101138975D01*
X112078362Y-101131016D01*
X112124084Y-101118765D01*
X112182307Y-101113671D01*
X112242578Y-101103614D01*
X112297262Y-101103614D01*
X112350000Y-101099000D01*
X112402738Y-101103614D01*
G37*
G36*
X124402738Y-101103614D02*
G01*
X124457422Y-101103614D01*
X124517691Y-101113671D01*
X124575916Y-101118765D01*
X124621638Y-101131016D01*
X124669333Y-101138975D01*
X124733313Y-101160939D01*
X124794968Y-101177460D01*
X124832736Y-101195071D01*
X124872536Y-101208735D01*
X124937922Y-101244120D01*
X125000500Y-101273301D01*
X125029961Y-101293930D01*
X125061487Y-101310991D01*
X125125661Y-101360939D01*
X125186267Y-101403376D01*
X125207625Y-101424734D01*
X125231029Y-101442950D01*
X125291154Y-101508263D01*
X125346624Y-101563733D01*
X125360624Y-101583728D01*
X125376532Y-101601008D01*
X125429603Y-101682240D01*
X125476699Y-101749500D01*
X125484560Y-101766358D01*
X125494045Y-101780876D01*
X125537094Y-101879019D01*
X125572540Y-101955032D01*
X125575841Y-101967351D01*
X125580346Y-101977622D01*
X125610513Y-102096752D01*
X125631235Y-102174084D01*
X125631835Y-102180949D01*
X125633087Y-102185891D01*
X125647748Y-102362839D01*
X125651000Y-102400000D01*
X125647748Y-102437163D01*
X125633087Y-102614108D01*
X125631835Y-102619048D01*
X125631235Y-102625916D01*
X125610509Y-102703265D01*
X125580346Y-102822377D01*
X125575841Y-102832645D01*
X125572540Y-102844968D01*
X125537087Y-102920996D01*
X125494045Y-103019123D01*
X125484561Y-103033638D01*
X125476699Y-103050500D01*
X125429593Y-103117773D01*
X125376532Y-103198991D01*
X125360627Y-103216267D01*
X125346624Y-103236267D01*
X125291142Y-103291748D01*
X125231029Y-103357049D01*
X125207629Y-103375261D01*
X125186267Y-103396624D01*
X125125648Y-103439069D01*
X125061487Y-103489008D01*
X125029967Y-103506065D01*
X125000500Y-103526699D01*
X124937908Y-103555885D01*
X124872536Y-103591264D01*
X124832744Y-103604924D01*
X124794968Y-103622540D01*
X124733300Y-103639063D01*
X124669333Y-103661024D01*
X124621646Y-103668981D01*
X124575916Y-103681235D01*
X124517688Y-103686329D01*
X124457422Y-103696386D01*
X124402738Y-103696386D01*
X124350000Y-103701000D01*
X124297262Y-103696386D01*
X124242578Y-103696386D01*
X124182311Y-103686329D01*
X124124084Y-103681235D01*
X124078355Y-103668981D01*
X124030666Y-103661024D01*
X123966694Y-103639062D01*
X123905032Y-103622540D01*
X123867257Y-103604925D01*
X123827463Y-103591264D01*
X123762083Y-103555882D01*
X123699500Y-103526699D01*
X123670035Y-103506067D01*
X123638512Y-103489008D01*
X123574341Y-103439062D01*
X123513733Y-103396624D01*
X123492373Y-103375264D01*
X123468970Y-103357049D01*
X123408844Y-103291735D01*
X123353376Y-103236267D01*
X123339375Y-103216272D01*
X123323467Y-103198991D01*
X123270391Y-103117752D01*
X123223301Y-103050500D01*
X123215440Y-103033643D01*
X123205954Y-103019123D01*
X123162895Y-102920960D01*
X123127460Y-102844968D01*
X123124159Y-102832651D01*
X123119653Y-102822377D01*
X123089472Y-102703197D01*
X123068765Y-102625916D01*
X123068164Y-102619054D01*
X123066912Y-102614108D01*
X123052232Y-102436947D01*
X123049000Y-102400000D01*
X123052232Y-102363055D01*
X123066912Y-102185891D01*
X123068164Y-102180943D01*
X123068765Y-102174084D01*
X123089467Y-102096820D01*
X123119653Y-101977622D01*
X123124160Y-101967346D01*
X123127460Y-101955032D01*
X123162888Y-101879055D01*
X123205954Y-101780876D01*
X123215442Y-101766352D01*
X123223301Y-101749500D01*
X123270381Y-101682261D01*
X123323467Y-101601008D01*
X123339378Y-101583723D01*
X123353376Y-101563733D01*
X123408833Y-101508275D01*
X123468970Y-101442950D01*
X123492378Y-101424730D01*
X123513733Y-101403376D01*
X123574328Y-101360946D01*
X123638512Y-101310991D01*
X123670041Y-101293927D01*
X123699500Y-101273301D01*
X123762070Y-101244123D01*
X123827463Y-101208735D01*
X123867265Y-101195070D01*
X123905032Y-101177460D01*
X123966681Y-101160941D01*
X124030666Y-101138975D01*
X124078362Y-101131016D01*
X124124084Y-101118765D01*
X124182307Y-101113671D01*
X124242578Y-101103614D01*
X124297262Y-101103614D01*
X124350000Y-101099000D01*
X124402738Y-101103614D01*
G37*
G36*
X131302738Y-101103614D02*
G01*
X131357422Y-101103614D01*
X131417691Y-101113671D01*
X131475916Y-101118765D01*
X131521638Y-101131016D01*
X131569333Y-101138975D01*
X131633313Y-101160939D01*
X131694968Y-101177460D01*
X131732736Y-101195071D01*
X131772536Y-101208735D01*
X131837922Y-101244120D01*
X131900500Y-101273301D01*
X131929961Y-101293930D01*
X131961487Y-101310991D01*
X132025661Y-101360939D01*
X132086267Y-101403376D01*
X132107625Y-101424734D01*
X132131029Y-101442950D01*
X132191154Y-101508263D01*
X132246624Y-101563733D01*
X132260624Y-101583728D01*
X132276532Y-101601008D01*
X132329603Y-101682240D01*
X132376699Y-101749500D01*
X132384560Y-101766358D01*
X132394045Y-101780876D01*
X132437094Y-101879019D01*
X132472540Y-101955032D01*
X132475841Y-101967351D01*
X132480346Y-101977622D01*
X132510513Y-102096752D01*
X132531235Y-102174084D01*
X132531835Y-102180949D01*
X132533087Y-102185891D01*
X132547748Y-102362839D01*
X132551000Y-102400000D01*
X132547748Y-102437163D01*
X132533087Y-102614108D01*
X132531835Y-102619048D01*
X132531235Y-102625916D01*
X132510509Y-102703265D01*
X132480346Y-102822377D01*
X132475841Y-102832645D01*
X132472540Y-102844968D01*
X132437087Y-102920996D01*
X132394045Y-103019123D01*
X132384561Y-103033638D01*
X132376699Y-103050500D01*
X132329593Y-103117773D01*
X132276532Y-103198991D01*
X132260627Y-103216267D01*
X132246624Y-103236267D01*
X132191142Y-103291748D01*
X132131029Y-103357049D01*
X132107629Y-103375261D01*
X132086267Y-103396624D01*
X132025648Y-103439069D01*
X131961487Y-103489008D01*
X131929967Y-103506065D01*
X131900500Y-103526699D01*
X131837908Y-103555885D01*
X131772536Y-103591264D01*
X131732744Y-103604924D01*
X131694968Y-103622540D01*
X131633300Y-103639063D01*
X131569333Y-103661024D01*
X131521646Y-103668981D01*
X131475916Y-103681235D01*
X131417688Y-103686329D01*
X131357422Y-103696386D01*
X131302738Y-103696386D01*
X131250000Y-103701000D01*
X131197262Y-103696386D01*
X131142578Y-103696386D01*
X131082311Y-103686329D01*
X131024084Y-103681235D01*
X130978355Y-103668981D01*
X130930666Y-103661024D01*
X130866694Y-103639062D01*
X130805032Y-103622540D01*
X130767257Y-103604925D01*
X130727463Y-103591264D01*
X130662083Y-103555882D01*
X130599500Y-103526699D01*
X130570035Y-103506067D01*
X130538512Y-103489008D01*
X130474341Y-103439062D01*
X130413733Y-103396624D01*
X130392373Y-103375264D01*
X130368970Y-103357049D01*
X130308844Y-103291735D01*
X130253376Y-103236267D01*
X130239375Y-103216272D01*
X130223467Y-103198991D01*
X130170391Y-103117752D01*
X130123301Y-103050500D01*
X130115440Y-103033643D01*
X130105954Y-103019123D01*
X130062895Y-102920960D01*
X130027460Y-102844968D01*
X130024159Y-102832651D01*
X130019653Y-102822377D01*
X129989472Y-102703197D01*
X129968765Y-102625916D01*
X129968164Y-102619054D01*
X129966912Y-102614108D01*
X129952232Y-102436947D01*
X129949000Y-102400000D01*
X129952232Y-102363055D01*
X129966912Y-102185891D01*
X129968164Y-102180943D01*
X129968765Y-102174084D01*
X129989467Y-102096820D01*
X130019653Y-101977622D01*
X130024160Y-101967346D01*
X130027460Y-101955032D01*
X130062888Y-101879055D01*
X130105954Y-101780876D01*
X130115442Y-101766352D01*
X130123301Y-101749500D01*
X130170381Y-101682261D01*
X130223467Y-101601008D01*
X130239378Y-101583723D01*
X130253376Y-101563733D01*
X130308833Y-101508275D01*
X130368970Y-101442950D01*
X130392378Y-101424730D01*
X130413733Y-101403376D01*
X130474328Y-101360946D01*
X130538512Y-101310991D01*
X130570041Y-101293927D01*
X130599500Y-101273301D01*
X130662070Y-101244123D01*
X130727463Y-101208735D01*
X130767265Y-101195070D01*
X130805032Y-101177460D01*
X130866681Y-101160941D01*
X130930666Y-101138975D01*
X130978362Y-101131016D01*
X131024084Y-101118765D01*
X131082307Y-101113671D01*
X131142578Y-101103614D01*
X131197262Y-101103614D01*
X131250000Y-101099000D01*
X131302738Y-101103614D01*
G37*
G36*
X143302738Y-101103614D02*
G01*
X143357422Y-101103614D01*
X143417691Y-101113671D01*
X143475916Y-101118765D01*
X143521638Y-101131016D01*
X143569333Y-101138975D01*
X143633313Y-101160939D01*
X143694968Y-101177460D01*
X143732736Y-101195071D01*
X143772536Y-101208735D01*
X143837922Y-101244120D01*
X143900500Y-101273301D01*
X143929961Y-101293930D01*
X143961487Y-101310991D01*
X144025661Y-101360939D01*
X144086267Y-101403376D01*
X144107625Y-101424734D01*
X144131029Y-101442950D01*
X144191154Y-101508263D01*
X144246624Y-101563733D01*
X144260624Y-101583728D01*
X144276532Y-101601008D01*
X144329603Y-101682240D01*
X144376699Y-101749500D01*
X144384560Y-101766358D01*
X144394045Y-101780876D01*
X144437094Y-101879019D01*
X144472540Y-101955032D01*
X144475841Y-101967351D01*
X144480346Y-101977622D01*
X144510513Y-102096752D01*
X144531235Y-102174084D01*
X144531835Y-102180949D01*
X144533087Y-102185891D01*
X144547748Y-102362839D01*
X144551000Y-102400000D01*
X144547748Y-102437163D01*
X144533087Y-102614108D01*
X144531835Y-102619048D01*
X144531235Y-102625916D01*
X144510509Y-102703265D01*
X144480346Y-102822377D01*
X144475841Y-102832645D01*
X144472540Y-102844968D01*
X144437087Y-102920996D01*
X144394045Y-103019123D01*
X144384561Y-103033638D01*
X144376699Y-103050500D01*
X144329593Y-103117773D01*
X144276532Y-103198991D01*
X144260627Y-103216267D01*
X144246624Y-103236267D01*
X144191142Y-103291748D01*
X144131029Y-103357049D01*
X144107629Y-103375261D01*
X144086267Y-103396624D01*
X144025648Y-103439069D01*
X143961487Y-103489008D01*
X143929967Y-103506065D01*
X143900500Y-103526699D01*
X143837908Y-103555885D01*
X143772536Y-103591264D01*
X143732744Y-103604924D01*
X143694968Y-103622540D01*
X143633300Y-103639063D01*
X143569333Y-103661024D01*
X143521646Y-103668981D01*
X143475916Y-103681235D01*
X143417688Y-103686329D01*
X143357422Y-103696386D01*
X143302738Y-103696386D01*
X143250000Y-103701000D01*
X143197262Y-103696386D01*
X143142578Y-103696386D01*
X143082311Y-103686329D01*
X143024084Y-103681235D01*
X142978355Y-103668981D01*
X142930666Y-103661024D01*
X142866694Y-103639062D01*
X142805032Y-103622540D01*
X142767257Y-103604925D01*
X142727463Y-103591264D01*
X142662083Y-103555882D01*
X142599500Y-103526699D01*
X142570035Y-103506067D01*
X142538512Y-103489008D01*
X142474341Y-103439062D01*
X142413733Y-103396624D01*
X142392373Y-103375264D01*
X142368970Y-103357049D01*
X142308844Y-103291735D01*
X142253376Y-103236267D01*
X142239375Y-103216272D01*
X142223467Y-103198991D01*
X142170391Y-103117752D01*
X142123301Y-103050500D01*
X142115440Y-103033643D01*
X142105954Y-103019123D01*
X142062895Y-102920960D01*
X142027460Y-102844968D01*
X142024159Y-102832651D01*
X142019653Y-102822377D01*
X141989472Y-102703197D01*
X141968765Y-102625916D01*
X141968164Y-102619054D01*
X141966912Y-102614108D01*
X141952232Y-102436947D01*
X141949000Y-102400000D01*
X141952232Y-102363055D01*
X141966912Y-102185891D01*
X141968164Y-102180943D01*
X141968765Y-102174084D01*
X141989467Y-102096820D01*
X142019653Y-101977622D01*
X142024160Y-101967346D01*
X142027460Y-101955032D01*
X142062888Y-101879055D01*
X142105954Y-101780876D01*
X142115442Y-101766352D01*
X142123301Y-101749500D01*
X142170381Y-101682261D01*
X142223467Y-101601008D01*
X142239378Y-101583723D01*
X142253376Y-101563733D01*
X142308833Y-101508275D01*
X142368970Y-101442950D01*
X142392378Y-101424730D01*
X142413733Y-101403376D01*
X142474328Y-101360946D01*
X142538512Y-101310991D01*
X142570041Y-101293927D01*
X142599500Y-101273301D01*
X142662070Y-101244123D01*
X142727463Y-101208735D01*
X142767265Y-101195070D01*
X142805032Y-101177460D01*
X142866681Y-101160941D01*
X142930666Y-101138975D01*
X142978362Y-101131016D01*
X143024084Y-101118765D01*
X143082307Y-101113671D01*
X143142578Y-101103614D01*
X143197262Y-101103614D01*
X143250000Y-101099000D01*
X143302738Y-101103614D01*
G37*
G36*
X158802738Y-101103614D02*
G01*
X158857422Y-101103614D01*
X158917691Y-101113671D01*
X158975916Y-101118765D01*
X159021638Y-101131016D01*
X159069333Y-101138975D01*
X159133313Y-101160939D01*
X159194968Y-101177460D01*
X159232736Y-101195071D01*
X159272536Y-101208735D01*
X159337922Y-101244120D01*
X159400500Y-101273301D01*
X159429961Y-101293930D01*
X159461487Y-101310991D01*
X159525661Y-101360939D01*
X159586267Y-101403376D01*
X159607625Y-101424734D01*
X159631029Y-101442950D01*
X159691154Y-101508263D01*
X159746624Y-101563733D01*
X159760624Y-101583728D01*
X159776532Y-101601008D01*
X159829603Y-101682240D01*
X159876699Y-101749500D01*
X159884560Y-101766358D01*
X159894045Y-101780876D01*
X159937094Y-101879019D01*
X159972540Y-101955032D01*
X159975841Y-101967351D01*
X159980346Y-101977622D01*
X160010513Y-102096752D01*
X160031235Y-102174084D01*
X160031835Y-102180949D01*
X160033087Y-102185891D01*
X160047748Y-102362839D01*
X160051000Y-102400000D01*
X160047748Y-102437163D01*
X160033087Y-102614108D01*
X160031835Y-102619048D01*
X160031235Y-102625916D01*
X160010509Y-102703265D01*
X159980346Y-102822377D01*
X159975841Y-102832645D01*
X159972540Y-102844968D01*
X159937087Y-102920996D01*
X159894045Y-103019123D01*
X159884561Y-103033638D01*
X159876699Y-103050500D01*
X159829593Y-103117773D01*
X159776532Y-103198991D01*
X159760627Y-103216267D01*
X159746624Y-103236267D01*
X159691142Y-103291748D01*
X159631029Y-103357049D01*
X159607629Y-103375261D01*
X159586267Y-103396624D01*
X159525648Y-103439069D01*
X159461487Y-103489008D01*
X159429967Y-103506065D01*
X159400500Y-103526699D01*
X159337908Y-103555885D01*
X159272536Y-103591264D01*
X159232744Y-103604924D01*
X159194968Y-103622540D01*
X159133300Y-103639063D01*
X159069333Y-103661024D01*
X159021646Y-103668981D01*
X158975916Y-103681235D01*
X158917688Y-103686329D01*
X158857422Y-103696386D01*
X158802738Y-103696386D01*
X158750000Y-103701000D01*
X158697262Y-103696386D01*
X158642578Y-103696386D01*
X158582311Y-103686329D01*
X158524084Y-103681235D01*
X158478355Y-103668981D01*
X158430666Y-103661024D01*
X158366694Y-103639062D01*
X158305032Y-103622540D01*
X158267257Y-103604925D01*
X158227463Y-103591264D01*
X158162083Y-103555882D01*
X158099500Y-103526699D01*
X158070035Y-103506067D01*
X158038512Y-103489008D01*
X157974341Y-103439062D01*
X157913733Y-103396624D01*
X157892373Y-103375264D01*
X157868970Y-103357049D01*
X157808844Y-103291735D01*
X157753376Y-103236267D01*
X157739375Y-103216272D01*
X157723467Y-103198991D01*
X157670391Y-103117752D01*
X157623301Y-103050500D01*
X157615440Y-103033643D01*
X157605954Y-103019123D01*
X157562895Y-102920960D01*
X157527460Y-102844968D01*
X157524159Y-102832651D01*
X157519653Y-102822377D01*
X157489472Y-102703197D01*
X157468765Y-102625916D01*
X157468164Y-102619054D01*
X157466912Y-102614108D01*
X157452232Y-102436947D01*
X157449000Y-102400000D01*
X157452232Y-102363055D01*
X157466912Y-102185891D01*
X157468164Y-102180943D01*
X157468765Y-102174084D01*
X157489467Y-102096820D01*
X157519653Y-101977622D01*
X157524160Y-101967346D01*
X157527460Y-101955032D01*
X157562888Y-101879055D01*
X157605954Y-101780876D01*
X157615442Y-101766352D01*
X157623301Y-101749500D01*
X157670381Y-101682261D01*
X157723467Y-101601008D01*
X157739378Y-101583723D01*
X157753376Y-101563733D01*
X157808833Y-101508275D01*
X157868970Y-101442950D01*
X157892378Y-101424730D01*
X157913733Y-101403376D01*
X157974328Y-101360946D01*
X158038512Y-101310991D01*
X158070041Y-101293927D01*
X158099500Y-101273301D01*
X158162070Y-101244123D01*
X158227463Y-101208735D01*
X158267265Y-101195070D01*
X158305032Y-101177460D01*
X158366681Y-101160941D01*
X158430666Y-101138975D01*
X158478362Y-101131016D01*
X158524084Y-101118765D01*
X158582307Y-101113671D01*
X158642578Y-101103614D01*
X158697262Y-101103614D01*
X158750000Y-101099000D01*
X158802738Y-101103614D01*
G37*
G36*
X170802738Y-101103614D02*
G01*
X170857422Y-101103614D01*
X170917691Y-101113671D01*
X170975916Y-101118765D01*
X171021638Y-101131016D01*
X171069333Y-101138975D01*
X171133313Y-101160939D01*
X171194968Y-101177460D01*
X171232736Y-101195071D01*
X171272536Y-101208735D01*
X171337922Y-101244120D01*
X171400500Y-101273301D01*
X171429961Y-101293930D01*
X171461487Y-101310991D01*
X171525661Y-101360939D01*
X171586267Y-101403376D01*
X171607625Y-101424734D01*
X171631029Y-101442950D01*
X171691154Y-101508263D01*
X171746624Y-101563733D01*
X171760624Y-101583728D01*
X171776532Y-101601008D01*
X171829603Y-101682240D01*
X171876699Y-101749500D01*
X171884560Y-101766358D01*
X171894045Y-101780876D01*
X171937094Y-101879019D01*
X171972540Y-101955032D01*
X171975841Y-101967351D01*
X171980346Y-101977622D01*
X172010513Y-102096752D01*
X172031235Y-102174084D01*
X172031835Y-102180949D01*
X172033087Y-102185891D01*
X172047748Y-102362839D01*
X172051000Y-102400000D01*
X172047748Y-102437163D01*
X172033087Y-102614108D01*
X172031835Y-102619048D01*
X172031235Y-102625916D01*
X172010509Y-102703265D01*
X171980346Y-102822377D01*
X171975841Y-102832645D01*
X171972540Y-102844968D01*
X171937087Y-102920996D01*
X171894045Y-103019123D01*
X171884561Y-103033638D01*
X171876699Y-103050500D01*
X171829593Y-103117773D01*
X171776532Y-103198991D01*
X171760627Y-103216267D01*
X171746624Y-103236267D01*
X171691142Y-103291748D01*
X171631029Y-103357049D01*
X171607629Y-103375261D01*
X171586267Y-103396624D01*
X171525648Y-103439069D01*
X171461487Y-103489008D01*
X171429967Y-103506065D01*
X171400500Y-103526699D01*
X171337908Y-103555885D01*
X171272536Y-103591264D01*
X171232744Y-103604924D01*
X171194968Y-103622540D01*
X171133300Y-103639063D01*
X171069333Y-103661024D01*
X171021646Y-103668981D01*
X170975916Y-103681235D01*
X170917688Y-103686329D01*
X170857422Y-103696386D01*
X170802738Y-103696386D01*
X170750000Y-103701000D01*
X170697262Y-103696386D01*
X170642578Y-103696386D01*
X170582311Y-103686329D01*
X170524084Y-103681235D01*
X170478355Y-103668981D01*
X170430666Y-103661024D01*
X170366694Y-103639062D01*
X170305032Y-103622540D01*
X170267257Y-103604925D01*
X170227463Y-103591264D01*
X170162083Y-103555882D01*
X170099500Y-103526699D01*
X170070035Y-103506067D01*
X170038512Y-103489008D01*
X169974341Y-103439062D01*
X169913733Y-103396624D01*
X169892373Y-103375264D01*
X169868970Y-103357049D01*
X169808844Y-103291735D01*
X169753376Y-103236267D01*
X169739375Y-103216272D01*
X169723467Y-103198991D01*
X169670391Y-103117752D01*
X169623301Y-103050500D01*
X169615440Y-103033643D01*
X169605954Y-103019123D01*
X169562895Y-102920960D01*
X169527460Y-102844968D01*
X169524159Y-102832651D01*
X169519653Y-102822377D01*
X169489472Y-102703197D01*
X169468765Y-102625916D01*
X169468164Y-102619054D01*
X169466912Y-102614108D01*
X169452232Y-102436947D01*
X169449000Y-102400000D01*
X169452232Y-102363055D01*
X169466912Y-102185891D01*
X169468164Y-102180943D01*
X169468765Y-102174084D01*
X169489467Y-102096820D01*
X169519653Y-101977622D01*
X169524160Y-101967346D01*
X169527460Y-101955032D01*
X169562888Y-101879055D01*
X169605954Y-101780876D01*
X169615442Y-101766352D01*
X169623301Y-101749500D01*
X169670381Y-101682261D01*
X169723467Y-101601008D01*
X169739378Y-101583723D01*
X169753376Y-101563733D01*
X169808833Y-101508275D01*
X169868970Y-101442950D01*
X169892378Y-101424730D01*
X169913733Y-101403376D01*
X169974328Y-101360946D01*
X170038512Y-101310991D01*
X170070041Y-101293927D01*
X170099500Y-101273301D01*
X170162070Y-101244123D01*
X170227463Y-101208735D01*
X170267265Y-101195070D01*
X170305032Y-101177460D01*
X170366681Y-101160941D01*
X170430666Y-101138975D01*
X170478362Y-101131016D01*
X170524084Y-101118765D01*
X170582307Y-101113671D01*
X170642578Y-101103614D01*
X170697262Y-101103614D01*
X170750000Y-101099000D01*
X170802738Y-101103614D01*
G37*
G36*
X177852738Y-101103614D02*
G01*
X177907422Y-101103614D01*
X177967691Y-101113671D01*
X178025916Y-101118765D01*
X178071638Y-101131016D01*
X178119333Y-101138975D01*
X178183313Y-101160939D01*
X178244968Y-101177460D01*
X178282736Y-101195071D01*
X178322536Y-101208735D01*
X178387922Y-101244120D01*
X178450500Y-101273301D01*
X178479961Y-101293930D01*
X178511487Y-101310991D01*
X178575661Y-101360939D01*
X178636267Y-101403376D01*
X178657625Y-101424734D01*
X178681029Y-101442950D01*
X178741154Y-101508263D01*
X178796624Y-101563733D01*
X178810624Y-101583728D01*
X178826532Y-101601008D01*
X178879603Y-101682240D01*
X178926699Y-101749500D01*
X178934560Y-101766358D01*
X178944045Y-101780876D01*
X178987094Y-101879019D01*
X179022540Y-101955032D01*
X179025841Y-101967351D01*
X179030346Y-101977622D01*
X179060513Y-102096752D01*
X179081235Y-102174084D01*
X179081835Y-102180949D01*
X179083087Y-102185891D01*
X179097748Y-102362839D01*
X179101000Y-102400000D01*
X179097748Y-102437163D01*
X179083087Y-102614108D01*
X179081835Y-102619048D01*
X179081235Y-102625916D01*
X179060509Y-102703265D01*
X179030346Y-102822377D01*
X179025841Y-102832645D01*
X179022540Y-102844968D01*
X178987087Y-102920996D01*
X178944045Y-103019123D01*
X178934561Y-103033638D01*
X178926699Y-103050500D01*
X178879593Y-103117773D01*
X178826532Y-103198991D01*
X178810627Y-103216267D01*
X178796624Y-103236267D01*
X178741142Y-103291748D01*
X178681029Y-103357049D01*
X178657629Y-103375261D01*
X178636267Y-103396624D01*
X178575648Y-103439069D01*
X178511487Y-103489008D01*
X178479967Y-103506065D01*
X178450500Y-103526699D01*
X178387908Y-103555885D01*
X178322536Y-103591264D01*
X178282744Y-103604924D01*
X178244968Y-103622540D01*
X178183300Y-103639063D01*
X178119333Y-103661024D01*
X178071646Y-103668981D01*
X178025916Y-103681235D01*
X177967688Y-103686329D01*
X177907422Y-103696386D01*
X177852738Y-103696386D01*
X177800000Y-103701000D01*
X177747262Y-103696386D01*
X177692578Y-103696386D01*
X177632311Y-103686329D01*
X177574084Y-103681235D01*
X177528355Y-103668981D01*
X177480666Y-103661024D01*
X177416694Y-103639062D01*
X177355032Y-103622540D01*
X177317257Y-103604925D01*
X177277463Y-103591264D01*
X177212083Y-103555882D01*
X177149500Y-103526699D01*
X177120035Y-103506067D01*
X177088512Y-103489008D01*
X177024341Y-103439062D01*
X176963733Y-103396624D01*
X176942373Y-103375264D01*
X176918970Y-103357049D01*
X176858844Y-103291735D01*
X176803376Y-103236267D01*
X176789375Y-103216272D01*
X176773467Y-103198991D01*
X176720391Y-103117752D01*
X176673301Y-103050500D01*
X176665440Y-103033643D01*
X176655954Y-103019123D01*
X176612895Y-102920960D01*
X176577460Y-102844968D01*
X176574159Y-102832651D01*
X176569653Y-102822377D01*
X176539472Y-102703197D01*
X176518765Y-102625916D01*
X176518164Y-102619054D01*
X176516912Y-102614108D01*
X176502232Y-102436947D01*
X176499000Y-102400000D01*
X176502232Y-102363055D01*
X176516912Y-102185891D01*
X176518164Y-102180943D01*
X176518765Y-102174084D01*
X176539467Y-102096820D01*
X176569653Y-101977622D01*
X176574160Y-101967346D01*
X176577460Y-101955032D01*
X176612888Y-101879055D01*
X176655954Y-101780876D01*
X176665442Y-101766352D01*
X176673301Y-101749500D01*
X176720381Y-101682261D01*
X176773467Y-101601008D01*
X176789378Y-101583723D01*
X176803376Y-101563733D01*
X176858833Y-101508275D01*
X176918970Y-101442950D01*
X176942378Y-101424730D01*
X176963733Y-101403376D01*
X177024328Y-101360946D01*
X177088512Y-101310991D01*
X177120041Y-101293927D01*
X177149500Y-101273301D01*
X177212070Y-101244123D01*
X177277463Y-101208735D01*
X177317265Y-101195070D01*
X177355032Y-101177460D01*
X177416681Y-101160941D01*
X177480666Y-101138975D01*
X177528362Y-101131016D01*
X177574084Y-101118765D01*
X177632307Y-101113671D01*
X177692578Y-101103614D01*
X177747262Y-101103614D01*
X177800000Y-101099000D01*
X177852738Y-101103614D01*
G37*
G36*
X189852738Y-101103614D02*
G01*
X189907422Y-101103614D01*
X189967691Y-101113671D01*
X190025916Y-101118765D01*
X190071638Y-101131016D01*
X190119333Y-101138975D01*
X190183313Y-101160939D01*
X190244968Y-101177460D01*
X190282736Y-101195071D01*
X190322536Y-101208735D01*
X190387922Y-101244120D01*
X190450500Y-101273301D01*
X190479961Y-101293930D01*
X190511487Y-101310991D01*
X190575661Y-101360939D01*
X190636267Y-101403376D01*
X190657625Y-101424734D01*
X190681029Y-101442950D01*
X190741154Y-101508263D01*
X190796624Y-101563733D01*
X190810624Y-101583728D01*
X190826532Y-101601008D01*
X190879603Y-101682240D01*
X190926699Y-101749500D01*
X190934560Y-101766358D01*
X190944045Y-101780876D01*
X190987094Y-101879019D01*
X191022540Y-101955032D01*
X191025841Y-101967351D01*
X191030346Y-101977622D01*
X191060513Y-102096752D01*
X191081235Y-102174084D01*
X191081835Y-102180949D01*
X191083087Y-102185891D01*
X191097748Y-102362839D01*
X191101000Y-102400000D01*
X191097748Y-102437163D01*
X191083087Y-102614108D01*
X191081835Y-102619048D01*
X191081235Y-102625916D01*
X191060509Y-102703265D01*
X191030346Y-102822377D01*
X191025841Y-102832645D01*
X191022540Y-102844968D01*
X190987087Y-102920996D01*
X190944045Y-103019123D01*
X190934561Y-103033638D01*
X190926699Y-103050500D01*
X190879593Y-103117773D01*
X190826532Y-103198991D01*
X190810627Y-103216267D01*
X190796624Y-103236267D01*
X190741142Y-103291748D01*
X190681029Y-103357049D01*
X190657629Y-103375261D01*
X190636267Y-103396624D01*
X190575648Y-103439069D01*
X190511487Y-103489008D01*
X190479967Y-103506065D01*
X190450500Y-103526699D01*
X190387908Y-103555885D01*
X190322536Y-103591264D01*
X190282744Y-103604924D01*
X190244968Y-103622540D01*
X190183300Y-103639063D01*
X190119333Y-103661024D01*
X190071646Y-103668981D01*
X190025916Y-103681235D01*
X189967688Y-103686329D01*
X189907422Y-103696386D01*
X189852738Y-103696386D01*
X189800000Y-103701000D01*
X189747262Y-103696386D01*
X189692578Y-103696386D01*
X189632311Y-103686329D01*
X189574084Y-103681235D01*
X189528355Y-103668981D01*
X189480666Y-103661024D01*
X189416694Y-103639062D01*
X189355032Y-103622540D01*
X189317257Y-103604925D01*
X189277463Y-103591264D01*
X189212083Y-103555882D01*
X189149500Y-103526699D01*
X189120035Y-103506067D01*
X189088512Y-103489008D01*
X189024341Y-103439062D01*
X188963733Y-103396624D01*
X188942373Y-103375264D01*
X188918970Y-103357049D01*
X188858844Y-103291735D01*
X188803376Y-103236267D01*
X188789375Y-103216272D01*
X188773467Y-103198991D01*
X188720391Y-103117752D01*
X188673301Y-103050500D01*
X188665440Y-103033643D01*
X188655954Y-103019123D01*
X188612895Y-102920960D01*
X188577460Y-102844968D01*
X188574159Y-102832651D01*
X188569653Y-102822377D01*
X188539472Y-102703197D01*
X188518765Y-102625916D01*
X188518164Y-102619054D01*
X188516912Y-102614108D01*
X188502232Y-102436947D01*
X188499000Y-102400000D01*
X188502232Y-102363055D01*
X188516912Y-102185891D01*
X188518164Y-102180943D01*
X188518765Y-102174084D01*
X188539467Y-102096820D01*
X188569653Y-101977622D01*
X188574160Y-101967346D01*
X188577460Y-101955032D01*
X188612888Y-101879055D01*
X188655954Y-101780876D01*
X188665442Y-101766352D01*
X188673301Y-101749500D01*
X188720381Y-101682261D01*
X188773467Y-101601008D01*
X188789378Y-101583723D01*
X188803376Y-101563733D01*
X188858833Y-101508275D01*
X188918970Y-101442950D01*
X188942378Y-101424730D01*
X188963733Y-101403376D01*
X189024328Y-101360946D01*
X189088512Y-101310991D01*
X189120041Y-101293927D01*
X189149500Y-101273301D01*
X189212070Y-101244123D01*
X189277463Y-101208735D01*
X189317265Y-101195070D01*
X189355032Y-101177460D01*
X189416681Y-101160941D01*
X189480666Y-101138975D01*
X189528362Y-101131016D01*
X189574084Y-101118765D01*
X189632307Y-101113671D01*
X189692578Y-101103614D01*
X189747262Y-101103614D01*
X189800000Y-101099000D01*
X189852738Y-101103614D01*
G37*
G36*
X146123914Y-100661995D02*
G01*
X146132612Y-100665835D01*
X146140212Y-100666943D01*
X146187718Y-100690167D01*
X146225106Y-100706676D01*
X146228567Y-100710137D01*
X146229501Y-100710594D01*
X146299405Y-100780498D01*
X146299861Y-100781431D01*
X146303324Y-100784894D01*
X146319836Y-100822291D01*
X146343056Y-100869787D01*
X146344162Y-100877384D01*
X146348005Y-100886086D01*
X146356000Y-100955000D01*
X146356000Y-103155000D01*
X146348005Y-103223914D01*
X146344162Y-103232615D01*
X146343056Y-103240212D01*
X146319841Y-103287697D01*
X146303324Y-103325106D01*
X146299860Y-103328569D01*
X146299405Y-103329501D01*
X146229501Y-103399405D01*
X146228569Y-103399860D01*
X146225106Y-103403324D01*
X146187697Y-103419841D01*
X146140212Y-103443056D01*
X146132615Y-103444162D01*
X146123914Y-103448005D01*
X146055000Y-103456000D01*
X145055000Y-103456000D01*
X144986086Y-103448005D01*
X144977384Y-103444162D01*
X144969787Y-103443056D01*
X144922291Y-103419836D01*
X144884894Y-103403324D01*
X144881431Y-103399861D01*
X144880498Y-103399405D01*
X144810594Y-103329501D01*
X144810137Y-103328567D01*
X144806676Y-103325106D01*
X144790167Y-103287718D01*
X144766943Y-103240212D01*
X144765835Y-103232612D01*
X144761995Y-103223914D01*
X144754000Y-103155000D01*
X144754000Y-100955000D01*
X144761995Y-100886086D01*
X144765835Y-100877387D01*
X144766943Y-100869787D01*
X144790172Y-100822270D01*
X144806676Y-100784894D01*
X144810136Y-100781433D01*
X144810594Y-100780498D01*
X144880498Y-100710594D01*
X144881433Y-100710136D01*
X144884894Y-100706676D01*
X144922270Y-100690172D01*
X144969787Y-100666943D01*
X144977387Y-100665835D01*
X144986086Y-100661995D01*
X145055000Y-100654000D01*
X146055000Y-100654000D01*
X146123914Y-100661995D01*
G37*
G36*
X150923914Y-100661995D02*
G01*
X150932612Y-100665835D01*
X150940212Y-100666943D01*
X150987718Y-100690167D01*
X151025106Y-100706676D01*
X151028567Y-100710137D01*
X151029501Y-100710594D01*
X151099405Y-100780498D01*
X151099861Y-100781431D01*
X151103324Y-100784894D01*
X151119836Y-100822291D01*
X151143056Y-100869787D01*
X151144162Y-100877384D01*
X151148005Y-100886086D01*
X151156000Y-100955000D01*
X151156000Y-103155000D01*
X151148005Y-103223914D01*
X151144162Y-103232615D01*
X151143056Y-103240212D01*
X151119841Y-103287697D01*
X151103324Y-103325106D01*
X151099860Y-103328569D01*
X151099405Y-103329501D01*
X151029501Y-103399405D01*
X151028569Y-103399860D01*
X151025106Y-103403324D01*
X150987697Y-103419841D01*
X150940212Y-103443056D01*
X150932615Y-103444162D01*
X150923914Y-103448005D01*
X150855000Y-103456000D01*
X149855000Y-103456000D01*
X149786086Y-103448005D01*
X149777384Y-103444162D01*
X149769787Y-103443056D01*
X149722291Y-103419836D01*
X149684894Y-103403324D01*
X149681431Y-103399861D01*
X149680498Y-103399405D01*
X149610594Y-103329501D01*
X149610137Y-103328567D01*
X149606676Y-103325106D01*
X149590167Y-103287718D01*
X149566943Y-103240212D01*
X149565835Y-103232612D01*
X149561995Y-103223914D01*
X149554000Y-103155000D01*
X149554000Y-100955000D01*
X149561995Y-100886086D01*
X149565835Y-100877387D01*
X149566943Y-100869787D01*
X149590172Y-100822270D01*
X149606676Y-100784894D01*
X149610136Y-100781433D01*
X149610594Y-100780498D01*
X149680498Y-100710594D01*
X149681433Y-100710136D01*
X149684894Y-100706676D01*
X149722270Y-100690172D01*
X149769787Y-100666943D01*
X149777387Y-100665835D01*
X149786086Y-100661995D01*
X149855000Y-100654000D01*
X150855000Y-100654000D01*
X150923914Y-100661995D01*
G37*
G36*
X119619517Y-99102882D02*
G01*
X119636062Y-99113938D01*
X119647118Y-99130483D01*
X119651000Y-99150000D01*
X119651000Y-101650000D01*
X119647118Y-101669517D01*
X119636062Y-101686062D01*
X119619517Y-101697118D01*
X119600000Y-101701000D01*
X117100000Y-101701000D01*
X117080483Y-101697118D01*
X117063938Y-101686062D01*
X117052882Y-101669517D01*
X117049000Y-101650000D01*
X117049000Y-99150000D01*
X117052882Y-99130483D01*
X117063938Y-99113938D01*
X117080483Y-99102882D01*
X117100000Y-99099000D01*
X119600000Y-99099000D01*
X119619517Y-99102882D01*
G37*
G36*
X138519517Y-99102882D02*
G01*
X138536062Y-99113938D01*
X138547118Y-99130483D01*
X138551000Y-99150000D01*
X138551000Y-101650000D01*
X138547118Y-101669517D01*
X138536062Y-101686062D01*
X138519517Y-101697118D01*
X138500000Y-101701000D01*
X136000000Y-101701000D01*
X135980483Y-101697118D01*
X135963938Y-101686062D01*
X135952882Y-101669517D01*
X135949000Y-101650000D01*
X135949000Y-99150000D01*
X135952882Y-99130483D01*
X135963938Y-99113938D01*
X135980483Y-99102882D01*
X136000000Y-99099000D01*
X138500000Y-99099000D01*
X138519517Y-99102882D01*
G37*
G36*
X166019517Y-99102882D02*
G01*
X166036062Y-99113938D01*
X166047118Y-99130483D01*
X166051000Y-99150000D01*
X166051000Y-101650000D01*
X166047118Y-101669517D01*
X166036062Y-101686062D01*
X166019517Y-101697118D01*
X166000000Y-101701000D01*
X163500000Y-101701000D01*
X163480483Y-101697118D01*
X163463938Y-101686062D01*
X163452882Y-101669517D01*
X163449000Y-101650000D01*
X163449000Y-99150000D01*
X163452882Y-99130483D01*
X163463938Y-99113938D01*
X163480483Y-99102882D01*
X163500000Y-99099000D01*
X166000000Y-99099000D01*
X166019517Y-99102882D01*
G37*
G36*
X185069517Y-99102882D02*
G01*
X185086062Y-99113938D01*
X185097118Y-99130483D01*
X185101000Y-99150000D01*
X185101000Y-101650000D01*
X185097118Y-101669517D01*
X185086062Y-101686062D01*
X185069517Y-101697118D01*
X185050000Y-101701000D01*
X182550000Y-101701000D01*
X182530483Y-101697118D01*
X182513938Y-101686062D01*
X182502882Y-101669517D01*
X182499000Y-101650000D01*
X182499000Y-99150000D01*
X182502882Y-99130483D01*
X182513938Y-99113938D01*
X182530483Y-99102882D01*
X182550000Y-99099000D01*
X185050000Y-99099000D01*
X185069517Y-99102882D01*
G37*
G36*
X125803914Y-98121995D02*
G01*
X125812612Y-98125835D01*
X125820212Y-98126943D01*
X125867718Y-98150167D01*
X125905106Y-98166676D01*
X125908567Y-98170137D01*
X125909501Y-98170594D01*
X125979405Y-98240498D01*
X125979861Y-98241431D01*
X125983324Y-98244894D01*
X125999836Y-98282291D01*
X126023056Y-98329787D01*
X126024162Y-98337384D01*
X126028005Y-98346086D01*
X126036000Y-98415000D01*
X126036000Y-100615000D01*
X126028005Y-100683914D01*
X126024162Y-100692615D01*
X126023056Y-100700212D01*
X125999841Y-100747697D01*
X125983324Y-100785106D01*
X125979860Y-100788569D01*
X125979405Y-100789501D01*
X125909501Y-100859405D01*
X125908569Y-100859860D01*
X125905106Y-100863324D01*
X125867697Y-100879841D01*
X125820212Y-100903056D01*
X125812615Y-100904162D01*
X125803914Y-100908005D01*
X125735000Y-100916000D01*
X124735000Y-100916000D01*
X124666086Y-100908005D01*
X124657384Y-100904162D01*
X124649787Y-100903056D01*
X124602291Y-100879836D01*
X124564894Y-100863324D01*
X124561431Y-100859861D01*
X124560498Y-100859405D01*
X124490594Y-100789501D01*
X124490137Y-100788567D01*
X124486676Y-100785106D01*
X124470167Y-100747718D01*
X124446943Y-100700212D01*
X124445835Y-100692612D01*
X124441995Y-100683914D01*
X124434000Y-100615000D01*
X124434000Y-98415000D01*
X124441995Y-98346086D01*
X124445835Y-98337387D01*
X124446943Y-98329787D01*
X124470172Y-98282270D01*
X124486676Y-98244894D01*
X124490136Y-98241433D01*
X124490594Y-98240498D01*
X124560498Y-98170594D01*
X124561433Y-98170136D01*
X124564894Y-98166676D01*
X124602270Y-98150172D01*
X124649787Y-98126943D01*
X124657387Y-98125835D01*
X124666086Y-98121995D01*
X124735000Y-98114000D01*
X125735000Y-98114000D01*
X125803914Y-98121995D01*
G37*
G36*
X130603914Y-98121995D02*
G01*
X130612612Y-98125835D01*
X130620212Y-98126943D01*
X130667718Y-98150167D01*
X130705106Y-98166676D01*
X130708567Y-98170137D01*
X130709501Y-98170594D01*
X130779405Y-98240498D01*
X130779861Y-98241431D01*
X130783324Y-98244894D01*
X130799836Y-98282291D01*
X130823056Y-98329787D01*
X130824162Y-98337384D01*
X130828005Y-98346086D01*
X130836000Y-98415000D01*
X130836000Y-100615000D01*
X130828005Y-100683914D01*
X130824162Y-100692615D01*
X130823056Y-100700212D01*
X130799841Y-100747697D01*
X130783324Y-100785106D01*
X130779860Y-100788569D01*
X130779405Y-100789501D01*
X130709501Y-100859405D01*
X130708569Y-100859860D01*
X130705106Y-100863324D01*
X130667697Y-100879841D01*
X130620212Y-100903056D01*
X130612615Y-100904162D01*
X130603914Y-100908005D01*
X130535000Y-100916000D01*
X129535000Y-100916000D01*
X129466086Y-100908005D01*
X129457384Y-100904162D01*
X129449787Y-100903056D01*
X129402291Y-100879836D01*
X129364894Y-100863324D01*
X129361431Y-100859861D01*
X129360498Y-100859405D01*
X129290594Y-100789501D01*
X129290137Y-100788567D01*
X129286676Y-100785106D01*
X129270167Y-100747718D01*
X129246943Y-100700212D01*
X129245835Y-100692612D01*
X129241995Y-100683914D01*
X129234000Y-100615000D01*
X129234000Y-98415000D01*
X129241995Y-98346086D01*
X129245835Y-98337387D01*
X129246943Y-98329787D01*
X129270172Y-98282270D01*
X129286676Y-98244894D01*
X129290136Y-98241433D01*
X129290594Y-98240498D01*
X129360498Y-98170594D01*
X129361433Y-98170136D01*
X129364894Y-98166676D01*
X129402270Y-98150172D01*
X129449787Y-98126943D01*
X129457387Y-98125835D01*
X129466086Y-98121995D01*
X129535000Y-98114000D01*
X130535000Y-98114000D01*
X130603914Y-98121995D01*
G37*
G36*
X172168914Y-98121995D02*
G01*
X172177612Y-98125835D01*
X172185212Y-98126943D01*
X172232718Y-98150167D01*
X172270106Y-98166676D01*
X172273567Y-98170137D01*
X172274501Y-98170594D01*
X172344405Y-98240498D01*
X172344861Y-98241431D01*
X172348324Y-98244894D01*
X172364836Y-98282291D01*
X172388056Y-98329787D01*
X172389162Y-98337384D01*
X172393005Y-98346086D01*
X172401000Y-98415000D01*
X172401000Y-100615000D01*
X172393005Y-100683914D01*
X172389162Y-100692615D01*
X172388056Y-100700212D01*
X172364841Y-100747697D01*
X172348324Y-100785106D01*
X172344860Y-100788569D01*
X172344405Y-100789501D01*
X172274501Y-100859405D01*
X172273569Y-100859860D01*
X172270106Y-100863324D01*
X172232697Y-100879841D01*
X172185212Y-100903056D01*
X172177615Y-100904162D01*
X172168914Y-100908005D01*
X172100000Y-100916000D01*
X171100000Y-100916000D01*
X171031086Y-100908005D01*
X171022384Y-100904162D01*
X171014787Y-100903056D01*
X170967291Y-100879836D01*
X170929894Y-100863324D01*
X170926431Y-100859861D01*
X170925498Y-100859405D01*
X170855594Y-100789501D01*
X170855137Y-100788567D01*
X170851676Y-100785106D01*
X170835167Y-100747718D01*
X170811943Y-100700212D01*
X170810835Y-100692612D01*
X170806995Y-100683914D01*
X170799000Y-100615000D01*
X170799000Y-98415000D01*
X170806995Y-98346086D01*
X170810835Y-98337387D01*
X170811943Y-98329787D01*
X170835172Y-98282270D01*
X170851676Y-98244894D01*
X170855136Y-98241433D01*
X170855594Y-98240498D01*
X170925498Y-98170594D01*
X170926433Y-98170136D01*
X170929894Y-98166676D01*
X170967270Y-98150172D01*
X171014787Y-98126943D01*
X171022387Y-98125835D01*
X171031086Y-98121995D01*
X171100000Y-98114000D01*
X172100000Y-98114000D01*
X172168914Y-98121995D01*
G37*
G36*
X176968914Y-98121995D02*
G01*
X176977612Y-98125835D01*
X176985212Y-98126943D01*
X177032718Y-98150167D01*
X177070106Y-98166676D01*
X177073567Y-98170137D01*
X177074501Y-98170594D01*
X177144405Y-98240498D01*
X177144861Y-98241431D01*
X177148324Y-98244894D01*
X177164836Y-98282291D01*
X177188056Y-98329787D01*
X177189162Y-98337384D01*
X177193005Y-98346086D01*
X177201000Y-98415000D01*
X177201000Y-100615000D01*
X177193005Y-100683914D01*
X177189162Y-100692615D01*
X177188056Y-100700212D01*
X177164841Y-100747697D01*
X177148324Y-100785106D01*
X177144860Y-100788569D01*
X177144405Y-100789501D01*
X177074501Y-100859405D01*
X177073569Y-100859860D01*
X177070106Y-100863324D01*
X177032697Y-100879841D01*
X176985212Y-100903056D01*
X176977615Y-100904162D01*
X176968914Y-100908005D01*
X176900000Y-100916000D01*
X175900000Y-100916000D01*
X175831086Y-100908005D01*
X175822384Y-100904162D01*
X175814787Y-100903056D01*
X175767291Y-100879836D01*
X175729894Y-100863324D01*
X175726431Y-100859861D01*
X175725498Y-100859405D01*
X175655594Y-100789501D01*
X175655137Y-100788567D01*
X175651676Y-100785106D01*
X175635167Y-100747718D01*
X175611943Y-100700212D01*
X175610835Y-100692612D01*
X175606995Y-100683914D01*
X175599000Y-100615000D01*
X175599000Y-98415000D01*
X175606995Y-98346086D01*
X175610835Y-98337387D01*
X175611943Y-98329787D01*
X175635172Y-98282270D01*
X175651676Y-98244894D01*
X175655136Y-98241433D01*
X175655594Y-98240498D01*
X175725498Y-98170594D01*
X175726433Y-98170136D01*
X175729894Y-98166676D01*
X175767270Y-98150172D01*
X175814787Y-98126943D01*
X175822387Y-98125835D01*
X175831086Y-98121995D01*
X175900000Y-98114000D01*
X176900000Y-98114000D01*
X176968914Y-98121995D01*
G37*
G36*
X191843914Y-96446995D02*
G01*
X191852612Y-96450835D01*
X191860212Y-96451943D01*
X191907718Y-96475167D01*
X191945106Y-96491676D01*
X191948567Y-96495137D01*
X191949501Y-96495594D01*
X192019405Y-96565498D01*
X192019861Y-96566431D01*
X192023324Y-96569894D01*
X192039836Y-96607291D01*
X192063056Y-96654787D01*
X192064162Y-96662384D01*
X192068005Y-96671086D01*
X192076000Y-96740000D01*
X192076000Y-98940000D01*
X192068005Y-99008914D01*
X192064162Y-99017615D01*
X192063056Y-99025212D01*
X192039841Y-99072697D01*
X192023324Y-99110106D01*
X192019860Y-99113569D01*
X192019405Y-99114501D01*
X191949501Y-99184405D01*
X191948569Y-99184860D01*
X191945106Y-99188324D01*
X191907697Y-99204841D01*
X191860212Y-99228056D01*
X191852615Y-99229162D01*
X191843914Y-99233005D01*
X191775000Y-99241000D01*
X190775000Y-99241000D01*
X190706086Y-99233005D01*
X190697384Y-99229162D01*
X190689787Y-99228056D01*
X190642291Y-99204836D01*
X190604894Y-99188324D01*
X190601431Y-99184861D01*
X190600498Y-99184405D01*
X190530594Y-99114501D01*
X190530137Y-99113567D01*
X190526676Y-99110106D01*
X190510167Y-99072718D01*
X190486943Y-99025212D01*
X190485835Y-99017612D01*
X190481995Y-99008914D01*
X190474000Y-98940000D01*
X190474000Y-96740000D01*
X190481995Y-96671086D01*
X190485835Y-96662387D01*
X190486943Y-96654787D01*
X190510172Y-96607270D01*
X190526676Y-96569894D01*
X190530136Y-96566433D01*
X190530594Y-96565498D01*
X190600498Y-96495594D01*
X190601433Y-96495136D01*
X190604894Y-96491676D01*
X190642270Y-96475172D01*
X190689787Y-96451943D01*
X190697387Y-96450835D01*
X190706086Y-96446995D01*
X190775000Y-96439000D01*
X191775000Y-96439000D01*
X191843914Y-96446995D01*
G37*
G36*
X196643914Y-96446995D02*
G01*
X196652612Y-96450835D01*
X196660212Y-96451943D01*
X196707718Y-96475167D01*
X196745106Y-96491676D01*
X196748567Y-96495137D01*
X196749501Y-96495594D01*
X196819405Y-96565498D01*
X196819861Y-96566431D01*
X196823324Y-96569894D01*
X196839836Y-96607291D01*
X196863056Y-96654787D01*
X196864162Y-96662384D01*
X196868005Y-96671086D01*
X196876000Y-96740000D01*
X196876000Y-98940000D01*
X196868005Y-99008914D01*
X196864162Y-99017615D01*
X196863056Y-99025212D01*
X196839841Y-99072697D01*
X196823324Y-99110106D01*
X196819860Y-99113569D01*
X196819405Y-99114501D01*
X196749501Y-99184405D01*
X196748569Y-99184860D01*
X196745106Y-99188324D01*
X196707697Y-99204841D01*
X196660212Y-99228056D01*
X196652615Y-99229162D01*
X196643914Y-99233005D01*
X196575000Y-99241000D01*
X195575000Y-99241000D01*
X195506086Y-99233005D01*
X195497384Y-99229162D01*
X195489787Y-99228056D01*
X195442291Y-99204836D01*
X195404894Y-99188324D01*
X195401431Y-99184861D01*
X195400498Y-99184405D01*
X195330594Y-99114501D01*
X195330137Y-99113567D01*
X195326676Y-99110106D01*
X195310167Y-99072718D01*
X195286943Y-99025212D01*
X195285835Y-99017612D01*
X195281995Y-99008914D01*
X195274000Y-98940000D01*
X195274000Y-96740000D01*
X195281995Y-96671086D01*
X195285835Y-96662387D01*
X195286943Y-96654787D01*
X195310172Y-96607270D01*
X195326676Y-96569894D01*
X195330136Y-96566433D01*
X195330594Y-96565498D01*
X195400498Y-96495594D01*
X195401433Y-96495136D01*
X195404894Y-96491676D01*
X195442270Y-96475172D01*
X195489787Y-96451943D01*
X195497387Y-96450835D01*
X195506086Y-96446995D01*
X195575000Y-96439000D01*
X196575000Y-96439000D01*
X196643914Y-96446995D01*
G37*
G36*
X103122973Y-94205651D02*
G01*
X103285500Y-94278012D01*
X103429430Y-94382584D01*
X103548473Y-94514795D01*
X103637427Y-94668867D01*
X103692404Y-94838067D01*
X103711000Y-95015000D01*
X103692404Y-95191933D01*
X103637427Y-95361133D01*
X103548473Y-95515205D01*
X103429430Y-95647416D01*
X103285500Y-95751988D01*
X103122973Y-95824349D01*
X102948954Y-95861338D01*
X102771046Y-95861338D01*
X102597027Y-95824349D01*
X102434500Y-95751988D01*
X102290570Y-95647416D01*
X102171527Y-95515205D01*
X102082573Y-95361133D01*
X102027596Y-95191933D01*
X102009000Y-95015000D01*
X102027596Y-94838067D01*
X102082573Y-94668867D01*
X102171527Y-94514795D01*
X102290570Y-94382584D01*
X102434500Y-94278012D01*
X102597027Y-94205651D01*
X102771046Y-94168662D01*
X102948954Y-94168662D01*
X103122973Y-94205651D01*
G37*
G36*
X108122973Y-94205651D02*
G01*
X108285500Y-94278012D01*
X108429430Y-94382584D01*
X108548473Y-94514795D01*
X108637427Y-94668867D01*
X108692404Y-94838067D01*
X108711000Y-95015000D01*
X108692404Y-95191933D01*
X108637427Y-95361133D01*
X108548473Y-95515205D01*
X108429430Y-95647416D01*
X108285500Y-95751988D01*
X108122973Y-95824349D01*
X107948954Y-95861338D01*
X107771046Y-95861338D01*
X107597027Y-95824349D01*
X107434500Y-95751988D01*
X107290570Y-95647416D01*
X107171527Y-95515205D01*
X107082573Y-95361133D01*
X107027596Y-95191933D01*
X107009000Y-95015000D01*
X107027596Y-94838067D01*
X107082573Y-94668867D01*
X107171527Y-94514795D01*
X107290570Y-94382584D01*
X107434500Y-94278012D01*
X107597027Y-94205651D01*
X107771046Y-94168662D01*
X107948954Y-94168662D01*
X108122973Y-94205651D01*
G37*
G36*
X118992032Y-90780644D02*
G01*
X119146159Y-90844485D01*
X119284869Y-90937168D01*
X119402832Y-91055131D01*
X119495515Y-91193841D01*
X119559356Y-91347968D01*
X119591902Y-91511587D01*
X119596000Y-91595000D01*
X119596000Y-92395000D01*
X119591902Y-92478413D01*
X119559356Y-92642032D01*
X119495515Y-92796159D01*
X119402832Y-92934869D01*
X119284869Y-93052832D01*
X119146159Y-93145515D01*
X118992032Y-93209356D01*
X118828413Y-93241902D01*
X118661587Y-93241902D01*
X118497968Y-93209356D01*
X118343841Y-93145515D01*
X118205131Y-93052832D01*
X118087168Y-92934869D01*
X117994485Y-92796159D01*
X117930644Y-92642032D01*
X117898098Y-92478413D01*
X117894000Y-92395000D01*
X117894000Y-91595000D01*
X117898098Y-91511587D01*
X117930644Y-91347968D01*
X117994485Y-91193841D01*
X118087168Y-91055131D01*
X118205131Y-90937168D01*
X118343841Y-90844485D01*
X118497968Y-90780644D01*
X118661587Y-90748098D01*
X118828413Y-90748098D01*
X118992032Y-90780644D01*
G37*
G36*
X121532032Y-90780644D02*
G01*
X121686159Y-90844485D01*
X121824869Y-90937168D01*
X121942832Y-91055131D01*
X122035515Y-91193841D01*
X122099356Y-91347968D01*
X122131902Y-91511587D01*
X122136000Y-91595000D01*
X122136000Y-92395000D01*
X122131902Y-92478413D01*
X122099356Y-92642032D01*
X122035515Y-92796159D01*
X121942832Y-92934869D01*
X121824869Y-93052832D01*
X121686159Y-93145515D01*
X121532032Y-93209356D01*
X121368413Y-93241902D01*
X121201587Y-93241902D01*
X121037968Y-93209356D01*
X120883841Y-93145515D01*
X120745131Y-93052832D01*
X120627168Y-92934869D01*
X120534485Y-92796159D01*
X120470644Y-92642032D01*
X120438098Y-92478413D01*
X120434000Y-92395000D01*
X120434000Y-91595000D01*
X120438098Y-91511587D01*
X120470644Y-91347968D01*
X120534485Y-91193841D01*
X120627168Y-91055131D01*
X120745131Y-90937168D01*
X120883841Y-90844485D01*
X121037968Y-90780644D01*
X121201587Y-90748098D01*
X121368413Y-90748098D01*
X121532032Y-90780644D01*
G37*
G36*
X124072032Y-90780644D02*
G01*
X124226159Y-90844485D01*
X124364869Y-90937168D01*
X124482832Y-91055131D01*
X124575515Y-91193841D01*
X124639356Y-91347968D01*
X124671902Y-91511587D01*
X124676000Y-91595000D01*
X124676000Y-92395000D01*
X124671902Y-92478413D01*
X124639356Y-92642032D01*
X124575515Y-92796159D01*
X124482832Y-92934869D01*
X124364869Y-93052832D01*
X124226159Y-93145515D01*
X124072032Y-93209356D01*
X123908413Y-93241902D01*
X123741587Y-93241902D01*
X123577968Y-93209356D01*
X123423841Y-93145515D01*
X123285131Y-93052832D01*
X123167168Y-92934869D01*
X123074485Y-92796159D01*
X123010644Y-92642032D01*
X122978098Y-92478413D01*
X122974000Y-92395000D01*
X122974000Y-91595000D01*
X122978098Y-91511587D01*
X123010644Y-91347968D01*
X123074485Y-91193841D01*
X123167168Y-91055131D01*
X123285131Y-90937168D01*
X123423841Y-90844485D01*
X123577968Y-90780644D01*
X123741587Y-90748098D01*
X123908413Y-90748098D01*
X124072032Y-90780644D01*
G37*
G36*
X126612032Y-90780644D02*
G01*
X126766159Y-90844485D01*
X126904869Y-90937168D01*
X127022832Y-91055131D01*
X127115515Y-91193841D01*
X127179356Y-91347968D01*
X127211902Y-91511587D01*
X127216000Y-91595000D01*
X127216000Y-92395000D01*
X127211902Y-92478413D01*
X127179356Y-92642032D01*
X127115515Y-92796159D01*
X127022832Y-92934869D01*
X126904869Y-93052832D01*
X126766159Y-93145515D01*
X126612032Y-93209356D01*
X126448413Y-93241902D01*
X126281587Y-93241902D01*
X126117968Y-93209356D01*
X125963841Y-93145515D01*
X125825131Y-93052832D01*
X125707168Y-92934869D01*
X125614485Y-92796159D01*
X125550644Y-92642032D01*
X125518098Y-92478413D01*
X125514000Y-92395000D01*
X125514000Y-91595000D01*
X125518098Y-91511587D01*
X125550644Y-91347968D01*
X125614485Y-91193841D01*
X125707168Y-91055131D01*
X125825131Y-90937168D01*
X125963841Y-90844485D01*
X126117968Y-90780644D01*
X126281587Y-90748098D01*
X126448413Y-90748098D01*
X126612032Y-90780644D01*
G37*
G36*
X129152032Y-90780644D02*
G01*
X129306159Y-90844485D01*
X129444869Y-90937168D01*
X129562832Y-91055131D01*
X129655515Y-91193841D01*
X129719356Y-91347968D01*
X129751902Y-91511587D01*
X129756000Y-91595000D01*
X129756000Y-92395000D01*
X129751902Y-92478413D01*
X129719356Y-92642032D01*
X129655515Y-92796159D01*
X129562832Y-92934869D01*
X129444869Y-93052832D01*
X129306159Y-93145515D01*
X129152032Y-93209356D01*
X128988413Y-93241902D01*
X128821587Y-93241902D01*
X128657968Y-93209356D01*
X128503841Y-93145515D01*
X128365131Y-93052832D01*
X128247168Y-92934869D01*
X128154485Y-92796159D01*
X128090644Y-92642032D01*
X128058098Y-92478413D01*
X128054000Y-92395000D01*
X128054000Y-91595000D01*
X128058098Y-91511587D01*
X128090644Y-91347968D01*
X128154485Y-91193841D01*
X128247168Y-91055131D01*
X128365131Y-90937168D01*
X128503841Y-90844485D01*
X128657968Y-90780644D01*
X128821587Y-90748098D01*
X128988413Y-90748098D01*
X129152032Y-90780644D01*
G37*
G36*
X131692032Y-90780644D02*
G01*
X131846159Y-90844485D01*
X131984869Y-90937168D01*
X132102832Y-91055131D01*
X132195515Y-91193841D01*
X132259356Y-91347968D01*
X132291902Y-91511587D01*
X132296000Y-91595000D01*
X132296000Y-92395000D01*
X132291902Y-92478413D01*
X132259356Y-92642032D01*
X132195515Y-92796159D01*
X132102832Y-92934869D01*
X131984869Y-93052832D01*
X131846159Y-93145515D01*
X131692032Y-93209356D01*
X131528413Y-93241902D01*
X131361587Y-93241902D01*
X131197968Y-93209356D01*
X131043841Y-93145515D01*
X130905131Y-93052832D01*
X130787168Y-92934869D01*
X130694485Y-92796159D01*
X130630644Y-92642032D01*
X130598098Y-92478413D01*
X130594000Y-92395000D01*
X130594000Y-91595000D01*
X130598098Y-91511587D01*
X130630644Y-91347968D01*
X130694485Y-91193841D01*
X130787168Y-91055131D01*
X130905131Y-90937168D01*
X131043841Y-90844485D01*
X131197968Y-90780644D01*
X131361587Y-90748098D01*
X131528413Y-90748098D01*
X131692032Y-90780644D01*
G37*
G36*
X134232032Y-90780644D02*
G01*
X134386159Y-90844485D01*
X134524869Y-90937168D01*
X134642832Y-91055131D01*
X134735515Y-91193841D01*
X134799356Y-91347968D01*
X134831902Y-91511587D01*
X134836000Y-91595000D01*
X134836000Y-92395000D01*
X134831902Y-92478413D01*
X134799356Y-92642032D01*
X134735515Y-92796159D01*
X134642832Y-92934869D01*
X134524869Y-93052832D01*
X134386159Y-93145515D01*
X134232032Y-93209356D01*
X134068413Y-93241902D01*
X133901587Y-93241902D01*
X133737968Y-93209356D01*
X133583841Y-93145515D01*
X133445131Y-93052832D01*
X133327168Y-92934869D01*
X133234485Y-92796159D01*
X133170644Y-92642032D01*
X133138098Y-92478413D01*
X133134000Y-92395000D01*
X133134000Y-91595000D01*
X133138098Y-91511587D01*
X133170644Y-91347968D01*
X133234485Y-91193841D01*
X133327168Y-91055131D01*
X133445131Y-90937168D01*
X133583841Y-90844485D01*
X133737968Y-90780644D01*
X133901587Y-90748098D01*
X134068413Y-90748098D01*
X134232032Y-90780644D01*
G37*
G36*
X136772032Y-90780644D02*
G01*
X136926159Y-90844485D01*
X137064869Y-90937168D01*
X137182832Y-91055131D01*
X137275515Y-91193841D01*
X137339356Y-91347968D01*
X137371902Y-91511587D01*
X137376000Y-91595000D01*
X137376000Y-92395000D01*
X137371902Y-92478413D01*
X137339356Y-92642032D01*
X137275515Y-92796159D01*
X137182832Y-92934869D01*
X137064869Y-93052832D01*
X136926159Y-93145515D01*
X136772032Y-93209356D01*
X136608413Y-93241902D01*
X136441587Y-93241902D01*
X136277968Y-93209356D01*
X136123841Y-93145515D01*
X135985131Y-93052832D01*
X135867168Y-92934869D01*
X135774485Y-92796159D01*
X135710644Y-92642032D01*
X135678098Y-92478413D01*
X135674000Y-92395000D01*
X135674000Y-91595000D01*
X135678098Y-91511587D01*
X135710644Y-91347968D01*
X135774485Y-91193841D01*
X135867168Y-91055131D01*
X135985131Y-90937168D01*
X136123841Y-90844485D01*
X136277968Y-90780644D01*
X136441587Y-90748098D01*
X136608413Y-90748098D01*
X136772032Y-90780644D01*
G37*
G36*
X140767032Y-89690644D02*
G01*
X140921159Y-89754485D01*
X141059869Y-89847168D01*
X141177832Y-89965131D01*
X141270515Y-90103841D01*
X141334356Y-90257968D01*
X141366902Y-90421587D01*
X141371000Y-90505000D01*
X141371000Y-91305000D01*
X141366902Y-91388413D01*
X141334356Y-91552032D01*
X141270515Y-91706159D01*
X141177832Y-91844869D01*
X141059869Y-91962832D01*
X140921159Y-92055515D01*
X140767032Y-92119356D01*
X140603413Y-92151902D01*
X140436587Y-92151902D01*
X140272968Y-92119356D01*
X140118841Y-92055515D01*
X139980131Y-91962832D01*
X139862168Y-91844869D01*
X139769485Y-91706159D01*
X139705644Y-91552032D01*
X139673098Y-91388413D01*
X139669000Y-91305000D01*
X139669000Y-90505000D01*
X139673098Y-90421587D01*
X139705644Y-90257968D01*
X139769485Y-90103841D01*
X139862168Y-89965131D01*
X139980131Y-89847168D01*
X140118841Y-89754485D01*
X140272968Y-89690644D01*
X140436587Y-89658098D01*
X140603413Y-89658098D01*
X140767032Y-89690644D01*
G37*
G36*
X143307032Y-89690644D02*
G01*
X143461159Y-89754485D01*
X143599869Y-89847168D01*
X143717832Y-89965131D01*
X143810515Y-90103841D01*
X143874356Y-90257968D01*
X143906902Y-90421587D01*
X143911000Y-90505000D01*
X143911000Y-91305000D01*
X143906902Y-91388413D01*
X143874356Y-91552032D01*
X143810515Y-91706159D01*
X143717832Y-91844869D01*
X143599869Y-91962832D01*
X143461159Y-92055515D01*
X143307032Y-92119356D01*
X143143413Y-92151902D01*
X142976587Y-92151902D01*
X142812968Y-92119356D01*
X142658841Y-92055515D01*
X142520131Y-91962832D01*
X142402168Y-91844869D01*
X142309485Y-91706159D01*
X142245644Y-91552032D01*
X142213098Y-91388413D01*
X142209000Y-91305000D01*
X142209000Y-90505000D01*
X142213098Y-90421587D01*
X142245644Y-90257968D01*
X142309485Y-90103841D01*
X142402168Y-89965131D01*
X142520131Y-89847168D01*
X142658841Y-89754485D01*
X142812968Y-89690644D01*
X142976587Y-89658098D01*
X143143413Y-89658098D01*
X143307032Y-89690644D01*
G37*
G36*
X145847032Y-89690644D02*
G01*
X146001159Y-89754485D01*
X146139869Y-89847168D01*
X146257832Y-89965131D01*
X146350515Y-90103841D01*
X146414356Y-90257968D01*
X146446902Y-90421587D01*
X146451000Y-90505000D01*
X146451000Y-91305000D01*
X146446902Y-91388413D01*
X146414356Y-91552032D01*
X146350515Y-91706159D01*
X146257832Y-91844869D01*
X146139869Y-91962832D01*
X146001159Y-92055515D01*
X145847032Y-92119356D01*
X145683413Y-92151902D01*
X145516587Y-92151902D01*
X145352968Y-92119356D01*
X145198841Y-92055515D01*
X145060131Y-91962832D01*
X144942168Y-91844869D01*
X144849485Y-91706159D01*
X144785644Y-91552032D01*
X144753098Y-91388413D01*
X144749000Y-91305000D01*
X144749000Y-90505000D01*
X144753098Y-90421587D01*
X144785644Y-90257968D01*
X144849485Y-90103841D01*
X144942168Y-89965131D01*
X145060131Y-89847168D01*
X145198841Y-89754485D01*
X145352968Y-89690644D01*
X145516587Y-89658098D01*
X145683413Y-89658098D01*
X145847032Y-89690644D01*
G37*
G36*
X148387032Y-89690644D02*
G01*
X148541159Y-89754485D01*
X148679869Y-89847168D01*
X148797832Y-89965131D01*
X148890515Y-90103841D01*
X148954356Y-90257968D01*
X148986902Y-90421587D01*
X148991000Y-90505000D01*
X148991000Y-91305000D01*
X148986902Y-91388413D01*
X148954356Y-91552032D01*
X148890515Y-91706159D01*
X148797832Y-91844869D01*
X148679869Y-91962832D01*
X148541159Y-92055515D01*
X148387032Y-92119356D01*
X148223413Y-92151902D01*
X148056587Y-92151902D01*
X147892968Y-92119356D01*
X147738841Y-92055515D01*
X147600131Y-91962832D01*
X147482168Y-91844869D01*
X147389485Y-91706159D01*
X147325644Y-91552032D01*
X147293098Y-91388413D01*
X147289000Y-91305000D01*
X147289000Y-90505000D01*
X147293098Y-90421587D01*
X147325644Y-90257968D01*
X147389485Y-90103841D01*
X147482168Y-89965131D01*
X147600131Y-89847168D01*
X147738841Y-89754485D01*
X147892968Y-89690644D01*
X148056587Y-89658098D01*
X148223413Y-89658098D01*
X148387032Y-89690644D01*
G37*
G36*
X150927032Y-89690644D02*
G01*
X151081159Y-89754485D01*
X151219869Y-89847168D01*
X151337832Y-89965131D01*
X151430515Y-90103841D01*
X151494356Y-90257968D01*
X151526902Y-90421587D01*
X151531000Y-90505000D01*
X151531000Y-91305000D01*
X151526902Y-91388413D01*
X151494356Y-91552032D01*
X151430515Y-91706159D01*
X151337832Y-91844869D01*
X151219869Y-91962832D01*
X151081159Y-92055515D01*
X150927032Y-92119356D01*
X150763413Y-92151902D01*
X150596587Y-92151902D01*
X150432968Y-92119356D01*
X150278841Y-92055515D01*
X150140131Y-91962832D01*
X150022168Y-91844869D01*
X149929485Y-91706159D01*
X149865644Y-91552032D01*
X149833098Y-91388413D01*
X149829000Y-91305000D01*
X149829000Y-90505000D01*
X149833098Y-90421587D01*
X149865644Y-90257968D01*
X149929485Y-90103841D01*
X150022168Y-89965131D01*
X150140131Y-89847168D01*
X150278841Y-89754485D01*
X150432968Y-89690644D01*
X150596587Y-89658098D01*
X150763413Y-89658098D01*
X150927032Y-89690644D01*
G37*
G36*
X153467032Y-89690644D02*
G01*
X153621159Y-89754485D01*
X153759869Y-89847168D01*
X153877832Y-89965131D01*
X153970515Y-90103841D01*
X154034356Y-90257968D01*
X154066902Y-90421587D01*
X154071000Y-90505000D01*
X154071000Y-91305000D01*
X154066902Y-91388413D01*
X154034356Y-91552032D01*
X153970515Y-91706159D01*
X153877832Y-91844869D01*
X153759869Y-91962832D01*
X153621159Y-92055515D01*
X153467032Y-92119356D01*
X153303413Y-92151902D01*
X153136587Y-92151902D01*
X152972968Y-92119356D01*
X152818841Y-92055515D01*
X152680131Y-91962832D01*
X152562168Y-91844869D01*
X152469485Y-91706159D01*
X152405644Y-91552032D01*
X152373098Y-91388413D01*
X152369000Y-91305000D01*
X152369000Y-90505000D01*
X152373098Y-90421587D01*
X152405644Y-90257968D01*
X152469485Y-90103841D01*
X152562168Y-89965131D01*
X152680131Y-89847168D01*
X152818841Y-89754485D01*
X152972968Y-89690644D01*
X153136587Y-89658098D01*
X153303413Y-89658098D01*
X153467032Y-89690644D01*
G37*
G36*
X156007032Y-89690644D02*
G01*
X156161159Y-89754485D01*
X156299869Y-89847168D01*
X156417832Y-89965131D01*
X156510515Y-90103841D01*
X156574356Y-90257968D01*
X156606902Y-90421587D01*
X156611000Y-90505000D01*
X156611000Y-91305000D01*
X156606902Y-91388413D01*
X156574356Y-91552032D01*
X156510515Y-91706159D01*
X156417832Y-91844869D01*
X156299869Y-91962832D01*
X156161159Y-92055515D01*
X156007032Y-92119356D01*
X155843413Y-92151902D01*
X155676587Y-92151902D01*
X155512968Y-92119356D01*
X155358841Y-92055515D01*
X155220131Y-91962832D01*
X155102168Y-91844869D01*
X155009485Y-91706159D01*
X154945644Y-91552032D01*
X154913098Y-91388413D01*
X154909000Y-91305000D01*
X154909000Y-90505000D01*
X154913098Y-90421587D01*
X154945644Y-90257968D01*
X155009485Y-90103841D01*
X155102168Y-89965131D01*
X155220131Y-89847168D01*
X155358841Y-89754485D01*
X155512968Y-89690644D01*
X155676587Y-89658098D01*
X155843413Y-89658098D01*
X156007032Y-89690644D01*
G37*
G36*
X158547032Y-89690644D02*
G01*
X158701159Y-89754485D01*
X158839869Y-89847168D01*
X158957832Y-89965131D01*
X159050515Y-90103841D01*
X159114356Y-90257968D01*
X159146902Y-90421587D01*
X159151000Y-90505000D01*
X159151000Y-91305000D01*
X159146902Y-91388413D01*
X159114356Y-91552032D01*
X159050515Y-91706159D01*
X158957832Y-91844869D01*
X158839869Y-91962832D01*
X158701159Y-92055515D01*
X158547032Y-92119356D01*
X158383413Y-92151902D01*
X158216587Y-92151902D01*
X158052968Y-92119356D01*
X157898841Y-92055515D01*
X157760131Y-91962832D01*
X157642168Y-91844869D01*
X157549485Y-91706159D01*
X157485644Y-91552032D01*
X157453098Y-91388413D01*
X157449000Y-91305000D01*
X157449000Y-90505000D01*
X157453098Y-90421587D01*
X157485644Y-90257968D01*
X157549485Y-90103841D01*
X157642168Y-89965131D01*
X157760131Y-89847168D01*
X157898841Y-89754485D01*
X158052968Y-89690644D01*
X158216587Y-89658098D01*
X158383413Y-89658098D01*
X158547032Y-89690644D01*
G37*
G36*
X161087032Y-89690644D02*
G01*
X161241159Y-89754485D01*
X161379869Y-89847168D01*
X161497832Y-89965131D01*
X161590515Y-90103841D01*
X161654356Y-90257968D01*
X161686902Y-90421587D01*
X161691000Y-90505000D01*
X161691000Y-91305000D01*
X161686902Y-91388413D01*
X161654356Y-91552032D01*
X161590515Y-91706159D01*
X161497832Y-91844869D01*
X161379869Y-91962832D01*
X161241159Y-92055515D01*
X161087032Y-92119356D01*
X160923413Y-92151902D01*
X160756587Y-92151902D01*
X160592968Y-92119356D01*
X160438841Y-92055515D01*
X160300131Y-91962832D01*
X160182168Y-91844869D01*
X160089485Y-91706159D01*
X160025644Y-91552032D01*
X159993098Y-91388413D01*
X159989000Y-91305000D01*
X159989000Y-90505000D01*
X159993098Y-90421587D01*
X160025644Y-90257968D01*
X160089485Y-90103841D01*
X160182168Y-89965131D01*
X160300131Y-89847168D01*
X160438841Y-89754485D01*
X160592968Y-89690644D01*
X160756587Y-89658098D01*
X160923413Y-89658098D01*
X161087032Y-89690644D01*
G37*
G36*
X174622973Y-90110651D02*
G01*
X174785500Y-90183012D01*
X174929430Y-90287584D01*
X175048473Y-90419795D01*
X175137427Y-90573867D01*
X175192404Y-90743067D01*
X175211000Y-90920000D01*
X175192404Y-91096933D01*
X175137427Y-91266133D01*
X175048473Y-91420205D01*
X174929430Y-91552416D01*
X174785500Y-91656988D01*
X174622973Y-91729349D01*
X174448954Y-91766338D01*
X174271046Y-91766338D01*
X174097027Y-91729349D01*
X173934500Y-91656988D01*
X173790570Y-91552416D01*
X173671527Y-91420205D01*
X173582573Y-91266133D01*
X173527596Y-91096933D01*
X173509000Y-90920000D01*
X173527596Y-90743067D01*
X173582573Y-90573867D01*
X173671527Y-90419795D01*
X173790570Y-90287584D01*
X173934500Y-90183012D01*
X174097027Y-90110651D01*
X174271046Y-90073662D01*
X174448954Y-90073662D01*
X174622973Y-90110651D01*
G37*
G36*
X177162973Y-90110651D02*
G01*
X177325500Y-90183012D01*
X177469430Y-90287584D01*
X177588473Y-90419795D01*
X177677427Y-90573867D01*
X177732404Y-90743067D01*
X177751000Y-90920000D01*
X177732404Y-91096933D01*
X177677427Y-91266133D01*
X177588473Y-91420205D01*
X177469430Y-91552416D01*
X177325500Y-91656988D01*
X177162973Y-91729349D01*
X176988954Y-91766338D01*
X176811046Y-91766338D01*
X176637027Y-91729349D01*
X176474500Y-91656988D01*
X176330570Y-91552416D01*
X176211527Y-91420205D01*
X176122573Y-91266133D01*
X176067596Y-91096933D01*
X176049000Y-90920000D01*
X176067596Y-90743067D01*
X176122573Y-90573867D01*
X176211527Y-90419795D01*
X176330570Y-90287584D01*
X176474500Y-90183012D01*
X176637027Y-90110651D01*
X176811046Y-90073662D01*
X176988954Y-90073662D01*
X177162973Y-90110651D01*
G37*
G36*
X179702973Y-90110651D02*
G01*
X179865500Y-90183012D01*
X180009430Y-90287584D01*
X180128473Y-90419795D01*
X180217427Y-90573867D01*
X180272404Y-90743067D01*
X180291000Y-90920000D01*
X180272404Y-91096933D01*
X180217427Y-91266133D01*
X180128473Y-91420205D01*
X180009430Y-91552416D01*
X179865500Y-91656988D01*
X179702973Y-91729349D01*
X179528954Y-91766338D01*
X179351046Y-91766338D01*
X179177027Y-91729349D01*
X179014500Y-91656988D01*
X178870570Y-91552416D01*
X178751527Y-91420205D01*
X178662573Y-91266133D01*
X178607596Y-91096933D01*
X178589000Y-90920000D01*
X178607596Y-90743067D01*
X178662573Y-90573867D01*
X178751527Y-90419795D01*
X178870570Y-90287584D01*
X179014500Y-90183012D01*
X179177027Y-90110651D01*
X179351046Y-90073662D01*
X179528954Y-90073662D01*
X179702973Y-90110651D01*
G37*
G36*
X182242973Y-90110651D02*
G01*
X182405500Y-90183012D01*
X182549430Y-90287584D01*
X182668473Y-90419795D01*
X182757427Y-90573867D01*
X182812404Y-90743067D01*
X182831000Y-90920000D01*
X182812404Y-91096933D01*
X182757427Y-91266133D01*
X182668473Y-91420205D01*
X182549430Y-91552416D01*
X182405500Y-91656988D01*
X182242973Y-91729349D01*
X182068954Y-91766338D01*
X181891046Y-91766338D01*
X181717027Y-91729349D01*
X181554500Y-91656988D01*
X181410570Y-91552416D01*
X181291527Y-91420205D01*
X181202573Y-91266133D01*
X181147596Y-91096933D01*
X181129000Y-90920000D01*
X181147596Y-90743067D01*
X181202573Y-90573867D01*
X181291527Y-90419795D01*
X181410570Y-90287584D01*
X181554500Y-90183012D01*
X181717027Y-90110651D01*
X181891046Y-90073662D01*
X182068954Y-90073662D01*
X182242973Y-90110651D01*
G37*
G36*
X184782973Y-90110651D02*
G01*
X184945500Y-90183012D01*
X185089430Y-90287584D01*
X185208473Y-90419795D01*
X185297427Y-90573867D01*
X185352404Y-90743067D01*
X185371000Y-90920000D01*
X185352404Y-91096933D01*
X185297427Y-91266133D01*
X185208473Y-91420205D01*
X185089430Y-91552416D01*
X184945500Y-91656988D01*
X184782973Y-91729349D01*
X184608954Y-91766338D01*
X184431046Y-91766338D01*
X184257027Y-91729349D01*
X184094500Y-91656988D01*
X183950570Y-91552416D01*
X183831527Y-91420205D01*
X183742573Y-91266133D01*
X183687596Y-91096933D01*
X183669000Y-90920000D01*
X183687596Y-90743067D01*
X183742573Y-90573867D01*
X183831527Y-90419795D01*
X183950570Y-90287584D01*
X184094500Y-90183012D01*
X184257027Y-90110651D01*
X184431046Y-90073662D01*
X184608954Y-90073662D01*
X184782973Y-90110651D01*
G37*
G36*
X187322973Y-90110651D02*
G01*
X187485500Y-90183012D01*
X187629430Y-90287584D01*
X187748473Y-90419795D01*
X187837427Y-90573867D01*
X187892404Y-90743067D01*
X187911000Y-90920000D01*
X187892404Y-91096933D01*
X187837427Y-91266133D01*
X187748473Y-91420205D01*
X187629430Y-91552416D01*
X187485500Y-91656988D01*
X187322973Y-91729349D01*
X187148954Y-91766338D01*
X186971046Y-91766338D01*
X186797027Y-91729349D01*
X186634500Y-91656988D01*
X186490570Y-91552416D01*
X186371527Y-91420205D01*
X186282573Y-91266133D01*
X186227596Y-91096933D01*
X186209000Y-90920000D01*
X186227596Y-90743067D01*
X186282573Y-90573867D01*
X186371527Y-90419795D01*
X186490570Y-90287584D01*
X186634500Y-90183012D01*
X186797027Y-90110651D01*
X186971046Y-90073662D01*
X187148954Y-90073662D01*
X187322973Y-90110651D01*
G37*
G36*
X189862973Y-90110651D02*
G01*
X190025500Y-90183012D01*
X190169430Y-90287584D01*
X190288473Y-90419795D01*
X190377427Y-90573867D01*
X190432404Y-90743067D01*
X190451000Y-90920000D01*
X190432404Y-91096933D01*
X190377427Y-91266133D01*
X190288473Y-91420205D01*
X190169430Y-91552416D01*
X190025500Y-91656988D01*
X189862973Y-91729349D01*
X189688954Y-91766338D01*
X189511046Y-91766338D01*
X189337027Y-91729349D01*
X189174500Y-91656988D01*
X189030570Y-91552416D01*
X188911527Y-91420205D01*
X188822573Y-91266133D01*
X188767596Y-91096933D01*
X188749000Y-90920000D01*
X188767596Y-90743067D01*
X188822573Y-90573867D01*
X188911527Y-90419795D01*
X189030570Y-90287584D01*
X189174500Y-90183012D01*
X189337027Y-90110651D01*
X189511046Y-90073662D01*
X189688954Y-90073662D01*
X189862973Y-90110651D01*
G37*
G36*
X192402973Y-90110651D02*
G01*
X192565500Y-90183012D01*
X192709430Y-90287584D01*
X192828473Y-90419795D01*
X192917427Y-90573867D01*
X192972404Y-90743067D01*
X192991000Y-90920000D01*
X192972404Y-91096933D01*
X192917427Y-91266133D01*
X192828473Y-91420205D01*
X192709430Y-91552416D01*
X192565500Y-91656988D01*
X192402973Y-91729349D01*
X192228954Y-91766338D01*
X192051046Y-91766338D01*
X191877027Y-91729349D01*
X191714500Y-91656988D01*
X191570570Y-91552416D01*
X191451527Y-91420205D01*
X191362573Y-91266133D01*
X191307596Y-91096933D01*
X191289000Y-90920000D01*
X191307596Y-90743067D01*
X191362573Y-90573867D01*
X191451527Y-90419795D01*
X191570570Y-90287584D01*
X191714500Y-90183012D01*
X191877027Y-90110651D01*
X192051046Y-90073662D01*
X192228954Y-90073662D01*
X192402973Y-90110651D01*
G37*
G36*
X111569517Y-89722882D02*
G01*
X111586062Y-89733938D01*
X111597118Y-89750483D01*
X111601000Y-89770000D01*
X111601000Y-91370000D01*
X111597118Y-91389517D01*
X111586062Y-91406062D01*
X111569517Y-91417118D01*
X111550000Y-91421000D01*
X109950000Y-91421000D01*
X109930483Y-91417118D01*
X109913938Y-91406062D01*
X109902882Y-91389517D01*
X109899000Y-91370000D01*
X109899000Y-89770000D01*
X109902882Y-89750483D01*
X109913938Y-89733938D01*
X109930483Y-89722882D01*
X109950000Y-89719000D01*
X111550000Y-89719000D01*
X111569517Y-89722882D01*
G37*
G36*
X114512973Y-89760651D02*
G01*
X114675500Y-89833012D01*
X114819430Y-89937584D01*
X114938473Y-90069795D01*
X115027427Y-90223867D01*
X115082404Y-90393067D01*
X115101000Y-90570000D01*
X115082404Y-90746933D01*
X115027427Y-90916133D01*
X114938473Y-91070205D01*
X114819430Y-91202416D01*
X114675500Y-91306988D01*
X114512973Y-91379349D01*
X114338954Y-91416338D01*
X114161046Y-91416338D01*
X113987027Y-91379349D01*
X113824500Y-91306988D01*
X113680570Y-91202416D01*
X113561527Y-91070205D01*
X113472573Y-90916133D01*
X113417596Y-90746933D01*
X113399000Y-90570000D01*
X113417596Y-90393067D01*
X113472573Y-90223867D01*
X113561527Y-90069795D01*
X113680570Y-89937584D01*
X113824500Y-89833012D01*
X113987027Y-89760651D01*
X114161046Y-89723662D01*
X114338954Y-89723662D01*
X114512973Y-89760651D01*
G37*
G36*
X137344517Y-83127882D02*
G01*
X137361062Y-83138938D01*
X137372118Y-83155483D01*
X137376000Y-83175000D01*
X137376000Y-85575000D01*
X137372118Y-85594517D01*
X137361062Y-85611062D01*
X137344517Y-85622118D01*
X137325000Y-85626000D01*
X135725000Y-85626000D01*
X135705483Y-85622118D01*
X135688938Y-85611062D01*
X135677882Y-85594517D01*
X135674000Y-85575000D01*
X135674000Y-83175000D01*
X135677882Y-83155483D01*
X135688938Y-83138938D01*
X135705483Y-83127882D01*
X135725000Y-83124000D01*
X137325000Y-83124000D01*
X137344517Y-83127882D01*
G37*
G36*
X118992032Y-83160644D02*
G01*
X119146159Y-83224485D01*
X119284869Y-83317168D01*
X119402832Y-83435131D01*
X119495515Y-83573841D01*
X119559356Y-83727968D01*
X119591902Y-83891587D01*
X119596000Y-83975000D01*
X119596000Y-84775000D01*
X119591902Y-84858413D01*
X119559356Y-85022032D01*
X119495515Y-85176159D01*
X119402832Y-85314869D01*
X119284869Y-85432832D01*
X119146159Y-85525515D01*
X118992032Y-85589356D01*
X118828413Y-85621902D01*
X118661587Y-85621902D01*
X118497968Y-85589356D01*
X118343841Y-85525515D01*
X118205131Y-85432832D01*
X118087168Y-85314869D01*
X117994485Y-85176159D01*
X117930644Y-85022032D01*
X117898098Y-84858413D01*
X117894000Y-84775000D01*
X117894000Y-83975000D01*
X117898098Y-83891587D01*
X117930644Y-83727968D01*
X117994485Y-83573841D01*
X118087168Y-83435131D01*
X118205131Y-83317168D01*
X118343841Y-83224485D01*
X118497968Y-83160644D01*
X118661587Y-83128098D01*
X118828413Y-83128098D01*
X118992032Y-83160644D01*
G37*
G36*
X121532032Y-83160644D02*
G01*
X121686159Y-83224485D01*
X121824869Y-83317168D01*
X121942832Y-83435131D01*
X122035515Y-83573841D01*
X122099356Y-83727968D01*
X122131902Y-83891587D01*
X122136000Y-83975000D01*
X122136000Y-84775000D01*
X122131902Y-84858413D01*
X122099356Y-85022032D01*
X122035515Y-85176159D01*
X121942832Y-85314869D01*
X121824869Y-85432832D01*
X121686159Y-85525515D01*
X121532032Y-85589356D01*
X121368413Y-85621902D01*
X121201587Y-85621902D01*
X121037968Y-85589356D01*
X120883841Y-85525515D01*
X120745131Y-85432832D01*
X120627168Y-85314869D01*
X120534485Y-85176159D01*
X120470644Y-85022032D01*
X120438098Y-84858413D01*
X120434000Y-84775000D01*
X120434000Y-83975000D01*
X120438098Y-83891587D01*
X120470644Y-83727968D01*
X120534485Y-83573841D01*
X120627168Y-83435131D01*
X120745131Y-83317168D01*
X120883841Y-83224485D01*
X121037968Y-83160644D01*
X121201587Y-83128098D01*
X121368413Y-83128098D01*
X121532032Y-83160644D01*
G37*
G36*
X124072032Y-83160644D02*
G01*
X124226159Y-83224485D01*
X124364869Y-83317168D01*
X124482832Y-83435131D01*
X124575515Y-83573841D01*
X124639356Y-83727968D01*
X124671902Y-83891587D01*
X124676000Y-83975000D01*
X124676000Y-84775000D01*
X124671902Y-84858413D01*
X124639356Y-85022032D01*
X124575515Y-85176159D01*
X124482832Y-85314869D01*
X124364869Y-85432832D01*
X124226159Y-85525515D01*
X124072032Y-85589356D01*
X123908413Y-85621902D01*
X123741587Y-85621902D01*
X123577968Y-85589356D01*
X123423841Y-85525515D01*
X123285131Y-85432832D01*
X123167168Y-85314869D01*
X123074485Y-85176159D01*
X123010644Y-85022032D01*
X122978098Y-84858413D01*
X122974000Y-84775000D01*
X122974000Y-83975000D01*
X122978098Y-83891587D01*
X123010644Y-83727968D01*
X123074485Y-83573841D01*
X123167168Y-83435131D01*
X123285131Y-83317168D01*
X123423841Y-83224485D01*
X123577968Y-83160644D01*
X123741587Y-83128098D01*
X123908413Y-83128098D01*
X124072032Y-83160644D01*
G37*
G36*
X126612032Y-83160644D02*
G01*
X126766159Y-83224485D01*
X126904869Y-83317168D01*
X127022832Y-83435131D01*
X127115515Y-83573841D01*
X127179356Y-83727968D01*
X127211902Y-83891587D01*
X127216000Y-83975000D01*
X127216000Y-84775000D01*
X127211902Y-84858413D01*
X127179356Y-85022032D01*
X127115515Y-85176159D01*
X127022832Y-85314869D01*
X126904869Y-85432832D01*
X126766159Y-85525515D01*
X126612032Y-85589356D01*
X126448413Y-85621902D01*
X126281587Y-85621902D01*
X126117968Y-85589356D01*
X125963841Y-85525515D01*
X125825131Y-85432832D01*
X125707168Y-85314869D01*
X125614485Y-85176159D01*
X125550644Y-85022032D01*
X125518098Y-84858413D01*
X125514000Y-84775000D01*
X125514000Y-83975000D01*
X125518098Y-83891587D01*
X125550644Y-83727968D01*
X125614485Y-83573841D01*
X125707168Y-83435131D01*
X125825131Y-83317168D01*
X125963841Y-83224485D01*
X126117968Y-83160644D01*
X126281587Y-83128098D01*
X126448413Y-83128098D01*
X126612032Y-83160644D01*
G37*
G36*
X129152032Y-83160644D02*
G01*
X129306159Y-83224485D01*
X129444869Y-83317168D01*
X129562832Y-83435131D01*
X129655515Y-83573841D01*
X129719356Y-83727968D01*
X129751902Y-83891587D01*
X129756000Y-83975000D01*
X129756000Y-84775000D01*
X129751902Y-84858413D01*
X129719356Y-85022032D01*
X129655515Y-85176159D01*
X129562832Y-85314869D01*
X129444869Y-85432832D01*
X129306159Y-85525515D01*
X129152032Y-85589356D01*
X128988413Y-85621902D01*
X128821587Y-85621902D01*
X128657968Y-85589356D01*
X128503841Y-85525515D01*
X128365131Y-85432832D01*
X128247168Y-85314869D01*
X128154485Y-85176159D01*
X128090644Y-85022032D01*
X128058098Y-84858413D01*
X128054000Y-84775000D01*
X128054000Y-83975000D01*
X128058098Y-83891587D01*
X128090644Y-83727968D01*
X128154485Y-83573841D01*
X128247168Y-83435131D01*
X128365131Y-83317168D01*
X128503841Y-83224485D01*
X128657968Y-83160644D01*
X128821587Y-83128098D01*
X128988413Y-83128098D01*
X129152032Y-83160644D01*
G37*
G36*
X131692032Y-83160644D02*
G01*
X131846159Y-83224485D01*
X131984869Y-83317168D01*
X132102832Y-83435131D01*
X132195515Y-83573841D01*
X132259356Y-83727968D01*
X132291902Y-83891587D01*
X132296000Y-83975000D01*
X132296000Y-84775000D01*
X132291902Y-84858413D01*
X132259356Y-85022032D01*
X132195515Y-85176159D01*
X132102832Y-85314869D01*
X131984869Y-85432832D01*
X131846159Y-85525515D01*
X131692032Y-85589356D01*
X131528413Y-85621902D01*
X131361587Y-85621902D01*
X131197968Y-85589356D01*
X131043841Y-85525515D01*
X130905131Y-85432832D01*
X130787168Y-85314869D01*
X130694485Y-85176159D01*
X130630644Y-85022032D01*
X130598098Y-84858413D01*
X130594000Y-84775000D01*
X130594000Y-83975000D01*
X130598098Y-83891587D01*
X130630644Y-83727968D01*
X130694485Y-83573841D01*
X130787168Y-83435131D01*
X130905131Y-83317168D01*
X131043841Y-83224485D01*
X131197968Y-83160644D01*
X131361587Y-83128098D01*
X131528413Y-83128098D01*
X131692032Y-83160644D01*
G37*
G36*
X134232032Y-83160644D02*
G01*
X134386159Y-83224485D01*
X134524869Y-83317168D01*
X134642832Y-83435131D01*
X134735515Y-83573841D01*
X134799356Y-83727968D01*
X134831902Y-83891587D01*
X134836000Y-83975000D01*
X134836000Y-84775000D01*
X134831902Y-84858413D01*
X134799356Y-85022032D01*
X134735515Y-85176159D01*
X134642832Y-85314869D01*
X134524869Y-85432832D01*
X134386159Y-85525515D01*
X134232032Y-85589356D01*
X134068413Y-85621902D01*
X133901587Y-85621902D01*
X133737968Y-85589356D01*
X133583841Y-85525515D01*
X133445131Y-85432832D01*
X133327168Y-85314869D01*
X133234485Y-85176159D01*
X133170644Y-85022032D01*
X133138098Y-84858413D01*
X133134000Y-84775000D01*
X133134000Y-83975000D01*
X133138098Y-83891587D01*
X133170644Y-83727968D01*
X133234485Y-83573841D01*
X133327168Y-83435131D01*
X133445131Y-83317168D01*
X133583841Y-83224485D01*
X133737968Y-83160644D01*
X133901587Y-83128098D01*
X134068413Y-83128098D01*
X134232032Y-83160644D01*
G37*
G36*
X161659517Y-82037882D02*
G01*
X161676062Y-82048938D01*
X161687118Y-82065483D01*
X161691000Y-82085000D01*
X161691000Y-84485000D01*
X161687118Y-84504517D01*
X161676062Y-84521062D01*
X161659517Y-84532118D01*
X161640000Y-84536000D01*
X160040000Y-84536000D01*
X160020483Y-84532118D01*
X160003938Y-84521062D01*
X159992882Y-84504517D01*
X159989000Y-84485000D01*
X159989000Y-82085000D01*
X159992882Y-82065483D01*
X160003938Y-82048938D01*
X160020483Y-82037882D01*
X160040000Y-82034000D01*
X161640000Y-82034000D01*
X161659517Y-82037882D01*
G37*
G36*
X140767032Y-82070644D02*
G01*
X140921159Y-82134485D01*
X141059869Y-82227168D01*
X141177832Y-82345131D01*
X141270515Y-82483841D01*
X141334356Y-82637968D01*
X141366902Y-82801587D01*
X141371000Y-82885000D01*
X141371000Y-83685000D01*
X141366902Y-83768413D01*
X141334356Y-83932032D01*
X141270515Y-84086159D01*
X141177832Y-84224869D01*
X141059869Y-84342832D01*
X140921159Y-84435515D01*
X140767032Y-84499356D01*
X140603413Y-84531902D01*
X140436587Y-84531902D01*
X140272968Y-84499356D01*
X140118841Y-84435515D01*
X139980131Y-84342832D01*
X139862168Y-84224869D01*
X139769485Y-84086159D01*
X139705644Y-83932032D01*
X139673098Y-83768413D01*
X139669000Y-83685000D01*
X139669000Y-82885000D01*
X139673098Y-82801587D01*
X139705644Y-82637968D01*
X139769485Y-82483841D01*
X139862168Y-82345131D01*
X139980131Y-82227168D01*
X140118841Y-82134485D01*
X140272968Y-82070644D01*
X140436587Y-82038098D01*
X140603413Y-82038098D01*
X140767032Y-82070644D01*
G37*
G36*
X143307032Y-82070644D02*
G01*
X143461159Y-82134485D01*
X143599869Y-82227168D01*
X143717832Y-82345131D01*
X143810515Y-82483841D01*
X143874356Y-82637968D01*
X143906902Y-82801587D01*
X143911000Y-82885000D01*
X143911000Y-83685000D01*
X143906902Y-83768413D01*
X143874356Y-83932032D01*
X143810515Y-84086159D01*
X143717832Y-84224869D01*
X143599869Y-84342832D01*
X143461159Y-84435515D01*
X143307032Y-84499356D01*
X143143413Y-84531902D01*
X142976587Y-84531902D01*
X142812968Y-84499356D01*
X142658841Y-84435515D01*
X142520131Y-84342832D01*
X142402168Y-84224869D01*
X142309485Y-84086159D01*
X142245644Y-83932032D01*
X142213098Y-83768413D01*
X142209000Y-83685000D01*
X142209000Y-82885000D01*
X142213098Y-82801587D01*
X142245644Y-82637968D01*
X142309485Y-82483841D01*
X142402168Y-82345131D01*
X142520131Y-82227168D01*
X142658841Y-82134485D01*
X142812968Y-82070644D01*
X142976587Y-82038098D01*
X143143413Y-82038098D01*
X143307032Y-82070644D01*
G37*
G36*
X145847032Y-82070644D02*
G01*
X146001159Y-82134485D01*
X146139869Y-82227168D01*
X146257832Y-82345131D01*
X146350515Y-82483841D01*
X146414356Y-82637968D01*
X146446902Y-82801587D01*
X146451000Y-82885000D01*
X146451000Y-83685000D01*
X146446902Y-83768413D01*
X146414356Y-83932032D01*
X146350515Y-84086159D01*
X146257832Y-84224869D01*
X146139869Y-84342832D01*
X146001159Y-84435515D01*
X145847032Y-84499356D01*
X145683413Y-84531902D01*
X145516587Y-84531902D01*
X145352968Y-84499356D01*
X145198841Y-84435515D01*
X145060131Y-84342832D01*
X144942168Y-84224869D01*
X144849485Y-84086159D01*
X144785644Y-83932032D01*
X144753098Y-83768413D01*
X144749000Y-83685000D01*
X144749000Y-82885000D01*
X144753098Y-82801587D01*
X144785644Y-82637968D01*
X144849485Y-82483841D01*
X144942168Y-82345131D01*
X145060131Y-82227168D01*
X145198841Y-82134485D01*
X145352968Y-82070644D01*
X145516587Y-82038098D01*
X145683413Y-82038098D01*
X145847032Y-82070644D01*
G37*
G36*
X148387032Y-82070644D02*
G01*
X148541159Y-82134485D01*
X148679869Y-82227168D01*
X148797832Y-82345131D01*
X148890515Y-82483841D01*
X148954356Y-82637968D01*
X148986902Y-82801587D01*
X148991000Y-82885000D01*
X148991000Y-83685000D01*
X148986902Y-83768413D01*
X148954356Y-83932032D01*
X148890515Y-84086159D01*
X148797832Y-84224869D01*
X148679869Y-84342832D01*
X148541159Y-84435515D01*
X148387032Y-84499356D01*
X148223413Y-84531902D01*
X148056587Y-84531902D01*
X147892968Y-84499356D01*
X147738841Y-84435515D01*
X147600131Y-84342832D01*
X147482168Y-84224869D01*
X147389485Y-84086159D01*
X147325644Y-83932032D01*
X147293098Y-83768413D01*
X147289000Y-83685000D01*
X147289000Y-82885000D01*
X147293098Y-82801587D01*
X147325644Y-82637968D01*
X147389485Y-82483841D01*
X147482168Y-82345131D01*
X147600131Y-82227168D01*
X147738841Y-82134485D01*
X147892968Y-82070644D01*
X148056587Y-82038098D01*
X148223413Y-82038098D01*
X148387032Y-82070644D01*
G37*
G36*
X150927032Y-82070644D02*
G01*
X151081159Y-82134485D01*
X151219869Y-82227168D01*
X151337832Y-82345131D01*
X151430515Y-82483841D01*
X151494356Y-82637968D01*
X151526902Y-82801587D01*
X151531000Y-82885000D01*
X151531000Y-83685000D01*
X151526902Y-83768413D01*
X151494356Y-83932032D01*
X151430515Y-84086159D01*
X151337832Y-84224869D01*
X151219869Y-84342832D01*
X151081159Y-84435515D01*
X150927032Y-84499356D01*
X150763413Y-84531902D01*
X150596587Y-84531902D01*
X150432968Y-84499356D01*
X150278841Y-84435515D01*
X150140131Y-84342832D01*
X150022168Y-84224869D01*
X149929485Y-84086159D01*
X149865644Y-83932032D01*
X149833098Y-83768413D01*
X149829000Y-83685000D01*
X149829000Y-82885000D01*
X149833098Y-82801587D01*
X149865644Y-82637968D01*
X149929485Y-82483841D01*
X150022168Y-82345131D01*
X150140131Y-82227168D01*
X150278841Y-82134485D01*
X150432968Y-82070644D01*
X150596587Y-82038098D01*
X150763413Y-82038098D01*
X150927032Y-82070644D01*
G37*
G36*
X153467032Y-82070644D02*
G01*
X153621159Y-82134485D01*
X153759869Y-82227168D01*
X153877832Y-82345131D01*
X153970515Y-82483841D01*
X154034356Y-82637968D01*
X154066902Y-82801587D01*
X154071000Y-82885000D01*
X154071000Y-83685000D01*
X154066902Y-83768413D01*
X154034356Y-83932032D01*
X153970515Y-84086159D01*
X153877832Y-84224869D01*
X153759869Y-84342832D01*
X153621159Y-84435515D01*
X153467032Y-84499356D01*
X153303413Y-84531902D01*
X153136587Y-84531902D01*
X152972968Y-84499356D01*
X152818841Y-84435515D01*
X152680131Y-84342832D01*
X152562168Y-84224869D01*
X152469485Y-84086159D01*
X152405644Y-83932032D01*
X152373098Y-83768413D01*
X152369000Y-83685000D01*
X152369000Y-82885000D01*
X152373098Y-82801587D01*
X152405644Y-82637968D01*
X152469485Y-82483841D01*
X152562168Y-82345131D01*
X152680131Y-82227168D01*
X152818841Y-82134485D01*
X152972968Y-82070644D01*
X153136587Y-82038098D01*
X153303413Y-82038098D01*
X153467032Y-82070644D01*
G37*
G36*
X156007032Y-82070644D02*
G01*
X156161159Y-82134485D01*
X156299869Y-82227168D01*
X156417832Y-82345131D01*
X156510515Y-82483841D01*
X156574356Y-82637968D01*
X156606902Y-82801587D01*
X156611000Y-82885000D01*
X156611000Y-83685000D01*
X156606902Y-83768413D01*
X156574356Y-83932032D01*
X156510515Y-84086159D01*
X156417832Y-84224869D01*
X156299869Y-84342832D01*
X156161159Y-84435515D01*
X156007032Y-84499356D01*
X155843413Y-84531902D01*
X155676587Y-84531902D01*
X155512968Y-84499356D01*
X155358841Y-84435515D01*
X155220131Y-84342832D01*
X155102168Y-84224869D01*
X155009485Y-84086159D01*
X154945644Y-83932032D01*
X154913098Y-83768413D01*
X154909000Y-83685000D01*
X154909000Y-82885000D01*
X154913098Y-82801587D01*
X154945644Y-82637968D01*
X155009485Y-82483841D01*
X155102168Y-82345131D01*
X155220131Y-82227168D01*
X155358841Y-82134485D01*
X155512968Y-82070644D01*
X155676587Y-82038098D01*
X155843413Y-82038098D01*
X156007032Y-82070644D01*
G37*
G36*
X158547032Y-82070644D02*
G01*
X158701159Y-82134485D01*
X158839869Y-82227168D01*
X158957832Y-82345131D01*
X159050515Y-82483841D01*
X159114356Y-82637968D01*
X159146902Y-82801587D01*
X159151000Y-82885000D01*
X159151000Y-83685000D01*
X159146902Y-83768413D01*
X159114356Y-83932032D01*
X159050515Y-84086159D01*
X158957832Y-84224869D01*
X158839869Y-84342832D01*
X158701159Y-84435515D01*
X158547032Y-84499356D01*
X158383413Y-84531902D01*
X158216587Y-84531902D01*
X158052968Y-84499356D01*
X157898841Y-84435515D01*
X157760131Y-84342832D01*
X157642168Y-84224869D01*
X157549485Y-84086159D01*
X157485644Y-83932032D01*
X157453098Y-83768413D01*
X157449000Y-83685000D01*
X157449000Y-82885000D01*
X157453098Y-82801587D01*
X157485644Y-82637968D01*
X157549485Y-82483841D01*
X157642168Y-82345131D01*
X157760131Y-82227168D01*
X157898841Y-82134485D01*
X158052968Y-82070644D01*
X158216587Y-82038098D01*
X158383413Y-82038098D01*
X158547032Y-82070644D01*
G37*
G36*
X192959517Y-82452882D02*
G01*
X192976062Y-82463938D01*
X192987118Y-82480483D01*
X192991000Y-82500000D01*
X192991000Y-84100000D01*
X192987118Y-84119517D01*
X192976062Y-84136062D01*
X192959517Y-84147118D01*
X192940000Y-84151000D01*
X191340000Y-84151000D01*
X191320483Y-84147118D01*
X191303938Y-84136062D01*
X191292882Y-84119517D01*
X191289000Y-84100000D01*
X191289000Y-82500000D01*
X191292882Y-82480483D01*
X191303938Y-82463938D01*
X191320483Y-82452882D01*
X191340000Y-82449000D01*
X192940000Y-82449000D01*
X192959517Y-82452882D01*
G37*
G36*
X174622973Y-82490651D02*
G01*
X174785500Y-82563012D01*
X174929430Y-82667584D01*
X175048473Y-82799795D01*
X175137427Y-82953867D01*
X175192404Y-83123067D01*
X175211000Y-83300000D01*
X175192404Y-83476933D01*
X175137427Y-83646133D01*
X175048473Y-83800205D01*
X174929430Y-83932416D01*
X174785500Y-84036988D01*
X174622973Y-84109349D01*
X174448954Y-84146338D01*
X174271046Y-84146338D01*
X174097027Y-84109349D01*
X173934500Y-84036988D01*
X173790570Y-83932416D01*
X173671527Y-83800205D01*
X173582573Y-83646133D01*
X173527596Y-83476933D01*
X173509000Y-83300000D01*
X173527596Y-83123067D01*
X173582573Y-82953867D01*
X173671527Y-82799795D01*
X173790570Y-82667584D01*
X173934500Y-82563012D01*
X174097027Y-82490651D01*
X174271046Y-82453662D01*
X174448954Y-82453662D01*
X174622973Y-82490651D01*
G37*
G36*
X177162973Y-82490651D02*
G01*
X177325500Y-82563012D01*
X177469430Y-82667584D01*
X177588473Y-82799795D01*
X177677427Y-82953867D01*
X177732404Y-83123067D01*
X177751000Y-83300000D01*
X177732404Y-83476933D01*
X177677427Y-83646133D01*
X177588473Y-83800205D01*
X177469430Y-83932416D01*
X177325500Y-84036988D01*
X177162973Y-84109349D01*
X176988954Y-84146338D01*
X176811046Y-84146338D01*
X176637027Y-84109349D01*
X176474500Y-84036988D01*
X176330570Y-83932416D01*
X176211527Y-83800205D01*
X176122573Y-83646133D01*
X176067596Y-83476933D01*
X176049000Y-83300000D01*
X176067596Y-83123067D01*
X176122573Y-82953867D01*
X176211527Y-82799795D01*
X176330570Y-82667584D01*
X176474500Y-82563012D01*
X176637027Y-82490651D01*
X176811046Y-82453662D01*
X176988954Y-82453662D01*
X177162973Y-82490651D01*
G37*
G36*
X179702973Y-82490651D02*
G01*
X179865500Y-82563012D01*
X180009430Y-82667584D01*
X180128473Y-82799795D01*
X180217427Y-82953867D01*
X180272404Y-83123067D01*
X180291000Y-83300000D01*
X180272404Y-83476933D01*
X180217427Y-83646133D01*
X180128473Y-83800205D01*
X180009430Y-83932416D01*
X179865500Y-84036988D01*
X179702973Y-84109349D01*
X179528954Y-84146338D01*
X179351046Y-84146338D01*
X179177027Y-84109349D01*
X179014500Y-84036988D01*
X178870570Y-83932416D01*
X178751527Y-83800205D01*
X178662573Y-83646133D01*
X178607596Y-83476933D01*
X178589000Y-83300000D01*
X178607596Y-83123067D01*
X178662573Y-82953867D01*
X178751527Y-82799795D01*
X178870570Y-82667584D01*
X179014500Y-82563012D01*
X179177027Y-82490651D01*
X179351046Y-82453662D01*
X179528954Y-82453662D01*
X179702973Y-82490651D01*
G37*
G36*
X182242973Y-82490651D02*
G01*
X182405500Y-82563012D01*
X182549430Y-82667584D01*
X182668473Y-82799795D01*
X182757427Y-82953867D01*
X182812404Y-83123067D01*
X182831000Y-83300000D01*
X182812404Y-83476933D01*
X182757427Y-83646133D01*
X182668473Y-83800205D01*
X182549430Y-83932416D01*
X182405500Y-84036988D01*
X182242973Y-84109349D01*
X182068954Y-84146338D01*
X181891046Y-84146338D01*
X181717027Y-84109349D01*
X181554500Y-84036988D01*
X181410570Y-83932416D01*
X181291527Y-83800205D01*
X181202573Y-83646133D01*
X181147596Y-83476933D01*
X181129000Y-83300000D01*
X181147596Y-83123067D01*
X181202573Y-82953867D01*
X181291527Y-82799795D01*
X181410570Y-82667584D01*
X181554500Y-82563012D01*
X181717027Y-82490651D01*
X181891046Y-82453662D01*
X182068954Y-82453662D01*
X182242973Y-82490651D01*
G37*
G36*
X184782973Y-82490651D02*
G01*
X184945500Y-82563012D01*
X185089430Y-82667584D01*
X185208473Y-82799795D01*
X185297427Y-82953867D01*
X185352404Y-83123067D01*
X185371000Y-83300000D01*
X185352404Y-83476933D01*
X185297427Y-83646133D01*
X185208473Y-83800205D01*
X185089430Y-83932416D01*
X184945500Y-84036988D01*
X184782973Y-84109349D01*
X184608954Y-84146338D01*
X184431046Y-84146338D01*
X184257027Y-84109349D01*
X184094500Y-84036988D01*
X183950570Y-83932416D01*
X183831527Y-83800205D01*
X183742573Y-83646133D01*
X183687596Y-83476933D01*
X183669000Y-83300000D01*
X183687596Y-83123067D01*
X183742573Y-82953867D01*
X183831527Y-82799795D01*
X183950570Y-82667584D01*
X184094500Y-82563012D01*
X184257027Y-82490651D01*
X184431046Y-82453662D01*
X184608954Y-82453662D01*
X184782973Y-82490651D01*
G37*
G36*
X187322973Y-82490651D02*
G01*
X187485500Y-82563012D01*
X187629430Y-82667584D01*
X187748473Y-82799795D01*
X187837427Y-82953867D01*
X187892404Y-83123067D01*
X187911000Y-83300000D01*
X187892404Y-83476933D01*
X187837427Y-83646133D01*
X187748473Y-83800205D01*
X187629430Y-83932416D01*
X187485500Y-84036988D01*
X187322973Y-84109349D01*
X187148954Y-84146338D01*
X186971046Y-84146338D01*
X186797027Y-84109349D01*
X186634500Y-84036988D01*
X186490570Y-83932416D01*
X186371527Y-83800205D01*
X186282573Y-83646133D01*
X186227596Y-83476933D01*
X186209000Y-83300000D01*
X186227596Y-83123067D01*
X186282573Y-82953867D01*
X186371527Y-82799795D01*
X186490570Y-82667584D01*
X186634500Y-82563012D01*
X186797027Y-82490651D01*
X186971046Y-82453662D01*
X187148954Y-82453662D01*
X187322973Y-82490651D01*
G37*
G36*
X189862973Y-82490651D02*
G01*
X190025500Y-82563012D01*
X190169430Y-82667584D01*
X190288473Y-82799795D01*
X190377427Y-82953867D01*
X190432404Y-83123067D01*
X190451000Y-83300000D01*
X190432404Y-83476933D01*
X190377427Y-83646133D01*
X190288473Y-83800205D01*
X190169430Y-83932416D01*
X190025500Y-84036988D01*
X189862973Y-84109349D01*
X189688954Y-84146338D01*
X189511046Y-84146338D01*
X189337027Y-84109349D01*
X189174500Y-84036988D01*
X189030570Y-83932416D01*
X188911527Y-83800205D01*
X188822573Y-83646133D01*
X188767596Y-83476933D01*
X188749000Y-83300000D01*
X188767596Y-83123067D01*
X188822573Y-82953867D01*
X188911527Y-82799795D01*
X189030570Y-82667584D01*
X189174500Y-82563012D01*
X189337027Y-82490651D01*
X189511046Y-82453662D01*
X189688954Y-82453662D01*
X189862973Y-82490651D01*
G37*
G36*
X162662973Y-79585651D02*
G01*
X162825500Y-79658012D01*
X162969430Y-79762584D01*
X163088473Y-79894795D01*
X163177427Y-80048867D01*
X163232404Y-80218067D01*
X163251000Y-80395000D01*
X163232404Y-80571933D01*
X163177427Y-80741133D01*
X163088473Y-80895205D01*
X162969430Y-81027416D01*
X162825500Y-81131988D01*
X162662973Y-81204349D01*
X162488954Y-81241338D01*
X162311046Y-81241338D01*
X162137027Y-81204349D01*
X161974500Y-81131988D01*
X161830570Y-81027416D01*
X161711527Y-80895205D01*
X161622573Y-80741133D01*
X161567596Y-80571933D01*
X161549000Y-80395000D01*
X161567596Y-80218067D01*
X161622573Y-80048867D01*
X161711527Y-79894795D01*
X161830570Y-79762584D01*
X161974500Y-79658012D01*
X162137027Y-79585651D01*
X162311046Y-79548662D01*
X162488954Y-79548662D01*
X162662973Y-79585651D01*
G37*
G36*
X165762973Y-79585651D02*
G01*
X165925500Y-79658012D01*
X166069430Y-79762584D01*
X166188473Y-79894795D01*
X166277427Y-80048867D01*
X166332404Y-80218067D01*
X166351000Y-80395000D01*
X166332404Y-80571933D01*
X166277427Y-80741133D01*
X166188473Y-80895205D01*
X166069430Y-81027416D01*
X165925500Y-81131988D01*
X165762973Y-81204349D01*
X165588954Y-81241338D01*
X165411046Y-81241338D01*
X165237027Y-81204349D01*
X165074500Y-81131988D01*
X164930570Y-81027416D01*
X164811527Y-80895205D01*
X164722573Y-80741133D01*
X164667596Y-80571933D01*
X164649000Y-80395000D01*
X164667596Y-80218067D01*
X164722573Y-80048867D01*
X164811527Y-79894795D01*
X164930570Y-79762584D01*
X165074500Y-79658012D01*
X165237027Y-79585651D01*
X165411046Y-79548662D01*
X165588954Y-79548662D01*
X165762973Y-79585651D01*
G37*
G36*
X168862973Y-79585651D02*
G01*
X169025500Y-79658012D01*
X169169430Y-79762584D01*
X169288473Y-79894795D01*
X169377427Y-80048867D01*
X169432404Y-80218067D01*
X169451000Y-80395000D01*
X169432404Y-80571933D01*
X169377427Y-80741133D01*
X169288473Y-80895205D01*
X169169430Y-81027416D01*
X169025500Y-81131988D01*
X168862973Y-81204349D01*
X168688954Y-81241338D01*
X168511046Y-81241338D01*
X168337027Y-81204349D01*
X168174500Y-81131988D01*
X168030570Y-81027416D01*
X167911527Y-80895205D01*
X167822573Y-80741133D01*
X167767596Y-80571933D01*
X167749000Y-80395000D01*
X167767596Y-80218067D01*
X167822573Y-80048867D01*
X167911527Y-79894795D01*
X168030570Y-79762584D01*
X168174500Y-79658012D01*
X168337027Y-79585651D01*
X168511046Y-79548662D01*
X168688954Y-79548662D01*
X168862973Y-79585651D01*
G37*
G36*
X171862973Y-79585651D02*
G01*
X172025500Y-79658012D01*
X172169430Y-79762584D01*
X172288473Y-79894795D01*
X172377427Y-80048867D01*
X172432404Y-80218067D01*
X172451000Y-80395000D01*
X172432404Y-80571933D01*
X172377427Y-80741133D01*
X172288473Y-80895205D01*
X172169430Y-81027416D01*
X172025500Y-81131988D01*
X171862973Y-81204349D01*
X171688954Y-81241338D01*
X171511046Y-81241338D01*
X171337027Y-81204349D01*
X171174500Y-81131988D01*
X171030570Y-81027416D01*
X170911527Y-80895205D01*
X170822573Y-80741133D01*
X170767596Y-80571933D01*
X170749000Y-80395000D01*
X170767596Y-80218067D01*
X170822573Y-80048867D01*
X170911527Y-79894795D01*
X171030570Y-79762584D01*
X171174500Y-79658012D01*
X171337027Y-79585651D01*
X171511046Y-79548662D01*
X171688954Y-79548662D01*
X171862973Y-79585651D01*
G37*
G36*
X127868914Y-78981995D02*
G01*
X127877612Y-78985835D01*
X127885212Y-78986943D01*
X127932718Y-79010167D01*
X127970106Y-79026676D01*
X127973567Y-79030137D01*
X127974501Y-79030594D01*
X128044405Y-79100498D01*
X128044861Y-79101431D01*
X128048324Y-79104894D01*
X128064836Y-79142291D01*
X128088056Y-79189787D01*
X128089162Y-79197384D01*
X128093005Y-79206086D01*
X128101000Y-79275000D01*
X128101000Y-80725000D01*
X128093005Y-80793914D01*
X128089162Y-80802615D01*
X128088056Y-80810212D01*
X128064841Y-80857697D01*
X128048324Y-80895106D01*
X128044860Y-80898569D01*
X128044405Y-80899501D01*
X127974501Y-80969405D01*
X127973569Y-80969860D01*
X127970106Y-80973324D01*
X127932697Y-80989841D01*
X127885212Y-81013056D01*
X127877615Y-81014162D01*
X127868914Y-81018005D01*
X127800000Y-81026000D01*
X126600000Y-81026000D01*
X126531086Y-81018005D01*
X126522384Y-81014162D01*
X126514787Y-81013056D01*
X126467291Y-80989836D01*
X126429894Y-80973324D01*
X126426431Y-80969861D01*
X126425498Y-80969405D01*
X126355594Y-80899501D01*
X126355137Y-80898567D01*
X126351676Y-80895106D01*
X126335167Y-80857718D01*
X126311943Y-80810212D01*
X126310835Y-80802612D01*
X126306995Y-80793914D01*
X126299000Y-80725000D01*
X126299000Y-79275000D01*
X126306995Y-79206086D01*
X126310835Y-79197387D01*
X126311943Y-79189787D01*
X126335172Y-79142270D01*
X126351676Y-79104894D01*
X126355136Y-79101433D01*
X126355594Y-79100498D01*
X126425498Y-79030594D01*
X126426433Y-79030136D01*
X126429894Y-79026676D01*
X126467270Y-79010172D01*
X126514787Y-78986943D01*
X126522387Y-78985835D01*
X126531086Y-78981995D01*
X126600000Y-78974000D01*
X127800000Y-78974000D01*
X127868914Y-78981995D01*
G37*
G36*
X114961546Y-79012797D02*
G01*
X115124728Y-79080389D01*
X115271588Y-79178518D01*
X115396482Y-79303412D01*
X115494611Y-79450272D01*
X115562203Y-79613454D01*
X115596661Y-79786687D01*
X115601000Y-79875000D01*
X115601000Y-80125000D01*
X115596661Y-80213313D01*
X115562203Y-80386546D01*
X115494611Y-80549728D01*
X115396482Y-80696588D01*
X115271588Y-80821482D01*
X115124728Y-80919611D01*
X114961546Y-80987203D01*
X114788313Y-81021661D01*
X114611687Y-81021661D01*
X114438454Y-80987203D01*
X114275272Y-80919611D01*
X114128412Y-80821482D01*
X114003518Y-80696588D01*
X113905389Y-80549728D01*
X113837797Y-80386546D01*
X113803339Y-80213313D01*
X113799000Y-80125000D01*
X113799000Y-79875000D01*
X113803339Y-79786687D01*
X113837797Y-79613454D01*
X113905389Y-79450272D01*
X114003518Y-79303412D01*
X114128412Y-79178518D01*
X114275272Y-79080389D01*
X114438454Y-79012797D01*
X114611687Y-78978339D01*
X114788313Y-78978339D01*
X114961546Y-79012797D01*
G37*
G36*
X117461546Y-79012797D02*
G01*
X117624728Y-79080389D01*
X117771588Y-79178518D01*
X117896482Y-79303412D01*
X117994611Y-79450272D01*
X118062203Y-79613454D01*
X118096661Y-79786687D01*
X118101000Y-79875000D01*
X118101000Y-80125000D01*
X118096661Y-80213313D01*
X118062203Y-80386546D01*
X117994611Y-80549728D01*
X117896482Y-80696588D01*
X117771588Y-80821482D01*
X117624728Y-80919611D01*
X117461546Y-80987203D01*
X117288313Y-81021661D01*
X117111687Y-81021661D01*
X116938454Y-80987203D01*
X116775272Y-80919611D01*
X116628412Y-80821482D01*
X116503518Y-80696588D01*
X116405389Y-80549728D01*
X116337797Y-80386546D01*
X116303339Y-80213313D01*
X116299000Y-80125000D01*
X116299000Y-79875000D01*
X116303339Y-79786687D01*
X116337797Y-79613454D01*
X116405389Y-79450272D01*
X116503518Y-79303412D01*
X116628412Y-79178518D01*
X116775272Y-79080389D01*
X116938454Y-79012797D01*
X117111687Y-78978339D01*
X117288313Y-78978339D01*
X117461546Y-79012797D01*
G37*
G36*
X119961546Y-79012797D02*
G01*
X120124728Y-79080389D01*
X120271588Y-79178518D01*
X120396482Y-79303412D01*
X120494611Y-79450272D01*
X120562203Y-79613454D01*
X120596661Y-79786687D01*
X120601000Y-79875000D01*
X120601000Y-80125000D01*
X120596661Y-80213313D01*
X120562203Y-80386546D01*
X120494611Y-80549728D01*
X120396482Y-80696588D01*
X120271588Y-80821482D01*
X120124728Y-80919611D01*
X119961546Y-80987203D01*
X119788313Y-81021661D01*
X119611687Y-81021661D01*
X119438454Y-80987203D01*
X119275272Y-80919611D01*
X119128412Y-80821482D01*
X119003518Y-80696588D01*
X118905389Y-80549728D01*
X118837797Y-80386546D01*
X118803339Y-80213313D01*
X118799000Y-80125000D01*
X118799000Y-79875000D01*
X118803339Y-79786687D01*
X118837797Y-79613454D01*
X118905389Y-79450272D01*
X119003518Y-79303412D01*
X119128412Y-79178518D01*
X119275272Y-79080389D01*
X119438454Y-79012797D01*
X119611687Y-78978339D01*
X119788313Y-78978339D01*
X119961546Y-79012797D01*
G37*
G36*
X122461546Y-79012797D02*
G01*
X122624728Y-79080389D01*
X122771588Y-79178518D01*
X122896482Y-79303412D01*
X122994611Y-79450272D01*
X123062203Y-79613454D01*
X123096661Y-79786687D01*
X123101000Y-79875000D01*
X123101000Y-80125000D01*
X123096661Y-80213313D01*
X123062203Y-80386546D01*
X122994611Y-80549728D01*
X122896482Y-80696588D01*
X122771588Y-80821482D01*
X122624728Y-80919611D01*
X122461546Y-80987203D01*
X122288313Y-81021661D01*
X122111687Y-81021661D01*
X121938454Y-80987203D01*
X121775272Y-80919611D01*
X121628412Y-80821482D01*
X121503518Y-80696588D01*
X121405389Y-80549728D01*
X121337797Y-80386546D01*
X121303339Y-80213313D01*
X121299000Y-80125000D01*
X121299000Y-79875000D01*
X121303339Y-79786687D01*
X121337797Y-79613454D01*
X121405389Y-79450272D01*
X121503518Y-79303412D01*
X121628412Y-79178518D01*
X121775272Y-79080389D01*
X121938454Y-79012797D01*
X122111687Y-78978339D01*
X122288313Y-78978339D01*
X122461546Y-79012797D01*
G37*
G36*
X124961546Y-79012797D02*
G01*
X125124728Y-79080389D01*
X125271588Y-79178518D01*
X125396482Y-79303412D01*
X125494611Y-79450272D01*
X125562203Y-79613454D01*
X125596661Y-79786687D01*
X125601000Y-79875000D01*
X125601000Y-80125000D01*
X125596661Y-80213313D01*
X125562203Y-80386546D01*
X125494611Y-80549728D01*
X125396482Y-80696588D01*
X125271588Y-80821482D01*
X125124728Y-80919611D01*
X124961546Y-80987203D01*
X124788313Y-81021661D01*
X124611687Y-81021661D01*
X124438454Y-80987203D01*
X124275272Y-80919611D01*
X124128412Y-80821482D01*
X124003518Y-80696588D01*
X123905389Y-80549728D01*
X123837797Y-80386546D01*
X123803339Y-80213313D01*
X123799000Y-80125000D01*
X123799000Y-79875000D01*
X123803339Y-79786687D01*
X123837797Y-79613454D01*
X123905389Y-79450272D01*
X124003518Y-79303412D01*
X124128412Y-79178518D01*
X124275272Y-79080389D01*
X124438454Y-79012797D01*
X124611687Y-78978339D01*
X124788313Y-78978339D01*
X124961546Y-79012797D01*
G37*
G36*
X147662973Y-79290651D02*
G01*
X147825500Y-79363012D01*
X147969430Y-79467584D01*
X148088473Y-79599795D01*
X148177427Y-79753867D01*
X148232404Y-79923067D01*
X148251000Y-80100000D01*
X148232404Y-80276933D01*
X148177427Y-80446133D01*
X148088473Y-80600205D01*
X147969430Y-80732416D01*
X147825500Y-80836988D01*
X147662973Y-80909349D01*
X147488954Y-80946338D01*
X147311046Y-80946338D01*
X147137027Y-80909349D01*
X146974500Y-80836988D01*
X146830570Y-80732416D01*
X146711527Y-80600205D01*
X146622573Y-80446133D01*
X146567596Y-80276933D01*
X146549000Y-80100000D01*
X146567596Y-79923067D01*
X146622573Y-79753867D01*
X146711527Y-79599795D01*
X146830570Y-79467584D01*
X146974500Y-79363012D01*
X147137027Y-79290651D01*
X147311046Y-79253662D01*
X147488954Y-79253662D01*
X147662973Y-79290651D01*
G37*
G36*
X152662973Y-79290651D02*
G01*
X152825500Y-79363012D01*
X152969430Y-79467584D01*
X153088473Y-79599795D01*
X153177427Y-79753867D01*
X153232404Y-79923067D01*
X153251000Y-80100000D01*
X153232404Y-80276933D01*
X153177427Y-80446133D01*
X153088473Y-80600205D01*
X152969430Y-80732416D01*
X152825500Y-80836988D01*
X152662973Y-80909349D01*
X152488954Y-80946338D01*
X152311046Y-80946338D01*
X152137027Y-80909349D01*
X151974500Y-80836988D01*
X151830570Y-80732416D01*
X151711527Y-80600205D01*
X151622573Y-80446133D01*
X151567596Y-80276933D01*
X151549000Y-80100000D01*
X151567596Y-79923067D01*
X151622573Y-79753867D01*
X151711527Y-79599795D01*
X151830570Y-79467584D01*
X151974500Y-79363012D01*
X152137027Y-79290651D01*
X152311046Y-79253662D01*
X152488954Y-79253662D01*
X152662973Y-79290651D01*
G37*
G36*
X105516604Y-74338184D02*
G01*
X105853911Y-74395495D01*
X106182681Y-74490212D01*
X106498779Y-74621144D01*
X106798230Y-74786644D01*
X107077267Y-74984632D01*
X107332383Y-75212617D01*
X107560368Y-75467733D01*
X107758356Y-75746770D01*
X107923856Y-76046221D01*
X108054788Y-76362319D01*
X108149505Y-76691089D01*
X108206816Y-77028396D01*
X108226000Y-77370000D01*
X108206816Y-77711604D01*
X108149505Y-78048911D01*
X108054788Y-78377681D01*
X107923856Y-78693779D01*
X107758356Y-78993230D01*
X107560368Y-79272267D01*
X107332383Y-79527383D01*
X107077267Y-79755368D01*
X106798230Y-79953356D01*
X106498779Y-80118856D01*
X106182681Y-80249788D01*
X105853911Y-80344505D01*
X105516604Y-80401816D01*
X105175000Y-80421000D01*
X104833396Y-80401816D01*
X104496089Y-80344505D01*
X104167319Y-80249788D01*
X103851221Y-80118856D01*
X103551770Y-79953356D01*
X103272733Y-79755368D01*
X103017617Y-79527383D01*
X102789632Y-79272267D01*
X102591644Y-78993230D01*
X102426144Y-78693779D01*
X102295212Y-78377681D01*
X102200495Y-78048911D01*
X102143184Y-77711604D01*
X102124000Y-77370000D01*
X102143184Y-77028396D01*
X102200495Y-76691089D01*
X102295212Y-76362319D01*
X102426144Y-76046221D01*
X102591644Y-75746770D01*
X102789632Y-75467733D01*
X103017617Y-75212617D01*
X103272733Y-74984632D01*
X103551770Y-74786644D01*
X103851221Y-74621144D01*
X104167319Y-74490212D01*
X104496089Y-74395495D01*
X104833396Y-74338184D01*
X105175000Y-74319000D01*
X105516604Y-74338184D01*
G37*
G36*
X197516604Y-74338184D02*
G01*
X197853911Y-74395495D01*
X198182681Y-74490212D01*
X198498779Y-74621144D01*
X198798230Y-74786644D01*
X199077267Y-74984632D01*
X199332383Y-75212617D01*
X199560368Y-75467733D01*
X199758356Y-75746770D01*
X199923856Y-76046221D01*
X200054788Y-76362319D01*
X200149505Y-76691089D01*
X200206816Y-77028396D01*
X200226000Y-77370000D01*
X200206816Y-77711604D01*
X200149505Y-78048911D01*
X200054788Y-78377681D01*
X199923856Y-78693779D01*
X199758356Y-78993230D01*
X199560368Y-79272267D01*
X199332383Y-79527383D01*
X199077267Y-79755368D01*
X198798230Y-79953356D01*
X198498779Y-80118856D01*
X198182681Y-80249788D01*
X197853911Y-80344505D01*
X197516604Y-80401816D01*
X197175000Y-80421000D01*
X196833396Y-80401816D01*
X196496089Y-80344505D01*
X196167319Y-80249788D01*
X195851221Y-80118856D01*
X195551770Y-79953356D01*
X195272733Y-79755368D01*
X195017617Y-79527383D01*
X194789632Y-79272267D01*
X194591644Y-78993230D01*
X194426144Y-78693779D01*
X194295212Y-78377681D01*
X194200495Y-78048911D01*
X194143184Y-77711604D01*
X194124000Y-77370000D01*
X194143184Y-77028396D01*
X194200495Y-76691089D01*
X194295212Y-76362319D01*
X194426144Y-76046221D01*
X194591644Y-75746770D01*
X194789632Y-75467733D01*
X195017617Y-75212617D01*
X195272733Y-74984632D01*
X195551770Y-74786644D01*
X195851221Y-74621144D01*
X196167319Y-74490212D01*
X196496089Y-74395495D01*
X196833396Y-74338184D01*
X197175000Y-74319000D01*
X197516604Y-74338184D01*
G37*
G36*
X178862973Y-77135651D02*
G01*
X179025500Y-77208012D01*
X179169430Y-77312584D01*
X179288473Y-77444795D01*
X179377427Y-77598867D01*
X179432404Y-77768067D01*
X179451000Y-77945000D01*
X179432404Y-78121933D01*
X179377427Y-78291133D01*
X179288473Y-78445205D01*
X179169430Y-78577416D01*
X179025500Y-78681988D01*
X178862973Y-78754349D01*
X178688954Y-78791338D01*
X178511046Y-78791338D01*
X178337027Y-78754349D01*
X178174500Y-78681988D01*
X178030570Y-78577416D01*
X177911527Y-78445205D01*
X177822573Y-78291133D01*
X177767596Y-78121933D01*
X177749000Y-77945000D01*
X177767596Y-77768067D01*
X177822573Y-77598867D01*
X177911527Y-77444795D01*
X178030570Y-77312584D01*
X178174500Y-77208012D01*
X178337027Y-77135651D01*
X178511046Y-77098662D01*
X178688954Y-77098662D01*
X178862973Y-77135651D01*
G37*
G36*
X183862973Y-77130651D02*
G01*
X184025500Y-77203012D01*
X184169430Y-77307584D01*
X184288473Y-77439795D01*
X184377427Y-77593867D01*
X184432404Y-77763067D01*
X184451000Y-77940000D01*
X184432404Y-78116933D01*
X184377427Y-78286133D01*
X184288473Y-78440205D01*
X184169430Y-78572416D01*
X184025500Y-78676988D01*
X183862973Y-78749349D01*
X183688954Y-78786338D01*
X183511046Y-78786338D01*
X183337027Y-78749349D01*
X183174500Y-78676988D01*
X183030570Y-78572416D01*
X182911527Y-78440205D01*
X182822573Y-78286133D01*
X182767596Y-78116933D01*
X182749000Y-77940000D01*
X182767596Y-77763067D01*
X182822573Y-77593867D01*
X182911527Y-77439795D01*
X183030570Y-77307584D01*
X183174500Y-77203012D01*
X183337027Y-77130651D01*
X183511046Y-77093662D01*
X183688954Y-77093662D01*
X183862973Y-77130651D01*
G37*
G36*
X188962973Y-77130651D02*
G01*
X189125500Y-77203012D01*
X189269430Y-77307584D01*
X189388473Y-77439795D01*
X189477427Y-77593867D01*
X189532404Y-77763067D01*
X189551000Y-77940000D01*
X189532404Y-78116933D01*
X189477427Y-78286133D01*
X189388473Y-78440205D01*
X189269430Y-78572416D01*
X189125500Y-78676988D01*
X188962973Y-78749349D01*
X188788954Y-78786338D01*
X188611046Y-78786338D01*
X188437027Y-78749349D01*
X188274500Y-78676988D01*
X188130570Y-78572416D01*
X188011527Y-78440205D01*
X187922573Y-78286133D01*
X187867596Y-78116933D01*
X187849000Y-77940000D01*
X187867596Y-77763067D01*
X187922573Y-77593867D01*
X188011527Y-77439795D01*
X188130570Y-77307584D01*
X188274500Y-77203012D01*
X188437027Y-77130651D01*
X188611046Y-77093662D01*
X188788954Y-77093662D01*
X188962973Y-77130651D01*
G37*
G36*
X192262973Y-77130651D02*
G01*
X192425500Y-77203012D01*
X192569430Y-77307584D01*
X192688473Y-77439795D01*
X192777427Y-77593867D01*
X192832404Y-77763067D01*
X192851000Y-77940000D01*
X192832404Y-78116933D01*
X192777427Y-78286133D01*
X192688473Y-78440205D01*
X192569430Y-78572416D01*
X192425500Y-78676988D01*
X192262973Y-78749349D01*
X192088954Y-78786338D01*
X191911046Y-78786338D01*
X191737027Y-78749349D01*
X191574500Y-78676988D01*
X191430570Y-78572416D01*
X191311527Y-78440205D01*
X191222573Y-78286133D01*
X191167596Y-78116933D01*
X191149000Y-77940000D01*
X191167596Y-77763067D01*
X191222573Y-77593867D01*
X191311527Y-77439795D01*
X191430570Y-77307584D01*
X191574500Y-77203012D01*
X191737027Y-77130651D01*
X191911046Y-77093662D01*
X192088954Y-77093662D01*
X192262973Y-77130651D01*
G37*
G36*
X162662973Y-77045651D02*
G01*
X162825500Y-77118012D01*
X162969430Y-77222584D01*
X163088473Y-77354795D01*
X163177427Y-77508867D01*
X163232404Y-77678067D01*
X163251000Y-77855000D01*
X163232404Y-78031933D01*
X163177427Y-78201133D01*
X163088473Y-78355205D01*
X162969430Y-78487416D01*
X162825500Y-78591988D01*
X162662973Y-78664349D01*
X162488954Y-78701338D01*
X162311046Y-78701338D01*
X162137027Y-78664349D01*
X161974500Y-78591988D01*
X161830570Y-78487416D01*
X161711527Y-78355205D01*
X161622573Y-78201133D01*
X161567596Y-78031933D01*
X161549000Y-77855000D01*
X161567596Y-77678067D01*
X161622573Y-77508867D01*
X161711527Y-77354795D01*
X161830570Y-77222584D01*
X161974500Y-77118012D01*
X162137027Y-77045651D01*
X162311046Y-77008662D01*
X162488954Y-77008662D01*
X162662973Y-77045651D01*
G37*
G36*
X165762973Y-77045651D02*
G01*
X165925500Y-77118012D01*
X166069430Y-77222584D01*
X166188473Y-77354795D01*
X166277427Y-77508867D01*
X166332404Y-77678067D01*
X166351000Y-77855000D01*
X166332404Y-78031933D01*
X166277427Y-78201133D01*
X166188473Y-78355205D01*
X166069430Y-78487416D01*
X165925500Y-78591988D01*
X165762973Y-78664349D01*
X165588954Y-78701338D01*
X165411046Y-78701338D01*
X165237027Y-78664349D01*
X165074500Y-78591988D01*
X164930570Y-78487416D01*
X164811527Y-78355205D01*
X164722573Y-78201133D01*
X164667596Y-78031933D01*
X164649000Y-77855000D01*
X164667596Y-77678067D01*
X164722573Y-77508867D01*
X164811527Y-77354795D01*
X164930570Y-77222584D01*
X165074500Y-77118012D01*
X165237027Y-77045651D01*
X165411046Y-77008662D01*
X165588954Y-77008662D01*
X165762973Y-77045651D01*
G37*
G36*
X168862973Y-77045651D02*
G01*
X169025500Y-77118012D01*
X169169430Y-77222584D01*
X169288473Y-77354795D01*
X169377427Y-77508867D01*
X169432404Y-77678067D01*
X169451000Y-77855000D01*
X169432404Y-78031933D01*
X169377427Y-78201133D01*
X169288473Y-78355205D01*
X169169430Y-78487416D01*
X169025500Y-78591988D01*
X168862973Y-78664349D01*
X168688954Y-78701338D01*
X168511046Y-78701338D01*
X168337027Y-78664349D01*
X168174500Y-78591988D01*
X168030570Y-78487416D01*
X167911527Y-78355205D01*
X167822573Y-78201133D01*
X167767596Y-78031933D01*
X167749000Y-77855000D01*
X167767596Y-77678067D01*
X167822573Y-77508867D01*
X167911527Y-77354795D01*
X168030570Y-77222584D01*
X168174500Y-77118012D01*
X168337027Y-77045651D01*
X168511046Y-77008662D01*
X168688954Y-77008662D01*
X168862973Y-77045651D01*
G37*
G36*
X171862973Y-77045651D02*
G01*
X172025500Y-77118012D01*
X172169430Y-77222584D01*
X172288473Y-77354795D01*
X172377427Y-77508867D01*
X172432404Y-77678067D01*
X172451000Y-77855000D01*
X172432404Y-78031933D01*
X172377427Y-78201133D01*
X172288473Y-78355205D01*
X172169430Y-78487416D01*
X172025500Y-78591988D01*
X171862973Y-78664349D01*
X171688954Y-78701338D01*
X171511046Y-78701338D01*
X171337027Y-78664349D01*
X171174500Y-78591988D01*
X171030570Y-78487416D01*
X170911527Y-78355205D01*
X170822573Y-78201133D01*
X170767596Y-78031933D01*
X170749000Y-77855000D01*
X170767596Y-77678067D01*
X170822573Y-77508867D01*
X170911527Y-77354795D01*
X171030570Y-77222584D01*
X171174500Y-77118012D01*
X171337027Y-77045651D01*
X171511046Y-77008662D01*
X171688954Y-77008662D01*
X171862973Y-77045651D01*
G37*
G36*
X132678807Y-77005932D02*
G01*
X132681404Y-77006776D01*
X132681645Y-77007107D01*
X132689598Y-77010402D01*
X132696972Y-77028205D01*
X132703305Y-77036922D01*
X132704991Y-77047564D01*
X132706000Y-77050000D01*
X132706000Y-77600000D01*
X132700911Y-77612285D01*
X132700911Y-77671157D01*
X132698643Y-77686934D01*
X132658548Y-77823485D01*
X132651926Y-77837984D01*
X132574985Y-77957706D01*
X132564547Y-77969752D01*
X132456992Y-78062949D01*
X132443583Y-78071566D01*
X132314129Y-78130685D01*
X132298836Y-78135176D01*
X132157970Y-78155430D01*
X132150000Y-78156000D01*
X132148209Y-78156000D01*
X131651791Y-78156000D01*
X131650000Y-78156000D01*
X131642030Y-78155430D01*
X131501164Y-78135176D01*
X131485871Y-78130685D01*
X131356417Y-78071566D01*
X131343008Y-78062949D01*
X131340307Y-78060608D01*
X131340303Y-78060606D01*
X131238155Y-77972094D01*
X131238152Y-77972091D01*
X131235453Y-77969752D01*
X131225015Y-77957706D01*
X131168490Y-77869752D01*
X131150005Y-77840989D01*
X131150004Y-77840987D01*
X131148074Y-77837984D01*
X131141452Y-77823485D01*
X131101357Y-77686934D01*
X131099089Y-77671157D01*
X131099089Y-77630164D01*
X131098781Y-77626247D01*
X131095009Y-77602435D01*
X131094000Y-77600000D01*
X131094000Y-77050000D01*
X131105930Y-77021196D01*
X131106776Y-77018595D01*
X131107108Y-77018353D01*
X131110402Y-77010402D01*
X131128202Y-77003028D01*
X131136922Y-76996694D01*
X131147565Y-76995008D01*
X131150000Y-76994000D01*
X132650000Y-76994000D01*
X132678807Y-77005932D01*
G37*
G36*
X136278807Y-76905932D02*
G01*
X136281404Y-76906776D01*
X136281645Y-76907107D01*
X136289598Y-76910402D01*
X136296972Y-76928205D01*
X136303305Y-76936922D01*
X136304991Y-76947564D01*
X136306000Y-76950000D01*
X136306000Y-77500000D01*
X136300911Y-77512285D01*
X136300911Y-77571157D01*
X136298643Y-77586934D01*
X136258548Y-77723485D01*
X136251926Y-77737984D01*
X136174985Y-77857706D01*
X136164547Y-77869752D01*
X136056992Y-77962949D01*
X136043583Y-77971566D01*
X135914129Y-78030685D01*
X135898836Y-78035176D01*
X135757970Y-78055430D01*
X135750000Y-78056000D01*
X135748209Y-78056000D01*
X135251791Y-78056000D01*
X135250000Y-78056000D01*
X135242030Y-78055430D01*
X135101164Y-78035176D01*
X135085871Y-78030685D01*
X134956417Y-77971566D01*
X134943008Y-77962949D01*
X134940307Y-77960608D01*
X134940303Y-77960606D01*
X134838155Y-77872094D01*
X134838152Y-77872091D01*
X134835453Y-77869752D01*
X134825015Y-77857706D01*
X134823083Y-77854700D01*
X134750005Y-77740989D01*
X134750004Y-77740987D01*
X134748074Y-77737984D01*
X134741452Y-77723485D01*
X134701357Y-77586934D01*
X134699089Y-77571157D01*
X134699089Y-77530164D01*
X134698781Y-77526247D01*
X134695009Y-77502435D01*
X134694000Y-77500000D01*
X134694000Y-76950000D01*
X134705930Y-76921196D01*
X134706776Y-76918595D01*
X134707108Y-76918353D01*
X134710402Y-76910402D01*
X134728202Y-76903028D01*
X134736922Y-76896694D01*
X134747565Y-76895008D01*
X134750000Y-76894000D01*
X136250000Y-76894000D01*
X136278807Y-76905932D01*
G37*
G36*
X139478807Y-76905932D02*
G01*
X139481404Y-76906776D01*
X139481645Y-76907107D01*
X139489598Y-76910402D01*
X139496972Y-76928205D01*
X139503305Y-76936922D01*
X139504991Y-76947564D01*
X139506000Y-76950000D01*
X139506000Y-77500000D01*
X139500911Y-77512285D01*
X139500911Y-77571157D01*
X139498643Y-77586934D01*
X139458548Y-77723485D01*
X139451926Y-77737984D01*
X139374985Y-77857706D01*
X139364547Y-77869752D01*
X139256992Y-77962949D01*
X139243583Y-77971566D01*
X139114129Y-78030685D01*
X139098836Y-78035176D01*
X138957970Y-78055430D01*
X138950000Y-78056000D01*
X138948209Y-78056000D01*
X138451791Y-78056000D01*
X138450000Y-78056000D01*
X138442030Y-78055430D01*
X138301164Y-78035176D01*
X138285871Y-78030685D01*
X138156417Y-77971566D01*
X138143008Y-77962949D01*
X138140307Y-77960608D01*
X138140303Y-77960606D01*
X138038155Y-77872094D01*
X138038152Y-77872091D01*
X138035453Y-77869752D01*
X138025015Y-77857706D01*
X138023083Y-77854700D01*
X137950005Y-77740989D01*
X137950004Y-77740987D01*
X137948074Y-77737984D01*
X137941452Y-77723485D01*
X137901357Y-77586934D01*
X137899089Y-77571157D01*
X137899089Y-77530164D01*
X137898781Y-77526247D01*
X137895009Y-77502435D01*
X137894000Y-77500000D01*
X137894000Y-76950000D01*
X137905930Y-76921196D01*
X137906776Y-76918595D01*
X137907108Y-76918353D01*
X137910402Y-76910402D01*
X137928202Y-76903028D01*
X137936922Y-76896694D01*
X137947565Y-76895008D01*
X137950000Y-76894000D01*
X139450000Y-76894000D01*
X139478807Y-76905932D01*
G37*
G36*
X127868914Y-75781995D02*
G01*
X127877612Y-75785835D01*
X127885212Y-75786943D01*
X127932718Y-75810167D01*
X127970106Y-75826676D01*
X127973567Y-75830137D01*
X127974501Y-75830594D01*
X128044405Y-75900498D01*
X128044861Y-75901431D01*
X128048324Y-75904894D01*
X128064836Y-75942291D01*
X128088056Y-75989787D01*
X128089162Y-75997384D01*
X128093005Y-76006086D01*
X128101000Y-76075000D01*
X128101000Y-77525000D01*
X128093005Y-77593914D01*
X128089162Y-77602615D01*
X128088056Y-77610212D01*
X128064841Y-77657697D01*
X128048324Y-77695106D01*
X128044860Y-77698569D01*
X128044405Y-77699501D01*
X127974501Y-77769405D01*
X127973569Y-77769860D01*
X127970106Y-77773324D01*
X127932697Y-77789841D01*
X127885212Y-77813056D01*
X127877615Y-77814162D01*
X127868914Y-77818005D01*
X127800000Y-77826000D01*
X126600000Y-77826000D01*
X126531086Y-77818005D01*
X126522384Y-77814162D01*
X126514787Y-77813056D01*
X126467291Y-77789836D01*
X126429894Y-77773324D01*
X126426431Y-77769861D01*
X126425498Y-77769405D01*
X126355594Y-77699501D01*
X126355137Y-77698567D01*
X126351676Y-77695106D01*
X126335167Y-77657718D01*
X126311943Y-77610212D01*
X126310835Y-77602612D01*
X126306995Y-77593914D01*
X126299000Y-77525000D01*
X126299000Y-76075000D01*
X126306995Y-76006086D01*
X126310835Y-75997387D01*
X126311943Y-75989787D01*
X126335172Y-75942270D01*
X126351676Y-75904894D01*
X126355136Y-75901433D01*
X126355594Y-75900498D01*
X126425498Y-75830594D01*
X126426433Y-75830136D01*
X126429894Y-75826676D01*
X126467270Y-75810172D01*
X126514787Y-75786943D01*
X126522387Y-75785835D01*
X126531086Y-75781995D01*
X126600000Y-75774000D01*
X127800000Y-75774000D01*
X127868914Y-75781995D01*
G37*
G36*
X114961546Y-75812797D02*
G01*
X115124728Y-75880389D01*
X115271588Y-75978518D01*
X115396482Y-76103412D01*
X115494611Y-76250272D01*
X115562203Y-76413454D01*
X115596661Y-76586687D01*
X115601000Y-76675000D01*
X115601000Y-76925000D01*
X115596661Y-77013313D01*
X115562203Y-77186546D01*
X115494611Y-77349728D01*
X115396482Y-77496588D01*
X115271588Y-77621482D01*
X115124728Y-77719611D01*
X114961546Y-77787203D01*
X114788313Y-77821661D01*
X114611687Y-77821661D01*
X114438454Y-77787203D01*
X114275272Y-77719611D01*
X114128412Y-77621482D01*
X114003518Y-77496588D01*
X113905389Y-77349728D01*
X113837797Y-77186546D01*
X113803339Y-77013313D01*
X113799000Y-76925000D01*
X113799000Y-76675000D01*
X113803339Y-76586687D01*
X113837797Y-76413454D01*
X113905389Y-76250272D01*
X114003518Y-76103412D01*
X114128412Y-75978518D01*
X114275272Y-75880389D01*
X114438454Y-75812797D01*
X114611687Y-75778339D01*
X114788313Y-75778339D01*
X114961546Y-75812797D01*
G37*
G36*
X117461546Y-75812797D02*
G01*
X117624728Y-75880389D01*
X117771588Y-75978518D01*
X117896482Y-76103412D01*
X117994611Y-76250272D01*
X118062203Y-76413454D01*
X118096661Y-76586687D01*
X118101000Y-76675000D01*
X118101000Y-76925000D01*
X118096661Y-77013313D01*
X118062203Y-77186546D01*
X117994611Y-77349728D01*
X117896482Y-77496588D01*
X117771588Y-77621482D01*
X117624728Y-77719611D01*
X117461546Y-77787203D01*
X117288313Y-77821661D01*
X117111687Y-77821661D01*
X116938454Y-77787203D01*
X116775272Y-77719611D01*
X116628412Y-77621482D01*
X116503518Y-77496588D01*
X116405389Y-77349728D01*
X116337797Y-77186546D01*
X116303339Y-77013313D01*
X116299000Y-76925000D01*
X116299000Y-76675000D01*
X116303339Y-76586687D01*
X116337797Y-76413454D01*
X116405389Y-76250272D01*
X116503518Y-76103412D01*
X116628412Y-75978518D01*
X116775272Y-75880389D01*
X116938454Y-75812797D01*
X117111687Y-75778339D01*
X117288313Y-75778339D01*
X117461546Y-75812797D01*
G37*
G36*
X119961546Y-75812797D02*
G01*
X120124728Y-75880389D01*
X120271588Y-75978518D01*
X120396482Y-76103412D01*
X120494611Y-76250272D01*
X120562203Y-76413454D01*
X120596661Y-76586687D01*
X120601000Y-76675000D01*
X120601000Y-76925000D01*
X120596661Y-77013313D01*
X120562203Y-77186546D01*
X120494611Y-77349728D01*
X120396482Y-77496588D01*
X120271588Y-77621482D01*
X120124728Y-77719611D01*
X119961546Y-77787203D01*
X119788313Y-77821661D01*
X119611687Y-77821661D01*
X119438454Y-77787203D01*
X119275272Y-77719611D01*
X119128412Y-77621482D01*
X119003518Y-77496588D01*
X118905389Y-77349728D01*
X118837797Y-77186546D01*
X118803339Y-77013313D01*
X118799000Y-76925000D01*
X118799000Y-76675000D01*
X118803339Y-76586687D01*
X118837797Y-76413454D01*
X118905389Y-76250272D01*
X119003518Y-76103412D01*
X119128412Y-75978518D01*
X119275272Y-75880389D01*
X119438454Y-75812797D01*
X119611687Y-75778339D01*
X119788313Y-75778339D01*
X119961546Y-75812797D01*
G37*
G36*
X122461546Y-75812797D02*
G01*
X122624728Y-75880389D01*
X122771588Y-75978518D01*
X122896482Y-76103412D01*
X122994611Y-76250272D01*
X123062203Y-76413454D01*
X123096661Y-76586687D01*
X123101000Y-76675000D01*
X123101000Y-76925000D01*
X123096661Y-77013313D01*
X123062203Y-77186546D01*
X122994611Y-77349728D01*
X122896482Y-77496588D01*
X122771588Y-77621482D01*
X122624728Y-77719611D01*
X122461546Y-77787203D01*
X122288313Y-77821661D01*
X122111687Y-77821661D01*
X121938454Y-77787203D01*
X121775272Y-77719611D01*
X121628412Y-77621482D01*
X121503518Y-77496588D01*
X121405389Y-77349728D01*
X121337797Y-77186546D01*
X121303339Y-77013313D01*
X121299000Y-76925000D01*
X121299000Y-76675000D01*
X121303339Y-76586687D01*
X121337797Y-76413454D01*
X121405389Y-76250272D01*
X121503518Y-76103412D01*
X121628412Y-75978518D01*
X121775272Y-75880389D01*
X121938454Y-75812797D01*
X122111687Y-75778339D01*
X122288313Y-75778339D01*
X122461546Y-75812797D01*
G37*
G36*
X124961546Y-75812797D02*
G01*
X125124728Y-75880389D01*
X125271588Y-75978518D01*
X125396482Y-76103412D01*
X125494611Y-76250272D01*
X125562203Y-76413454D01*
X125596661Y-76586687D01*
X125601000Y-76675000D01*
X125601000Y-76925000D01*
X125596661Y-77013313D01*
X125562203Y-77186546D01*
X125494611Y-77349728D01*
X125396482Y-77496588D01*
X125271588Y-77621482D01*
X125124728Y-77719611D01*
X124961546Y-77787203D01*
X124788313Y-77821661D01*
X124611687Y-77821661D01*
X124438454Y-77787203D01*
X124275272Y-77719611D01*
X124128412Y-77621482D01*
X124003518Y-77496588D01*
X123905389Y-77349728D01*
X123837797Y-77186546D01*
X123803339Y-77013313D01*
X123799000Y-76925000D01*
X123799000Y-76675000D01*
X123803339Y-76586687D01*
X123837797Y-76413454D01*
X123905389Y-76250272D01*
X124003518Y-76103412D01*
X124128412Y-75978518D01*
X124275272Y-75880389D01*
X124438454Y-75812797D01*
X124611687Y-75778339D01*
X124788313Y-75778339D01*
X124961546Y-75812797D01*
G37*
G36*
X132669517Y-75752882D02*
G01*
X132686062Y-75763938D01*
X132697118Y-75780483D01*
X132701000Y-75800000D01*
X132701000Y-76800000D01*
X132697118Y-76819517D01*
X132686062Y-76836062D01*
X132669517Y-76847118D01*
X132650000Y-76851000D01*
X131150000Y-76851000D01*
X131130483Y-76847118D01*
X131113938Y-76836062D01*
X131102882Y-76819517D01*
X131099000Y-76800000D01*
X131099000Y-75800000D01*
X131102882Y-75780483D01*
X131113938Y-75763938D01*
X131130483Y-75752882D01*
X131150000Y-75749000D01*
X132650000Y-75749000D01*
X132669517Y-75752882D01*
G37*
G36*
X136269517Y-75652882D02*
G01*
X136286062Y-75663938D01*
X136297118Y-75680483D01*
X136301000Y-75700000D01*
X136301000Y-76700000D01*
X136297118Y-76719517D01*
X136286062Y-76736062D01*
X136269517Y-76747118D01*
X136250000Y-76751000D01*
X134750000Y-76751000D01*
X134730483Y-76747118D01*
X134713938Y-76736062D01*
X134702882Y-76719517D01*
X134699000Y-76700000D01*
X134699000Y-75700000D01*
X134702882Y-75680483D01*
X134713938Y-75663938D01*
X134730483Y-75652882D01*
X134750000Y-75649000D01*
X136250000Y-75649000D01*
X136269517Y-75652882D01*
G37*
G36*
X139469517Y-75652882D02*
G01*
X139486062Y-75663938D01*
X139497118Y-75680483D01*
X139501000Y-75700000D01*
X139501000Y-76700000D01*
X139497118Y-76719517D01*
X139486062Y-76736062D01*
X139469517Y-76747118D01*
X139450000Y-76751000D01*
X137950000Y-76751000D01*
X137930483Y-76747118D01*
X137913938Y-76736062D01*
X137902882Y-76719517D01*
X137899000Y-76700000D01*
X137899000Y-75700000D01*
X137902882Y-75680483D01*
X137913938Y-75663938D01*
X137930483Y-75652882D01*
X137950000Y-75649000D01*
X139450000Y-75649000D01*
X139469517Y-75652882D01*
G37*
G36*
X178862973Y-74595651D02*
G01*
X179025500Y-74668012D01*
X179169430Y-74772584D01*
X179288473Y-74904795D01*
X179377427Y-75058867D01*
X179432404Y-75228067D01*
X179451000Y-75405000D01*
X179432404Y-75581933D01*
X179377427Y-75751133D01*
X179288473Y-75905205D01*
X179169430Y-76037416D01*
X179025500Y-76141988D01*
X178862973Y-76214349D01*
X178688954Y-76251338D01*
X178511046Y-76251338D01*
X178337027Y-76214349D01*
X178174500Y-76141988D01*
X178030570Y-76037416D01*
X177911527Y-75905205D01*
X177822573Y-75751133D01*
X177767596Y-75581933D01*
X177749000Y-75405000D01*
X177767596Y-75228067D01*
X177822573Y-75058867D01*
X177911527Y-74904795D01*
X178030570Y-74772584D01*
X178174500Y-74668012D01*
X178337027Y-74595651D01*
X178511046Y-74558662D01*
X178688954Y-74558662D01*
X178862973Y-74595651D01*
G37*
G36*
X183862973Y-74590651D02*
G01*
X184025500Y-74663012D01*
X184169430Y-74767584D01*
X184288473Y-74899795D01*
X184377427Y-75053867D01*
X184432404Y-75223067D01*
X184451000Y-75400000D01*
X184432404Y-75576933D01*
X184377427Y-75746133D01*
X184288473Y-75900205D01*
X184169430Y-76032416D01*
X184025500Y-76136988D01*
X183862973Y-76209349D01*
X183688954Y-76246338D01*
X183511046Y-76246338D01*
X183337027Y-76209349D01*
X183174500Y-76136988D01*
X183030570Y-76032416D01*
X182911527Y-75900205D01*
X182822573Y-75746133D01*
X182767596Y-75576933D01*
X182749000Y-75400000D01*
X182767596Y-75223067D01*
X182822573Y-75053867D01*
X182911527Y-74899795D01*
X183030570Y-74767584D01*
X183174500Y-74663012D01*
X183337027Y-74590651D01*
X183511046Y-74553662D01*
X183688954Y-74553662D01*
X183862973Y-74590651D01*
G37*
G36*
X188962973Y-74590651D02*
G01*
X189125500Y-74663012D01*
X189269430Y-74767584D01*
X189388473Y-74899795D01*
X189477427Y-75053867D01*
X189532404Y-75223067D01*
X189551000Y-75400000D01*
X189532404Y-75576933D01*
X189477427Y-75746133D01*
X189388473Y-75900205D01*
X189269430Y-76032416D01*
X189125500Y-76136988D01*
X188962973Y-76209349D01*
X188788954Y-76246338D01*
X188611046Y-76246338D01*
X188437027Y-76209349D01*
X188274500Y-76136988D01*
X188130570Y-76032416D01*
X188011527Y-75900205D01*
X187922573Y-75746133D01*
X187867596Y-75576933D01*
X187849000Y-75400000D01*
X187867596Y-75223067D01*
X187922573Y-75053867D01*
X188011527Y-74899795D01*
X188130570Y-74767584D01*
X188274500Y-74663012D01*
X188437027Y-74590651D01*
X188611046Y-74553662D01*
X188788954Y-74553662D01*
X188962973Y-74590651D01*
G37*
G36*
X192262973Y-74590651D02*
G01*
X192425500Y-74663012D01*
X192569430Y-74767584D01*
X192688473Y-74899795D01*
X192777427Y-75053867D01*
X192832404Y-75223067D01*
X192851000Y-75400000D01*
X192832404Y-75576933D01*
X192777427Y-75746133D01*
X192688473Y-75900205D01*
X192569430Y-76032416D01*
X192425500Y-76136988D01*
X192262973Y-76209349D01*
X192088954Y-76246338D01*
X191911046Y-76246338D01*
X191737027Y-76209349D01*
X191574500Y-76136988D01*
X191430570Y-76032416D01*
X191311527Y-75900205D01*
X191222573Y-75746133D01*
X191167596Y-75576933D01*
X191149000Y-75400000D01*
X191167596Y-75223067D01*
X191222573Y-75053867D01*
X191311527Y-74899795D01*
X191430570Y-74767584D01*
X191574500Y-74663012D01*
X191737027Y-74590651D01*
X191911046Y-74553662D01*
X192088954Y-74553662D01*
X192262973Y-74590651D01*
G37*
G36*
X132157970Y-74444570D02*
G01*
X132179495Y-74447665D01*
X132295292Y-74464314D01*
X132295294Y-74464314D01*
X132298836Y-74464824D01*
X132314129Y-74469315D01*
X132317382Y-74470800D01*
X132317383Y-74470801D01*
X132440330Y-74526948D01*
X132440332Y-74526949D01*
X132443583Y-74528434D01*
X132456992Y-74537051D01*
X132459691Y-74539390D01*
X132459696Y-74539393D01*
X132561844Y-74627905D01*
X132561846Y-74627908D01*
X132564547Y-74630248D01*
X132574985Y-74642294D01*
X132651926Y-74762016D01*
X132658548Y-74776515D01*
X132698643Y-74913066D01*
X132700911Y-74928843D01*
X132700911Y-74932419D01*
X132700911Y-74969835D01*
X132701219Y-74973751D01*
X132704991Y-74997564D01*
X132706000Y-75000000D01*
X132706000Y-75550000D01*
X132694063Y-75578817D01*
X132693223Y-75581404D01*
X132692892Y-75581643D01*
X132689598Y-75589598D01*
X132671792Y-75596973D01*
X132663077Y-75603305D01*
X132652436Y-75604990D01*
X132650000Y-75606000D01*
X132646067Y-75606000D01*
X131157919Y-75606000D01*
X131150000Y-75606000D01*
X131121185Y-75594064D01*
X131118595Y-75593223D01*
X131118354Y-75592892D01*
X131110402Y-75589598D01*
X131103027Y-75571795D01*
X131096694Y-75563077D01*
X131095008Y-75552434D01*
X131094000Y-75550000D01*
X131094000Y-75000000D01*
X131099089Y-74987714D01*
X131099089Y-74928843D01*
X131101357Y-74913066D01*
X131141452Y-74776515D01*
X131148074Y-74762016D01*
X131150002Y-74759014D01*
X131150005Y-74759010D01*
X131223083Y-74645299D01*
X131223086Y-74645295D01*
X131225015Y-74642294D01*
X131235453Y-74630248D01*
X131238149Y-74627911D01*
X131238155Y-74627905D01*
X131340303Y-74539393D01*
X131340311Y-74539387D01*
X131343008Y-74537051D01*
X131356417Y-74528434D01*
X131359664Y-74526951D01*
X131359669Y-74526948D01*
X131482616Y-74470801D01*
X131482619Y-74470800D01*
X131485871Y-74469315D01*
X131501164Y-74464824D01*
X131504703Y-74464315D01*
X131504707Y-74464314D01*
X131640256Y-74444825D01*
X131640256Y-74444824D01*
X131642030Y-74444570D01*
X131650000Y-74444000D01*
X132150000Y-74444000D01*
X132157970Y-74444570D01*
G37*
G36*
X135757970Y-74344570D02*
G01*
X135779495Y-74347665D01*
X135895292Y-74364314D01*
X135895294Y-74364314D01*
X135898836Y-74364824D01*
X135914129Y-74369315D01*
X135917382Y-74370800D01*
X135917383Y-74370801D01*
X136040330Y-74426948D01*
X136040332Y-74426949D01*
X136043583Y-74428434D01*
X136056992Y-74437051D01*
X136059691Y-74439390D01*
X136059696Y-74439393D01*
X136161844Y-74527905D01*
X136161846Y-74527908D01*
X136164547Y-74530248D01*
X136174985Y-74542294D01*
X136251926Y-74662016D01*
X136258548Y-74676515D01*
X136298643Y-74813066D01*
X136300911Y-74828843D01*
X136300911Y-74832419D01*
X136300911Y-74869835D01*
X136301219Y-74873751D01*
X136304991Y-74897564D01*
X136306000Y-74900000D01*
X136306000Y-75450000D01*
X136294063Y-75478817D01*
X136293223Y-75481404D01*
X136292892Y-75481643D01*
X136289598Y-75489598D01*
X136271792Y-75496973D01*
X136263077Y-75503305D01*
X136252436Y-75504990D01*
X136250000Y-75506000D01*
X136246067Y-75506000D01*
X134757919Y-75506000D01*
X134750000Y-75506000D01*
X134721185Y-75494064D01*
X134718595Y-75493223D01*
X134718354Y-75492892D01*
X134710402Y-75489598D01*
X134703027Y-75471795D01*
X134696694Y-75463077D01*
X134695008Y-75452434D01*
X134694000Y-75450000D01*
X134694000Y-74900000D01*
X134699089Y-74887714D01*
X134699089Y-74828843D01*
X134701357Y-74813066D01*
X134741452Y-74676515D01*
X134748074Y-74662016D01*
X134750002Y-74659014D01*
X134750005Y-74659010D01*
X134823083Y-74545299D01*
X134823086Y-74545295D01*
X134825015Y-74542294D01*
X134835453Y-74530248D01*
X134838149Y-74527911D01*
X134838155Y-74527905D01*
X134940303Y-74439393D01*
X134940311Y-74439387D01*
X134943008Y-74437051D01*
X134956417Y-74428434D01*
X134959664Y-74426951D01*
X134959669Y-74426948D01*
X135082616Y-74370801D01*
X135082619Y-74370800D01*
X135085871Y-74369315D01*
X135101164Y-74364824D01*
X135104703Y-74364315D01*
X135104707Y-74364314D01*
X135240256Y-74344825D01*
X135240256Y-74344824D01*
X135242030Y-74344570D01*
X135250000Y-74344000D01*
X135750000Y-74344000D01*
X135757970Y-74344570D01*
G37*
G36*
X138957970Y-74344570D02*
G01*
X138979495Y-74347665D01*
X139095292Y-74364314D01*
X139095294Y-74364314D01*
X139098836Y-74364824D01*
X139114129Y-74369315D01*
X139117382Y-74370800D01*
X139117383Y-74370801D01*
X139240330Y-74426948D01*
X139240332Y-74426949D01*
X139243583Y-74428434D01*
X139256992Y-74437051D01*
X139259691Y-74439390D01*
X139259696Y-74439393D01*
X139361844Y-74527905D01*
X139361846Y-74527908D01*
X139364547Y-74530248D01*
X139374985Y-74542294D01*
X139451926Y-74662016D01*
X139458548Y-74676515D01*
X139498643Y-74813066D01*
X139500911Y-74828843D01*
X139500911Y-74832419D01*
X139500911Y-74869835D01*
X139501219Y-74873751D01*
X139504991Y-74897564D01*
X139506000Y-74900000D01*
X139506000Y-75450000D01*
X139494063Y-75478817D01*
X139493223Y-75481404D01*
X139492892Y-75481643D01*
X139489598Y-75489598D01*
X139471792Y-75496973D01*
X139463077Y-75503305D01*
X139452436Y-75504990D01*
X139450000Y-75506000D01*
X139446067Y-75506000D01*
X137957919Y-75506000D01*
X137950000Y-75506000D01*
X137921185Y-75494064D01*
X137918595Y-75493223D01*
X137918354Y-75492892D01*
X137910402Y-75489598D01*
X137903027Y-75471795D01*
X137896694Y-75463077D01*
X137895008Y-75452434D01*
X137894000Y-75450000D01*
X137894000Y-74900000D01*
X137899089Y-74887714D01*
X137899089Y-74828843D01*
X137901357Y-74813066D01*
X137941452Y-74676515D01*
X137948074Y-74662016D01*
X137950002Y-74659014D01*
X137950005Y-74659010D01*
X138023083Y-74545299D01*
X138023086Y-74545295D01*
X138025015Y-74542294D01*
X138035453Y-74530248D01*
X138038149Y-74527911D01*
X138038155Y-74527905D01*
X138140303Y-74439393D01*
X138140311Y-74439387D01*
X138143008Y-74437051D01*
X138156417Y-74428434D01*
X138159664Y-74426951D01*
X138159669Y-74426948D01*
X138282616Y-74370801D01*
X138282619Y-74370800D01*
X138285871Y-74369315D01*
X138301164Y-74364824D01*
X138304703Y-74364315D01*
X138304707Y-74364314D01*
X138440256Y-74344825D01*
X138440256Y-74344824D01*
X138442030Y-74344570D01*
X138450000Y-74344000D01*
X138950000Y-74344000D01*
X138957970Y-74344570D01*
G37*
G36*
X150166866Y-73152882D02*
G01*
X150183411Y-73163938D01*
X150194467Y-73180483D01*
X150198349Y-73200000D01*
X150198349Y-74800000D01*
X150194467Y-74819517D01*
X150183411Y-74836062D01*
X150166866Y-74847118D01*
X150147349Y-74851000D01*
X148547349Y-74851000D01*
X148527832Y-74847118D01*
X148511287Y-74836062D01*
X148500231Y-74819517D01*
X148496349Y-74800000D01*
X148496349Y-73200000D01*
X148500231Y-73180483D01*
X148511287Y-73163938D01*
X148527832Y-73152882D01*
X148547349Y-73149000D01*
X150147349Y-73149000D01*
X150166866Y-73152882D01*
G37*
G36*
X153110322Y-73190651D02*
G01*
X153272849Y-73263012D01*
X153416779Y-73367584D01*
X153535822Y-73499795D01*
X153624776Y-73653867D01*
X153679753Y-73823067D01*
X153698349Y-74000000D01*
X153679753Y-74176933D01*
X153624776Y-74346133D01*
X153535822Y-74500205D01*
X153416779Y-74632416D01*
X153272849Y-74736988D01*
X153110322Y-74809349D01*
X152936303Y-74846338D01*
X152758395Y-74846338D01*
X152584376Y-74809349D01*
X152421849Y-74736988D01*
X152277919Y-74632416D01*
X152158876Y-74500205D01*
X152069922Y-74346133D01*
X152014945Y-74176933D01*
X151996349Y-74000000D01*
X152014945Y-73823067D01*
X152069922Y-73653867D01*
X152158876Y-73499795D01*
X152277919Y-73367584D01*
X152421849Y-73263012D01*
X152584376Y-73190651D01*
X152758395Y-73153662D01*
X152936303Y-73153662D01*
X153110322Y-73190651D01*
G37*
G36*
X144925517Y-66977882D02*
G01*
X144942062Y-66988938D01*
X144953118Y-67005483D01*
X144957000Y-67025000D01*
X144957000Y-69625000D01*
X144953118Y-69644517D01*
X144942062Y-69661062D01*
X144925517Y-69672118D01*
X144906000Y-69676000D01*
X142306000Y-69676000D01*
X142286483Y-69672118D01*
X142269938Y-69661062D01*
X142258882Y-69644517D01*
X142255000Y-69625000D01*
X142255000Y-67025000D01*
X142258882Y-67005483D01*
X142269938Y-66988938D01*
X142286483Y-66977882D01*
X142306000Y-66974000D01*
X144906000Y-66974000D01*
X144925517Y-66977882D01*
G37*
G36*
X194925517Y-66977882D02*
G01*
X194942062Y-66988938D01*
X194953118Y-67005483D01*
X194957000Y-67025000D01*
X194957000Y-69625000D01*
X194953118Y-69644517D01*
X194942062Y-69661062D01*
X194925517Y-69672118D01*
X194906000Y-69676000D01*
X192306000Y-69676000D01*
X192286483Y-69672118D01*
X192269938Y-69661062D01*
X192258882Y-69644517D01*
X192255000Y-69625000D01*
X192255000Y-67025000D01*
X192258882Y-67005483D01*
X192269938Y-66988938D01*
X192286483Y-66977882D01*
X192306000Y-66974000D01*
X194906000Y-66974000D01*
X194925517Y-66977882D01*
G37*
G36*
X108937651Y-67015340D02*
G01*
X109148691Y-67087790D01*
X109344927Y-67193988D01*
X109521007Y-67331037D01*
X109672129Y-67495199D01*
X109794169Y-67681995D01*
X109883799Y-67886331D01*
X109938574Y-68102633D01*
X109957000Y-68325000D01*
X109938574Y-68547367D01*
X109883799Y-68763669D01*
X109794169Y-68968005D01*
X109672129Y-69154801D01*
X109521007Y-69318963D01*
X109344927Y-69456012D01*
X109148691Y-69562210D01*
X108937651Y-69634660D01*
X108717565Y-69671386D01*
X108494435Y-69671386D01*
X108274349Y-69634660D01*
X108063309Y-69562210D01*
X107867073Y-69456012D01*
X107690993Y-69318963D01*
X107539871Y-69154801D01*
X107417831Y-68968005D01*
X107328201Y-68763669D01*
X107273426Y-68547367D01*
X107255000Y-68325000D01*
X107273426Y-68102633D01*
X107328201Y-67886331D01*
X107417831Y-67681995D01*
X107539871Y-67495199D01*
X107690993Y-67331037D01*
X107867073Y-67193988D01*
X108063309Y-67087790D01*
X108274349Y-67015340D01*
X108494435Y-66978614D01*
X108717565Y-66978614D01*
X108937651Y-67015340D01*
G37*
G36*
X113937651Y-67015340D02*
G01*
X114148691Y-67087790D01*
X114344927Y-67193988D01*
X114521007Y-67331037D01*
X114672129Y-67495199D01*
X114794169Y-67681995D01*
X114883799Y-67886331D01*
X114938574Y-68102633D01*
X114957000Y-68325000D01*
X114938574Y-68547367D01*
X114883799Y-68763669D01*
X114794169Y-68968005D01*
X114672129Y-69154801D01*
X114521007Y-69318963D01*
X114344927Y-69456012D01*
X114148691Y-69562210D01*
X113937651Y-69634660D01*
X113717565Y-69671386D01*
X113494435Y-69671386D01*
X113274349Y-69634660D01*
X113063309Y-69562210D01*
X112867073Y-69456012D01*
X112690993Y-69318963D01*
X112539871Y-69154801D01*
X112417831Y-68968005D01*
X112328201Y-68763669D01*
X112273426Y-68547367D01*
X112255000Y-68325000D01*
X112273426Y-68102633D01*
X112328201Y-67886331D01*
X112417831Y-67681995D01*
X112539871Y-67495199D01*
X112690993Y-67331037D01*
X112867073Y-67193988D01*
X113063309Y-67087790D01*
X113274349Y-67015340D01*
X113494435Y-66978614D01*
X113717565Y-66978614D01*
X113937651Y-67015340D01*
G37*
G36*
X118937651Y-67015340D02*
G01*
X119148691Y-67087790D01*
X119344927Y-67193988D01*
X119521007Y-67331037D01*
X119672129Y-67495199D01*
X119794169Y-67681995D01*
X119883799Y-67886331D01*
X119938574Y-68102633D01*
X119957000Y-68325000D01*
X119938574Y-68547367D01*
X119883799Y-68763669D01*
X119794169Y-68968005D01*
X119672129Y-69154801D01*
X119521007Y-69318963D01*
X119344927Y-69456012D01*
X119148691Y-69562210D01*
X118937651Y-69634660D01*
X118717565Y-69671386D01*
X118494435Y-69671386D01*
X118274349Y-69634660D01*
X118063309Y-69562210D01*
X117867073Y-69456012D01*
X117690993Y-69318963D01*
X117539871Y-69154801D01*
X117417831Y-68968005D01*
X117328201Y-68763669D01*
X117273426Y-68547367D01*
X117255000Y-68325000D01*
X117273426Y-68102633D01*
X117328201Y-67886331D01*
X117417831Y-67681995D01*
X117539871Y-67495199D01*
X117690993Y-67331037D01*
X117867073Y-67193988D01*
X118063309Y-67087790D01*
X118274349Y-67015340D01*
X118494435Y-66978614D01*
X118717565Y-66978614D01*
X118937651Y-67015340D01*
G37*
G36*
X123937651Y-67015340D02*
G01*
X124148691Y-67087790D01*
X124344927Y-67193988D01*
X124521007Y-67331037D01*
X124672129Y-67495199D01*
X124794169Y-67681995D01*
X124883799Y-67886331D01*
X124938574Y-68102633D01*
X124957000Y-68325000D01*
X124938574Y-68547367D01*
X124883799Y-68763669D01*
X124794169Y-68968005D01*
X124672129Y-69154801D01*
X124521007Y-69318963D01*
X124344927Y-69456012D01*
X124148691Y-69562210D01*
X123937651Y-69634660D01*
X123717565Y-69671386D01*
X123494435Y-69671386D01*
X123274349Y-69634660D01*
X123063309Y-69562210D01*
X122867073Y-69456012D01*
X122690993Y-69318963D01*
X122539871Y-69154801D01*
X122417831Y-68968005D01*
X122328201Y-68763669D01*
X122273426Y-68547367D01*
X122255000Y-68325000D01*
X122273426Y-68102633D01*
X122328201Y-67886331D01*
X122417831Y-67681995D01*
X122539871Y-67495199D01*
X122690993Y-67331037D01*
X122867073Y-67193988D01*
X123063309Y-67087790D01*
X123274349Y-67015340D01*
X123494435Y-66978614D01*
X123717565Y-66978614D01*
X123937651Y-67015340D01*
G37*
G36*
X128937651Y-67015340D02*
G01*
X129148691Y-67087790D01*
X129344927Y-67193988D01*
X129521007Y-67331037D01*
X129672129Y-67495199D01*
X129794169Y-67681995D01*
X129883799Y-67886331D01*
X129938574Y-68102633D01*
X129957000Y-68325000D01*
X129938574Y-68547367D01*
X129883799Y-68763669D01*
X129794169Y-68968005D01*
X129672129Y-69154801D01*
X129521007Y-69318963D01*
X129344927Y-69456012D01*
X129148691Y-69562210D01*
X128937651Y-69634660D01*
X128717565Y-69671386D01*
X128494435Y-69671386D01*
X128274349Y-69634660D01*
X128063309Y-69562210D01*
X127867073Y-69456012D01*
X127690993Y-69318963D01*
X127539871Y-69154801D01*
X127417831Y-68968005D01*
X127328201Y-68763669D01*
X127273426Y-68547367D01*
X127255000Y-68325000D01*
X127273426Y-68102633D01*
X127328201Y-67886331D01*
X127417831Y-67681995D01*
X127539871Y-67495199D01*
X127690993Y-67331037D01*
X127867073Y-67193988D01*
X128063309Y-67087790D01*
X128274349Y-67015340D01*
X128494435Y-66978614D01*
X128717565Y-66978614D01*
X128937651Y-67015340D01*
G37*
G36*
X133937651Y-67015340D02*
G01*
X134148691Y-67087790D01*
X134344927Y-67193988D01*
X134521007Y-67331037D01*
X134672129Y-67495199D01*
X134794169Y-67681995D01*
X134883799Y-67886331D01*
X134938574Y-68102633D01*
X134957000Y-68325000D01*
X134938574Y-68547367D01*
X134883799Y-68763669D01*
X134794169Y-68968005D01*
X134672129Y-69154801D01*
X134521007Y-69318963D01*
X134344927Y-69456012D01*
X134148691Y-69562210D01*
X133937651Y-69634660D01*
X133717565Y-69671386D01*
X133494435Y-69671386D01*
X133274349Y-69634660D01*
X133063309Y-69562210D01*
X132867073Y-69456012D01*
X132690993Y-69318963D01*
X132539871Y-69154801D01*
X132417831Y-68968005D01*
X132328201Y-68763669D01*
X132273426Y-68547367D01*
X132255000Y-68325000D01*
X132273426Y-68102633D01*
X132328201Y-67886331D01*
X132417831Y-67681995D01*
X132539871Y-67495199D01*
X132690993Y-67331037D01*
X132867073Y-67193988D01*
X133063309Y-67087790D01*
X133274349Y-67015340D01*
X133494435Y-66978614D01*
X133717565Y-66978614D01*
X133937651Y-67015340D01*
G37*
G36*
X138937651Y-67015340D02*
G01*
X139148691Y-67087790D01*
X139344927Y-67193988D01*
X139521007Y-67331037D01*
X139672129Y-67495199D01*
X139794169Y-67681995D01*
X139883799Y-67886331D01*
X139938574Y-68102633D01*
X139957000Y-68325000D01*
X139938574Y-68547367D01*
X139883799Y-68763669D01*
X139794169Y-68968005D01*
X139672129Y-69154801D01*
X139521007Y-69318963D01*
X139344927Y-69456012D01*
X139148691Y-69562210D01*
X138937651Y-69634660D01*
X138717565Y-69671386D01*
X138494435Y-69671386D01*
X138274349Y-69634660D01*
X138063309Y-69562210D01*
X137867073Y-69456012D01*
X137690993Y-69318963D01*
X137539871Y-69154801D01*
X137417831Y-68968005D01*
X137328201Y-68763669D01*
X137273426Y-68547367D01*
X137255000Y-68325000D01*
X137273426Y-68102633D01*
X137328201Y-67886331D01*
X137417831Y-67681995D01*
X137539871Y-67495199D01*
X137690993Y-67331037D01*
X137867073Y-67193988D01*
X138063309Y-67087790D01*
X138274349Y-67015340D01*
X138494435Y-66978614D01*
X138717565Y-66978614D01*
X138937651Y-67015340D01*
G37*
G36*
X158937651Y-67015340D02*
G01*
X159148691Y-67087790D01*
X159344927Y-67193988D01*
X159521007Y-67331037D01*
X159672129Y-67495199D01*
X159794169Y-67681995D01*
X159883799Y-67886331D01*
X159938574Y-68102633D01*
X159957000Y-68325000D01*
X159938574Y-68547367D01*
X159883799Y-68763669D01*
X159794169Y-68968005D01*
X159672129Y-69154801D01*
X159521007Y-69318963D01*
X159344927Y-69456012D01*
X159148691Y-69562210D01*
X158937651Y-69634660D01*
X158717565Y-69671386D01*
X158494435Y-69671386D01*
X158274349Y-69634660D01*
X158063309Y-69562210D01*
X157867073Y-69456012D01*
X157690993Y-69318963D01*
X157539871Y-69154801D01*
X157417831Y-68968005D01*
X157328201Y-68763669D01*
X157273426Y-68547367D01*
X157255000Y-68325000D01*
X157273426Y-68102633D01*
X157328201Y-67886331D01*
X157417831Y-67681995D01*
X157539871Y-67495199D01*
X157690993Y-67331037D01*
X157867073Y-67193988D01*
X158063309Y-67087790D01*
X158274349Y-67015340D01*
X158494435Y-66978614D01*
X158717565Y-66978614D01*
X158937651Y-67015340D01*
G37*
G36*
X163937651Y-67015340D02*
G01*
X164148691Y-67087790D01*
X164344927Y-67193988D01*
X164521007Y-67331037D01*
X164672129Y-67495199D01*
X164794169Y-67681995D01*
X164883799Y-67886331D01*
X164938574Y-68102633D01*
X164957000Y-68325000D01*
X164938574Y-68547367D01*
X164883799Y-68763669D01*
X164794169Y-68968005D01*
X164672129Y-69154801D01*
X164521007Y-69318963D01*
X164344927Y-69456012D01*
X164148691Y-69562210D01*
X163937651Y-69634660D01*
X163717565Y-69671386D01*
X163494435Y-69671386D01*
X163274349Y-69634660D01*
X163063309Y-69562210D01*
X162867073Y-69456012D01*
X162690993Y-69318963D01*
X162539871Y-69154801D01*
X162417831Y-68968005D01*
X162328201Y-68763669D01*
X162273426Y-68547367D01*
X162255000Y-68325000D01*
X162273426Y-68102633D01*
X162328201Y-67886331D01*
X162417831Y-67681995D01*
X162539871Y-67495199D01*
X162690993Y-67331037D01*
X162867073Y-67193988D01*
X163063309Y-67087790D01*
X163274349Y-67015340D01*
X163494435Y-66978614D01*
X163717565Y-66978614D01*
X163937651Y-67015340D01*
G37*
G36*
X168937651Y-67015340D02*
G01*
X169148691Y-67087790D01*
X169344927Y-67193988D01*
X169521007Y-67331037D01*
X169672129Y-67495199D01*
X169794169Y-67681995D01*
X169883799Y-67886331D01*
X169938574Y-68102633D01*
X169957000Y-68325000D01*
X169938574Y-68547367D01*
X169883799Y-68763669D01*
X169794169Y-68968005D01*
X169672129Y-69154801D01*
X169521007Y-69318963D01*
X169344927Y-69456012D01*
X169148691Y-69562210D01*
X168937651Y-69634660D01*
X168717565Y-69671386D01*
X168494435Y-69671386D01*
X168274349Y-69634660D01*
X168063309Y-69562210D01*
X167867073Y-69456012D01*
X167690993Y-69318963D01*
X167539871Y-69154801D01*
X167417831Y-68968005D01*
X167328201Y-68763669D01*
X167273426Y-68547367D01*
X167255000Y-68325000D01*
X167273426Y-68102633D01*
X167328201Y-67886331D01*
X167417831Y-67681995D01*
X167539871Y-67495199D01*
X167690993Y-67331037D01*
X167867073Y-67193988D01*
X168063309Y-67087790D01*
X168274349Y-67015340D01*
X168494435Y-66978614D01*
X168717565Y-66978614D01*
X168937651Y-67015340D01*
G37*
G36*
X173937651Y-67015340D02*
G01*
X174148691Y-67087790D01*
X174344927Y-67193988D01*
X174521007Y-67331037D01*
X174672129Y-67495199D01*
X174794169Y-67681995D01*
X174883799Y-67886331D01*
X174938574Y-68102633D01*
X174957000Y-68325000D01*
X174938574Y-68547367D01*
X174883799Y-68763669D01*
X174794169Y-68968005D01*
X174672129Y-69154801D01*
X174521007Y-69318963D01*
X174344927Y-69456012D01*
X174148691Y-69562210D01*
X173937651Y-69634660D01*
X173717565Y-69671386D01*
X173494435Y-69671386D01*
X173274349Y-69634660D01*
X173063309Y-69562210D01*
X172867073Y-69456012D01*
X172690993Y-69318963D01*
X172539871Y-69154801D01*
X172417831Y-68968005D01*
X172328201Y-68763669D01*
X172273426Y-68547367D01*
X172255000Y-68325000D01*
X172273426Y-68102633D01*
X172328201Y-67886331D01*
X172417831Y-67681995D01*
X172539871Y-67495199D01*
X172690993Y-67331037D01*
X172867073Y-67193988D01*
X173063309Y-67087790D01*
X173274349Y-67015340D01*
X173494435Y-66978614D01*
X173717565Y-66978614D01*
X173937651Y-67015340D01*
G37*
G36*
X178937651Y-67015340D02*
G01*
X179148691Y-67087790D01*
X179344927Y-67193988D01*
X179521007Y-67331037D01*
X179672129Y-67495199D01*
X179794169Y-67681995D01*
X179883799Y-67886331D01*
X179938574Y-68102633D01*
X179957000Y-68325000D01*
X179938574Y-68547367D01*
X179883799Y-68763669D01*
X179794169Y-68968005D01*
X179672129Y-69154801D01*
X179521007Y-69318963D01*
X179344927Y-69456012D01*
X179148691Y-69562210D01*
X178937651Y-69634660D01*
X178717565Y-69671386D01*
X178494435Y-69671386D01*
X178274349Y-69634660D01*
X178063309Y-69562210D01*
X177867073Y-69456012D01*
X177690993Y-69318963D01*
X177539871Y-69154801D01*
X177417831Y-68968005D01*
X177328201Y-68763669D01*
X177273426Y-68547367D01*
X177255000Y-68325000D01*
X177273426Y-68102633D01*
X177328201Y-67886331D01*
X177417831Y-67681995D01*
X177539871Y-67495199D01*
X177690993Y-67331037D01*
X177867073Y-67193988D01*
X178063309Y-67087790D01*
X178274349Y-67015340D01*
X178494435Y-66978614D01*
X178717565Y-66978614D01*
X178937651Y-67015340D01*
G37*
G36*
X183937651Y-67015340D02*
G01*
X184148691Y-67087790D01*
X184344927Y-67193988D01*
X184521007Y-67331037D01*
X184672129Y-67495199D01*
X184794169Y-67681995D01*
X184883799Y-67886331D01*
X184938574Y-68102633D01*
X184957000Y-68325000D01*
X184938574Y-68547367D01*
X184883799Y-68763669D01*
X184794169Y-68968005D01*
X184672129Y-69154801D01*
X184521007Y-69318963D01*
X184344927Y-69456012D01*
X184148691Y-69562210D01*
X183937651Y-69634660D01*
X183717565Y-69671386D01*
X183494435Y-69671386D01*
X183274349Y-69634660D01*
X183063309Y-69562210D01*
X182867073Y-69456012D01*
X182690993Y-69318963D01*
X182539871Y-69154801D01*
X182417831Y-68968005D01*
X182328201Y-68763669D01*
X182273426Y-68547367D01*
X182255000Y-68325000D01*
X182273426Y-68102633D01*
X182328201Y-67886331D01*
X182417831Y-67681995D01*
X182539871Y-67495199D01*
X182690993Y-67331037D01*
X182867073Y-67193988D01*
X183063309Y-67087790D01*
X183274349Y-67015340D01*
X183494435Y-66978614D01*
X183717565Y-66978614D01*
X183937651Y-67015340D01*
G37*
G36*
X188937651Y-67015340D02*
G01*
X189148691Y-67087790D01*
X189344927Y-67193988D01*
X189521007Y-67331037D01*
X189672129Y-67495199D01*
X189794169Y-67681995D01*
X189883799Y-67886331D01*
X189938574Y-68102633D01*
X189957000Y-68325000D01*
X189938574Y-68547367D01*
X189883799Y-68763669D01*
X189794169Y-68968005D01*
X189672129Y-69154801D01*
X189521007Y-69318963D01*
X189344927Y-69456012D01*
X189148691Y-69562210D01*
X188937651Y-69634660D01*
X188717565Y-69671386D01*
X188494435Y-69671386D01*
X188274349Y-69634660D01*
X188063309Y-69562210D01*
X187867073Y-69456012D01*
X187690993Y-69318963D01*
X187539871Y-69154801D01*
X187417831Y-68968005D01*
X187328201Y-68763669D01*
X187273426Y-68547367D01*
X187255000Y-68325000D01*
X187273426Y-68102633D01*
X187328201Y-67886331D01*
X187417831Y-67681995D01*
X187539871Y-67495199D01*
X187690993Y-67331037D01*
X187867073Y-67193988D01*
X188063309Y-67087790D01*
X188274349Y-67015340D01*
X188494435Y-66978614D01*
X188717565Y-66978614D01*
X188937651Y-67015340D01*
G37*
M02*
