%TF.GenerationSoftware,KiCad,Pcbnew,9.0.3*%
%TF.CreationDate,2025-10-14T20:44:30+02:00*%
%TF.ProjectId,esp32_blinds_controller,65737033-325f-4626-9c69-6e64735f636f,V0.3*%
%TF.SameCoordinates,Original*%
%TF.FileFunction,Profile,NP*%
%FSLAX46Y46*%
G04 Gerber Fmt 4.6, Leading zero omitted, Abs format (unit mm)*
G04 Created by KiCad (PCBNEW 9.0.3) date 2025-10-14 20:44:30*
%MOMM*%
%LPD*%
G01*
G04 APERTURE LIST*
%TA.AperFunction,Profile*%
%ADD10C,0.050000*%
%TD*%
%TA.AperFunction,Profile*%
%ADD11C,0.120000*%
%TD*%
G04 APERTURE END LIST*
D10*
X139900000Y-96448528D02*
G75*
G02*
X141099972Y-97648528I0J-1199972D01*
G01*
X167400000Y-96400000D02*
G75*
G02*
X168600000Y-97600000I0J-1200000D01*
G01*
X168600000Y-103100000D02*
G75*
G02*
X167600000Y-103100000I-500000J0D01*
G01*
X187700000Y-103100000D02*
X187700000Y-97600000D01*
X161100000Y-103100000D02*
X161100000Y-97600000D01*
X134600000Y-103148528D02*
X134600000Y-97648528D01*
X122200000Y-103100000D02*
G75*
G02*
X121200000Y-103100000I-500000J0D01*
G01*
X122200000Y-103100000D02*
X122200000Y-97600000D01*
X134800000Y-96448528D02*
X139900000Y-96448528D01*
X162300000Y-97400000D02*
X167400000Y-97400000D01*
X141100000Y-103148528D02*
X141100000Y-97648528D01*
X181200000Y-103100000D02*
G75*
G02*
X180200000Y-103100000I-500000J0D01*
G01*
X121000000Y-96400000D02*
G75*
G02*
X122200000Y-97600000I0J-1200000D01*
G01*
X181400000Y-97400000D02*
X186500000Y-97400000D01*
X162100000Y-97600000D02*
G75*
G02*
X162300000Y-97400000I200000J0D01*
G01*
X133600000Y-97648528D02*
G75*
G02*
X134800000Y-96448500I1200000J28D01*
G01*
X121200000Y-103100000D02*
X121200000Y-97600000D01*
X187700000Y-103100000D02*
G75*
G02*
X186700000Y-103100000I-500000J0D01*
G01*
X115900000Y-97400000D02*
X121000000Y-97400000D01*
X115700000Y-103100000D02*
X115700000Y-97600000D01*
X167400000Y-97400000D02*
G75*
G02*
X167600000Y-97600000I0J-200000D01*
G01*
X141100000Y-103148528D02*
G75*
G02*
X140100000Y-103148528I-500000J0D01*
G01*
X186700000Y-103100000D02*
X186700000Y-97600000D01*
X180200000Y-97600000D02*
G75*
G02*
X181400000Y-96400000I1200000J0D01*
G01*
X134800000Y-97448528D02*
X139900000Y-97448528D01*
X181200000Y-97600000D02*
G75*
G02*
X181400000Y-97400000I200000J0D01*
G01*
X186500000Y-97400000D02*
G75*
G02*
X186700000Y-97600000I0J-200000D01*
G01*
X162100000Y-103100000D02*
G75*
G02*
X161100000Y-103100000I-500000J0D01*
G01*
X139900000Y-97448528D02*
G75*
G02*
X140099972Y-97648528I0J-199972D01*
G01*
X115700000Y-103100000D02*
G75*
G02*
X114700000Y-103100000I-500000J0D01*
G01*
X186500000Y-96400000D02*
G75*
G02*
X187700000Y-97600000I0J-1200000D01*
G01*
X180200000Y-103100000D02*
X180200000Y-97600000D01*
X162100000Y-103100000D02*
X162100000Y-97600000D01*
X134600000Y-97648528D02*
G75*
G02*
X134800000Y-97448500I200000J28D01*
G01*
X115900000Y-96400000D02*
X121000000Y-96400000D01*
X121000000Y-97400000D02*
G75*
G02*
X121200000Y-97600000I0J-200000D01*
G01*
X140100000Y-103148528D02*
X140100000Y-97648528D01*
X181200000Y-103100000D02*
X181200000Y-97600000D01*
X114700000Y-103100000D02*
X114700000Y-97600000D01*
X168600000Y-103100000D02*
X168600000Y-97600000D01*
X162300000Y-96400000D02*
X167400000Y-96400000D01*
X167600000Y-103100000D02*
X167600000Y-97600000D01*
X161100000Y-97600000D02*
G75*
G02*
X162300000Y-96400000I1200000J0D01*
G01*
X134600000Y-103148528D02*
G75*
G02*
X133600000Y-103148528I-500000J0D01*
G01*
X181400000Y-96400000D02*
X186500000Y-96400000D01*
X115700000Y-97600000D02*
G75*
G02*
X115900000Y-97400000I200000J0D01*
G01*
X114700000Y-97600000D02*
G75*
G02*
X115900000Y-96400000I1200000J0D01*
G01*
X133600000Y-103148528D02*
X133600000Y-97648528D01*
D11*
%TO.C,MOD1*%
X101175000Y-63120000D02*
X101175000Y-131370000D01*
X101175000Y-131370000D02*
X201175000Y-131370000D01*
X201175000Y-63120000D02*
X101175000Y-63120000D01*
X201175000Y-131370000D02*
X201175000Y-63120000D01*
%TD*%
M02*
