M48
; DRILL file {KiCad 8.0.5} date 2025-07-29T09:58:19+0200
; FORMAT={-:-/ absolute / inch / decimal}
; #@! TF.CreationDate,2025-07-29T09:58:19+02:00
; #@! TF.GenerationSoftware,Kicad,Pcbnew,8.0.5
; #@! TF.FileFunction,Plated,1,2,PTH
FMAT,2
INCH
; #@! TA.AperFunction,Plated,PTH,ViaDrill
T1C0.0118
; #@! TA.AperFunction,Plated,PTH,ComponentDrill
T2C0.0315
; #@! TA.AperFunction,Plated,PTH,ComponentDrill
T3C0.0374
; #@! TA.AperFunction,Plated,PTH,ComponentDrill
T4C0.0512
; #@! TA.AperFunction,Plated,PTH,ComponentDrill
T5C0.0984
%
G90
G05
T1
X4.0197Y-2.5197
X4.1614Y-3.7717
X4.3346Y-2.7677
X4.4016Y-3.3465
X4.5394Y-2.5197
X4.6181Y-3.6969
X4.878Y-3.4872
X5.1339Y-2.9961
X5.1575Y-3.0906
X5.1693Y-2.8031
X5.2087Y-2.8346
X5.2953Y-3.0906
X5.374Y-2.8701
X5.4569Y-2.8346
X5.5315Y-3.0906
X5.5354Y-3.3858
X5.5945Y-2.8622
X5.5984Y-3.4242
X5.6457Y-3.0472
X5.6538Y-2.8031
X5.6654Y-2.9882
X5.6693Y-3.0709
X5.689Y-2.8425
X5.6929Y-3.0945
X5.6969Y-3.4557
X5.7283Y-3.3465
X5.8504Y-3.4646
X5.8622Y-3.1811
X5.9291Y-2.6339
X5.937Y-3.4803
X5.9449Y-3.3465
X6.0315Y-3.4567
X6.1339Y-3.4331
X6.1417Y-3.3465
X6.1457Y-3.1772
X6.189Y-2.5236
X6.2402Y-3.1575
X6.2402Y-3.3465
X6.248Y-3.6614
X6.3386Y-3.2087
X6.3937Y-3.4567
X6.4449Y-3.3031
X6.4567Y-3.5236
X6.5157Y-3.4331
X6.5748Y-3.0652
X6.6339Y-3.5433
X6.6378Y-3.4803
X6.689Y-3.315
X6.7008Y-3.0
X6.7559Y-3.4094
X6.7913Y-3.6535
X6.8543Y-3.2087
X6.9055Y-3.3622
X6.9094Y-3.7559
X6.9646Y-3.4803
X7.0906Y-3.1969
X7.1654Y-3.4567
X7.2677Y-3.185
X7.3622Y-3.4331
X7.4016Y-3.7087
X7.4803Y-3.1969
X7.4961Y-3.3701
X7.5646Y-3.4094
X7.7087Y-3.7677
X7.8819Y-2.5197
X7.8819Y-3.7598
T2
X4.0496Y-3.7407
X4.2465Y-3.7407
X4.3602Y-3.5657
X4.498Y-3.5657
X4.675Y-3.3219
X4.675Y-3.6219
X4.775Y-3.3219
X4.775Y-3.6219
X4.875Y-3.3219
X4.875Y-3.6219
X4.975Y-3.3219
X4.975Y-3.6219
X5.075Y-3.3219
X5.075Y-3.6219
X5.175Y-3.3219
X5.175Y-3.6219
X5.275Y-3.3219
X5.275Y-3.6219
X5.375Y-3.3219
X5.375Y-3.6219
X5.5323Y-3.2789
X5.5323Y-3.5789
X5.6323Y-3.2789
X5.6323Y-3.5789
X5.7323Y-3.2789
X5.7323Y-3.5789
X5.8031Y-3.1535
X5.8323Y-3.2789
X5.8323Y-3.5789
X5.8798Y-2.9134
X5.9323Y-3.2789
X5.9323Y-3.5789
X6.0Y-3.1535
X6.0176Y-2.9134
X6.0323Y-3.2789
X6.0323Y-3.5789
X6.1323Y-3.2789
X6.1323Y-3.5789
X6.2323Y-3.2789
X6.2323Y-3.5789
X6.3323Y-3.2789
X6.3323Y-3.5789
X6.3937Y-3.0652
X6.3937Y-3.1652
X6.5157Y-3.0652
X6.5157Y-3.1652
X6.6378Y-3.0652
X6.6378Y-3.1652
X6.7559Y-3.0652
X6.7559Y-3.1652
X6.8646Y-3.2795
X6.8646Y-3.5795
X6.9646Y-3.2795
X6.9646Y-3.5795
X7.0315Y-2.9687
X7.0315Y-3.0687
X7.0646Y-3.2795
X7.0646Y-3.5795
X7.1646Y-3.2795
X7.1646Y-3.5795
X7.2283Y-2.9685
X7.2283Y-3.0685
X7.2646Y-3.2795
X7.2646Y-3.5795
X7.3646Y-3.2795
X7.3646Y-3.5795
X7.4291Y-2.9685
X7.4291Y-3.0685
X7.4646Y-3.2795
X7.4646Y-3.5795
X7.5591Y-2.9685
X7.5591Y-3.0685
X7.5646Y-3.2795
X7.5646Y-3.5795
T3
X4.5157Y-3.0236
X4.5157Y-3.1496
X4.6142Y-3.0236
X4.6142Y-3.1496
X4.7126Y-3.0236
X4.7126Y-3.1496
X4.811Y-3.0236
X4.811Y-3.1496
X4.9094Y-3.0236
X4.9094Y-3.1496
X5.0079Y-3.0236
X5.0079Y-3.1496
T4
X4.2758Y-2.69
X4.2785Y-4.9713
X4.4232Y-4.0315
X4.4232Y-4.5118
X4.4727Y-2.69
X4.4754Y-4.9713
X4.6594Y-3.9528
X4.6695Y-2.69
X4.6722Y-4.9713
X4.8664Y-2.69
X4.8691Y-4.9713
X4.8957Y-4.0315
X4.8957Y-4.5118
X5.0632Y-2.69
X5.0659Y-4.9713
X5.1673Y-4.0315
X5.1673Y-4.5118
X5.2601Y-2.69
X5.2628Y-4.9713
X5.4035Y-3.9528
X5.4569Y-2.69
X5.4596Y-4.9713
X5.6398Y-4.0315
X5.6398Y-4.5118
X5.6538Y-2.69
X5.6565Y-4.9713
X6.2443Y-2.69
X6.247Y-4.9713
X6.25Y-4.0315
X6.25Y-4.5118
X6.4412Y-2.69
X6.4439Y-4.9713
X6.4862Y-3.9528
X6.638Y-2.69
X6.6407Y-4.9713
X6.7224Y-4.0315
X6.7224Y-4.5118
X6.8349Y-2.69
X6.8376Y-4.9713
X7.0Y-4.0315
X7.0Y-4.5118
X7.0317Y-2.69
X7.0344Y-4.9713
X7.2286Y-2.69
X7.2313Y-4.9713
X7.2362Y-3.9528
X7.4254Y-2.69
X7.4281Y-4.9713
X7.4724Y-4.0315
X7.4724Y-4.5118
X7.6223Y-2.69
X7.625Y-4.9713
T5
X4.1407Y-3.0461
X4.1407Y-4.6209
X7.7628Y-3.0461
X7.7628Y-4.6209
M30
