%TF.GenerationSoftware,KiCad,Pcbnew,9.0.3*%
%TF.CreationDate,2025-10-14T20:44:30+02:00*%
%TF.ProjectId,esp32_blinds_controller,65737033-325f-4626-9c69-6e64735f636f,V0.3*%
%TF.SameCoordinates,Original*%
%TF.FileFunction,Copper,L1,Top*%
%TF.FilePolarity,Positive*%
%FSLAX46Y46*%
G04 Gerber Fmt 4.6, Leading zero omitted, Abs format (unit mm)*
G04 Created by KiCad (PCBNEW 9.0.3) date 2025-10-14 20:44:30*
%MOMM*%
%LPD*%
G01*
G04 APERTURE LIST*
G04 Aperture macros list*
%AMRoundRect*
0 Rectangle with rounded corners*
0 $1 Rounding radius*
0 $2 $3 $4 $5 $6 $7 $8 $9 X,Y pos of 4 corners*
0 Add a 4 corners polygon primitive as box body*
4,1,4,$2,$3,$4,$5,$6,$7,$8,$9,$2,$3,0*
0 Add four circle primitives for the rounded corners*
1,1,$1+$1,$2,$3*
1,1,$1+$1,$4,$5*
1,1,$1+$1,$6,$7*
1,1,$1+$1,$8,$9*
0 Add four rect primitives between the rounded corners*
20,1,$1+$1,$2,$3,$4,$5,0*
20,1,$1+$1,$4,$5,$6,$7,0*
20,1,$1+$1,$6,$7,$8,$9,0*
20,1,$1+$1,$8,$9,$2,$3,0*%
G04 Aperture macros list end*
%ADD10C,0.300000*%
%TA.AperFunction,NonConductor*%
%ADD11C,0.300000*%
%TD*%
%TA.AperFunction,SMDPad,CuDef*%
%ADD12RoundRect,0.250000X0.450000X-0.262500X0.450000X0.262500X-0.450000X0.262500X-0.450000X-0.262500X0*%
%TD*%
%TA.AperFunction,SMDPad,CuDef*%
%ADD13RoundRect,0.250000X-0.450000X0.262500X-0.450000X-0.262500X0.450000X-0.262500X0.450000X0.262500X0*%
%TD*%
%TA.AperFunction,SMDPad,CuDef*%
%ADD14RoundRect,0.249999X-0.640001X0.750001X-0.640001X-0.750001X0.640001X-0.750001X0.640001X0.750001X0*%
%TD*%
%TA.AperFunction,ComponentPad*%
%ADD15R,2.500000X2.500000*%
%TD*%
%TA.AperFunction,ComponentPad*%
%ADD16O,2.500000X2.500000*%
%TD*%
%TA.AperFunction,SMDPad,CuDef*%
%ADD17RoundRect,0.150000X-0.150000X0.825000X-0.150000X-0.825000X0.150000X-0.825000X0.150000X0.825000X0*%
%TD*%
%TA.AperFunction,SMDPad,CuDef*%
%ADD18RoundRect,0.250000X0.475000X-0.250000X0.475000X0.250000X-0.475000X0.250000X-0.475000X-0.250000X0*%
%TD*%
%TA.AperFunction,SMDPad,CuDef*%
%ADD19RoundRect,0.250000X1.500000X0.550000X-1.500000X0.550000X-1.500000X-0.550000X1.500000X-0.550000X0*%
%TD*%
%TA.AperFunction,ComponentPad*%
%ADD20R,2.600000X2.600000*%
%TD*%
%TA.AperFunction,ComponentPad*%
%ADD21C,2.600000*%
%TD*%
%TA.AperFunction,ComponentPad*%
%ADD22C,6.000000*%
%TD*%
%TA.AperFunction,SMDPad,CuDef*%
%ADD23RoundRect,0.250000X0.250000X0.475000X-0.250000X0.475000X-0.250000X-0.475000X0.250000X-0.475000X0*%
%TD*%
%TA.AperFunction,SMDPad,CuDef*%
%ADD24RoundRect,0.250000X-1.500000X-0.550000X1.500000X-0.550000X1.500000X0.550000X-1.500000X0.550000X0*%
%TD*%
%TA.AperFunction,SMDPad,CuDef*%
%ADD25RoundRect,0.150000X-0.150000X0.875000X-0.150000X-0.875000X0.150000X-0.875000X0.150000X0.875000X0*%
%TD*%
%TA.AperFunction,ComponentPad*%
%ADD26RoundRect,0.250000X0.600000X0.725000X-0.600000X0.725000X-0.600000X-0.725000X0.600000X-0.725000X0*%
%TD*%
%TA.AperFunction,ComponentPad*%
%ADD27O,1.700000X1.950000*%
%TD*%
%TA.AperFunction,ViaPad*%
%ADD28C,0.600000*%
%TD*%
%TA.AperFunction,Conductor*%
%ADD29C,0.500000*%
%TD*%
%TA.AperFunction,Conductor*%
%ADD30C,2.000000*%
%TD*%
%TA.AperFunction,Conductor*%
%ADD31C,1.000000*%
%TD*%
%TA.AperFunction,Conductor*%
%ADD32C,0.200000*%
%TD*%
G04 APERTURE END LIST*
D10*
D11*
X195783082Y-104820828D02*
X195783082Y-105892257D01*
X195783082Y-105892257D02*
X195711653Y-106106542D01*
X195711653Y-106106542D02*
X195568796Y-106249400D01*
X195568796Y-106249400D02*
X195354510Y-106320828D01*
X195354510Y-106320828D02*
X195211653Y-106320828D01*
X196497367Y-106320828D02*
X196497367Y-104820828D01*
X197354510Y-106320828D02*
X196711653Y-105463685D01*
X197354510Y-104820828D02*
X196497367Y-105677971D01*
X198497367Y-105535114D02*
X198711653Y-105606542D01*
X198711653Y-105606542D02*
X198783082Y-105677971D01*
X198783082Y-105677971D02*
X198854510Y-105820828D01*
X198854510Y-105820828D02*
X198854510Y-106035114D01*
X198854510Y-106035114D02*
X198783082Y-106177971D01*
X198783082Y-106177971D02*
X198711653Y-106249400D01*
X198711653Y-106249400D02*
X198568796Y-106320828D01*
X198568796Y-106320828D02*
X197997367Y-106320828D01*
X197997367Y-106320828D02*
X197997367Y-104820828D01*
X197997367Y-104820828D02*
X198497367Y-104820828D01*
X198497367Y-104820828D02*
X198640225Y-104892257D01*
X198640225Y-104892257D02*
X198711653Y-104963685D01*
X198711653Y-104963685D02*
X198783082Y-105106542D01*
X198783082Y-105106542D02*
X198783082Y-105249400D01*
X198783082Y-105249400D02*
X198711653Y-105392257D01*
X198711653Y-105392257D02*
X198640225Y-105463685D01*
X198640225Y-105463685D02*
X198497367Y-105535114D01*
X198497367Y-105535114D02*
X197997367Y-105535114D01*
X199497367Y-106320828D02*
X199497367Y-104820828D01*
D12*
%TO.P,R5,1*%
%TO.N,+3V3*%
X169500000Y-92112500D03*
%TO.P,R5,2*%
%TO.N,/IN3_L*%
X169500000Y-90287500D03*
%TD*%
%TO.P,R9,1*%
%TO.N,Net-(R9-Pad1)*%
X183600000Y-76812500D03*
%TO.P,R9,2*%
%TO.N,/IN2_H*%
X183600000Y-74987500D03*
%TD*%
D13*
%TO.P,R2,1*%
%TO.N,+3V3*%
X160700000Y-74987500D03*
%TO.P,R2,2*%
%TO.N,/SDA*%
X160700000Y-76812500D03*
%TD*%
D12*
%TO.P,R4,1*%
%TO.N,+3V3*%
X173600000Y-92112500D03*
%TO.P,R4,2*%
%TO.N,/IN1_L*%
X173600000Y-90287500D03*
%TD*%
D13*
%TO.P,R3,1*%
%TO.N,+3V3*%
X158700000Y-74987500D03*
%TO.P,R3,2*%
%TO.N,/INT*%
X158700000Y-76812500D03*
%TD*%
D14*
%TO.P,U4,1*%
%TO.N,Net-(R10-Pad1)*%
X178970000Y-82835000D03*
%TO.P,U4,2*%
%TO.N,Net-(R13-Pad1)*%
X176430000Y-82835000D03*
%TO.P,U4,3*%
%TO.N,GND*%
X176430000Y-92365000D03*
%TO.P,U4,4*%
%TO.N,/IN1_L*%
X178970000Y-92365000D03*
%TD*%
%TO.P,U5,1*%
%TO.N,Net-(R9-Pad1)*%
X184770000Y-82835000D03*
%TO.P,U5,2*%
%TO.N,Net-(R14-Pad1)*%
X182230000Y-82835000D03*
%TO.P,U5,3*%
%TO.N,GND*%
X182230000Y-92365000D03*
%TO.P,U5,4*%
%TO.N,/IN2_L*%
X184770000Y-92365000D03*
%TD*%
D15*
%TO.P,K2,1*%
%TO.N,Net-(K1-Pad4)*%
X137250000Y-100400000D03*
D16*
%TO.P,K2,2*%
%TO.N,VBUS*%
X131250000Y-102400000D03*
%TO.P,K2,3*%
%TO.N,/L1-UP*%
X131250000Y-114600000D03*
%TO.P,K2,4*%
%TO.N,/L1-SW*%
X143250000Y-114600000D03*
%TO.P,K2,5*%
%TO.N,/nUP1*%
X143250000Y-102400000D03*
%TD*%
D12*
%TO.P,R14,1*%
%TO.N,Net-(R14-Pad1)*%
X181600000Y-76812500D03*
%TO.P,R14,2*%
%TO.N,GND*%
X181600000Y-74987500D03*
%TD*%
D17*
%TO.P,U2,1,I1*%
%TO.N,unconnected-(U2-I1-Pad1)*%
X141550000Y-86150000D03*
%TO.P,U2,2,I2*%
%TO.N,unconnected-(U2-I2-Pad2)*%
X140280000Y-86150000D03*
%TO.P,U2,3,I3*%
%TO.N,unconnected-(U2-I3-Pad3)*%
X139010000Y-86150000D03*
%TO.P,U2,4,I4*%
%TO.N,/UP2*%
X137740000Y-86150000D03*
%TO.P,U2,5,I5*%
%TO.N,/DN2*%
X136470000Y-86150000D03*
%TO.P,U2,6,I6*%
%TO.N,/UP1*%
X135200000Y-86150000D03*
%TO.P,U2,7,I7*%
%TO.N,/DN1*%
X133930000Y-86150000D03*
%TO.P,U2,8,GND*%
%TO.N,GND*%
X132660000Y-86150000D03*
%TO.P,U2,9,COM*%
%TO.N,VBUS*%
X132660000Y-91100000D03*
%TO.P,U2,10,O7*%
%TO.N,/nDOWN1*%
X133930000Y-91100000D03*
%TO.P,U2,11,O6*%
%TO.N,/nUP1*%
X135200000Y-91100000D03*
%TO.P,U2,12,O5*%
%TO.N,/nDOWN2*%
X136470000Y-91100000D03*
%TO.P,U2,13,O4*%
%TO.N,/nUP2*%
X137740000Y-91100000D03*
%TO.P,U2,14,O3*%
%TO.N,unconnected-(U2-O3-Pad14)*%
X139010000Y-91100000D03*
%TO.P,U2,15,O2*%
%TO.N,unconnected-(U2-O2-Pad15)*%
X140280000Y-91100000D03*
%TO.P,U2,16,O1*%
%TO.N,unconnected-(U2-O1-Pad16)*%
X141550000Y-91100000D03*
%TD*%
D14*
%TO.P,U7,1*%
%TO.N,Net-(R11-Pad1)*%
X196370000Y-82835000D03*
%TO.P,U7,2*%
%TO.N,Net-(R15-Pad1)*%
X193830000Y-82835000D03*
%TO.P,U7,3*%
%TO.N,GND*%
X193830000Y-92365000D03*
%TO.P,U7,4*%
%TO.N,/IN4_L*%
X196370000Y-92365000D03*
%TD*%
D15*
%TO.P,K4,1*%
%TO.N,Net-(K3-Pad4)*%
X183800000Y-100400000D03*
D16*
%TO.P,K4,2*%
%TO.N,VBUS*%
X177800000Y-102400000D03*
%TO.P,K4,3*%
%TO.N,/L2-UP*%
X177800000Y-114600000D03*
%TO.P,K4,4*%
%TO.N,/L2-SW*%
X189800000Y-114600000D03*
%TO.P,K4,5*%
%TO.N,/nUP2*%
X189800000Y-102400000D03*
%TD*%
D12*
%TO.P,R13,1*%
%TO.N,Net-(R13-Pad1)*%
X176500000Y-76812500D03*
%TO.P,R13,2*%
%TO.N,GND*%
X176500000Y-74987500D03*
%TD*%
D13*
%TO.P,R1,1*%
%TO.N,+3V3*%
X162800000Y-74987500D03*
%TO.P,R1,2*%
%TO.N,/SCL*%
X162800000Y-76812500D03*
%TD*%
D12*
%TO.P,R10,1*%
%TO.N,Net-(R10-Pad1)*%
X178600000Y-76812500D03*
%TO.P,R10,2*%
%TO.N,/IN1_H*%
X178600000Y-74987500D03*
%TD*%
D14*
%TO.P,U6,1*%
%TO.N,Net-(R8-Pad1)*%
X190570000Y-82835000D03*
%TO.P,U6,2*%
%TO.N,Net-(R12-Pad1)*%
X188030000Y-82835000D03*
%TO.P,U6,3*%
%TO.N,GND*%
X188030000Y-92365000D03*
%TO.P,U6,4*%
%TO.N,/IN3_L*%
X190570000Y-92365000D03*
%TD*%
D12*
%TO.P,R12,1*%
%TO.N,Net-(R12-Pad1)*%
X186200000Y-76800000D03*
%TO.P,R12,2*%
%TO.N,GND*%
X186200000Y-74975000D03*
%TD*%
D18*
%TO.P,C1,1*%
%TO.N,+3V3*%
X154400000Y-75050000D03*
%TO.P,C1,2*%
%TO.N,GND*%
X154400000Y-73150000D03*
%TD*%
D15*
%TO.P,K1,1*%
%TO.N,/L1*%
X118350000Y-100400000D03*
D16*
%TO.P,K1,2*%
%TO.N,VBUS*%
X112350000Y-102400000D03*
%TO.P,K1,3*%
%TO.N,/L1-DOWN*%
X112350000Y-114600000D03*
%TO.P,K1,4*%
%TO.N,Net-(K1-Pad4)*%
X124350000Y-114600000D03*
%TO.P,K1,5*%
%TO.N,/nDOWN1*%
X124350000Y-102400000D03*
%TD*%
D19*
%TO.P,C4,1*%
%TO.N,+3V3*%
X127700000Y-87000000D03*
%TO.P,C4,2*%
%TO.N,GND*%
X122300000Y-87000000D03*
%TD*%
D12*
%TO.P,R11,1*%
%TO.N,Net-(R11-Pad1)*%
X192500000Y-76812500D03*
%TO.P,R11,2*%
%TO.N,/IN4_H*%
X192500000Y-74987500D03*
%TD*%
D20*
%TO.P,MOD1,A1,A1*%
%TO.N,/L1-DOWN*%
X108675000Y-126270000D03*
D21*
%TO.P,MOD1,A2,A2*%
X113675000Y-126270000D03*
%TO.P,MOD1,A3,A3*%
%TO.N,/L1*%
X118675000Y-126270000D03*
%TO.P,MOD1,A4,A4*%
X123675000Y-126270000D03*
%TO.P,MOD1,A5,A5*%
%TO.N,/L1-UP*%
X128675000Y-126270000D03*
%TO.P,MOD1,A6,A6*%
X133675000Y-126270000D03*
%TO.P,MOD1,A7,A7*%
%TO.N,/L1-SW*%
X138675000Y-126270000D03*
%TO.P,MOD1,A8,A8*%
X143675000Y-126270000D03*
D20*
%TO.P,MOD1,B1,B1*%
%TO.N,/L2-DOWN*%
X158675000Y-126270000D03*
D21*
%TO.P,MOD1,B2,B2*%
X163675000Y-126270000D03*
%TO.P,MOD1,B3,B3*%
%TO.N,/L2*%
X168675000Y-126270000D03*
%TO.P,MOD1,B4,B4*%
X173675000Y-126270000D03*
%TO.P,MOD1,B5,B5*%
%TO.N,/L2-UP*%
X178675000Y-126270000D03*
%TO.P,MOD1,B6,B6*%
X183675000Y-126270000D03*
%TO.P,MOD1,B7,B7*%
%TO.N,/L2-SW*%
X188675000Y-126270000D03*
%TO.P,MOD1,B8,B8*%
X193675000Y-126270000D03*
D20*
%TO.P,MOD1,C1,C1*%
%TO.N,/IN4_H*%
X193606000Y-68325000D03*
D21*
%TO.P,MOD1,C2,C2*%
%TO.N,/IN3_H*%
X188606000Y-68325000D03*
%TO.P,MOD1,C3,C3*%
%TO.N,/IN2_H*%
X183606000Y-68325000D03*
%TO.P,MOD1,C4,C4*%
%TO.N,/IN1_H*%
X178606000Y-68325000D03*
%TO.P,MOD1,C5,C5*%
%TO.N,VBUS*%
X173606000Y-68325000D03*
%TO.P,MOD1,C6,C6*%
X168606000Y-68325000D03*
%TO.P,MOD1,C7,C7*%
X163606000Y-68325000D03*
%TO.P,MOD1,C8,C8*%
X158606000Y-68325000D03*
D20*
%TO.P,MOD1,D1,D1*%
%TO.N,/SCL*%
X143606000Y-68325000D03*
D21*
%TO.P,MOD1,D2,D2*%
%TO.N,/SDA*%
X138606000Y-68325000D03*
%TO.P,MOD1,D3,D3*%
%TO.N,/INT*%
X133606000Y-68325000D03*
%TO.P,MOD1,D4,D4*%
%TO.N,+3V3*%
X128606000Y-68325000D03*
%TO.P,MOD1,D5,D5*%
%TO.N,GND*%
X123606000Y-68325000D03*
%TO.P,MOD1,D6,D6*%
X118606000Y-68325000D03*
%TO.P,MOD1,D7,D7*%
%TO.N,VBUS*%
X113606000Y-68325000D03*
%TO.P,MOD1,D8,D8*%
X108606000Y-68325000D03*
D22*
%TO.P,MOD1,MH1*%
%TO.N,N/C*%
X105175000Y-77370000D03*
%TO.P,MOD1,MH2*%
X197175000Y-77370000D03*
%TO.P,MOD1,MH3*%
X105175000Y-117370000D03*
%TO.P,MOD1,MH4*%
X197175000Y-117370000D03*
%TD*%
D12*
%TO.P,R8,1*%
%TO.N,Net-(R8-Pad1)*%
X188500000Y-76825000D03*
%TO.P,R8,2*%
%TO.N,/IN3_H*%
X188500000Y-75000000D03*
%TD*%
%TO.P,R7,1*%
%TO.N,+3V3*%
X167400000Y-92112500D03*
%TO.P,R7,2*%
%TO.N,/IN4_L*%
X167400000Y-90287500D03*
%TD*%
D23*
%TO.P,C2,1*%
%TO.N,VBUS*%
X108750000Y-87000000D03*
%TO.P,C2,2*%
%TO.N,GND*%
X106850000Y-87000000D03*
%TD*%
D24*
%TO.P,C5,1*%
%TO.N,VBUS*%
X112600000Y-87000000D03*
%TO.P,C5,2*%
%TO.N,GND*%
X118000000Y-87000000D03*
%TD*%
D12*
%TO.P,R15,1*%
%TO.N,Net-(R15-Pad1)*%
X190500000Y-76812500D03*
%TO.P,R15,2*%
%TO.N,GND*%
X190500000Y-74987500D03*
%TD*%
D18*
%TO.P,C3,1*%
%TO.N,+3V3*%
X165200000Y-92150000D03*
%TO.P,C3,2*%
%TO.N,GND*%
X165200000Y-90250000D03*
%TD*%
D25*
%TO.P,U1,1,SCL*%
%TO.N,/SCL*%
X163180000Y-82450000D03*
%TO.P,U1,2,SDA*%
%TO.N,/SDA*%
X161910000Y-82450000D03*
%TO.P,U1,3,A2*%
%TO.N,/A2*%
X160640000Y-82450000D03*
%TO.P,U1,4,A1*%
%TO.N,/A1*%
X159370000Y-82450000D03*
%TO.P,U1,5,A0*%
%TO.N,/A0*%
X158100000Y-82450000D03*
%TO.P,U1,6,~{RESET}*%
%TO.N,+3V3*%
X156830000Y-82450000D03*
%TO.P,U1,7,NC*%
%TO.N,unconnected-(U1-NC-Pad7)*%
X155560000Y-82450000D03*
%TO.P,U1,8,INT*%
%TO.N,/INT*%
X154290000Y-82450000D03*
%TO.P,U1,9,VSS*%
%TO.N,GND*%
X153020000Y-82450000D03*
%TO.P,U1,10,GP0*%
%TO.N,/IN4_L*%
X153020000Y-91750000D03*
%TO.P,U1,11,GP1*%
%TO.N,/DN2*%
X154290000Y-91750000D03*
%TO.P,U1,12,GP2*%
%TO.N,/UP1*%
X155560000Y-91750000D03*
%TO.P,U1,13,GP3*%
%TO.N,/DN1*%
X156830000Y-91750000D03*
%TO.P,U1,14,GP4*%
%TO.N,/IN1_L*%
X158100000Y-91750000D03*
%TO.P,U1,15,GP5*%
%TO.N,/IN2_L*%
X159370000Y-91750000D03*
%TO.P,U1,16,GP6*%
%TO.N,/IN3_L*%
X160640000Y-91750000D03*
%TO.P,U1,17,GP7*%
%TO.N,/UP2*%
X161910000Y-91750000D03*
%TO.P,U1,18,VDD*%
%TO.N,+3V3*%
X163180000Y-91750000D03*
%TD*%
D15*
%TO.P,K3,1*%
%TO.N,/L2*%
X164750000Y-100400000D03*
D16*
%TO.P,K3,2*%
%TO.N,VBUS*%
X158750000Y-102400000D03*
%TO.P,K3,3*%
%TO.N,/L2-DOWN*%
X158750000Y-114600000D03*
%TO.P,K3,4*%
%TO.N,Net-(K3-Pad4)*%
X170750000Y-114600000D03*
%TO.P,K3,5*%
%TO.N,/nDOWN2*%
X170750000Y-102400000D03*
%TD*%
D12*
%TO.P,R6,1*%
%TO.N,+3V3*%
X171600000Y-92112500D03*
%TO.P,R6,2*%
%TO.N,/IN2_L*%
X171600000Y-90287500D03*
%TD*%
D26*
%TO.P,J2,1,Pin_1*%
%TO.N,+3V3*%
X127200000Y-76800000D03*
D27*
%TO.P,J2,2,Pin_2*%
%TO.N,/INT*%
X124700000Y-76800000D03*
%TO.P,J2,3,Pin_3*%
%TO.N,/SDA*%
X122200000Y-76800000D03*
%TO.P,J2,4,Pin_4*%
%TO.N,/SCL*%
X119700000Y-76800000D03*
%TO.P,J2,5,Pin_5*%
%TO.N,GND*%
X117200000Y-76800000D03*
%TO.P,J2,6,Pin_6*%
%TO.N,VBUS*%
X114700000Y-76800000D03*
%TD*%
D26*
%TO.P,J1,1,Pin_1*%
%TO.N,+3V3*%
X127200000Y-80000000D03*
D27*
%TO.P,J1,2,Pin_2*%
%TO.N,/INT*%
X124700000Y-80000000D03*
%TO.P,J1,3,Pin_3*%
%TO.N,/SDA*%
X122200000Y-80000000D03*
%TO.P,J1,4,Pin_4*%
%TO.N,/SCL*%
X119700000Y-80000000D03*
%TO.P,J1,5,Pin_5*%
%TO.N,GND*%
X117200000Y-80000000D03*
%TO.P,J1,6,Pin_6*%
%TO.N,VBUS*%
X114700000Y-80000000D03*
%TD*%
D28*
%TO.N,GND*%
X200200000Y-64000000D03*
X112800000Y-94100000D03*
X134500000Y-78200000D03*
X170200000Y-76200000D03*
X137800000Y-78400000D03*
X120300000Y-87000000D03*
X188100000Y-90900000D03*
X164200000Y-90200000D03*
X193900000Y-91000000D03*
X109700000Y-94900000D03*
X117200000Y-78400000D03*
X187200000Y-75000000D03*
X117300000Y-81700000D03*
X176400000Y-91000000D03*
X166200000Y-90200000D03*
X185200000Y-75000000D03*
X117200000Y-75100000D03*
X182200000Y-91000000D03*
X188000000Y-94200000D03*
X200200000Y-95500000D03*
X165200000Y-89500000D03*
X132800000Y-78400000D03*
X190500000Y-74200000D03*
X186200000Y-74200000D03*
%TO.N,/nDOWN2*%
X136500000Y-92500000D03*
%TO.N,/nDOWN1*%
X133900000Y-92500000D03*
%TO.N,/nUP1*%
X135200000Y-92500000D03*
%TO.N,VBUS*%
X175500000Y-95400000D03*
%TO.N,/DN1*%
X150200000Y-89000000D03*
X156900000Y-89000000D03*
%TO.N,/UP1*%
X148700000Y-89600000D03*
X155500000Y-89600000D03*
%TO.N,/DN2*%
X147800000Y-88400000D03*
X154300000Y-88400000D03*
%TO.N,/UP2*%
X147100000Y-87700000D03*
X161900000Y-85600000D03*
%TO.N,/SCL*%
X143606000Y-71200000D03*
X163180000Y-79500000D03*
X131300000Y-71200000D03*
%TO.N,/SDA*%
X132300000Y-72000000D03*
X138606000Y-72000000D03*
X161910000Y-80400000D03*
%TO.N,+3V3*%
X156900000Y-81200000D03*
X140500000Y-75100000D03*
X165400000Y-82100000D03*
%TO.N,/INT*%
X154290000Y-80400000D03*
X133606000Y-72900000D03*
%TO.N,/A0*%
X142100000Y-79900000D03*
%TO.N,/A1*%
X141100000Y-79200000D03*
%TO.N,/A2*%
X140300000Y-78600000D03*
%TO.N,/IN1_L*%
X179000000Y-88300000D03*
X158100000Y-88300000D03*
X173600000Y-88300000D03*
%TO.N,/IN2_L*%
X159400000Y-87600000D03*
X171600000Y-87600000D03*
X184800000Y-87600000D03*
%TO.N,/IN3_L*%
X160640000Y-86900000D03*
X169500000Y-86900000D03*
X190600000Y-86900000D03*
%TO.N,/IN4_L*%
X153000000Y-86300000D03*
X196400000Y-86300000D03*
X167400000Y-86300000D03*
%TD*%
D29*
%TO.N,GND*%
X117200000Y-75100000D02*
X117200000Y-81600000D01*
X117200000Y-81600000D02*
X117300000Y-81700000D01*
X186200000Y-74200000D02*
X186200000Y-74975000D01*
X185200000Y-75000000D02*
X187200000Y-75000000D01*
D30*
X118606000Y-68325000D02*
X123606000Y-68325000D01*
D29*
X182230000Y-92365000D02*
X182230000Y-91030000D01*
X176430000Y-92365000D02*
X176430000Y-91030000D01*
X193830000Y-91070000D02*
X193900000Y-91000000D01*
X165200000Y-90250000D02*
X165200000Y-89500000D01*
X182230000Y-91030000D02*
X182200000Y-91000000D01*
X188030000Y-90970000D02*
X188100000Y-90900000D01*
X190500000Y-74987500D02*
X190500000Y-74200000D01*
X193830000Y-92365000D02*
X193830000Y-91070000D01*
X164200000Y-90200000D02*
X166200000Y-90200000D01*
D31*
X118000000Y-87000000D02*
X120300000Y-87000000D01*
D29*
X176430000Y-91030000D02*
X176400000Y-91000000D01*
X188030000Y-92365000D02*
X188030000Y-90970000D01*
D31*
X120300000Y-87000000D02*
X122300000Y-87000000D01*
D29*
%TO.N,/nDOWN2*%
X136500000Y-92500000D02*
X136470000Y-92470000D01*
X136470000Y-92470000D02*
X136470000Y-91100000D01*
%TO.N,/nDOWN1*%
X133930000Y-92470000D02*
X133930000Y-91100000D01*
X133900000Y-92500000D02*
X133930000Y-92470000D01*
%TO.N,/nUP2*%
X139200000Y-94300000D02*
X186500000Y-94300000D01*
X137740000Y-91100000D02*
X137740000Y-92840000D01*
X137740000Y-92840000D02*
X139200000Y-94300000D01*
X189750000Y-97550000D02*
X189750000Y-102295000D01*
X186500000Y-94300000D02*
X189750000Y-97550000D01*
%TO.N,/nUP1*%
X135200000Y-92500000D02*
X135200000Y-91100000D01*
D31*
%TO.N,VBUS*%
X175500000Y-95400000D02*
X175645000Y-95400000D01*
X112300000Y-95544196D02*
X112445000Y-95399196D01*
X177800000Y-97610000D02*
X177800000Y-102400000D01*
X110400000Y-76000000D02*
X114700000Y-76000000D01*
X112300000Y-95544196D02*
X110400000Y-93644196D01*
X132600000Y-95400000D02*
X131055804Y-95400000D01*
X131055804Y-95400000D02*
X131200000Y-95544196D01*
D30*
X155281000Y-65000000D02*
X116931000Y-65000000D01*
D31*
X112445000Y-95399196D02*
X118900000Y-95399196D01*
D30*
X113606000Y-68325000D02*
X108606000Y-68325000D01*
D31*
X108606000Y-71906000D02*
X108606000Y-68325000D01*
D30*
X116931000Y-65000000D02*
X113606000Y-68325000D01*
X173606000Y-68325000D02*
X158606000Y-68325000D01*
D31*
X110400000Y-76000000D02*
X110400000Y-73700000D01*
D29*
X132660000Y-91100000D02*
X132660000Y-95340000D01*
D31*
X158750000Y-102400000D02*
X158800000Y-102350000D01*
X175645000Y-95400000D02*
X177750000Y-97505000D01*
X110400000Y-73700000D02*
X108606000Y-71906000D01*
X158700000Y-95650000D02*
X158700000Y-102345000D01*
D29*
X132660000Y-95340000D02*
X132600000Y-95400000D01*
D31*
X112600000Y-87000000D02*
X108750000Y-87000000D01*
X131055000Y-95399196D02*
X131200000Y-95544196D01*
X118900000Y-95399196D02*
X131055000Y-95399196D01*
D30*
X158606000Y-68325000D02*
X155281000Y-65000000D01*
D31*
X131200000Y-95544196D02*
X131200000Y-102345000D01*
X114700000Y-76000000D02*
X114700000Y-79000000D01*
X112350000Y-102400000D02*
X112350000Y-97655000D01*
X110400000Y-93644196D02*
X110400000Y-76000000D01*
X175500000Y-95400000D02*
X132600000Y-95400000D01*
X112300000Y-97600000D02*
X112300000Y-95544196D01*
D32*
%TO.N,/DN1*%
X135700000Y-89500000D02*
X133930000Y-87730000D01*
X156830000Y-91750000D02*
X156830000Y-89070000D01*
X150200000Y-89000000D02*
X148900000Y-90300000D01*
X133930000Y-87730000D02*
X133930000Y-86150000D01*
X156830000Y-89070000D02*
X156900000Y-89000000D01*
X145900000Y-89500000D02*
X135700000Y-89500000D01*
X148900000Y-90300000D02*
X146700000Y-90300000D01*
X146700000Y-90300000D02*
X145900000Y-89500000D01*
%TO.N,/UP1*%
X148700000Y-89600000D02*
X146900000Y-89600000D01*
X135200000Y-87600000D02*
X135200000Y-86150000D01*
X146300000Y-89000000D02*
X136600000Y-89000000D01*
X146900000Y-89600000D02*
X146300000Y-89000000D01*
X155560000Y-89660000D02*
X155500000Y-89600000D01*
X136600000Y-89000000D02*
X135200000Y-87600000D01*
X155560000Y-91750000D02*
X155560000Y-89660000D01*
%TO.N,/DN2*%
X136470000Y-87470000D02*
X136470000Y-86150000D01*
X137400000Y-88400000D02*
X136470000Y-87470000D01*
X154290000Y-91750000D02*
X154290000Y-88410000D01*
X154290000Y-88410000D02*
X154300000Y-88400000D01*
X147800000Y-88400000D02*
X137400000Y-88400000D01*
%TO.N,/UP2*%
X137740000Y-86940000D02*
X138500000Y-87700000D01*
X137740000Y-86150000D02*
X137740000Y-86940000D01*
X161900000Y-85600000D02*
X161910000Y-85610000D01*
X161910000Y-85610000D02*
X161910000Y-91750000D01*
X138500000Y-87700000D02*
X147100000Y-87700000D01*
%TO.N,/SCL*%
X119700000Y-76000000D02*
X119700000Y-79000000D01*
X119700000Y-76000000D02*
X119700000Y-75000000D01*
X163180000Y-82450000D02*
X163180000Y-79500000D01*
X119700000Y-75000000D02*
X123500000Y-71200000D01*
X163180000Y-79500000D02*
X163180000Y-78380000D01*
X163180000Y-78380000D02*
X162800000Y-78000000D01*
X123500000Y-71200000D02*
X131300000Y-71200000D01*
X143606000Y-68325000D02*
X143606000Y-71200000D01*
X162800000Y-78000000D02*
X162800000Y-76812500D01*
%TO.N,/SDA*%
X138606000Y-68325000D02*
X138606000Y-72000000D01*
X122200000Y-76000000D02*
X122200000Y-74500000D01*
X122200000Y-76000000D02*
X122200000Y-79000000D01*
X161910000Y-80400000D02*
X161910000Y-78810000D01*
X161910000Y-80400000D02*
X161910000Y-82450000D01*
X160700000Y-77600000D02*
X160700000Y-76812500D01*
X124700000Y-72000000D02*
X132300000Y-72000000D01*
X161910000Y-78810000D02*
X160700000Y-77600000D01*
X122200000Y-74500000D02*
X124700000Y-72000000D01*
D29*
%TO.N,+3V3*%
X163180000Y-89020000D02*
X163180000Y-91750000D01*
D31*
X127200000Y-80000000D02*
X127200000Y-86500000D01*
D29*
X154400000Y-75050000D02*
X154350000Y-75100000D01*
X165237500Y-92112500D02*
X165200000Y-92150000D01*
X163580000Y-92150000D02*
X163180000Y-91750000D01*
X156830000Y-82450000D02*
X156830000Y-81270000D01*
X173600000Y-92112500D02*
X165237500Y-92112500D01*
X165200000Y-92150000D02*
X163580000Y-92150000D01*
X164650000Y-75050000D02*
X165400000Y-75800000D01*
X165400000Y-82100000D02*
X165400000Y-86800000D01*
X154350000Y-75100000D02*
X140500000Y-75100000D01*
X154400000Y-75050000D02*
X164650000Y-75050000D01*
X165400000Y-86800000D02*
X163180000Y-89020000D01*
X156830000Y-81270000D02*
X156900000Y-81200000D01*
D31*
X127200000Y-86500000D02*
X127700000Y-87000000D01*
D29*
X165400000Y-75800000D02*
X165400000Y-82100000D01*
D32*
%TO.N,/INT*%
X158700000Y-76812500D02*
X158700000Y-79700000D01*
X133606000Y-72900000D02*
X133606000Y-68325000D01*
X124700000Y-79000000D02*
X124700000Y-76000000D01*
X158000000Y-80400000D02*
X154290000Y-80400000D01*
X154290000Y-80400000D02*
X154290000Y-82450000D01*
X158700000Y-79700000D02*
X158000000Y-80400000D01*
X126500000Y-72900000D02*
X124700000Y-74700000D01*
X133606000Y-72900000D02*
X126500000Y-72900000D01*
X124700000Y-74700000D02*
X124700000Y-76000000D01*
%TO.N,/A0*%
X157600000Y-84200000D02*
X146400000Y-84200000D01*
X158100000Y-82450000D02*
X158100000Y-83700000D01*
X158100000Y-83700000D02*
X157600000Y-84200000D01*
X146400000Y-84200000D02*
X142100000Y-79900000D01*
%TO.N,/A1*%
X141100000Y-79800000D02*
X141100000Y-79200000D01*
X146100000Y-84800000D02*
X141100000Y-79800000D01*
X159370000Y-82450000D02*
X159370000Y-83730000D01*
X158300000Y-84800000D02*
X146100000Y-84800000D01*
X159370000Y-83730000D02*
X158300000Y-84800000D01*
%TO.N,/A2*%
X145800000Y-85400000D02*
X140300000Y-79900000D01*
X159100000Y-85400000D02*
X145800000Y-85400000D01*
X140300000Y-79900000D02*
X140300000Y-78700000D01*
X160640000Y-83860000D02*
X159100000Y-85400000D01*
X160640000Y-82450000D02*
X160640000Y-83860000D01*
%TO.N,/IN1_L*%
X158100000Y-88300000D02*
X158100000Y-91750000D01*
X173600000Y-90287500D02*
X173600000Y-88300000D01*
X178970000Y-92365000D02*
X178970000Y-88330000D01*
X178970000Y-88330000D02*
X179000000Y-88300000D01*
%TO.N,/IN2_L*%
X159370000Y-87630000D02*
X159400000Y-87600000D01*
X184800000Y-92335000D02*
X184770000Y-92365000D01*
X159370000Y-91750000D02*
X159370000Y-87630000D01*
X171600000Y-90287500D02*
X171600000Y-87600000D01*
X184800000Y-87600000D02*
X184800000Y-92335000D01*
%TO.N,/IN3_L*%
X160640000Y-86900000D02*
X160640000Y-91750000D01*
X169500000Y-90287500D02*
X169500000Y-86900000D01*
X190600000Y-86900000D02*
X190570000Y-86930000D01*
X190570000Y-86930000D02*
X190570000Y-92365000D01*
%TO.N,/IN4_L*%
X196400000Y-86300000D02*
X196400000Y-92335000D01*
X167400000Y-86300000D02*
X167400000Y-90287500D01*
X153000000Y-86300000D02*
X153020000Y-86320000D01*
X196400000Y-92335000D02*
X196370000Y-92365000D01*
X153020000Y-86320000D02*
X153020000Y-91750000D01*
D29*
%TO.N,/IN1_H*%
X178600000Y-68331000D02*
X178606000Y-68325000D01*
X178600000Y-74987500D02*
X178600000Y-68331000D01*
%TO.N,Net-(R8-Pad1)*%
X188500000Y-77300000D02*
X190600000Y-79400000D01*
X190570000Y-79430000D02*
X190570000Y-82835000D01*
X190600000Y-79400000D02*
X190570000Y-79430000D01*
X188500000Y-76712500D02*
X188500000Y-77300000D01*
%TO.N,Net-(R9-Pad1)*%
X183600000Y-76812500D02*
X183600000Y-78700000D01*
X184770000Y-79870000D02*
X184770000Y-82835000D01*
X183600000Y-78700000D02*
X184770000Y-79870000D01*
%TO.N,/IN2_H*%
X183600000Y-68331000D02*
X183606000Y-68325000D01*
X183600000Y-74987500D02*
X183600000Y-68331000D01*
%TO.N,Net-(R10-Pad1)*%
X178600000Y-82465000D02*
X178970000Y-82835000D01*
X178600000Y-76812500D02*
X178600000Y-82465000D01*
%TO.N,/IN4_H*%
X192500000Y-73400000D02*
X192500000Y-74900000D01*
X193606000Y-72294000D02*
X192500000Y-73400000D01*
X193606000Y-68325000D02*
X193606000Y-72294000D01*
%TO.N,Net-(R11-Pad1)*%
X195600000Y-81400000D02*
X195600000Y-82065000D01*
X192500000Y-78300000D02*
X195600000Y-81400000D01*
X195600000Y-82065000D02*
X196370000Y-82835000D01*
X192500000Y-76725000D02*
X192500000Y-78300000D01*
%TO.N,/IN3_H*%
X188600000Y-71200000D02*
X188606000Y-71194000D01*
X188900000Y-71500000D02*
X188600000Y-71200000D01*
X188900000Y-74987500D02*
X188900000Y-71500000D01*
X188606000Y-68325000D02*
X188700000Y-68419000D01*
X188606000Y-71194000D02*
X188606000Y-68325000D01*
%TO.N,Net-(R12-Pad1)*%
X186200000Y-78100000D02*
X188030000Y-79930000D01*
X186200000Y-76800000D02*
X186200000Y-78100000D01*
X188030000Y-79930000D02*
X188030000Y-82835000D01*
%TO.N,Net-(R13-Pad1)*%
X176500000Y-76812500D02*
X176500000Y-82765000D01*
X176500000Y-82765000D02*
X176430000Y-82835000D01*
%TO.N,Net-(R14-Pad1)*%
X181600000Y-76812500D02*
X181600000Y-79350000D01*
X182230000Y-79980000D02*
X182230000Y-82835000D01*
X181600000Y-79350000D02*
X182230000Y-79980000D01*
%TO.N,Net-(R15-Pad1)*%
X190500000Y-76712500D02*
X190500000Y-77700000D01*
X190500000Y-77700000D02*
X193830000Y-81030000D01*
X193830000Y-81030000D02*
X193830000Y-82835000D01*
%TD*%
%TA.AperFunction,Conductor*%
%TO.N,GND*%
G36*
X115962323Y-63640185D02*
G01*
X116008078Y-63692989D01*
X116018022Y-63762147D01*
X115988997Y-63825703D01*
X115968173Y-63844814D01*
X115956375Y-63853386D01*
X115953487Y-63855485D01*
X113277042Y-66531929D01*
X113221455Y-66564023D01*
X113026006Y-66616394D01*
X112807954Y-66706714D01*
X112807943Y-66706719D01*
X112632717Y-66807887D01*
X112570717Y-66824500D01*
X109641283Y-66824500D01*
X109579283Y-66807887D01*
X109404056Y-66706719D01*
X109404045Y-66706714D01*
X109185993Y-66616394D01*
X109054670Y-66581206D01*
X108958014Y-66555307D01*
X108958013Y-66555306D01*
X108958010Y-66555306D01*
X108724020Y-66524501D01*
X108724017Y-66524500D01*
X108724011Y-66524500D01*
X108487989Y-66524500D01*
X108487983Y-66524500D01*
X108487979Y-66524501D01*
X108253989Y-66555306D01*
X108026006Y-66616394D01*
X107807954Y-66706714D01*
X107807943Y-66706719D01*
X107603545Y-66824730D01*
X107416302Y-66968406D01*
X107416295Y-66968412D01*
X107249412Y-67135295D01*
X107249406Y-67135302D01*
X107105730Y-67322545D01*
X107105727Y-67322549D01*
X107105727Y-67322550D01*
X107098014Y-67335909D01*
X106987719Y-67526943D01*
X106987714Y-67526954D01*
X106897394Y-67745006D01*
X106836306Y-67972989D01*
X106805501Y-68206979D01*
X106805500Y-68206995D01*
X106805500Y-68443004D01*
X106805501Y-68443020D01*
X106836306Y-68677010D01*
X106897394Y-68904993D01*
X106987714Y-69123045D01*
X106987719Y-69123056D01*
X107058677Y-69245957D01*
X107105727Y-69327450D01*
X107105729Y-69327453D01*
X107105730Y-69327454D01*
X107249406Y-69514697D01*
X107249412Y-69514704D01*
X107416295Y-69681587D01*
X107416302Y-69681593D01*
X107556986Y-69789543D01*
X107598189Y-69845971D01*
X107605500Y-69887919D01*
X107605500Y-72004544D01*
X107643947Y-72197828D01*
X107643949Y-72197836D01*
X107665349Y-72249500D01*
X107665349Y-72249501D01*
X107719364Y-72379907D01*
X107719371Y-72379920D01*
X107828860Y-72543781D01*
X107828863Y-72543785D01*
X107972537Y-72687459D01*
X107972559Y-72687479D01*
X109363181Y-74078101D01*
X109396666Y-74139424D01*
X109399500Y-74165782D01*
X109399500Y-85695030D01*
X109379815Y-85762069D01*
X109327011Y-85807824D01*
X109257853Y-85817768D01*
X109236497Y-85812736D01*
X109152799Y-85785001D01*
X109152795Y-85785000D01*
X109050010Y-85774500D01*
X108449998Y-85774500D01*
X108449980Y-85774501D01*
X108347203Y-85785000D01*
X108347200Y-85785001D01*
X108180668Y-85840185D01*
X108180663Y-85840187D01*
X108031342Y-85932289D01*
X107907288Y-86056343D01*
X107907283Y-86056349D01*
X107905241Y-86059661D01*
X107903247Y-86061453D01*
X107902807Y-86062011D01*
X107902711Y-86061935D01*
X107853291Y-86106383D01*
X107784328Y-86117602D01*
X107720247Y-86089755D01*
X107694168Y-86059656D01*
X107692319Y-86056659D01*
X107692316Y-86056655D01*
X107568345Y-85932684D01*
X107419124Y-85840643D01*
X107419119Y-85840641D01*
X107252697Y-85785494D01*
X107252690Y-85785493D01*
X107149986Y-85775000D01*
X107100000Y-85775000D01*
X107100000Y-88224999D01*
X107149972Y-88224999D01*
X107149986Y-88224998D01*
X107252697Y-88214505D01*
X107419119Y-88159358D01*
X107419124Y-88159356D01*
X107568345Y-88067315D01*
X107692318Y-87943342D01*
X107694165Y-87940348D01*
X107695969Y-87938724D01*
X107696798Y-87937677D01*
X107696976Y-87937818D01*
X107746110Y-87893621D01*
X107815073Y-87882396D01*
X107879156Y-87910236D01*
X107905243Y-87940341D01*
X107907288Y-87943656D01*
X108031344Y-88067712D01*
X108180666Y-88159814D01*
X108347203Y-88214999D01*
X108449991Y-88225500D01*
X109050008Y-88225499D01*
X109050016Y-88225498D01*
X109050019Y-88225498D01*
X109106302Y-88219748D01*
X109152797Y-88214999D01*
X109236498Y-88187262D01*
X109306323Y-88184861D01*
X109366365Y-88220592D01*
X109397558Y-88283112D01*
X109399500Y-88304969D01*
X109399500Y-93742737D01*
X109399500Y-93742739D01*
X109399499Y-93742739D01*
X109437947Y-93936025D01*
X109437950Y-93936035D01*
X109513364Y-94118103D01*
X109513371Y-94118116D01*
X109622859Y-94281976D01*
X109622860Y-94281977D01*
X109622861Y-94281978D01*
X109762218Y-94421335D01*
X109762219Y-94421335D01*
X109769286Y-94428402D01*
X109769285Y-94428402D01*
X109769289Y-94428405D01*
X110420069Y-95079185D01*
X110453554Y-95140508D01*
X110448570Y-95210200D01*
X110406698Y-95266133D01*
X110341234Y-95290550D01*
X110332512Y-95290866D01*
X101799624Y-95299399D01*
X101732565Y-95279781D01*
X101686757Y-95227023D01*
X101675500Y-95175399D01*
X101675500Y-87524986D01*
X105850001Y-87524986D01*
X105860494Y-87627697D01*
X105915641Y-87794119D01*
X105915643Y-87794124D01*
X106007684Y-87943345D01*
X106131654Y-88067315D01*
X106280875Y-88159356D01*
X106280880Y-88159358D01*
X106447302Y-88214505D01*
X106447309Y-88214506D01*
X106550019Y-88224999D01*
X106599999Y-88224998D01*
X106600000Y-88224998D01*
X106600000Y-87250000D01*
X105850001Y-87250000D01*
X105850001Y-87524986D01*
X101675500Y-87524986D01*
X101675500Y-86475013D01*
X105850000Y-86475013D01*
X105850000Y-86750000D01*
X106600000Y-86750000D01*
X106600000Y-85775000D01*
X106599999Y-85774999D01*
X106550029Y-85775000D01*
X106550011Y-85775001D01*
X106447302Y-85785494D01*
X106280880Y-85840641D01*
X106280875Y-85840643D01*
X106131654Y-85932684D01*
X106007684Y-86056654D01*
X105915643Y-86205875D01*
X105915641Y-86205880D01*
X105860494Y-86372302D01*
X105860493Y-86372309D01*
X105850000Y-86475013D01*
X101675500Y-86475013D01*
X101675500Y-78692097D01*
X101695185Y-78625058D01*
X101747989Y-78579303D01*
X101817147Y-78569359D01*
X101880703Y-78598384D01*
X101914060Y-78644643D01*
X101997165Y-78845276D01*
X102006770Y-78868464D01*
X102006772Y-78868469D01*
X102168893Y-79171775D01*
X102168904Y-79171793D01*
X102359975Y-79457751D01*
X102359985Y-79457765D01*
X102578176Y-79723632D01*
X102821367Y-79966823D01*
X102821372Y-79966827D01*
X102821373Y-79966828D01*
X103087240Y-80185019D01*
X103373213Y-80376100D01*
X103373222Y-80376105D01*
X103373224Y-80376106D01*
X103676530Y-80538227D01*
X103676532Y-80538227D01*
X103676538Y-80538231D01*
X103994295Y-80669850D01*
X104323422Y-80769690D01*
X104660750Y-80836789D01*
X105003031Y-80870500D01*
X105003034Y-80870500D01*
X105346966Y-80870500D01*
X105346969Y-80870500D01*
X105689250Y-80836789D01*
X106026578Y-80769690D01*
X106355705Y-80669850D01*
X106673462Y-80538231D01*
X106976787Y-80376100D01*
X107262760Y-80185019D01*
X107528627Y-79966828D01*
X107771828Y-79723627D01*
X107990019Y-79457760D01*
X108181100Y-79171787D01*
X108343231Y-78868462D01*
X108474850Y-78550705D01*
X108574690Y-78221578D01*
X108641789Y-77884250D01*
X108675500Y-77541969D01*
X108675500Y-77198031D01*
X108641789Y-76855750D01*
X108574690Y-76518422D01*
X108474850Y-76189295D01*
X108343231Y-75871538D01*
X108342269Y-75869739D01*
X108181106Y-75568224D01*
X108181105Y-75568222D01*
X108181100Y-75568213D01*
X107990019Y-75282240D01*
X107771828Y-75016373D01*
X107771827Y-75016372D01*
X107771823Y-75016367D01*
X107528632Y-74773176D01*
X107262765Y-74554985D01*
X107262764Y-74554984D01*
X107262760Y-74554981D01*
X106976787Y-74363900D01*
X106976782Y-74363897D01*
X106976775Y-74363893D01*
X106673469Y-74201772D01*
X106673464Y-74201770D01*
X106646637Y-74190658D01*
X106577292Y-74161934D01*
X106355706Y-74070150D01*
X106026572Y-73970308D01*
X105689248Y-73903210D01*
X105689249Y-73903210D01*
X105431456Y-73877821D01*
X105346969Y-73869500D01*
X105003031Y-73869500D01*
X104924966Y-73877188D01*
X104660750Y-73903210D01*
X104323427Y-73970308D01*
X103994293Y-74070150D01*
X103676535Y-74201770D01*
X103676530Y-74201772D01*
X103373224Y-74363893D01*
X103373206Y-74363904D01*
X103087248Y-74554975D01*
X103087234Y-74554985D01*
X102821367Y-74773176D01*
X102578176Y-75016367D01*
X102359985Y-75282234D01*
X102359975Y-75282248D01*
X102168904Y-75568206D01*
X102168893Y-75568224D01*
X102006772Y-75871530D01*
X102006770Y-75871535D01*
X101914061Y-76095355D01*
X101870220Y-76149758D01*
X101803926Y-76171823D01*
X101736226Y-76154544D01*
X101688616Y-76103406D01*
X101675500Y-76047902D01*
X101675500Y-63744500D01*
X101695185Y-63677461D01*
X101747989Y-63631706D01*
X101799500Y-63620500D01*
X115895284Y-63620500D01*
X115962323Y-63640185D01*
G37*
%TD.AperFunction*%
%TA.AperFunction,Conductor*%
G36*
X200617539Y-63640185D02*
G01*
X200663294Y-63692989D01*
X200674500Y-63744500D01*
X200674500Y-76047902D01*
X200654815Y-76114941D01*
X200602011Y-76160696D01*
X200532853Y-76170640D01*
X200469297Y-76141615D01*
X200435939Y-76095355D01*
X200417359Y-76050499D01*
X200343231Y-75871538D01*
X200342269Y-75869739D01*
X200181106Y-75568224D01*
X200181105Y-75568222D01*
X200181100Y-75568213D01*
X199990019Y-75282240D01*
X199771828Y-75016373D01*
X199771827Y-75016372D01*
X199771823Y-75016367D01*
X199528632Y-74773176D01*
X199262765Y-74554985D01*
X199262764Y-74554984D01*
X199262760Y-74554981D01*
X198976787Y-74363900D01*
X198976782Y-74363897D01*
X198976775Y-74363893D01*
X198673469Y-74201772D01*
X198673464Y-74201770D01*
X198646637Y-74190658D01*
X198577292Y-74161934D01*
X198355706Y-74070150D01*
X198026572Y-73970308D01*
X197689248Y-73903210D01*
X197689249Y-73903210D01*
X197431456Y-73877821D01*
X197346969Y-73869500D01*
X197003031Y-73869500D01*
X196924966Y-73877188D01*
X196660750Y-73903210D01*
X196323427Y-73970308D01*
X195994293Y-74070150D01*
X195676535Y-74201770D01*
X195676530Y-74201772D01*
X195373224Y-74363893D01*
X195373206Y-74363904D01*
X195087248Y-74554975D01*
X195087234Y-74554985D01*
X194821367Y-74773176D01*
X194578176Y-75016367D01*
X194359985Y-75282234D01*
X194359975Y-75282248D01*
X194168904Y-75568206D01*
X194168893Y-75568224D01*
X194006772Y-75871530D01*
X194006770Y-75871535D01*
X193875151Y-76189292D01*
X193866898Y-76216497D01*
X193828598Y-76274934D01*
X193764785Y-76303389D01*
X193695719Y-76292827D01*
X193643327Y-76246601D01*
X193635850Y-76232891D01*
X193634816Y-76230674D01*
X193634814Y-76230666D01*
X193542712Y-76081344D01*
X193449049Y-75987681D01*
X193415564Y-75926358D01*
X193420548Y-75856666D01*
X193449049Y-75812319D01*
X193477663Y-75783705D01*
X193542712Y-75718656D01*
X193634814Y-75569334D01*
X193689999Y-75402797D01*
X193700500Y-75300009D01*
X193700499Y-74674992D01*
X193689999Y-74572203D01*
X193634814Y-74405666D01*
X193542712Y-74256344D01*
X193418656Y-74132288D01*
X193309402Y-74064900D01*
X193302578Y-74057313D01*
X193293297Y-74053075D01*
X193279608Y-74031775D01*
X193262679Y-74012953D01*
X193260034Y-74001317D01*
X193255523Y-73994297D01*
X193250500Y-73959362D01*
X193250500Y-73762229D01*
X193270185Y-73695190D01*
X193286819Y-73674548D01*
X194188948Y-72772419D01*
X194188951Y-72772416D01*
X194271084Y-72649495D01*
X194327658Y-72512913D01*
X194354114Y-72379914D01*
X194356500Y-72367920D01*
X194356500Y-70249499D01*
X194376185Y-70182460D01*
X194428989Y-70136705D01*
X194480500Y-70125499D01*
X194953871Y-70125499D01*
X194953872Y-70125499D01*
X195013483Y-70119091D01*
X195148331Y-70068796D01*
X195263546Y-69982546D01*
X195349796Y-69867331D01*
X195400091Y-69732483D01*
X195406500Y-69672873D01*
X195406499Y-66977128D01*
X195400091Y-66917517D01*
X195388977Y-66887720D01*
X195349797Y-66782671D01*
X195349793Y-66782664D01*
X195263547Y-66667455D01*
X195263544Y-66667452D01*
X195148335Y-66581206D01*
X195148328Y-66581202D01*
X195013482Y-66530908D01*
X195013483Y-66530908D01*
X194953883Y-66524501D01*
X194953881Y-66524500D01*
X194953873Y-66524500D01*
X194953864Y-66524500D01*
X192258129Y-66524500D01*
X192258123Y-66524501D01*
X192198516Y-66530908D01*
X192063671Y-66581202D01*
X192063664Y-66581206D01*
X191948455Y-66667452D01*
X191948452Y-66667455D01*
X191862206Y-66782664D01*
X191862202Y-66782671D01*
X191811908Y-66917517D01*
X191806437Y-66968408D01*
X191805501Y-66977123D01*
X191805500Y-66977135D01*
X191805500Y-69672870D01*
X191805501Y-69672876D01*
X191811908Y-69732483D01*
X191862202Y-69867328D01*
X191862206Y-69867335D01*
X191948452Y-69982544D01*
X191948455Y-69982547D01*
X192063664Y-70068793D01*
X192063671Y-70068797D01*
X192108618Y-70085561D01*
X192198517Y-70119091D01*
X192258127Y-70125500D01*
X192731500Y-70125499D01*
X192798539Y-70145183D01*
X192844294Y-70197987D01*
X192855500Y-70249499D01*
X192855500Y-71931770D01*
X192835815Y-71998809D01*
X192819181Y-72019451D01*
X191917048Y-72921583D01*
X191897784Y-72950415D01*
X191878647Y-72979057D01*
X191834919Y-73044499D01*
X191834912Y-73044511D01*
X191778343Y-73181082D01*
X191778340Y-73181092D01*
X191749500Y-73326079D01*
X191749500Y-73959362D01*
X191746807Y-73968531D01*
X191748091Y-73978000D01*
X191737123Y-74001511D01*
X191729815Y-74026401D01*
X191721807Y-74034344D01*
X191718554Y-74041319D01*
X191693312Y-74062610D01*
X191691694Y-74064216D01*
X191691143Y-74064563D01*
X191581344Y-74132288D01*
X191577026Y-74136605D01*
X191565787Y-74143701D01*
X191538244Y-74151547D01*
X191511687Y-74162256D01*
X191505069Y-74160997D01*
X191498591Y-74162843D01*
X191471184Y-74154554D01*
X191443047Y-74149204D01*
X191433765Y-74143237D01*
X191431713Y-74142617D01*
X191430395Y-74141071D01*
X191422683Y-74136114D01*
X191418346Y-74132684D01*
X191269124Y-74040643D01*
X191269119Y-74040641D01*
X191102697Y-73985494D01*
X191102690Y-73985493D01*
X190999986Y-73975000D01*
X190750000Y-73975000D01*
X190750000Y-74863500D01*
X190730315Y-74930539D01*
X190677511Y-74976294D01*
X190626000Y-74987500D01*
X190374000Y-74987500D01*
X190306961Y-74967815D01*
X190261206Y-74915011D01*
X190250000Y-74863500D01*
X190250000Y-73975000D01*
X190000029Y-73975000D01*
X190000012Y-73975001D01*
X189897302Y-73985494D01*
X189813504Y-74013262D01*
X189743675Y-74015664D01*
X189683633Y-73979932D01*
X189652441Y-73917411D01*
X189650500Y-73895556D01*
X189650500Y-71426079D01*
X189621659Y-71281092D01*
X189621658Y-71281091D01*
X189621658Y-71281087D01*
X189620728Y-71278842D01*
X189565086Y-71144509D01*
X189565085Y-71144507D01*
X189553394Y-71127011D01*
X189532186Y-71095270D01*
X189482952Y-71021584D01*
X189389209Y-70927841D01*
X189385910Y-70923949D01*
X189373729Y-70896491D01*
X189359334Y-70870128D01*
X189358470Y-70862092D01*
X189357578Y-70860082D01*
X189357976Y-70857506D01*
X189356500Y-70843770D01*
X189356500Y-70042327D01*
X189376185Y-69975288D01*
X189418498Y-69934941D01*
X189608450Y-69825273D01*
X189795699Y-69681592D01*
X189962592Y-69514699D01*
X190106273Y-69327450D01*
X190224284Y-69123049D01*
X190314606Y-68904993D01*
X190375693Y-68677014D01*
X190406500Y-68443011D01*
X190406500Y-68206989D01*
X190375693Y-67972986D01*
X190314606Y-67745007D01*
X190224284Y-67526951D01*
X190224282Y-67526948D01*
X190224280Y-67526943D01*
X190182118Y-67453918D01*
X190106273Y-67322550D01*
X189962592Y-67135301D01*
X189962587Y-67135295D01*
X189795704Y-66968412D01*
X189795697Y-66968406D01*
X189608454Y-66824730D01*
X189608453Y-66824729D01*
X189608450Y-66824727D01*
X189526957Y-66777677D01*
X189404056Y-66706719D01*
X189404045Y-66706714D01*
X189185993Y-66616394D01*
X189054670Y-66581206D01*
X188958014Y-66555307D01*
X188958013Y-66555306D01*
X188958010Y-66555306D01*
X188724020Y-66524501D01*
X188724017Y-66524500D01*
X188724011Y-66524500D01*
X188487989Y-66524500D01*
X188487983Y-66524500D01*
X188487979Y-66524501D01*
X188253989Y-66555306D01*
X188026006Y-66616394D01*
X187807954Y-66706714D01*
X187807943Y-66706719D01*
X187603545Y-66824730D01*
X187416302Y-66968406D01*
X187416295Y-66968412D01*
X187249412Y-67135295D01*
X187249406Y-67135302D01*
X187105730Y-67322545D01*
X187105727Y-67322549D01*
X187105727Y-67322550D01*
X187098014Y-67335909D01*
X186987719Y-67526943D01*
X186987714Y-67526954D01*
X186897394Y-67745006D01*
X186836306Y-67972989D01*
X186805501Y-68206979D01*
X186805500Y-68206995D01*
X186805500Y-68443004D01*
X186805501Y-68443020D01*
X186836306Y-68677010D01*
X186897394Y-68904993D01*
X186987714Y-69123045D01*
X186987719Y-69123056D01*
X187058677Y-69245957D01*
X187105727Y-69327450D01*
X187105729Y-69327453D01*
X187105730Y-69327454D01*
X187249406Y-69514697D01*
X187249412Y-69514704D01*
X187416295Y-69681587D01*
X187416302Y-69681593D01*
X187526306Y-69766001D01*
X187603550Y-69825273D01*
X187793501Y-69934941D01*
X187841716Y-69985507D01*
X187855500Y-70042327D01*
X187855500Y-71083706D01*
X187853117Y-71107899D01*
X187850480Y-71121158D01*
X187849500Y-71126083D01*
X187849500Y-71273917D01*
X187849500Y-71273919D01*
X187849499Y-71273919D01*
X187878340Y-71418906D01*
X187878342Y-71418912D01*
X187934916Y-71555494D01*
X188017048Y-71678416D01*
X188113182Y-71774550D01*
X188146666Y-71835871D01*
X188149500Y-71862230D01*
X188149500Y-73863000D01*
X188129815Y-73930039D01*
X188077011Y-73975794D01*
X188025504Y-73987000D01*
X188000000Y-73987000D01*
X187999980Y-73987001D01*
X187897203Y-73997500D01*
X187897200Y-73997501D01*
X187730668Y-74052685D01*
X187730663Y-74052687D01*
X187581342Y-74144789D01*
X187457285Y-74268846D01*
X187454912Y-74271848D01*
X187452760Y-74273371D01*
X187452181Y-74273951D01*
X187452081Y-74273851D01*
X187397889Y-74312224D01*
X187328090Y-74315361D01*
X187267675Y-74280263D01*
X187252110Y-74260032D01*
X187242319Y-74244159D01*
X187242316Y-74244155D01*
X187118345Y-74120184D01*
X186969124Y-74028143D01*
X186969119Y-74028141D01*
X186802697Y-73972994D01*
X186802690Y-73972993D01*
X186699986Y-73962500D01*
X186450000Y-73962500D01*
X186450000Y-74851000D01*
X186430315Y-74918039D01*
X186377511Y-74963794D01*
X186326000Y-74975000D01*
X186074000Y-74975000D01*
X186006961Y-74955315D01*
X185961206Y-74902511D01*
X185950000Y-74851000D01*
X185950000Y-73962500D01*
X185700029Y-73962500D01*
X185700012Y-73962501D01*
X185597302Y-73972994D01*
X185430880Y-74028141D01*
X185430875Y-74028143D01*
X185281654Y-74120184D01*
X185157684Y-74244154D01*
X185065643Y-74393375D01*
X185065641Y-74393380D01*
X185015898Y-74543495D01*
X184976125Y-74600940D01*
X184911609Y-74627763D01*
X184842833Y-74615448D01*
X184791634Y-74567905D01*
X184780486Y-74543495D01*
X184772528Y-74519480D01*
X184734814Y-74405666D01*
X184642712Y-74256344D01*
X184518656Y-74132288D01*
X184409402Y-74064900D01*
X184362679Y-74012953D01*
X184350500Y-73959362D01*
X184350500Y-70045791D01*
X184370185Y-69978752D01*
X184412497Y-69938406D01*
X184608450Y-69825273D01*
X184795699Y-69681592D01*
X184962592Y-69514699D01*
X185106273Y-69327450D01*
X185224284Y-69123049D01*
X185314606Y-68904993D01*
X185375693Y-68677014D01*
X185406500Y-68443011D01*
X185406500Y-68206989D01*
X185375693Y-67972986D01*
X185314606Y-67745007D01*
X185224284Y-67526951D01*
X185224282Y-67526948D01*
X185224280Y-67526943D01*
X185182118Y-67453918D01*
X185106273Y-67322550D01*
X184962592Y-67135301D01*
X184962587Y-67135295D01*
X184795704Y-66968412D01*
X184795697Y-66968406D01*
X184608454Y-66824730D01*
X184608453Y-66824729D01*
X184608450Y-66824727D01*
X184526957Y-66777677D01*
X184404056Y-66706719D01*
X184404045Y-66706714D01*
X184185993Y-66616394D01*
X184054670Y-66581206D01*
X183958014Y-66555307D01*
X183958013Y-66555306D01*
X183958010Y-66555306D01*
X183724020Y-66524501D01*
X183724017Y-66524500D01*
X183724011Y-66524500D01*
X183487989Y-66524500D01*
X183487983Y-66524500D01*
X183487979Y-66524501D01*
X183253989Y-66555306D01*
X183026006Y-66616394D01*
X182807954Y-66706714D01*
X182807943Y-66706719D01*
X182603545Y-66824730D01*
X182416302Y-66968406D01*
X182416295Y-66968412D01*
X182249412Y-67135295D01*
X182249406Y-67135302D01*
X182105730Y-67322545D01*
X182105727Y-67322549D01*
X182105727Y-67322550D01*
X182098014Y-67335909D01*
X181987719Y-67526943D01*
X181987714Y-67526954D01*
X181897394Y-67745006D01*
X181836306Y-67972989D01*
X181805501Y-68206979D01*
X181805500Y-68206995D01*
X181805500Y-68443004D01*
X181805501Y-68443020D01*
X181836306Y-68677010D01*
X181897394Y-68904993D01*
X181987714Y-69123045D01*
X181987719Y-69123056D01*
X182058677Y-69245957D01*
X182105727Y-69327450D01*
X182105729Y-69327453D01*
X182105730Y-69327454D01*
X182249406Y-69514697D01*
X182249412Y-69514704D01*
X182416295Y-69681587D01*
X182416302Y-69681593D01*
X182526306Y-69766001D01*
X182603550Y-69825273D01*
X182787501Y-69931477D01*
X182835716Y-69982043D01*
X182849500Y-70038863D01*
X182849500Y-73959362D01*
X182846807Y-73968531D01*
X182848091Y-73978000D01*
X182837123Y-74001511D01*
X182829815Y-74026401D01*
X182821807Y-74034344D01*
X182818554Y-74041319D01*
X182793312Y-74062610D01*
X182791694Y-74064216D01*
X182791143Y-74064563D01*
X182681344Y-74132288D01*
X182677026Y-74136605D01*
X182665787Y-74143701D01*
X182638244Y-74151547D01*
X182611687Y-74162256D01*
X182605069Y-74160997D01*
X182598591Y-74162843D01*
X182571184Y-74154554D01*
X182543047Y-74149204D01*
X182533765Y-74143237D01*
X182531713Y-74142617D01*
X182530395Y-74141071D01*
X182522683Y-74136114D01*
X182518346Y-74132684D01*
X182369124Y-74040643D01*
X182369119Y-74040641D01*
X182202697Y-73985494D01*
X182202690Y-73985493D01*
X182099986Y-73975000D01*
X181850000Y-73975000D01*
X181850000Y-74863500D01*
X181830315Y-74930539D01*
X181777511Y-74976294D01*
X181726000Y-74987500D01*
X181600000Y-74987500D01*
X181600000Y-75113500D01*
X181580315Y-75180539D01*
X181527511Y-75226294D01*
X181476000Y-75237500D01*
X180400001Y-75237500D01*
X180400001Y-75299986D01*
X180410494Y-75402697D01*
X180465641Y-75569119D01*
X180465643Y-75569124D01*
X180557684Y-75718345D01*
X180651304Y-75811965D01*
X180684789Y-75873288D01*
X180679805Y-75942980D01*
X180651305Y-75987327D01*
X180557287Y-76081345D01*
X180465187Y-76230663D01*
X180465185Y-76230668D01*
X180450517Y-76274934D01*
X180410001Y-76397203D01*
X180410001Y-76397204D01*
X180410000Y-76397204D01*
X180399500Y-76499983D01*
X180399500Y-77125001D01*
X180399501Y-77125019D01*
X180410000Y-77227796D01*
X180410001Y-77227799D01*
X180450000Y-77348505D01*
X180465186Y-77394334D01*
X180557288Y-77543656D01*
X180681344Y-77667712D01*
X180790597Y-77735099D01*
X180837321Y-77787047D01*
X180849500Y-77840638D01*
X180849500Y-79423918D01*
X180849500Y-79423920D01*
X180849499Y-79423920D01*
X180878340Y-79568907D01*
X180878343Y-79568917D01*
X180934914Y-79705492D01*
X180964318Y-79749498D01*
X180964319Y-79749501D01*
X181017046Y-79828414D01*
X181017052Y-79828421D01*
X181443181Y-80254548D01*
X181476666Y-80315871D01*
X181479500Y-80342229D01*
X181479500Y-81241444D01*
X181459815Y-81308483D01*
X181407011Y-81354238D01*
X181394508Y-81359148D01*
X181345585Y-81375360D01*
X181270667Y-81400185D01*
X181270662Y-81400187D01*
X181121342Y-81492289D01*
X180997289Y-81616342D01*
X180905187Y-81765662D01*
X180905185Y-81765667D01*
X180887161Y-81820060D01*
X180850001Y-81932202D01*
X180850001Y-81932203D01*
X180850000Y-81932203D01*
X180839500Y-82034982D01*
X180839500Y-83635017D01*
X180850000Y-83737796D01*
X180905185Y-83904332D01*
X180905187Y-83904337D01*
X180926603Y-83939057D01*
X180997288Y-84053656D01*
X181121344Y-84177712D01*
X181270665Y-84269814D01*
X181437202Y-84324999D01*
X181539990Y-84335500D01*
X181539995Y-84335500D01*
X182920005Y-84335500D01*
X182920010Y-84335500D01*
X183022798Y-84324999D01*
X183189335Y-84269814D01*
X183338656Y-84177712D01*
X183412319Y-84104049D01*
X183473642Y-84070564D01*
X183543334Y-84075548D01*
X183587681Y-84104049D01*
X183661344Y-84177712D01*
X183810665Y-84269814D01*
X183977202Y-84324999D01*
X184079990Y-84335500D01*
X184079995Y-84335500D01*
X185460005Y-84335500D01*
X185460010Y-84335500D01*
X185562798Y-84324999D01*
X185729335Y-84269814D01*
X185878656Y-84177712D01*
X186002712Y-84053656D01*
X186094814Y-83904335D01*
X186149999Y-83737798D01*
X186160500Y-83635010D01*
X186160500Y-82034990D01*
X186149999Y-81932202D01*
X186094814Y-81765665D01*
X186002712Y-81616344D01*
X185878656Y-81492288D01*
X185729335Y-81400186D01*
X185605495Y-81359149D01*
X185548051Y-81319377D01*
X185521228Y-81254861D01*
X185520500Y-81241444D01*
X185520500Y-79796079D01*
X185491659Y-79651092D01*
X185491658Y-79651088D01*
X185491658Y-79651087D01*
X185488949Y-79644548D01*
X185439431Y-79525000D01*
X185435084Y-79514505D01*
X185393042Y-79451584D01*
X185393042Y-79451583D01*
X185352950Y-79391581D01*
X184386819Y-78425450D01*
X184353334Y-78364127D01*
X184350500Y-78337769D01*
X184350500Y-77840638D01*
X184370185Y-77773599D01*
X184409401Y-77735100D01*
X184518656Y-77667712D01*
X184642712Y-77543656D01*
X184734814Y-77394334D01*
X184784366Y-77244795D01*
X184824136Y-77187354D01*
X184888652Y-77160530D01*
X184957428Y-77172845D01*
X185008628Y-77220387D01*
X185019776Y-77244797D01*
X185043109Y-77315210D01*
X185065186Y-77381834D01*
X185157288Y-77531156D01*
X185281344Y-77655212D01*
X185390597Y-77722599D01*
X185437321Y-77774547D01*
X185449500Y-77828138D01*
X185449500Y-78173918D01*
X185449500Y-78173920D01*
X185449499Y-78173920D01*
X185478340Y-78318907D01*
X185478343Y-78318917D01*
X185534914Y-78455492D01*
X185534915Y-78455494D01*
X185534916Y-78455495D01*
X185558378Y-78490609D01*
X185567812Y-78504727D01*
X185567813Y-78504730D01*
X185617046Y-78578414D01*
X185617052Y-78578421D01*
X187243181Y-80204549D01*
X187276666Y-80265872D01*
X187279500Y-80292230D01*
X187279500Y-81241444D01*
X187259815Y-81308483D01*
X187207011Y-81354238D01*
X187194508Y-81359148D01*
X187145585Y-81375360D01*
X187070667Y-81400185D01*
X187070662Y-81400187D01*
X186921342Y-81492289D01*
X186797289Y-81616342D01*
X186705187Y-81765662D01*
X186705185Y-81765667D01*
X186687161Y-81820060D01*
X186650001Y-81932202D01*
X186650001Y-81932203D01*
X186650000Y-81932203D01*
X186639500Y-82034982D01*
X186639500Y-83635017D01*
X186650000Y-83737796D01*
X186705185Y-83904332D01*
X186705187Y-83904337D01*
X186726603Y-83939057D01*
X186797288Y-84053656D01*
X186921344Y-84177712D01*
X187070665Y-84269814D01*
X187237202Y-84324999D01*
X187339990Y-84335500D01*
X187339995Y-84335500D01*
X188720005Y-84335500D01*
X188720010Y-84335500D01*
X188822798Y-84324999D01*
X188989335Y-84269814D01*
X189138656Y-84177712D01*
X189212319Y-84104049D01*
X189273642Y-84070564D01*
X189343334Y-84075548D01*
X189387681Y-84104049D01*
X189461344Y-84177712D01*
X189610665Y-84269814D01*
X189777202Y-84324999D01*
X189879990Y-84335500D01*
X189879995Y-84335500D01*
X191260005Y-84335500D01*
X191260010Y-84335500D01*
X191362798Y-84324999D01*
X191529335Y-84269814D01*
X191678656Y-84177712D01*
X191802712Y-84053656D01*
X191894814Y-83904335D01*
X191949999Y-83737798D01*
X191960500Y-83635010D01*
X191960500Y-82034990D01*
X191949999Y-81932202D01*
X191894814Y-81765665D01*
X191802712Y-81616344D01*
X191678656Y-81492288D01*
X191529335Y-81400186D01*
X191405495Y-81359149D01*
X191348051Y-81319377D01*
X191321228Y-81254861D01*
X191320500Y-81241444D01*
X191320500Y-79881229D01*
X191340185Y-79814190D01*
X191392989Y-79768435D01*
X191462147Y-79758491D01*
X191525703Y-79787516D01*
X191532181Y-79793548D01*
X192929925Y-81191292D01*
X192963410Y-81252615D01*
X192958426Y-81322307D01*
X192916554Y-81378240D01*
X192881253Y-81396677D01*
X192877425Y-81397945D01*
X192870667Y-81400185D01*
X192870662Y-81400187D01*
X192721342Y-81492289D01*
X192597289Y-81616342D01*
X192505187Y-81765662D01*
X192505185Y-81765667D01*
X192487161Y-81820060D01*
X192450001Y-81932202D01*
X192450001Y-81932203D01*
X192450000Y-81932203D01*
X192439500Y-82034982D01*
X192439500Y-83635017D01*
X192450000Y-83737796D01*
X192505185Y-83904332D01*
X192505187Y-83904337D01*
X192526603Y-83939057D01*
X192597288Y-84053656D01*
X192721344Y-84177712D01*
X192870665Y-84269814D01*
X193037202Y-84324999D01*
X193139990Y-84335500D01*
X193139995Y-84335500D01*
X194520005Y-84335500D01*
X194520010Y-84335500D01*
X194622798Y-84324999D01*
X194789335Y-84269814D01*
X194938656Y-84177712D01*
X195012319Y-84104049D01*
X195073642Y-84070564D01*
X195143334Y-84075548D01*
X195187681Y-84104049D01*
X195261344Y-84177712D01*
X195410665Y-84269814D01*
X195577202Y-84324999D01*
X195679990Y-84335500D01*
X195679995Y-84335500D01*
X197060005Y-84335500D01*
X197060010Y-84335500D01*
X197162798Y-84324999D01*
X197329335Y-84269814D01*
X197478656Y-84177712D01*
X197602712Y-84053656D01*
X197694814Y-83904335D01*
X197749999Y-83737798D01*
X197760500Y-83635010D01*
X197760500Y-82034990D01*
X197749999Y-81932202D01*
X197694814Y-81765665D01*
X197602712Y-81616344D01*
X197478656Y-81492288D01*
X197329335Y-81400186D01*
X197162798Y-81345001D01*
X197162796Y-81345000D01*
X197060017Y-81334500D01*
X197060010Y-81334500D01*
X196453938Y-81334500D01*
X196386899Y-81314815D01*
X196341144Y-81262011D01*
X196332321Y-81234691D01*
X196321659Y-81181094D01*
X196321658Y-81181087D01*
X196321656Y-81181082D01*
X196265087Y-81044511D01*
X196265085Y-81044507D01*
X196265084Y-81044505D01*
X196219621Y-80976465D01*
X196210685Y-80963091D01*
X196189808Y-80896416D01*
X196208292Y-80829036D01*
X196260271Y-80782345D01*
X196329241Y-80771169D01*
X196337958Y-80772581D01*
X196660750Y-80836789D01*
X197003031Y-80870500D01*
X197003034Y-80870500D01*
X197346966Y-80870500D01*
X197346969Y-80870500D01*
X197689250Y-80836789D01*
X198026578Y-80769690D01*
X198355705Y-80669850D01*
X198673462Y-80538231D01*
X198976787Y-80376100D01*
X199262760Y-80185019D01*
X199528627Y-79966828D01*
X199771828Y-79723627D01*
X199990019Y-79457760D01*
X200181100Y-79171787D01*
X200343231Y-78868462D01*
X200435939Y-78644643D01*
X200479780Y-78590241D01*
X200546074Y-78568176D01*
X200613773Y-78585455D01*
X200661384Y-78636592D01*
X200674500Y-78692097D01*
X200674500Y-95076648D01*
X200654815Y-95143687D01*
X200602011Y-95189442D01*
X200550624Y-95200648D01*
X188525527Y-95212673D01*
X188458468Y-95193055D01*
X188437722Y-95176354D01*
X187338048Y-94076680D01*
X187304563Y-94015357D01*
X187309547Y-93945665D01*
X187351419Y-93889732D01*
X187416883Y-93865315D01*
X187425729Y-93864999D01*
X187779999Y-93864999D01*
X187780000Y-93864998D01*
X187780000Y-92615000D01*
X186640001Y-92615000D01*
X186640001Y-93164986D01*
X186650494Y-93267696D01*
X186650494Y-93267698D01*
X186689860Y-93386496D01*
X186692262Y-93456325D01*
X186656530Y-93516366D01*
X186594009Y-93547559D01*
X186572154Y-93549500D01*
X186228372Y-93549500D01*
X186161333Y-93529815D01*
X186115578Y-93477011D01*
X186105634Y-93407853D01*
X186110666Y-93386496D01*
X186149999Y-93267798D01*
X186160500Y-93165010D01*
X186160500Y-91565013D01*
X186640000Y-91565013D01*
X186640000Y-92115000D01*
X187780000Y-92115000D01*
X187780000Y-90865000D01*
X188280000Y-90865000D01*
X188280000Y-93864999D01*
X188719972Y-93864999D01*
X188719986Y-93864998D01*
X188822696Y-93854505D01*
X188822698Y-93854505D01*
X188989119Y-93799359D01*
X188989130Y-93799354D01*
X189138339Y-93707320D01*
X189211964Y-93633695D01*
X189273287Y-93600210D01*
X189342979Y-93605194D01*
X189387327Y-93633695D01*
X189461344Y-93707712D01*
X189610665Y-93799814D01*
X189777202Y-93854999D01*
X189879990Y-93865500D01*
X189879995Y-93865500D01*
X191260005Y-93865500D01*
X191260010Y-93865500D01*
X191362798Y-93854999D01*
X191529335Y-93799814D01*
X191678656Y-93707712D01*
X191802712Y-93583656D01*
X191894814Y-93434335D01*
X191949999Y-93267798D01*
X191960500Y-93165010D01*
X191960500Y-93164986D01*
X192440001Y-93164986D01*
X192450494Y-93267696D01*
X192450494Y-93267698D01*
X192505640Y-93434119D01*
X192505645Y-93434130D01*
X192597680Y-93583340D01*
X192597683Y-93583344D01*
X192721655Y-93707316D01*
X192721659Y-93707319D01*
X192870869Y-93799354D01*
X192870880Y-93799359D01*
X193037302Y-93854505D01*
X193140019Y-93864999D01*
X193579999Y-93864999D01*
X193580000Y-93864998D01*
X193580000Y-92615000D01*
X192440001Y-92615000D01*
X192440001Y-93164986D01*
X191960500Y-93164986D01*
X191960500Y-91565013D01*
X192440000Y-91565013D01*
X192440000Y-92115000D01*
X193580000Y-92115000D01*
X193580000Y-90865000D01*
X194080000Y-90865000D01*
X194080000Y-93864999D01*
X194519972Y-93864999D01*
X194519986Y-93864998D01*
X194622696Y-93854505D01*
X194622698Y-93854505D01*
X194789119Y-93799359D01*
X194789130Y-93799354D01*
X194938339Y-93707320D01*
X195011964Y-93633695D01*
X195073287Y-93600210D01*
X195142979Y-93605194D01*
X195187327Y-93633695D01*
X195261344Y-93707712D01*
X195410665Y-93799814D01*
X195577202Y-93854999D01*
X195679990Y-93865500D01*
X195679995Y-93865500D01*
X197060005Y-93865500D01*
X197060010Y-93865500D01*
X197162798Y-93854999D01*
X197329335Y-93799814D01*
X197478656Y-93707712D01*
X197602712Y-93583656D01*
X197694814Y-93434335D01*
X197749999Y-93267798D01*
X197760500Y-93165010D01*
X197760500Y-91564990D01*
X197749999Y-91462202D01*
X197694814Y-91295665D01*
X197602712Y-91146344D01*
X197478656Y-91022288D01*
X197385890Y-90965070D01*
X197329337Y-90930187D01*
X197329332Y-90930185D01*
X197327863Y-90929698D01*
X197162798Y-90875001D01*
X197162796Y-90875000D01*
X197111896Y-90869800D01*
X197047204Y-90843403D01*
X197007054Y-90786221D01*
X197000500Y-90746442D01*
X197000500Y-86879765D01*
X197020185Y-86812726D01*
X197021398Y-86810874D01*
X197109390Y-86679185D01*
X197109390Y-86679184D01*
X197109394Y-86679179D01*
X197114643Y-86666508D01*
X197169735Y-86533501D01*
X197169737Y-86533497D01*
X197200500Y-86378842D01*
X197200500Y-86221158D01*
X197200500Y-86221155D01*
X197200499Y-86221153D01*
X197186085Y-86148691D01*
X197169737Y-86066503D01*
X197165658Y-86056655D01*
X197109397Y-85920827D01*
X197109390Y-85920814D01*
X197021789Y-85789711D01*
X197021786Y-85789707D01*
X196910292Y-85678213D01*
X196910288Y-85678210D01*
X196779185Y-85590609D01*
X196779172Y-85590602D01*
X196633501Y-85530264D01*
X196633489Y-85530261D01*
X196478845Y-85499500D01*
X196478842Y-85499500D01*
X196321158Y-85499500D01*
X196321155Y-85499500D01*
X196166510Y-85530261D01*
X196166498Y-85530264D01*
X196020827Y-85590602D01*
X196020814Y-85590609D01*
X195889711Y-85678210D01*
X195889707Y-85678213D01*
X195778213Y-85789707D01*
X195778210Y-85789711D01*
X195690609Y-85920814D01*
X195690602Y-85920827D01*
X195630264Y-86066498D01*
X195630261Y-86066510D01*
X195599500Y-86221153D01*
X195599500Y-86378846D01*
X195630261Y-86533489D01*
X195630264Y-86533501D01*
X195690602Y-86679172D01*
X195690609Y-86679185D01*
X195778602Y-86810874D01*
X195799480Y-86877551D01*
X195799500Y-86879765D01*
X195799500Y-90740567D01*
X195779815Y-90807606D01*
X195727011Y-90853361D01*
X195683121Y-90864089D01*
X195683131Y-90864179D01*
X195682484Y-90864245D01*
X195681826Y-90864406D01*
X195679991Y-90864499D01*
X195577203Y-90875000D01*
X195577202Y-90875001D01*
X195500251Y-90900500D01*
X195410667Y-90930185D01*
X195410662Y-90930187D01*
X195261345Y-91022287D01*
X195187327Y-91096305D01*
X195126003Y-91129789D01*
X195056312Y-91124804D01*
X195011965Y-91096304D01*
X194938344Y-91022683D01*
X194938340Y-91022680D01*
X194789130Y-90930645D01*
X194789119Y-90930640D01*
X194622697Y-90875494D01*
X194519986Y-90865000D01*
X194080000Y-90865000D01*
X193580000Y-90865000D01*
X193140028Y-90865000D01*
X193140012Y-90865001D01*
X193037303Y-90875494D01*
X193037301Y-90875494D01*
X192870880Y-90930640D01*
X192870869Y-90930645D01*
X192721659Y-91022680D01*
X192721655Y-91022683D01*
X192597683Y-91146655D01*
X192597680Y-91146659D01*
X192505645Y-91295869D01*
X192505640Y-91295880D01*
X192450494Y-91462302D01*
X192440000Y-91565013D01*
X191960500Y-91565013D01*
X191960500Y-91564990D01*
X191949999Y-91462202D01*
X191894814Y-91295665D01*
X191802712Y-91146344D01*
X191678656Y-91022288D01*
X191585890Y-90965070D01*
X191529337Y-90930187D01*
X191529332Y-90930185D01*
X191527863Y-90929698D01*
X191362798Y-90875001D01*
X191362796Y-90875000D01*
X191281896Y-90866735D01*
X191217205Y-90840338D01*
X191177054Y-90783157D01*
X191170500Y-90743377D01*
X191170500Y-87512940D01*
X191190185Y-87445901D01*
X191206816Y-87425261D01*
X191221789Y-87410289D01*
X191309394Y-87279179D01*
X191369737Y-87133497D01*
X191400500Y-86978842D01*
X191400500Y-86821158D01*
X191400500Y-86821155D01*
X191400499Y-86821153D01*
X191386346Y-86750000D01*
X191369737Y-86666503D01*
X191369735Y-86666498D01*
X191309397Y-86520827D01*
X191309390Y-86520814D01*
X191221789Y-86389711D01*
X191221786Y-86389707D01*
X191110292Y-86278213D01*
X191110288Y-86278210D01*
X190979185Y-86190609D01*
X190979172Y-86190602D01*
X190833501Y-86130264D01*
X190833489Y-86130261D01*
X190678845Y-86099500D01*
X190678842Y-86099500D01*
X190521158Y-86099500D01*
X190521155Y-86099500D01*
X190366510Y-86130261D01*
X190366498Y-86130264D01*
X190220827Y-86190602D01*
X190220814Y-86190609D01*
X190089711Y-86278210D01*
X190089707Y-86278213D01*
X189978213Y-86389707D01*
X189978210Y-86389711D01*
X189890609Y-86520814D01*
X189890602Y-86520827D01*
X189830264Y-86666498D01*
X189830261Y-86666510D01*
X189799500Y-86821153D01*
X189799500Y-86978846D01*
X189830261Y-87133489D01*
X189830264Y-87133501D01*
X189890602Y-87279172D01*
X189890609Y-87279184D01*
X189948602Y-87365976D01*
X189969480Y-87432653D01*
X189969500Y-87434867D01*
X189969500Y-90743377D01*
X189949815Y-90810416D01*
X189897011Y-90856171D01*
X189858104Y-90866735D01*
X189777203Y-90875000D01*
X189777202Y-90875001D01*
X189700251Y-90900500D01*
X189610667Y-90930185D01*
X189610662Y-90930187D01*
X189461345Y-91022287D01*
X189387327Y-91096305D01*
X189326003Y-91129789D01*
X189256312Y-91124804D01*
X189211965Y-91096304D01*
X189138344Y-91022683D01*
X189138340Y-91022680D01*
X188989130Y-90930645D01*
X188989119Y-90930640D01*
X188822697Y-90875494D01*
X188719986Y-90865000D01*
X188280000Y-90865000D01*
X187780000Y-90865000D01*
X187340028Y-90865000D01*
X187340012Y-90865001D01*
X187237303Y-90875494D01*
X187237301Y-90875494D01*
X187070880Y-90930640D01*
X187070869Y-90930645D01*
X186921659Y-91022680D01*
X186921655Y-91022683D01*
X186797683Y-91146655D01*
X186797680Y-91146659D01*
X186705645Y-91295869D01*
X186705640Y-91295880D01*
X186650494Y-91462302D01*
X186640000Y-91565013D01*
X186160500Y-91565013D01*
X186160500Y-91564990D01*
X186149999Y-91462202D01*
X186094814Y-91295665D01*
X186002712Y-91146344D01*
X185878656Y-91022288D01*
X185785890Y-90965070D01*
X185729337Y-90930187D01*
X185729332Y-90930185D01*
X185727863Y-90929698D01*
X185562798Y-90875001D01*
X185562796Y-90875000D01*
X185511896Y-90869800D01*
X185447204Y-90843403D01*
X185407054Y-90786221D01*
X185400500Y-90746442D01*
X185400500Y-88179765D01*
X185420185Y-88112726D01*
X185421398Y-88110874D01*
X185429521Y-88098718D01*
X185509394Y-87979179D01*
X185569737Y-87833497D01*
X185600500Y-87678842D01*
X185600500Y-87521158D01*
X185600500Y-87521155D01*
X185600499Y-87521153D01*
X185585241Y-87444446D01*
X185569737Y-87366503D01*
X185533569Y-87279184D01*
X185509397Y-87220827D01*
X185509390Y-87220814D01*
X185421789Y-87089711D01*
X185421786Y-87089707D01*
X185310292Y-86978213D01*
X185310288Y-86978210D01*
X185179185Y-86890609D01*
X185179172Y-86890602D01*
X185033501Y-86830264D01*
X185033489Y-86830261D01*
X184878845Y-86799500D01*
X184878842Y-86799500D01*
X184721158Y-86799500D01*
X184721155Y-86799500D01*
X184566510Y-86830261D01*
X184566498Y-86830264D01*
X184420827Y-86890602D01*
X184420814Y-86890609D01*
X184289711Y-86978210D01*
X184289707Y-86978213D01*
X184178213Y-87089707D01*
X184178210Y-87089711D01*
X184090609Y-87220814D01*
X184090602Y-87220827D01*
X184030264Y-87366498D01*
X184030261Y-87366510D01*
X183999500Y-87521153D01*
X183999500Y-87678846D01*
X184030261Y-87833489D01*
X184030264Y-87833501D01*
X184090602Y-87979172D01*
X184090609Y-87979185D01*
X184169595Y-88097395D01*
X184170479Y-88098718D01*
X184178602Y-88110874D01*
X184199480Y-88177551D01*
X184199500Y-88179765D01*
X184199500Y-90740567D01*
X184179815Y-90807606D01*
X184127011Y-90853361D01*
X184083121Y-90864089D01*
X184083131Y-90864179D01*
X184082484Y-90864245D01*
X184081826Y-90864406D01*
X184079991Y-90864499D01*
X183977203Y-90875000D01*
X183977202Y-90875001D01*
X183900251Y-90900500D01*
X183810667Y-90930185D01*
X183810662Y-90930187D01*
X183661345Y-91022287D01*
X183587327Y-91096305D01*
X183526003Y-91129789D01*
X183456312Y-91124804D01*
X183411965Y-91096304D01*
X183338344Y-91022683D01*
X183338340Y-91022680D01*
X183189130Y-90930645D01*
X183189119Y-90930640D01*
X183022697Y-90875494D01*
X182919986Y-90865000D01*
X182480000Y-90865000D01*
X182480000Y-92241000D01*
X182460315Y-92308039D01*
X182407511Y-92353794D01*
X182356000Y-92365000D01*
X182230000Y-92365000D01*
X182230000Y-92491000D01*
X182210315Y-92558039D01*
X182157511Y-92603794D01*
X182106000Y-92615000D01*
X180840001Y-92615000D01*
X180840001Y-93164986D01*
X180850494Y-93267696D01*
X180850494Y-93267698D01*
X180889860Y-93386496D01*
X180892262Y-93456325D01*
X180856530Y-93516366D01*
X180794009Y-93547559D01*
X180772154Y-93549500D01*
X180428372Y-93549500D01*
X180361333Y-93529815D01*
X180315578Y-93477011D01*
X180305634Y-93407853D01*
X180310666Y-93386496D01*
X180349999Y-93267798D01*
X180360500Y-93165010D01*
X180360500Y-91565013D01*
X180840000Y-91565013D01*
X180840000Y-92115000D01*
X181980000Y-92115000D01*
X181980000Y-90865000D01*
X181540028Y-90865000D01*
X181540012Y-90865001D01*
X181437303Y-90875494D01*
X181437301Y-90875494D01*
X181270880Y-90930640D01*
X181270869Y-90930645D01*
X181121659Y-91022680D01*
X181121655Y-91022683D01*
X180997683Y-91146655D01*
X180997680Y-91146659D01*
X180905645Y-91295869D01*
X180905640Y-91295880D01*
X180850494Y-91462302D01*
X180840000Y-91565013D01*
X180360500Y-91565013D01*
X180360500Y-91564990D01*
X180349999Y-91462202D01*
X180294814Y-91295665D01*
X180202712Y-91146344D01*
X180078656Y-91022288D01*
X179985890Y-90965070D01*
X179929337Y-90930187D01*
X179929332Y-90930185D01*
X179927863Y-90929698D01*
X179762798Y-90875001D01*
X179762796Y-90875000D01*
X179681896Y-90866735D01*
X179617205Y-90840338D01*
X179577054Y-90783157D01*
X179570500Y-90743377D01*
X179570500Y-88912940D01*
X179590185Y-88845901D01*
X179606816Y-88825261D01*
X179621789Y-88810289D01*
X179709394Y-88679179D01*
X179769737Y-88533497D01*
X179800500Y-88378842D01*
X179800500Y-88221158D01*
X179800500Y-88221155D01*
X179800499Y-88221153D01*
X179784896Y-88142712D01*
X179769737Y-88066503D01*
X179749918Y-88018656D01*
X179709397Y-87920827D01*
X179709390Y-87920814D01*
X179621789Y-87789711D01*
X179621786Y-87789707D01*
X179510292Y-87678213D01*
X179510288Y-87678210D01*
X179379185Y-87590609D01*
X179379172Y-87590602D01*
X179233501Y-87530264D01*
X179233489Y-87530261D01*
X179078845Y-87499500D01*
X179078842Y-87499500D01*
X178921158Y-87499500D01*
X178921155Y-87499500D01*
X178766510Y-87530261D01*
X178766498Y-87530264D01*
X178620827Y-87590602D01*
X178620814Y-87590609D01*
X178489711Y-87678210D01*
X178489707Y-87678213D01*
X178378213Y-87789707D01*
X178378210Y-87789711D01*
X178290609Y-87920814D01*
X178290602Y-87920827D01*
X178230264Y-88066498D01*
X178230261Y-88066510D01*
X178199500Y-88221153D01*
X178199500Y-88378846D01*
X178230261Y-88533489D01*
X178230264Y-88533501D01*
X178290602Y-88679172D01*
X178290609Y-88679184D01*
X178348602Y-88765976D01*
X178369480Y-88832653D01*
X178369500Y-88834867D01*
X178369500Y-90743377D01*
X178349815Y-90810416D01*
X178297011Y-90856171D01*
X178258104Y-90866735D01*
X178177203Y-90875000D01*
X178177202Y-90875001D01*
X178100251Y-90900500D01*
X178010667Y-90930185D01*
X178010662Y-90930187D01*
X177861345Y-91022287D01*
X177787327Y-91096305D01*
X177726003Y-91129789D01*
X177656312Y-91124804D01*
X177611965Y-91096304D01*
X177538344Y-91022683D01*
X177538340Y-91022680D01*
X177389130Y-90930645D01*
X177389119Y-90930640D01*
X177222697Y-90875494D01*
X177119986Y-90865000D01*
X176680000Y-90865000D01*
X176680000Y-92241000D01*
X176660315Y-92308039D01*
X176607511Y-92353794D01*
X176556000Y-92365000D01*
X176304000Y-92365000D01*
X176236961Y-92345315D01*
X176191206Y-92292511D01*
X176180000Y-92241000D01*
X176180000Y-90865000D01*
X175740028Y-90865000D01*
X175740012Y-90865001D01*
X175637303Y-90875494D01*
X175637301Y-90875494D01*
X175470880Y-90930640D01*
X175470869Y-90930645D01*
X175321659Y-91022680D01*
X175321655Y-91022683D01*
X175197683Y-91146655D01*
X175197680Y-91146659D01*
X175105645Y-91295869D01*
X175105640Y-91295880D01*
X175050494Y-91462302D01*
X175040000Y-91565013D01*
X175040000Y-91710475D01*
X175020315Y-91777514D01*
X174967511Y-91823269D01*
X174898353Y-91833213D01*
X174834797Y-91804188D01*
X174797023Y-91745410D01*
X174792642Y-91723076D01*
X174789999Y-91697203D01*
X174789998Y-91697200D01*
X174746195Y-91565013D01*
X174734814Y-91530666D01*
X174642712Y-91381344D01*
X174549049Y-91287681D01*
X174515564Y-91226358D01*
X174520548Y-91156666D01*
X174549049Y-91112319D01*
X174565064Y-91096304D01*
X174642712Y-91018656D01*
X174734814Y-90869334D01*
X174789999Y-90702797D01*
X174800500Y-90600009D01*
X174800499Y-89974992D01*
X174789999Y-89872203D01*
X174734814Y-89705666D01*
X174642712Y-89556344D01*
X174518656Y-89432288D01*
X174369334Y-89340186D01*
X174285495Y-89312404D01*
X174228051Y-89272632D01*
X174201228Y-89208116D01*
X174200500Y-89194699D01*
X174200500Y-88879765D01*
X174220185Y-88812726D01*
X174221398Y-88810874D01*
X174251043Y-88766508D01*
X174309394Y-88679179D01*
X174369737Y-88533497D01*
X174400500Y-88378842D01*
X174400500Y-88221158D01*
X174400500Y-88221155D01*
X174400499Y-88221153D01*
X174384896Y-88142712D01*
X174369737Y-88066503D01*
X174349918Y-88018656D01*
X174309397Y-87920827D01*
X174309390Y-87920814D01*
X174221789Y-87789711D01*
X174221786Y-87789707D01*
X174110292Y-87678213D01*
X174110288Y-87678210D01*
X173979185Y-87590609D01*
X173979172Y-87590602D01*
X173833501Y-87530264D01*
X173833489Y-87530261D01*
X173678845Y-87499500D01*
X173678842Y-87499500D01*
X173521158Y-87499500D01*
X173521155Y-87499500D01*
X173366510Y-87530261D01*
X173366498Y-87530264D01*
X173220827Y-87590602D01*
X173220814Y-87590609D01*
X173089711Y-87678210D01*
X173089707Y-87678213D01*
X172978213Y-87789707D01*
X172978210Y-87789711D01*
X172890609Y-87920814D01*
X172890602Y-87920827D01*
X172830264Y-88066498D01*
X172830261Y-88066510D01*
X172799500Y-88221153D01*
X172799500Y-88378846D01*
X172830261Y-88533489D01*
X172830264Y-88533501D01*
X172890602Y-88679172D01*
X172890609Y-88679185D01*
X172978602Y-88810874D01*
X172999480Y-88877551D01*
X172999500Y-88879765D01*
X172999500Y-89194699D01*
X172979815Y-89261738D01*
X172927011Y-89307493D01*
X172914507Y-89312403D01*
X172906099Y-89315190D01*
X172830668Y-89340185D01*
X172830663Y-89340187D01*
X172681342Y-89432289D01*
X172676909Y-89435795D01*
X172612113Y-89461934D01*
X172543471Y-89448892D01*
X172523091Y-89435795D01*
X172518657Y-89432289D01*
X172518656Y-89432288D01*
X172369334Y-89340186D01*
X172285495Y-89312404D01*
X172228051Y-89272632D01*
X172201228Y-89208116D01*
X172200500Y-89194699D01*
X172200500Y-88179765D01*
X172220185Y-88112726D01*
X172221398Y-88110874D01*
X172229521Y-88098718D01*
X172309394Y-87979179D01*
X172369737Y-87833497D01*
X172400500Y-87678842D01*
X172400500Y-87521158D01*
X172400500Y-87521155D01*
X172400499Y-87521153D01*
X172385241Y-87444446D01*
X172369737Y-87366503D01*
X172333569Y-87279184D01*
X172309397Y-87220827D01*
X172309390Y-87220814D01*
X172221789Y-87089711D01*
X172221786Y-87089707D01*
X172110292Y-86978213D01*
X172110288Y-86978210D01*
X171979185Y-86890609D01*
X171979172Y-86890602D01*
X171833501Y-86830264D01*
X171833489Y-86830261D01*
X171678845Y-86799500D01*
X171678842Y-86799500D01*
X171521158Y-86799500D01*
X171521155Y-86799500D01*
X171366510Y-86830261D01*
X171366498Y-86830264D01*
X171220827Y-86890602D01*
X171220814Y-86890609D01*
X171089711Y-86978210D01*
X171089707Y-86978213D01*
X170978213Y-87089707D01*
X170978210Y-87089711D01*
X170890609Y-87220814D01*
X170890602Y-87220827D01*
X170830264Y-87366498D01*
X170830261Y-87366510D01*
X170799500Y-87521153D01*
X170799500Y-87678846D01*
X170830261Y-87833489D01*
X170830264Y-87833501D01*
X170890602Y-87979172D01*
X170890609Y-87979185D01*
X170969595Y-88097395D01*
X170970479Y-88098718D01*
X170978602Y-88110874D01*
X170999480Y-88177551D01*
X170999500Y-88179765D01*
X170999500Y-89194699D01*
X170979815Y-89261738D01*
X170927011Y-89307493D01*
X170914507Y-89312403D01*
X170906099Y-89315190D01*
X170830668Y-89340185D01*
X170830663Y-89340187D01*
X170681342Y-89432289D01*
X170637680Y-89475951D01*
X170576357Y-89509435D01*
X170506665Y-89504450D01*
X170462320Y-89475951D01*
X170418657Y-89432289D01*
X170418656Y-89432288D01*
X170269334Y-89340186D01*
X170185495Y-89312404D01*
X170128051Y-89272632D01*
X170101228Y-89208116D01*
X170100500Y-89194699D01*
X170100500Y-87479765D01*
X170120185Y-87412726D01*
X170121398Y-87410874D01*
X170151043Y-87366508D01*
X170209394Y-87279179D01*
X170269737Y-87133497D01*
X170300500Y-86978842D01*
X170300500Y-86821158D01*
X170300500Y-86821155D01*
X170300499Y-86821153D01*
X170286346Y-86750000D01*
X170269737Y-86666503D01*
X170269735Y-86666498D01*
X170209397Y-86520827D01*
X170209390Y-86520814D01*
X170121789Y-86389711D01*
X170121786Y-86389707D01*
X170010292Y-86278213D01*
X170010288Y-86278210D01*
X169879185Y-86190609D01*
X169879172Y-86190602D01*
X169733501Y-86130264D01*
X169733489Y-86130261D01*
X169578845Y-86099500D01*
X169578842Y-86099500D01*
X169421158Y-86099500D01*
X169421155Y-86099500D01*
X169266510Y-86130261D01*
X169266498Y-86130264D01*
X169120827Y-86190602D01*
X169120814Y-86190609D01*
X168989711Y-86278210D01*
X168989707Y-86278213D01*
X168878213Y-86389707D01*
X168878210Y-86389711D01*
X168790609Y-86520814D01*
X168790602Y-86520827D01*
X168730264Y-86666498D01*
X168730261Y-86666510D01*
X168699500Y-86821153D01*
X168699500Y-86978846D01*
X168730261Y-87133489D01*
X168730264Y-87133501D01*
X168790602Y-87279172D01*
X168790609Y-87279185D01*
X168878602Y-87410874D01*
X168899480Y-87477551D01*
X168899500Y-87479765D01*
X168899500Y-89194699D01*
X168879815Y-89261738D01*
X168827011Y-89307493D01*
X168814507Y-89312403D01*
X168806099Y-89315190D01*
X168730668Y-89340185D01*
X168730663Y-89340187D01*
X168581342Y-89432289D01*
X168537680Y-89475951D01*
X168476357Y-89509435D01*
X168406665Y-89504450D01*
X168362320Y-89475951D01*
X168318657Y-89432289D01*
X168318656Y-89432288D01*
X168169334Y-89340186D01*
X168085495Y-89312404D01*
X168028051Y-89272632D01*
X168001228Y-89208116D01*
X168000500Y-89194699D01*
X168000500Y-86879765D01*
X168020185Y-86812726D01*
X168021398Y-86810874D01*
X168109390Y-86679185D01*
X168109390Y-86679184D01*
X168109394Y-86679179D01*
X168114643Y-86666508D01*
X168169735Y-86533501D01*
X168169737Y-86533497D01*
X168200500Y-86378842D01*
X168200500Y-86221158D01*
X168200500Y-86221155D01*
X168200499Y-86221153D01*
X168186085Y-86148691D01*
X168169737Y-86066503D01*
X168165658Y-86056655D01*
X168109397Y-85920827D01*
X168109390Y-85920814D01*
X168021789Y-85789711D01*
X168021786Y-85789707D01*
X167910292Y-85678213D01*
X167910288Y-85678210D01*
X167779185Y-85590609D01*
X167779172Y-85590602D01*
X167633501Y-85530264D01*
X167633489Y-85530261D01*
X167478845Y-85499500D01*
X167478842Y-85499500D01*
X167321158Y-85499500D01*
X167321155Y-85499500D01*
X167166510Y-85530261D01*
X167166498Y-85530264D01*
X167020827Y-85590602D01*
X167020814Y-85590609D01*
X166889711Y-85678210D01*
X166889707Y-85678213D01*
X166778213Y-85789707D01*
X166778210Y-85789711D01*
X166690609Y-85920814D01*
X166690602Y-85920827D01*
X166630264Y-86066498D01*
X166630261Y-86066510D01*
X166599500Y-86221153D01*
X166599500Y-86378846D01*
X166630261Y-86533489D01*
X166630264Y-86533501D01*
X166690602Y-86679172D01*
X166690609Y-86679185D01*
X166778602Y-86810874D01*
X166799480Y-86877551D01*
X166799500Y-86879765D01*
X166799500Y-89194699D01*
X166779815Y-89261738D01*
X166727011Y-89307493D01*
X166714507Y-89312403D01*
X166706099Y-89315190D01*
X166630668Y-89340185D01*
X166630663Y-89340187D01*
X166481345Y-89432287D01*
X166412327Y-89501305D01*
X166351003Y-89534789D01*
X166281312Y-89529804D01*
X166236965Y-89501304D01*
X166143345Y-89407684D01*
X165994124Y-89315643D01*
X165994119Y-89315641D01*
X165827697Y-89260494D01*
X165827690Y-89260493D01*
X165724986Y-89250000D01*
X165450000Y-89250000D01*
X165450000Y-90126000D01*
X165430315Y-90193039D01*
X165377511Y-90238794D01*
X165326000Y-90250000D01*
X165074000Y-90250000D01*
X165006961Y-90230315D01*
X164961206Y-90177511D01*
X164950000Y-90126000D01*
X164950000Y-89250000D01*
X164675029Y-89250000D01*
X164675012Y-89250001D01*
X164572302Y-89260494D01*
X164405880Y-89315641D01*
X164405875Y-89315643D01*
X164256654Y-89407684D01*
X164142181Y-89522158D01*
X164122744Y-89532770D01*
X164106011Y-89547271D01*
X164092679Y-89549187D01*
X164080858Y-89555643D01*
X164058771Y-89554063D01*
X164036853Y-89557215D01*
X164024601Y-89551619D01*
X164011166Y-89550659D01*
X163993439Y-89537388D01*
X163973297Y-89528190D01*
X163966014Y-89516858D01*
X163955233Y-89508787D01*
X163947495Y-89488041D01*
X163935523Y-89469412D01*
X163932371Y-89447493D01*
X163930816Y-89443323D01*
X163930500Y-89434477D01*
X163930500Y-89382229D01*
X163950185Y-89315190D01*
X163966819Y-89294548D01*
X165982949Y-87278418D01*
X165982951Y-87278416D01*
X166009812Y-87238215D01*
X166065084Y-87155495D01*
X166121658Y-87018913D01*
X166139292Y-86930263D01*
X166150500Y-86873920D01*
X166150500Y-82404604D01*
X166159939Y-82357151D01*
X166169737Y-82333497D01*
X166200500Y-82178842D01*
X166200500Y-82034982D01*
X175039500Y-82034982D01*
X175039500Y-83635017D01*
X175050000Y-83737796D01*
X175105185Y-83904332D01*
X175105187Y-83904337D01*
X175126603Y-83939057D01*
X175197288Y-84053656D01*
X175321344Y-84177712D01*
X175470665Y-84269814D01*
X175637202Y-84324999D01*
X175739990Y-84335500D01*
X175739995Y-84335500D01*
X177120005Y-84335500D01*
X177120010Y-84335500D01*
X177222798Y-84324999D01*
X177389335Y-84269814D01*
X177538656Y-84177712D01*
X177612319Y-84104049D01*
X177673642Y-84070564D01*
X177743334Y-84075548D01*
X177787681Y-84104049D01*
X177861344Y-84177712D01*
X178010665Y-84269814D01*
X178177202Y-84324999D01*
X178279990Y-84335500D01*
X178279995Y-84335500D01*
X179660005Y-84335500D01*
X179660010Y-84335500D01*
X179762798Y-84324999D01*
X179929335Y-84269814D01*
X180078656Y-84177712D01*
X180202712Y-84053656D01*
X180294814Y-83904335D01*
X180349999Y-83737798D01*
X180360500Y-83635010D01*
X180360500Y-82034990D01*
X180349999Y-81932202D01*
X180294814Y-81765665D01*
X180202712Y-81616344D01*
X180078656Y-81492288D01*
X179929335Y-81400186D01*
X179762798Y-81345001D01*
X179762796Y-81345000D01*
X179660017Y-81334500D01*
X179660010Y-81334500D01*
X179474500Y-81334500D01*
X179407461Y-81314815D01*
X179361706Y-81262011D01*
X179350500Y-81210500D01*
X179350500Y-77840638D01*
X179370185Y-77773599D01*
X179409401Y-77735100D01*
X179518656Y-77667712D01*
X179642712Y-77543656D01*
X179734814Y-77394334D01*
X179789999Y-77227797D01*
X179800500Y-77125009D01*
X179800499Y-76499992D01*
X179795593Y-76451969D01*
X179789999Y-76397203D01*
X179789998Y-76397200D01*
X179777259Y-76358757D01*
X179734814Y-76230666D01*
X179642712Y-76081344D01*
X179549049Y-75987681D01*
X179515564Y-75926358D01*
X179520548Y-75856666D01*
X179549049Y-75812319D01*
X179577663Y-75783705D01*
X179642712Y-75718656D01*
X179734814Y-75569334D01*
X179789999Y-75402797D01*
X179800500Y-75300009D01*
X179800499Y-74675013D01*
X180400000Y-74675013D01*
X180400000Y-74737500D01*
X181350000Y-74737500D01*
X181350000Y-73975000D01*
X181100029Y-73975000D01*
X181100012Y-73975001D01*
X180997302Y-73985494D01*
X180830880Y-74040641D01*
X180830875Y-74040643D01*
X180681654Y-74132684D01*
X180557684Y-74256654D01*
X180465643Y-74405875D01*
X180465641Y-74405880D01*
X180410494Y-74572302D01*
X180410493Y-74572309D01*
X180400000Y-74675013D01*
X179800499Y-74675013D01*
X179800499Y-74674992D01*
X179789999Y-74572203D01*
X179734814Y-74405666D01*
X179642712Y-74256344D01*
X179518656Y-74132288D01*
X179409402Y-74064900D01*
X179362679Y-74012953D01*
X179350500Y-73959362D01*
X179350500Y-70045791D01*
X179370185Y-69978752D01*
X179412497Y-69938406D01*
X179608450Y-69825273D01*
X179795699Y-69681592D01*
X179962592Y-69514699D01*
X180106273Y-69327450D01*
X180224284Y-69123049D01*
X180314606Y-68904993D01*
X180375693Y-68677014D01*
X180406500Y-68443011D01*
X180406500Y-68206989D01*
X180375693Y-67972986D01*
X180314606Y-67745007D01*
X180224284Y-67526951D01*
X180224282Y-67526948D01*
X180224280Y-67526943D01*
X180182118Y-67453918D01*
X180106273Y-67322550D01*
X179962592Y-67135301D01*
X179962587Y-67135295D01*
X179795704Y-66968412D01*
X179795697Y-66968406D01*
X179608454Y-66824730D01*
X179608453Y-66824729D01*
X179608450Y-66824727D01*
X179526957Y-66777677D01*
X179404056Y-66706719D01*
X179404045Y-66706714D01*
X179185993Y-66616394D01*
X179054670Y-66581206D01*
X178958014Y-66555307D01*
X178958013Y-66555306D01*
X178958010Y-66555306D01*
X178724020Y-66524501D01*
X178724017Y-66524500D01*
X178724011Y-66524500D01*
X178487989Y-66524500D01*
X178487983Y-66524500D01*
X178487979Y-66524501D01*
X178253989Y-66555306D01*
X178026006Y-66616394D01*
X177807954Y-66706714D01*
X177807943Y-66706719D01*
X177603545Y-66824730D01*
X177416302Y-66968406D01*
X177416295Y-66968412D01*
X177249412Y-67135295D01*
X177249406Y-67135302D01*
X177105730Y-67322545D01*
X177105727Y-67322549D01*
X177105727Y-67322550D01*
X177098014Y-67335909D01*
X176987719Y-67526943D01*
X176987714Y-67526954D01*
X176897394Y-67745006D01*
X176836306Y-67972989D01*
X176805501Y-68206979D01*
X176805500Y-68206995D01*
X176805500Y-68443004D01*
X176805501Y-68443020D01*
X176836306Y-68677010D01*
X176897394Y-68904993D01*
X176987714Y-69123045D01*
X176987719Y-69123056D01*
X177058677Y-69245957D01*
X177105727Y-69327450D01*
X177105729Y-69327453D01*
X177105730Y-69327454D01*
X177249406Y-69514697D01*
X177249412Y-69514704D01*
X177416295Y-69681587D01*
X177416302Y-69681593D01*
X177526306Y-69766001D01*
X177603550Y-69825273D01*
X177787501Y-69931477D01*
X177835716Y-69982043D01*
X177849500Y-70038863D01*
X177849500Y-73959362D01*
X177848057Y-73964275D01*
X177849102Y-73969288D01*
X177838312Y-73997460D01*
X177829815Y-74026401D01*
X177825449Y-74031048D01*
X177824114Y-74034537D01*
X177811102Y-74046324D01*
X177798940Y-74059274D01*
X177794875Y-74062261D01*
X177681344Y-74132288D01*
X177630676Y-74182955D01*
X177623086Y-74188535D01*
X177598737Y-74197375D01*
X177576003Y-74209789D01*
X177566432Y-74209104D01*
X177557411Y-74212380D01*
X177532144Y-74206651D01*
X177506311Y-74204804D01*
X177496673Y-74198610D01*
X177489271Y-74196932D01*
X177481058Y-74188575D01*
X177461965Y-74176304D01*
X177418345Y-74132684D01*
X177269124Y-74040643D01*
X177269119Y-74040641D01*
X177102697Y-73985494D01*
X177102690Y-73985493D01*
X176999986Y-73975000D01*
X176750000Y-73975000D01*
X176750000Y-74863500D01*
X176730315Y-74930539D01*
X176677511Y-74976294D01*
X176626000Y-74987500D01*
X176500000Y-74987500D01*
X176500000Y-75113500D01*
X176480315Y-75180539D01*
X176427511Y-75226294D01*
X176376000Y-75237500D01*
X175300001Y-75237500D01*
X175300001Y-75299986D01*
X175310494Y-75402697D01*
X175365641Y-75569119D01*
X175365643Y-75569124D01*
X175457684Y-75718345D01*
X175551304Y-75811965D01*
X175584789Y-75873288D01*
X175579805Y-75942980D01*
X175551305Y-75987327D01*
X175457287Y-76081345D01*
X175365187Y-76230663D01*
X175365185Y-76230668D01*
X175350517Y-76274934D01*
X175310001Y-76397203D01*
X175310001Y-76397204D01*
X175310000Y-76397204D01*
X175299500Y-76499983D01*
X175299500Y-77125001D01*
X175299501Y-77125019D01*
X175310000Y-77227796D01*
X175310001Y-77227799D01*
X175350000Y-77348505D01*
X175365186Y-77394334D01*
X175457288Y-77543656D01*
X175581344Y-77667712D01*
X175690597Y-77735099D01*
X175737321Y-77787047D01*
X175749500Y-77840638D01*
X175749500Y-81221550D01*
X175729815Y-81288589D01*
X175677011Y-81334344D01*
X175643780Y-81343368D01*
X175643826Y-81343583D01*
X175639873Y-81344429D01*
X175638118Y-81344906D01*
X175637215Y-81344998D01*
X175637203Y-81345000D01*
X175637202Y-81345001D01*
X175592693Y-81359750D01*
X175470667Y-81400185D01*
X175470662Y-81400187D01*
X175321342Y-81492289D01*
X175197289Y-81616342D01*
X175105187Y-81765662D01*
X175105185Y-81765667D01*
X175087161Y-81820060D01*
X175050001Y-81932202D01*
X175050001Y-81932203D01*
X175050000Y-81932203D01*
X175039500Y-82034982D01*
X166200500Y-82034982D01*
X166200500Y-82021158D01*
X166169737Y-81866503D01*
X166155553Y-81832260D01*
X166153183Y-81821051D01*
X166153860Y-81812291D01*
X166150500Y-81795396D01*
X166150500Y-75726079D01*
X166121659Y-75581092D01*
X166121658Y-75581091D01*
X166121658Y-75581087D01*
X166116330Y-75568224D01*
X166065087Y-75444511D01*
X166065080Y-75444498D01*
X165982952Y-75321585D01*
X165943601Y-75282234D01*
X165878416Y-75217049D01*
X165660867Y-74999500D01*
X165420913Y-74759545D01*
X165336381Y-74675013D01*
X175300000Y-74675013D01*
X175300000Y-74737500D01*
X176250000Y-74737500D01*
X176250000Y-73975000D01*
X176000029Y-73975000D01*
X176000012Y-73975001D01*
X175897302Y-73985494D01*
X175730880Y-74040641D01*
X175730875Y-74040643D01*
X175581654Y-74132684D01*
X175457684Y-74256654D01*
X175365643Y-74405875D01*
X175365641Y-74405880D01*
X175310494Y-74572302D01*
X175310493Y-74572309D01*
X175300000Y-74675013D01*
X165336381Y-74675013D01*
X165128421Y-74467052D01*
X165128414Y-74467046D01*
X165054729Y-74417812D01*
X165054729Y-74417813D01*
X165005491Y-74384913D01*
X164868917Y-74328343D01*
X164868907Y-74328340D01*
X164723920Y-74299500D01*
X164723918Y-74299500D01*
X163936868Y-74299500D01*
X163869829Y-74279815D01*
X163848653Y-74260616D01*
X163847819Y-74261451D01*
X163718657Y-74132289D01*
X163718656Y-74132288D01*
X163602789Y-74060821D01*
X163569336Y-74040187D01*
X163569331Y-74040185D01*
X163541757Y-74031048D01*
X163402797Y-73985001D01*
X163402795Y-73985000D01*
X163300010Y-73974500D01*
X162299998Y-73974500D01*
X162299980Y-73974501D01*
X162197203Y-73985000D01*
X162197200Y-73985001D01*
X162030668Y-74040185D01*
X162030663Y-74040187D01*
X161881342Y-74132289D01*
X161837680Y-74175951D01*
X161776357Y-74209435D01*
X161706665Y-74204450D01*
X161662320Y-74175951D01*
X161618657Y-74132289D01*
X161618656Y-74132288D01*
X161502789Y-74060821D01*
X161469336Y-74040187D01*
X161469331Y-74040185D01*
X161441757Y-74031048D01*
X161302797Y-73985001D01*
X161302795Y-73985000D01*
X161200010Y-73974500D01*
X160199998Y-73974500D01*
X160199980Y-73974501D01*
X160097203Y-73985000D01*
X160097200Y-73985001D01*
X159930668Y-74040185D01*
X159930663Y-74040187D01*
X159781342Y-74132289D01*
X159776909Y-74135795D01*
X159712113Y-74161934D01*
X159643471Y-74148892D01*
X159623091Y-74135795D01*
X159618657Y-74132289D01*
X159618656Y-74132288D01*
X159502789Y-74060821D01*
X159469336Y-74040187D01*
X159469331Y-74040185D01*
X159441757Y-74031048D01*
X159302797Y-73985001D01*
X159302795Y-73985000D01*
X159200010Y-73974500D01*
X158199998Y-73974500D01*
X158199980Y-73974501D01*
X158097203Y-73985000D01*
X158097200Y-73985001D01*
X157930668Y-74040185D01*
X157930663Y-74040187D01*
X157781342Y-74132289D01*
X157652181Y-74261451D01*
X157650294Y-74259564D01*
X157603375Y-74292788D01*
X157563132Y-74299500D01*
X155487230Y-74299500D01*
X155459963Y-74291493D01*
X155431984Y-74286513D01*
X155424384Y-74281046D01*
X155420191Y-74279815D01*
X155402946Y-74266452D01*
X155401227Y-74264859D01*
X155343656Y-74207288D01*
X155330036Y-74198887D01*
X155321156Y-74190658D01*
X155309212Y-74170635D01*
X155293618Y-74153297D01*
X155291647Y-74141186D01*
X155285364Y-74130652D01*
X155286141Y-74107349D01*
X155282397Y-74084334D01*
X155287285Y-74073082D01*
X155287695Y-74060821D01*
X155300948Y-74041637D01*
X155310240Y-74020252D01*
X155323898Y-74008418D01*
X155327409Y-74003336D01*
X155331947Y-74001443D01*
X155340348Y-73994165D01*
X155343342Y-73992318D01*
X155467315Y-73868345D01*
X155559356Y-73719124D01*
X155559358Y-73719119D01*
X155614505Y-73552697D01*
X155614506Y-73552690D01*
X155624999Y-73449986D01*
X155625000Y-73449973D01*
X155625000Y-73400000D01*
X153175001Y-73400000D01*
X153175001Y-73449986D01*
X153185494Y-73552697D01*
X153240641Y-73719119D01*
X153240643Y-73719124D01*
X153332684Y-73868345D01*
X153456655Y-73992316D01*
X153456659Y-73992319D01*
X153459656Y-73994168D01*
X153461279Y-73995972D01*
X153462323Y-73996798D01*
X153462181Y-73996976D01*
X153506381Y-74046116D01*
X153517602Y-74115079D01*
X153489759Y-74179161D01*
X153480176Y-74189404D01*
X153470746Y-74198404D01*
X153456344Y-74207288D01*
X153349441Y-74314190D01*
X153348386Y-74315198D01*
X153318577Y-74330585D01*
X153289127Y-74346666D01*
X153286977Y-74346897D01*
X153286300Y-74347247D01*
X153284931Y-74347117D01*
X153262769Y-74349500D01*
X140804604Y-74349500D01*
X140757155Y-74340062D01*
X140733497Y-74330263D01*
X140733493Y-74330262D01*
X140733488Y-74330260D01*
X140578845Y-74299500D01*
X140578842Y-74299500D01*
X140421158Y-74299500D01*
X140421155Y-74299500D01*
X140266510Y-74330261D01*
X140266498Y-74330264D01*
X140120827Y-74390602D01*
X140120814Y-74390609D01*
X139989711Y-74478210D01*
X139989707Y-74478213D01*
X139878213Y-74589707D01*
X139878210Y-74589711D01*
X139790609Y-74720814D01*
X139790602Y-74720827D01*
X139730264Y-74866498D01*
X139730261Y-74866510D01*
X139699500Y-75021153D01*
X139699500Y-75178846D01*
X139730261Y-75333489D01*
X139730264Y-75333501D01*
X139790602Y-75479172D01*
X139790609Y-75479185D01*
X139878210Y-75610288D01*
X139878213Y-75610292D01*
X139989707Y-75721786D01*
X139989711Y-75721789D01*
X140120814Y-75809390D01*
X140120827Y-75809397D01*
X140242846Y-75859938D01*
X140266503Y-75869737D01*
X140418644Y-75900000D01*
X140421153Y-75900499D01*
X140421156Y-75900500D01*
X140421158Y-75900500D01*
X140578844Y-75900500D01*
X140578845Y-75900499D01*
X140676040Y-75881166D01*
X140733488Y-75869739D01*
X140733489Y-75869738D01*
X140733497Y-75869737D01*
X140757155Y-75859937D01*
X140804604Y-75850500D01*
X153362770Y-75850500D01*
X153429809Y-75870185D01*
X153450451Y-75886819D01*
X153456344Y-75892712D01*
X153605666Y-75984814D01*
X153772203Y-76039999D01*
X153874991Y-76050500D01*
X154925008Y-76050499D01*
X154925016Y-76050498D01*
X154925019Y-76050498D01*
X154981302Y-76044748D01*
X155027797Y-76039999D01*
X155194334Y-75984814D01*
X155343656Y-75892712D01*
X155399549Y-75836819D01*
X155460872Y-75803334D01*
X155487230Y-75800500D01*
X157638770Y-75800500D01*
X157705809Y-75820185D01*
X157751564Y-75872989D01*
X157761508Y-75942147D01*
X157732483Y-76005703D01*
X157726451Y-76012181D01*
X157657289Y-76081342D01*
X157565187Y-76230663D01*
X157565185Y-76230668D01*
X157550517Y-76274934D01*
X157510001Y-76397203D01*
X157510001Y-76397204D01*
X157510000Y-76397204D01*
X157499500Y-76499983D01*
X157499500Y-77125001D01*
X157499501Y-77125019D01*
X157510000Y-77227796D01*
X157510001Y-77227799D01*
X157550000Y-77348505D01*
X157565186Y-77394334D01*
X157657288Y-77543656D01*
X157781344Y-77667712D01*
X157930666Y-77759814D01*
X158014505Y-77787595D01*
X158071948Y-77827366D01*
X158098772Y-77891882D01*
X158099500Y-77905300D01*
X158099500Y-79399903D01*
X158079815Y-79466942D01*
X158063181Y-79487584D01*
X157787584Y-79763181D01*
X157726261Y-79796666D01*
X157699903Y-79799500D01*
X154869766Y-79799500D01*
X154802727Y-79779815D01*
X154800875Y-79778602D01*
X154669185Y-79690609D01*
X154669172Y-79690602D01*
X154523501Y-79630264D01*
X154523489Y-79630261D01*
X154368845Y-79599500D01*
X154368842Y-79599500D01*
X154211158Y-79599500D01*
X154211155Y-79599500D01*
X154056510Y-79630261D01*
X154056498Y-79630264D01*
X153910827Y-79690602D01*
X153910814Y-79690609D01*
X153779711Y-79778210D01*
X153779707Y-79778213D01*
X153668213Y-79889707D01*
X153668210Y-79889711D01*
X153580609Y-80020814D01*
X153580602Y-80020827D01*
X153520264Y-80166498D01*
X153520261Y-80166510D01*
X153489500Y-80321153D01*
X153489500Y-80478846D01*
X153520261Y-80633489D01*
X153520264Y-80633501D01*
X153580602Y-80779172D01*
X153580608Y-80779183D01*
X153591170Y-80794990D01*
X153612047Y-80861668D01*
X153593562Y-80929048D01*
X153541583Y-80975737D01*
X153472613Y-80986913D01*
X153438092Y-80975109D01*
X153437354Y-80976815D01*
X153430193Y-80973716D01*
X153272494Y-80927900D01*
X153272497Y-80927900D01*
X153270000Y-80927703D01*
X153270000Y-82326000D01*
X153250315Y-82393039D01*
X153197511Y-82438794D01*
X153146000Y-82450000D01*
X153020000Y-82450000D01*
X153020000Y-82576000D01*
X153000315Y-82643039D01*
X152947511Y-82688794D01*
X152896000Y-82700000D01*
X152220000Y-82700000D01*
X152220000Y-83390649D01*
X152222899Y-83427489D01*
X152226797Y-83440903D01*
X152226598Y-83510773D01*
X152188657Y-83569443D01*
X152125019Y-83598288D01*
X152107721Y-83599500D01*
X146700097Y-83599500D01*
X146633058Y-83579815D01*
X146612416Y-83563181D01*
X144558585Y-81509350D01*
X152220000Y-81509350D01*
X152220000Y-82200000D01*
X152770000Y-82200000D01*
X152770000Y-80927703D01*
X152767503Y-80927900D01*
X152609806Y-80973716D01*
X152609803Y-80973717D01*
X152468447Y-81057314D01*
X152468438Y-81057321D01*
X152352321Y-81173438D01*
X152352314Y-81173447D01*
X152268717Y-81314803D01*
X152268716Y-81314806D01*
X152222900Y-81472504D01*
X152222899Y-81472510D01*
X152220000Y-81509350D01*
X144558585Y-81509350D01*
X142934574Y-79885339D01*
X142901089Y-79824016D01*
X142900638Y-79821849D01*
X142878604Y-79711082D01*
X142869737Y-79666503D01*
X142863352Y-79651087D01*
X142809397Y-79520827D01*
X142809390Y-79520814D01*
X142721789Y-79389711D01*
X142721786Y-79389707D01*
X142610292Y-79278213D01*
X142610288Y-79278210D01*
X142479185Y-79190609D01*
X142479172Y-79190602D01*
X142333501Y-79130264D01*
X142333489Y-79130261D01*
X142178845Y-79099500D01*
X142178842Y-79099500D01*
X142021158Y-79099500D01*
X142021157Y-79099500D01*
X142015095Y-79100097D01*
X142014941Y-79098541D01*
X141952958Y-79092986D01*
X141897787Y-79050115D01*
X141876757Y-79001793D01*
X141873159Y-78983705D01*
X141869737Y-78966503D01*
X141850572Y-78920234D01*
X141809397Y-78820827D01*
X141809390Y-78820814D01*
X141721789Y-78689711D01*
X141721786Y-78689707D01*
X141610292Y-78578213D01*
X141610288Y-78578210D01*
X141479185Y-78490609D01*
X141479172Y-78490602D01*
X141333501Y-78430264D01*
X141333489Y-78430261D01*
X141178845Y-78399500D01*
X141178842Y-78399500D01*
X141166259Y-78399500D01*
X141099220Y-78379815D01*
X141053465Y-78327011D01*
X141051698Y-78322952D01*
X141009397Y-78220827D01*
X141009390Y-78220814D01*
X140921789Y-78089711D01*
X140921786Y-78089707D01*
X140810292Y-77978213D01*
X140810288Y-77978210D01*
X140679185Y-77890609D01*
X140679172Y-77890602D01*
X140533501Y-77830264D01*
X140533489Y-77830261D01*
X140378845Y-77799500D01*
X140378842Y-77799500D01*
X140221158Y-77799500D01*
X140221155Y-77799500D01*
X140066510Y-77830261D01*
X140066498Y-77830264D01*
X139920827Y-77890602D01*
X139920814Y-77890609D01*
X139789711Y-77978210D01*
X139789707Y-77978213D01*
X139678213Y-78089707D01*
X139678210Y-78089711D01*
X139590609Y-78220814D01*
X139590602Y-78220827D01*
X139530264Y-78366498D01*
X139530261Y-78366510D01*
X139499500Y-78521153D01*
X139499500Y-78678846D01*
X139530261Y-78833489D01*
X139530264Y-78833501D01*
X139590602Y-78979172D01*
X139590609Y-78979185D01*
X139678602Y-79110874D01*
X139699480Y-79177551D01*
X139699500Y-79179765D01*
X139699500Y-79813330D01*
X139699499Y-79813348D01*
X139699499Y-79979054D01*
X139699498Y-79979054D01*
X139740423Y-80131785D01*
X139760471Y-80166510D01*
X139768549Y-80180500D01*
X139797870Y-80231286D01*
X139819479Y-80268714D01*
X139819481Y-80268717D01*
X139938349Y-80387585D01*
X139938354Y-80387589D01*
X145431284Y-85880520D01*
X145431286Y-85880521D01*
X145431290Y-85880524D01*
X145568209Y-85959573D01*
X145568212Y-85959575D01*
X145568216Y-85959577D01*
X145720943Y-86000501D01*
X145720945Y-86000501D01*
X145886654Y-86000501D01*
X145886670Y-86000500D01*
X152092297Y-86000500D01*
X152159336Y-86020185D01*
X152205091Y-86072989D01*
X152215035Y-86142147D01*
X152213914Y-86148691D01*
X152199500Y-86221153D01*
X152199500Y-86378846D01*
X152230261Y-86533489D01*
X152230264Y-86533501D01*
X152290602Y-86679172D01*
X152290609Y-86679185D01*
X152337927Y-86750000D01*
X152378211Y-86810289D01*
X152383178Y-86815256D01*
X152416665Y-86876575D01*
X152419500Y-86902940D01*
X152419500Y-90354191D01*
X152399815Y-90421230D01*
X152383181Y-90441872D01*
X152351923Y-90473129D01*
X152351917Y-90473137D01*
X152268255Y-90614603D01*
X152268254Y-90614606D01*
X152222402Y-90772426D01*
X152222401Y-90772432D01*
X152219500Y-90809298D01*
X152219500Y-92690701D01*
X152222401Y-92727567D01*
X152222402Y-92727573D01*
X152268254Y-92885393D01*
X152268255Y-92885396D01*
X152351917Y-93026862D01*
X152351923Y-93026870D01*
X152468129Y-93143076D01*
X152468133Y-93143079D01*
X152468135Y-93143081D01*
X152609602Y-93226744D01*
X152620035Y-93229775D01*
X152767426Y-93272597D01*
X152767429Y-93272597D01*
X152767431Y-93272598D01*
X152804306Y-93275500D01*
X152804314Y-93275500D01*
X153235686Y-93275500D01*
X153235694Y-93275500D01*
X153272569Y-93272598D01*
X153272571Y-93272597D01*
X153272573Y-93272597D01*
X153314191Y-93260505D01*
X153430398Y-93226744D01*
X153571865Y-93143081D01*
X153571870Y-93143075D01*
X153578031Y-93138298D01*
X153579933Y-93140750D01*
X153628579Y-93114155D01*
X153698274Y-93119104D01*
X153730695Y-93139940D01*
X153731969Y-93138298D01*
X153738132Y-93143078D01*
X153738135Y-93143081D01*
X153879602Y-93226744D01*
X153890035Y-93229775D01*
X154037426Y-93272597D01*
X154037429Y-93272597D01*
X154037431Y-93272598D01*
X154074306Y-93275500D01*
X154074314Y-93275500D01*
X154505686Y-93275500D01*
X154505694Y-93275500D01*
X154542569Y-93272598D01*
X154542571Y-93272597D01*
X154542573Y-93272597D01*
X154584191Y-93260505D01*
X154700398Y-93226744D01*
X154841865Y-93143081D01*
X154841870Y-93143075D01*
X154848031Y-93138298D01*
X154849933Y-93140750D01*
X154898579Y-93114155D01*
X154968274Y-93119104D01*
X155000695Y-93139940D01*
X155001969Y-93138298D01*
X155008132Y-93143078D01*
X155008135Y-93143081D01*
X155149602Y-93226744D01*
X155160035Y-93229775D01*
X155307426Y-93272597D01*
X155307429Y-93272597D01*
X155307431Y-93272598D01*
X155344306Y-93275500D01*
X155344314Y-93275500D01*
X155775686Y-93275500D01*
X155775694Y-93275500D01*
X155812569Y-93272598D01*
X155812571Y-93272597D01*
X155812573Y-93272597D01*
X155854191Y-93260505D01*
X155970398Y-93226744D01*
X156111865Y-93143081D01*
X156111870Y-93143075D01*
X156118031Y-93138298D01*
X156119933Y-93140750D01*
X156168579Y-93114155D01*
X156238274Y-93119104D01*
X156270695Y-93139940D01*
X156271969Y-93138298D01*
X156278132Y-93143078D01*
X156278135Y-93143081D01*
X156419602Y-93226744D01*
X156430035Y-93229775D01*
X156577426Y-93272597D01*
X156577429Y-93272597D01*
X156577431Y-93272598D01*
X156614306Y-93275500D01*
X156614314Y-93275500D01*
X157045686Y-93275500D01*
X157045694Y-93275500D01*
X157082569Y-93272598D01*
X157082571Y-93272597D01*
X157082573Y-93272597D01*
X157124191Y-93260505D01*
X157240398Y-93226744D01*
X157381865Y-93143081D01*
X157381870Y-93143075D01*
X157388031Y-93138298D01*
X157389933Y-93140750D01*
X157438579Y-93114155D01*
X157508274Y-93119104D01*
X157540695Y-93139940D01*
X157541969Y-93138298D01*
X157548132Y-93143078D01*
X157548135Y-93143081D01*
X157689602Y-93226744D01*
X157700035Y-93229775D01*
X157847426Y-93272597D01*
X157847429Y-93272597D01*
X157847431Y-93272598D01*
X157884306Y-93275500D01*
X157884314Y-93275500D01*
X158315686Y-93275500D01*
X158315694Y-93275500D01*
X158352569Y-93272598D01*
X158352571Y-93272597D01*
X158352573Y-93272597D01*
X158394191Y-93260505D01*
X158510398Y-93226744D01*
X158651865Y-93143081D01*
X158651870Y-93143075D01*
X158658031Y-93138298D01*
X158659933Y-93140750D01*
X158708579Y-93114155D01*
X158778274Y-93119104D01*
X158810695Y-93139940D01*
X158811969Y-93138298D01*
X158818132Y-93143078D01*
X158818135Y-93143081D01*
X158959602Y-93226744D01*
X158970035Y-93229775D01*
X159117426Y-93272597D01*
X159117429Y-93272597D01*
X159117431Y-93272598D01*
X159154306Y-93275500D01*
X159154314Y-93275500D01*
X159585686Y-93275500D01*
X159585694Y-93275500D01*
X159622569Y-93272598D01*
X159622571Y-93272597D01*
X159622573Y-93272597D01*
X159664191Y-93260505D01*
X159780398Y-93226744D01*
X159921865Y-93143081D01*
X159921870Y-93143075D01*
X159928031Y-93138298D01*
X159929933Y-93140750D01*
X159978579Y-93114155D01*
X160048274Y-93119104D01*
X160080695Y-93139940D01*
X160081969Y-93138298D01*
X160088132Y-93143078D01*
X160088135Y-93143081D01*
X160229602Y-93226744D01*
X160240035Y-93229775D01*
X160387426Y-93272597D01*
X160387429Y-93272597D01*
X160387431Y-93272598D01*
X160424306Y-93275500D01*
X160424314Y-93275500D01*
X160855686Y-93275500D01*
X160855694Y-93275500D01*
X160892569Y-93272598D01*
X160892571Y-93272597D01*
X160892573Y-93272597D01*
X160934191Y-93260505D01*
X161050398Y-93226744D01*
X161191865Y-93143081D01*
X161191870Y-93143075D01*
X161198031Y-93138298D01*
X161199933Y-93140750D01*
X161248579Y-93114155D01*
X161318274Y-93119104D01*
X161350695Y-93139940D01*
X161351969Y-93138298D01*
X161358132Y-93143078D01*
X161358135Y-93143081D01*
X161499602Y-93226744D01*
X161510035Y-93229775D01*
X161657426Y-93272597D01*
X161657429Y-93272597D01*
X161657431Y-93272598D01*
X161694306Y-93275500D01*
X161694314Y-93275500D01*
X162125686Y-93275500D01*
X162125694Y-93275500D01*
X162162569Y-93272598D01*
X162162571Y-93272597D01*
X162162573Y-93272597D01*
X162204191Y-93260505D01*
X162320398Y-93226744D01*
X162461865Y-93143081D01*
X162461870Y-93143075D01*
X162468031Y-93138298D01*
X162469933Y-93140750D01*
X162518579Y-93114155D01*
X162588274Y-93119104D01*
X162620695Y-93139940D01*
X162621969Y-93138298D01*
X162628132Y-93143078D01*
X162628135Y-93143081D01*
X162769602Y-93226744D01*
X162780035Y-93229775D01*
X162927426Y-93272597D01*
X162927429Y-93272597D01*
X162927431Y-93272598D01*
X162964306Y-93275500D01*
X162964314Y-93275500D01*
X163395686Y-93275500D01*
X163395694Y-93275500D01*
X163432569Y-93272598D01*
X163432571Y-93272597D01*
X163432573Y-93272597D01*
X163474191Y-93260505D01*
X163590398Y-93226744D01*
X163731865Y-93143081D01*
X163848081Y-93026865D01*
X163886809Y-92961378D01*
X163895109Y-92953628D01*
X163899828Y-92943297D01*
X163920189Y-92930211D01*
X163937878Y-92913696D01*
X163950570Y-92910686D01*
X163958606Y-92905523D01*
X163993541Y-92900500D01*
X164112770Y-92900500D01*
X164179809Y-92920185D01*
X164200451Y-92936819D01*
X164256344Y-92992712D01*
X164405666Y-93084814D01*
X164572203Y-93139999D01*
X164674991Y-93150500D01*
X165725008Y-93150499D01*
X165725016Y-93150498D01*
X165725019Y-93150498D01*
X165797675Y-93143076D01*
X165827797Y-93139999D01*
X165994334Y-93084814D01*
X166143656Y-92992712D01*
X166237049Y-92899319D01*
X166263976Y-92884615D01*
X166289795Y-92868023D01*
X166295995Y-92867131D01*
X166298372Y-92865834D01*
X166324730Y-92863000D01*
X166325270Y-92863000D01*
X166392309Y-92882685D01*
X166412951Y-92899319D01*
X166481344Y-92967712D01*
X166630666Y-93059814D01*
X166797203Y-93114999D01*
X166899991Y-93125500D01*
X167900008Y-93125499D01*
X167900016Y-93125498D01*
X167900019Y-93125498D01*
X167962611Y-93119104D01*
X168002797Y-93114999D01*
X168169334Y-93059814D01*
X168318656Y-92967712D01*
X168362319Y-92924049D01*
X168423642Y-92890564D01*
X168493334Y-92895548D01*
X168537681Y-92924049D01*
X168581344Y-92967712D01*
X168730666Y-93059814D01*
X168897203Y-93114999D01*
X168999991Y-93125500D01*
X170000008Y-93125499D01*
X170000016Y-93125498D01*
X170000019Y-93125498D01*
X170062611Y-93119104D01*
X170102797Y-93114999D01*
X170269334Y-93059814D01*
X170418656Y-92967712D01*
X170462319Y-92924049D01*
X170523642Y-92890564D01*
X170593334Y-92895548D01*
X170637681Y-92924049D01*
X170681344Y-92967712D01*
X170830666Y-93059814D01*
X170997203Y-93114999D01*
X171099991Y-93125500D01*
X172100008Y-93125499D01*
X172100016Y-93125498D01*
X172100019Y-93125498D01*
X172162611Y-93119104D01*
X172202797Y-93114999D01*
X172369334Y-93059814D01*
X172518656Y-92967712D01*
X172518664Y-92967703D01*
X172523085Y-92964209D01*
X172587879Y-92938066D01*
X172656522Y-92951103D01*
X172676915Y-92964209D01*
X172681339Y-92967707D01*
X172681344Y-92967712D01*
X172830666Y-93059814D01*
X172997203Y-93114999D01*
X173099991Y-93125500D01*
X174100008Y-93125499D01*
X174100016Y-93125498D01*
X174100019Y-93125498D01*
X174162611Y-93119104D01*
X174202797Y-93114999D01*
X174369334Y-93059814D01*
X174518656Y-92967712D01*
X174642712Y-92843656D01*
X174734814Y-92694334D01*
X174789999Y-92527797D01*
X174792642Y-92501921D01*
X174819037Y-92437231D01*
X174876217Y-92397078D01*
X174946028Y-92394214D01*
X175006305Y-92429547D01*
X175037911Y-92491859D01*
X175040000Y-92514523D01*
X175040000Y-93164971D01*
X175040001Y-93164987D01*
X175050494Y-93267696D01*
X175050494Y-93267698D01*
X175089860Y-93386496D01*
X175092262Y-93456325D01*
X175056530Y-93516366D01*
X174994009Y-93547559D01*
X174972154Y-93549500D01*
X139562230Y-93549500D01*
X139495191Y-93529815D01*
X139474549Y-93513181D01*
X138748549Y-92787181D01*
X138715064Y-92725858D01*
X138720048Y-92656166D01*
X138761920Y-92600233D01*
X138827384Y-92575816D01*
X138836230Y-92575500D01*
X139225686Y-92575500D01*
X139225694Y-92575500D01*
X139262569Y-92572598D01*
X139262571Y-92572597D01*
X139262573Y-92572597D01*
X139312681Y-92558039D01*
X139420398Y-92526744D01*
X139561865Y-92443081D01*
X139561870Y-92443075D01*
X139568031Y-92438298D01*
X139569933Y-92440750D01*
X139618579Y-92414155D01*
X139688274Y-92419104D01*
X139720695Y-92439940D01*
X139721969Y-92438298D01*
X139728132Y-92443078D01*
X139728135Y-92443081D01*
X139869602Y-92526744D01*
X139911224Y-92538836D01*
X140027426Y-92572597D01*
X140027429Y-92572597D01*
X140027431Y-92572598D01*
X140064306Y-92575500D01*
X140064314Y-92575500D01*
X140495686Y-92575500D01*
X140495694Y-92575500D01*
X140532569Y-92572598D01*
X140532571Y-92572597D01*
X140532573Y-92572597D01*
X140582681Y-92558039D01*
X140690398Y-92526744D01*
X140831865Y-92443081D01*
X140831870Y-92443075D01*
X140838031Y-92438298D01*
X140839933Y-92440750D01*
X140888579Y-92414155D01*
X140958274Y-92419104D01*
X140990695Y-92439940D01*
X140991969Y-92438298D01*
X140998132Y-92443078D01*
X140998135Y-92443081D01*
X141139602Y-92526744D01*
X141181224Y-92538836D01*
X141297426Y-92572597D01*
X141297429Y-92572597D01*
X141297431Y-92572598D01*
X141334306Y-92575500D01*
X141334314Y-92575500D01*
X141765686Y-92575500D01*
X141765694Y-92575500D01*
X141802569Y-92572598D01*
X141802571Y-92572597D01*
X141802573Y-92572597D01*
X141852681Y-92558039D01*
X141960398Y-92526744D01*
X142101865Y-92443081D01*
X142218081Y-92326865D01*
X142301744Y-92185398D01*
X142347598Y-92027569D01*
X142350500Y-91990694D01*
X142350500Y-90224500D01*
X142370185Y-90157461D01*
X142422989Y-90111706D01*
X142474500Y-90100500D01*
X145599903Y-90100500D01*
X145666942Y-90120185D01*
X145687584Y-90136819D01*
X146215139Y-90664374D01*
X146215149Y-90664385D01*
X146219479Y-90668715D01*
X146219480Y-90668716D01*
X146331284Y-90780520D01*
X146383067Y-90810416D01*
X146418095Y-90830639D01*
X146418097Y-90830641D01*
X146456151Y-90852611D01*
X146468215Y-90859577D01*
X146620943Y-90900501D01*
X146620946Y-90900501D01*
X146786653Y-90900501D01*
X146786669Y-90900500D01*
X148813331Y-90900500D01*
X148813347Y-90900501D01*
X148820943Y-90900501D01*
X148979054Y-90900501D01*
X148979057Y-90900501D01*
X149131785Y-90859577D01*
X149181904Y-90830639D01*
X149268716Y-90780520D01*
X149380520Y-90668716D01*
X149380520Y-90668714D01*
X149390728Y-90658507D01*
X149390729Y-90658504D01*
X150214665Y-89834570D01*
X150275984Y-89801088D01*
X150278151Y-89800637D01*
X150278840Y-89800500D01*
X150278842Y-89800500D01*
X150433497Y-89769737D01*
X150579179Y-89709394D01*
X150710289Y-89621789D01*
X150821789Y-89510289D01*
X150909394Y-89379179D01*
X150969737Y-89233497D01*
X151000500Y-89078842D01*
X151000500Y-88921158D01*
X151000500Y-88921155D01*
X151000499Y-88921153D01*
X150984778Y-88842120D01*
X150969737Y-88766503D01*
X150933569Y-88679184D01*
X150909397Y-88620827D01*
X150909390Y-88620814D01*
X150821789Y-88489711D01*
X150821786Y-88489707D01*
X150710292Y-88378213D01*
X150710288Y-88378210D01*
X150579185Y-88290609D01*
X150579172Y-88290602D01*
X150433501Y-88230264D01*
X150433489Y-88230261D01*
X150278845Y-88199500D01*
X150278842Y-88199500D01*
X150121158Y-88199500D01*
X150121155Y-88199500D01*
X149966510Y-88230261D01*
X149966498Y-88230264D01*
X149820827Y-88290602D01*
X149820814Y-88290609D01*
X149689711Y-88378210D01*
X149689707Y-88378213D01*
X149578213Y-88489707D01*
X149578210Y-88489711D01*
X149490609Y-88620814D01*
X149490602Y-88620827D01*
X149430264Y-88766498D01*
X149430261Y-88766508D01*
X149403489Y-88901099D01*
X149371104Y-88963010D01*
X149310388Y-88997584D01*
X149240618Y-88993843D01*
X149212981Y-88980009D01*
X149079185Y-88890609D01*
X149079172Y-88890602D01*
X148933501Y-88830264D01*
X148933489Y-88830261D01*
X148778845Y-88799500D01*
X148778842Y-88799500D01*
X148686555Y-88799500D01*
X148619516Y-88779815D01*
X148573761Y-88727011D01*
X148563817Y-88657853D01*
X148568840Y-88639588D01*
X148567969Y-88639324D01*
X148569731Y-88633509D01*
X148569737Y-88633497D01*
X148600500Y-88478842D01*
X148600500Y-88321158D01*
X148600500Y-88321155D01*
X148600499Y-88321153D01*
X148583889Y-88237651D01*
X148569737Y-88166503D01*
X148566966Y-88159812D01*
X148509397Y-88020827D01*
X148509390Y-88020814D01*
X148421789Y-87889711D01*
X148421786Y-87889707D01*
X148310292Y-87778213D01*
X148310288Y-87778210D01*
X148179185Y-87690609D01*
X148179172Y-87690602D01*
X148033501Y-87630264D01*
X148033492Y-87630261D01*
X147978166Y-87619256D01*
X147916256Y-87586870D01*
X147881682Y-87526154D01*
X147880750Y-87521874D01*
X147869737Y-87466503D01*
X147832482Y-87376561D01*
X147809397Y-87320827D01*
X147809390Y-87320814D01*
X147721789Y-87189711D01*
X147721786Y-87189707D01*
X147610292Y-87078213D01*
X147610288Y-87078210D01*
X147479185Y-86990609D01*
X147479172Y-86990602D01*
X147333501Y-86930264D01*
X147333489Y-86930261D01*
X147178845Y-86899500D01*
X147178842Y-86899500D01*
X147021158Y-86899500D01*
X147021155Y-86899500D01*
X146866510Y-86930261D01*
X146866498Y-86930264D01*
X146720827Y-86990602D01*
X146720814Y-86990609D01*
X146589125Y-87078602D01*
X146522447Y-87099480D01*
X146520234Y-87099500D01*
X142474500Y-87099500D01*
X142407461Y-87079815D01*
X142361706Y-87027011D01*
X142350500Y-86975500D01*
X142350500Y-85259313D01*
X142350499Y-85259298D01*
X142347598Y-85222432D01*
X142347597Y-85222426D01*
X142301745Y-85064606D01*
X142301744Y-85064603D01*
X142301744Y-85064602D01*
X142218081Y-84923135D01*
X142218079Y-84923133D01*
X142218076Y-84923129D01*
X142101870Y-84806923D01*
X142101862Y-84806917D01*
X142023681Y-84760681D01*
X141960398Y-84723256D01*
X141960397Y-84723255D01*
X141960396Y-84723255D01*
X141960393Y-84723254D01*
X141802573Y-84677402D01*
X141802567Y-84677401D01*
X141765701Y-84674500D01*
X141765694Y-84674500D01*
X141334306Y-84674500D01*
X141334298Y-84674500D01*
X141297432Y-84677401D01*
X141297426Y-84677402D01*
X141139606Y-84723254D01*
X141139603Y-84723255D01*
X140998137Y-84806917D01*
X140991969Y-84811702D01*
X140990072Y-84809256D01*
X140941358Y-84835857D01*
X140871666Y-84830873D01*
X140839296Y-84810069D01*
X140838031Y-84811702D01*
X140831862Y-84806917D01*
X140753681Y-84760681D01*
X140690398Y-84723256D01*
X140690397Y-84723255D01*
X140690396Y-84723255D01*
X140690393Y-84723254D01*
X140532573Y-84677402D01*
X140532567Y-84677401D01*
X140495701Y-84674500D01*
X140495694Y-84674500D01*
X140064306Y-84674500D01*
X140064298Y-84674500D01*
X140027432Y-84677401D01*
X140027426Y-84677402D01*
X139869606Y-84723254D01*
X139869603Y-84723255D01*
X139728137Y-84806917D01*
X139721969Y-84811702D01*
X139720072Y-84809256D01*
X139671358Y-84835857D01*
X139601666Y-84830873D01*
X139569296Y-84810069D01*
X139568031Y-84811702D01*
X139561862Y-84806917D01*
X139483681Y-84760681D01*
X139420398Y-84723256D01*
X139420397Y-84723255D01*
X139420396Y-84723255D01*
X139420393Y-84723254D01*
X139262573Y-84677402D01*
X139262567Y-84677401D01*
X139225701Y-84674500D01*
X139225694Y-84674500D01*
X138794306Y-84674500D01*
X138794298Y-84674500D01*
X138757432Y-84677401D01*
X138757426Y-84677402D01*
X138599606Y-84723254D01*
X138599603Y-84723255D01*
X138458137Y-84806917D01*
X138451969Y-84811702D01*
X138450072Y-84809256D01*
X138401358Y-84835857D01*
X138331666Y-84830873D01*
X138299296Y-84810069D01*
X138298031Y-84811702D01*
X138291862Y-84806917D01*
X138213681Y-84760681D01*
X138150398Y-84723256D01*
X138150397Y-84723255D01*
X138150396Y-84723255D01*
X138150393Y-84723254D01*
X137992573Y-84677402D01*
X137992567Y-84677401D01*
X137955701Y-84674500D01*
X137955694Y-84674500D01*
X137524306Y-84674500D01*
X137524298Y-84674500D01*
X137487432Y-84677401D01*
X137487426Y-84677402D01*
X137329606Y-84723254D01*
X137329603Y-84723255D01*
X137188137Y-84806917D01*
X137181969Y-84811702D01*
X137180072Y-84809256D01*
X137131358Y-84835857D01*
X137061666Y-84830873D01*
X137029296Y-84810069D01*
X137028031Y-84811702D01*
X137021862Y-84806917D01*
X136943681Y-84760681D01*
X136880398Y-84723256D01*
X136880397Y-84723255D01*
X136880396Y-84723255D01*
X136880393Y-84723254D01*
X136722573Y-84677402D01*
X136722567Y-84677401D01*
X136685701Y-84674500D01*
X136685694Y-84674500D01*
X136254306Y-84674500D01*
X136254298Y-84674500D01*
X136217432Y-84677401D01*
X136217426Y-84677402D01*
X136059606Y-84723254D01*
X136059603Y-84723255D01*
X135918137Y-84806917D01*
X135911969Y-84811702D01*
X135910072Y-84809256D01*
X135861358Y-84835857D01*
X135791666Y-84830873D01*
X135759296Y-84810069D01*
X135758031Y-84811702D01*
X135751862Y-84806917D01*
X135673681Y-84760681D01*
X135610398Y-84723256D01*
X135610397Y-84723255D01*
X135610396Y-84723255D01*
X135610393Y-84723254D01*
X135452573Y-84677402D01*
X135452567Y-84677401D01*
X135415701Y-84674500D01*
X135415694Y-84674500D01*
X134984306Y-84674500D01*
X134984298Y-84674500D01*
X134947432Y-84677401D01*
X134947426Y-84677402D01*
X134789606Y-84723254D01*
X134789603Y-84723255D01*
X134648137Y-84806917D01*
X134641969Y-84811702D01*
X134640072Y-84809256D01*
X134591358Y-84835857D01*
X134521666Y-84830873D01*
X134489296Y-84810069D01*
X134488031Y-84811702D01*
X134481862Y-84806917D01*
X134403681Y-84760681D01*
X134340398Y-84723256D01*
X134340397Y-84723255D01*
X134340396Y-84723255D01*
X134340393Y-84723254D01*
X134182573Y-84677402D01*
X134182567Y-84677401D01*
X134145701Y-84674500D01*
X134145694Y-84674500D01*
X133714306Y-84674500D01*
X133714298Y-84674500D01*
X133677432Y-84677401D01*
X133677426Y-84677402D01*
X133519606Y-84723254D01*
X133519603Y-84723255D01*
X133378140Y-84806915D01*
X133371974Y-84811699D01*
X133370174Y-84809379D01*
X133320913Y-84836230D01*
X133251225Y-84831193D01*
X133218992Y-84810461D01*
X133217722Y-84812100D01*
X133211552Y-84807314D01*
X133070196Y-84723717D01*
X133070193Y-84723716D01*
X132912494Y-84677900D01*
X132912497Y-84677900D01*
X132910000Y-84677703D01*
X132910000Y-87622295D01*
X132910001Y-87622295D01*
X132912486Y-87622100D01*
X133070198Y-87576281D01*
X133142379Y-87533594D01*
X133148903Y-87531938D01*
X133153989Y-87527532D01*
X133182335Y-87523456D01*
X133210103Y-87516411D01*
X133216486Y-87518545D01*
X133223147Y-87517588D01*
X133249201Y-87529486D01*
X133276365Y-87538571D01*
X133280579Y-87543816D01*
X133286703Y-87546613D01*
X133302189Y-87570710D01*
X133320129Y-87593037D01*
X133321730Y-87601116D01*
X133324477Y-87605391D01*
X133329500Y-87640326D01*
X133329500Y-87643330D01*
X133329499Y-87643348D01*
X133329499Y-87809054D01*
X133329498Y-87809054D01*
X133370423Y-87961786D01*
X133370424Y-87961787D01*
X133392775Y-88000500D01*
X133449480Y-88098716D01*
X133449482Y-88098718D01*
X133568349Y-88217585D01*
X133568355Y-88217590D01*
X134824199Y-89473434D01*
X134835615Y-89494340D01*
X134850707Y-89512774D01*
X134852053Y-89524445D01*
X134857684Y-89534757D01*
X134855984Y-89558518D01*
X134858715Y-89582183D01*
X134853538Y-89592729D01*
X134852700Y-89604449D01*
X134838423Y-89623519D01*
X134827927Y-89644903D01*
X134816126Y-89653304D01*
X134810828Y-89660382D01*
X134800618Y-89667262D01*
X134791702Y-89672645D01*
X134789602Y-89673256D01*
X134648135Y-89756919D01*
X134642015Y-89763038D01*
X134629100Y-89770838D01*
X134609314Y-89776052D01*
X134591358Y-89785857D01*
X134576217Y-89784774D01*
X134561537Y-89788643D01*
X134542074Y-89782332D01*
X134521666Y-89780873D01*
X134505469Y-89770464D01*
X134495073Y-89767093D01*
X134489351Y-89760105D01*
X134489296Y-89760069D01*
X134488031Y-89761702D01*
X134481862Y-89756917D01*
X134340396Y-89673255D01*
X134340393Y-89673254D01*
X134182573Y-89627402D01*
X134182567Y-89627401D01*
X134145701Y-89624500D01*
X134145694Y-89624500D01*
X133714306Y-89624500D01*
X133714298Y-89624500D01*
X133677432Y-89627401D01*
X133677426Y-89627402D01*
X133519606Y-89673254D01*
X133519603Y-89673255D01*
X133378137Y-89756917D01*
X133371969Y-89761702D01*
X133370072Y-89759256D01*
X133321358Y-89785857D01*
X133251666Y-89780873D01*
X133219296Y-89760069D01*
X133218031Y-89761702D01*
X133211862Y-89756917D01*
X133070396Y-89673255D01*
X133070393Y-89673254D01*
X132912573Y-89627402D01*
X132912567Y-89627401D01*
X132875701Y-89624500D01*
X132875694Y-89624500D01*
X132444306Y-89624500D01*
X132444298Y-89624500D01*
X132407432Y-89627401D01*
X132407426Y-89627402D01*
X132249606Y-89673254D01*
X132249603Y-89673255D01*
X132108137Y-89756917D01*
X132108129Y-89756923D01*
X131991923Y-89873129D01*
X131991917Y-89873137D01*
X131908255Y-90014603D01*
X131908254Y-90014606D01*
X131862402Y-90172426D01*
X131862401Y-90172432D01*
X131859500Y-90209298D01*
X131859500Y-91990701D01*
X131862401Y-92027567D01*
X131862402Y-92027573D01*
X131904576Y-92172733D01*
X131909500Y-92207328D01*
X131909500Y-94275500D01*
X131889815Y-94342539D01*
X131837011Y-94388294D01*
X131785500Y-94399500D01*
X131167797Y-94399500D01*
X131155644Y-94398903D01*
X131153542Y-94398696D01*
X131153541Y-94398696D01*
X118998541Y-94398696D01*
X112620783Y-94398696D01*
X112553744Y-94379011D01*
X112533102Y-94362377D01*
X111436819Y-93266094D01*
X111403334Y-93204771D01*
X111400500Y-93178413D01*
X111400500Y-88424499D01*
X111420185Y-88357460D01*
X111472989Y-88311705D01*
X111524500Y-88300499D01*
X114150002Y-88300499D01*
X114150008Y-88300499D01*
X114252797Y-88289999D01*
X114419334Y-88234814D01*
X114568656Y-88142712D01*
X114692712Y-88018656D01*
X114784814Y-87869334D01*
X114839999Y-87702797D01*
X114850500Y-87600009D01*
X114850500Y-87599986D01*
X115750001Y-87599986D01*
X115760494Y-87702697D01*
X115815641Y-87869119D01*
X115815643Y-87869124D01*
X115907684Y-88018345D01*
X116031654Y-88142315D01*
X116180875Y-88234356D01*
X116180880Y-88234358D01*
X116347302Y-88289505D01*
X116347309Y-88289506D01*
X116450019Y-88299999D01*
X117749999Y-88299999D01*
X118250000Y-88299999D01*
X119549972Y-88299999D01*
X119549986Y-88299998D01*
X119652697Y-88289505D01*
X119819119Y-88234358D01*
X119819124Y-88234356D01*
X119968345Y-88142315D01*
X120062319Y-88048342D01*
X120123642Y-88014857D01*
X120193334Y-88019841D01*
X120237681Y-88048342D01*
X120331654Y-88142315D01*
X120480875Y-88234356D01*
X120480880Y-88234358D01*
X120647302Y-88289505D01*
X120647309Y-88289506D01*
X120750019Y-88299999D01*
X122049999Y-88299999D01*
X122550000Y-88299999D01*
X123849972Y-88299999D01*
X123849986Y-88299998D01*
X123952697Y-88289505D01*
X124119119Y-88234358D01*
X124119124Y-88234356D01*
X124268345Y-88142315D01*
X124392315Y-88018345D01*
X124484356Y-87869124D01*
X124484358Y-87869119D01*
X124539505Y-87702697D01*
X124539506Y-87702690D01*
X124549999Y-87599986D01*
X124550000Y-87599973D01*
X124550000Y-87250000D01*
X122550000Y-87250000D01*
X122550000Y-88299999D01*
X122049999Y-88299999D01*
X122050000Y-88299998D01*
X122050000Y-87250000D01*
X118250000Y-87250000D01*
X118250000Y-88299999D01*
X117749999Y-88299999D01*
X117750000Y-88299998D01*
X117750000Y-87250000D01*
X115750001Y-87250000D01*
X115750001Y-87599986D01*
X114850500Y-87599986D01*
X114850499Y-86990609D01*
X114850499Y-86400013D01*
X115750000Y-86400013D01*
X115750000Y-86750000D01*
X117750000Y-86750000D01*
X118250000Y-86750000D01*
X122050000Y-86750000D01*
X122550000Y-86750000D01*
X124549999Y-86750000D01*
X124549999Y-86400028D01*
X124549998Y-86400013D01*
X124539505Y-86297302D01*
X124484358Y-86130880D01*
X124484356Y-86130875D01*
X124392315Y-85981654D01*
X124268345Y-85857684D01*
X124119124Y-85765643D01*
X124119119Y-85765641D01*
X123952697Y-85710494D01*
X123952690Y-85710493D01*
X123849986Y-85700000D01*
X122550000Y-85700000D01*
X122550000Y-86750000D01*
X122050000Y-86750000D01*
X122050000Y-85700000D01*
X120750028Y-85700000D01*
X120750012Y-85700001D01*
X120647302Y-85710494D01*
X120480880Y-85765641D01*
X120480875Y-85765643D01*
X120331654Y-85857684D01*
X120237681Y-85951658D01*
X120176358Y-85985143D01*
X120106666Y-85980159D01*
X120062319Y-85951658D01*
X119968345Y-85857684D01*
X119819124Y-85765643D01*
X119819119Y-85765641D01*
X119652697Y-85710494D01*
X119652690Y-85710493D01*
X119549986Y-85700000D01*
X118250000Y-85700000D01*
X118250000Y-86750000D01*
X117750000Y-86750000D01*
X117750000Y-85700000D01*
X116450028Y-85700000D01*
X116450012Y-85700001D01*
X116347302Y-85710494D01*
X116180880Y-85765641D01*
X116180875Y-85765643D01*
X116031654Y-85857684D01*
X115907684Y-85981654D01*
X115815643Y-86130875D01*
X115815641Y-86130880D01*
X115760494Y-86297302D01*
X115760493Y-86297309D01*
X115750000Y-86400013D01*
X114850499Y-86400013D01*
X114850499Y-86399998D01*
X114850498Y-86399981D01*
X114839999Y-86297203D01*
X114839998Y-86297200D01*
X114817890Y-86230482D01*
X114784814Y-86130666D01*
X114692712Y-85981344D01*
X114568656Y-85857288D01*
X114452257Y-85785493D01*
X114419336Y-85765187D01*
X114419331Y-85765185D01*
X114417862Y-85764698D01*
X114252797Y-85710001D01*
X114252795Y-85710000D01*
X114150016Y-85699500D01*
X114150009Y-85699500D01*
X111524500Y-85699500D01*
X111457461Y-85679815D01*
X111411706Y-85627011D01*
X111400500Y-85575500D01*
X111400500Y-77124500D01*
X111420185Y-77057461D01*
X111472989Y-77011706D01*
X111524500Y-77000500D01*
X113238718Y-77000500D01*
X113305757Y-77020185D01*
X113351512Y-77072989D01*
X113361191Y-77105102D01*
X113380624Y-77227799D01*
X113382754Y-77241243D01*
X113432497Y-77394336D01*
X113448444Y-77443414D01*
X113544951Y-77632820D01*
X113672759Y-77808734D01*
X113671888Y-77809366D01*
X113698357Y-77868401D01*
X113699500Y-77885199D01*
X113699500Y-78914800D01*
X113679815Y-78981839D01*
X113670506Y-78994365D01*
X113544951Y-79167179D01*
X113448444Y-79356585D01*
X113382753Y-79558760D01*
X113355079Y-79733489D01*
X113349500Y-79768713D01*
X113349500Y-80231287D01*
X113353184Y-80254548D01*
X113373136Y-80380521D01*
X113382754Y-80441243D01*
X113445221Y-80633497D01*
X113448444Y-80643414D01*
X113544951Y-80832820D01*
X113669890Y-81004786D01*
X113820213Y-81155109D01*
X113992179Y-81280048D01*
X113992181Y-81280049D01*
X113992184Y-81280051D01*
X114181588Y-81376557D01*
X114383757Y-81442246D01*
X114593713Y-81475500D01*
X114593714Y-81475500D01*
X114806286Y-81475500D01*
X114806287Y-81475500D01*
X115016243Y-81442246D01*
X115218412Y-81376557D01*
X115407816Y-81280051D01*
X115445579Y-81252615D01*
X115579786Y-81155109D01*
X115579788Y-81155106D01*
X115579792Y-81155104D01*
X115730104Y-81004792D01*
X115849991Y-80839779D01*
X115905320Y-80797115D01*
X115974933Y-80791136D01*
X116036729Y-80823741D01*
X116050627Y-80839781D01*
X116170272Y-81004459D01*
X116170276Y-81004464D01*
X116320535Y-81154723D01*
X116320540Y-81154727D01*
X116492442Y-81279620D01*
X116681782Y-81376095D01*
X116883871Y-81441757D01*
X116950000Y-81452231D01*
X116950000Y-80404145D01*
X117016657Y-80442630D01*
X117137465Y-80475000D01*
X117262535Y-80475000D01*
X117383343Y-80442630D01*
X117450000Y-80404145D01*
X117450000Y-81452230D01*
X117516126Y-81441757D01*
X117516129Y-81441757D01*
X117718217Y-81376095D01*
X117907557Y-81279620D01*
X118079459Y-81154727D01*
X118079464Y-81154723D01*
X118229721Y-81004466D01*
X118349371Y-80839781D01*
X118404701Y-80797115D01*
X118474314Y-80791136D01*
X118536110Y-80823741D01*
X118550008Y-80839781D01*
X118669890Y-81004785D01*
X118669894Y-81004790D01*
X118820213Y-81155109D01*
X118992179Y-81280048D01*
X118992181Y-81280049D01*
X118992184Y-81280051D01*
X119181588Y-81376557D01*
X119383757Y-81442246D01*
X119593713Y-81475500D01*
X119593714Y-81475500D01*
X119806286Y-81475500D01*
X119806287Y-81475500D01*
X120016243Y-81442246D01*
X120218412Y-81376557D01*
X120407816Y-81280051D01*
X120445579Y-81252615D01*
X120579786Y-81155109D01*
X120579788Y-81155106D01*
X120579792Y-81155104D01*
X120730104Y-81004792D01*
X120849683Y-80840204D01*
X120905011Y-80797540D01*
X120974624Y-80791561D01*
X121036420Y-80824166D01*
X121050313Y-80840199D01*
X121156906Y-80986913D01*
X121169896Y-81004792D01*
X121320213Y-81155109D01*
X121492179Y-81280048D01*
X121492181Y-81280049D01*
X121492184Y-81280051D01*
X121681588Y-81376557D01*
X121883757Y-81442246D01*
X122093713Y-81475500D01*
X122093714Y-81475500D01*
X122306286Y-81475500D01*
X122306287Y-81475500D01*
X122516243Y-81442246D01*
X122718412Y-81376557D01*
X122907816Y-81280051D01*
X122945579Y-81252615D01*
X123079786Y-81155109D01*
X123079788Y-81155106D01*
X123079792Y-81155104D01*
X123230104Y-81004792D01*
X123349683Y-80840204D01*
X123405011Y-80797540D01*
X123474624Y-80791561D01*
X123536420Y-80824166D01*
X123550313Y-80840199D01*
X123656906Y-80986913D01*
X123669896Y-81004792D01*
X123820213Y-81155109D01*
X123992179Y-81280048D01*
X123992181Y-81280049D01*
X123992184Y-81280051D01*
X124181588Y-81376557D01*
X124383757Y-81442246D01*
X124593713Y-81475500D01*
X124593714Y-81475500D01*
X124806286Y-81475500D01*
X124806287Y-81475500D01*
X125016243Y-81442246D01*
X125218412Y-81376557D01*
X125407816Y-81280051D01*
X125579792Y-81155104D01*
X125718604Y-81016291D01*
X125779923Y-80982809D01*
X125849615Y-80987793D01*
X125905549Y-81029664D01*
X125911821Y-81038878D01*
X125915185Y-81044333D01*
X125915186Y-81044334D01*
X126007288Y-81193656D01*
X126131344Y-81317712D01*
X126140591Y-81323416D01*
X126187318Y-81375360D01*
X126199500Y-81428957D01*
X126199500Y-85582465D01*
X126179815Y-85649504D01*
X126127011Y-85695259D01*
X126088102Y-85705823D01*
X126047202Y-85710001D01*
X126047200Y-85710001D01*
X125880668Y-85765185D01*
X125880663Y-85765187D01*
X125731342Y-85857289D01*
X125607289Y-85981342D01*
X125515187Y-86130663D01*
X125515185Y-86130668D01*
X125487349Y-86214670D01*
X125460001Y-86297203D01*
X125460001Y-86297204D01*
X125460000Y-86297204D01*
X125449500Y-86399983D01*
X125449500Y-87600001D01*
X125449501Y-87600018D01*
X125460000Y-87702796D01*
X125460001Y-87702799D01*
X125515185Y-87869331D01*
X125515187Y-87869336D01*
X125530166Y-87893621D01*
X125607288Y-88018656D01*
X125731344Y-88142712D01*
X125880666Y-88234814D01*
X126047203Y-88289999D01*
X126149991Y-88300500D01*
X129250008Y-88300499D01*
X129352797Y-88289999D01*
X129519334Y-88234814D01*
X129668656Y-88142712D01*
X129792712Y-88018656D01*
X129884814Y-87869334D01*
X129939999Y-87702797D01*
X129950500Y-87600009D01*
X129950500Y-87040649D01*
X131860000Y-87040649D01*
X131862899Y-87077489D01*
X131862900Y-87077495D01*
X131908716Y-87235193D01*
X131908717Y-87235196D01*
X131992314Y-87376552D01*
X131992321Y-87376561D01*
X132108438Y-87492678D01*
X132108447Y-87492685D01*
X132249801Y-87576281D01*
X132407514Y-87622100D01*
X132407511Y-87622100D01*
X132409998Y-87622295D01*
X132410000Y-87622295D01*
X132410000Y-86400000D01*
X131860000Y-86400000D01*
X131860000Y-87040649D01*
X129950500Y-87040649D01*
X129950499Y-86399992D01*
X129939999Y-86297203D01*
X129884814Y-86130666D01*
X129792712Y-85981344D01*
X129668656Y-85857288D01*
X129552257Y-85785493D01*
X129519336Y-85765187D01*
X129519331Y-85765185D01*
X129517862Y-85764698D01*
X129352797Y-85710001D01*
X129352795Y-85710000D01*
X129250016Y-85699500D01*
X129250009Y-85699500D01*
X128324500Y-85699500D01*
X128257461Y-85679815D01*
X128211706Y-85627011D01*
X128200500Y-85575500D01*
X128200500Y-85259350D01*
X131860000Y-85259350D01*
X131860000Y-85900000D01*
X132410000Y-85900000D01*
X132410000Y-84677703D01*
X132407503Y-84677900D01*
X132249806Y-84723716D01*
X132249803Y-84723717D01*
X132108447Y-84807314D01*
X132108438Y-84807321D01*
X131992321Y-84923438D01*
X131992314Y-84923447D01*
X131908717Y-85064803D01*
X131908716Y-85064806D01*
X131862900Y-85222504D01*
X131862899Y-85222510D01*
X131860000Y-85259350D01*
X128200500Y-85259350D01*
X128200500Y-81428957D01*
X128220185Y-81361918D01*
X128259407Y-81323416D01*
X128268656Y-81317712D01*
X128392712Y-81193656D01*
X128484814Y-81044334D01*
X128539999Y-80877797D01*
X128550500Y-80775009D01*
X128550499Y-79224992D01*
X128548851Y-79208863D01*
X128539999Y-79122203D01*
X128539998Y-79122200D01*
X128519756Y-79061115D01*
X128484814Y-78955666D01*
X128392712Y-78806344D01*
X128268656Y-78682288D01*
X128132625Y-78598384D01*
X128119336Y-78590187D01*
X128119331Y-78590185D01*
X128086491Y-78579303D01*
X127952797Y-78535001D01*
X127952795Y-78535000D01*
X127850010Y-78524500D01*
X126549998Y-78524500D01*
X126549981Y-78524501D01*
X126447203Y-78535000D01*
X126447200Y-78535001D01*
X126280668Y-78590185D01*
X126280663Y-78590187D01*
X126131342Y-78682289D01*
X126007289Y-78806342D01*
X125911821Y-78961121D01*
X125859873Y-79007845D01*
X125790910Y-79019068D01*
X125726828Y-78991224D01*
X125718601Y-78983705D01*
X125579786Y-78844890D01*
X125407815Y-78719948D01*
X125407814Y-78719947D01*
X125368205Y-78699765D01*
X125317409Y-78651791D01*
X125300500Y-78589281D01*
X125300500Y-78210718D01*
X125320185Y-78143679D01*
X125368207Y-78100233D01*
X125407815Y-78080052D01*
X125407815Y-78080051D01*
X125407816Y-78080051D01*
X125564101Y-77966504D01*
X125579784Y-77955110D01*
X125579784Y-77955109D01*
X125579792Y-77955104D01*
X125718604Y-77816291D01*
X125779923Y-77782809D01*
X125849615Y-77787793D01*
X125905549Y-77829664D01*
X125911821Y-77838878D01*
X125915185Y-77844333D01*
X125915186Y-77844334D01*
X126007288Y-77993656D01*
X126131344Y-78117712D01*
X126280666Y-78209814D01*
X126447203Y-78264999D01*
X126549991Y-78275500D01*
X127850008Y-78275499D01*
X127952797Y-78264999D01*
X128119334Y-78209814D01*
X128268656Y-78117712D01*
X128392712Y-77993656D01*
X128484814Y-77844334D01*
X128539999Y-77677797D01*
X128550500Y-77575009D01*
X128550499Y-76024992D01*
X128548851Y-76008863D01*
X128539999Y-75922203D01*
X128539998Y-75922200D01*
X128528274Y-75886819D01*
X128484814Y-75755666D01*
X128392712Y-75606344D01*
X128268656Y-75482288D01*
X128119334Y-75390186D01*
X127952797Y-75335001D01*
X127952795Y-75335000D01*
X127850010Y-75324500D01*
X126549998Y-75324500D01*
X126549981Y-75324501D01*
X126447203Y-75335000D01*
X126447200Y-75335001D01*
X126280668Y-75390185D01*
X126280663Y-75390187D01*
X126131342Y-75482289D01*
X126007289Y-75606342D01*
X125911821Y-75761121D01*
X125859873Y-75807845D01*
X125790910Y-75819068D01*
X125726828Y-75791224D01*
X125718601Y-75783705D01*
X125579786Y-75644890D01*
X125407815Y-75519948D01*
X125407814Y-75519947D01*
X125368205Y-75499765D01*
X125317409Y-75451791D01*
X125300500Y-75389281D01*
X125300500Y-75000097D01*
X125320185Y-74933058D01*
X125336819Y-74912416D01*
X126712416Y-73536819D01*
X126773739Y-73503334D01*
X126800097Y-73500500D01*
X133026234Y-73500500D01*
X133093273Y-73520185D01*
X133095125Y-73521398D01*
X133226814Y-73609390D01*
X133226827Y-73609397D01*
X133372498Y-73669735D01*
X133372503Y-73669737D01*
X133500463Y-73695190D01*
X133527153Y-73700499D01*
X133527156Y-73700500D01*
X133527158Y-73700500D01*
X133684844Y-73700500D01*
X133684845Y-73700499D01*
X133839497Y-73669737D01*
X133985179Y-73609394D01*
X134116289Y-73521789D01*
X134227789Y-73410289D01*
X134315394Y-73279179D01*
X134375737Y-73133497D01*
X134394127Y-73041041D01*
X134406500Y-72978844D01*
X134406500Y-72850013D01*
X153175000Y-72850013D01*
X153175000Y-72900000D01*
X154150000Y-72900000D01*
X154650000Y-72900000D01*
X155624999Y-72900000D01*
X155624999Y-72850028D01*
X155624998Y-72850013D01*
X155614505Y-72747302D01*
X155559358Y-72580880D01*
X155559356Y-72580875D01*
X155467315Y-72431654D01*
X155343345Y-72307684D01*
X155194124Y-72215643D01*
X155194119Y-72215641D01*
X155027697Y-72160494D01*
X155027690Y-72160493D01*
X154924986Y-72150000D01*
X154650000Y-72150000D01*
X154650000Y-72900000D01*
X154150000Y-72900000D01*
X154150000Y-72150000D01*
X153875029Y-72150000D01*
X153875012Y-72150001D01*
X153772302Y-72160494D01*
X153605880Y-72215641D01*
X153605875Y-72215643D01*
X153456654Y-72307684D01*
X153332684Y-72431654D01*
X153240643Y-72580875D01*
X153240641Y-72580880D01*
X153185494Y-72747302D01*
X153185493Y-72747309D01*
X153175000Y-72850013D01*
X134406500Y-72850013D01*
X134406500Y-72821155D01*
X134406499Y-72821153D01*
X134396805Y-72772419D01*
X134375737Y-72666503D01*
X134324905Y-72543782D01*
X134315397Y-72520827D01*
X134315390Y-72520814D01*
X134227398Y-72389125D01*
X134206520Y-72322447D01*
X134206500Y-72320234D01*
X134206500Y-70107965D01*
X134226185Y-70040926D01*
X134278989Y-69995171D01*
X134283048Y-69993404D01*
X134404037Y-69943289D01*
X134404037Y-69943288D01*
X134404049Y-69943284D01*
X134608450Y-69825273D01*
X134795699Y-69681592D01*
X134962592Y-69514699D01*
X135106273Y-69327450D01*
X135224284Y-69123049D01*
X135314606Y-68904993D01*
X135375693Y-68677014D01*
X135406500Y-68443011D01*
X135406500Y-68206989D01*
X135375693Y-67972986D01*
X135314606Y-67745007D01*
X135224284Y-67526951D01*
X135224282Y-67526948D01*
X135224280Y-67526943D01*
X135182118Y-67453918D01*
X135106273Y-67322550D01*
X134962592Y-67135301D01*
X134962587Y-67135295D01*
X134795704Y-66968412D01*
X134795697Y-66968406D01*
X134608454Y-66824730D01*
X134608453Y-66824729D01*
X134608450Y-66824727D01*
X134498883Y-66761468D01*
X134447647Y-66731887D01*
X134399431Y-66681320D01*
X134386209Y-66612713D01*
X134412177Y-66547848D01*
X134469091Y-66507320D01*
X134509647Y-66500500D01*
X137702353Y-66500500D01*
X137769392Y-66520185D01*
X137815147Y-66572989D01*
X137825091Y-66642147D01*
X137796066Y-66705703D01*
X137764353Y-66731887D01*
X137603545Y-66824730D01*
X137416302Y-66968406D01*
X137416295Y-66968412D01*
X137249412Y-67135295D01*
X137249406Y-67135302D01*
X137105730Y-67322545D01*
X137105727Y-67322549D01*
X137105727Y-67322550D01*
X137098014Y-67335909D01*
X136987719Y-67526943D01*
X136987714Y-67526954D01*
X136897394Y-67745006D01*
X136836306Y-67972989D01*
X136805501Y-68206979D01*
X136805500Y-68206995D01*
X136805500Y-68443004D01*
X136805501Y-68443020D01*
X136836306Y-68677010D01*
X136897394Y-68904993D01*
X136987714Y-69123045D01*
X136987719Y-69123056D01*
X137058677Y-69245957D01*
X137105727Y-69327450D01*
X137105729Y-69327453D01*
X137105730Y-69327454D01*
X137249406Y-69514697D01*
X137249412Y-69514704D01*
X137416295Y-69681587D01*
X137416302Y-69681593D01*
X137526306Y-69766001D01*
X137603550Y-69825273D01*
X137807951Y-69943284D01*
X137807956Y-69943286D01*
X137807962Y-69943289D01*
X137928952Y-69993404D01*
X137983356Y-70037244D01*
X138005421Y-70103538D01*
X138005500Y-70107965D01*
X138005500Y-71420234D01*
X137985815Y-71487273D01*
X137984602Y-71489125D01*
X137896609Y-71620814D01*
X137896602Y-71620827D01*
X137836264Y-71766498D01*
X137836261Y-71766510D01*
X137805500Y-71921153D01*
X137805500Y-72078846D01*
X137836261Y-72233489D01*
X137836264Y-72233501D01*
X137896602Y-72379172D01*
X137896609Y-72379185D01*
X137984210Y-72510288D01*
X137984213Y-72510292D01*
X138095707Y-72621786D01*
X138095711Y-72621789D01*
X138226814Y-72709390D01*
X138226827Y-72709397D01*
X138372498Y-72769735D01*
X138372503Y-72769737D01*
X138527153Y-72800499D01*
X138527156Y-72800500D01*
X138527158Y-72800500D01*
X138684844Y-72800500D01*
X138684845Y-72800499D01*
X138839497Y-72769737D01*
X138906106Y-72742147D01*
X138929872Y-72732303D01*
X138985172Y-72709397D01*
X138985172Y-72709396D01*
X138985179Y-72709394D01*
X139116289Y-72621789D01*
X139227789Y-72510289D01*
X139315394Y-72379179D01*
X139375737Y-72233497D01*
X139406500Y-72078842D01*
X139406500Y-71921158D01*
X139406500Y-71921155D01*
X139406499Y-71921153D01*
X139386734Y-71821789D01*
X139375737Y-71766503D01*
X139352452Y-71710288D01*
X139315397Y-71620827D01*
X139315390Y-71620814D01*
X139227398Y-71489125D01*
X139206520Y-71422447D01*
X139206500Y-71420234D01*
X139206500Y-70107965D01*
X139226185Y-70040926D01*
X139278989Y-69995171D01*
X139283048Y-69993404D01*
X139404037Y-69943289D01*
X139404037Y-69943288D01*
X139404049Y-69943284D01*
X139608450Y-69825273D01*
X139795699Y-69681592D01*
X139962592Y-69514699D01*
X140106273Y-69327450D01*
X140224284Y-69123049D01*
X140314606Y-68904993D01*
X140375693Y-68677014D01*
X140406500Y-68443011D01*
X140406500Y-68206989D01*
X140375693Y-67972986D01*
X140314606Y-67745007D01*
X140224284Y-67526951D01*
X140224282Y-67526948D01*
X140224280Y-67526943D01*
X140182118Y-67453918D01*
X140106273Y-67322550D01*
X139962592Y-67135301D01*
X139962587Y-67135295D01*
X139795704Y-66968412D01*
X139795697Y-66968406D01*
X139608454Y-66824730D01*
X139608453Y-66824729D01*
X139608450Y-66824727D01*
X139498883Y-66761468D01*
X139447647Y-66731887D01*
X139399431Y-66681320D01*
X139386209Y-66612713D01*
X139412177Y-66547848D01*
X139469091Y-66507320D01*
X139509647Y-66500500D01*
X141825714Y-66500500D01*
X141892753Y-66520185D01*
X141938508Y-66572989D01*
X141948452Y-66642147D01*
X141924980Y-66698810D01*
X141896725Y-66736553D01*
X141862204Y-66782668D01*
X141862202Y-66782671D01*
X141811908Y-66917517D01*
X141806437Y-66968408D01*
X141805501Y-66977123D01*
X141805500Y-66977135D01*
X141805500Y-69672870D01*
X141805501Y-69672876D01*
X141811908Y-69732483D01*
X141862202Y-69867328D01*
X141862206Y-69867335D01*
X141948452Y-69982544D01*
X141948455Y-69982547D01*
X142063664Y-70068793D01*
X142063671Y-70068797D01*
X142108618Y-70085561D01*
X142198517Y-70119091D01*
X142258127Y-70125500D01*
X142881500Y-70125499D01*
X142948539Y-70145183D01*
X142994294Y-70197987D01*
X143005500Y-70249499D01*
X143005500Y-70620234D01*
X142985815Y-70687273D01*
X142984602Y-70689125D01*
X142896609Y-70820814D01*
X142896602Y-70820827D01*
X142836264Y-70966498D01*
X142836261Y-70966510D01*
X142805500Y-71121153D01*
X142805500Y-71278846D01*
X142836261Y-71433489D01*
X142836264Y-71433501D01*
X142896602Y-71579172D01*
X142896609Y-71579185D01*
X142984210Y-71710288D01*
X142984213Y-71710292D01*
X143095707Y-71821786D01*
X143095711Y-71821789D01*
X143226814Y-71909390D01*
X143226827Y-71909397D01*
X143372498Y-71969735D01*
X143372503Y-71969737D01*
X143518657Y-71998809D01*
X143527153Y-72000499D01*
X143527156Y-72000500D01*
X143527158Y-72000500D01*
X143684844Y-72000500D01*
X143684845Y-72000499D01*
X143839497Y-71969737D01*
X143985179Y-71909394D01*
X144116289Y-71821789D01*
X144227789Y-71710289D01*
X144315394Y-71579179D01*
X144375737Y-71433497D01*
X144406500Y-71278842D01*
X144406500Y-71121158D01*
X144406500Y-71121155D01*
X144406499Y-71121153D01*
X144401480Y-71095919D01*
X144375737Y-70966503D01*
X144358111Y-70923949D01*
X144315397Y-70820827D01*
X144315390Y-70820814D01*
X144227398Y-70689125D01*
X144206520Y-70622447D01*
X144206500Y-70620234D01*
X144206500Y-70249499D01*
X144226185Y-70182460D01*
X144278989Y-70136705D01*
X144330500Y-70125499D01*
X144953871Y-70125499D01*
X144953872Y-70125499D01*
X145013483Y-70119091D01*
X145148331Y-70068796D01*
X145263546Y-69982546D01*
X145349796Y-69867331D01*
X145400091Y-69732483D01*
X145406500Y-69672873D01*
X145406499Y-66977128D01*
X145400091Y-66917517D01*
X145388977Y-66887720D01*
X145349797Y-66782671D01*
X145349795Y-66782668D01*
X145349792Y-66782664D01*
X145287019Y-66698810D01*
X145262602Y-66633348D01*
X145277453Y-66565074D01*
X145326858Y-66515669D01*
X145386286Y-66500500D01*
X154608111Y-66500500D01*
X154675150Y-66520185D01*
X154695792Y-66536819D01*
X156812929Y-68653956D01*
X156845023Y-68709543D01*
X156897394Y-68904993D01*
X156987714Y-69123045D01*
X156987719Y-69123056D01*
X157058677Y-69245957D01*
X157105727Y-69327450D01*
X157105729Y-69327453D01*
X157105730Y-69327454D01*
X157249406Y-69514697D01*
X157249412Y-69514704D01*
X157416295Y-69681587D01*
X157416302Y-69681593D01*
X157526306Y-69766001D01*
X157603550Y-69825273D01*
X157712056Y-69887919D01*
X157807943Y-69943280D01*
X157807948Y-69943282D01*
X157807951Y-69943284D01*
X158026007Y-70033606D01*
X158253986Y-70094693D01*
X158487989Y-70125500D01*
X158487996Y-70125500D01*
X158724004Y-70125500D01*
X158724011Y-70125500D01*
X158958014Y-70094693D01*
X159185993Y-70033606D01*
X159404049Y-69943284D01*
X159404828Y-69942834D01*
X159579283Y-69842113D01*
X159641283Y-69825500D01*
X162570717Y-69825500D01*
X162632717Y-69842113D01*
X162807943Y-69943280D01*
X162807948Y-69943282D01*
X162807951Y-69943284D01*
X163026007Y-70033606D01*
X163253986Y-70094693D01*
X163487989Y-70125500D01*
X163487996Y-70125500D01*
X163724004Y-70125500D01*
X163724011Y-70125500D01*
X163958014Y-70094693D01*
X164185993Y-70033606D01*
X164404049Y-69943284D01*
X164404828Y-69942834D01*
X164579283Y-69842113D01*
X164641283Y-69825500D01*
X167570717Y-69825500D01*
X167632717Y-69842113D01*
X167807943Y-69943280D01*
X167807948Y-69943282D01*
X167807951Y-69943284D01*
X168026007Y-70033606D01*
X168253986Y-70094693D01*
X168487989Y-70125500D01*
X168487996Y-70125500D01*
X168724004Y-70125500D01*
X168724011Y-70125500D01*
X168958014Y-70094693D01*
X169185993Y-70033606D01*
X169404049Y-69943284D01*
X169404828Y-69942834D01*
X169579283Y-69842113D01*
X169641283Y-69825500D01*
X172570717Y-69825500D01*
X172632717Y-69842113D01*
X172807943Y-69943280D01*
X172807948Y-69943282D01*
X172807951Y-69943284D01*
X173026007Y-70033606D01*
X173253986Y-70094693D01*
X173487989Y-70125500D01*
X173487996Y-70125500D01*
X173724004Y-70125500D01*
X173724011Y-70125500D01*
X173958014Y-70094693D01*
X174185993Y-70033606D01*
X174404049Y-69943284D01*
X174608450Y-69825273D01*
X174795699Y-69681592D01*
X174962592Y-69514699D01*
X175106273Y-69327450D01*
X175224284Y-69123049D01*
X175314606Y-68904993D01*
X175375693Y-68677014D01*
X175406500Y-68443011D01*
X175406500Y-68206989D01*
X175375693Y-67972986D01*
X175314606Y-67745007D01*
X175224284Y-67526951D01*
X175224282Y-67526948D01*
X175224280Y-67526943D01*
X175182118Y-67453918D01*
X175106273Y-67322550D01*
X174962592Y-67135301D01*
X174962587Y-67135295D01*
X174795704Y-66968412D01*
X174795697Y-66968406D01*
X174608454Y-66824730D01*
X174608453Y-66824729D01*
X174608450Y-66824727D01*
X174526957Y-66777677D01*
X174404056Y-66706719D01*
X174404045Y-66706714D01*
X174185993Y-66616394D01*
X174054670Y-66581206D01*
X173958014Y-66555307D01*
X173958013Y-66555306D01*
X173958010Y-66555306D01*
X173724020Y-66524501D01*
X173724017Y-66524500D01*
X173724011Y-66524500D01*
X173487989Y-66524500D01*
X173487983Y-66524500D01*
X173487979Y-66524501D01*
X173253989Y-66555306D01*
X173026006Y-66616394D01*
X172807954Y-66706714D01*
X172807943Y-66706719D01*
X172632717Y-66807887D01*
X172570717Y-66824500D01*
X169641283Y-66824500D01*
X169579283Y-66807887D01*
X169404056Y-66706719D01*
X169404045Y-66706714D01*
X169185993Y-66616394D01*
X169054670Y-66581206D01*
X168958014Y-66555307D01*
X168958013Y-66555306D01*
X168958010Y-66555306D01*
X168724020Y-66524501D01*
X168724017Y-66524500D01*
X168724011Y-66524500D01*
X168487989Y-66524500D01*
X168487983Y-66524500D01*
X168487979Y-66524501D01*
X168253989Y-66555306D01*
X168026006Y-66616394D01*
X167807954Y-66706714D01*
X167807943Y-66706719D01*
X167632717Y-66807887D01*
X167570717Y-66824500D01*
X164641283Y-66824500D01*
X164579283Y-66807887D01*
X164404056Y-66706719D01*
X164404045Y-66706714D01*
X164185993Y-66616394D01*
X164054670Y-66581206D01*
X163958014Y-66555307D01*
X163958013Y-66555306D01*
X163958010Y-66555306D01*
X163724020Y-66524501D01*
X163724017Y-66524500D01*
X163724011Y-66524500D01*
X163487989Y-66524500D01*
X163487983Y-66524500D01*
X163487979Y-66524501D01*
X163253989Y-66555306D01*
X163026006Y-66616394D01*
X162807954Y-66706714D01*
X162807943Y-66706719D01*
X162632717Y-66807887D01*
X162570717Y-66824500D01*
X159641283Y-66824500D01*
X159579283Y-66807887D01*
X159404056Y-66706719D01*
X159404045Y-66706714D01*
X159185993Y-66616394D01*
X158990543Y-66564023D01*
X158934956Y-66531929D01*
X156258512Y-63855485D01*
X156258510Y-63855483D01*
X156243828Y-63844816D01*
X156201165Y-63789488D01*
X156195186Y-63719875D01*
X156227792Y-63658080D01*
X156288631Y-63623722D01*
X156316716Y-63620500D01*
X200550500Y-63620500D01*
X200617539Y-63640185D01*
G37*
%TD.AperFunction*%
%TA.AperFunction,Conductor*%
G36*
X117450000Y-78252230D02*
G01*
X117516126Y-78241757D01*
X117516129Y-78241757D01*
X117718217Y-78176095D01*
X117907557Y-78079620D01*
X118079459Y-77954727D01*
X118079464Y-77954723D01*
X118229721Y-77804466D01*
X118349371Y-77639781D01*
X118404701Y-77597115D01*
X118474314Y-77591136D01*
X118536110Y-77623741D01*
X118550008Y-77639781D01*
X118669890Y-77804785D01*
X118669894Y-77804790D01*
X118820213Y-77955109D01*
X118992184Y-78080051D01*
X118992184Y-78080052D01*
X119031793Y-78100233D01*
X119082590Y-78148206D01*
X119099500Y-78210718D01*
X119099500Y-78589281D01*
X119079815Y-78656320D01*
X119031795Y-78699765D01*
X118992185Y-78719947D01*
X118992184Y-78719948D01*
X118820213Y-78844890D01*
X118669894Y-78995209D01*
X118669890Y-78995214D01*
X118550008Y-79160218D01*
X118494678Y-79202884D01*
X118425065Y-79208863D01*
X118363270Y-79176257D01*
X118349372Y-79160218D01*
X118229727Y-78995540D01*
X118229723Y-78995535D01*
X118079464Y-78845276D01*
X118079459Y-78845272D01*
X117907557Y-78720379D01*
X117718215Y-78623903D01*
X117516124Y-78558241D01*
X117450000Y-78547768D01*
X117450000Y-79595854D01*
X117383343Y-79557370D01*
X117262535Y-79525000D01*
X117137465Y-79525000D01*
X117016657Y-79557370D01*
X116950000Y-79595854D01*
X116950000Y-78547768D01*
X116949999Y-78547768D01*
X116883875Y-78558241D01*
X116681784Y-78623903D01*
X116492442Y-78720379D01*
X116320540Y-78845272D01*
X116320535Y-78845276D01*
X116170276Y-78995535D01*
X116170272Y-78995540D01*
X116050627Y-79160218D01*
X116028431Y-79177333D01*
X116008365Y-79196902D01*
X116001138Y-79198379D01*
X115995297Y-79202884D01*
X115967369Y-79205282D01*
X115939911Y-79210896D01*
X115933032Y-79208231D01*
X115925684Y-79208863D01*
X115900897Y-79195784D01*
X115874759Y-79185660D01*
X115867417Y-79178118D01*
X115863889Y-79176257D01*
X115850117Y-79160392D01*
X115849940Y-79160149D01*
X115730104Y-78995208D01*
X115728489Y-78993593D01*
X115724308Y-78987859D01*
X115714056Y-78959281D01*
X115701641Y-78931581D01*
X115701061Y-78923059D01*
X115700715Y-78922093D01*
X115700931Y-78921152D01*
X115700500Y-78914800D01*
X115700500Y-77885199D01*
X115720185Y-77818160D01*
X115729442Y-77805703D01*
X115739992Y-77791182D01*
X115849991Y-77639779D01*
X115905320Y-77597115D01*
X115974933Y-77591136D01*
X116036729Y-77623741D01*
X116050627Y-77639781D01*
X116170272Y-77804459D01*
X116170276Y-77804464D01*
X116320535Y-77954723D01*
X116320540Y-77954727D01*
X116492442Y-78079620D01*
X116681782Y-78176095D01*
X116883871Y-78241757D01*
X116950000Y-78252231D01*
X116950000Y-77204145D01*
X117016657Y-77242630D01*
X117137465Y-77275000D01*
X117262535Y-77275000D01*
X117383343Y-77242630D01*
X117450000Y-77204145D01*
X117450000Y-78252230D01*
G37*
%TD.AperFunction*%
%TA.AperFunction,Conductor*%
G36*
X122770391Y-66520185D02*
G01*
X122816146Y-66572989D01*
X122826090Y-66642147D01*
X122797065Y-66705703D01*
X122765353Y-66731887D01*
X122603828Y-66825144D01*
X122603818Y-66825150D01*
X122522275Y-66887720D01*
X122522275Y-66887721D01*
X123358512Y-67723958D01*
X123298110Y-67748978D01*
X123191649Y-67820112D01*
X123101112Y-67910649D01*
X123029978Y-68017110D01*
X123004958Y-68077511D01*
X122168721Y-67241275D01*
X122168720Y-67241275D01*
X122106150Y-67322818D01*
X122106144Y-67322828D01*
X121988165Y-67527171D01*
X121988160Y-67527180D01*
X121897870Y-67745162D01*
X121836799Y-67973085D01*
X121806000Y-68207014D01*
X121806000Y-68442985D01*
X121836799Y-68676914D01*
X121897870Y-68904837D01*
X121988160Y-69122819D01*
X121988165Y-69122828D01*
X122106144Y-69327171D01*
X122106145Y-69327172D01*
X122168721Y-69408723D01*
X123004958Y-68572487D01*
X123029978Y-68632890D01*
X123101112Y-68739351D01*
X123191649Y-68829888D01*
X123298110Y-68901022D01*
X123358511Y-68926041D01*
X122522275Y-69762277D01*
X122603827Y-69824854D01*
X122603828Y-69824855D01*
X122808171Y-69942834D01*
X122808180Y-69942839D01*
X123026163Y-70033129D01*
X123026161Y-70033129D01*
X123254085Y-70094200D01*
X123488014Y-70124999D01*
X123488029Y-70125000D01*
X123723971Y-70125000D01*
X123723985Y-70124999D01*
X123957914Y-70094200D01*
X124185837Y-70033129D01*
X124403819Y-69942839D01*
X124403828Y-69942834D01*
X124608181Y-69824850D01*
X124689723Y-69762279D01*
X124689723Y-69762276D01*
X123853487Y-68926041D01*
X123913890Y-68901022D01*
X124020351Y-68829888D01*
X124110888Y-68739351D01*
X124182022Y-68632890D01*
X124207041Y-68572488D01*
X125043276Y-69408723D01*
X125043279Y-69408723D01*
X125105850Y-69327181D01*
X125223834Y-69122828D01*
X125223839Y-69122819D01*
X125314129Y-68904837D01*
X125375200Y-68676914D01*
X125405999Y-68442985D01*
X125406000Y-68442971D01*
X125406000Y-68207028D01*
X125405999Y-68207014D01*
X125375200Y-67973085D01*
X125314129Y-67745162D01*
X125223839Y-67527180D01*
X125223834Y-67527171D01*
X125105855Y-67322828D01*
X125105854Y-67322827D01*
X125043277Y-67241275D01*
X124207041Y-68077511D01*
X124182022Y-68017110D01*
X124110888Y-67910649D01*
X124020351Y-67820112D01*
X123913890Y-67748978D01*
X123853488Y-67723958D01*
X124689723Y-66887721D01*
X124608172Y-66825145D01*
X124608171Y-66825144D01*
X124446647Y-66731887D01*
X124398432Y-66681320D01*
X124385210Y-66612712D01*
X124411178Y-66547848D01*
X124468092Y-66507320D01*
X124508648Y-66500500D01*
X127702353Y-66500500D01*
X127769392Y-66520185D01*
X127815147Y-66572989D01*
X127825091Y-66642147D01*
X127796066Y-66705703D01*
X127764353Y-66731887D01*
X127603545Y-66824730D01*
X127416302Y-66968406D01*
X127416295Y-66968412D01*
X127249412Y-67135295D01*
X127249406Y-67135302D01*
X127105730Y-67322545D01*
X127105727Y-67322549D01*
X127105727Y-67322550D01*
X127098014Y-67335909D01*
X126987719Y-67526943D01*
X126987714Y-67526954D01*
X126897394Y-67745006D01*
X126836306Y-67972989D01*
X126805501Y-68206979D01*
X126805500Y-68206995D01*
X126805500Y-68443004D01*
X126805501Y-68443020D01*
X126836306Y-68677010D01*
X126897394Y-68904993D01*
X126987714Y-69123045D01*
X126987719Y-69123056D01*
X127058677Y-69245957D01*
X127105727Y-69327450D01*
X127105729Y-69327453D01*
X127105730Y-69327454D01*
X127249406Y-69514697D01*
X127249412Y-69514704D01*
X127416295Y-69681587D01*
X127416302Y-69681593D01*
X127526306Y-69766001D01*
X127603550Y-69825273D01*
X127712056Y-69887919D01*
X127807943Y-69943280D01*
X127807948Y-69943282D01*
X127807951Y-69943284D01*
X128026007Y-70033606D01*
X128253986Y-70094693D01*
X128487989Y-70125500D01*
X128487996Y-70125500D01*
X128724004Y-70125500D01*
X128724011Y-70125500D01*
X128958014Y-70094693D01*
X129185993Y-70033606D01*
X129404049Y-69943284D01*
X129608450Y-69825273D01*
X129795699Y-69681592D01*
X129962592Y-69514699D01*
X130106273Y-69327450D01*
X130224284Y-69123049D01*
X130314606Y-68904993D01*
X130375693Y-68677014D01*
X130406500Y-68443011D01*
X130406500Y-68206989D01*
X130375693Y-67972986D01*
X130314606Y-67745007D01*
X130224284Y-67526951D01*
X130224282Y-67526948D01*
X130224280Y-67526943D01*
X130182118Y-67453918D01*
X130106273Y-67322550D01*
X129962592Y-67135301D01*
X129962587Y-67135295D01*
X129795704Y-66968412D01*
X129795697Y-66968406D01*
X129608454Y-66824730D01*
X129608453Y-66824729D01*
X129608450Y-66824727D01*
X129498883Y-66761468D01*
X129447647Y-66731887D01*
X129399431Y-66681320D01*
X129386209Y-66612713D01*
X129412177Y-66547848D01*
X129469091Y-66507320D01*
X129509647Y-66500500D01*
X132702353Y-66500500D01*
X132769392Y-66520185D01*
X132815147Y-66572989D01*
X132825091Y-66642147D01*
X132796066Y-66705703D01*
X132764353Y-66731887D01*
X132603545Y-66824730D01*
X132416302Y-66968406D01*
X132416295Y-66968412D01*
X132249412Y-67135295D01*
X132249406Y-67135302D01*
X132105730Y-67322545D01*
X132105727Y-67322549D01*
X132105727Y-67322550D01*
X132098014Y-67335909D01*
X131987719Y-67526943D01*
X131987714Y-67526954D01*
X131897394Y-67745006D01*
X131836306Y-67972989D01*
X131805501Y-68206979D01*
X131805500Y-68206995D01*
X131805500Y-68443004D01*
X131805501Y-68443020D01*
X131836306Y-68677010D01*
X131897394Y-68904993D01*
X131987714Y-69123045D01*
X131987719Y-69123056D01*
X132058677Y-69245957D01*
X132105727Y-69327450D01*
X132105729Y-69327453D01*
X132105730Y-69327454D01*
X132249406Y-69514697D01*
X132249412Y-69514704D01*
X132416295Y-69681587D01*
X132416302Y-69681593D01*
X132526306Y-69766001D01*
X132603550Y-69825273D01*
X132807951Y-69943284D01*
X132807956Y-69943286D01*
X132807962Y-69943289D01*
X132928952Y-69993404D01*
X132983356Y-70037244D01*
X133005421Y-70103538D01*
X133005500Y-70107965D01*
X133005500Y-71276658D01*
X132985815Y-71343697D01*
X132933011Y-71389452D01*
X132863853Y-71399396D01*
X132812609Y-71379760D01*
X132679185Y-71290609D01*
X132679172Y-71290602D01*
X132533501Y-71230264D01*
X132533489Y-71230261D01*
X132378845Y-71199500D01*
X132378842Y-71199500D01*
X132221158Y-71199500D01*
X132217848Y-71199500D01*
X132150809Y-71179815D01*
X132105054Y-71127011D01*
X132096231Y-71099692D01*
X132069738Y-70966508D01*
X132069737Y-70966507D01*
X132069737Y-70966503D01*
X132052111Y-70923949D01*
X132009397Y-70820827D01*
X132009390Y-70820814D01*
X131921789Y-70689711D01*
X131921786Y-70689707D01*
X131810292Y-70578213D01*
X131810288Y-70578210D01*
X131679185Y-70490609D01*
X131679172Y-70490602D01*
X131533501Y-70430264D01*
X131533489Y-70430261D01*
X131378845Y-70399500D01*
X131378842Y-70399500D01*
X131221158Y-70399500D01*
X131221155Y-70399500D01*
X131066510Y-70430261D01*
X131066498Y-70430264D01*
X130920827Y-70490602D01*
X130920814Y-70490609D01*
X130789125Y-70578602D01*
X130722447Y-70599480D01*
X130720234Y-70599500D01*
X123586670Y-70599500D01*
X123586654Y-70599499D01*
X123579058Y-70599499D01*
X123420943Y-70599499D01*
X123344579Y-70619961D01*
X123268214Y-70640423D01*
X123268209Y-70640426D01*
X123131290Y-70719475D01*
X123131282Y-70719481D01*
X119219481Y-74631282D01*
X119219479Y-74631285D01*
X119169361Y-74718094D01*
X119169359Y-74718096D01*
X119140425Y-74768209D01*
X119140424Y-74768210D01*
X119137518Y-74779057D01*
X119099499Y-74920943D01*
X119099499Y-74920945D01*
X119099499Y-75089046D01*
X119099500Y-75089059D01*
X119099500Y-75389281D01*
X119079815Y-75456320D01*
X119031795Y-75499765D01*
X118992185Y-75519947D01*
X118992184Y-75519948D01*
X118820213Y-75644890D01*
X118669894Y-75795209D01*
X118669890Y-75795214D01*
X118550008Y-75960218D01*
X118494678Y-76002884D01*
X118425065Y-76008863D01*
X118363270Y-75976257D01*
X118349372Y-75960218D01*
X118229727Y-75795540D01*
X118229723Y-75795535D01*
X118079464Y-75645276D01*
X118079459Y-75645272D01*
X117907557Y-75520379D01*
X117718215Y-75423903D01*
X117516124Y-75358241D01*
X117450000Y-75347768D01*
X117450000Y-76395854D01*
X117383343Y-76357370D01*
X117262535Y-76325000D01*
X117137465Y-76325000D01*
X117016657Y-76357370D01*
X116950000Y-76395854D01*
X116950000Y-75347768D01*
X116949999Y-75347768D01*
X116883875Y-75358241D01*
X116681784Y-75423903D01*
X116492442Y-75520379D01*
X116320540Y-75645272D01*
X116320535Y-75645276D01*
X116170276Y-75795535D01*
X116170272Y-75795540D01*
X116050627Y-75960218D01*
X115995297Y-76002884D01*
X115925684Y-76008863D01*
X115863889Y-75976257D01*
X115849991Y-75960218D01*
X115730109Y-75795214D01*
X115730105Y-75795209D01*
X115692282Y-75757386D01*
X115665804Y-75713203D01*
X115664382Y-75713793D01*
X115586635Y-75526092D01*
X115586628Y-75526079D01*
X115477139Y-75362218D01*
X115477136Y-75362214D01*
X115337785Y-75222863D01*
X115337781Y-75222860D01*
X115173920Y-75113371D01*
X115173907Y-75113364D01*
X114991839Y-75037950D01*
X114991829Y-75037947D01*
X114798543Y-74999500D01*
X114798541Y-74999500D01*
X111524500Y-74999500D01*
X111457461Y-74979815D01*
X111411706Y-74927011D01*
X111400500Y-74875500D01*
X111400500Y-73601458D01*
X111400499Y-73601455D01*
X111372278Y-73459577D01*
X111362051Y-73408164D01*
X111323324Y-73314669D01*
X111308621Y-73279172D01*
X111286635Y-73226092D01*
X111286628Y-73226079D01*
X111177139Y-73062218D01*
X111177136Y-73062214D01*
X111034686Y-72919764D01*
X111034655Y-72919735D01*
X109642819Y-71527899D01*
X109609334Y-71466576D01*
X109606500Y-71440218D01*
X109606500Y-69949500D01*
X109626185Y-69882461D01*
X109678989Y-69836706D01*
X109730500Y-69825500D01*
X112570717Y-69825500D01*
X112632717Y-69842113D01*
X112807943Y-69943280D01*
X112807948Y-69943282D01*
X112807951Y-69943284D01*
X113026007Y-70033606D01*
X113253986Y-70094693D01*
X113487989Y-70125500D01*
X113487996Y-70125500D01*
X113724004Y-70125500D01*
X113724011Y-70125500D01*
X113958014Y-70094693D01*
X114185993Y-70033606D01*
X114404049Y-69943284D01*
X114608450Y-69825273D01*
X114795699Y-69681592D01*
X114804427Y-69672864D01*
X114850648Y-69626644D01*
X114962587Y-69514704D01*
X114962592Y-69514699D01*
X115106273Y-69327450D01*
X115224284Y-69123049D01*
X115314606Y-68904993D01*
X115366976Y-68709541D01*
X115399067Y-68653958D01*
X117008210Y-67044815D01*
X117069530Y-67011333D01*
X117139222Y-67016317D01*
X117195155Y-67058189D01*
X117219572Y-67123653D01*
X117204720Y-67191926D01*
X117194265Y-67207984D01*
X117106149Y-67322821D01*
X117106144Y-67322828D01*
X116988165Y-67527171D01*
X116988160Y-67527180D01*
X116897870Y-67745162D01*
X116836799Y-67973085D01*
X116806000Y-68207014D01*
X116806000Y-68442985D01*
X116836799Y-68676914D01*
X116897870Y-68904837D01*
X116988160Y-69122819D01*
X116988165Y-69122828D01*
X117106144Y-69327171D01*
X117106145Y-69327172D01*
X117168721Y-69408723D01*
X118004957Y-68572487D01*
X118029978Y-68632890D01*
X118101112Y-68739351D01*
X118191649Y-68829888D01*
X118298110Y-68901022D01*
X118358511Y-68926041D01*
X117522275Y-69762277D01*
X117603827Y-69824854D01*
X117603828Y-69824855D01*
X117808171Y-69942834D01*
X117808180Y-69942839D01*
X118026163Y-70033129D01*
X118026161Y-70033129D01*
X118254085Y-70094200D01*
X118488014Y-70124999D01*
X118488029Y-70125000D01*
X118723971Y-70125000D01*
X118723985Y-70124999D01*
X118957914Y-70094200D01*
X119185837Y-70033129D01*
X119403819Y-69942839D01*
X119403828Y-69942834D01*
X119608181Y-69824850D01*
X119689723Y-69762279D01*
X119689723Y-69762276D01*
X118853487Y-68926041D01*
X118913890Y-68901022D01*
X119020351Y-68829888D01*
X119110888Y-68739351D01*
X119182022Y-68632890D01*
X119207041Y-68572488D01*
X120043276Y-69408723D01*
X120043279Y-69408723D01*
X120105850Y-69327181D01*
X120223834Y-69122828D01*
X120223839Y-69122819D01*
X120314129Y-68904837D01*
X120375200Y-68676914D01*
X120405999Y-68442985D01*
X120406000Y-68442971D01*
X120406000Y-68207028D01*
X120405999Y-68207014D01*
X120375200Y-67973085D01*
X120314129Y-67745162D01*
X120223839Y-67527180D01*
X120223834Y-67527171D01*
X120105855Y-67322828D01*
X120105854Y-67322827D01*
X120043277Y-67241275D01*
X119207041Y-68077511D01*
X119182022Y-68017110D01*
X119110888Y-67910649D01*
X119020351Y-67820112D01*
X118913890Y-67748978D01*
X118853487Y-67723957D01*
X119689723Y-66887721D01*
X119608172Y-66825145D01*
X119608171Y-66825144D01*
X119446647Y-66731887D01*
X119398432Y-66681320D01*
X119385210Y-66612712D01*
X119411178Y-66547848D01*
X119468092Y-66507320D01*
X119508648Y-66500500D01*
X122703352Y-66500500D01*
X122770391Y-66520185D01*
G37*
%TD.AperFunction*%
%TD*%
M02*
