%TF.GenerationSoftware,KiCad,Pcbnew,9.0.3*%
%TF.CreationDate,2025-10-14T20:28:44+02:00*%
%TF.ProjectId,esp32_blinds_controller,65737033-325f-4626-9c69-6e64735f636f,V0.3*%
%TF.SameCoordinates,Original*%
%TF.FileFunction,Legend,Bot*%
%TF.FilePolarity,Positive*%
%FSLAX46Y46*%
G04 Gerber Fmt 4.6, Leading zero omitted, Abs format (unit mm)*
G04 Created by KiCad (PCBNEW 9.0.3) date 2025-10-14 20:28:44*
%MOMM*%
%LPD*%
G01*
G04 APERTURE LIST*
%ADD10C,0.150000*%
%ADD11C,0.120000*%
G04 APERTURE END LIST*
D10*
X135669104Y-79785714D02*
X135669104Y-80261904D01*
X135954819Y-79690476D02*
X134954819Y-80023809D01*
X134954819Y-80023809D02*
X135954819Y-80357142D01*
X135954819Y-81214285D02*
X135954819Y-80642857D01*
X135954819Y-80928571D02*
X134954819Y-80928571D01*
X134954819Y-80928571D02*
X135097676Y-80833333D01*
X135097676Y-80833333D02*
X135192914Y-80738095D01*
X135192914Y-80738095D02*
X135240533Y-80642857D01*
X135954819Y-79085714D02*
X135954819Y-78514286D01*
X135954819Y-78800000D02*
X134954819Y-78800000D01*
X134954819Y-78800000D02*
X135097676Y-78704762D01*
X135097676Y-78704762D02*
X135192914Y-78609524D01*
X135192914Y-78609524D02*
X135240533Y-78514286D01*
X134954819Y-73266667D02*
X134954819Y-73885714D01*
X134954819Y-73885714D02*
X135335771Y-73552381D01*
X135335771Y-73552381D02*
X135335771Y-73695238D01*
X135335771Y-73695238D02*
X135383390Y-73790476D01*
X135383390Y-73790476D02*
X135431009Y-73838095D01*
X135431009Y-73838095D02*
X135526247Y-73885714D01*
X135526247Y-73885714D02*
X135764342Y-73885714D01*
X135764342Y-73885714D02*
X135859580Y-73838095D01*
X135859580Y-73838095D02*
X135907200Y-73790476D01*
X135907200Y-73790476D02*
X135954819Y-73695238D01*
X135954819Y-73695238D02*
X135954819Y-73409524D01*
X135954819Y-73409524D02*
X135907200Y-73314286D01*
X135907200Y-73314286D02*
X135859580Y-73266667D01*
X128338094Y-97154819D02*
X128338094Y-96154819D01*
X128338094Y-96154819D02*
X128099999Y-96154819D01*
X128099999Y-96154819D02*
X127957142Y-96202438D01*
X127957142Y-96202438D02*
X127861904Y-96297676D01*
X127861904Y-96297676D02*
X127814285Y-96392914D01*
X127814285Y-96392914D02*
X127766666Y-96583390D01*
X127766666Y-96583390D02*
X127766666Y-96726247D01*
X127766666Y-96726247D02*
X127814285Y-96916723D01*
X127814285Y-96916723D02*
X127861904Y-97011961D01*
X127861904Y-97011961D02*
X127957142Y-97107200D01*
X127957142Y-97107200D02*
X128099999Y-97154819D01*
X128099999Y-97154819D02*
X128338094Y-97154819D01*
X126814285Y-97154819D02*
X127385713Y-97154819D01*
X127099999Y-97154819D02*
X127099999Y-96154819D01*
X127099999Y-96154819D02*
X127195237Y-96297676D01*
X127195237Y-96297676D02*
X127290475Y-96392914D01*
X127290475Y-96392914D02*
X127385713Y-96440533D01*
X132169104Y-79785714D02*
X132169104Y-80261904D01*
X132454819Y-79690476D02*
X131454819Y-80023809D01*
X131454819Y-80023809D02*
X132454819Y-80357142D01*
X131454819Y-80880952D02*
X131454819Y-80976190D01*
X131454819Y-80976190D02*
X131502438Y-81071428D01*
X131502438Y-81071428D02*
X131550057Y-81119047D01*
X131550057Y-81119047D02*
X131645295Y-81166666D01*
X131645295Y-81166666D02*
X131835771Y-81214285D01*
X131835771Y-81214285D02*
X132073866Y-81214285D01*
X132073866Y-81214285D02*
X132264342Y-81166666D01*
X132264342Y-81166666D02*
X132359580Y-81119047D01*
X132359580Y-81119047D02*
X132407200Y-81071428D01*
X132407200Y-81071428D02*
X132454819Y-80976190D01*
X132454819Y-80976190D02*
X132454819Y-80880952D01*
X132454819Y-80880952D02*
X132407200Y-80785714D01*
X132407200Y-80785714D02*
X132359580Y-80738095D01*
X132359580Y-80738095D02*
X132264342Y-80690476D01*
X132264342Y-80690476D02*
X132073866Y-80642857D01*
X132073866Y-80642857D02*
X131835771Y-80642857D01*
X131835771Y-80642857D02*
X131645295Y-80690476D01*
X131645295Y-80690476D02*
X131550057Y-80738095D01*
X131550057Y-80738095D02*
X131502438Y-80785714D01*
X131502438Y-80785714D02*
X131454819Y-80880952D01*
X132354819Y-79185714D02*
X132354819Y-78614286D01*
X132354819Y-78900000D02*
X131354819Y-78900000D01*
X131354819Y-78900000D02*
X131497676Y-78804762D01*
X131497676Y-78804762D02*
X131592914Y-78709524D01*
X131592914Y-78709524D02*
X131640533Y-78614286D01*
X131354819Y-73366667D02*
X131354819Y-73985714D01*
X131354819Y-73985714D02*
X131735771Y-73652381D01*
X131735771Y-73652381D02*
X131735771Y-73795238D01*
X131735771Y-73795238D02*
X131783390Y-73890476D01*
X131783390Y-73890476D02*
X131831009Y-73938095D01*
X131831009Y-73938095D02*
X131926247Y-73985714D01*
X131926247Y-73985714D02*
X132164342Y-73985714D01*
X132164342Y-73985714D02*
X132259580Y-73938095D01*
X132259580Y-73938095D02*
X132307200Y-73890476D01*
X132307200Y-73890476D02*
X132354819Y-73795238D01*
X132354819Y-73795238D02*
X132354819Y-73509524D01*
X132354819Y-73509524D02*
X132307200Y-73414286D01*
X132307200Y-73414286D02*
X132259580Y-73366667D01*
X194413094Y-95794819D02*
X194413094Y-94794819D01*
X194413094Y-94794819D02*
X194174999Y-94794819D01*
X194174999Y-94794819D02*
X194032142Y-94842438D01*
X194032142Y-94842438D02*
X193936904Y-94937676D01*
X193936904Y-94937676D02*
X193889285Y-95032914D01*
X193889285Y-95032914D02*
X193841666Y-95223390D01*
X193841666Y-95223390D02*
X193841666Y-95366247D01*
X193841666Y-95366247D02*
X193889285Y-95556723D01*
X193889285Y-95556723D02*
X193936904Y-95651961D01*
X193936904Y-95651961D02*
X194032142Y-95747200D01*
X194032142Y-95747200D02*
X194174999Y-95794819D01*
X194174999Y-95794819D02*
X194413094Y-95794819D01*
X193508332Y-94794819D02*
X192889285Y-94794819D01*
X192889285Y-94794819D02*
X193222618Y-95175771D01*
X193222618Y-95175771D02*
X193079761Y-95175771D01*
X193079761Y-95175771D02*
X192984523Y-95223390D01*
X192984523Y-95223390D02*
X192936904Y-95271009D01*
X192936904Y-95271009D02*
X192889285Y-95366247D01*
X192889285Y-95366247D02*
X192889285Y-95604342D01*
X192889285Y-95604342D02*
X192936904Y-95699580D01*
X192936904Y-95699580D02*
X192984523Y-95747200D01*
X192984523Y-95747200D02*
X193079761Y-95794819D01*
X193079761Y-95794819D02*
X193365475Y-95794819D01*
X193365475Y-95794819D02*
X193460713Y-95747200D01*
X193460713Y-95747200D02*
X193508332Y-95699580D01*
X148693094Y-100009819D02*
X148693094Y-99009819D01*
X148693094Y-99009819D02*
X148454999Y-99009819D01*
X148454999Y-99009819D02*
X148312142Y-99057438D01*
X148312142Y-99057438D02*
X148216904Y-99152676D01*
X148216904Y-99152676D02*
X148169285Y-99247914D01*
X148169285Y-99247914D02*
X148121666Y-99438390D01*
X148121666Y-99438390D02*
X148121666Y-99581247D01*
X148121666Y-99581247D02*
X148169285Y-99771723D01*
X148169285Y-99771723D02*
X148216904Y-99866961D01*
X148216904Y-99866961D02*
X148312142Y-99962200D01*
X148312142Y-99962200D02*
X148454999Y-100009819D01*
X148454999Y-100009819D02*
X148693094Y-100009819D01*
X147264523Y-99343152D02*
X147264523Y-100009819D01*
X147502618Y-98962200D02*
X147740713Y-99676485D01*
X147740713Y-99676485D02*
X147121666Y-99676485D01*
X110933333Y-79654819D02*
X110933333Y-80369104D01*
X110933333Y-80369104D02*
X110980952Y-80511961D01*
X110980952Y-80511961D02*
X111076190Y-80607200D01*
X111076190Y-80607200D02*
X111219047Y-80654819D01*
X111219047Y-80654819D02*
X111314285Y-80654819D01*
X109933333Y-80654819D02*
X110504761Y-80654819D01*
X110219047Y-80654819D02*
X110219047Y-79654819D01*
X110219047Y-79654819D02*
X110314285Y-79797676D01*
X110314285Y-79797676D02*
X110409523Y-79892914D01*
X110409523Y-79892914D02*
X110504761Y-79940533D01*
X138669104Y-79585714D02*
X138669104Y-80061904D01*
X138954819Y-79490476D02*
X137954819Y-79823809D01*
X137954819Y-79823809D02*
X138954819Y-80157142D01*
X138050057Y-80442857D02*
X138002438Y-80490476D01*
X138002438Y-80490476D02*
X137954819Y-80585714D01*
X137954819Y-80585714D02*
X137954819Y-80823809D01*
X137954819Y-80823809D02*
X138002438Y-80919047D01*
X138002438Y-80919047D02*
X138050057Y-80966666D01*
X138050057Y-80966666D02*
X138145295Y-81014285D01*
X138145295Y-81014285D02*
X138240533Y-81014285D01*
X138240533Y-81014285D02*
X138383390Y-80966666D01*
X138383390Y-80966666D02*
X138954819Y-80395238D01*
X138954819Y-80395238D02*
X138954819Y-81014285D01*
X139154819Y-79085714D02*
X139154819Y-78514286D01*
X139154819Y-78800000D02*
X138154819Y-78800000D01*
X138154819Y-78800000D02*
X138297676Y-78704762D01*
X138297676Y-78704762D02*
X138392914Y-78609524D01*
X138392914Y-78609524D02*
X138440533Y-78514286D01*
X138154819Y-73266667D02*
X138154819Y-73885714D01*
X138154819Y-73885714D02*
X138535771Y-73552381D01*
X138535771Y-73552381D02*
X138535771Y-73695238D01*
X138535771Y-73695238D02*
X138583390Y-73790476D01*
X138583390Y-73790476D02*
X138631009Y-73838095D01*
X138631009Y-73838095D02*
X138726247Y-73885714D01*
X138726247Y-73885714D02*
X138964342Y-73885714D01*
X138964342Y-73885714D02*
X139059580Y-73838095D01*
X139059580Y-73838095D02*
X139107200Y-73790476D01*
X139107200Y-73790476D02*
X139154819Y-73695238D01*
X139154819Y-73695238D02*
X139154819Y-73409524D01*
X139154819Y-73409524D02*
X139107200Y-73314286D01*
X139107200Y-73314286D02*
X139059580Y-73266667D01*
X174738094Y-97354819D02*
X174738094Y-96354819D01*
X174738094Y-96354819D02*
X174499999Y-96354819D01*
X174499999Y-96354819D02*
X174357142Y-96402438D01*
X174357142Y-96402438D02*
X174261904Y-96497676D01*
X174261904Y-96497676D02*
X174214285Y-96592914D01*
X174214285Y-96592914D02*
X174166666Y-96783390D01*
X174166666Y-96783390D02*
X174166666Y-96926247D01*
X174166666Y-96926247D02*
X174214285Y-97116723D01*
X174214285Y-97116723D02*
X174261904Y-97211961D01*
X174261904Y-97211961D02*
X174357142Y-97307200D01*
X174357142Y-97307200D02*
X174499999Y-97354819D01*
X174499999Y-97354819D02*
X174738094Y-97354819D01*
X173785713Y-96450057D02*
X173738094Y-96402438D01*
X173738094Y-96402438D02*
X173642856Y-96354819D01*
X173642856Y-96354819D02*
X173404761Y-96354819D01*
X173404761Y-96354819D02*
X173309523Y-96402438D01*
X173309523Y-96402438D02*
X173261904Y-96450057D01*
X173261904Y-96450057D02*
X173214285Y-96545295D01*
X173214285Y-96545295D02*
X173214285Y-96640533D01*
X173214285Y-96640533D02*
X173261904Y-96783390D01*
X173261904Y-96783390D02*
X173833332Y-97354819D01*
X173833332Y-97354819D02*
X173214285Y-97354819D01*
D11*
%TO.C,A1*%
X134500000Y-77600000D02*
X134500000Y-74800000D01*
X135200000Y-74150000D02*
X135800000Y-74150000D01*
X135800000Y-78250000D02*
X135200000Y-78250000D01*
X136500000Y-74800000D02*
X136500000Y-77600000D01*
X134500000Y-74850000D02*
G75*
G02*
X135200000Y-74150000I700000J0D01*
G01*
X135200000Y-78250000D02*
G75*
G02*
X134500000Y-77550000I-1J699999D01*
G01*
X135800000Y-74150000D02*
G75*
G02*
X136500000Y-74850000I0J-700000D01*
G01*
X136500000Y-77550000D02*
G75*
G02*
X135800000Y-78250000I-699999J-1D01*
G01*
%TO.C,D1*%
X125200000Y-100810000D02*
X131010000Y-100810000D01*
X131010000Y-97590000D02*
X125200000Y-97590000D01*
X131010000Y-100810000D02*
X131010000Y-97590000D01*
%TO.C,A0*%
X130900000Y-77700000D02*
X130900000Y-74900000D01*
X131600000Y-74250000D02*
X132200000Y-74250000D01*
X132200000Y-78350000D02*
X131600000Y-78350000D01*
X132900000Y-74900000D02*
X132900000Y-77700000D01*
X130900000Y-74950000D02*
G75*
G02*
X131600000Y-74250000I700000J0D01*
G01*
X131600000Y-78350000D02*
G75*
G02*
X130900000Y-77650000I-1J699999D01*
G01*
X132200000Y-74250000D02*
G75*
G02*
X132900000Y-74950000I0J-700000D01*
G01*
X132900000Y-77650000D02*
G75*
G02*
X132200000Y-78350000I-699999J-1D01*
G01*
%TO.C,D3*%
X191275000Y-99450000D02*
X197085000Y-99450000D01*
X197085000Y-96230000D02*
X191275000Y-96230000D01*
X197085000Y-99450000D02*
X197085000Y-96230000D01*
%TO.C,D4*%
X145555000Y-103665000D02*
X151365000Y-103665000D01*
X151365000Y-100445000D02*
X145555000Y-100445000D01*
X151365000Y-103665000D02*
X151365000Y-100445000D01*
%TO.C,J1*%
X112090000Y-78290000D02*
X112090000Y-82310000D01*
X112090000Y-80000000D02*
X112590000Y-80000000D01*
X112090000Y-82310000D02*
X129810000Y-82310000D01*
X112590000Y-78790000D02*
X129310000Y-78790000D01*
X112590000Y-80000000D02*
X112590000Y-78790000D01*
X113090000Y-80810000D02*
X112090000Y-80810000D01*
X113090000Y-82310000D02*
X113090000Y-80810000D01*
X127610000Y-82610000D02*
X130110000Y-82610000D01*
X128810000Y-80810000D02*
X129810000Y-80810000D01*
X128810000Y-82310000D02*
X128810000Y-80810000D01*
X129310000Y-78790000D02*
X129310000Y-80000000D01*
X129310000Y-80000000D02*
X129810000Y-80000000D01*
X129810000Y-78290000D02*
X112090000Y-78290000D01*
X129810000Y-82310000D02*
X129810000Y-78290000D01*
X130110000Y-82610000D02*
X130110000Y-80110000D01*
%TO.C,A2*%
X137700000Y-77600000D02*
X137700000Y-74800000D01*
X138400000Y-74150000D02*
X139000000Y-74150000D01*
X139000000Y-78250000D02*
X138400000Y-78250000D01*
X139700000Y-74800000D02*
X139700000Y-77600000D01*
X137700000Y-74850000D02*
G75*
G02*
X138400000Y-74150000I700000J0D01*
G01*
X138400000Y-78250000D02*
G75*
G02*
X137700000Y-77550000I-1J699999D01*
G01*
X139000000Y-74150000D02*
G75*
G02*
X139700000Y-74850000I0J-700000D01*
G01*
X139700000Y-77550000D02*
G75*
G02*
X139000000Y-78250000I-699999J-1D01*
G01*
%TO.C,D2*%
X171600000Y-101010000D02*
X177410000Y-101010000D01*
X177410000Y-97790000D02*
X171600000Y-97790000D01*
X177410000Y-101010000D02*
X177410000Y-97790000D01*
%TD*%
%LPC*%
G36*
X109994517Y-124922882D02*
G01*
X110011062Y-124933938D01*
X110022118Y-124950483D01*
X110026000Y-124970000D01*
X110026000Y-127570000D01*
X110022118Y-127589517D01*
X110011062Y-127606062D01*
X109994517Y-127617118D01*
X109975000Y-127621000D01*
X107375000Y-127621000D01*
X107355483Y-127617118D01*
X107338938Y-127606062D01*
X107327882Y-127589517D01*
X107324000Y-127570000D01*
X107324000Y-124970000D01*
X107327882Y-124950483D01*
X107338938Y-124933938D01*
X107355483Y-124922882D01*
X107375000Y-124919000D01*
X109975000Y-124919000D01*
X109994517Y-124922882D01*
G37*
G36*
X159994517Y-124922882D02*
G01*
X160011062Y-124933938D01*
X160022118Y-124950483D01*
X160026000Y-124970000D01*
X160026000Y-127570000D01*
X160022118Y-127589517D01*
X160011062Y-127606062D01*
X159994517Y-127617118D01*
X159975000Y-127621000D01*
X157375000Y-127621000D01*
X157355483Y-127617118D01*
X157338938Y-127606062D01*
X157327882Y-127589517D01*
X157324000Y-127570000D01*
X157324000Y-124970000D01*
X157327882Y-124950483D01*
X157338938Y-124933938D01*
X157355483Y-124922882D01*
X157375000Y-124919000D01*
X159975000Y-124919000D01*
X159994517Y-124922882D01*
G37*
G36*
X113990385Y-124956328D02*
G01*
X114192005Y-125021839D01*
X114380896Y-125118083D01*
X114552404Y-125242692D01*
X114702308Y-125392596D01*
X114826917Y-125564104D01*
X114923161Y-125752995D01*
X114988672Y-125954615D01*
X115021835Y-126164002D01*
X115021835Y-126375998D01*
X114988672Y-126585385D01*
X114923161Y-126787005D01*
X114826917Y-126975896D01*
X114702308Y-127147404D01*
X114552404Y-127297308D01*
X114380896Y-127421917D01*
X114192005Y-127518161D01*
X113990385Y-127583672D01*
X113780998Y-127616835D01*
X113569002Y-127616835D01*
X113359615Y-127583672D01*
X113157995Y-127518161D01*
X112969104Y-127421917D01*
X112797596Y-127297308D01*
X112647692Y-127147404D01*
X112523083Y-126975896D01*
X112426839Y-126787005D01*
X112361328Y-126585385D01*
X112328165Y-126375998D01*
X112328165Y-126164002D01*
X112361328Y-125954615D01*
X112426839Y-125752995D01*
X112523083Y-125564104D01*
X112647692Y-125392596D01*
X112797596Y-125242692D01*
X112969104Y-125118083D01*
X113157995Y-125021839D01*
X113359615Y-124956328D01*
X113569002Y-124923165D01*
X113780998Y-124923165D01*
X113990385Y-124956328D01*
G37*
G36*
X118990385Y-124956328D02*
G01*
X119192005Y-125021839D01*
X119380896Y-125118083D01*
X119552404Y-125242692D01*
X119702308Y-125392596D01*
X119826917Y-125564104D01*
X119923161Y-125752995D01*
X119988672Y-125954615D01*
X120021835Y-126164002D01*
X120021835Y-126375998D01*
X119988672Y-126585385D01*
X119923161Y-126787005D01*
X119826917Y-126975896D01*
X119702308Y-127147404D01*
X119552404Y-127297308D01*
X119380896Y-127421917D01*
X119192005Y-127518161D01*
X118990385Y-127583672D01*
X118780998Y-127616835D01*
X118569002Y-127616835D01*
X118359615Y-127583672D01*
X118157995Y-127518161D01*
X117969104Y-127421917D01*
X117797596Y-127297308D01*
X117647692Y-127147404D01*
X117523083Y-126975896D01*
X117426839Y-126787005D01*
X117361328Y-126585385D01*
X117328165Y-126375998D01*
X117328165Y-126164002D01*
X117361328Y-125954615D01*
X117426839Y-125752995D01*
X117523083Y-125564104D01*
X117647692Y-125392596D01*
X117797596Y-125242692D01*
X117969104Y-125118083D01*
X118157995Y-125021839D01*
X118359615Y-124956328D01*
X118569002Y-124923165D01*
X118780998Y-124923165D01*
X118990385Y-124956328D01*
G37*
G36*
X123990385Y-124956328D02*
G01*
X124192005Y-125021839D01*
X124380896Y-125118083D01*
X124552404Y-125242692D01*
X124702308Y-125392596D01*
X124826917Y-125564104D01*
X124923161Y-125752995D01*
X124988672Y-125954615D01*
X125021835Y-126164002D01*
X125021835Y-126375998D01*
X124988672Y-126585385D01*
X124923161Y-126787005D01*
X124826917Y-126975896D01*
X124702308Y-127147404D01*
X124552404Y-127297308D01*
X124380896Y-127421917D01*
X124192005Y-127518161D01*
X123990385Y-127583672D01*
X123780998Y-127616835D01*
X123569002Y-127616835D01*
X123359615Y-127583672D01*
X123157995Y-127518161D01*
X122969104Y-127421917D01*
X122797596Y-127297308D01*
X122647692Y-127147404D01*
X122523083Y-126975896D01*
X122426839Y-126787005D01*
X122361328Y-126585385D01*
X122328165Y-126375998D01*
X122328165Y-126164002D01*
X122361328Y-125954615D01*
X122426839Y-125752995D01*
X122523083Y-125564104D01*
X122647692Y-125392596D01*
X122797596Y-125242692D01*
X122969104Y-125118083D01*
X123157995Y-125021839D01*
X123359615Y-124956328D01*
X123569002Y-124923165D01*
X123780998Y-124923165D01*
X123990385Y-124956328D01*
G37*
G36*
X128990385Y-124956328D02*
G01*
X129192005Y-125021839D01*
X129380896Y-125118083D01*
X129552404Y-125242692D01*
X129702308Y-125392596D01*
X129826917Y-125564104D01*
X129923161Y-125752995D01*
X129988672Y-125954615D01*
X130021835Y-126164002D01*
X130021835Y-126375998D01*
X129988672Y-126585385D01*
X129923161Y-126787005D01*
X129826917Y-126975896D01*
X129702308Y-127147404D01*
X129552404Y-127297308D01*
X129380896Y-127421917D01*
X129192005Y-127518161D01*
X128990385Y-127583672D01*
X128780998Y-127616835D01*
X128569002Y-127616835D01*
X128359615Y-127583672D01*
X128157995Y-127518161D01*
X127969104Y-127421917D01*
X127797596Y-127297308D01*
X127647692Y-127147404D01*
X127523083Y-126975896D01*
X127426839Y-126787005D01*
X127361328Y-126585385D01*
X127328165Y-126375998D01*
X127328165Y-126164002D01*
X127361328Y-125954615D01*
X127426839Y-125752995D01*
X127523083Y-125564104D01*
X127647692Y-125392596D01*
X127797596Y-125242692D01*
X127969104Y-125118083D01*
X128157995Y-125021839D01*
X128359615Y-124956328D01*
X128569002Y-124923165D01*
X128780998Y-124923165D01*
X128990385Y-124956328D01*
G37*
G36*
X133990385Y-124956328D02*
G01*
X134192005Y-125021839D01*
X134380896Y-125118083D01*
X134552404Y-125242692D01*
X134702308Y-125392596D01*
X134826917Y-125564104D01*
X134923161Y-125752995D01*
X134988672Y-125954615D01*
X135021835Y-126164002D01*
X135021835Y-126375998D01*
X134988672Y-126585385D01*
X134923161Y-126787005D01*
X134826917Y-126975896D01*
X134702308Y-127147404D01*
X134552404Y-127297308D01*
X134380896Y-127421917D01*
X134192005Y-127518161D01*
X133990385Y-127583672D01*
X133780998Y-127616835D01*
X133569002Y-127616835D01*
X133359615Y-127583672D01*
X133157995Y-127518161D01*
X132969104Y-127421917D01*
X132797596Y-127297308D01*
X132647692Y-127147404D01*
X132523083Y-126975896D01*
X132426839Y-126787005D01*
X132361328Y-126585385D01*
X132328165Y-126375998D01*
X132328165Y-126164002D01*
X132361328Y-125954615D01*
X132426839Y-125752995D01*
X132523083Y-125564104D01*
X132647692Y-125392596D01*
X132797596Y-125242692D01*
X132969104Y-125118083D01*
X133157995Y-125021839D01*
X133359615Y-124956328D01*
X133569002Y-124923165D01*
X133780998Y-124923165D01*
X133990385Y-124956328D01*
G37*
G36*
X138990385Y-124956328D02*
G01*
X139192005Y-125021839D01*
X139380896Y-125118083D01*
X139552404Y-125242692D01*
X139702308Y-125392596D01*
X139826917Y-125564104D01*
X139923161Y-125752995D01*
X139988672Y-125954615D01*
X140021835Y-126164002D01*
X140021835Y-126375998D01*
X139988672Y-126585385D01*
X139923161Y-126787005D01*
X139826917Y-126975896D01*
X139702308Y-127147404D01*
X139552404Y-127297308D01*
X139380896Y-127421917D01*
X139192005Y-127518161D01*
X138990385Y-127583672D01*
X138780998Y-127616835D01*
X138569002Y-127616835D01*
X138359615Y-127583672D01*
X138157995Y-127518161D01*
X137969104Y-127421917D01*
X137797596Y-127297308D01*
X137647692Y-127147404D01*
X137523083Y-126975896D01*
X137426839Y-126787005D01*
X137361328Y-126585385D01*
X137328165Y-126375998D01*
X137328165Y-126164002D01*
X137361328Y-125954615D01*
X137426839Y-125752995D01*
X137523083Y-125564104D01*
X137647692Y-125392596D01*
X137797596Y-125242692D01*
X137969104Y-125118083D01*
X138157995Y-125021839D01*
X138359615Y-124956328D01*
X138569002Y-124923165D01*
X138780998Y-124923165D01*
X138990385Y-124956328D01*
G37*
G36*
X143990385Y-124956328D02*
G01*
X144192005Y-125021839D01*
X144380896Y-125118083D01*
X144552404Y-125242692D01*
X144702308Y-125392596D01*
X144826917Y-125564104D01*
X144923161Y-125752995D01*
X144988672Y-125954615D01*
X145021835Y-126164002D01*
X145021835Y-126375998D01*
X144988672Y-126585385D01*
X144923161Y-126787005D01*
X144826917Y-126975896D01*
X144702308Y-127147404D01*
X144552404Y-127297308D01*
X144380896Y-127421917D01*
X144192005Y-127518161D01*
X143990385Y-127583672D01*
X143780998Y-127616835D01*
X143569002Y-127616835D01*
X143359615Y-127583672D01*
X143157995Y-127518161D01*
X142969104Y-127421917D01*
X142797596Y-127297308D01*
X142647692Y-127147404D01*
X142523083Y-126975896D01*
X142426839Y-126787005D01*
X142361328Y-126585385D01*
X142328165Y-126375998D01*
X142328165Y-126164002D01*
X142361328Y-125954615D01*
X142426839Y-125752995D01*
X142523083Y-125564104D01*
X142647692Y-125392596D01*
X142797596Y-125242692D01*
X142969104Y-125118083D01*
X143157995Y-125021839D01*
X143359615Y-124956328D01*
X143569002Y-124923165D01*
X143780998Y-124923165D01*
X143990385Y-124956328D01*
G37*
G36*
X163990385Y-124956328D02*
G01*
X164192005Y-125021839D01*
X164380896Y-125118083D01*
X164552404Y-125242692D01*
X164702308Y-125392596D01*
X164826917Y-125564104D01*
X164923161Y-125752995D01*
X164988672Y-125954615D01*
X165021835Y-126164002D01*
X165021835Y-126375998D01*
X164988672Y-126585385D01*
X164923161Y-126787005D01*
X164826917Y-126975896D01*
X164702308Y-127147404D01*
X164552404Y-127297308D01*
X164380896Y-127421917D01*
X164192005Y-127518161D01*
X163990385Y-127583672D01*
X163780998Y-127616835D01*
X163569002Y-127616835D01*
X163359615Y-127583672D01*
X163157995Y-127518161D01*
X162969104Y-127421917D01*
X162797596Y-127297308D01*
X162647692Y-127147404D01*
X162523083Y-126975896D01*
X162426839Y-126787005D01*
X162361328Y-126585385D01*
X162328165Y-126375998D01*
X162328165Y-126164002D01*
X162361328Y-125954615D01*
X162426839Y-125752995D01*
X162523083Y-125564104D01*
X162647692Y-125392596D01*
X162797596Y-125242692D01*
X162969104Y-125118083D01*
X163157995Y-125021839D01*
X163359615Y-124956328D01*
X163569002Y-124923165D01*
X163780998Y-124923165D01*
X163990385Y-124956328D01*
G37*
G36*
X168990385Y-124956328D02*
G01*
X169192005Y-125021839D01*
X169380896Y-125118083D01*
X169552404Y-125242692D01*
X169702308Y-125392596D01*
X169826917Y-125564104D01*
X169923161Y-125752995D01*
X169988672Y-125954615D01*
X170021835Y-126164002D01*
X170021835Y-126375998D01*
X169988672Y-126585385D01*
X169923161Y-126787005D01*
X169826917Y-126975896D01*
X169702308Y-127147404D01*
X169552404Y-127297308D01*
X169380896Y-127421917D01*
X169192005Y-127518161D01*
X168990385Y-127583672D01*
X168780998Y-127616835D01*
X168569002Y-127616835D01*
X168359615Y-127583672D01*
X168157995Y-127518161D01*
X167969104Y-127421917D01*
X167797596Y-127297308D01*
X167647692Y-127147404D01*
X167523083Y-126975896D01*
X167426839Y-126787005D01*
X167361328Y-126585385D01*
X167328165Y-126375998D01*
X167328165Y-126164002D01*
X167361328Y-125954615D01*
X167426839Y-125752995D01*
X167523083Y-125564104D01*
X167647692Y-125392596D01*
X167797596Y-125242692D01*
X167969104Y-125118083D01*
X168157995Y-125021839D01*
X168359615Y-124956328D01*
X168569002Y-124923165D01*
X168780998Y-124923165D01*
X168990385Y-124956328D01*
G37*
G36*
X173990385Y-124956328D02*
G01*
X174192005Y-125021839D01*
X174380896Y-125118083D01*
X174552404Y-125242692D01*
X174702308Y-125392596D01*
X174826917Y-125564104D01*
X174923161Y-125752995D01*
X174988672Y-125954615D01*
X175021835Y-126164002D01*
X175021835Y-126375998D01*
X174988672Y-126585385D01*
X174923161Y-126787005D01*
X174826917Y-126975896D01*
X174702308Y-127147404D01*
X174552404Y-127297308D01*
X174380896Y-127421917D01*
X174192005Y-127518161D01*
X173990385Y-127583672D01*
X173780998Y-127616835D01*
X173569002Y-127616835D01*
X173359615Y-127583672D01*
X173157995Y-127518161D01*
X172969104Y-127421917D01*
X172797596Y-127297308D01*
X172647692Y-127147404D01*
X172523083Y-126975896D01*
X172426839Y-126787005D01*
X172361328Y-126585385D01*
X172328165Y-126375998D01*
X172328165Y-126164002D01*
X172361328Y-125954615D01*
X172426839Y-125752995D01*
X172523083Y-125564104D01*
X172647692Y-125392596D01*
X172797596Y-125242692D01*
X172969104Y-125118083D01*
X173157995Y-125021839D01*
X173359615Y-124956328D01*
X173569002Y-124923165D01*
X173780998Y-124923165D01*
X173990385Y-124956328D01*
G37*
G36*
X178990385Y-124956328D02*
G01*
X179192005Y-125021839D01*
X179380896Y-125118083D01*
X179552404Y-125242692D01*
X179702308Y-125392596D01*
X179826917Y-125564104D01*
X179923161Y-125752995D01*
X179988672Y-125954615D01*
X180021835Y-126164002D01*
X180021835Y-126375998D01*
X179988672Y-126585385D01*
X179923161Y-126787005D01*
X179826917Y-126975896D01*
X179702308Y-127147404D01*
X179552404Y-127297308D01*
X179380896Y-127421917D01*
X179192005Y-127518161D01*
X178990385Y-127583672D01*
X178780998Y-127616835D01*
X178569002Y-127616835D01*
X178359615Y-127583672D01*
X178157995Y-127518161D01*
X177969104Y-127421917D01*
X177797596Y-127297308D01*
X177647692Y-127147404D01*
X177523083Y-126975896D01*
X177426839Y-126787005D01*
X177361328Y-126585385D01*
X177328165Y-126375998D01*
X177328165Y-126164002D01*
X177361328Y-125954615D01*
X177426839Y-125752995D01*
X177523083Y-125564104D01*
X177647692Y-125392596D01*
X177797596Y-125242692D01*
X177969104Y-125118083D01*
X178157995Y-125021839D01*
X178359615Y-124956328D01*
X178569002Y-124923165D01*
X178780998Y-124923165D01*
X178990385Y-124956328D01*
G37*
G36*
X183990385Y-124956328D02*
G01*
X184192005Y-125021839D01*
X184380896Y-125118083D01*
X184552404Y-125242692D01*
X184702308Y-125392596D01*
X184826917Y-125564104D01*
X184923161Y-125752995D01*
X184988672Y-125954615D01*
X185021835Y-126164002D01*
X185021835Y-126375998D01*
X184988672Y-126585385D01*
X184923161Y-126787005D01*
X184826917Y-126975896D01*
X184702308Y-127147404D01*
X184552404Y-127297308D01*
X184380896Y-127421917D01*
X184192005Y-127518161D01*
X183990385Y-127583672D01*
X183780998Y-127616835D01*
X183569002Y-127616835D01*
X183359615Y-127583672D01*
X183157995Y-127518161D01*
X182969104Y-127421917D01*
X182797596Y-127297308D01*
X182647692Y-127147404D01*
X182523083Y-126975896D01*
X182426839Y-126787005D01*
X182361328Y-126585385D01*
X182328165Y-126375998D01*
X182328165Y-126164002D01*
X182361328Y-125954615D01*
X182426839Y-125752995D01*
X182523083Y-125564104D01*
X182647692Y-125392596D01*
X182797596Y-125242692D01*
X182969104Y-125118083D01*
X183157995Y-125021839D01*
X183359615Y-124956328D01*
X183569002Y-124923165D01*
X183780998Y-124923165D01*
X183990385Y-124956328D01*
G37*
G36*
X188990385Y-124956328D02*
G01*
X189192005Y-125021839D01*
X189380896Y-125118083D01*
X189552404Y-125242692D01*
X189702308Y-125392596D01*
X189826917Y-125564104D01*
X189923161Y-125752995D01*
X189988672Y-125954615D01*
X190021835Y-126164002D01*
X190021835Y-126375998D01*
X189988672Y-126585385D01*
X189923161Y-126787005D01*
X189826917Y-126975896D01*
X189702308Y-127147404D01*
X189552404Y-127297308D01*
X189380896Y-127421917D01*
X189192005Y-127518161D01*
X188990385Y-127583672D01*
X188780998Y-127616835D01*
X188569002Y-127616835D01*
X188359615Y-127583672D01*
X188157995Y-127518161D01*
X187969104Y-127421917D01*
X187797596Y-127297308D01*
X187647692Y-127147404D01*
X187523083Y-126975896D01*
X187426839Y-126787005D01*
X187361328Y-126585385D01*
X187328165Y-126375998D01*
X187328165Y-126164002D01*
X187361328Y-125954615D01*
X187426839Y-125752995D01*
X187523083Y-125564104D01*
X187647692Y-125392596D01*
X187797596Y-125242692D01*
X187969104Y-125118083D01*
X188157995Y-125021839D01*
X188359615Y-124956328D01*
X188569002Y-124923165D01*
X188780998Y-124923165D01*
X188990385Y-124956328D01*
G37*
G36*
X193990385Y-124956328D02*
G01*
X194192005Y-125021839D01*
X194380896Y-125118083D01*
X194552404Y-125242692D01*
X194702308Y-125392596D01*
X194826917Y-125564104D01*
X194923161Y-125752995D01*
X194988672Y-125954615D01*
X195021835Y-126164002D01*
X195021835Y-126375998D01*
X194988672Y-126585385D01*
X194923161Y-126787005D01*
X194826917Y-126975896D01*
X194702308Y-127147404D01*
X194552404Y-127297308D01*
X194380896Y-127421917D01*
X194192005Y-127518161D01*
X193990385Y-127583672D01*
X193780998Y-127616835D01*
X193569002Y-127616835D01*
X193359615Y-127583672D01*
X193157995Y-127518161D01*
X192969104Y-127421917D01*
X192797596Y-127297308D01*
X192647692Y-127147404D01*
X192523083Y-126975896D01*
X192426839Y-126787005D01*
X192361328Y-126585385D01*
X192328165Y-126375998D01*
X192328165Y-126164002D01*
X192361328Y-125954615D01*
X192426839Y-125752995D01*
X192523083Y-125564104D01*
X192647692Y-125392596D01*
X192797596Y-125242692D01*
X192969104Y-125118083D01*
X193157995Y-125021839D01*
X193359615Y-124956328D01*
X193569002Y-124923165D01*
X193780998Y-124923165D01*
X193990385Y-124956328D01*
G37*
G36*
X105686061Y-114362108D02*
G01*
X106019625Y-114438241D01*
X106342567Y-114551244D01*
X106650826Y-114699693D01*
X106940526Y-114881724D01*
X107208023Y-115095046D01*
X107449954Y-115336977D01*
X107663276Y-115604474D01*
X107845307Y-115894174D01*
X107993756Y-116202433D01*
X108106759Y-116525375D01*
X108182892Y-116858939D01*
X108221200Y-117198929D01*
X108221200Y-117541071D01*
X108182892Y-117881061D01*
X108106759Y-118214625D01*
X107993756Y-118537567D01*
X107845307Y-118845826D01*
X107663276Y-119135526D01*
X107449954Y-119403023D01*
X107208023Y-119644954D01*
X106940526Y-119858276D01*
X106650826Y-120040307D01*
X106342567Y-120188756D01*
X106019625Y-120301759D01*
X105686061Y-120377892D01*
X105346071Y-120416200D01*
X105003929Y-120416200D01*
X104663939Y-120377892D01*
X104330375Y-120301759D01*
X104007433Y-120188756D01*
X103699174Y-120040307D01*
X103409474Y-119858276D01*
X103141977Y-119644954D01*
X102900046Y-119403023D01*
X102686724Y-119135526D01*
X102504693Y-118845826D01*
X102356244Y-118537567D01*
X102243241Y-118214625D01*
X102167108Y-117881061D01*
X102128800Y-117541071D01*
X102128800Y-117198929D01*
X102167108Y-116858939D01*
X102243241Y-116525375D01*
X102356244Y-116202433D01*
X102504693Y-115894174D01*
X102686724Y-115604474D01*
X102900046Y-115336977D01*
X103141977Y-115095046D01*
X103409474Y-114881724D01*
X103699174Y-114699693D01*
X104007433Y-114551244D01*
X104330375Y-114438241D01*
X104663939Y-114362108D01*
X105003929Y-114323800D01*
X105346071Y-114323800D01*
X105686061Y-114362108D01*
G37*
G36*
X197686061Y-114362108D02*
G01*
X198019625Y-114438241D01*
X198342567Y-114551244D01*
X198650826Y-114699693D01*
X198940526Y-114881724D01*
X199208023Y-115095046D01*
X199449954Y-115336977D01*
X199663276Y-115604474D01*
X199845307Y-115894174D01*
X199993756Y-116202433D01*
X200106759Y-116525375D01*
X200182892Y-116858939D01*
X200221200Y-117198929D01*
X200221200Y-117541071D01*
X200182892Y-117881061D01*
X200106759Y-118214625D01*
X199993756Y-118537567D01*
X199845307Y-118845826D01*
X199663276Y-119135526D01*
X199449954Y-119403023D01*
X199208023Y-119644954D01*
X198940526Y-119858276D01*
X198650826Y-120040307D01*
X198342567Y-120188756D01*
X198019625Y-120301759D01*
X197686061Y-120377892D01*
X197346071Y-120416200D01*
X197003929Y-120416200D01*
X196663939Y-120377892D01*
X196330375Y-120301759D01*
X196007433Y-120188756D01*
X195699174Y-120040307D01*
X195409474Y-119858276D01*
X195141977Y-119644954D01*
X194900046Y-119403023D01*
X194686724Y-119135526D01*
X194504693Y-118845826D01*
X194356244Y-118537567D01*
X194243241Y-118214625D01*
X194167108Y-117881061D01*
X194128800Y-117541071D01*
X194128800Y-117198929D01*
X194167108Y-116858939D01*
X194243241Y-116525375D01*
X194356244Y-116202433D01*
X194504693Y-115894174D01*
X194686724Y-115604474D01*
X194900046Y-115336977D01*
X195141977Y-115095046D01*
X195409474Y-114881724D01*
X195699174Y-114699693D01*
X196007433Y-114551244D01*
X196330375Y-114438241D01*
X196663939Y-114362108D01*
X197003929Y-114323800D01*
X197346071Y-114323800D01*
X197686061Y-114362108D01*
G37*
G36*
X112653712Y-113334947D02*
G01*
X112847871Y-113398033D01*
X113029771Y-113490715D01*
X113194932Y-113610712D01*
X113339288Y-113755068D01*
X113459285Y-113920229D01*
X113551967Y-114102129D01*
X113615053Y-114296288D01*
X113646989Y-114497925D01*
X113646989Y-114702075D01*
X113615053Y-114903712D01*
X113551967Y-115097871D01*
X113459285Y-115279771D01*
X113339288Y-115444932D01*
X113194932Y-115589288D01*
X113029771Y-115709285D01*
X112847871Y-115801967D01*
X112653712Y-115865053D01*
X112452075Y-115896989D01*
X112247925Y-115896989D01*
X112046288Y-115865053D01*
X111852129Y-115801967D01*
X111670229Y-115709285D01*
X111505068Y-115589288D01*
X111360712Y-115444932D01*
X111240715Y-115279771D01*
X111148033Y-115097871D01*
X111084947Y-114903712D01*
X111053011Y-114702075D01*
X111053011Y-114497925D01*
X111084947Y-114296288D01*
X111148033Y-114102129D01*
X111240715Y-113920229D01*
X111360712Y-113755068D01*
X111505068Y-113610712D01*
X111670229Y-113490715D01*
X111852129Y-113398033D01*
X112046288Y-113334947D01*
X112247925Y-113303011D01*
X112452075Y-113303011D01*
X112653712Y-113334947D01*
G37*
G36*
X124653712Y-113334947D02*
G01*
X124847871Y-113398033D01*
X125029771Y-113490715D01*
X125194932Y-113610712D01*
X125339288Y-113755068D01*
X125459285Y-113920229D01*
X125551967Y-114102129D01*
X125615053Y-114296288D01*
X125646989Y-114497925D01*
X125646989Y-114702075D01*
X125615053Y-114903712D01*
X125551967Y-115097871D01*
X125459285Y-115279771D01*
X125339288Y-115444932D01*
X125194932Y-115589288D01*
X125029771Y-115709285D01*
X124847871Y-115801967D01*
X124653712Y-115865053D01*
X124452075Y-115896989D01*
X124247925Y-115896989D01*
X124046288Y-115865053D01*
X123852129Y-115801967D01*
X123670229Y-115709285D01*
X123505068Y-115589288D01*
X123360712Y-115444932D01*
X123240715Y-115279771D01*
X123148033Y-115097871D01*
X123084947Y-114903712D01*
X123053011Y-114702075D01*
X123053011Y-114497925D01*
X123084947Y-114296288D01*
X123148033Y-114102129D01*
X123240715Y-113920229D01*
X123360712Y-113755068D01*
X123505068Y-113610712D01*
X123670229Y-113490715D01*
X123852129Y-113398033D01*
X124046288Y-113334947D01*
X124247925Y-113303011D01*
X124452075Y-113303011D01*
X124653712Y-113334947D01*
G37*
G36*
X131553712Y-113334947D02*
G01*
X131747871Y-113398033D01*
X131929771Y-113490715D01*
X132094932Y-113610712D01*
X132239288Y-113755068D01*
X132359285Y-113920229D01*
X132451967Y-114102129D01*
X132515053Y-114296288D01*
X132546989Y-114497925D01*
X132546989Y-114702075D01*
X132515053Y-114903712D01*
X132451967Y-115097871D01*
X132359285Y-115279771D01*
X132239288Y-115444932D01*
X132094932Y-115589288D01*
X131929771Y-115709285D01*
X131747871Y-115801967D01*
X131553712Y-115865053D01*
X131352075Y-115896989D01*
X131147925Y-115896989D01*
X130946288Y-115865053D01*
X130752129Y-115801967D01*
X130570229Y-115709285D01*
X130405068Y-115589288D01*
X130260712Y-115444932D01*
X130140715Y-115279771D01*
X130048033Y-115097871D01*
X129984947Y-114903712D01*
X129953011Y-114702075D01*
X129953011Y-114497925D01*
X129984947Y-114296288D01*
X130048033Y-114102129D01*
X130140715Y-113920229D01*
X130260712Y-113755068D01*
X130405068Y-113610712D01*
X130570229Y-113490715D01*
X130752129Y-113398033D01*
X130946288Y-113334947D01*
X131147925Y-113303011D01*
X131352075Y-113303011D01*
X131553712Y-113334947D01*
G37*
G36*
X143553712Y-113334947D02*
G01*
X143747871Y-113398033D01*
X143929771Y-113490715D01*
X144094932Y-113610712D01*
X144239288Y-113755068D01*
X144359285Y-113920229D01*
X144451967Y-114102129D01*
X144515053Y-114296288D01*
X144546989Y-114497925D01*
X144546989Y-114702075D01*
X144515053Y-114903712D01*
X144451967Y-115097871D01*
X144359285Y-115279771D01*
X144239288Y-115444932D01*
X144094932Y-115589288D01*
X143929771Y-115709285D01*
X143747871Y-115801967D01*
X143553712Y-115865053D01*
X143352075Y-115896989D01*
X143147925Y-115896989D01*
X142946288Y-115865053D01*
X142752129Y-115801967D01*
X142570229Y-115709285D01*
X142405068Y-115589288D01*
X142260712Y-115444932D01*
X142140715Y-115279771D01*
X142048033Y-115097871D01*
X141984947Y-114903712D01*
X141953011Y-114702075D01*
X141953011Y-114497925D01*
X141984947Y-114296288D01*
X142048033Y-114102129D01*
X142140715Y-113920229D01*
X142260712Y-113755068D01*
X142405068Y-113610712D01*
X142570229Y-113490715D01*
X142752129Y-113398033D01*
X142946288Y-113334947D01*
X143147925Y-113303011D01*
X143352075Y-113303011D01*
X143553712Y-113334947D01*
G37*
G36*
X159053712Y-113334947D02*
G01*
X159247871Y-113398033D01*
X159429771Y-113490715D01*
X159594932Y-113610712D01*
X159739288Y-113755068D01*
X159859285Y-113920229D01*
X159951967Y-114102129D01*
X160015053Y-114296288D01*
X160046989Y-114497925D01*
X160046989Y-114702075D01*
X160015053Y-114903712D01*
X159951967Y-115097871D01*
X159859285Y-115279771D01*
X159739288Y-115444932D01*
X159594932Y-115589288D01*
X159429771Y-115709285D01*
X159247871Y-115801967D01*
X159053712Y-115865053D01*
X158852075Y-115896989D01*
X158647925Y-115896989D01*
X158446288Y-115865053D01*
X158252129Y-115801967D01*
X158070229Y-115709285D01*
X157905068Y-115589288D01*
X157760712Y-115444932D01*
X157640715Y-115279771D01*
X157548033Y-115097871D01*
X157484947Y-114903712D01*
X157453011Y-114702075D01*
X157453011Y-114497925D01*
X157484947Y-114296288D01*
X157548033Y-114102129D01*
X157640715Y-113920229D01*
X157760712Y-113755068D01*
X157905068Y-113610712D01*
X158070229Y-113490715D01*
X158252129Y-113398033D01*
X158446288Y-113334947D01*
X158647925Y-113303011D01*
X158852075Y-113303011D01*
X159053712Y-113334947D01*
G37*
G36*
X171053712Y-113334947D02*
G01*
X171247871Y-113398033D01*
X171429771Y-113490715D01*
X171594932Y-113610712D01*
X171739288Y-113755068D01*
X171859285Y-113920229D01*
X171951967Y-114102129D01*
X172015053Y-114296288D01*
X172046989Y-114497925D01*
X172046989Y-114702075D01*
X172015053Y-114903712D01*
X171951967Y-115097871D01*
X171859285Y-115279771D01*
X171739288Y-115444932D01*
X171594932Y-115589288D01*
X171429771Y-115709285D01*
X171247871Y-115801967D01*
X171053712Y-115865053D01*
X170852075Y-115896989D01*
X170647925Y-115896989D01*
X170446288Y-115865053D01*
X170252129Y-115801967D01*
X170070229Y-115709285D01*
X169905068Y-115589288D01*
X169760712Y-115444932D01*
X169640715Y-115279771D01*
X169548033Y-115097871D01*
X169484947Y-114903712D01*
X169453011Y-114702075D01*
X169453011Y-114497925D01*
X169484947Y-114296288D01*
X169548033Y-114102129D01*
X169640715Y-113920229D01*
X169760712Y-113755068D01*
X169905068Y-113610712D01*
X170070229Y-113490715D01*
X170252129Y-113398033D01*
X170446288Y-113334947D01*
X170647925Y-113303011D01*
X170852075Y-113303011D01*
X171053712Y-113334947D01*
G37*
G36*
X178103712Y-113334947D02*
G01*
X178297871Y-113398033D01*
X178479771Y-113490715D01*
X178644932Y-113610712D01*
X178789288Y-113755068D01*
X178909285Y-113920229D01*
X179001967Y-114102129D01*
X179065053Y-114296288D01*
X179096989Y-114497925D01*
X179096989Y-114702075D01*
X179065053Y-114903712D01*
X179001967Y-115097871D01*
X178909285Y-115279771D01*
X178789288Y-115444932D01*
X178644932Y-115589288D01*
X178479771Y-115709285D01*
X178297871Y-115801967D01*
X178103712Y-115865053D01*
X177902075Y-115896989D01*
X177697925Y-115896989D01*
X177496288Y-115865053D01*
X177302129Y-115801967D01*
X177120229Y-115709285D01*
X176955068Y-115589288D01*
X176810712Y-115444932D01*
X176690715Y-115279771D01*
X176598033Y-115097871D01*
X176534947Y-114903712D01*
X176503011Y-114702075D01*
X176503011Y-114497925D01*
X176534947Y-114296288D01*
X176598033Y-114102129D01*
X176690715Y-113920229D01*
X176810712Y-113755068D01*
X176955068Y-113610712D01*
X177120229Y-113490715D01*
X177302129Y-113398033D01*
X177496288Y-113334947D01*
X177697925Y-113303011D01*
X177902075Y-113303011D01*
X178103712Y-113334947D01*
G37*
G36*
X190103712Y-113334947D02*
G01*
X190297871Y-113398033D01*
X190479771Y-113490715D01*
X190644932Y-113610712D01*
X190789288Y-113755068D01*
X190909285Y-113920229D01*
X191001967Y-114102129D01*
X191065053Y-114296288D01*
X191096989Y-114497925D01*
X191096989Y-114702075D01*
X191065053Y-114903712D01*
X191001967Y-115097871D01*
X190909285Y-115279771D01*
X190789288Y-115444932D01*
X190644932Y-115589288D01*
X190479771Y-115709285D01*
X190297871Y-115801967D01*
X190103712Y-115865053D01*
X189902075Y-115896989D01*
X189697925Y-115896989D01*
X189496288Y-115865053D01*
X189302129Y-115801967D01*
X189120229Y-115709285D01*
X188955068Y-115589288D01*
X188810712Y-115444932D01*
X188690715Y-115279771D01*
X188598033Y-115097871D01*
X188534947Y-114903712D01*
X188503011Y-114702075D01*
X188503011Y-114497925D01*
X188534947Y-114296288D01*
X188598033Y-114102129D01*
X188690715Y-113920229D01*
X188810712Y-113755068D01*
X188955068Y-113610712D01*
X189120229Y-113490715D01*
X189302129Y-113398033D01*
X189496288Y-113334947D01*
X189697925Y-113303011D01*
X189902075Y-113303011D01*
X190103712Y-113334947D01*
G37*
G36*
X112653712Y-101134947D02*
G01*
X112847871Y-101198033D01*
X113029771Y-101290715D01*
X113194932Y-101410712D01*
X113339288Y-101555068D01*
X113459285Y-101720229D01*
X113551967Y-101902129D01*
X113615053Y-102096288D01*
X113646989Y-102297925D01*
X113646989Y-102502075D01*
X113615053Y-102703712D01*
X113551967Y-102897871D01*
X113459285Y-103079771D01*
X113339288Y-103244932D01*
X113194932Y-103389288D01*
X113029771Y-103509285D01*
X112847871Y-103601967D01*
X112653712Y-103665053D01*
X112452075Y-103696989D01*
X112247925Y-103696989D01*
X112046288Y-103665053D01*
X111852129Y-103601967D01*
X111670229Y-103509285D01*
X111505068Y-103389288D01*
X111360712Y-103244932D01*
X111240715Y-103079771D01*
X111148033Y-102897871D01*
X111084947Y-102703712D01*
X111053011Y-102502075D01*
X111053011Y-102297925D01*
X111084947Y-102096288D01*
X111148033Y-101902129D01*
X111240715Y-101720229D01*
X111360712Y-101555068D01*
X111505068Y-101410712D01*
X111670229Y-101290715D01*
X111852129Y-101198033D01*
X112046288Y-101134947D01*
X112247925Y-101103011D01*
X112452075Y-101103011D01*
X112653712Y-101134947D01*
G37*
G36*
X124653712Y-101134947D02*
G01*
X124847871Y-101198033D01*
X125029771Y-101290715D01*
X125194932Y-101410712D01*
X125339288Y-101555068D01*
X125459285Y-101720229D01*
X125551967Y-101902129D01*
X125615053Y-102096288D01*
X125646989Y-102297925D01*
X125646989Y-102502075D01*
X125615053Y-102703712D01*
X125551967Y-102897871D01*
X125459285Y-103079771D01*
X125339288Y-103244932D01*
X125194932Y-103389288D01*
X125029771Y-103509285D01*
X124847871Y-103601967D01*
X124653712Y-103665053D01*
X124452075Y-103696989D01*
X124247925Y-103696989D01*
X124046288Y-103665053D01*
X123852129Y-103601967D01*
X123670229Y-103509285D01*
X123505068Y-103389288D01*
X123360712Y-103244932D01*
X123240715Y-103079771D01*
X123148033Y-102897871D01*
X123084947Y-102703712D01*
X123053011Y-102502075D01*
X123053011Y-102297925D01*
X123084947Y-102096288D01*
X123148033Y-101902129D01*
X123240715Y-101720229D01*
X123360712Y-101555068D01*
X123505068Y-101410712D01*
X123670229Y-101290715D01*
X123852129Y-101198033D01*
X124046288Y-101134947D01*
X124247925Y-101103011D01*
X124452075Y-101103011D01*
X124653712Y-101134947D01*
G37*
G36*
X131553712Y-101134947D02*
G01*
X131747871Y-101198033D01*
X131929771Y-101290715D01*
X132094932Y-101410712D01*
X132239288Y-101555068D01*
X132359285Y-101720229D01*
X132451967Y-101902129D01*
X132515053Y-102096288D01*
X132546989Y-102297925D01*
X132546989Y-102502075D01*
X132515053Y-102703712D01*
X132451967Y-102897871D01*
X132359285Y-103079771D01*
X132239288Y-103244932D01*
X132094932Y-103389288D01*
X131929771Y-103509285D01*
X131747871Y-103601967D01*
X131553712Y-103665053D01*
X131352075Y-103696989D01*
X131147925Y-103696989D01*
X130946288Y-103665053D01*
X130752129Y-103601967D01*
X130570229Y-103509285D01*
X130405068Y-103389288D01*
X130260712Y-103244932D01*
X130140715Y-103079771D01*
X130048033Y-102897871D01*
X129984947Y-102703712D01*
X129953011Y-102502075D01*
X129953011Y-102297925D01*
X129984947Y-102096288D01*
X130048033Y-101902129D01*
X130140715Y-101720229D01*
X130260712Y-101555068D01*
X130405068Y-101410712D01*
X130570229Y-101290715D01*
X130752129Y-101198033D01*
X130946288Y-101134947D01*
X131147925Y-101103011D01*
X131352075Y-101103011D01*
X131553712Y-101134947D01*
G37*
G36*
X143553712Y-101134947D02*
G01*
X143747871Y-101198033D01*
X143929771Y-101290715D01*
X144094932Y-101410712D01*
X144239288Y-101555068D01*
X144359285Y-101720229D01*
X144451967Y-101902129D01*
X144515053Y-102096288D01*
X144546989Y-102297925D01*
X144546989Y-102502075D01*
X144515053Y-102703712D01*
X144451967Y-102897871D01*
X144359285Y-103079771D01*
X144239288Y-103244932D01*
X144094932Y-103389288D01*
X143929771Y-103509285D01*
X143747871Y-103601967D01*
X143553712Y-103665053D01*
X143352075Y-103696989D01*
X143147925Y-103696989D01*
X142946288Y-103665053D01*
X142752129Y-103601967D01*
X142570229Y-103509285D01*
X142405068Y-103389288D01*
X142260712Y-103244932D01*
X142140715Y-103079771D01*
X142048033Y-102897871D01*
X141984947Y-102703712D01*
X141953011Y-102502075D01*
X141953011Y-102297925D01*
X141984947Y-102096288D01*
X142048033Y-101902129D01*
X142140715Y-101720229D01*
X142260712Y-101555068D01*
X142405068Y-101410712D01*
X142570229Y-101290715D01*
X142752129Y-101198033D01*
X142946288Y-101134947D01*
X143147925Y-101103011D01*
X143352075Y-101103011D01*
X143553712Y-101134947D01*
G37*
G36*
X159053712Y-101134947D02*
G01*
X159247871Y-101198033D01*
X159429771Y-101290715D01*
X159594932Y-101410712D01*
X159739288Y-101555068D01*
X159859285Y-101720229D01*
X159951967Y-101902129D01*
X160015053Y-102096288D01*
X160046989Y-102297925D01*
X160046989Y-102502075D01*
X160015053Y-102703712D01*
X159951967Y-102897871D01*
X159859285Y-103079771D01*
X159739288Y-103244932D01*
X159594932Y-103389288D01*
X159429771Y-103509285D01*
X159247871Y-103601967D01*
X159053712Y-103665053D01*
X158852075Y-103696989D01*
X158647925Y-103696989D01*
X158446288Y-103665053D01*
X158252129Y-103601967D01*
X158070229Y-103509285D01*
X157905068Y-103389288D01*
X157760712Y-103244932D01*
X157640715Y-103079771D01*
X157548033Y-102897871D01*
X157484947Y-102703712D01*
X157453011Y-102502075D01*
X157453011Y-102297925D01*
X157484947Y-102096288D01*
X157548033Y-101902129D01*
X157640715Y-101720229D01*
X157760712Y-101555068D01*
X157905068Y-101410712D01*
X158070229Y-101290715D01*
X158252129Y-101198033D01*
X158446288Y-101134947D01*
X158647925Y-101103011D01*
X158852075Y-101103011D01*
X159053712Y-101134947D01*
G37*
G36*
X171053712Y-101134947D02*
G01*
X171247871Y-101198033D01*
X171429771Y-101290715D01*
X171594932Y-101410712D01*
X171739288Y-101555068D01*
X171859285Y-101720229D01*
X171951967Y-101902129D01*
X172015053Y-102096288D01*
X172046989Y-102297925D01*
X172046989Y-102502075D01*
X172015053Y-102703712D01*
X171951967Y-102897871D01*
X171859285Y-103079771D01*
X171739288Y-103244932D01*
X171594932Y-103389288D01*
X171429771Y-103509285D01*
X171247871Y-103601967D01*
X171053712Y-103665053D01*
X170852075Y-103696989D01*
X170647925Y-103696989D01*
X170446288Y-103665053D01*
X170252129Y-103601967D01*
X170070229Y-103509285D01*
X169905068Y-103389288D01*
X169760712Y-103244932D01*
X169640715Y-103079771D01*
X169548033Y-102897871D01*
X169484947Y-102703712D01*
X169453011Y-102502075D01*
X169453011Y-102297925D01*
X169484947Y-102096288D01*
X169548033Y-101902129D01*
X169640715Y-101720229D01*
X169760712Y-101555068D01*
X169905068Y-101410712D01*
X170070229Y-101290715D01*
X170252129Y-101198033D01*
X170446288Y-101134947D01*
X170647925Y-101103011D01*
X170852075Y-101103011D01*
X171053712Y-101134947D01*
G37*
G36*
X178103712Y-101134947D02*
G01*
X178297871Y-101198033D01*
X178479771Y-101290715D01*
X178644932Y-101410712D01*
X178789288Y-101555068D01*
X178909285Y-101720229D01*
X179001967Y-101902129D01*
X179065053Y-102096288D01*
X179096989Y-102297925D01*
X179096989Y-102502075D01*
X179065053Y-102703712D01*
X179001967Y-102897871D01*
X178909285Y-103079771D01*
X178789288Y-103244932D01*
X178644932Y-103389288D01*
X178479771Y-103509285D01*
X178297871Y-103601967D01*
X178103712Y-103665053D01*
X177902075Y-103696989D01*
X177697925Y-103696989D01*
X177496288Y-103665053D01*
X177302129Y-103601967D01*
X177120229Y-103509285D01*
X176955068Y-103389288D01*
X176810712Y-103244932D01*
X176690715Y-103079771D01*
X176598033Y-102897871D01*
X176534947Y-102703712D01*
X176503011Y-102502075D01*
X176503011Y-102297925D01*
X176534947Y-102096288D01*
X176598033Y-101902129D01*
X176690715Y-101720229D01*
X176810712Y-101555068D01*
X176955068Y-101410712D01*
X177120229Y-101290715D01*
X177302129Y-101198033D01*
X177496288Y-101134947D01*
X177697925Y-101103011D01*
X177902075Y-101103011D01*
X178103712Y-101134947D01*
G37*
G36*
X190103712Y-101134947D02*
G01*
X190297871Y-101198033D01*
X190479771Y-101290715D01*
X190644932Y-101410712D01*
X190789288Y-101555068D01*
X190909285Y-101720229D01*
X191001967Y-101902129D01*
X191065053Y-102096288D01*
X191096989Y-102297925D01*
X191096989Y-102502075D01*
X191065053Y-102703712D01*
X191001967Y-102897871D01*
X190909285Y-103079771D01*
X190789288Y-103244932D01*
X190644932Y-103389288D01*
X190479771Y-103509285D01*
X190297871Y-103601967D01*
X190103712Y-103665053D01*
X189902075Y-103696989D01*
X189697925Y-103696989D01*
X189496288Y-103665053D01*
X189302129Y-103601967D01*
X189120229Y-103509285D01*
X188955068Y-103389288D01*
X188810712Y-103244932D01*
X188690715Y-103079771D01*
X188598033Y-102897871D01*
X188534947Y-102703712D01*
X188503011Y-102502075D01*
X188503011Y-102297925D01*
X188534947Y-102096288D01*
X188598033Y-101902129D01*
X188690715Y-101720229D01*
X188810712Y-101555068D01*
X188955068Y-101410712D01*
X189120229Y-101290715D01*
X189302129Y-101198033D01*
X189496288Y-101134947D01*
X189697925Y-101103011D01*
X189902075Y-101103011D01*
X190103712Y-101134947D01*
G37*
G36*
X146123914Y-100661995D02*
G01*
X146132612Y-100665835D01*
X146140212Y-100666943D01*
X146187718Y-100690167D01*
X146225106Y-100706676D01*
X146228567Y-100710137D01*
X146229501Y-100710594D01*
X146299405Y-100780498D01*
X146299861Y-100781431D01*
X146303324Y-100784894D01*
X146319836Y-100822291D01*
X146343056Y-100869787D01*
X146344162Y-100877384D01*
X146348005Y-100886086D01*
X146356000Y-100955000D01*
X146356000Y-103155000D01*
X146348005Y-103223914D01*
X146344162Y-103232615D01*
X146343056Y-103240212D01*
X146319841Y-103287697D01*
X146303324Y-103325106D01*
X146299860Y-103328569D01*
X146299405Y-103329501D01*
X146229501Y-103399405D01*
X146228569Y-103399860D01*
X146225106Y-103403324D01*
X146187697Y-103419841D01*
X146140212Y-103443056D01*
X146132615Y-103444162D01*
X146123914Y-103448005D01*
X146055000Y-103456000D01*
X145055000Y-103456000D01*
X144986086Y-103448005D01*
X144977384Y-103444162D01*
X144969787Y-103443056D01*
X144922291Y-103419836D01*
X144884894Y-103403324D01*
X144881431Y-103399861D01*
X144880498Y-103399405D01*
X144810594Y-103329501D01*
X144810137Y-103328567D01*
X144806676Y-103325106D01*
X144790167Y-103287718D01*
X144766943Y-103240212D01*
X144765835Y-103232612D01*
X144761995Y-103223914D01*
X144754000Y-103155000D01*
X144754000Y-100955000D01*
X144761995Y-100886086D01*
X144765835Y-100877387D01*
X144766943Y-100869787D01*
X144790172Y-100822270D01*
X144806676Y-100784894D01*
X144810136Y-100781433D01*
X144810594Y-100780498D01*
X144880498Y-100710594D01*
X144881433Y-100710136D01*
X144884894Y-100706676D01*
X144922270Y-100690172D01*
X144969787Y-100666943D01*
X144977387Y-100665835D01*
X144986086Y-100661995D01*
X145055000Y-100654000D01*
X146055000Y-100654000D01*
X146123914Y-100661995D01*
G37*
G36*
X150923914Y-100661995D02*
G01*
X150932612Y-100665835D01*
X150940212Y-100666943D01*
X150987718Y-100690167D01*
X151025106Y-100706676D01*
X151028567Y-100710137D01*
X151029501Y-100710594D01*
X151099405Y-100780498D01*
X151099861Y-100781431D01*
X151103324Y-100784894D01*
X151119836Y-100822291D01*
X151143056Y-100869787D01*
X151144162Y-100877384D01*
X151148005Y-100886086D01*
X151156000Y-100955000D01*
X151156000Y-103155000D01*
X151148005Y-103223914D01*
X151144162Y-103232615D01*
X151143056Y-103240212D01*
X151119841Y-103287697D01*
X151103324Y-103325106D01*
X151099860Y-103328569D01*
X151099405Y-103329501D01*
X151029501Y-103399405D01*
X151028569Y-103399860D01*
X151025106Y-103403324D01*
X150987697Y-103419841D01*
X150940212Y-103443056D01*
X150932615Y-103444162D01*
X150923914Y-103448005D01*
X150855000Y-103456000D01*
X149855000Y-103456000D01*
X149786086Y-103448005D01*
X149777384Y-103444162D01*
X149769787Y-103443056D01*
X149722291Y-103419836D01*
X149684894Y-103403324D01*
X149681431Y-103399861D01*
X149680498Y-103399405D01*
X149610594Y-103329501D01*
X149610137Y-103328567D01*
X149606676Y-103325106D01*
X149590167Y-103287718D01*
X149566943Y-103240212D01*
X149565835Y-103232612D01*
X149561995Y-103223914D01*
X149554000Y-103155000D01*
X149554000Y-100955000D01*
X149561995Y-100886086D01*
X149565835Y-100877387D01*
X149566943Y-100869787D01*
X149590172Y-100822270D01*
X149606676Y-100784894D01*
X149610136Y-100781433D01*
X149610594Y-100780498D01*
X149680498Y-100710594D01*
X149681433Y-100710136D01*
X149684894Y-100706676D01*
X149722270Y-100690172D01*
X149769787Y-100666943D01*
X149777387Y-100665835D01*
X149786086Y-100661995D01*
X149855000Y-100654000D01*
X150855000Y-100654000D01*
X150923914Y-100661995D01*
G37*
G36*
X119619517Y-99102882D02*
G01*
X119636062Y-99113938D01*
X119647118Y-99130483D01*
X119651000Y-99150000D01*
X119651000Y-101650000D01*
X119647118Y-101669517D01*
X119636062Y-101686062D01*
X119619517Y-101697118D01*
X119600000Y-101701000D01*
X117100000Y-101701000D01*
X117080483Y-101697118D01*
X117063938Y-101686062D01*
X117052882Y-101669517D01*
X117049000Y-101650000D01*
X117049000Y-99150000D01*
X117052882Y-99130483D01*
X117063938Y-99113938D01*
X117080483Y-99102882D01*
X117100000Y-99099000D01*
X119600000Y-99099000D01*
X119619517Y-99102882D01*
G37*
G36*
X138519517Y-99102882D02*
G01*
X138536062Y-99113938D01*
X138547118Y-99130483D01*
X138551000Y-99150000D01*
X138551000Y-101650000D01*
X138547118Y-101669517D01*
X138536062Y-101686062D01*
X138519517Y-101697118D01*
X138500000Y-101701000D01*
X136000000Y-101701000D01*
X135980483Y-101697118D01*
X135963938Y-101686062D01*
X135952882Y-101669517D01*
X135949000Y-101650000D01*
X135949000Y-99150000D01*
X135952882Y-99130483D01*
X135963938Y-99113938D01*
X135980483Y-99102882D01*
X136000000Y-99099000D01*
X138500000Y-99099000D01*
X138519517Y-99102882D01*
G37*
G36*
X166019517Y-99102882D02*
G01*
X166036062Y-99113938D01*
X166047118Y-99130483D01*
X166051000Y-99150000D01*
X166051000Y-101650000D01*
X166047118Y-101669517D01*
X166036062Y-101686062D01*
X166019517Y-101697118D01*
X166000000Y-101701000D01*
X163500000Y-101701000D01*
X163480483Y-101697118D01*
X163463938Y-101686062D01*
X163452882Y-101669517D01*
X163449000Y-101650000D01*
X163449000Y-99150000D01*
X163452882Y-99130483D01*
X163463938Y-99113938D01*
X163480483Y-99102882D01*
X163500000Y-99099000D01*
X166000000Y-99099000D01*
X166019517Y-99102882D01*
G37*
G36*
X185069517Y-99102882D02*
G01*
X185086062Y-99113938D01*
X185097118Y-99130483D01*
X185101000Y-99150000D01*
X185101000Y-101650000D01*
X185097118Y-101669517D01*
X185086062Y-101686062D01*
X185069517Y-101697118D01*
X185050000Y-101701000D01*
X182550000Y-101701000D01*
X182530483Y-101697118D01*
X182513938Y-101686062D01*
X182502882Y-101669517D01*
X182499000Y-101650000D01*
X182499000Y-99150000D01*
X182502882Y-99130483D01*
X182513938Y-99113938D01*
X182530483Y-99102882D01*
X182550000Y-99099000D01*
X185050000Y-99099000D01*
X185069517Y-99102882D01*
G37*
G36*
X172168914Y-98006995D02*
G01*
X172177612Y-98010835D01*
X172185212Y-98011943D01*
X172232718Y-98035167D01*
X172270106Y-98051676D01*
X172273567Y-98055137D01*
X172274501Y-98055594D01*
X172344405Y-98125498D01*
X172344861Y-98126431D01*
X172348324Y-98129894D01*
X172364836Y-98167291D01*
X172388056Y-98214787D01*
X172389162Y-98222384D01*
X172393005Y-98231086D01*
X172401000Y-98300000D01*
X172401000Y-100500000D01*
X172393005Y-100568914D01*
X172389162Y-100577615D01*
X172388056Y-100585212D01*
X172364841Y-100632697D01*
X172348324Y-100670106D01*
X172344860Y-100673569D01*
X172344405Y-100674501D01*
X172274501Y-100744405D01*
X172273569Y-100744860D01*
X172270106Y-100748324D01*
X172232697Y-100764841D01*
X172185212Y-100788056D01*
X172177615Y-100789162D01*
X172168914Y-100793005D01*
X172100000Y-100801000D01*
X171100000Y-100801000D01*
X171031086Y-100793005D01*
X171022384Y-100789162D01*
X171014787Y-100788056D01*
X170967291Y-100764836D01*
X170929894Y-100748324D01*
X170926431Y-100744861D01*
X170925498Y-100744405D01*
X170855594Y-100674501D01*
X170855137Y-100673567D01*
X170851676Y-100670106D01*
X170835167Y-100632718D01*
X170811943Y-100585212D01*
X170810835Y-100577612D01*
X170806995Y-100568914D01*
X170799000Y-100500000D01*
X170799000Y-98300000D01*
X170806995Y-98231086D01*
X170810835Y-98222387D01*
X170811943Y-98214787D01*
X170835172Y-98167270D01*
X170851676Y-98129894D01*
X170855136Y-98126433D01*
X170855594Y-98125498D01*
X170925498Y-98055594D01*
X170926433Y-98055136D01*
X170929894Y-98051676D01*
X170967270Y-98035172D01*
X171014787Y-98011943D01*
X171022387Y-98010835D01*
X171031086Y-98006995D01*
X171100000Y-97999000D01*
X172100000Y-97999000D01*
X172168914Y-98006995D01*
G37*
G36*
X176968914Y-98006995D02*
G01*
X176977612Y-98010835D01*
X176985212Y-98011943D01*
X177032718Y-98035167D01*
X177070106Y-98051676D01*
X177073567Y-98055137D01*
X177074501Y-98055594D01*
X177144405Y-98125498D01*
X177144861Y-98126431D01*
X177148324Y-98129894D01*
X177164836Y-98167291D01*
X177188056Y-98214787D01*
X177189162Y-98222384D01*
X177193005Y-98231086D01*
X177201000Y-98300000D01*
X177201000Y-100500000D01*
X177193005Y-100568914D01*
X177189162Y-100577615D01*
X177188056Y-100585212D01*
X177164841Y-100632697D01*
X177148324Y-100670106D01*
X177144860Y-100673569D01*
X177144405Y-100674501D01*
X177074501Y-100744405D01*
X177073569Y-100744860D01*
X177070106Y-100748324D01*
X177032697Y-100764841D01*
X176985212Y-100788056D01*
X176977615Y-100789162D01*
X176968914Y-100793005D01*
X176900000Y-100801000D01*
X175900000Y-100801000D01*
X175831086Y-100793005D01*
X175822384Y-100789162D01*
X175814787Y-100788056D01*
X175767291Y-100764836D01*
X175729894Y-100748324D01*
X175726431Y-100744861D01*
X175725498Y-100744405D01*
X175655594Y-100674501D01*
X175655137Y-100673567D01*
X175651676Y-100670106D01*
X175635167Y-100632718D01*
X175611943Y-100585212D01*
X175610835Y-100577612D01*
X175606995Y-100568914D01*
X175599000Y-100500000D01*
X175599000Y-98300000D01*
X175606995Y-98231086D01*
X175610835Y-98222387D01*
X175611943Y-98214787D01*
X175635172Y-98167270D01*
X175651676Y-98129894D01*
X175655136Y-98126433D01*
X175655594Y-98125498D01*
X175725498Y-98055594D01*
X175726433Y-98055136D01*
X175729894Y-98051676D01*
X175767270Y-98035172D01*
X175814787Y-98011943D01*
X175822387Y-98010835D01*
X175831086Y-98006995D01*
X175900000Y-97999000D01*
X176900000Y-97999000D01*
X176968914Y-98006995D01*
G37*
G36*
X125768914Y-97806995D02*
G01*
X125777612Y-97810835D01*
X125785212Y-97811943D01*
X125832718Y-97835167D01*
X125870106Y-97851676D01*
X125873567Y-97855137D01*
X125874501Y-97855594D01*
X125944405Y-97925498D01*
X125944861Y-97926431D01*
X125948324Y-97929894D01*
X125964836Y-97967291D01*
X125988056Y-98014787D01*
X125989162Y-98022384D01*
X125993005Y-98031086D01*
X126001000Y-98100000D01*
X126001000Y-100300000D01*
X125993005Y-100368914D01*
X125989162Y-100377615D01*
X125988056Y-100385212D01*
X125964841Y-100432697D01*
X125948324Y-100470106D01*
X125944860Y-100473569D01*
X125944405Y-100474501D01*
X125874501Y-100544405D01*
X125873569Y-100544860D01*
X125870106Y-100548324D01*
X125832697Y-100564841D01*
X125785212Y-100588056D01*
X125777615Y-100589162D01*
X125768914Y-100593005D01*
X125700000Y-100601000D01*
X124700000Y-100601000D01*
X124631086Y-100593005D01*
X124622384Y-100589162D01*
X124614787Y-100588056D01*
X124567291Y-100564836D01*
X124529894Y-100548324D01*
X124526431Y-100544861D01*
X124525498Y-100544405D01*
X124455594Y-100474501D01*
X124455137Y-100473567D01*
X124451676Y-100470106D01*
X124435167Y-100432718D01*
X124411943Y-100385212D01*
X124410835Y-100377612D01*
X124406995Y-100368914D01*
X124399000Y-100300000D01*
X124399000Y-98100000D01*
X124406995Y-98031086D01*
X124410835Y-98022387D01*
X124411943Y-98014787D01*
X124435172Y-97967270D01*
X124451676Y-97929894D01*
X124455136Y-97926433D01*
X124455594Y-97925498D01*
X124525498Y-97855594D01*
X124526433Y-97855136D01*
X124529894Y-97851676D01*
X124567270Y-97835172D01*
X124614787Y-97811943D01*
X124622387Y-97810835D01*
X124631086Y-97806995D01*
X124700000Y-97799000D01*
X125700000Y-97799000D01*
X125768914Y-97806995D01*
G37*
G36*
X130568914Y-97806995D02*
G01*
X130577612Y-97810835D01*
X130585212Y-97811943D01*
X130632718Y-97835167D01*
X130670106Y-97851676D01*
X130673567Y-97855137D01*
X130674501Y-97855594D01*
X130744405Y-97925498D01*
X130744861Y-97926431D01*
X130748324Y-97929894D01*
X130764836Y-97967291D01*
X130788056Y-98014787D01*
X130789162Y-98022384D01*
X130793005Y-98031086D01*
X130801000Y-98100000D01*
X130801000Y-100300000D01*
X130793005Y-100368914D01*
X130789162Y-100377615D01*
X130788056Y-100385212D01*
X130764841Y-100432697D01*
X130748324Y-100470106D01*
X130744860Y-100473569D01*
X130744405Y-100474501D01*
X130674501Y-100544405D01*
X130673569Y-100544860D01*
X130670106Y-100548324D01*
X130632697Y-100564841D01*
X130585212Y-100588056D01*
X130577615Y-100589162D01*
X130568914Y-100593005D01*
X130500000Y-100601000D01*
X129500000Y-100601000D01*
X129431086Y-100593005D01*
X129422384Y-100589162D01*
X129414787Y-100588056D01*
X129367291Y-100564836D01*
X129329894Y-100548324D01*
X129326431Y-100544861D01*
X129325498Y-100544405D01*
X129255594Y-100474501D01*
X129255137Y-100473567D01*
X129251676Y-100470106D01*
X129235167Y-100432718D01*
X129211943Y-100385212D01*
X129210835Y-100377612D01*
X129206995Y-100368914D01*
X129199000Y-100300000D01*
X129199000Y-98100000D01*
X129206995Y-98031086D01*
X129210835Y-98022387D01*
X129211943Y-98014787D01*
X129235172Y-97967270D01*
X129251676Y-97929894D01*
X129255136Y-97926433D01*
X129255594Y-97925498D01*
X129325498Y-97855594D01*
X129326433Y-97855136D01*
X129329894Y-97851676D01*
X129367270Y-97835172D01*
X129414787Y-97811943D01*
X129422387Y-97810835D01*
X129431086Y-97806995D01*
X129500000Y-97799000D01*
X130500000Y-97799000D01*
X130568914Y-97806995D01*
G37*
G36*
X191843914Y-96446995D02*
G01*
X191852612Y-96450835D01*
X191860212Y-96451943D01*
X191907718Y-96475167D01*
X191945106Y-96491676D01*
X191948567Y-96495137D01*
X191949501Y-96495594D01*
X192019405Y-96565498D01*
X192019861Y-96566431D01*
X192023324Y-96569894D01*
X192039836Y-96607291D01*
X192063056Y-96654787D01*
X192064162Y-96662384D01*
X192068005Y-96671086D01*
X192076000Y-96740000D01*
X192076000Y-98940000D01*
X192068005Y-99008914D01*
X192064162Y-99017615D01*
X192063056Y-99025212D01*
X192039841Y-99072697D01*
X192023324Y-99110106D01*
X192019860Y-99113569D01*
X192019405Y-99114501D01*
X191949501Y-99184405D01*
X191948569Y-99184860D01*
X191945106Y-99188324D01*
X191907697Y-99204841D01*
X191860212Y-99228056D01*
X191852615Y-99229162D01*
X191843914Y-99233005D01*
X191775000Y-99241000D01*
X190775000Y-99241000D01*
X190706086Y-99233005D01*
X190697384Y-99229162D01*
X190689787Y-99228056D01*
X190642291Y-99204836D01*
X190604894Y-99188324D01*
X190601431Y-99184861D01*
X190600498Y-99184405D01*
X190530594Y-99114501D01*
X190530137Y-99113567D01*
X190526676Y-99110106D01*
X190510167Y-99072718D01*
X190486943Y-99025212D01*
X190485835Y-99017612D01*
X190481995Y-99008914D01*
X190474000Y-98940000D01*
X190474000Y-96740000D01*
X190481995Y-96671086D01*
X190485835Y-96662387D01*
X190486943Y-96654787D01*
X190510172Y-96607270D01*
X190526676Y-96569894D01*
X190530136Y-96566433D01*
X190530594Y-96565498D01*
X190600498Y-96495594D01*
X190601433Y-96495136D01*
X190604894Y-96491676D01*
X190642270Y-96475172D01*
X190689787Y-96451943D01*
X190697387Y-96450835D01*
X190706086Y-96446995D01*
X190775000Y-96439000D01*
X191775000Y-96439000D01*
X191843914Y-96446995D01*
G37*
G36*
X196643914Y-96446995D02*
G01*
X196652612Y-96450835D01*
X196660212Y-96451943D01*
X196707718Y-96475167D01*
X196745106Y-96491676D01*
X196748567Y-96495137D01*
X196749501Y-96495594D01*
X196819405Y-96565498D01*
X196819861Y-96566431D01*
X196823324Y-96569894D01*
X196839836Y-96607291D01*
X196863056Y-96654787D01*
X196864162Y-96662384D01*
X196868005Y-96671086D01*
X196876000Y-96740000D01*
X196876000Y-98940000D01*
X196868005Y-99008914D01*
X196864162Y-99017615D01*
X196863056Y-99025212D01*
X196839841Y-99072697D01*
X196823324Y-99110106D01*
X196819860Y-99113569D01*
X196819405Y-99114501D01*
X196749501Y-99184405D01*
X196748569Y-99184860D01*
X196745106Y-99188324D01*
X196707697Y-99204841D01*
X196660212Y-99228056D01*
X196652615Y-99229162D01*
X196643914Y-99233005D01*
X196575000Y-99241000D01*
X195575000Y-99241000D01*
X195506086Y-99233005D01*
X195497384Y-99229162D01*
X195489787Y-99228056D01*
X195442291Y-99204836D01*
X195404894Y-99188324D01*
X195401431Y-99184861D01*
X195400498Y-99184405D01*
X195330594Y-99114501D01*
X195330137Y-99113567D01*
X195326676Y-99110106D01*
X195310167Y-99072718D01*
X195286943Y-99025212D01*
X195285835Y-99017612D01*
X195281995Y-99008914D01*
X195274000Y-98940000D01*
X195274000Y-96740000D01*
X195281995Y-96671086D01*
X195285835Y-96662387D01*
X195286943Y-96654787D01*
X195310172Y-96607270D01*
X195326676Y-96569894D01*
X195330136Y-96566433D01*
X195330594Y-96565498D01*
X195400498Y-96495594D01*
X195401433Y-96495136D01*
X195404894Y-96491676D01*
X195442270Y-96475172D01*
X195489787Y-96451943D01*
X195497387Y-96450835D01*
X195506086Y-96446995D01*
X195575000Y-96439000D01*
X196575000Y-96439000D01*
X196643914Y-96446995D01*
G37*
G36*
X127868914Y-78981995D02*
G01*
X127877612Y-78985835D01*
X127885212Y-78986943D01*
X127932718Y-79010167D01*
X127970106Y-79026676D01*
X127973567Y-79030137D01*
X127974501Y-79030594D01*
X128044405Y-79100498D01*
X128044861Y-79101431D01*
X128048324Y-79104894D01*
X128064836Y-79142291D01*
X128088056Y-79189787D01*
X128089162Y-79197384D01*
X128093005Y-79206086D01*
X128101000Y-79275000D01*
X128101000Y-80725000D01*
X128093005Y-80793914D01*
X128089162Y-80802615D01*
X128088056Y-80810212D01*
X128064841Y-80857697D01*
X128048324Y-80895106D01*
X128044860Y-80898569D01*
X128044405Y-80899501D01*
X127974501Y-80969405D01*
X127973569Y-80969860D01*
X127970106Y-80973324D01*
X127932697Y-80989841D01*
X127885212Y-81013056D01*
X127877615Y-81014162D01*
X127868914Y-81018005D01*
X127800000Y-81026000D01*
X126600000Y-81026000D01*
X126531086Y-81018005D01*
X126522384Y-81014162D01*
X126514787Y-81013056D01*
X126467291Y-80989836D01*
X126429894Y-80973324D01*
X126426431Y-80969861D01*
X126425498Y-80969405D01*
X126355594Y-80899501D01*
X126355137Y-80898567D01*
X126351676Y-80895106D01*
X126335167Y-80857718D01*
X126311943Y-80810212D01*
X126310835Y-80802612D01*
X126306995Y-80793914D01*
X126299000Y-80725000D01*
X126299000Y-79275000D01*
X126306995Y-79206086D01*
X126310835Y-79197387D01*
X126311943Y-79189787D01*
X126335172Y-79142270D01*
X126351676Y-79104894D01*
X126355136Y-79101433D01*
X126355594Y-79100498D01*
X126425498Y-79030594D01*
X126426433Y-79030136D01*
X126429894Y-79026676D01*
X126467270Y-79010172D01*
X126514787Y-78986943D01*
X126522387Y-78985835D01*
X126531086Y-78981995D01*
X126600000Y-78974000D01*
X127800000Y-78974000D01*
X127868914Y-78981995D01*
G37*
G36*
X114961546Y-79012797D02*
G01*
X115124728Y-79080389D01*
X115271588Y-79178518D01*
X115396482Y-79303412D01*
X115494611Y-79450272D01*
X115562203Y-79613454D01*
X115596661Y-79786687D01*
X115601000Y-79875000D01*
X115601000Y-80125000D01*
X115596661Y-80213313D01*
X115562203Y-80386546D01*
X115494611Y-80549728D01*
X115396482Y-80696588D01*
X115271588Y-80821482D01*
X115124728Y-80919611D01*
X114961546Y-80987203D01*
X114788313Y-81021661D01*
X114611687Y-81021661D01*
X114438454Y-80987203D01*
X114275272Y-80919611D01*
X114128412Y-80821482D01*
X114003518Y-80696588D01*
X113905389Y-80549728D01*
X113837797Y-80386546D01*
X113803339Y-80213313D01*
X113799000Y-80125000D01*
X113799000Y-79875000D01*
X113803339Y-79786687D01*
X113837797Y-79613454D01*
X113905389Y-79450272D01*
X114003518Y-79303412D01*
X114128412Y-79178518D01*
X114275272Y-79080389D01*
X114438454Y-79012797D01*
X114611687Y-78978339D01*
X114788313Y-78978339D01*
X114961546Y-79012797D01*
G37*
G36*
X117461546Y-79012797D02*
G01*
X117624728Y-79080389D01*
X117771588Y-79178518D01*
X117896482Y-79303412D01*
X117994611Y-79450272D01*
X118062203Y-79613454D01*
X118096661Y-79786687D01*
X118101000Y-79875000D01*
X118101000Y-80125000D01*
X118096661Y-80213313D01*
X118062203Y-80386546D01*
X117994611Y-80549728D01*
X117896482Y-80696588D01*
X117771588Y-80821482D01*
X117624728Y-80919611D01*
X117461546Y-80987203D01*
X117288313Y-81021661D01*
X117111687Y-81021661D01*
X116938454Y-80987203D01*
X116775272Y-80919611D01*
X116628412Y-80821482D01*
X116503518Y-80696588D01*
X116405389Y-80549728D01*
X116337797Y-80386546D01*
X116303339Y-80213313D01*
X116299000Y-80125000D01*
X116299000Y-79875000D01*
X116303339Y-79786687D01*
X116337797Y-79613454D01*
X116405389Y-79450272D01*
X116503518Y-79303412D01*
X116628412Y-79178518D01*
X116775272Y-79080389D01*
X116938454Y-79012797D01*
X117111687Y-78978339D01*
X117288313Y-78978339D01*
X117461546Y-79012797D01*
G37*
G36*
X119961546Y-79012797D02*
G01*
X120124728Y-79080389D01*
X120271588Y-79178518D01*
X120396482Y-79303412D01*
X120494611Y-79450272D01*
X120562203Y-79613454D01*
X120596661Y-79786687D01*
X120601000Y-79875000D01*
X120601000Y-80125000D01*
X120596661Y-80213313D01*
X120562203Y-80386546D01*
X120494611Y-80549728D01*
X120396482Y-80696588D01*
X120271588Y-80821482D01*
X120124728Y-80919611D01*
X119961546Y-80987203D01*
X119788313Y-81021661D01*
X119611687Y-81021661D01*
X119438454Y-80987203D01*
X119275272Y-80919611D01*
X119128412Y-80821482D01*
X119003518Y-80696588D01*
X118905389Y-80549728D01*
X118837797Y-80386546D01*
X118803339Y-80213313D01*
X118799000Y-80125000D01*
X118799000Y-79875000D01*
X118803339Y-79786687D01*
X118837797Y-79613454D01*
X118905389Y-79450272D01*
X119003518Y-79303412D01*
X119128412Y-79178518D01*
X119275272Y-79080389D01*
X119438454Y-79012797D01*
X119611687Y-78978339D01*
X119788313Y-78978339D01*
X119961546Y-79012797D01*
G37*
G36*
X122461546Y-79012797D02*
G01*
X122624728Y-79080389D01*
X122771588Y-79178518D01*
X122896482Y-79303412D01*
X122994611Y-79450272D01*
X123062203Y-79613454D01*
X123096661Y-79786687D01*
X123101000Y-79875000D01*
X123101000Y-80125000D01*
X123096661Y-80213313D01*
X123062203Y-80386546D01*
X122994611Y-80549728D01*
X122896482Y-80696588D01*
X122771588Y-80821482D01*
X122624728Y-80919611D01*
X122461546Y-80987203D01*
X122288313Y-81021661D01*
X122111687Y-81021661D01*
X121938454Y-80987203D01*
X121775272Y-80919611D01*
X121628412Y-80821482D01*
X121503518Y-80696588D01*
X121405389Y-80549728D01*
X121337797Y-80386546D01*
X121303339Y-80213313D01*
X121299000Y-80125000D01*
X121299000Y-79875000D01*
X121303339Y-79786687D01*
X121337797Y-79613454D01*
X121405389Y-79450272D01*
X121503518Y-79303412D01*
X121628412Y-79178518D01*
X121775272Y-79080389D01*
X121938454Y-79012797D01*
X122111687Y-78978339D01*
X122288313Y-78978339D01*
X122461546Y-79012797D01*
G37*
G36*
X124961546Y-79012797D02*
G01*
X125124728Y-79080389D01*
X125271588Y-79178518D01*
X125396482Y-79303412D01*
X125494611Y-79450272D01*
X125562203Y-79613454D01*
X125596661Y-79786687D01*
X125601000Y-79875000D01*
X125601000Y-80125000D01*
X125596661Y-80213313D01*
X125562203Y-80386546D01*
X125494611Y-80549728D01*
X125396482Y-80696588D01*
X125271588Y-80821482D01*
X125124728Y-80919611D01*
X124961546Y-80987203D01*
X124788313Y-81021661D01*
X124611687Y-81021661D01*
X124438454Y-80987203D01*
X124275272Y-80919611D01*
X124128412Y-80821482D01*
X124003518Y-80696588D01*
X123905389Y-80549728D01*
X123837797Y-80386546D01*
X123803339Y-80213313D01*
X123799000Y-80125000D01*
X123799000Y-79875000D01*
X123803339Y-79786687D01*
X123837797Y-79613454D01*
X123905389Y-79450272D01*
X124003518Y-79303412D01*
X124128412Y-79178518D01*
X124275272Y-79080389D01*
X124438454Y-79012797D01*
X124611687Y-78978339D01*
X124788313Y-78978339D01*
X124961546Y-79012797D01*
G37*
G36*
X105686061Y-74362108D02*
G01*
X106019625Y-74438241D01*
X106342567Y-74551244D01*
X106650826Y-74699693D01*
X106940526Y-74881724D01*
X107208023Y-75095046D01*
X107449954Y-75336977D01*
X107663276Y-75604474D01*
X107845307Y-75894174D01*
X107993756Y-76202433D01*
X108106759Y-76525375D01*
X108182892Y-76858939D01*
X108221200Y-77198929D01*
X108221200Y-77541071D01*
X108182892Y-77881061D01*
X108106759Y-78214625D01*
X107993756Y-78537567D01*
X107845307Y-78845826D01*
X107663276Y-79135526D01*
X107449954Y-79403023D01*
X107208023Y-79644954D01*
X106940526Y-79858276D01*
X106650826Y-80040307D01*
X106342567Y-80188756D01*
X106019625Y-80301759D01*
X105686061Y-80377892D01*
X105346071Y-80416200D01*
X105003929Y-80416200D01*
X104663939Y-80377892D01*
X104330375Y-80301759D01*
X104007433Y-80188756D01*
X103699174Y-80040307D01*
X103409474Y-79858276D01*
X103141977Y-79644954D01*
X102900046Y-79403023D01*
X102686724Y-79135526D01*
X102504693Y-78845826D01*
X102356244Y-78537567D01*
X102243241Y-78214625D01*
X102167108Y-77881061D01*
X102128800Y-77541071D01*
X102128800Y-77198929D01*
X102167108Y-76858939D01*
X102243241Y-76525375D01*
X102356244Y-76202433D01*
X102504693Y-75894174D01*
X102686724Y-75604474D01*
X102900046Y-75336977D01*
X103141977Y-75095046D01*
X103409474Y-74881724D01*
X103699174Y-74699693D01*
X104007433Y-74551244D01*
X104330375Y-74438241D01*
X104663939Y-74362108D01*
X105003929Y-74323800D01*
X105346071Y-74323800D01*
X105686061Y-74362108D01*
G37*
G36*
X197686061Y-74362108D02*
G01*
X198019625Y-74438241D01*
X198342567Y-74551244D01*
X198650826Y-74699693D01*
X198940526Y-74881724D01*
X199208023Y-75095046D01*
X199449954Y-75336977D01*
X199663276Y-75604474D01*
X199845307Y-75894174D01*
X199993756Y-76202433D01*
X200106759Y-76525375D01*
X200182892Y-76858939D01*
X200221200Y-77198929D01*
X200221200Y-77541071D01*
X200182892Y-77881061D01*
X200106759Y-78214625D01*
X199993756Y-78537567D01*
X199845307Y-78845826D01*
X199663276Y-79135526D01*
X199449954Y-79403023D01*
X199208023Y-79644954D01*
X198940526Y-79858276D01*
X198650826Y-80040307D01*
X198342567Y-80188756D01*
X198019625Y-80301759D01*
X197686061Y-80377892D01*
X197346071Y-80416200D01*
X197003929Y-80416200D01*
X196663939Y-80377892D01*
X196330375Y-80301759D01*
X196007433Y-80188756D01*
X195699174Y-80040307D01*
X195409474Y-79858276D01*
X195141977Y-79644954D01*
X194900046Y-79403023D01*
X194686724Y-79135526D01*
X194504693Y-78845826D01*
X194356244Y-78537567D01*
X194243241Y-78214625D01*
X194167108Y-77881061D01*
X194128800Y-77541071D01*
X194128800Y-77198929D01*
X194167108Y-76858939D01*
X194243241Y-76525375D01*
X194356244Y-76202433D01*
X194504693Y-75894174D01*
X194686724Y-75604474D01*
X194900046Y-75336977D01*
X195141977Y-75095046D01*
X195409474Y-74881724D01*
X195699174Y-74699693D01*
X196007433Y-74551244D01*
X196330375Y-74438241D01*
X196663939Y-74362108D01*
X197003929Y-74323800D01*
X197346071Y-74323800D01*
X197686061Y-74362108D01*
G37*
G36*
X132678807Y-77005932D02*
G01*
X132681404Y-77006776D01*
X132681645Y-77007107D01*
X132689598Y-77010402D01*
X132696972Y-77028205D01*
X132703305Y-77036922D01*
X132704991Y-77047564D01*
X132706000Y-77050000D01*
X132706000Y-77600000D01*
X132701722Y-77610328D01*
X132701722Y-77665263D01*
X132699814Y-77679757D01*
X132666032Y-77805836D01*
X132660437Y-77819342D01*
X132595174Y-77932381D01*
X132586275Y-77943979D01*
X132493979Y-78036275D01*
X132482381Y-78045174D01*
X132479539Y-78046814D01*
X132479539Y-78046815D01*
X132463630Y-78056000D01*
X132369342Y-78110437D01*
X132355836Y-78116032D01*
X132229757Y-78149814D01*
X132215263Y-78151722D01*
X132211987Y-78151722D01*
X132175046Y-78151722D01*
X132171129Y-78152030D01*
X132152435Y-78154991D01*
X132150000Y-78156000D01*
X132146067Y-78156000D01*
X131657920Y-78156000D01*
X131650000Y-78156000D01*
X131639672Y-78151722D01*
X131588013Y-78151722D01*
X131584737Y-78151722D01*
X131570243Y-78149814D01*
X131444164Y-78116032D01*
X131430658Y-78110437D01*
X131427822Y-78108799D01*
X131427818Y-78108798D01*
X131320460Y-78046815D01*
X131320456Y-78046811D01*
X131317619Y-78045174D01*
X131306021Y-78036275D01*
X131213725Y-77943979D01*
X131204826Y-77932381D01*
X131203188Y-77929545D01*
X131203184Y-77929539D01*
X131141201Y-77822181D01*
X131141198Y-77822174D01*
X131139563Y-77819342D01*
X131133968Y-77805836D01*
X131128975Y-77787203D01*
X131101034Y-77682924D01*
X131101033Y-77682919D01*
X131100186Y-77679757D01*
X131098278Y-77665263D01*
X131098278Y-77625044D01*
X131097970Y-77621127D01*
X131095009Y-77602436D01*
X131094000Y-77600000D01*
X131094000Y-77050000D01*
X131105930Y-77021196D01*
X131106776Y-77018595D01*
X131107108Y-77018353D01*
X131110402Y-77010402D01*
X131128202Y-77003028D01*
X131136922Y-76996694D01*
X131147565Y-76995008D01*
X131150000Y-76994000D01*
X132650000Y-76994000D01*
X132678807Y-77005932D01*
G37*
G36*
X136278807Y-76905932D02*
G01*
X136281404Y-76906776D01*
X136281645Y-76907107D01*
X136289598Y-76910402D01*
X136296972Y-76928205D01*
X136303305Y-76936922D01*
X136304991Y-76947564D01*
X136306000Y-76950000D01*
X136306000Y-77500000D01*
X136301722Y-77510328D01*
X136301722Y-77565263D01*
X136299814Y-77579757D01*
X136266032Y-77705836D01*
X136260437Y-77719342D01*
X136258798Y-77722180D01*
X136258798Y-77722181D01*
X136221258Y-77787203D01*
X136195174Y-77832381D01*
X136186275Y-77843979D01*
X136093979Y-77936275D01*
X136082381Y-77945174D01*
X135969342Y-78010437D01*
X135955836Y-78016032D01*
X135829757Y-78049814D01*
X135815263Y-78051722D01*
X135811987Y-78051722D01*
X135775046Y-78051722D01*
X135771129Y-78052030D01*
X135752435Y-78054991D01*
X135750000Y-78056000D01*
X135746067Y-78056000D01*
X135257920Y-78056000D01*
X135250000Y-78056000D01*
X135239672Y-78051722D01*
X135188013Y-78051722D01*
X135184737Y-78051722D01*
X135170243Y-78049814D01*
X135044164Y-78016032D01*
X135030658Y-78010437D01*
X135027822Y-78008799D01*
X135027818Y-78008798D01*
X134920460Y-77946815D01*
X134920456Y-77946811D01*
X134917619Y-77945174D01*
X134906021Y-77936275D01*
X134813725Y-77843979D01*
X134804826Y-77832381D01*
X134803188Y-77829545D01*
X134803184Y-77829539D01*
X134741201Y-77722181D01*
X134741198Y-77722174D01*
X134739563Y-77719342D01*
X134733968Y-77705836D01*
X134733119Y-77702669D01*
X134701034Y-77582924D01*
X134701033Y-77582919D01*
X134700186Y-77579757D01*
X134698278Y-77565263D01*
X134698278Y-77525044D01*
X134697970Y-77521127D01*
X134695009Y-77502436D01*
X134694000Y-77500000D01*
X134694000Y-76950000D01*
X134705930Y-76921196D01*
X134706776Y-76918595D01*
X134707108Y-76918353D01*
X134710402Y-76910402D01*
X134728202Y-76903028D01*
X134736922Y-76896694D01*
X134747565Y-76895008D01*
X134750000Y-76894000D01*
X136250000Y-76894000D01*
X136278807Y-76905932D01*
G37*
G36*
X139478807Y-76905932D02*
G01*
X139481404Y-76906776D01*
X139481645Y-76907107D01*
X139489598Y-76910402D01*
X139496972Y-76928205D01*
X139503305Y-76936922D01*
X139504991Y-76947564D01*
X139506000Y-76950000D01*
X139506000Y-77500000D01*
X139501722Y-77510328D01*
X139501722Y-77565263D01*
X139499814Y-77579757D01*
X139466032Y-77705836D01*
X139460437Y-77719342D01*
X139458798Y-77722180D01*
X139458798Y-77722181D01*
X139421258Y-77787203D01*
X139395174Y-77832381D01*
X139386275Y-77843979D01*
X139293979Y-77936275D01*
X139282381Y-77945174D01*
X139169342Y-78010437D01*
X139155836Y-78016032D01*
X139029757Y-78049814D01*
X139015263Y-78051722D01*
X139011987Y-78051722D01*
X138975046Y-78051722D01*
X138971129Y-78052030D01*
X138952435Y-78054991D01*
X138950000Y-78056000D01*
X138946067Y-78056000D01*
X138457920Y-78056000D01*
X138450000Y-78056000D01*
X138439672Y-78051722D01*
X138388013Y-78051722D01*
X138384737Y-78051722D01*
X138370243Y-78049814D01*
X138244164Y-78016032D01*
X138230658Y-78010437D01*
X138227822Y-78008799D01*
X138227818Y-78008798D01*
X138120460Y-77946815D01*
X138120456Y-77946811D01*
X138117619Y-77945174D01*
X138106021Y-77936275D01*
X138013725Y-77843979D01*
X138004826Y-77832381D01*
X138003188Y-77829545D01*
X138003184Y-77829539D01*
X137941201Y-77722181D01*
X137941198Y-77722174D01*
X137939563Y-77719342D01*
X137933968Y-77705836D01*
X137933119Y-77702669D01*
X137901034Y-77582924D01*
X137901033Y-77582919D01*
X137900186Y-77579757D01*
X137898278Y-77565263D01*
X137898278Y-77525044D01*
X137897970Y-77521127D01*
X137895009Y-77502436D01*
X137894000Y-77500000D01*
X137894000Y-76950000D01*
X137905930Y-76921196D01*
X137906776Y-76918595D01*
X137907108Y-76918353D01*
X137910402Y-76910402D01*
X137928202Y-76903028D01*
X137936922Y-76896694D01*
X137947565Y-76895008D01*
X137950000Y-76894000D01*
X139450000Y-76894000D01*
X139478807Y-76905932D01*
G37*
G36*
X127868914Y-75781995D02*
G01*
X127877612Y-75785835D01*
X127885212Y-75786943D01*
X127932718Y-75810167D01*
X127970106Y-75826676D01*
X127973567Y-75830137D01*
X127974501Y-75830594D01*
X128044405Y-75900498D01*
X128044861Y-75901431D01*
X128048324Y-75904894D01*
X128064836Y-75942291D01*
X128088056Y-75989787D01*
X128089162Y-75997384D01*
X128093005Y-76006086D01*
X128101000Y-76075000D01*
X128101000Y-77525000D01*
X128093005Y-77593914D01*
X128089162Y-77602615D01*
X128088056Y-77610212D01*
X128064841Y-77657697D01*
X128048324Y-77695106D01*
X128044860Y-77698569D01*
X128044405Y-77699501D01*
X127974501Y-77769405D01*
X127973569Y-77769860D01*
X127970106Y-77773324D01*
X127932697Y-77789841D01*
X127885212Y-77813056D01*
X127877615Y-77814162D01*
X127868914Y-77818005D01*
X127800000Y-77826000D01*
X126600000Y-77826000D01*
X126531086Y-77818005D01*
X126522384Y-77814162D01*
X126514787Y-77813056D01*
X126467291Y-77789836D01*
X126429894Y-77773324D01*
X126426431Y-77769861D01*
X126425498Y-77769405D01*
X126355594Y-77699501D01*
X126355137Y-77698567D01*
X126351676Y-77695106D01*
X126335167Y-77657718D01*
X126311943Y-77610212D01*
X126310835Y-77602612D01*
X126306995Y-77593914D01*
X126299000Y-77525000D01*
X126299000Y-76075000D01*
X126306995Y-76006086D01*
X126310835Y-75997387D01*
X126311943Y-75989787D01*
X126335172Y-75942270D01*
X126351676Y-75904894D01*
X126355136Y-75901433D01*
X126355594Y-75900498D01*
X126425498Y-75830594D01*
X126426433Y-75830136D01*
X126429894Y-75826676D01*
X126467270Y-75810172D01*
X126514787Y-75786943D01*
X126522387Y-75785835D01*
X126531086Y-75781995D01*
X126600000Y-75774000D01*
X127800000Y-75774000D01*
X127868914Y-75781995D01*
G37*
G36*
X114961546Y-75812797D02*
G01*
X115124728Y-75880389D01*
X115271588Y-75978518D01*
X115396482Y-76103412D01*
X115494611Y-76250272D01*
X115562203Y-76413454D01*
X115596661Y-76586687D01*
X115601000Y-76675000D01*
X115601000Y-76925000D01*
X115596661Y-77013313D01*
X115562203Y-77186546D01*
X115494611Y-77349728D01*
X115396482Y-77496588D01*
X115271588Y-77621482D01*
X115124728Y-77719611D01*
X114961546Y-77787203D01*
X114788313Y-77821661D01*
X114611687Y-77821661D01*
X114438454Y-77787203D01*
X114275272Y-77719611D01*
X114128412Y-77621482D01*
X114003518Y-77496588D01*
X113905389Y-77349728D01*
X113837797Y-77186546D01*
X113803339Y-77013313D01*
X113799000Y-76925000D01*
X113799000Y-76675000D01*
X113803339Y-76586687D01*
X113837797Y-76413454D01*
X113905389Y-76250272D01*
X114003518Y-76103412D01*
X114128412Y-75978518D01*
X114275272Y-75880389D01*
X114438454Y-75812797D01*
X114611687Y-75778339D01*
X114788313Y-75778339D01*
X114961546Y-75812797D01*
G37*
G36*
X117461546Y-75812797D02*
G01*
X117624728Y-75880389D01*
X117771588Y-75978518D01*
X117896482Y-76103412D01*
X117994611Y-76250272D01*
X118062203Y-76413454D01*
X118096661Y-76586687D01*
X118101000Y-76675000D01*
X118101000Y-76925000D01*
X118096661Y-77013313D01*
X118062203Y-77186546D01*
X117994611Y-77349728D01*
X117896482Y-77496588D01*
X117771588Y-77621482D01*
X117624728Y-77719611D01*
X117461546Y-77787203D01*
X117288313Y-77821661D01*
X117111687Y-77821661D01*
X116938454Y-77787203D01*
X116775272Y-77719611D01*
X116628412Y-77621482D01*
X116503518Y-77496588D01*
X116405389Y-77349728D01*
X116337797Y-77186546D01*
X116303339Y-77013313D01*
X116299000Y-76925000D01*
X116299000Y-76675000D01*
X116303339Y-76586687D01*
X116337797Y-76413454D01*
X116405389Y-76250272D01*
X116503518Y-76103412D01*
X116628412Y-75978518D01*
X116775272Y-75880389D01*
X116938454Y-75812797D01*
X117111687Y-75778339D01*
X117288313Y-75778339D01*
X117461546Y-75812797D01*
G37*
G36*
X119961546Y-75812797D02*
G01*
X120124728Y-75880389D01*
X120271588Y-75978518D01*
X120396482Y-76103412D01*
X120494611Y-76250272D01*
X120562203Y-76413454D01*
X120596661Y-76586687D01*
X120601000Y-76675000D01*
X120601000Y-76925000D01*
X120596661Y-77013313D01*
X120562203Y-77186546D01*
X120494611Y-77349728D01*
X120396482Y-77496588D01*
X120271588Y-77621482D01*
X120124728Y-77719611D01*
X119961546Y-77787203D01*
X119788313Y-77821661D01*
X119611687Y-77821661D01*
X119438454Y-77787203D01*
X119275272Y-77719611D01*
X119128412Y-77621482D01*
X119003518Y-77496588D01*
X118905389Y-77349728D01*
X118837797Y-77186546D01*
X118803339Y-77013313D01*
X118799000Y-76925000D01*
X118799000Y-76675000D01*
X118803339Y-76586687D01*
X118837797Y-76413454D01*
X118905389Y-76250272D01*
X119003518Y-76103412D01*
X119128412Y-75978518D01*
X119275272Y-75880389D01*
X119438454Y-75812797D01*
X119611687Y-75778339D01*
X119788313Y-75778339D01*
X119961546Y-75812797D01*
G37*
G36*
X122461546Y-75812797D02*
G01*
X122624728Y-75880389D01*
X122771588Y-75978518D01*
X122896482Y-76103412D01*
X122994611Y-76250272D01*
X123062203Y-76413454D01*
X123096661Y-76586687D01*
X123101000Y-76675000D01*
X123101000Y-76925000D01*
X123096661Y-77013313D01*
X123062203Y-77186546D01*
X122994611Y-77349728D01*
X122896482Y-77496588D01*
X122771588Y-77621482D01*
X122624728Y-77719611D01*
X122461546Y-77787203D01*
X122288313Y-77821661D01*
X122111687Y-77821661D01*
X121938454Y-77787203D01*
X121775272Y-77719611D01*
X121628412Y-77621482D01*
X121503518Y-77496588D01*
X121405389Y-77349728D01*
X121337797Y-77186546D01*
X121303339Y-77013313D01*
X121299000Y-76925000D01*
X121299000Y-76675000D01*
X121303339Y-76586687D01*
X121337797Y-76413454D01*
X121405389Y-76250272D01*
X121503518Y-76103412D01*
X121628412Y-75978518D01*
X121775272Y-75880389D01*
X121938454Y-75812797D01*
X122111687Y-75778339D01*
X122288313Y-75778339D01*
X122461546Y-75812797D01*
G37*
G36*
X124961546Y-75812797D02*
G01*
X125124728Y-75880389D01*
X125271588Y-75978518D01*
X125396482Y-76103412D01*
X125494611Y-76250272D01*
X125562203Y-76413454D01*
X125596661Y-76586687D01*
X125601000Y-76675000D01*
X125601000Y-76925000D01*
X125596661Y-77013313D01*
X125562203Y-77186546D01*
X125494611Y-77349728D01*
X125396482Y-77496588D01*
X125271588Y-77621482D01*
X125124728Y-77719611D01*
X124961546Y-77787203D01*
X124788313Y-77821661D01*
X124611687Y-77821661D01*
X124438454Y-77787203D01*
X124275272Y-77719611D01*
X124128412Y-77621482D01*
X124003518Y-77496588D01*
X123905389Y-77349728D01*
X123837797Y-77186546D01*
X123803339Y-77013313D01*
X123799000Y-76925000D01*
X123799000Y-76675000D01*
X123803339Y-76586687D01*
X123837797Y-76413454D01*
X123905389Y-76250272D01*
X124003518Y-76103412D01*
X124128412Y-75978518D01*
X124275272Y-75880389D01*
X124438454Y-75812797D01*
X124611687Y-75778339D01*
X124788313Y-75778339D01*
X124961546Y-75812797D01*
G37*
G36*
X132669517Y-75752882D02*
G01*
X132686062Y-75763938D01*
X132697118Y-75780483D01*
X132701000Y-75800000D01*
X132701000Y-76800000D01*
X132697118Y-76819517D01*
X132686062Y-76836062D01*
X132669517Y-76847118D01*
X132650000Y-76851000D01*
X131150000Y-76851000D01*
X131130483Y-76847118D01*
X131113938Y-76836062D01*
X131102882Y-76819517D01*
X131099000Y-76800000D01*
X131099000Y-75800000D01*
X131102882Y-75780483D01*
X131113938Y-75763938D01*
X131130483Y-75752882D01*
X131150000Y-75749000D01*
X132650000Y-75749000D01*
X132669517Y-75752882D01*
G37*
G36*
X136269517Y-75652882D02*
G01*
X136286062Y-75663938D01*
X136297118Y-75680483D01*
X136301000Y-75700000D01*
X136301000Y-76700000D01*
X136297118Y-76719517D01*
X136286062Y-76736062D01*
X136269517Y-76747118D01*
X136250000Y-76751000D01*
X134750000Y-76751000D01*
X134730483Y-76747118D01*
X134713938Y-76736062D01*
X134702882Y-76719517D01*
X134699000Y-76700000D01*
X134699000Y-75700000D01*
X134702882Y-75680483D01*
X134713938Y-75663938D01*
X134730483Y-75652882D01*
X134750000Y-75649000D01*
X136250000Y-75649000D01*
X136269517Y-75652882D01*
G37*
G36*
X139469517Y-75652882D02*
G01*
X139486062Y-75663938D01*
X139497118Y-75680483D01*
X139501000Y-75700000D01*
X139501000Y-76700000D01*
X139497118Y-76719517D01*
X139486062Y-76736062D01*
X139469517Y-76747118D01*
X139450000Y-76751000D01*
X137950000Y-76751000D01*
X137930483Y-76747118D01*
X137913938Y-76736062D01*
X137902882Y-76719517D01*
X137899000Y-76700000D01*
X137899000Y-75700000D01*
X137902882Y-75680483D01*
X137913938Y-75663938D01*
X137930483Y-75652882D01*
X137950000Y-75649000D01*
X139450000Y-75649000D01*
X139469517Y-75652882D01*
G37*
G36*
X132160328Y-74448278D02*
G01*
X132211987Y-74448278D01*
X132215263Y-74448278D01*
X132229757Y-74450186D01*
X132232919Y-74451033D01*
X132232924Y-74451034D01*
X132352669Y-74483119D01*
X132352671Y-74483120D01*
X132355836Y-74483968D01*
X132369342Y-74489563D01*
X132372174Y-74491198D01*
X132372181Y-74491201D01*
X132479539Y-74553184D01*
X132479545Y-74553188D01*
X132482381Y-74554826D01*
X132493979Y-74563725D01*
X132586275Y-74656021D01*
X132595174Y-74667619D01*
X132596811Y-74670456D01*
X132596815Y-74670460D01*
X132658798Y-74777818D01*
X132658799Y-74777822D01*
X132660437Y-74780658D01*
X132666032Y-74794164D01*
X132699814Y-74920243D01*
X132701722Y-74934737D01*
X132701722Y-74938013D01*
X132701722Y-74974954D01*
X132702030Y-74978871D01*
X132704991Y-74997564D01*
X132706000Y-75000000D01*
X132706000Y-75550000D01*
X132694063Y-75578817D01*
X132693223Y-75581404D01*
X132692892Y-75581643D01*
X132689598Y-75589598D01*
X132671792Y-75596973D01*
X132663077Y-75603305D01*
X132652436Y-75604990D01*
X132650000Y-75606000D01*
X132646067Y-75606000D01*
X131157919Y-75606000D01*
X131150000Y-75606000D01*
X131121185Y-75594064D01*
X131118595Y-75593223D01*
X131118354Y-75592892D01*
X131110402Y-75589598D01*
X131103027Y-75571795D01*
X131096694Y-75563077D01*
X131095008Y-75552434D01*
X131094000Y-75550000D01*
X131094000Y-75000000D01*
X131098278Y-74989671D01*
X131098278Y-74934737D01*
X131100186Y-74920243D01*
X131101033Y-74917081D01*
X131101034Y-74917075D01*
X131133119Y-74797330D01*
X131133120Y-74797325D01*
X131133968Y-74794164D01*
X131139563Y-74780658D01*
X131141196Y-74777828D01*
X131141201Y-74777818D01*
X131203184Y-74670460D01*
X131203191Y-74670450D01*
X131204826Y-74667619D01*
X131213725Y-74656021D01*
X131216035Y-74653710D01*
X131216039Y-74653706D01*
X131303706Y-74566039D01*
X131303710Y-74566035D01*
X131306021Y-74563725D01*
X131317619Y-74554826D01*
X131320450Y-74553191D01*
X131320460Y-74553184D01*
X131427818Y-74491201D01*
X131427828Y-74491196D01*
X131430658Y-74489563D01*
X131444164Y-74483968D01*
X131447325Y-74483120D01*
X131447330Y-74483119D01*
X131567075Y-74451034D01*
X131567081Y-74451033D01*
X131570243Y-74450186D01*
X131584737Y-74448278D01*
X131624954Y-74448278D01*
X131628871Y-74447970D01*
X131647564Y-74445008D01*
X131650000Y-74444000D01*
X132150000Y-74444000D01*
X132160328Y-74448278D01*
G37*
G36*
X135760328Y-74348278D02*
G01*
X135811987Y-74348278D01*
X135815263Y-74348278D01*
X135829757Y-74350186D01*
X135832919Y-74351033D01*
X135832924Y-74351034D01*
X135952669Y-74383119D01*
X135952671Y-74383120D01*
X135955836Y-74383968D01*
X135969342Y-74389563D01*
X135972174Y-74391198D01*
X135972181Y-74391201D01*
X136079539Y-74453184D01*
X136079545Y-74453188D01*
X136082381Y-74454826D01*
X136093979Y-74463725D01*
X136186275Y-74556021D01*
X136195174Y-74567619D01*
X136196811Y-74570456D01*
X136196815Y-74570460D01*
X136258798Y-74677818D01*
X136258799Y-74677822D01*
X136260437Y-74680658D01*
X136266032Y-74694164D01*
X136299814Y-74820243D01*
X136301722Y-74834737D01*
X136301722Y-74838013D01*
X136301722Y-74874954D01*
X136302030Y-74878871D01*
X136304991Y-74897564D01*
X136306000Y-74900000D01*
X136306000Y-75450000D01*
X136294063Y-75478817D01*
X136293223Y-75481404D01*
X136292892Y-75481643D01*
X136289598Y-75489598D01*
X136271792Y-75496973D01*
X136263077Y-75503305D01*
X136252436Y-75504990D01*
X136250000Y-75506000D01*
X136246067Y-75506000D01*
X134757919Y-75506000D01*
X134750000Y-75506000D01*
X134721185Y-75494064D01*
X134718595Y-75493223D01*
X134718354Y-75492892D01*
X134710402Y-75489598D01*
X134703027Y-75471795D01*
X134696694Y-75463077D01*
X134695008Y-75452434D01*
X134694000Y-75450000D01*
X134694000Y-74900000D01*
X134698278Y-74889671D01*
X134698278Y-74834737D01*
X134700186Y-74820243D01*
X134701033Y-74817081D01*
X134701034Y-74817075D01*
X134733119Y-74697330D01*
X134733120Y-74697325D01*
X134733968Y-74694164D01*
X134739563Y-74680658D01*
X134741196Y-74677828D01*
X134741201Y-74677818D01*
X134803184Y-74570460D01*
X134803191Y-74570450D01*
X134804826Y-74567619D01*
X134813725Y-74556021D01*
X134816035Y-74553710D01*
X134816039Y-74553706D01*
X134903706Y-74466039D01*
X134903710Y-74466035D01*
X134906021Y-74463725D01*
X134917619Y-74454826D01*
X134920450Y-74453191D01*
X134920460Y-74453184D01*
X135027818Y-74391201D01*
X135027828Y-74391196D01*
X135030658Y-74389563D01*
X135044164Y-74383968D01*
X135047325Y-74383120D01*
X135047330Y-74383119D01*
X135167075Y-74351034D01*
X135167081Y-74351033D01*
X135170243Y-74350186D01*
X135184737Y-74348278D01*
X135224954Y-74348278D01*
X135228871Y-74347970D01*
X135247564Y-74345008D01*
X135250000Y-74344000D01*
X135750000Y-74344000D01*
X135760328Y-74348278D01*
G37*
G36*
X138960328Y-74348278D02*
G01*
X139011987Y-74348278D01*
X139015263Y-74348278D01*
X139029757Y-74350186D01*
X139032919Y-74351033D01*
X139032924Y-74351034D01*
X139152669Y-74383119D01*
X139152671Y-74383120D01*
X139155836Y-74383968D01*
X139169342Y-74389563D01*
X139172174Y-74391198D01*
X139172181Y-74391201D01*
X139279539Y-74453184D01*
X139279545Y-74453188D01*
X139282381Y-74454826D01*
X139293979Y-74463725D01*
X139386275Y-74556021D01*
X139395174Y-74567619D01*
X139396811Y-74570456D01*
X139396815Y-74570460D01*
X139458798Y-74677818D01*
X139458799Y-74677822D01*
X139460437Y-74680658D01*
X139466032Y-74694164D01*
X139499814Y-74820243D01*
X139501722Y-74834737D01*
X139501722Y-74838013D01*
X139501722Y-74874954D01*
X139502030Y-74878871D01*
X139504991Y-74897564D01*
X139506000Y-74900000D01*
X139506000Y-75450000D01*
X139494063Y-75478817D01*
X139493223Y-75481404D01*
X139492892Y-75481643D01*
X139489598Y-75489598D01*
X139471792Y-75496973D01*
X139463077Y-75503305D01*
X139452436Y-75504990D01*
X139450000Y-75506000D01*
X139446067Y-75506000D01*
X137957919Y-75506000D01*
X137950000Y-75506000D01*
X137921185Y-75494064D01*
X137918595Y-75493223D01*
X137918354Y-75492892D01*
X137910402Y-75489598D01*
X137903027Y-75471795D01*
X137896694Y-75463077D01*
X137895008Y-75452434D01*
X137894000Y-75450000D01*
X137894000Y-74900000D01*
X137898278Y-74889671D01*
X137898278Y-74834737D01*
X137900186Y-74820243D01*
X137901033Y-74817081D01*
X137901034Y-74817075D01*
X137933119Y-74697330D01*
X137933120Y-74697325D01*
X137933968Y-74694164D01*
X137939563Y-74680658D01*
X137941196Y-74677828D01*
X137941201Y-74677818D01*
X138003184Y-74570460D01*
X138003191Y-74570450D01*
X138004826Y-74567619D01*
X138013725Y-74556021D01*
X138016035Y-74553710D01*
X138016039Y-74553706D01*
X138103706Y-74466039D01*
X138103710Y-74466035D01*
X138106021Y-74463725D01*
X138117619Y-74454826D01*
X138120450Y-74453191D01*
X138120460Y-74453184D01*
X138227818Y-74391201D01*
X138227828Y-74391196D01*
X138230658Y-74389563D01*
X138244164Y-74383968D01*
X138247325Y-74383120D01*
X138247330Y-74383119D01*
X138367075Y-74351034D01*
X138367081Y-74351033D01*
X138370243Y-74350186D01*
X138384737Y-74348278D01*
X138424954Y-74348278D01*
X138428871Y-74347970D01*
X138447564Y-74345008D01*
X138450000Y-74344000D01*
X138950000Y-74344000D01*
X138960328Y-74348278D01*
G37*
G36*
X144925517Y-66977882D02*
G01*
X144942062Y-66988938D01*
X144953118Y-67005483D01*
X144957000Y-67025000D01*
X144957000Y-69625000D01*
X144953118Y-69644517D01*
X144942062Y-69661062D01*
X144925517Y-69672118D01*
X144906000Y-69676000D01*
X142306000Y-69676000D01*
X142286483Y-69672118D01*
X142269938Y-69661062D01*
X142258882Y-69644517D01*
X142255000Y-69625000D01*
X142255000Y-67025000D01*
X142258882Y-67005483D01*
X142269938Y-66988938D01*
X142286483Y-66977882D01*
X142306000Y-66974000D01*
X144906000Y-66974000D01*
X144925517Y-66977882D01*
G37*
G36*
X194925517Y-66977882D02*
G01*
X194942062Y-66988938D01*
X194953118Y-67005483D01*
X194957000Y-67025000D01*
X194957000Y-69625000D01*
X194953118Y-69644517D01*
X194942062Y-69661062D01*
X194925517Y-69672118D01*
X194906000Y-69676000D01*
X192306000Y-69676000D01*
X192286483Y-69672118D01*
X192269938Y-69661062D01*
X192258882Y-69644517D01*
X192255000Y-69625000D01*
X192255000Y-67025000D01*
X192258882Y-67005483D01*
X192269938Y-66988938D01*
X192286483Y-66977882D01*
X192306000Y-66974000D01*
X194906000Y-66974000D01*
X194925517Y-66977882D01*
G37*
G36*
X108921385Y-67011328D02*
G01*
X109123005Y-67076839D01*
X109311896Y-67173083D01*
X109483404Y-67297692D01*
X109633308Y-67447596D01*
X109757917Y-67619104D01*
X109854161Y-67807995D01*
X109919672Y-68009615D01*
X109952835Y-68219002D01*
X109952835Y-68430998D01*
X109919672Y-68640385D01*
X109854161Y-68842005D01*
X109757917Y-69030896D01*
X109633308Y-69202404D01*
X109483404Y-69352308D01*
X109311896Y-69476917D01*
X109123005Y-69573161D01*
X108921385Y-69638672D01*
X108711998Y-69671835D01*
X108500002Y-69671835D01*
X108290615Y-69638672D01*
X108088995Y-69573161D01*
X107900104Y-69476917D01*
X107728596Y-69352308D01*
X107578692Y-69202404D01*
X107454083Y-69030896D01*
X107357839Y-68842005D01*
X107292328Y-68640385D01*
X107259165Y-68430998D01*
X107259165Y-68219002D01*
X107292328Y-68009615D01*
X107357839Y-67807995D01*
X107454083Y-67619104D01*
X107578692Y-67447596D01*
X107728596Y-67297692D01*
X107900104Y-67173083D01*
X108088995Y-67076839D01*
X108290615Y-67011328D01*
X108500002Y-66978165D01*
X108711998Y-66978165D01*
X108921385Y-67011328D01*
G37*
G36*
X113921385Y-67011328D02*
G01*
X114123005Y-67076839D01*
X114311896Y-67173083D01*
X114483404Y-67297692D01*
X114633308Y-67447596D01*
X114757917Y-67619104D01*
X114854161Y-67807995D01*
X114919672Y-68009615D01*
X114952835Y-68219002D01*
X114952835Y-68430998D01*
X114919672Y-68640385D01*
X114854161Y-68842005D01*
X114757917Y-69030896D01*
X114633308Y-69202404D01*
X114483404Y-69352308D01*
X114311896Y-69476917D01*
X114123005Y-69573161D01*
X113921385Y-69638672D01*
X113711998Y-69671835D01*
X113500002Y-69671835D01*
X113290615Y-69638672D01*
X113088995Y-69573161D01*
X112900104Y-69476917D01*
X112728596Y-69352308D01*
X112578692Y-69202404D01*
X112454083Y-69030896D01*
X112357839Y-68842005D01*
X112292328Y-68640385D01*
X112259165Y-68430998D01*
X112259165Y-68219002D01*
X112292328Y-68009615D01*
X112357839Y-67807995D01*
X112454083Y-67619104D01*
X112578692Y-67447596D01*
X112728596Y-67297692D01*
X112900104Y-67173083D01*
X113088995Y-67076839D01*
X113290615Y-67011328D01*
X113500002Y-66978165D01*
X113711998Y-66978165D01*
X113921385Y-67011328D01*
G37*
G36*
X118921385Y-67011328D02*
G01*
X119123005Y-67076839D01*
X119311896Y-67173083D01*
X119483404Y-67297692D01*
X119633308Y-67447596D01*
X119757917Y-67619104D01*
X119854161Y-67807995D01*
X119919672Y-68009615D01*
X119952835Y-68219002D01*
X119952835Y-68430998D01*
X119919672Y-68640385D01*
X119854161Y-68842005D01*
X119757917Y-69030896D01*
X119633308Y-69202404D01*
X119483404Y-69352308D01*
X119311896Y-69476917D01*
X119123005Y-69573161D01*
X118921385Y-69638672D01*
X118711998Y-69671835D01*
X118500002Y-69671835D01*
X118290615Y-69638672D01*
X118088995Y-69573161D01*
X117900104Y-69476917D01*
X117728596Y-69352308D01*
X117578692Y-69202404D01*
X117454083Y-69030896D01*
X117357839Y-68842005D01*
X117292328Y-68640385D01*
X117259165Y-68430998D01*
X117259165Y-68219002D01*
X117292328Y-68009615D01*
X117357839Y-67807995D01*
X117454083Y-67619104D01*
X117578692Y-67447596D01*
X117728596Y-67297692D01*
X117900104Y-67173083D01*
X118088995Y-67076839D01*
X118290615Y-67011328D01*
X118500002Y-66978165D01*
X118711998Y-66978165D01*
X118921385Y-67011328D01*
G37*
G36*
X123921385Y-67011328D02*
G01*
X124123005Y-67076839D01*
X124311896Y-67173083D01*
X124483404Y-67297692D01*
X124633308Y-67447596D01*
X124757917Y-67619104D01*
X124854161Y-67807995D01*
X124919672Y-68009615D01*
X124952835Y-68219002D01*
X124952835Y-68430998D01*
X124919672Y-68640385D01*
X124854161Y-68842005D01*
X124757917Y-69030896D01*
X124633308Y-69202404D01*
X124483404Y-69352308D01*
X124311896Y-69476917D01*
X124123005Y-69573161D01*
X123921385Y-69638672D01*
X123711998Y-69671835D01*
X123500002Y-69671835D01*
X123290615Y-69638672D01*
X123088995Y-69573161D01*
X122900104Y-69476917D01*
X122728596Y-69352308D01*
X122578692Y-69202404D01*
X122454083Y-69030896D01*
X122357839Y-68842005D01*
X122292328Y-68640385D01*
X122259165Y-68430998D01*
X122259165Y-68219002D01*
X122292328Y-68009615D01*
X122357839Y-67807995D01*
X122454083Y-67619104D01*
X122578692Y-67447596D01*
X122728596Y-67297692D01*
X122900104Y-67173083D01*
X123088995Y-67076839D01*
X123290615Y-67011328D01*
X123500002Y-66978165D01*
X123711998Y-66978165D01*
X123921385Y-67011328D01*
G37*
G36*
X128921385Y-67011328D02*
G01*
X129123005Y-67076839D01*
X129311896Y-67173083D01*
X129483404Y-67297692D01*
X129633308Y-67447596D01*
X129757917Y-67619104D01*
X129854161Y-67807995D01*
X129919672Y-68009615D01*
X129952835Y-68219002D01*
X129952835Y-68430998D01*
X129919672Y-68640385D01*
X129854161Y-68842005D01*
X129757917Y-69030896D01*
X129633308Y-69202404D01*
X129483404Y-69352308D01*
X129311896Y-69476917D01*
X129123005Y-69573161D01*
X128921385Y-69638672D01*
X128711998Y-69671835D01*
X128500002Y-69671835D01*
X128290615Y-69638672D01*
X128088995Y-69573161D01*
X127900104Y-69476917D01*
X127728596Y-69352308D01*
X127578692Y-69202404D01*
X127454083Y-69030896D01*
X127357839Y-68842005D01*
X127292328Y-68640385D01*
X127259165Y-68430998D01*
X127259165Y-68219002D01*
X127292328Y-68009615D01*
X127357839Y-67807995D01*
X127454083Y-67619104D01*
X127578692Y-67447596D01*
X127728596Y-67297692D01*
X127900104Y-67173083D01*
X128088995Y-67076839D01*
X128290615Y-67011328D01*
X128500002Y-66978165D01*
X128711998Y-66978165D01*
X128921385Y-67011328D01*
G37*
G36*
X133921385Y-67011328D02*
G01*
X134123005Y-67076839D01*
X134311896Y-67173083D01*
X134483404Y-67297692D01*
X134633308Y-67447596D01*
X134757917Y-67619104D01*
X134854161Y-67807995D01*
X134919672Y-68009615D01*
X134952835Y-68219002D01*
X134952835Y-68430998D01*
X134919672Y-68640385D01*
X134854161Y-68842005D01*
X134757917Y-69030896D01*
X134633308Y-69202404D01*
X134483404Y-69352308D01*
X134311896Y-69476917D01*
X134123005Y-69573161D01*
X133921385Y-69638672D01*
X133711998Y-69671835D01*
X133500002Y-69671835D01*
X133290615Y-69638672D01*
X133088995Y-69573161D01*
X132900104Y-69476917D01*
X132728596Y-69352308D01*
X132578692Y-69202404D01*
X132454083Y-69030896D01*
X132357839Y-68842005D01*
X132292328Y-68640385D01*
X132259165Y-68430998D01*
X132259165Y-68219002D01*
X132292328Y-68009615D01*
X132357839Y-67807995D01*
X132454083Y-67619104D01*
X132578692Y-67447596D01*
X132728596Y-67297692D01*
X132900104Y-67173083D01*
X133088995Y-67076839D01*
X133290615Y-67011328D01*
X133500002Y-66978165D01*
X133711998Y-66978165D01*
X133921385Y-67011328D01*
G37*
G36*
X138921385Y-67011328D02*
G01*
X139123005Y-67076839D01*
X139311896Y-67173083D01*
X139483404Y-67297692D01*
X139633308Y-67447596D01*
X139757917Y-67619104D01*
X139854161Y-67807995D01*
X139919672Y-68009615D01*
X139952835Y-68219002D01*
X139952835Y-68430998D01*
X139919672Y-68640385D01*
X139854161Y-68842005D01*
X139757917Y-69030896D01*
X139633308Y-69202404D01*
X139483404Y-69352308D01*
X139311896Y-69476917D01*
X139123005Y-69573161D01*
X138921385Y-69638672D01*
X138711998Y-69671835D01*
X138500002Y-69671835D01*
X138290615Y-69638672D01*
X138088995Y-69573161D01*
X137900104Y-69476917D01*
X137728596Y-69352308D01*
X137578692Y-69202404D01*
X137454083Y-69030896D01*
X137357839Y-68842005D01*
X137292328Y-68640385D01*
X137259165Y-68430998D01*
X137259165Y-68219002D01*
X137292328Y-68009615D01*
X137357839Y-67807995D01*
X137454083Y-67619104D01*
X137578692Y-67447596D01*
X137728596Y-67297692D01*
X137900104Y-67173083D01*
X138088995Y-67076839D01*
X138290615Y-67011328D01*
X138500002Y-66978165D01*
X138711998Y-66978165D01*
X138921385Y-67011328D01*
G37*
G36*
X158921385Y-67011328D02*
G01*
X159123005Y-67076839D01*
X159311896Y-67173083D01*
X159483404Y-67297692D01*
X159633308Y-67447596D01*
X159757917Y-67619104D01*
X159854161Y-67807995D01*
X159919672Y-68009615D01*
X159952835Y-68219002D01*
X159952835Y-68430998D01*
X159919672Y-68640385D01*
X159854161Y-68842005D01*
X159757917Y-69030896D01*
X159633308Y-69202404D01*
X159483404Y-69352308D01*
X159311896Y-69476917D01*
X159123005Y-69573161D01*
X158921385Y-69638672D01*
X158711998Y-69671835D01*
X158500002Y-69671835D01*
X158290615Y-69638672D01*
X158088995Y-69573161D01*
X157900104Y-69476917D01*
X157728596Y-69352308D01*
X157578692Y-69202404D01*
X157454083Y-69030896D01*
X157357839Y-68842005D01*
X157292328Y-68640385D01*
X157259165Y-68430998D01*
X157259165Y-68219002D01*
X157292328Y-68009615D01*
X157357839Y-67807995D01*
X157454083Y-67619104D01*
X157578692Y-67447596D01*
X157728596Y-67297692D01*
X157900104Y-67173083D01*
X158088995Y-67076839D01*
X158290615Y-67011328D01*
X158500002Y-66978165D01*
X158711998Y-66978165D01*
X158921385Y-67011328D01*
G37*
G36*
X163921385Y-67011328D02*
G01*
X164123005Y-67076839D01*
X164311896Y-67173083D01*
X164483404Y-67297692D01*
X164633308Y-67447596D01*
X164757917Y-67619104D01*
X164854161Y-67807995D01*
X164919672Y-68009615D01*
X164952835Y-68219002D01*
X164952835Y-68430998D01*
X164919672Y-68640385D01*
X164854161Y-68842005D01*
X164757917Y-69030896D01*
X164633308Y-69202404D01*
X164483404Y-69352308D01*
X164311896Y-69476917D01*
X164123005Y-69573161D01*
X163921385Y-69638672D01*
X163711998Y-69671835D01*
X163500002Y-69671835D01*
X163290615Y-69638672D01*
X163088995Y-69573161D01*
X162900104Y-69476917D01*
X162728596Y-69352308D01*
X162578692Y-69202404D01*
X162454083Y-69030896D01*
X162357839Y-68842005D01*
X162292328Y-68640385D01*
X162259165Y-68430998D01*
X162259165Y-68219002D01*
X162292328Y-68009615D01*
X162357839Y-67807995D01*
X162454083Y-67619104D01*
X162578692Y-67447596D01*
X162728596Y-67297692D01*
X162900104Y-67173083D01*
X163088995Y-67076839D01*
X163290615Y-67011328D01*
X163500002Y-66978165D01*
X163711998Y-66978165D01*
X163921385Y-67011328D01*
G37*
G36*
X168921385Y-67011328D02*
G01*
X169123005Y-67076839D01*
X169311896Y-67173083D01*
X169483404Y-67297692D01*
X169633308Y-67447596D01*
X169757917Y-67619104D01*
X169854161Y-67807995D01*
X169919672Y-68009615D01*
X169952835Y-68219002D01*
X169952835Y-68430998D01*
X169919672Y-68640385D01*
X169854161Y-68842005D01*
X169757917Y-69030896D01*
X169633308Y-69202404D01*
X169483404Y-69352308D01*
X169311896Y-69476917D01*
X169123005Y-69573161D01*
X168921385Y-69638672D01*
X168711998Y-69671835D01*
X168500002Y-69671835D01*
X168290615Y-69638672D01*
X168088995Y-69573161D01*
X167900104Y-69476917D01*
X167728596Y-69352308D01*
X167578692Y-69202404D01*
X167454083Y-69030896D01*
X167357839Y-68842005D01*
X167292328Y-68640385D01*
X167259165Y-68430998D01*
X167259165Y-68219002D01*
X167292328Y-68009615D01*
X167357839Y-67807995D01*
X167454083Y-67619104D01*
X167578692Y-67447596D01*
X167728596Y-67297692D01*
X167900104Y-67173083D01*
X168088995Y-67076839D01*
X168290615Y-67011328D01*
X168500002Y-66978165D01*
X168711998Y-66978165D01*
X168921385Y-67011328D01*
G37*
G36*
X173921385Y-67011328D02*
G01*
X174123005Y-67076839D01*
X174311896Y-67173083D01*
X174483404Y-67297692D01*
X174633308Y-67447596D01*
X174757917Y-67619104D01*
X174854161Y-67807995D01*
X174919672Y-68009615D01*
X174952835Y-68219002D01*
X174952835Y-68430998D01*
X174919672Y-68640385D01*
X174854161Y-68842005D01*
X174757917Y-69030896D01*
X174633308Y-69202404D01*
X174483404Y-69352308D01*
X174311896Y-69476917D01*
X174123005Y-69573161D01*
X173921385Y-69638672D01*
X173711998Y-69671835D01*
X173500002Y-69671835D01*
X173290615Y-69638672D01*
X173088995Y-69573161D01*
X172900104Y-69476917D01*
X172728596Y-69352308D01*
X172578692Y-69202404D01*
X172454083Y-69030896D01*
X172357839Y-68842005D01*
X172292328Y-68640385D01*
X172259165Y-68430998D01*
X172259165Y-68219002D01*
X172292328Y-68009615D01*
X172357839Y-67807995D01*
X172454083Y-67619104D01*
X172578692Y-67447596D01*
X172728596Y-67297692D01*
X172900104Y-67173083D01*
X173088995Y-67076839D01*
X173290615Y-67011328D01*
X173500002Y-66978165D01*
X173711998Y-66978165D01*
X173921385Y-67011328D01*
G37*
G36*
X178921385Y-67011328D02*
G01*
X179123005Y-67076839D01*
X179311896Y-67173083D01*
X179483404Y-67297692D01*
X179633308Y-67447596D01*
X179757917Y-67619104D01*
X179854161Y-67807995D01*
X179919672Y-68009615D01*
X179952835Y-68219002D01*
X179952835Y-68430998D01*
X179919672Y-68640385D01*
X179854161Y-68842005D01*
X179757917Y-69030896D01*
X179633308Y-69202404D01*
X179483404Y-69352308D01*
X179311896Y-69476917D01*
X179123005Y-69573161D01*
X178921385Y-69638672D01*
X178711998Y-69671835D01*
X178500002Y-69671835D01*
X178290615Y-69638672D01*
X178088995Y-69573161D01*
X177900104Y-69476917D01*
X177728596Y-69352308D01*
X177578692Y-69202404D01*
X177454083Y-69030896D01*
X177357839Y-68842005D01*
X177292328Y-68640385D01*
X177259165Y-68430998D01*
X177259165Y-68219002D01*
X177292328Y-68009615D01*
X177357839Y-67807995D01*
X177454083Y-67619104D01*
X177578692Y-67447596D01*
X177728596Y-67297692D01*
X177900104Y-67173083D01*
X178088995Y-67076839D01*
X178290615Y-67011328D01*
X178500002Y-66978165D01*
X178711998Y-66978165D01*
X178921385Y-67011328D01*
G37*
G36*
X183921385Y-67011328D02*
G01*
X184123005Y-67076839D01*
X184311896Y-67173083D01*
X184483404Y-67297692D01*
X184633308Y-67447596D01*
X184757917Y-67619104D01*
X184854161Y-67807995D01*
X184919672Y-68009615D01*
X184952835Y-68219002D01*
X184952835Y-68430998D01*
X184919672Y-68640385D01*
X184854161Y-68842005D01*
X184757917Y-69030896D01*
X184633308Y-69202404D01*
X184483404Y-69352308D01*
X184311896Y-69476917D01*
X184123005Y-69573161D01*
X183921385Y-69638672D01*
X183711998Y-69671835D01*
X183500002Y-69671835D01*
X183290615Y-69638672D01*
X183088995Y-69573161D01*
X182900104Y-69476917D01*
X182728596Y-69352308D01*
X182578692Y-69202404D01*
X182454083Y-69030896D01*
X182357839Y-68842005D01*
X182292328Y-68640385D01*
X182259165Y-68430998D01*
X182259165Y-68219002D01*
X182292328Y-68009615D01*
X182357839Y-67807995D01*
X182454083Y-67619104D01*
X182578692Y-67447596D01*
X182728596Y-67297692D01*
X182900104Y-67173083D01*
X183088995Y-67076839D01*
X183290615Y-67011328D01*
X183500002Y-66978165D01*
X183711998Y-66978165D01*
X183921385Y-67011328D01*
G37*
G36*
X188921385Y-67011328D02*
G01*
X189123005Y-67076839D01*
X189311896Y-67173083D01*
X189483404Y-67297692D01*
X189633308Y-67447596D01*
X189757917Y-67619104D01*
X189854161Y-67807995D01*
X189919672Y-68009615D01*
X189952835Y-68219002D01*
X189952835Y-68430998D01*
X189919672Y-68640385D01*
X189854161Y-68842005D01*
X189757917Y-69030896D01*
X189633308Y-69202404D01*
X189483404Y-69352308D01*
X189311896Y-69476917D01*
X189123005Y-69573161D01*
X188921385Y-69638672D01*
X188711998Y-69671835D01*
X188500002Y-69671835D01*
X188290615Y-69638672D01*
X188088995Y-69573161D01*
X187900104Y-69476917D01*
X187728596Y-69352308D01*
X187578692Y-69202404D01*
X187454083Y-69030896D01*
X187357839Y-68842005D01*
X187292328Y-68640385D01*
X187259165Y-68430998D01*
X187259165Y-68219002D01*
X187292328Y-68009615D01*
X187357839Y-67807995D01*
X187454083Y-67619104D01*
X187578692Y-67447596D01*
X187728596Y-67297692D01*
X187900104Y-67173083D01*
X188088995Y-67076839D01*
X188290615Y-67011328D01*
X188500002Y-66978165D01*
X188711998Y-66978165D01*
X188921385Y-67011328D01*
G37*
%LPD*%
M02*
