%TF.GenerationSoftware,KiCad,Pcbnew,8.0.5*%
%TF.CreationDate,2025-07-29T09:58:19+02:00*%
%TF.ProjectId,esp32_blinds_controller,65737033-325f-4626-9c69-6e64735f636f,V0.2*%
%TF.SameCoordinates,Original*%
%TF.FileFunction,Copper,L2,Bot*%
%TF.FilePolarity,Positive*%
%FSLAX46Y46*%
G04 Gerber Fmt 4.6, Leading zero omitted, Abs format (unit mm)*
G04 Created by KiCad (PCBNEW 8.0.5) date 2025-07-29 09:58:19*
%MOMM*%
%LPD*%
G01*
G04 APERTURE LIST*
G04 Aperture macros list*
%AMRoundRect*
0 Rectangle with rounded corners*
0 $1 Rounding radius*
0 $2 $3 $4 $5 $6 $7 $8 $9 X,Y pos of 4 corners*
0 Add a 4 corners polygon primitive as box body*
4,1,4,$2,$3,$4,$5,$6,$7,$8,$9,$2,$3,0*
0 Add four circle primitives for the rounded corners*
1,1,$1+$1,$2,$3*
1,1,$1+$1,$4,$5*
1,1,$1+$1,$6,$7*
1,1,$1+$1,$8,$9*
0 Add four rect primitives between the rounded corners*
20,1,$1+$1,$2,$3,$4,$5,0*
20,1,$1+$1,$4,$5,$6,$7,0*
20,1,$1+$1,$6,$7,$8,$9,0*
20,1,$1+$1,$8,$9,$2,$3,0*%
%AMFreePoly0*
4,1,19,0.550000,-0.750000,0.000000,-0.750000,0.000000,-0.744911,-0.071157,-0.744911,-0.207708,-0.704816,-0.327430,-0.627875,-0.420627,-0.520320,-0.479746,-0.390866,-0.500000,-0.250000,-0.500000,0.250000,-0.479746,0.390866,-0.420627,0.520320,-0.327430,0.627875,-0.207708,0.704816,-0.071157,0.744911,0.000000,0.744911,0.000000,0.750000,0.550000,0.750000,0.550000,-0.750000,0.550000,-0.750000,
$1*%
%AMFreePoly1*
4,1,19,0.000000,0.744911,0.071157,0.744911,0.207708,0.704816,0.327430,0.627875,0.420627,0.520320,0.479746,0.390866,0.500000,0.250000,0.500000,-0.250000,0.479746,-0.390866,0.420627,-0.520320,0.327430,-0.627875,0.207708,-0.704816,0.071157,-0.744911,0.000000,-0.744911,0.000000,-0.750000,-0.550000,-0.750000,-0.550000,0.750000,0.000000,0.750000,0.000000,0.744911,0.000000,0.744911,
$1*%
G04 Aperture macros list end*
%ADD10C,0.300000*%
%TA.AperFunction,NonConductor*%
%ADD11C,0.300000*%
%TD*%
%TA.AperFunction,ComponentPad*%
%ADD12C,1.600000*%
%TD*%
%TA.AperFunction,ComponentPad*%
%ADD13O,1.600000X1.600000*%
%TD*%
%TA.AperFunction,ComponentPad*%
%ADD14R,2.500000X2.500000*%
%TD*%
%TA.AperFunction,ComponentPad*%
%ADD15O,2.500000X2.500000*%
%TD*%
%TA.AperFunction,ComponentPad*%
%ADD16R,1.600000X2.400000*%
%TD*%
%TA.AperFunction,ComponentPad*%
%ADD17O,1.600000X2.400000*%
%TD*%
%TA.AperFunction,ComponentPad*%
%ADD18R,1.600000X1.600000*%
%TD*%
%TA.AperFunction,ComponentPad*%
%ADD19R,2.600000X2.600000*%
%TD*%
%TA.AperFunction,ComponentPad*%
%ADD20C,2.600000*%
%TD*%
%TA.AperFunction,ComponentPad*%
%ADD21C,6.000000*%
%TD*%
%TA.AperFunction,ComponentPad*%
%ADD22RoundRect,0.250000X0.600000X0.725000X-0.600000X0.725000X-0.600000X-0.725000X0.600000X-0.725000X0*%
%TD*%
%TA.AperFunction,ComponentPad*%
%ADD23O,1.700000X1.950000*%
%TD*%
%TA.AperFunction,SMDPad,CuDef*%
%ADD24FreePoly0,90.000000*%
%TD*%
%TA.AperFunction,SMDPad,CuDef*%
%ADD25R,1.500000X1.000000*%
%TD*%
%TA.AperFunction,SMDPad,CuDef*%
%ADD26FreePoly1,90.000000*%
%TD*%
%TA.AperFunction,SMDPad,CuDef*%
%ADD27RoundRect,0.250000X0.500000X1.100000X-0.500000X1.100000X-0.500000X-1.100000X0.500000X-1.100000X0*%
%TD*%
%TA.AperFunction,ViaPad*%
%ADD28C,0.600000*%
%TD*%
%TA.AperFunction,Conductor*%
%ADD29C,0.200000*%
%TD*%
%TA.AperFunction,Conductor*%
%ADD30C,2.000000*%
%TD*%
%TA.AperFunction,Conductor*%
%ADD31C,1.000000*%
%TD*%
%TA.AperFunction,Conductor*%
%ADD32C,0.500000*%
%TD*%
G04 APERTURE END LIST*
D10*
D11*
X199216917Y-104920828D02*
X199216917Y-105992257D01*
X199216917Y-105992257D02*
X199288346Y-106206542D01*
X199288346Y-106206542D02*
X199431203Y-106349400D01*
X199431203Y-106349400D02*
X199645489Y-106420828D01*
X199645489Y-106420828D02*
X199788346Y-106420828D01*
X198502632Y-106420828D02*
X198502632Y-104920828D01*
X197645489Y-106420828D02*
X198288346Y-105563685D01*
X197645489Y-104920828D02*
X198502632Y-105777971D01*
X196502632Y-105635114D02*
X196288346Y-105706542D01*
X196288346Y-105706542D02*
X196216917Y-105777971D01*
X196216917Y-105777971D02*
X196145489Y-105920828D01*
X196145489Y-105920828D02*
X196145489Y-106135114D01*
X196145489Y-106135114D02*
X196216917Y-106277971D01*
X196216917Y-106277971D02*
X196288346Y-106349400D01*
X196288346Y-106349400D02*
X196431203Y-106420828D01*
X196431203Y-106420828D02*
X197002632Y-106420828D01*
X197002632Y-106420828D02*
X197002632Y-104920828D01*
X197002632Y-104920828D02*
X196502632Y-104920828D01*
X196502632Y-104920828D02*
X196359775Y-104992257D01*
X196359775Y-104992257D02*
X196288346Y-105063685D01*
X196288346Y-105063685D02*
X196216917Y-105206542D01*
X196216917Y-105206542D02*
X196216917Y-105349400D01*
X196216917Y-105349400D02*
X196288346Y-105492257D01*
X196288346Y-105492257D02*
X196359775Y-105563685D01*
X196359775Y-105563685D02*
X196502632Y-105635114D01*
X196502632Y-105635114D02*
X197002632Y-105635114D01*
X195502632Y-106420828D02*
X195502632Y-104920828D01*
D12*
%TO.P,R5,1*%
%TO.N,+3V3*%
X165500000Y-77855000D03*
D13*
%TO.P,R5,2*%
%TO.N,/IN3_L*%
X165500000Y-80395000D03*
%TD*%
D12*
%TO.P,R9,1*%
%TO.N,Net-(R9-Pad1)*%
X188700000Y-77940000D03*
D13*
%TO.P,R9,2*%
%TO.N,/IN3_H*%
X188700000Y-75400000D03*
%TD*%
D12*
%TO.P,R4,1*%
%TO.N,+3V3*%
X168600000Y-77855000D03*
D13*
%TO.P,R4,2*%
%TO.N,/IN1_L*%
X168600000Y-80395000D03*
%TD*%
D14*
%TO.P,K2,1*%
%TO.N,Net-(K1-Pad4)*%
X137250000Y-100400000D03*
D15*
%TO.P,K2,2*%
%TO.N,VBUS*%
X131250000Y-102400000D03*
%TO.P,K2,3*%
%TO.N,/L1-UP*%
X131250000Y-114600000D03*
%TO.P,K2,4*%
%TO.N,/L1-SW*%
X143250000Y-114600000D03*
%TO.P,K2,5*%
%TO.N,/nUP1*%
X143250000Y-102400000D03*
%TD*%
D16*
%TO.P,U2,1,I1*%
%TO.N,unconnected-(U2-I1-Pad1)*%
X136525000Y-84375000D03*
D17*
%TO.P,U2,2,I2*%
%TO.N,unconnected-(U2-I2-Pad2)*%
X133985000Y-84375000D03*
%TO.P,U2,3,I3*%
%TO.N,unconnected-(U2-I3-Pad3)*%
X131445000Y-84375000D03*
%TO.P,U2,4,I4*%
%TO.N,/UP2*%
X128905000Y-84375000D03*
%TO.P,U2,5,I5*%
%TO.N,/DN2*%
X126365000Y-84375000D03*
%TO.P,U2,6,I6*%
%TO.N,/UP1*%
X123825000Y-84375000D03*
%TO.P,U2,7,I7*%
%TO.N,/DN1*%
X121285000Y-84375000D03*
%TO.P,U2,8,GND*%
%TO.N,GND*%
X118745000Y-84375000D03*
%TO.P,U2,9,COM*%
%TO.N,VBUS*%
X118745000Y-91995000D03*
%TO.P,U2,10,O7*%
%TO.N,/nDOWN1*%
X121285000Y-91995000D03*
%TO.P,U2,11,O6*%
%TO.N,/nUP1*%
X123825000Y-91995000D03*
%TO.P,U2,12,O5*%
%TO.N,/nDOWN2*%
X126365000Y-91995000D03*
%TO.P,U2,13,O4*%
%TO.N,/nUP2*%
X128905000Y-91995000D03*
%TO.P,U2,14,O3*%
%TO.N,unconnected-(U2-O3-Pad14)*%
X131445000Y-91995000D03*
%TO.P,U2,15,O2*%
%TO.N,unconnected-(U2-O2-Pad15)*%
X133985000Y-91995000D03*
%TO.P,U2,16,O1*%
%TO.N,unconnected-(U2-O1-Pad16)*%
X136525000Y-91995000D03*
%TD*%
D14*
%TO.P,K4,1*%
%TO.N,Net-(K3-Pad4)*%
X183800000Y-100400000D03*
D15*
%TO.P,K4,2*%
%TO.N,VBUS*%
X177800000Y-102400000D03*
%TO.P,K4,3*%
%TO.N,/L2-UP*%
X177800000Y-114600000D03*
%TO.P,K4,4*%
%TO.N,/L2-SW*%
X189800000Y-114600000D03*
%TO.P,K4,5*%
%TO.N,/nUP2*%
X189800000Y-102400000D03*
%TD*%
D12*
%TO.P,R10,1*%
%TO.N,Net-(R10-Pad1)*%
X178600000Y-77945000D03*
D13*
%TO.P,R10,2*%
%TO.N,/IN1_H*%
X178600000Y-75405000D03*
%TD*%
D14*
%TO.P,K1,1*%
%TO.N,/L1*%
X118350000Y-100400000D03*
D15*
%TO.P,K1,2*%
%TO.N,VBUS*%
X112350000Y-102400000D03*
%TO.P,K1,3*%
%TO.N,/L1-DOWN*%
X112350000Y-114600000D03*
%TO.P,K1,4*%
%TO.N,Net-(K1-Pad4)*%
X124350000Y-114600000D03*
%TO.P,K1,5*%
%TO.N,/nDOWN1*%
X124350000Y-102400000D03*
%TD*%
D18*
%TO.P,C4,1*%
%TO.N,+3V3*%
X149347349Y-74000000D03*
D12*
%TO.P,C4,2*%
%TO.N,GND*%
X152847349Y-74000000D03*
%TD*%
%TO.P,R11,1*%
%TO.N,Net-(R11-Pad1)*%
X192000000Y-77940000D03*
D13*
%TO.P,R11,2*%
%TO.N,/IN4_H*%
X192000000Y-75400000D03*
%TD*%
D19*
%TO.P,MOD1,A1,A1*%
%TO.N,/L1-DOWN*%
X108675000Y-126270000D03*
D20*
%TO.P,MOD1,A2,A2*%
X113675000Y-126270000D03*
%TO.P,MOD1,A3,A3*%
%TO.N,/L1*%
X118675000Y-126270000D03*
%TO.P,MOD1,A4,A4*%
X123675000Y-126270000D03*
%TO.P,MOD1,A5,A5*%
%TO.N,/L1-UP*%
X128675000Y-126270000D03*
%TO.P,MOD1,A6,A6*%
X133675000Y-126270000D03*
%TO.P,MOD1,A7,A7*%
%TO.N,/L1-SW*%
X138675000Y-126270000D03*
%TO.P,MOD1,A8,A8*%
X143675000Y-126270000D03*
D19*
%TO.P,MOD1,B1,B1*%
%TO.N,/L2-DOWN*%
X158675000Y-126270000D03*
D20*
%TO.P,MOD1,B2,B2*%
X163675000Y-126270000D03*
%TO.P,MOD1,B3,B3*%
%TO.N,/L2*%
X168675000Y-126270000D03*
%TO.P,MOD1,B4,B4*%
X173675000Y-126270000D03*
%TO.P,MOD1,B5,B5*%
%TO.N,/L2-UP*%
X178675000Y-126270000D03*
%TO.P,MOD1,B6,B6*%
X183675000Y-126270000D03*
%TO.P,MOD1,B7,B7*%
%TO.N,/L2-SW*%
X188675000Y-126270000D03*
%TO.P,MOD1,B8,B8*%
X193675000Y-126270000D03*
D19*
%TO.P,MOD1,C1,C1*%
%TO.N,/IN4_H*%
X193606000Y-68325000D03*
D20*
%TO.P,MOD1,C2,C2*%
%TO.N,/IN3_H*%
X188606000Y-68325000D03*
%TO.P,MOD1,C3,C3*%
%TO.N,/IN2_H*%
X183606000Y-68325000D03*
%TO.P,MOD1,C4,C4*%
%TO.N,/IN1_H*%
X178606000Y-68325000D03*
%TO.P,MOD1,C5,C5*%
%TO.N,VBUS*%
X173606000Y-68325000D03*
%TO.P,MOD1,C6,C6*%
X168606000Y-68325000D03*
%TO.P,MOD1,C7,C7*%
X163606000Y-68325000D03*
%TO.P,MOD1,C8,C8*%
X158606000Y-68325000D03*
D19*
%TO.P,MOD1,D1,D1*%
%TO.N,/SCL*%
X143606000Y-68325000D03*
D20*
%TO.P,MOD1,D2,D2*%
%TO.N,/SDA*%
X138606000Y-68325000D03*
%TO.P,MOD1,D3,D3*%
%TO.N,/INT*%
X133606000Y-68325000D03*
%TO.P,MOD1,D4,D4*%
%TO.N,+3V3*%
X128606000Y-68325000D03*
%TO.P,MOD1,D5,D5*%
%TO.N,GND*%
X123606000Y-68325000D03*
%TO.P,MOD1,D6,D6*%
X118606000Y-68325000D03*
%TO.P,MOD1,D7,D7*%
%TO.N,VBUS*%
X113606000Y-68325000D03*
%TO.P,MOD1,D8,D8*%
X108606000Y-68325000D03*
D21*
%TO.P,MOD1,MH1*%
%TO.N,N/C*%
X105175000Y-77370000D03*
%TO.P,MOD1,MH2*%
X197175000Y-77370000D03*
%TO.P,MOD1,MH3*%
X105175000Y-117370000D03*
%TO.P,MOD1,MH4*%
X197175000Y-117370000D03*
%TD*%
D12*
%TO.P,R8,1*%
%TO.N,Net-(R8-Pad1)*%
X183600000Y-77940000D03*
D13*
%TO.P,R8,2*%
%TO.N,/IN2_H*%
X183600000Y-75400000D03*
%TD*%
D12*
%TO.P,R7,1*%
%TO.N,+3V3*%
X171600000Y-77855000D03*
D13*
%TO.P,R7,2*%
%TO.N,/IN4_L*%
X171600000Y-80395000D03*
%TD*%
D12*
%TO.P,C2,1*%
%TO.N,VBUS*%
X107860000Y-95015000D03*
%TO.P,C2,2*%
%TO.N,GND*%
X102860000Y-95015000D03*
%TD*%
D18*
%TO.P,C5,1*%
%TO.N,VBUS*%
X110750000Y-90570000D03*
D12*
%TO.P,C5,2*%
%TO.N,GND*%
X114250000Y-90570000D03*
%TD*%
%TO.P,C3,1*%
%TO.N,+3V3*%
X147400000Y-80100000D03*
%TO.P,C3,2*%
%TO.N,GND*%
X152400000Y-80100000D03*
%TD*%
D16*
%TO.P,U1,1,SCL*%
%TO.N,/SCL*%
X160840000Y-83285000D03*
D17*
%TO.P,U1,2,SDA*%
%TO.N,/SDA*%
X158300000Y-83285000D03*
%TO.P,U1,3,A2*%
%TO.N,/A2*%
X155760000Y-83285000D03*
%TO.P,U1,4,A1*%
%TO.N,/A1*%
X153220000Y-83285000D03*
%TO.P,U1,5,A0*%
%TO.N,/A0*%
X150680000Y-83285000D03*
%TO.P,U1,6,~{RESET}*%
%TO.N,+3V3*%
X148140000Y-83285000D03*
%TO.P,U1,7,NC*%
%TO.N,unconnected-(U1-NC-Pad7)*%
X145600000Y-83285000D03*
%TO.P,U1,8,INT*%
%TO.N,/INT*%
X143060000Y-83285000D03*
%TO.P,U1,9,VSS*%
%TO.N,GND*%
X140520000Y-83285000D03*
%TO.P,U1,10,GP0*%
%TO.N,/IN4_L*%
X140520000Y-90905000D03*
%TO.P,U1,11,GP1*%
%TO.N,/DN2*%
X143060000Y-90905000D03*
%TO.P,U1,12,GP2*%
%TO.N,/UP1*%
X145600000Y-90905000D03*
%TO.P,U1,13,GP3*%
%TO.N,/DN1*%
X148140000Y-90905000D03*
%TO.P,U1,14,GP4*%
%TO.N,/IN1_L*%
X150680000Y-90905000D03*
%TO.P,U1,15,GP5*%
%TO.N,/IN2_L*%
X153220000Y-90905000D03*
%TO.P,U1,16,GP6*%
%TO.N,/IN3_L*%
X155760000Y-90905000D03*
%TO.P,U1,17,GP7*%
%TO.N,/UP2*%
X158300000Y-90905000D03*
%TO.P,U1,18,VDD*%
%TO.N,+3V3*%
X160840000Y-90905000D03*
%TD*%
D14*
%TO.P,K3,1*%
%TO.N,/L2*%
X164750000Y-100400000D03*
D15*
%TO.P,K3,2*%
%TO.N,VBUS*%
X158750000Y-102400000D03*
%TO.P,K3,3*%
%TO.N,/L2-DOWN*%
X158750000Y-114600000D03*
%TO.P,K3,4*%
%TO.N,Net-(K3-Pad4)*%
X170750000Y-114600000D03*
%TO.P,K3,5*%
%TO.N,/nDOWN2*%
X170750000Y-102400000D03*
%TD*%
D18*
%TO.P,U3,1*%
%TO.N,Net-(R11-Pad1)*%
X192140000Y-83300000D03*
D13*
%TO.P,U3,2*%
%TO.N,GND*%
X189600000Y-83300000D03*
%TO.P,U3,3*%
%TO.N,Net-(R9-Pad1)*%
X187060000Y-83300000D03*
%TO.P,U3,4*%
%TO.N,GND*%
X184520000Y-83300000D03*
%TO.P,U3,5*%
%TO.N,Net-(R8-Pad1)*%
X181980000Y-83300000D03*
%TO.P,U3,6*%
%TO.N,GND*%
X179440000Y-83300000D03*
%TO.P,U3,7*%
%TO.N,Net-(R10-Pad1)*%
X176900000Y-83300000D03*
%TO.P,U3,8*%
%TO.N,GND*%
X174360000Y-83300000D03*
%TO.P,U3,9*%
X174360000Y-90920000D03*
%TO.P,U3,10*%
%TO.N,/IN1_L*%
X176900000Y-90920000D03*
%TO.P,U3,11*%
%TO.N,GND*%
X179440000Y-90920000D03*
%TO.P,U3,12*%
%TO.N,/IN2_L*%
X181980000Y-90920000D03*
%TO.P,U3,13*%
%TO.N,GND*%
X184520000Y-90920000D03*
%TO.P,U3,14*%
%TO.N,/IN3_L*%
X187060000Y-90920000D03*
%TO.P,U3,15*%
%TO.N,GND*%
X189600000Y-90920000D03*
%TO.P,U3,16*%
%TO.N,/IN4_L*%
X192140000Y-90920000D03*
%TD*%
D12*
%TO.P,R6,1*%
%TO.N,+3V3*%
X162400000Y-77855000D03*
D13*
%TO.P,R6,2*%
%TO.N,/IN2_L*%
X162400000Y-80395000D03*
%TD*%
D22*
%TO.P,J2,1,Pin_1*%
%TO.N,+3V3*%
X127200000Y-76800000D03*
D23*
%TO.P,J2,2,Pin_2*%
%TO.N,/INT*%
X124700000Y-76800000D03*
%TO.P,J2,3,Pin_3*%
%TO.N,/SDA*%
X122200000Y-76800000D03*
%TO.P,J2,4,Pin_4*%
%TO.N,/SCL*%
X119700000Y-76800000D03*
%TO.P,J2,5,Pin_5*%
%TO.N,GND*%
X117200000Y-76800000D03*
%TO.P,J2,6,Pin_6*%
%TO.N,VBUS*%
X114700000Y-76800000D03*
%TD*%
D24*
%TO.P,A1,1,A*%
%TO.N,GND*%
X135500000Y-77500000D03*
D25*
%TO.P,A1,2,C*%
%TO.N,/A1*%
X135500000Y-76200000D03*
D26*
%TO.P,A1,3,B*%
%TO.N,+3V3*%
X135500000Y-74900000D03*
%TD*%
D27*
%TO.P,D1,1,K*%
%TO.N,VBUS*%
X130035000Y-99515000D03*
%TO.P,D1,2,A*%
%TO.N,/nDOWN1*%
X125235000Y-99515000D03*
%TD*%
D24*
%TO.P,A0,1,A*%
%TO.N,GND*%
X131900000Y-77600000D03*
D25*
%TO.P,A0,2,C*%
%TO.N,/A0*%
X131900000Y-76300000D03*
D26*
%TO.P,A0,3,B*%
%TO.N,+3V3*%
X131900000Y-75000000D03*
%TD*%
D27*
%TO.P,D3,1,K*%
%TO.N,VBUS*%
X196075000Y-97840000D03*
%TO.P,D3,2,A*%
%TO.N,/nUP2*%
X191275000Y-97840000D03*
%TD*%
%TO.P,D4,1,K*%
%TO.N,VBUS*%
X150355000Y-102055000D03*
%TO.P,D4,2,A*%
%TO.N,/nUP1*%
X145555000Y-102055000D03*
%TD*%
D22*
%TO.P,J1,1,Pin_1*%
%TO.N,+3V3*%
X127200000Y-80000000D03*
D23*
%TO.P,J1,2,Pin_2*%
%TO.N,/INT*%
X124700000Y-80000000D03*
%TO.P,J1,3,Pin_3*%
%TO.N,/SDA*%
X122200000Y-80000000D03*
%TO.P,J1,4,Pin_4*%
%TO.N,/SCL*%
X119700000Y-80000000D03*
%TO.P,J1,5,Pin_5*%
%TO.N,GND*%
X117200000Y-80000000D03*
%TO.P,J1,6,Pin_6*%
%TO.N,VBUS*%
X114700000Y-80000000D03*
%TD*%
D24*
%TO.P,A2,1,A*%
%TO.N,GND*%
X138700000Y-77500000D03*
D25*
%TO.P,A2,2,C*%
%TO.N,/A2*%
X138700000Y-76200000D03*
D26*
%TO.P,A2,3,B*%
%TO.N,+3V3*%
X138700000Y-74900000D03*
%TD*%
D27*
%TO.P,D2,1,K*%
%TO.N,VBUS*%
X176400000Y-99515000D03*
%TO.P,D2,2,A*%
%TO.N,/nDOWN2*%
X171600000Y-99515000D03*
%TD*%
D28*
%TO.N,GND*%
X200200000Y-64000000D03*
X170200000Y-76200000D03*
X172500000Y-92800000D03*
X151000000Y-85000000D03*
X102100000Y-64000000D03*
X157200000Y-64100000D03*
X105700000Y-95800000D03*
X158700000Y-93000000D03*
X190400000Y-85600000D03*
X115300000Y-64000000D03*
X148600000Y-88000000D03*
X111800000Y-85000000D03*
X195800000Y-95700000D03*
X169900000Y-84200000D03*
X144500000Y-72200000D03*
X190000000Y-81200000D03*
X140500000Y-78500000D03*
X168500000Y-90000000D03*
X134500000Y-78500000D03*
X161000000Y-81500000D03*
X148900000Y-80800000D03*
X142100000Y-72700000D03*
X145500000Y-85000000D03*
X174100000Y-81500000D03*
X130400000Y-76100000D03*
X156100000Y-80700000D03*
X184600000Y-80900000D03*
X163700000Y-83900000D03*
X131000000Y-78500000D03*
X188000000Y-94200000D03*
X110100000Y-70300000D03*
X143900000Y-75900000D03*
X117300000Y-93900000D03*
X200200000Y-95500000D03*
X156000000Y-85000000D03*
X180100000Y-81200000D03*
X158500000Y-80200000D03*
X150600000Y-66900000D03*
X175400000Y-85400000D03*
X158500000Y-85000000D03*
X164000000Y-89500000D03*
X136500000Y-72900000D03*
%TO.N,VBUS*%
X175500000Y-95400000D03*
%TO.N,/DN1*%
X123900000Y-88575000D03*
%TO.N,/UP1*%
X144700000Y-87775000D03*
%TO.N,/DN2*%
X142200000Y-86975000D03*
%TO.N,/SCL*%
X143606000Y-71200000D03*
X131300000Y-71200000D03*
%TO.N,/SDA*%
X132300000Y-72000000D03*
X138606000Y-72000000D03*
%TO.N,+3V3*%
X167000000Y-77855000D03*
%TO.N,/A0*%
X144600000Y-78600000D03*
%TO.N,/A1*%
X144000000Y-78000000D03*
%TO.N,/A2*%
X143400000Y-77400000D03*
%TO.N,/IN1_L*%
X168600000Y-88400000D03*
X150800000Y-88400000D03*
X176900000Y-88400000D03*
%TO.N,/IN2_L*%
X162400000Y-87800000D03*
X153200000Y-87800000D03*
X182000000Y-87800000D03*
%TO.N,/IN3_L*%
X155800000Y-87200000D03*
X187000000Y-87200000D03*
X165500000Y-87200000D03*
%TO.N,/IN4_L*%
X171600000Y-86600000D03*
X140600000Y-86000000D03*
X192140000Y-86600000D03*
%TD*%
D29*
%TO.N,/IN4_L*%
X140600000Y-90825000D02*
X140600000Y-86000000D01*
X140520000Y-90905000D02*
X140600000Y-90825000D01*
%TO.N,/UP2*%
X158300000Y-91900000D02*
X158300000Y-90905000D01*
X139200000Y-93000000D02*
X157200000Y-93000000D01*
X129800000Y-88375000D02*
X137375000Y-88375000D01*
X128905000Y-87480000D02*
X129800000Y-88375000D01*
X157200000Y-93000000D02*
X158300000Y-91900000D01*
X138600000Y-92400000D02*
X139200000Y-93000000D01*
X128905000Y-83285000D02*
X128905000Y-87480000D01*
X138600000Y-89600000D02*
X138600000Y-92400000D01*
X137375000Y-88375000D02*
X138600000Y-89600000D01*
%TO.N,/IN4_L*%
X171600000Y-86600000D02*
X142936764Y-86600000D01*
X142936764Y-86600000D02*
X142336764Y-86000000D01*
X142336764Y-86000000D02*
X140600000Y-86000000D01*
D30*
%TO.N,Net-(K1-Pad4)*%
X124400000Y-114550000D02*
X124400000Y-110400000D01*
X125965000Y-108835000D02*
X134190000Y-108835000D01*
X137300000Y-105725000D02*
X137300000Y-100450000D01*
X124350000Y-114600000D02*
X124400000Y-114550000D01*
X124400000Y-110400000D02*
X125965000Y-108835000D01*
X134190000Y-108835000D02*
X137300000Y-105725000D01*
D31*
%TO.N,/nDOWN2*%
X171600000Y-101550000D02*
X170750000Y-102400000D01*
D32*
X126365000Y-93465000D02*
X127280000Y-94380000D01*
D31*
X171600000Y-99515000D02*
X171600000Y-101550000D01*
D32*
X145365000Y-95650000D02*
X170130000Y-95650000D01*
X127280000Y-94380000D02*
X144095000Y-94380000D01*
X171600000Y-97120000D02*
X171600000Y-99515000D01*
X144095000Y-94380000D02*
X145365000Y-95650000D01*
X170130000Y-95650000D02*
X171600000Y-97120000D01*
X126365000Y-91400000D02*
X126365000Y-93465000D01*
D30*
%TO.N,/L2*%
X164800000Y-100450000D02*
X164800000Y-116900000D01*
X173675000Y-126270000D02*
X168675000Y-126270000D01*
X164750000Y-100400000D02*
X164800000Y-100450000D01*
X164800000Y-116900000D02*
X168675000Y-120775000D01*
X168675000Y-120775000D02*
X168675000Y-126270000D01*
%TO.N,Net-(K3-Pad4)*%
X170750000Y-114600000D02*
X170750000Y-111150000D01*
X183850000Y-105530000D02*
X183850000Y-100450000D01*
X170750000Y-111150000D02*
X172865000Y-109035000D01*
X180345000Y-109035000D02*
X183850000Y-105530000D01*
X172865000Y-109035000D02*
X180345000Y-109035000D01*
%TO.N,/L1*%
X118675000Y-126270000D02*
X118400000Y-125995000D01*
X118400000Y-100450000D02*
X118350000Y-100400000D01*
X118400000Y-125995000D02*
X118400000Y-100450000D01*
X118675000Y-126270000D02*
X123675000Y-126270000D01*
D31*
%TO.N,/nDOWN1*%
X125235000Y-99515000D02*
X125235000Y-101515000D01*
D32*
X121285000Y-94430000D02*
X125185000Y-98330000D01*
D31*
X125235000Y-101515000D02*
X124350000Y-102400000D01*
D32*
X125235000Y-98385000D02*
X125235000Y-99515000D01*
X121285000Y-91400000D02*
X121285000Y-94430000D01*
D31*
%TO.N,/nUP2*%
X191275000Y-97840000D02*
X191275000Y-100925000D01*
X191275000Y-100925000D02*
X189800000Y-102400000D01*
D32*
%TO.N,/nUP1*%
X124895000Y-95500000D02*
X143310000Y-95500000D01*
D31*
X143595000Y-102055000D02*
X143250000Y-102400000D01*
D32*
X143310000Y-95500000D02*
X145505000Y-97695000D01*
X123775000Y-91840000D02*
X123775000Y-94380000D01*
X123775000Y-94380000D02*
X124895000Y-95500000D01*
X145555000Y-97750000D02*
X145555000Y-102055000D01*
D31*
X145555000Y-102055000D02*
X143595000Y-102055000D01*
%TO.N,VBUS*%
X175500000Y-95400000D02*
X193635000Y-95400000D01*
X158405000Y-102055000D02*
X158750000Y-102400000D01*
X193635000Y-95400000D02*
X196075000Y-97840000D01*
X176400000Y-101000000D02*
X177800000Y-102400000D01*
X129900000Y-101050000D02*
X131250000Y-102400000D01*
X150355000Y-102055000D02*
X158405000Y-102055000D01*
D30*
%TO.N,/L1-DOWN*%
X112350000Y-114600000D02*
X112400000Y-114650000D01*
X108675000Y-126270000D02*
X113675000Y-126270000D01*
X113700000Y-120835000D02*
X113700000Y-126245000D01*
X113700000Y-126245000D02*
X113675000Y-126270000D01*
X112400000Y-119535000D02*
X113700000Y-120835000D01*
X112400000Y-114650000D02*
X112400000Y-119535000D01*
%TO.N,/L1-UP*%
X131250000Y-114600000D02*
X131300000Y-114650000D01*
X131300000Y-114650000D02*
X131300000Y-118335000D01*
X131300000Y-118335000D02*
X133675000Y-120710000D01*
X128675000Y-126270000D02*
X133675000Y-126270000D01*
X133675000Y-120710000D02*
X133675000Y-126270000D01*
%TO.N,/L1-SW*%
X143675000Y-115025000D02*
X143675000Y-126270000D01*
X138675000Y-126270000D02*
X143675000Y-126270000D01*
X143250000Y-114600000D02*
X143675000Y-115025000D01*
%TO.N,/L2-DOWN*%
X158675000Y-126270000D02*
X163675000Y-126270000D01*
X158750000Y-114600000D02*
X158675000Y-114675000D01*
X158675000Y-114675000D02*
X158675000Y-126270000D01*
%TO.N,/L2-SW*%
X188675000Y-121260000D02*
X188675000Y-126270000D01*
X189800000Y-114600000D02*
X189800000Y-120135000D01*
X189800000Y-120135000D02*
X188675000Y-121260000D01*
X188675000Y-126270000D02*
X193675000Y-126270000D01*
%TO.N,/L2-UP*%
X178675000Y-126270000D02*
X183675000Y-126270000D01*
X177800000Y-114600000D02*
X177800000Y-114370000D01*
X177800000Y-114370000D02*
X177850000Y-114320000D01*
X177800000Y-114600000D02*
X178675000Y-115475000D01*
X178675000Y-115475000D02*
X178675000Y-126270000D01*
D29*
%TO.N,/DN1*%
X122400000Y-88575000D02*
X123900000Y-88575000D01*
X121285000Y-87460000D02*
X122400000Y-88575000D01*
X121285000Y-83285000D02*
X121285000Y-87460000D01*
%TO.N,/UP1*%
X145600000Y-90905000D02*
X145600000Y-88675000D01*
X145600000Y-88675000D02*
X144700000Y-87775000D01*
%TO.N,/DN2*%
X143060000Y-87835000D02*
X142200000Y-86975000D01*
X143060000Y-90905000D02*
X143060000Y-87835000D01*
%TO.N,/SCL*%
X131300000Y-71200000D02*
X143606000Y-71200000D01*
%TO.N,/SDA*%
X132300000Y-72000000D02*
X138606000Y-72000000D01*
D31*
%TO.N,+3V3*%
X130600000Y-74100000D02*
X131100000Y-74100000D01*
X147820000Y-74000000D02*
X147320000Y-74500000D01*
X167000000Y-77855000D02*
X171600000Y-77855000D01*
X147320000Y-77855000D02*
X162400000Y-77855000D01*
X149100000Y-74000000D02*
X147820000Y-74000000D01*
X147320000Y-74500000D02*
X147320000Y-76700000D01*
X128606000Y-72106000D02*
X130600000Y-74100000D01*
X131100000Y-74100000D02*
X130240000Y-74100000D01*
X130240000Y-74100000D02*
X128340000Y-76000000D01*
X147320000Y-76700000D02*
X147320000Y-83285000D01*
X147320000Y-76700000D02*
X147320000Y-77855000D01*
X162400000Y-77855000D02*
X167000000Y-77855000D01*
X131100000Y-74100000D02*
X147320000Y-74100000D01*
X128340000Y-76000000D02*
X127200000Y-76000000D01*
X127200000Y-76000000D02*
X127200000Y-79000000D01*
X128606000Y-68325000D02*
X128606000Y-72106000D01*
X147320000Y-74100000D02*
X147320000Y-74500000D01*
D29*
%TO.N,/A0*%
X144600000Y-78600000D02*
X143400000Y-79800000D01*
X143400000Y-79800000D02*
X134300000Y-79800000D01*
X133600000Y-79100000D02*
X133600000Y-76800000D01*
X133100000Y-76300000D02*
X131900000Y-76300000D01*
X133600000Y-76800000D02*
X133100000Y-76300000D01*
X134300000Y-79800000D02*
X133600000Y-79100000D01*
%TO.N,/A1*%
X136600000Y-76200000D02*
X135500000Y-76200000D01*
X137100000Y-78900000D02*
X137100000Y-76700000D01*
X137400000Y-79200000D02*
X137100000Y-78900000D01*
X144000000Y-78000000D02*
X142800000Y-79200000D01*
X142800000Y-79200000D02*
X137400000Y-79200000D01*
X137100000Y-76700000D02*
X136600000Y-76200000D01*
%TO.N,/A2*%
X143400000Y-77400000D02*
X142400000Y-76400000D01*
X142400000Y-76400000D02*
X138700000Y-76400000D01*
%TO.N,/IN1_L*%
X150800000Y-88400000D02*
X168600000Y-88400000D01*
X168600000Y-88400000D02*
X176900000Y-88400000D01*
%TO.N,/IN2_L*%
X162400000Y-87800000D02*
X182000000Y-87800000D01*
X153200000Y-87800000D02*
X162400000Y-87800000D01*
%TO.N,/IN3_L*%
X165500000Y-87200000D02*
X187000000Y-87200000D01*
X155800000Y-87200000D02*
X165500000Y-87200000D01*
%TO.N,/IN4_L*%
X192140000Y-86600000D02*
X171600000Y-86600000D01*
%TD*%
%TA.AperFunction,Conductor*%
%TO.N,GND*%
G36*
X200617539Y-63640185D02*
G01*
X200663294Y-63692989D01*
X200674500Y-63744500D01*
X200674500Y-76049570D01*
X200654815Y-76116609D01*
X200602011Y-76162364D01*
X200532853Y-76172308D01*
X200469297Y-76143283D01*
X200434736Y-76094008D01*
X200420811Y-76057732D01*
X200377255Y-75944264D01*
X200210682Y-75617348D01*
X200210679Y-75617343D01*
X200010852Y-75309635D01*
X199851918Y-75113368D01*
X199779949Y-75024494D01*
X199520506Y-74765051D01*
X199274527Y-74565861D01*
X199235364Y-74534147D01*
X198927656Y-74334320D01*
X198600739Y-74167746D01*
X198258206Y-74036260D01*
X198258199Y-74036258D01*
X197903794Y-73941295D01*
X197903790Y-73941294D01*
X197903789Y-73941294D01*
X197541405Y-73883898D01*
X197175001Y-73864696D01*
X197174999Y-73864696D01*
X196808594Y-73883898D01*
X196446211Y-73941294D01*
X196446209Y-73941294D01*
X196091793Y-74036260D01*
X195749260Y-74167746D01*
X195422343Y-74334320D01*
X195114635Y-74534147D01*
X194829498Y-74765047D01*
X194829490Y-74765054D01*
X194570054Y-75024490D01*
X194570047Y-75024498D01*
X194339147Y-75309635D01*
X194139320Y-75617343D01*
X193972746Y-75944260D01*
X193841260Y-76286793D01*
X193746294Y-76641209D01*
X193746294Y-76641211D01*
X193688898Y-77003594D01*
X193669696Y-77369999D01*
X193669696Y-77370000D01*
X193688898Y-77736405D01*
X193723538Y-77955110D01*
X193746295Y-78098794D01*
X193793643Y-78275500D01*
X193841260Y-78453206D01*
X193972746Y-78795739D01*
X194139320Y-79122656D01*
X194339147Y-79430364D01*
X194519980Y-79653673D01*
X194570051Y-79715506D01*
X194829494Y-79974949D01*
X194829498Y-79974952D01*
X195114635Y-80205852D01*
X195414368Y-80400500D01*
X195422348Y-80405682D01*
X195749264Y-80572255D01*
X196091801Y-80703742D01*
X196446206Y-80798705D01*
X196808596Y-80856102D01*
X197154734Y-80874241D01*
X197174999Y-80875304D01*
X197175000Y-80875304D01*
X197175001Y-80875304D01*
X197194203Y-80874297D01*
X197541404Y-80856102D01*
X197903794Y-80798705D01*
X198258199Y-80703742D01*
X198600736Y-80572255D01*
X198927652Y-80405682D01*
X199235366Y-80205851D01*
X199520506Y-79974949D01*
X199779949Y-79715506D01*
X200010851Y-79430366D01*
X200210682Y-79122652D01*
X200377255Y-78795736D01*
X200434736Y-78645991D01*
X200477138Y-78590459D01*
X200542832Y-78566666D01*
X200610960Y-78582167D01*
X200659893Y-78632041D01*
X200674500Y-78690429D01*
X200674500Y-95876000D01*
X200654815Y-95943039D01*
X200602011Y-95988794D01*
X200550500Y-96000000D01*
X196734105Y-96000000D01*
X196721504Y-95999358D01*
X196708832Y-95998063D01*
X196625016Y-95989500D01*
X196625009Y-95989500D01*
X195690782Y-95989500D01*
X195623743Y-95969815D01*
X195603101Y-95953181D01*
X194416479Y-94766559D01*
X194416459Y-94766537D01*
X194272785Y-94622863D01*
X194272781Y-94622860D01*
X194108920Y-94513371D01*
X194108907Y-94513364D01*
X193965388Y-94453918D01*
X193926834Y-94437948D01*
X193926829Y-94437946D01*
X193830188Y-94418724D01*
X193733544Y-94399500D01*
X193733541Y-94399500D01*
X175401459Y-94399500D01*
X175401457Y-94399500D01*
X175208170Y-94437947D01*
X175208160Y-94437950D01*
X175026092Y-94513364D01*
X175026079Y-94513371D01*
X174862218Y-94622860D01*
X174862214Y-94622863D01*
X174722863Y-94762214D01*
X174722860Y-94762218D01*
X174613371Y-94926079D01*
X174613364Y-94926092D01*
X174537950Y-95108160D01*
X174537947Y-95108170D01*
X174499500Y-95301456D01*
X174499500Y-95301459D01*
X174499500Y-95498541D01*
X174499500Y-95498543D01*
X174499499Y-95498543D01*
X174537947Y-95691829D01*
X174537950Y-95691839D01*
X174594576Y-95828548D01*
X174602045Y-95898017D01*
X174570769Y-95960496D01*
X174510680Y-95996148D01*
X174480015Y-96000000D01*
X171592730Y-96000000D01*
X171525691Y-95980315D01*
X171505049Y-95963681D01*
X170608413Y-95067045D01*
X170559837Y-95034589D01*
X170527452Y-95012951D01*
X170485495Y-94984916D01*
X170485494Y-94984915D01*
X170485492Y-94984914D01*
X170485490Y-94984913D01*
X170348917Y-94928343D01*
X170348907Y-94928340D01*
X170203920Y-94899500D01*
X170203918Y-94899500D01*
X145727229Y-94899500D01*
X145660190Y-94879815D01*
X145639548Y-94863181D01*
X144588550Y-93812181D01*
X144555065Y-93750858D01*
X144560049Y-93681166D01*
X144601921Y-93625233D01*
X144667385Y-93600816D01*
X144676231Y-93600500D01*
X157113331Y-93600500D01*
X157113347Y-93600501D01*
X157120943Y-93600501D01*
X157279054Y-93600501D01*
X157279057Y-93600501D01*
X157431785Y-93559577D01*
X157481904Y-93530639D01*
X157568716Y-93480520D01*
X157680520Y-93368716D01*
X157680520Y-93368714D01*
X157690728Y-93358507D01*
X157690730Y-93358504D01*
X158423035Y-92626198D01*
X158484356Y-92592715D01*
X158491269Y-92591415D01*
X158604534Y-92573477D01*
X158799219Y-92510220D01*
X158981610Y-92417287D01*
X159074590Y-92349732D01*
X159147213Y-92296971D01*
X159147215Y-92296968D01*
X159147219Y-92296966D01*
X159291966Y-92152219D01*
X159291968Y-92152215D01*
X159291971Y-92152213D01*
X159412284Y-91986614D01*
X159412285Y-91986613D01*
X159412287Y-91986610D01*
X159459516Y-91893917D01*
X159507489Y-91843123D01*
X159575310Y-91826328D01*
X159641445Y-91848865D01*
X159680483Y-91893917D01*
X159724348Y-91980006D01*
X159727715Y-91986614D01*
X159848028Y-92152213D01*
X159992786Y-92296971D01*
X160130007Y-92396666D01*
X160158390Y-92417287D01*
X160274607Y-92476503D01*
X160340776Y-92510218D01*
X160340778Y-92510218D01*
X160340781Y-92510220D01*
X160445137Y-92544127D01*
X160535465Y-92573477D01*
X160636557Y-92589488D01*
X160737648Y-92605500D01*
X160737649Y-92605500D01*
X160942351Y-92605500D01*
X160942352Y-92605500D01*
X161144534Y-92573477D01*
X161339219Y-92510220D01*
X161521610Y-92417287D01*
X161614590Y-92349732D01*
X161687213Y-92296971D01*
X161687215Y-92296968D01*
X161687219Y-92296966D01*
X161831966Y-92152219D01*
X161831968Y-92152215D01*
X161831971Y-92152213D01*
X161906134Y-92050134D01*
X161952287Y-91986610D01*
X162045220Y-91804219D01*
X162108477Y-91609534D01*
X162140500Y-91407352D01*
X162140500Y-90669999D01*
X173081127Y-90669999D01*
X173081128Y-90670000D01*
X174044314Y-90670000D01*
X174039920Y-90674394D01*
X173987259Y-90765606D01*
X173960000Y-90867339D01*
X173960000Y-90972661D01*
X173987259Y-91074394D01*
X174039920Y-91165606D01*
X174044314Y-91170000D01*
X173081128Y-91170000D01*
X173133730Y-91366317D01*
X173133734Y-91366326D01*
X173229865Y-91572482D01*
X173360342Y-91758820D01*
X173521179Y-91919657D01*
X173707517Y-92050134D01*
X173913673Y-92146265D01*
X173913682Y-92146269D01*
X174109999Y-92198872D01*
X174110000Y-92198871D01*
X174110000Y-91235686D01*
X174114394Y-91240080D01*
X174205606Y-91292741D01*
X174307339Y-91320000D01*
X174412661Y-91320000D01*
X174514394Y-91292741D01*
X174605606Y-91240080D01*
X174610000Y-91235686D01*
X174610000Y-92198872D01*
X174806317Y-92146269D01*
X174806326Y-92146265D01*
X175012482Y-92050134D01*
X175198820Y-91919657D01*
X175359657Y-91758820D01*
X175490132Y-91572484D01*
X175517341Y-91514134D01*
X175563513Y-91461695D01*
X175630707Y-91442542D01*
X175697588Y-91462757D01*
X175742106Y-91514133D01*
X175769431Y-91572732D01*
X175769432Y-91572734D01*
X175899954Y-91759141D01*
X176060858Y-91920045D01*
X176060861Y-91920047D01*
X176247266Y-92050568D01*
X176453504Y-92146739D01*
X176453509Y-92146740D01*
X176453511Y-92146741D01*
X176506415Y-92160916D01*
X176673308Y-92205635D01*
X176835230Y-92219801D01*
X176899998Y-92225468D01*
X176900000Y-92225468D01*
X176900002Y-92225468D01*
X176956673Y-92220509D01*
X177126692Y-92205635D01*
X177346496Y-92146739D01*
X177552734Y-92050568D01*
X177739139Y-91920047D01*
X177900047Y-91759139D01*
X178030568Y-91572734D01*
X178057895Y-91514129D01*
X178104064Y-91461695D01*
X178171257Y-91442542D01*
X178238139Y-91462757D01*
X178282657Y-91514133D01*
X178309865Y-91572482D01*
X178440342Y-91758820D01*
X178601179Y-91919657D01*
X178787517Y-92050134D01*
X178993673Y-92146265D01*
X178993682Y-92146269D01*
X179189999Y-92198872D01*
X179190000Y-92198871D01*
X179190000Y-91235686D01*
X179194394Y-91240080D01*
X179285606Y-91292741D01*
X179387339Y-91320000D01*
X179492661Y-91320000D01*
X179594394Y-91292741D01*
X179685606Y-91240080D01*
X179690000Y-91235686D01*
X179690000Y-92198872D01*
X179886317Y-92146269D01*
X179886326Y-92146265D01*
X180092482Y-92050134D01*
X180278820Y-91919657D01*
X180439657Y-91758820D01*
X180570132Y-91572484D01*
X180597341Y-91514134D01*
X180643513Y-91461695D01*
X180710707Y-91442542D01*
X180777588Y-91462757D01*
X180822106Y-91514133D01*
X180849431Y-91572732D01*
X180849432Y-91572734D01*
X180979954Y-91759141D01*
X181140858Y-91920045D01*
X181140861Y-91920047D01*
X181327266Y-92050568D01*
X181533504Y-92146739D01*
X181533509Y-92146740D01*
X181533511Y-92146741D01*
X181586415Y-92160916D01*
X181753308Y-92205635D01*
X181915230Y-92219801D01*
X181979998Y-92225468D01*
X181980000Y-92225468D01*
X181980002Y-92225468D01*
X182036673Y-92220509D01*
X182206692Y-92205635D01*
X182426496Y-92146739D01*
X182632734Y-92050568D01*
X182819139Y-91920047D01*
X182980047Y-91759139D01*
X183110568Y-91572734D01*
X183137895Y-91514129D01*
X183184064Y-91461695D01*
X183251257Y-91442542D01*
X183318139Y-91462757D01*
X183362657Y-91514133D01*
X183389865Y-91572482D01*
X183520342Y-91758820D01*
X183681179Y-91919657D01*
X183867517Y-92050134D01*
X184073673Y-92146265D01*
X184073682Y-92146269D01*
X184269999Y-92198872D01*
X184270000Y-92198871D01*
X184270000Y-91235686D01*
X184274394Y-91240080D01*
X184365606Y-91292741D01*
X184467339Y-91320000D01*
X184572661Y-91320000D01*
X184674394Y-91292741D01*
X184765606Y-91240080D01*
X184770000Y-91235686D01*
X184770000Y-92198872D01*
X184966317Y-92146269D01*
X184966326Y-92146265D01*
X185172482Y-92050134D01*
X185358820Y-91919657D01*
X185519657Y-91758820D01*
X185650132Y-91572484D01*
X185677341Y-91514134D01*
X185723513Y-91461695D01*
X185790707Y-91442542D01*
X185857588Y-91462757D01*
X185902106Y-91514133D01*
X185929431Y-91572732D01*
X185929432Y-91572734D01*
X186059954Y-91759141D01*
X186220858Y-91920045D01*
X186220861Y-91920047D01*
X186407266Y-92050568D01*
X186613504Y-92146739D01*
X186613509Y-92146740D01*
X186613511Y-92146741D01*
X186666415Y-92160916D01*
X186833308Y-92205635D01*
X186995230Y-92219801D01*
X187059998Y-92225468D01*
X187060000Y-92225468D01*
X187060002Y-92225468D01*
X187116673Y-92220509D01*
X187286692Y-92205635D01*
X187506496Y-92146739D01*
X187712734Y-92050568D01*
X187899139Y-91920047D01*
X188060047Y-91759139D01*
X188190568Y-91572734D01*
X188217895Y-91514129D01*
X188264064Y-91461695D01*
X188331257Y-91442542D01*
X188398139Y-91462757D01*
X188442657Y-91514133D01*
X188469865Y-91572482D01*
X188600342Y-91758820D01*
X188761179Y-91919657D01*
X188947517Y-92050134D01*
X189153673Y-92146265D01*
X189153682Y-92146269D01*
X189349999Y-92198872D01*
X189350000Y-92198871D01*
X189350000Y-91235686D01*
X189354394Y-91240080D01*
X189445606Y-91292741D01*
X189547339Y-91320000D01*
X189652661Y-91320000D01*
X189754394Y-91292741D01*
X189845606Y-91240080D01*
X189850000Y-91235686D01*
X189850000Y-92198872D01*
X190046317Y-92146269D01*
X190046326Y-92146265D01*
X190252482Y-92050134D01*
X190438820Y-91919657D01*
X190599657Y-91758820D01*
X190730132Y-91572484D01*
X190757341Y-91514134D01*
X190803513Y-91461695D01*
X190870707Y-91442542D01*
X190937588Y-91462757D01*
X190982106Y-91514133D01*
X191009431Y-91572732D01*
X191009432Y-91572734D01*
X191139954Y-91759141D01*
X191300858Y-91920045D01*
X191300861Y-91920047D01*
X191487266Y-92050568D01*
X191693504Y-92146739D01*
X191693509Y-92146740D01*
X191693511Y-92146741D01*
X191746415Y-92160916D01*
X191913308Y-92205635D01*
X192075230Y-92219801D01*
X192139998Y-92225468D01*
X192140000Y-92225468D01*
X192140002Y-92225468D01*
X192196673Y-92220509D01*
X192366692Y-92205635D01*
X192586496Y-92146739D01*
X192792734Y-92050568D01*
X192979139Y-91920047D01*
X193140047Y-91759139D01*
X193270568Y-91572734D01*
X193366739Y-91366496D01*
X193425635Y-91146692D01*
X193445468Y-90920000D01*
X193444889Y-90913386D01*
X193430401Y-90747786D01*
X193425635Y-90693308D01*
X193379198Y-90520000D01*
X193366741Y-90473511D01*
X193366738Y-90473502D01*
X193270568Y-90267266D01*
X193140047Y-90080861D01*
X193140045Y-90080858D01*
X192979141Y-89919954D01*
X192792734Y-89789432D01*
X192792732Y-89789431D01*
X192586497Y-89693261D01*
X192586488Y-89693258D01*
X192366697Y-89634366D01*
X192366693Y-89634365D01*
X192366692Y-89634365D01*
X192366691Y-89634364D01*
X192366686Y-89634364D01*
X192140002Y-89614532D01*
X192139998Y-89614532D01*
X191913313Y-89634364D01*
X191913302Y-89634366D01*
X191693511Y-89693258D01*
X191693502Y-89693261D01*
X191487267Y-89789431D01*
X191487265Y-89789432D01*
X191300858Y-89919954D01*
X191139954Y-90080858D01*
X191009433Y-90267264D01*
X191009432Y-90267266D01*
X190996733Y-90294500D01*
X190982106Y-90325867D01*
X190935933Y-90378306D01*
X190868739Y-90397457D01*
X190801858Y-90377241D01*
X190757342Y-90325865D01*
X190730135Y-90267520D01*
X190730134Y-90267518D01*
X190599657Y-90081179D01*
X190438820Y-89920342D01*
X190252482Y-89789865D01*
X190046328Y-89693734D01*
X189850000Y-89641127D01*
X189850000Y-90604314D01*
X189845606Y-90599920D01*
X189754394Y-90547259D01*
X189652661Y-90520000D01*
X189547339Y-90520000D01*
X189445606Y-90547259D01*
X189354394Y-90599920D01*
X189350000Y-90604314D01*
X189350000Y-89641127D01*
X189153671Y-89693734D01*
X188947517Y-89789865D01*
X188761179Y-89920342D01*
X188600342Y-90081179D01*
X188469867Y-90267515D01*
X188442657Y-90325867D01*
X188396484Y-90378306D01*
X188329290Y-90397457D01*
X188262409Y-90377241D01*
X188217893Y-90325865D01*
X188203267Y-90294500D01*
X188190568Y-90267266D01*
X188060047Y-90080861D01*
X188060045Y-90080858D01*
X187899141Y-89919954D01*
X187712734Y-89789432D01*
X187712732Y-89789431D01*
X187506497Y-89693261D01*
X187506488Y-89693258D01*
X187286697Y-89634366D01*
X187286693Y-89634365D01*
X187286692Y-89634365D01*
X187286691Y-89634364D01*
X187286686Y-89634364D01*
X187060002Y-89614532D01*
X187059998Y-89614532D01*
X186833313Y-89634364D01*
X186833302Y-89634366D01*
X186613511Y-89693258D01*
X186613502Y-89693261D01*
X186407267Y-89789431D01*
X186407265Y-89789432D01*
X186220858Y-89919954D01*
X186059954Y-90080858D01*
X185929433Y-90267264D01*
X185929432Y-90267266D01*
X185916733Y-90294500D01*
X185902106Y-90325867D01*
X185855933Y-90378306D01*
X185788739Y-90397457D01*
X185721858Y-90377241D01*
X185677342Y-90325865D01*
X185650135Y-90267520D01*
X185650134Y-90267518D01*
X185519657Y-90081179D01*
X185358820Y-89920342D01*
X185172482Y-89789865D01*
X184966328Y-89693734D01*
X184770000Y-89641127D01*
X184770000Y-90604314D01*
X184765606Y-90599920D01*
X184674394Y-90547259D01*
X184572661Y-90520000D01*
X184467339Y-90520000D01*
X184365606Y-90547259D01*
X184274394Y-90599920D01*
X184270000Y-90604314D01*
X184270000Y-89641127D01*
X184073671Y-89693734D01*
X183867517Y-89789865D01*
X183681179Y-89920342D01*
X183520342Y-90081179D01*
X183389867Y-90267515D01*
X183362657Y-90325867D01*
X183316484Y-90378306D01*
X183249290Y-90397457D01*
X183182409Y-90377241D01*
X183137893Y-90325865D01*
X183123267Y-90294500D01*
X183110568Y-90267266D01*
X182980047Y-90080861D01*
X182980045Y-90080858D01*
X182819141Y-89919954D01*
X182632734Y-89789432D01*
X182632732Y-89789431D01*
X182426497Y-89693261D01*
X182426488Y-89693258D01*
X182206697Y-89634366D01*
X182206693Y-89634365D01*
X182206692Y-89634365D01*
X182206691Y-89634364D01*
X182206686Y-89634364D01*
X181980002Y-89614532D01*
X181979998Y-89614532D01*
X181753313Y-89634364D01*
X181753302Y-89634366D01*
X181533511Y-89693258D01*
X181533502Y-89693261D01*
X181327267Y-89789431D01*
X181327265Y-89789432D01*
X181140858Y-89919954D01*
X180979954Y-90080858D01*
X180849433Y-90267264D01*
X180849432Y-90267266D01*
X180836733Y-90294500D01*
X180822106Y-90325867D01*
X180775933Y-90378306D01*
X180708739Y-90397457D01*
X180641858Y-90377241D01*
X180597342Y-90325865D01*
X180570135Y-90267520D01*
X180570134Y-90267518D01*
X180439657Y-90081179D01*
X180278820Y-89920342D01*
X180092482Y-89789865D01*
X179886328Y-89693734D01*
X179690000Y-89641127D01*
X179690000Y-90604314D01*
X179685606Y-90599920D01*
X179594394Y-90547259D01*
X179492661Y-90520000D01*
X179387339Y-90520000D01*
X179285606Y-90547259D01*
X179194394Y-90599920D01*
X179190000Y-90604314D01*
X179190000Y-89641127D01*
X178993671Y-89693734D01*
X178787517Y-89789865D01*
X178601179Y-89920342D01*
X178440342Y-90081179D01*
X178309867Y-90267515D01*
X178282657Y-90325867D01*
X178236484Y-90378306D01*
X178169290Y-90397457D01*
X178102409Y-90377241D01*
X178057893Y-90325865D01*
X178043267Y-90294500D01*
X178030568Y-90267266D01*
X177900047Y-90080861D01*
X177900045Y-90080858D01*
X177739141Y-89919954D01*
X177552734Y-89789432D01*
X177552732Y-89789431D01*
X177346497Y-89693261D01*
X177346488Y-89693258D01*
X177126697Y-89634366D01*
X177126693Y-89634365D01*
X177126692Y-89634365D01*
X177126691Y-89634364D01*
X177126686Y-89634364D01*
X176900002Y-89614532D01*
X176899998Y-89614532D01*
X176673313Y-89634364D01*
X176673302Y-89634366D01*
X176453511Y-89693258D01*
X176453502Y-89693261D01*
X176247267Y-89789431D01*
X176247265Y-89789432D01*
X176060858Y-89919954D01*
X175899954Y-90080858D01*
X175769433Y-90267264D01*
X175769432Y-90267266D01*
X175756733Y-90294500D01*
X175742106Y-90325867D01*
X175695933Y-90378306D01*
X175628739Y-90397457D01*
X175561858Y-90377241D01*
X175517342Y-90325865D01*
X175490135Y-90267520D01*
X175490134Y-90267518D01*
X175359657Y-90081179D01*
X175198820Y-89920342D01*
X175012482Y-89789865D01*
X174806328Y-89693734D01*
X174610000Y-89641127D01*
X174610000Y-90604314D01*
X174605606Y-90599920D01*
X174514394Y-90547259D01*
X174412661Y-90520000D01*
X174307339Y-90520000D01*
X174205606Y-90547259D01*
X174114394Y-90599920D01*
X174110000Y-90604314D01*
X174110000Y-89641127D01*
X173913671Y-89693734D01*
X173707517Y-89789865D01*
X173521179Y-89920342D01*
X173360342Y-90081179D01*
X173229865Y-90267517D01*
X173133734Y-90473673D01*
X173133730Y-90473682D01*
X173081127Y-90669999D01*
X162140500Y-90669999D01*
X162140500Y-90402648D01*
X162123371Y-90294500D01*
X162108477Y-90200465D01*
X162045218Y-90005776D01*
X162011503Y-89939607D01*
X161952287Y-89823390D01*
X161902633Y-89755046D01*
X161831971Y-89657786D01*
X161687213Y-89513028D01*
X161521613Y-89392715D01*
X161521612Y-89392714D01*
X161521610Y-89392713D01*
X161464653Y-89363691D01*
X161339223Y-89299781D01*
X161162718Y-89242431D01*
X161105043Y-89202993D01*
X161077845Y-89138634D01*
X161089760Y-89069788D01*
X161137004Y-89018312D01*
X161201037Y-89000500D01*
X168017588Y-89000500D01*
X168084627Y-89020185D01*
X168094903Y-89027555D01*
X168097736Y-89029814D01*
X168097738Y-89029816D01*
X168250478Y-89125789D01*
X168357058Y-89163083D01*
X168420745Y-89185368D01*
X168420750Y-89185369D01*
X168599996Y-89205565D01*
X168600000Y-89205565D01*
X168600004Y-89205565D01*
X168779249Y-89185369D01*
X168779252Y-89185368D01*
X168779255Y-89185368D01*
X168949522Y-89125789D01*
X169102262Y-89029816D01*
X169102267Y-89029810D01*
X169105097Y-89027555D01*
X169107275Y-89026665D01*
X169108158Y-89026111D01*
X169108255Y-89026265D01*
X169169783Y-89001145D01*
X169182412Y-89000500D01*
X176317588Y-89000500D01*
X176384627Y-89020185D01*
X176394903Y-89027555D01*
X176397736Y-89029814D01*
X176397738Y-89029816D01*
X176550478Y-89125789D01*
X176657058Y-89163083D01*
X176720745Y-89185368D01*
X176720750Y-89185369D01*
X176899996Y-89205565D01*
X176900000Y-89205565D01*
X176900004Y-89205565D01*
X177079249Y-89185369D01*
X177079252Y-89185368D01*
X177079255Y-89185368D01*
X177249522Y-89125789D01*
X177402262Y-89029816D01*
X177529816Y-88902262D01*
X177625789Y-88749522D01*
X177685368Y-88579255D01*
X177685846Y-88575019D01*
X177693102Y-88510617D01*
X177720168Y-88446203D01*
X177777763Y-88406648D01*
X177816322Y-88400500D01*
X181417588Y-88400500D01*
X181484627Y-88420185D01*
X181494903Y-88427555D01*
X181497736Y-88429814D01*
X181497738Y-88429816D01*
X181650478Y-88525789D01*
X181749299Y-88560368D01*
X181820745Y-88585368D01*
X181820750Y-88585369D01*
X181999996Y-88605565D01*
X182000000Y-88605565D01*
X182000004Y-88605565D01*
X182179249Y-88585369D01*
X182179252Y-88585368D01*
X182179255Y-88585368D01*
X182349522Y-88525789D01*
X182502262Y-88429816D01*
X182629816Y-88302262D01*
X182725789Y-88149522D01*
X182785368Y-87979255D01*
X182785977Y-87973855D01*
X182793102Y-87910617D01*
X182820168Y-87846203D01*
X182877763Y-87806648D01*
X182916322Y-87800500D01*
X186417588Y-87800500D01*
X186484627Y-87820185D01*
X186494903Y-87827555D01*
X186497736Y-87829814D01*
X186497738Y-87829816D01*
X186598171Y-87892922D01*
X186647705Y-87924047D01*
X186650478Y-87925789D01*
X186787843Y-87973855D01*
X186820745Y-87985368D01*
X186820750Y-87985369D01*
X186999996Y-88005565D01*
X187000000Y-88005565D01*
X187000004Y-88005565D01*
X187179249Y-87985369D01*
X187179252Y-87985368D01*
X187179255Y-87985368D01*
X187349522Y-87925789D01*
X187502262Y-87829816D01*
X187629816Y-87702262D01*
X187725789Y-87549522D01*
X187785368Y-87379255D01*
X187791393Y-87325789D01*
X187793102Y-87310617D01*
X187820168Y-87246203D01*
X187877763Y-87206648D01*
X187916322Y-87200500D01*
X191557588Y-87200500D01*
X191624627Y-87220185D01*
X191634903Y-87227555D01*
X191637736Y-87229814D01*
X191637738Y-87229816D01*
X191719461Y-87281166D01*
X191788461Y-87324522D01*
X191790478Y-87325789D01*
X191926394Y-87373348D01*
X191960745Y-87385368D01*
X191960750Y-87385369D01*
X192139996Y-87405565D01*
X192140000Y-87405565D01*
X192140004Y-87405565D01*
X192319249Y-87385369D01*
X192319252Y-87385368D01*
X192319255Y-87385368D01*
X192489522Y-87325789D01*
X192642262Y-87229816D01*
X192769816Y-87102262D01*
X192865789Y-86949522D01*
X192925368Y-86779255D01*
X192925369Y-86779249D01*
X192945565Y-86600003D01*
X192945565Y-86599996D01*
X192925369Y-86420750D01*
X192925368Y-86420745D01*
X192865788Y-86250476D01*
X192769815Y-86097737D01*
X192642262Y-85970184D01*
X192489523Y-85874211D01*
X192319254Y-85814631D01*
X192319249Y-85814630D01*
X192140004Y-85794435D01*
X192139996Y-85794435D01*
X191960750Y-85814630D01*
X191960745Y-85814631D01*
X191790476Y-85874211D01*
X191637736Y-85970185D01*
X191634903Y-85972445D01*
X191632724Y-85973334D01*
X191631842Y-85973889D01*
X191631744Y-85973734D01*
X191570217Y-85998855D01*
X191557588Y-85999500D01*
X172182412Y-85999500D01*
X172115373Y-85979815D01*
X172105097Y-85972445D01*
X172102263Y-85970185D01*
X172102262Y-85970184D01*
X172036104Y-85928614D01*
X171949523Y-85874211D01*
X171779254Y-85814631D01*
X171779249Y-85814630D01*
X171600004Y-85794435D01*
X171599996Y-85794435D01*
X171420750Y-85814630D01*
X171420745Y-85814631D01*
X171250476Y-85874211D01*
X171097736Y-85970185D01*
X171094903Y-85972445D01*
X171092724Y-85973334D01*
X171091842Y-85973889D01*
X171091744Y-85973734D01*
X171030217Y-85998855D01*
X171017588Y-85999500D01*
X143236861Y-85999500D01*
X143169822Y-85979815D01*
X143149180Y-85963181D01*
X142824354Y-85638355D01*
X142824352Y-85638352D01*
X142705481Y-85519481D01*
X142705480Y-85519480D01*
X142596586Y-85456610D01*
X142596584Y-85456609D01*
X142568549Y-85440423D01*
X142568548Y-85440422D01*
X142568547Y-85440422D01*
X142512645Y-85425443D01*
X142415821Y-85399499D01*
X142257707Y-85399499D01*
X142250111Y-85399499D01*
X142250095Y-85399500D01*
X141182412Y-85399500D01*
X141115373Y-85379815D01*
X141105097Y-85372445D01*
X141102263Y-85370185D01*
X141102262Y-85370184D01*
X141045496Y-85334515D01*
X140949523Y-85274211D01*
X140779254Y-85214631D01*
X140779250Y-85214630D01*
X140750028Y-85211338D01*
X140685614Y-85184271D01*
X140646060Y-85126675D01*
X140643923Y-85056838D01*
X140679882Y-84996932D01*
X140742520Y-84965977D01*
X140744516Y-84965645D01*
X140824416Y-84952990D01*
X140824417Y-84952990D01*
X141019031Y-84889755D01*
X141201349Y-84796859D01*
X141366894Y-84676582D01*
X141366895Y-84676582D01*
X141511582Y-84531895D01*
X141511582Y-84531894D01*
X141631861Y-84366347D01*
X141679234Y-84273371D01*
X141727208Y-84222575D01*
X141795028Y-84205779D01*
X141861164Y-84228316D01*
X141900203Y-84273369D01*
X141947713Y-84366611D01*
X142068028Y-84532213D01*
X142212786Y-84676971D01*
X142310195Y-84747741D01*
X142378390Y-84797287D01*
X142467212Y-84842544D01*
X142560776Y-84890218D01*
X142560778Y-84890218D01*
X142560781Y-84890220D01*
X142665137Y-84924127D01*
X142755465Y-84953477D01*
X142856557Y-84969488D01*
X142957648Y-84985500D01*
X142957649Y-84985500D01*
X143162351Y-84985500D01*
X143162352Y-84985500D01*
X143364534Y-84953477D01*
X143559219Y-84890220D01*
X143741610Y-84797287D01*
X143837901Y-84727328D01*
X143907213Y-84676971D01*
X143907215Y-84676968D01*
X143907219Y-84676966D01*
X144051966Y-84532219D01*
X144051968Y-84532215D01*
X144051971Y-84532213D01*
X144172284Y-84366614D01*
X144172286Y-84366611D01*
X144172287Y-84366610D01*
X144219516Y-84273917D01*
X144267489Y-84223123D01*
X144335310Y-84206328D01*
X144401445Y-84228865D01*
X144440483Y-84273917D01*
X144465156Y-84322339D01*
X144487715Y-84366614D01*
X144608028Y-84532213D01*
X144752786Y-84676971D01*
X144850195Y-84747741D01*
X144918390Y-84797287D01*
X145007212Y-84842544D01*
X145100776Y-84890218D01*
X145100778Y-84890218D01*
X145100781Y-84890220D01*
X145205137Y-84924127D01*
X145295465Y-84953477D01*
X145396557Y-84969488D01*
X145497648Y-84985500D01*
X145497649Y-84985500D01*
X145702351Y-84985500D01*
X145702352Y-84985500D01*
X145904534Y-84953477D01*
X146099219Y-84890220D01*
X146281610Y-84797287D01*
X146377901Y-84727328D01*
X146447213Y-84676971D01*
X146447215Y-84676968D01*
X146447219Y-84676966D01*
X146591966Y-84532219D01*
X146591968Y-84532215D01*
X146591971Y-84532213D01*
X146712286Y-84366611D01*
X146712288Y-84366608D01*
X146759516Y-84273917D01*
X146807487Y-84223124D01*
X146875308Y-84206328D01*
X146941443Y-84228865D01*
X146980483Y-84273919D01*
X147027711Y-84366608D01*
X147027712Y-84366610D01*
X147148028Y-84532213D01*
X147292786Y-84676971D01*
X147390195Y-84747741D01*
X147458390Y-84797287D01*
X147547212Y-84842544D01*
X147640776Y-84890218D01*
X147640778Y-84890218D01*
X147640781Y-84890220D01*
X147745137Y-84924127D01*
X147835465Y-84953477D01*
X147936557Y-84969488D01*
X148037648Y-84985500D01*
X148037649Y-84985500D01*
X148242351Y-84985500D01*
X148242352Y-84985500D01*
X148444534Y-84953477D01*
X148639219Y-84890220D01*
X148821610Y-84797287D01*
X148917901Y-84727328D01*
X148987213Y-84676971D01*
X148987215Y-84676968D01*
X148987219Y-84676966D01*
X149131966Y-84532219D01*
X149131968Y-84532215D01*
X149131971Y-84532213D01*
X149252284Y-84366614D01*
X149252286Y-84366611D01*
X149252287Y-84366610D01*
X149299516Y-84273917D01*
X149347489Y-84223123D01*
X149415310Y-84206328D01*
X149481445Y-84228865D01*
X149520483Y-84273917D01*
X149545156Y-84322339D01*
X149567715Y-84366614D01*
X149688028Y-84532213D01*
X149832786Y-84676971D01*
X149930195Y-84747741D01*
X149998390Y-84797287D01*
X150087212Y-84842544D01*
X150180776Y-84890218D01*
X150180778Y-84890218D01*
X150180781Y-84890220D01*
X150285137Y-84924127D01*
X150375465Y-84953477D01*
X150476557Y-84969488D01*
X150577648Y-84985500D01*
X150577649Y-84985500D01*
X150782351Y-84985500D01*
X150782352Y-84985500D01*
X150984534Y-84953477D01*
X151179219Y-84890220D01*
X151361610Y-84797287D01*
X151457901Y-84727328D01*
X151527213Y-84676971D01*
X151527215Y-84676968D01*
X151527219Y-84676966D01*
X151671966Y-84532219D01*
X151671968Y-84532215D01*
X151671971Y-84532213D01*
X151792284Y-84366614D01*
X151792286Y-84366611D01*
X151792287Y-84366610D01*
X151839516Y-84273917D01*
X151887489Y-84223123D01*
X151955310Y-84206328D01*
X152021445Y-84228865D01*
X152060483Y-84273917D01*
X152085156Y-84322339D01*
X152107715Y-84366614D01*
X152228028Y-84532213D01*
X152372786Y-84676971D01*
X152470195Y-84747741D01*
X152538390Y-84797287D01*
X152627212Y-84842544D01*
X152720776Y-84890218D01*
X152720778Y-84890218D01*
X152720781Y-84890220D01*
X152825137Y-84924127D01*
X152915465Y-84953477D01*
X153016557Y-84969488D01*
X153117648Y-84985500D01*
X153117649Y-84985500D01*
X153322351Y-84985500D01*
X153322352Y-84985500D01*
X153524534Y-84953477D01*
X153719219Y-84890220D01*
X153901610Y-84797287D01*
X153997901Y-84727328D01*
X154067213Y-84676971D01*
X154067215Y-84676968D01*
X154067219Y-84676966D01*
X154211966Y-84532219D01*
X154211968Y-84532215D01*
X154211971Y-84532213D01*
X154332284Y-84366614D01*
X154332286Y-84366611D01*
X154332287Y-84366610D01*
X154379516Y-84273917D01*
X154427489Y-84223123D01*
X154495310Y-84206328D01*
X154561445Y-84228865D01*
X154600483Y-84273917D01*
X154625156Y-84322339D01*
X154647715Y-84366614D01*
X154768028Y-84532213D01*
X154912786Y-84676971D01*
X155010195Y-84747741D01*
X155078390Y-84797287D01*
X155167212Y-84842544D01*
X155260776Y-84890218D01*
X155260778Y-84890218D01*
X155260781Y-84890220D01*
X155365137Y-84924127D01*
X155455465Y-84953477D01*
X155556557Y-84969488D01*
X155657648Y-84985500D01*
X155657649Y-84985500D01*
X155862351Y-84985500D01*
X155862352Y-84985500D01*
X156064534Y-84953477D01*
X156259219Y-84890220D01*
X156441610Y-84797287D01*
X156537901Y-84727328D01*
X156607213Y-84676971D01*
X156607215Y-84676968D01*
X156607219Y-84676966D01*
X156751966Y-84532219D01*
X156751968Y-84532215D01*
X156751971Y-84532213D01*
X156872284Y-84366614D01*
X156872286Y-84366611D01*
X156872287Y-84366610D01*
X156919516Y-84273917D01*
X156967489Y-84223123D01*
X157035310Y-84206328D01*
X157101445Y-84228865D01*
X157140483Y-84273917D01*
X157165156Y-84322339D01*
X157187715Y-84366614D01*
X157308028Y-84532213D01*
X157452786Y-84676971D01*
X157550195Y-84747741D01*
X157618390Y-84797287D01*
X157707212Y-84842544D01*
X157800776Y-84890218D01*
X157800778Y-84890218D01*
X157800781Y-84890220D01*
X157905137Y-84924127D01*
X157995465Y-84953477D01*
X158096557Y-84969488D01*
X158197648Y-84985500D01*
X158197649Y-84985500D01*
X158402351Y-84985500D01*
X158402352Y-84985500D01*
X158604534Y-84953477D01*
X158799219Y-84890220D01*
X158981610Y-84797287D01*
X159077901Y-84727328D01*
X159147213Y-84676971D01*
X159147215Y-84676968D01*
X159147219Y-84676966D01*
X159291966Y-84532219D01*
X159318330Y-84495930D01*
X159373658Y-84453265D01*
X159443271Y-84447284D01*
X159505067Y-84479889D01*
X159539426Y-84540726D01*
X159541938Y-84555559D01*
X159545907Y-84592480D01*
X159596202Y-84727328D01*
X159596206Y-84727335D01*
X159682452Y-84842544D01*
X159682455Y-84842547D01*
X159797664Y-84928793D01*
X159797671Y-84928797D01*
X159932517Y-84979091D01*
X159932516Y-84979091D01*
X159939444Y-84979835D01*
X159992127Y-84985500D01*
X161687872Y-84985499D01*
X161747483Y-84979091D01*
X161882331Y-84928796D01*
X161997546Y-84842546D01*
X162083796Y-84727331D01*
X162134091Y-84592483D01*
X162140500Y-84532873D01*
X162140499Y-83049999D01*
X173081127Y-83049999D01*
X173081128Y-83050000D01*
X174044314Y-83050000D01*
X174039920Y-83054394D01*
X173987259Y-83145606D01*
X173960000Y-83247339D01*
X173960000Y-83352661D01*
X173987259Y-83454394D01*
X174039920Y-83545606D01*
X174044314Y-83550000D01*
X173081128Y-83550000D01*
X173133730Y-83746317D01*
X173133734Y-83746326D01*
X173229865Y-83952482D01*
X173360342Y-84138820D01*
X173521179Y-84299657D01*
X173707517Y-84430134D01*
X173913673Y-84526265D01*
X173913682Y-84526269D01*
X174109999Y-84578872D01*
X174110000Y-84578871D01*
X174110000Y-83615686D01*
X174114394Y-83620080D01*
X174205606Y-83672741D01*
X174307339Y-83700000D01*
X174412661Y-83700000D01*
X174514394Y-83672741D01*
X174605606Y-83620080D01*
X174610000Y-83615686D01*
X174610000Y-84578872D01*
X174806317Y-84526269D01*
X174806326Y-84526265D01*
X175012482Y-84430134D01*
X175198820Y-84299657D01*
X175359657Y-84138820D01*
X175490132Y-83952484D01*
X175517341Y-83894134D01*
X175563513Y-83841695D01*
X175630707Y-83822542D01*
X175697588Y-83842757D01*
X175742106Y-83894133D01*
X175769431Y-83952732D01*
X175769432Y-83952734D01*
X175899954Y-84139141D01*
X176060858Y-84300045D01*
X176060861Y-84300047D01*
X176247266Y-84430568D01*
X176453504Y-84526739D01*
X176453509Y-84526740D01*
X176453511Y-84526741D01*
X176476434Y-84532883D01*
X176673308Y-84585635D01*
X176835230Y-84599801D01*
X176899998Y-84605468D01*
X176900000Y-84605468D01*
X176900002Y-84605468D01*
X176956807Y-84600498D01*
X177126692Y-84585635D01*
X177346496Y-84526739D01*
X177552734Y-84430568D01*
X177739139Y-84300047D01*
X177900047Y-84139139D01*
X178030568Y-83952734D01*
X178057895Y-83894129D01*
X178104064Y-83841695D01*
X178171257Y-83822542D01*
X178238139Y-83842757D01*
X178282657Y-83894133D01*
X178309865Y-83952482D01*
X178440342Y-84138820D01*
X178601179Y-84299657D01*
X178787517Y-84430134D01*
X178993673Y-84526265D01*
X178993682Y-84526269D01*
X179189999Y-84578872D01*
X179190000Y-84578871D01*
X179190000Y-83615686D01*
X179194394Y-83620080D01*
X179285606Y-83672741D01*
X179387339Y-83700000D01*
X179492661Y-83700000D01*
X179594394Y-83672741D01*
X179685606Y-83620080D01*
X179690000Y-83615686D01*
X179690000Y-84578872D01*
X179886317Y-84526269D01*
X179886326Y-84526265D01*
X180092482Y-84430134D01*
X180278820Y-84299657D01*
X180439657Y-84138820D01*
X180570132Y-83952484D01*
X180597341Y-83894134D01*
X180643513Y-83841695D01*
X180710707Y-83822542D01*
X180777588Y-83842757D01*
X180822106Y-83894133D01*
X180849431Y-83952732D01*
X180849432Y-83952734D01*
X180979954Y-84139141D01*
X181140858Y-84300045D01*
X181140861Y-84300047D01*
X181327266Y-84430568D01*
X181533504Y-84526739D01*
X181533509Y-84526740D01*
X181533511Y-84526741D01*
X181556434Y-84532883D01*
X181753308Y-84585635D01*
X181915230Y-84599801D01*
X181979998Y-84605468D01*
X181980000Y-84605468D01*
X181980002Y-84605468D01*
X182036807Y-84600498D01*
X182206692Y-84585635D01*
X182426496Y-84526739D01*
X182632734Y-84430568D01*
X182819139Y-84300047D01*
X182980047Y-84139139D01*
X183110568Y-83952734D01*
X183137895Y-83894129D01*
X183184064Y-83841695D01*
X183251257Y-83822542D01*
X183318139Y-83842757D01*
X183362657Y-83894133D01*
X183389865Y-83952482D01*
X183520342Y-84138820D01*
X183681179Y-84299657D01*
X183867517Y-84430134D01*
X184073673Y-84526265D01*
X184073682Y-84526269D01*
X184269999Y-84578872D01*
X184270000Y-84578871D01*
X184270000Y-83615686D01*
X184274394Y-83620080D01*
X184365606Y-83672741D01*
X184467339Y-83700000D01*
X184572661Y-83700000D01*
X184674394Y-83672741D01*
X184765606Y-83620080D01*
X184770000Y-83615686D01*
X184770000Y-84578872D01*
X184966317Y-84526269D01*
X184966326Y-84526265D01*
X185172482Y-84430134D01*
X185358820Y-84299657D01*
X185519657Y-84138820D01*
X185650132Y-83952484D01*
X185677341Y-83894134D01*
X185723513Y-83841695D01*
X185790707Y-83822542D01*
X185857588Y-83842757D01*
X185902106Y-83894133D01*
X185929431Y-83952732D01*
X185929432Y-83952734D01*
X186059954Y-84139141D01*
X186220858Y-84300045D01*
X186220861Y-84300047D01*
X186407266Y-84430568D01*
X186613504Y-84526739D01*
X186613509Y-84526740D01*
X186613511Y-84526741D01*
X186636434Y-84532883D01*
X186833308Y-84585635D01*
X186995230Y-84599801D01*
X187059998Y-84605468D01*
X187060000Y-84605468D01*
X187060002Y-84605468D01*
X187116807Y-84600498D01*
X187286692Y-84585635D01*
X187506496Y-84526739D01*
X187712734Y-84430568D01*
X187899139Y-84300047D01*
X188060047Y-84139139D01*
X188190568Y-83952734D01*
X188217895Y-83894129D01*
X188264064Y-83841695D01*
X188331257Y-83822542D01*
X188398139Y-83842757D01*
X188442657Y-83894133D01*
X188469865Y-83952482D01*
X188600342Y-84138820D01*
X188761179Y-84299657D01*
X188947517Y-84430134D01*
X189153673Y-84526265D01*
X189153682Y-84526269D01*
X189349999Y-84578872D01*
X189350000Y-84578871D01*
X189350000Y-83615686D01*
X189354394Y-83620080D01*
X189445606Y-83672741D01*
X189547339Y-83700000D01*
X189652661Y-83700000D01*
X189754394Y-83672741D01*
X189845606Y-83620080D01*
X189850000Y-83615686D01*
X189850000Y-84578872D01*
X190046317Y-84526269D01*
X190046326Y-84526265D01*
X190252482Y-84430134D01*
X190438820Y-84299657D01*
X190599658Y-84138819D01*
X190617190Y-84113781D01*
X190671766Y-84070155D01*
X190741264Y-84062961D01*
X190803619Y-84094482D01*
X190839034Y-84154712D01*
X190842055Y-84171647D01*
X190845907Y-84207480D01*
X190896202Y-84342328D01*
X190896206Y-84342335D01*
X190982452Y-84457544D01*
X190982455Y-84457547D01*
X191097664Y-84543793D01*
X191097671Y-84543797D01*
X191232517Y-84594091D01*
X191232516Y-84594091D01*
X191239444Y-84594835D01*
X191292127Y-84600500D01*
X192987872Y-84600499D01*
X193047483Y-84594091D01*
X193182331Y-84543796D01*
X193297546Y-84457546D01*
X193383796Y-84342331D01*
X193434091Y-84207483D01*
X193440500Y-84147873D01*
X193440499Y-82452128D01*
X193434091Y-82392517D01*
X193431648Y-82385968D01*
X193383797Y-82257671D01*
X193383793Y-82257664D01*
X193297547Y-82142455D01*
X193297544Y-82142452D01*
X193182335Y-82056206D01*
X193182328Y-82056202D01*
X193047482Y-82005908D01*
X193047483Y-82005908D01*
X192987883Y-81999501D01*
X192987881Y-81999500D01*
X192987873Y-81999500D01*
X192987864Y-81999500D01*
X191292129Y-81999500D01*
X191292123Y-81999501D01*
X191232516Y-82005908D01*
X191097671Y-82056202D01*
X191097664Y-82056206D01*
X190982455Y-82142452D01*
X190982452Y-82142455D01*
X190896206Y-82257664D01*
X190896202Y-82257671D01*
X190845908Y-82392517D01*
X190842056Y-82428352D01*
X190815318Y-82492903D01*
X190757926Y-82532752D01*
X190688101Y-82535245D01*
X190628012Y-82499593D01*
X190617192Y-82486221D01*
X190599657Y-82461179D01*
X190438820Y-82300342D01*
X190252482Y-82169865D01*
X190046328Y-82073734D01*
X189850000Y-82021127D01*
X189850000Y-82984314D01*
X189845606Y-82979920D01*
X189754394Y-82927259D01*
X189652661Y-82900000D01*
X189547339Y-82900000D01*
X189445606Y-82927259D01*
X189354394Y-82979920D01*
X189350000Y-82984314D01*
X189350000Y-82021127D01*
X189153671Y-82073734D01*
X188947517Y-82169865D01*
X188761179Y-82300342D01*
X188600342Y-82461179D01*
X188469867Y-82647515D01*
X188442657Y-82705867D01*
X188396484Y-82758306D01*
X188329290Y-82777457D01*
X188262409Y-82757241D01*
X188217893Y-82705865D01*
X188214407Y-82698390D01*
X188190568Y-82647266D01*
X188060047Y-82460861D01*
X188060045Y-82460858D01*
X187899141Y-82299954D01*
X187712734Y-82169432D01*
X187712732Y-82169431D01*
X187506497Y-82073261D01*
X187506488Y-82073258D01*
X187286697Y-82014366D01*
X187286693Y-82014365D01*
X187286692Y-82014365D01*
X187286691Y-82014364D01*
X187286686Y-82014364D01*
X187060002Y-81994532D01*
X187059998Y-81994532D01*
X186833313Y-82014364D01*
X186833302Y-82014366D01*
X186613511Y-82073258D01*
X186613502Y-82073261D01*
X186407267Y-82169431D01*
X186407265Y-82169432D01*
X186220858Y-82299954D01*
X186059954Y-82460858D01*
X185929433Y-82647264D01*
X185929432Y-82647266D01*
X185905593Y-82698390D01*
X185902106Y-82705867D01*
X185855933Y-82758306D01*
X185788739Y-82777457D01*
X185721858Y-82757241D01*
X185677342Y-82705865D01*
X185650135Y-82647520D01*
X185650134Y-82647518D01*
X185519657Y-82461179D01*
X185358820Y-82300342D01*
X185172482Y-82169865D01*
X184966328Y-82073734D01*
X184770000Y-82021127D01*
X184770000Y-82984314D01*
X184765606Y-82979920D01*
X184674394Y-82927259D01*
X184572661Y-82900000D01*
X184467339Y-82900000D01*
X184365606Y-82927259D01*
X184274394Y-82979920D01*
X184270000Y-82984314D01*
X184270000Y-82021127D01*
X184073671Y-82073734D01*
X183867517Y-82169865D01*
X183681179Y-82300342D01*
X183520342Y-82461179D01*
X183389867Y-82647515D01*
X183362657Y-82705867D01*
X183316484Y-82758306D01*
X183249290Y-82777457D01*
X183182409Y-82757241D01*
X183137893Y-82705865D01*
X183134407Y-82698390D01*
X183110568Y-82647266D01*
X182980047Y-82460861D01*
X182980045Y-82460858D01*
X182819141Y-82299954D01*
X182632734Y-82169432D01*
X182632732Y-82169431D01*
X182426497Y-82073261D01*
X182426488Y-82073258D01*
X182206697Y-82014366D01*
X182206693Y-82014365D01*
X182206692Y-82014365D01*
X182206691Y-82014364D01*
X182206686Y-82014364D01*
X181980002Y-81994532D01*
X181979998Y-81994532D01*
X181753313Y-82014364D01*
X181753302Y-82014366D01*
X181533511Y-82073258D01*
X181533502Y-82073261D01*
X181327267Y-82169431D01*
X181327265Y-82169432D01*
X181140858Y-82299954D01*
X180979954Y-82460858D01*
X180849433Y-82647264D01*
X180849432Y-82647266D01*
X180825593Y-82698390D01*
X180822106Y-82705867D01*
X180775933Y-82758306D01*
X180708739Y-82777457D01*
X180641858Y-82757241D01*
X180597342Y-82705865D01*
X180570135Y-82647520D01*
X180570134Y-82647518D01*
X180439657Y-82461179D01*
X180278820Y-82300342D01*
X180092482Y-82169865D01*
X179886328Y-82073734D01*
X179690000Y-82021127D01*
X179690000Y-82984314D01*
X179685606Y-82979920D01*
X179594394Y-82927259D01*
X179492661Y-82900000D01*
X179387339Y-82900000D01*
X179285606Y-82927259D01*
X179194394Y-82979920D01*
X179190000Y-82984314D01*
X179190000Y-82021127D01*
X178993671Y-82073734D01*
X178787517Y-82169865D01*
X178601179Y-82300342D01*
X178440342Y-82461179D01*
X178309867Y-82647515D01*
X178282657Y-82705867D01*
X178236484Y-82758306D01*
X178169290Y-82777457D01*
X178102409Y-82757241D01*
X178057893Y-82705865D01*
X178054407Y-82698390D01*
X178030568Y-82647266D01*
X177900047Y-82460861D01*
X177900045Y-82460858D01*
X177739141Y-82299954D01*
X177552734Y-82169432D01*
X177552732Y-82169431D01*
X177346497Y-82073261D01*
X177346488Y-82073258D01*
X177126697Y-82014366D01*
X177126693Y-82014365D01*
X177126692Y-82014365D01*
X177126691Y-82014364D01*
X177126686Y-82014364D01*
X176900002Y-81994532D01*
X176899998Y-81994532D01*
X176673313Y-82014364D01*
X176673302Y-82014366D01*
X176453511Y-82073258D01*
X176453502Y-82073261D01*
X176247267Y-82169431D01*
X176247265Y-82169432D01*
X176060858Y-82299954D01*
X175899954Y-82460858D01*
X175769433Y-82647264D01*
X175769432Y-82647266D01*
X175745593Y-82698390D01*
X175742106Y-82705867D01*
X175695933Y-82758306D01*
X175628739Y-82777457D01*
X175561858Y-82757241D01*
X175517342Y-82705865D01*
X175490135Y-82647520D01*
X175490134Y-82647518D01*
X175359657Y-82461179D01*
X175198820Y-82300342D01*
X175012482Y-82169865D01*
X174806328Y-82073734D01*
X174610000Y-82021127D01*
X174610000Y-82984314D01*
X174605606Y-82979920D01*
X174514394Y-82927259D01*
X174412661Y-82900000D01*
X174307339Y-82900000D01*
X174205606Y-82927259D01*
X174114394Y-82979920D01*
X174110000Y-82984314D01*
X174110000Y-82021127D01*
X173913671Y-82073734D01*
X173707517Y-82169865D01*
X173521179Y-82300342D01*
X173360342Y-82461179D01*
X173229865Y-82647517D01*
X173133734Y-82853673D01*
X173133730Y-82853682D01*
X173081127Y-83049999D01*
X162140499Y-83049999D01*
X162140499Y-82037128D01*
X162134091Y-81977517D01*
X162086920Y-81851047D01*
X162081937Y-81781357D01*
X162115422Y-81720034D01*
X162176745Y-81686549D01*
X162213908Y-81684187D01*
X162358599Y-81696845D01*
X162399999Y-81700468D01*
X162400000Y-81700468D01*
X162400002Y-81700468D01*
X162456673Y-81695509D01*
X162626692Y-81680635D01*
X162846496Y-81621739D01*
X163052734Y-81525568D01*
X163239139Y-81395047D01*
X163400047Y-81234139D01*
X163530568Y-81047734D01*
X163626739Y-80841496D01*
X163685635Y-80621692D01*
X163703274Y-80420080D01*
X163705468Y-80395001D01*
X163705468Y-80394998D01*
X163695452Y-80280518D01*
X163685635Y-80168308D01*
X163626739Y-79948504D01*
X163530568Y-79742266D01*
X163400047Y-79555861D01*
X163400045Y-79555858D01*
X163239141Y-79394954D01*
X163052734Y-79264432D01*
X163052728Y-79264429D01*
X162994725Y-79237382D01*
X162942285Y-79191210D01*
X162923133Y-79124017D01*
X162943348Y-79057135D01*
X162994725Y-79012618D01*
X163052734Y-78985568D01*
X163206465Y-78877924D01*
X163272671Y-78855598D01*
X163277588Y-78855500D01*
X164622412Y-78855500D01*
X164689451Y-78875185D01*
X164693523Y-78877917D01*
X164847266Y-78985568D01*
X164895039Y-79007845D01*
X164905275Y-79012618D01*
X164957714Y-79058791D01*
X164976866Y-79125984D01*
X164956650Y-79192865D01*
X164905275Y-79237382D01*
X164847267Y-79264431D01*
X164847265Y-79264432D01*
X164660858Y-79394954D01*
X164499954Y-79555858D01*
X164369432Y-79742265D01*
X164369431Y-79742267D01*
X164273261Y-79948502D01*
X164273258Y-79948511D01*
X164214366Y-80168302D01*
X164214364Y-80168313D01*
X164194532Y-80394998D01*
X164194532Y-80395001D01*
X164214364Y-80621686D01*
X164214366Y-80621697D01*
X164273258Y-80841488D01*
X164273261Y-80841497D01*
X164369431Y-81047732D01*
X164369432Y-81047734D01*
X164499954Y-81234141D01*
X164660858Y-81395045D01*
X164660861Y-81395047D01*
X164847266Y-81525568D01*
X165053504Y-81621739D01*
X165273308Y-81680635D01*
X165435230Y-81694801D01*
X165499998Y-81700468D01*
X165500000Y-81700468D01*
X165500002Y-81700468D01*
X165556673Y-81695509D01*
X165726692Y-81680635D01*
X165946496Y-81621739D01*
X166152734Y-81525568D01*
X166339139Y-81395047D01*
X166500047Y-81234139D01*
X166630568Y-81047734D01*
X166726739Y-80841496D01*
X166785635Y-80621692D01*
X166803274Y-80420080D01*
X166805468Y-80395001D01*
X166805468Y-80394998D01*
X166795452Y-80280518D01*
X166785635Y-80168308D01*
X166726739Y-79948504D01*
X166630568Y-79742266D01*
X166500047Y-79555861D01*
X166500045Y-79555858D01*
X166339141Y-79394954D01*
X166152734Y-79264432D01*
X166152728Y-79264429D01*
X166094725Y-79237382D01*
X166042285Y-79191210D01*
X166023133Y-79124017D01*
X166043348Y-79057135D01*
X166094725Y-79012618D01*
X166152734Y-78985568D01*
X166306465Y-78877924D01*
X166372671Y-78855598D01*
X166377588Y-78855500D01*
X166901459Y-78855500D01*
X167722412Y-78855500D01*
X167789451Y-78875185D01*
X167793523Y-78877917D01*
X167947266Y-78985568D01*
X167995039Y-79007845D01*
X168005275Y-79012618D01*
X168057714Y-79058791D01*
X168076866Y-79125984D01*
X168056650Y-79192865D01*
X168005275Y-79237382D01*
X167947267Y-79264431D01*
X167947265Y-79264432D01*
X167760858Y-79394954D01*
X167599954Y-79555858D01*
X167469432Y-79742265D01*
X167469431Y-79742267D01*
X167373261Y-79948502D01*
X167373258Y-79948511D01*
X167314366Y-80168302D01*
X167314364Y-80168313D01*
X167294532Y-80394998D01*
X167294532Y-80395001D01*
X167314364Y-80621686D01*
X167314366Y-80621697D01*
X167373258Y-80841488D01*
X167373261Y-80841497D01*
X167469431Y-81047732D01*
X167469432Y-81047734D01*
X167599954Y-81234141D01*
X167760858Y-81395045D01*
X167760861Y-81395047D01*
X167947266Y-81525568D01*
X168153504Y-81621739D01*
X168373308Y-81680635D01*
X168535230Y-81694801D01*
X168599998Y-81700468D01*
X168600000Y-81700468D01*
X168600002Y-81700468D01*
X168656673Y-81695509D01*
X168826692Y-81680635D01*
X169046496Y-81621739D01*
X169252734Y-81525568D01*
X169439139Y-81395047D01*
X169600047Y-81234139D01*
X169730568Y-81047734D01*
X169826739Y-80841496D01*
X169885635Y-80621692D01*
X169903274Y-80420080D01*
X169905468Y-80395001D01*
X169905468Y-80394998D01*
X169895452Y-80280518D01*
X169885635Y-80168308D01*
X169826739Y-79948504D01*
X169730568Y-79742266D01*
X169600047Y-79555861D01*
X169600045Y-79555858D01*
X169439141Y-79394954D01*
X169252734Y-79264432D01*
X169252728Y-79264429D01*
X169194725Y-79237382D01*
X169142285Y-79191210D01*
X169123133Y-79124017D01*
X169143348Y-79057135D01*
X169194725Y-79012618D01*
X169252734Y-78985568D01*
X169406465Y-78877924D01*
X169472671Y-78855598D01*
X169477588Y-78855500D01*
X170722412Y-78855500D01*
X170789451Y-78875185D01*
X170793523Y-78877917D01*
X170947266Y-78985568D01*
X170995039Y-79007845D01*
X171005275Y-79012618D01*
X171057714Y-79058791D01*
X171076866Y-79125984D01*
X171056650Y-79192865D01*
X171005275Y-79237382D01*
X170947267Y-79264431D01*
X170947265Y-79264432D01*
X170760858Y-79394954D01*
X170599954Y-79555858D01*
X170469432Y-79742265D01*
X170469431Y-79742267D01*
X170373261Y-79948502D01*
X170373258Y-79948511D01*
X170314366Y-80168302D01*
X170314364Y-80168313D01*
X170294532Y-80394998D01*
X170294532Y-80395001D01*
X170314364Y-80621686D01*
X170314366Y-80621697D01*
X170373258Y-80841488D01*
X170373261Y-80841497D01*
X170469431Y-81047732D01*
X170469432Y-81047734D01*
X170599954Y-81234141D01*
X170760858Y-81395045D01*
X170760861Y-81395047D01*
X170947266Y-81525568D01*
X171153504Y-81621739D01*
X171373308Y-81680635D01*
X171535230Y-81694801D01*
X171599998Y-81700468D01*
X171600000Y-81700468D01*
X171600002Y-81700468D01*
X171656673Y-81695509D01*
X171826692Y-81680635D01*
X172046496Y-81621739D01*
X172252734Y-81525568D01*
X172439139Y-81395047D01*
X172600047Y-81234139D01*
X172730568Y-81047734D01*
X172826739Y-80841496D01*
X172885635Y-80621692D01*
X172903274Y-80420080D01*
X172905468Y-80395001D01*
X172905468Y-80394998D01*
X172895452Y-80280518D01*
X172885635Y-80168308D01*
X172826739Y-79948504D01*
X172730568Y-79742266D01*
X172600047Y-79555861D01*
X172600045Y-79555858D01*
X172439141Y-79394954D01*
X172252734Y-79264432D01*
X172252728Y-79264429D01*
X172194725Y-79237382D01*
X172142285Y-79191210D01*
X172123133Y-79124017D01*
X172143348Y-79057135D01*
X172194725Y-79012618D01*
X172252734Y-78985568D01*
X172439139Y-78855047D01*
X172600047Y-78694139D01*
X172730568Y-78507734D01*
X172826739Y-78301496D01*
X172885635Y-78081692D01*
X172905468Y-77855000D01*
X172885635Y-77628308D01*
X172826739Y-77408504D01*
X172730568Y-77202266D01*
X172600047Y-77015861D01*
X172600045Y-77015858D01*
X172439141Y-76854954D01*
X172252734Y-76724432D01*
X172252732Y-76724431D01*
X172046497Y-76628261D01*
X172046488Y-76628258D01*
X171826697Y-76569366D01*
X171826693Y-76569365D01*
X171826692Y-76569365D01*
X171826691Y-76569364D01*
X171826686Y-76569364D01*
X171600002Y-76549532D01*
X171599998Y-76549532D01*
X171373313Y-76569364D01*
X171373302Y-76569366D01*
X171153511Y-76628258D01*
X171153502Y-76628261D01*
X170947267Y-76724431D01*
X170947265Y-76724432D01*
X170865034Y-76782011D01*
X170825873Y-76809432D01*
X170793535Y-76832075D01*
X170727329Y-76854402D01*
X170722412Y-76854500D01*
X169477588Y-76854500D01*
X169410549Y-76834815D01*
X169406465Y-76832075D01*
X169374127Y-76809432D01*
X169252734Y-76724432D01*
X169245252Y-76720943D01*
X169046497Y-76628261D01*
X169046488Y-76628258D01*
X168826697Y-76569366D01*
X168826693Y-76569365D01*
X168826692Y-76569365D01*
X168826691Y-76569364D01*
X168826686Y-76569364D01*
X168600002Y-76549532D01*
X168599998Y-76549532D01*
X168373313Y-76569364D01*
X168373302Y-76569366D01*
X168153511Y-76628258D01*
X168153502Y-76628261D01*
X167947267Y-76724431D01*
X167947265Y-76724432D01*
X167865034Y-76782011D01*
X167825873Y-76809432D01*
X167793535Y-76832075D01*
X167727329Y-76854402D01*
X167722412Y-76854500D01*
X166377588Y-76854500D01*
X166310549Y-76834815D01*
X166306465Y-76832075D01*
X166274127Y-76809432D01*
X166152734Y-76724432D01*
X166145252Y-76720943D01*
X165946497Y-76628261D01*
X165946488Y-76628258D01*
X165726697Y-76569366D01*
X165726693Y-76569365D01*
X165726692Y-76569365D01*
X165726691Y-76569364D01*
X165726686Y-76569364D01*
X165500002Y-76549532D01*
X165499998Y-76549532D01*
X165273313Y-76569364D01*
X165273302Y-76569366D01*
X165053511Y-76628258D01*
X165053502Y-76628261D01*
X164847267Y-76724431D01*
X164847265Y-76724432D01*
X164765034Y-76782011D01*
X164725873Y-76809432D01*
X164693535Y-76832075D01*
X164627329Y-76854402D01*
X164622412Y-76854500D01*
X163277588Y-76854500D01*
X163210549Y-76834815D01*
X163206465Y-76832075D01*
X163174127Y-76809432D01*
X163052734Y-76724432D01*
X163045252Y-76720943D01*
X162846497Y-76628261D01*
X162846488Y-76628258D01*
X162626697Y-76569366D01*
X162626693Y-76569365D01*
X162626692Y-76569365D01*
X162626691Y-76569364D01*
X162626686Y-76569364D01*
X162400002Y-76549532D01*
X162399998Y-76549532D01*
X162173313Y-76569364D01*
X162173302Y-76569366D01*
X161953511Y-76628258D01*
X161953502Y-76628261D01*
X161747267Y-76724431D01*
X161747265Y-76724432D01*
X161665034Y-76782011D01*
X161625873Y-76809432D01*
X161593535Y-76832075D01*
X161527329Y-76854402D01*
X161522412Y-76854500D01*
X148444500Y-76854500D01*
X148377461Y-76834815D01*
X148331706Y-76782011D01*
X148320500Y-76730500D01*
X148320500Y-75419303D01*
X148324700Y-75404998D01*
X177294532Y-75404998D01*
X177294532Y-75405001D01*
X177314364Y-75631686D01*
X177314366Y-75631697D01*
X177373258Y-75851488D01*
X177373261Y-75851497D01*
X177469431Y-76057732D01*
X177469432Y-76057734D01*
X177599954Y-76244141D01*
X177760858Y-76405045D01*
X177760861Y-76405047D01*
X177947266Y-76535568D01*
X178005275Y-76562618D01*
X178057714Y-76608791D01*
X178076866Y-76675984D01*
X178056650Y-76742865D01*
X178005275Y-76787382D01*
X177947267Y-76814431D01*
X177947265Y-76814432D01*
X177760858Y-76944954D01*
X177599954Y-77105858D01*
X177469432Y-77292265D01*
X177469431Y-77292267D01*
X177373261Y-77498502D01*
X177373258Y-77498511D01*
X177314366Y-77718302D01*
X177314364Y-77718313D01*
X177294532Y-77944998D01*
X177294532Y-77945001D01*
X177314364Y-78171686D01*
X177314366Y-78171697D01*
X177373258Y-78391488D01*
X177373261Y-78391497D01*
X177469431Y-78597732D01*
X177469432Y-78597734D01*
X177599954Y-78784141D01*
X177760858Y-78945045D01*
X177760861Y-78945047D01*
X177947266Y-79075568D01*
X178153504Y-79171739D01*
X178153509Y-79171740D01*
X178153511Y-79171741D01*
X178206415Y-79185916D01*
X178373308Y-79230635D01*
X178535230Y-79244801D01*
X178599998Y-79250468D01*
X178600000Y-79250468D01*
X178600002Y-79250468D01*
X178657150Y-79245468D01*
X178826692Y-79230635D01*
X179046496Y-79171739D01*
X179252734Y-79075568D01*
X179439139Y-78945047D01*
X179600047Y-78784139D01*
X179730568Y-78597734D01*
X179826739Y-78391496D01*
X179885635Y-78171692D01*
X179903265Y-77970184D01*
X179905468Y-77945001D01*
X179905468Y-77944998D01*
X179896661Y-77844334D01*
X179885635Y-77718308D01*
X179826739Y-77498504D01*
X179730568Y-77292266D01*
X179600047Y-77105861D01*
X179600045Y-77105858D01*
X179439141Y-76944954D01*
X179252734Y-76814432D01*
X179252728Y-76814429D01*
X179194725Y-76787382D01*
X179142285Y-76741210D01*
X179123133Y-76674017D01*
X179143348Y-76607135D01*
X179194725Y-76562618D01*
X179252734Y-76535568D01*
X179439139Y-76405047D01*
X179600047Y-76244139D01*
X179730568Y-76057734D01*
X179826739Y-75851496D01*
X179885635Y-75631692D01*
X179905468Y-75405000D01*
X179905112Y-75400935D01*
X179905030Y-75399998D01*
X182294532Y-75399998D01*
X182294532Y-75400001D01*
X182314364Y-75626686D01*
X182314366Y-75626697D01*
X182373258Y-75846488D01*
X182373261Y-75846497D01*
X182469431Y-76052732D01*
X182469432Y-76052734D01*
X182599954Y-76239141D01*
X182760858Y-76400045D01*
X182760861Y-76400047D01*
X182947266Y-76530568D01*
X183005275Y-76557618D01*
X183057714Y-76603791D01*
X183076866Y-76670984D01*
X183056650Y-76737865D01*
X183005275Y-76782382D01*
X182947267Y-76809431D01*
X182947265Y-76809432D01*
X182760858Y-76939954D01*
X182599954Y-77100858D01*
X182469432Y-77287265D01*
X182469431Y-77287267D01*
X182373261Y-77493502D01*
X182373258Y-77493511D01*
X182314366Y-77713302D01*
X182314364Y-77713313D01*
X182294532Y-77939998D01*
X182294532Y-77940001D01*
X182314364Y-78166686D01*
X182314366Y-78166697D01*
X182373258Y-78386488D01*
X182373261Y-78386497D01*
X182469431Y-78592732D01*
X182469432Y-78592734D01*
X182599954Y-78779141D01*
X182760858Y-78940045D01*
X182760861Y-78940047D01*
X182947266Y-79070568D01*
X183153504Y-79166739D01*
X183153509Y-79166740D01*
X183153511Y-79166741D01*
X183172164Y-79171739D01*
X183373308Y-79225635D01*
X183535230Y-79239801D01*
X183599998Y-79245468D01*
X183600000Y-79245468D01*
X183600002Y-79245468D01*
X183656673Y-79240509D01*
X183826692Y-79225635D01*
X184046496Y-79166739D01*
X184252734Y-79070568D01*
X184439139Y-78940047D01*
X184600047Y-78779139D01*
X184730568Y-78592734D01*
X184826739Y-78386496D01*
X184885635Y-78166692D01*
X184904180Y-77954723D01*
X184905468Y-77940001D01*
X184905468Y-77939998D01*
X184899712Y-77874211D01*
X184885635Y-77713308D01*
X184828078Y-77498502D01*
X184826741Y-77493511D01*
X184826738Y-77493502D01*
X184730568Y-77287266D01*
X184600047Y-77100861D01*
X184600045Y-77100858D01*
X184439141Y-76939954D01*
X184252734Y-76809432D01*
X184252728Y-76809429D01*
X184194725Y-76782382D01*
X184142285Y-76736210D01*
X184123133Y-76669017D01*
X184143348Y-76602135D01*
X184194725Y-76557618D01*
X184252734Y-76530568D01*
X184439139Y-76400047D01*
X184600047Y-76239139D01*
X184730568Y-76052734D01*
X184826739Y-75846496D01*
X184885635Y-75626692D01*
X184904612Y-75409781D01*
X184905468Y-75400001D01*
X184905468Y-75399998D01*
X187394532Y-75399998D01*
X187394532Y-75400001D01*
X187414364Y-75626686D01*
X187414366Y-75626697D01*
X187473258Y-75846488D01*
X187473261Y-75846497D01*
X187569431Y-76052732D01*
X187569432Y-76052734D01*
X187699954Y-76239141D01*
X187860858Y-76400045D01*
X187860861Y-76400047D01*
X188047266Y-76530568D01*
X188105275Y-76557618D01*
X188157714Y-76603791D01*
X188176866Y-76670984D01*
X188156650Y-76737865D01*
X188105275Y-76782382D01*
X188047267Y-76809431D01*
X188047265Y-76809432D01*
X187860858Y-76939954D01*
X187699954Y-77100858D01*
X187569432Y-77287265D01*
X187569431Y-77287267D01*
X187473261Y-77493502D01*
X187473258Y-77493511D01*
X187414366Y-77713302D01*
X187414364Y-77713313D01*
X187394532Y-77939998D01*
X187394532Y-77940001D01*
X187414364Y-78166686D01*
X187414366Y-78166697D01*
X187473258Y-78386488D01*
X187473261Y-78386497D01*
X187569431Y-78592732D01*
X187569432Y-78592734D01*
X187699954Y-78779141D01*
X187860858Y-78940045D01*
X187860861Y-78940047D01*
X188047266Y-79070568D01*
X188253504Y-79166739D01*
X188253509Y-79166740D01*
X188253511Y-79166741D01*
X188272164Y-79171739D01*
X188473308Y-79225635D01*
X188635230Y-79239801D01*
X188699998Y-79245468D01*
X188700000Y-79245468D01*
X188700002Y-79245468D01*
X188756673Y-79240509D01*
X188926692Y-79225635D01*
X189146496Y-79166739D01*
X189352734Y-79070568D01*
X189539139Y-78940047D01*
X189700047Y-78779139D01*
X189830568Y-78592734D01*
X189926739Y-78386496D01*
X189985635Y-78166692D01*
X190004180Y-77954723D01*
X190005468Y-77940001D01*
X190005468Y-77939998D01*
X189999712Y-77874211D01*
X189985635Y-77713308D01*
X189928078Y-77498502D01*
X189926741Y-77493511D01*
X189926738Y-77493502D01*
X189830568Y-77287266D01*
X189700047Y-77100861D01*
X189700045Y-77100858D01*
X189539141Y-76939954D01*
X189352734Y-76809432D01*
X189352728Y-76809429D01*
X189294725Y-76782382D01*
X189242285Y-76736210D01*
X189223133Y-76669017D01*
X189243348Y-76602135D01*
X189294725Y-76557618D01*
X189352734Y-76530568D01*
X189539139Y-76400047D01*
X189700047Y-76239139D01*
X189830568Y-76052734D01*
X189926739Y-75846496D01*
X189985635Y-75626692D01*
X190004612Y-75409781D01*
X190005468Y-75400001D01*
X190005468Y-75399998D01*
X190694532Y-75399998D01*
X190694532Y-75400001D01*
X190714364Y-75626686D01*
X190714366Y-75626697D01*
X190773258Y-75846488D01*
X190773261Y-75846497D01*
X190869431Y-76052732D01*
X190869432Y-76052734D01*
X190999954Y-76239141D01*
X191160858Y-76400045D01*
X191160861Y-76400047D01*
X191347266Y-76530568D01*
X191405275Y-76557618D01*
X191457714Y-76603791D01*
X191476866Y-76670984D01*
X191456650Y-76737865D01*
X191405275Y-76782382D01*
X191347267Y-76809431D01*
X191347265Y-76809432D01*
X191160858Y-76939954D01*
X190999954Y-77100858D01*
X190869432Y-77287265D01*
X190869431Y-77287267D01*
X190773261Y-77493502D01*
X190773258Y-77493511D01*
X190714366Y-77713302D01*
X190714364Y-77713313D01*
X190694532Y-77939998D01*
X190694532Y-77940001D01*
X190714364Y-78166686D01*
X190714366Y-78166697D01*
X190773258Y-78386488D01*
X190773261Y-78386497D01*
X190869431Y-78592732D01*
X190869432Y-78592734D01*
X190999954Y-78779141D01*
X191160858Y-78940045D01*
X191160861Y-78940047D01*
X191347266Y-79070568D01*
X191553504Y-79166739D01*
X191553509Y-79166740D01*
X191553511Y-79166741D01*
X191572164Y-79171739D01*
X191773308Y-79225635D01*
X191935230Y-79239801D01*
X191999998Y-79245468D01*
X192000000Y-79245468D01*
X192000002Y-79245468D01*
X192056673Y-79240509D01*
X192226692Y-79225635D01*
X192446496Y-79166739D01*
X192652734Y-79070568D01*
X192839139Y-78940047D01*
X193000047Y-78779139D01*
X193130568Y-78592734D01*
X193226739Y-78386496D01*
X193285635Y-78166692D01*
X193304180Y-77954723D01*
X193305468Y-77940001D01*
X193305468Y-77939998D01*
X193299712Y-77874211D01*
X193285635Y-77713308D01*
X193228078Y-77498502D01*
X193226741Y-77493511D01*
X193226738Y-77493502D01*
X193130568Y-77287266D01*
X193000047Y-77100861D01*
X193000045Y-77100858D01*
X192839141Y-76939954D01*
X192652734Y-76809432D01*
X192652728Y-76809429D01*
X192594725Y-76782382D01*
X192542285Y-76736210D01*
X192523133Y-76669017D01*
X192543348Y-76602135D01*
X192594725Y-76557618D01*
X192652734Y-76530568D01*
X192839139Y-76400047D01*
X193000047Y-76239139D01*
X193130568Y-76052734D01*
X193226739Y-75846496D01*
X193285635Y-75626692D01*
X193304612Y-75409781D01*
X193305468Y-75400001D01*
X193305468Y-75399998D01*
X193291802Y-75243796D01*
X193285635Y-75173308D01*
X193226739Y-74953504D01*
X193130568Y-74747266D01*
X193000047Y-74560861D01*
X193000045Y-74560858D01*
X192839141Y-74399954D01*
X192652734Y-74269432D01*
X192652732Y-74269431D01*
X192446497Y-74173261D01*
X192446488Y-74173258D01*
X192226697Y-74114366D01*
X192226693Y-74114365D01*
X192226692Y-74114365D01*
X192226691Y-74114364D01*
X192226686Y-74114364D01*
X192000002Y-74094532D01*
X191999998Y-74094532D01*
X191773313Y-74114364D01*
X191773302Y-74114366D01*
X191553511Y-74173258D01*
X191553502Y-74173261D01*
X191347267Y-74269431D01*
X191347265Y-74269432D01*
X191160858Y-74399954D01*
X190999954Y-74560858D01*
X190869432Y-74747265D01*
X190869431Y-74747267D01*
X190773261Y-74953502D01*
X190773258Y-74953511D01*
X190714366Y-75173302D01*
X190714364Y-75173313D01*
X190694532Y-75399998D01*
X190005468Y-75399998D01*
X189991802Y-75243796D01*
X189985635Y-75173308D01*
X189926739Y-74953504D01*
X189830568Y-74747266D01*
X189700047Y-74560861D01*
X189700045Y-74560858D01*
X189539141Y-74399954D01*
X189352734Y-74269432D01*
X189352732Y-74269431D01*
X189146497Y-74173261D01*
X189146488Y-74173258D01*
X188926697Y-74114366D01*
X188926693Y-74114365D01*
X188926692Y-74114365D01*
X188926691Y-74114364D01*
X188926686Y-74114364D01*
X188700002Y-74094532D01*
X188699998Y-74094532D01*
X188473313Y-74114364D01*
X188473302Y-74114366D01*
X188253511Y-74173258D01*
X188253502Y-74173261D01*
X188047267Y-74269431D01*
X188047265Y-74269432D01*
X187860858Y-74399954D01*
X187699954Y-74560858D01*
X187569432Y-74747265D01*
X187569431Y-74747267D01*
X187473261Y-74953502D01*
X187473258Y-74953511D01*
X187414366Y-75173302D01*
X187414364Y-75173313D01*
X187394532Y-75399998D01*
X184905468Y-75399998D01*
X184891802Y-75243796D01*
X184885635Y-75173308D01*
X184826739Y-74953504D01*
X184730568Y-74747266D01*
X184600047Y-74560861D01*
X184600045Y-74560858D01*
X184439141Y-74399954D01*
X184252734Y-74269432D01*
X184252732Y-74269431D01*
X184046497Y-74173261D01*
X184046488Y-74173258D01*
X183826697Y-74114366D01*
X183826693Y-74114365D01*
X183826692Y-74114365D01*
X183826691Y-74114364D01*
X183826686Y-74114364D01*
X183600002Y-74094532D01*
X183599998Y-74094532D01*
X183373313Y-74114364D01*
X183373302Y-74114366D01*
X183153511Y-74173258D01*
X183153502Y-74173261D01*
X182947267Y-74269431D01*
X182947265Y-74269432D01*
X182760858Y-74399954D01*
X182599954Y-74560858D01*
X182469432Y-74747265D01*
X182469431Y-74747267D01*
X182373261Y-74953502D01*
X182373258Y-74953511D01*
X182314366Y-75173302D01*
X182314364Y-75173313D01*
X182294532Y-75399998D01*
X179905030Y-75399998D01*
X179897125Y-75309635D01*
X179885635Y-75178308D01*
X179826739Y-74958504D01*
X179730568Y-74752266D01*
X179600047Y-74565861D01*
X179600045Y-74565858D01*
X179439141Y-74404954D01*
X179252734Y-74274432D01*
X179252732Y-74274431D01*
X179046497Y-74178261D01*
X179046488Y-74178258D01*
X178826697Y-74119366D01*
X178826693Y-74119365D01*
X178826692Y-74119365D01*
X178826691Y-74119364D01*
X178826686Y-74119364D01*
X178600002Y-74099532D01*
X178599998Y-74099532D01*
X178373313Y-74119364D01*
X178373302Y-74119366D01*
X178153511Y-74178258D01*
X178153502Y-74178261D01*
X177947267Y-74274431D01*
X177947265Y-74274432D01*
X177760858Y-74404954D01*
X177599954Y-74565858D01*
X177469432Y-74752265D01*
X177469431Y-74752267D01*
X177373261Y-74958502D01*
X177373258Y-74958511D01*
X177314366Y-75178302D01*
X177314364Y-75178313D01*
X177294532Y-75404998D01*
X148324700Y-75404998D01*
X148340185Y-75352264D01*
X148392989Y-75306509D01*
X148457754Y-75296014D01*
X148499476Y-75300500D01*
X150195221Y-75300499D01*
X150254832Y-75294091D01*
X150389680Y-75243796D01*
X150504895Y-75157546D01*
X150591145Y-75042331D01*
X150641440Y-74907483D01*
X150647849Y-74847873D01*
X150647848Y-73999997D01*
X151542383Y-73999997D01*
X151542383Y-74000002D01*
X151562207Y-74226599D01*
X151562209Y-74226610D01*
X151621079Y-74446317D01*
X151621084Y-74446331D01*
X151717212Y-74652478D01*
X151768323Y-74725472D01*
X152447349Y-74046446D01*
X152447349Y-74052661D01*
X152474608Y-74154394D01*
X152527269Y-74245606D01*
X152601743Y-74320080D01*
X152692955Y-74372741D01*
X152794688Y-74400000D01*
X152800902Y-74400000D01*
X152121875Y-75079025D01*
X152194862Y-75130132D01*
X152194870Y-75130136D01*
X152401017Y-75226264D01*
X152401031Y-75226269D01*
X152620738Y-75285139D01*
X152620749Y-75285141D01*
X152847347Y-75304966D01*
X152847351Y-75304966D01*
X153073948Y-75285141D01*
X153073959Y-75285139D01*
X153293666Y-75226269D01*
X153293680Y-75226264D01*
X153499827Y-75130136D01*
X153572820Y-75079024D01*
X152893796Y-74400000D01*
X152900010Y-74400000D01*
X153001743Y-74372741D01*
X153092955Y-74320080D01*
X153167429Y-74245606D01*
X153220090Y-74154394D01*
X153247349Y-74052661D01*
X153247349Y-74046447D01*
X153926373Y-74725471D01*
X153977485Y-74652478D01*
X154073613Y-74446331D01*
X154073618Y-74446317D01*
X154132488Y-74226610D01*
X154132490Y-74226599D01*
X154152315Y-74000002D01*
X154152315Y-73999997D01*
X154132490Y-73773400D01*
X154132488Y-73773389D01*
X154073618Y-73553682D01*
X154073613Y-73553668D01*
X153977485Y-73347521D01*
X153977481Y-73347513D01*
X153926374Y-73274526D01*
X153247349Y-73953551D01*
X153247349Y-73947339D01*
X153220090Y-73845606D01*
X153167429Y-73754394D01*
X153092955Y-73679920D01*
X153001743Y-73627259D01*
X152900010Y-73600000D01*
X152893797Y-73600000D01*
X153572821Y-72920974D01*
X153499827Y-72869863D01*
X153293680Y-72773735D01*
X153293666Y-72773730D01*
X153073959Y-72714860D01*
X153073948Y-72714858D01*
X152847351Y-72695034D01*
X152847347Y-72695034D01*
X152620749Y-72714858D01*
X152620738Y-72714860D01*
X152401031Y-72773730D01*
X152401022Y-72773734D01*
X152194865Y-72869866D01*
X152194861Y-72869868D01*
X152121875Y-72920973D01*
X152121875Y-72920974D01*
X152800902Y-73600000D01*
X152794688Y-73600000D01*
X152692955Y-73627259D01*
X152601743Y-73679920D01*
X152527269Y-73754394D01*
X152474608Y-73845606D01*
X152447349Y-73947339D01*
X152447349Y-73953552D01*
X151768323Y-73274526D01*
X151768322Y-73274526D01*
X151717217Y-73347512D01*
X151717215Y-73347516D01*
X151621083Y-73553673D01*
X151621079Y-73553682D01*
X151562209Y-73773389D01*
X151562207Y-73773400D01*
X151542383Y-73999997D01*
X150647848Y-73999997D01*
X150647848Y-73152128D01*
X150641440Y-73092517D01*
X150636702Y-73079815D01*
X150591146Y-72957671D01*
X150591142Y-72957664D01*
X150504896Y-72842455D01*
X150504893Y-72842452D01*
X150389684Y-72756206D01*
X150389677Y-72756202D01*
X150254831Y-72705908D01*
X150254832Y-72705908D01*
X150195232Y-72699501D01*
X150195230Y-72699500D01*
X150195222Y-72699500D01*
X150195213Y-72699500D01*
X148499478Y-72699500D01*
X148499472Y-72699501D01*
X148439865Y-72705908D01*
X148305020Y-72756202D01*
X148305013Y-72756206D01*
X148189805Y-72842452D01*
X148189804Y-72842453D01*
X148189803Y-72842454D01*
X148131024Y-72920973D01*
X148109436Y-72949811D01*
X148053502Y-72991682D01*
X148010169Y-72999500D01*
X147721455Y-72999500D01*
X147624812Y-73018724D01*
X147528167Y-73037947D01*
X147528161Y-73037949D01*
X147474834Y-73060037D01*
X147474834Y-73060038D01*
X147409948Y-73086915D01*
X147402354Y-73090061D01*
X147354901Y-73099500D01*
X131065782Y-73099500D01*
X130998743Y-73079815D01*
X130978101Y-73063181D01*
X129642819Y-71727899D01*
X129609334Y-71666576D01*
X129606500Y-71640218D01*
X129606500Y-71199996D01*
X130494435Y-71199996D01*
X130494435Y-71200003D01*
X130514630Y-71379249D01*
X130514631Y-71379254D01*
X130574211Y-71549523D01*
X130631199Y-71640218D01*
X130670184Y-71702262D01*
X130797738Y-71829816D01*
X130950478Y-71925789D01*
X130986470Y-71938383D01*
X131120745Y-71985368D01*
X131120750Y-71985369D01*
X131299996Y-72005565D01*
X131300000Y-72005565D01*
X131300002Y-72005565D01*
X131343511Y-72000662D01*
X131369395Y-71997746D01*
X131438217Y-72009800D01*
X131489596Y-72057149D01*
X131506499Y-72107082D01*
X131514630Y-72179250D01*
X131514631Y-72179254D01*
X131574211Y-72349523D01*
X131670184Y-72502262D01*
X131797738Y-72629816D01*
X131888080Y-72686582D01*
X131933084Y-72714860D01*
X131950478Y-72725789D01*
X132037399Y-72756204D01*
X132120745Y-72785368D01*
X132120750Y-72785369D01*
X132299996Y-72805565D01*
X132300000Y-72805565D01*
X132300004Y-72805565D01*
X132479249Y-72785369D01*
X132479252Y-72785368D01*
X132479255Y-72785368D01*
X132649522Y-72725789D01*
X132802262Y-72629816D01*
X132802267Y-72629810D01*
X132805097Y-72627555D01*
X132807275Y-72626665D01*
X132808158Y-72626111D01*
X132808255Y-72626265D01*
X132869783Y-72601145D01*
X132882412Y-72600500D01*
X138023588Y-72600500D01*
X138090627Y-72620185D01*
X138100903Y-72627555D01*
X138103736Y-72629814D01*
X138103738Y-72629816D01*
X138207532Y-72695034D01*
X138239084Y-72714860D01*
X138256478Y-72725789D01*
X138343399Y-72756204D01*
X138426745Y-72785368D01*
X138426750Y-72785369D01*
X138605996Y-72805565D01*
X138606000Y-72805565D01*
X138606004Y-72805565D01*
X138785249Y-72785369D01*
X138785252Y-72785368D01*
X138785255Y-72785368D01*
X138955522Y-72725789D01*
X139108262Y-72629816D01*
X139235816Y-72502262D01*
X139331789Y-72349522D01*
X139391368Y-72179255D01*
X139411565Y-72000000D01*
X139411311Y-71997746D01*
X139404623Y-71938383D01*
X139416678Y-71869561D01*
X139464027Y-71818182D01*
X139527843Y-71800500D01*
X143023588Y-71800500D01*
X143090627Y-71820185D01*
X143100903Y-71827555D01*
X143103736Y-71829814D01*
X143103738Y-71829816D01*
X143256478Y-71925789D01*
X143292470Y-71938383D01*
X143426745Y-71985368D01*
X143426750Y-71985369D01*
X143605996Y-72005565D01*
X143606000Y-72005565D01*
X143606004Y-72005565D01*
X143785249Y-71985369D01*
X143785252Y-71985368D01*
X143785255Y-71985368D01*
X143955522Y-71925789D01*
X144108262Y-71829816D01*
X144235816Y-71702262D01*
X144331789Y-71549522D01*
X144391368Y-71379255D01*
X144411565Y-71200000D01*
X144391368Y-71020745D01*
X144331789Y-70850478D01*
X144235816Y-70697738D01*
X144108262Y-70570184D01*
X143955523Y-70474211D01*
X143785254Y-70414631D01*
X143785249Y-70414630D01*
X143606004Y-70394435D01*
X143605996Y-70394435D01*
X143426750Y-70414630D01*
X143426745Y-70414631D01*
X143256476Y-70474211D01*
X143103736Y-70570185D01*
X143100903Y-70572445D01*
X143098724Y-70573334D01*
X143097842Y-70573889D01*
X143097744Y-70573734D01*
X143036217Y-70598855D01*
X143023588Y-70599500D01*
X131882412Y-70599500D01*
X131815373Y-70579815D01*
X131805097Y-70572445D01*
X131802263Y-70570185D01*
X131802262Y-70570184D01*
X131745496Y-70534515D01*
X131649523Y-70474211D01*
X131479254Y-70414631D01*
X131479249Y-70414630D01*
X131300004Y-70394435D01*
X131299996Y-70394435D01*
X131120750Y-70414630D01*
X131120745Y-70414631D01*
X130950476Y-70474211D01*
X130797737Y-70570184D01*
X130670184Y-70697737D01*
X130574211Y-70850476D01*
X130514631Y-71020745D01*
X130514630Y-71020750D01*
X130494435Y-71199996D01*
X129606500Y-71199996D01*
X129606500Y-69887559D01*
X129626185Y-69820520D01*
X129660648Y-69785106D01*
X129692041Y-69763702D01*
X129731741Y-69736635D01*
X129929561Y-69553085D01*
X130097815Y-69342102D01*
X130232743Y-69108398D01*
X130331334Y-68857195D01*
X130391383Y-68594103D01*
X130411549Y-68325000D01*
X130411549Y-68324995D01*
X131800451Y-68324995D01*
X131800451Y-68325004D01*
X131820616Y-68594101D01*
X131880664Y-68857188D01*
X131880666Y-68857195D01*
X131926901Y-68975000D01*
X131979257Y-69108398D01*
X132114185Y-69342102D01*
X132167655Y-69409151D01*
X132282442Y-69553089D01*
X132469183Y-69726358D01*
X132480259Y-69736635D01*
X132703226Y-69888651D01*
X132946359Y-70005738D01*
X133204228Y-70085280D01*
X133204229Y-70085280D01*
X133204232Y-70085281D01*
X133471063Y-70125499D01*
X133471068Y-70125499D01*
X133471071Y-70125500D01*
X133471072Y-70125500D01*
X133740928Y-70125500D01*
X133740929Y-70125500D01*
X133740936Y-70125499D01*
X134007767Y-70085281D01*
X134007768Y-70085280D01*
X134007772Y-70085280D01*
X134265641Y-70005738D01*
X134508775Y-69888651D01*
X134731741Y-69736635D01*
X134929561Y-69553085D01*
X135097815Y-69342102D01*
X135232743Y-69108398D01*
X135331334Y-68857195D01*
X135391383Y-68594103D01*
X135411549Y-68325000D01*
X135411549Y-68324995D01*
X136800451Y-68324995D01*
X136800451Y-68325004D01*
X136820616Y-68594101D01*
X136880664Y-68857188D01*
X136880666Y-68857195D01*
X136926901Y-68975000D01*
X136979257Y-69108398D01*
X137114185Y-69342102D01*
X137167655Y-69409151D01*
X137282442Y-69553089D01*
X137469183Y-69726358D01*
X137480259Y-69736635D01*
X137703226Y-69888651D01*
X137946359Y-70005738D01*
X138204228Y-70085280D01*
X138204229Y-70085280D01*
X138204232Y-70085281D01*
X138471063Y-70125499D01*
X138471068Y-70125499D01*
X138471071Y-70125500D01*
X138471072Y-70125500D01*
X138740928Y-70125500D01*
X138740929Y-70125500D01*
X138740936Y-70125499D01*
X139007767Y-70085281D01*
X139007768Y-70085280D01*
X139007772Y-70085280D01*
X139265641Y-70005738D01*
X139508775Y-69888651D01*
X139731741Y-69736635D01*
X139929561Y-69553085D01*
X140097815Y-69342102D01*
X140232743Y-69108398D01*
X140331334Y-68857195D01*
X140391383Y-68594103D01*
X140411549Y-68325000D01*
X140391383Y-68055897D01*
X140331334Y-67792805D01*
X140232743Y-67541602D01*
X140097815Y-67307898D01*
X139929561Y-67096915D01*
X139929560Y-67096914D01*
X139929557Y-67096910D01*
X139800469Y-66977135D01*
X141805500Y-66977135D01*
X141805500Y-69672870D01*
X141805501Y-69672876D01*
X141811908Y-69732483D01*
X141862202Y-69867328D01*
X141862206Y-69867335D01*
X141948452Y-69982544D01*
X141948455Y-69982547D01*
X142063664Y-70068793D01*
X142063671Y-70068797D01*
X142198517Y-70119091D01*
X142198516Y-70119091D01*
X142205444Y-70119835D01*
X142258127Y-70125500D01*
X144953872Y-70125499D01*
X145013483Y-70119091D01*
X145148331Y-70068796D01*
X145263546Y-69982546D01*
X145349796Y-69867331D01*
X145400091Y-69732483D01*
X145406500Y-69672873D01*
X145406499Y-68324995D01*
X156800451Y-68324995D01*
X156800451Y-68325004D01*
X156820616Y-68594101D01*
X156880664Y-68857188D01*
X156880666Y-68857195D01*
X156926901Y-68975000D01*
X156979257Y-69108398D01*
X157114185Y-69342102D01*
X157167655Y-69409151D01*
X157282442Y-69553089D01*
X157469183Y-69726358D01*
X157480259Y-69736635D01*
X157703226Y-69888651D01*
X157946359Y-70005738D01*
X158204228Y-70085280D01*
X158204229Y-70085280D01*
X158204232Y-70085281D01*
X158471063Y-70125499D01*
X158471068Y-70125499D01*
X158471071Y-70125500D01*
X158471072Y-70125500D01*
X158740928Y-70125500D01*
X158740929Y-70125500D01*
X158740936Y-70125499D01*
X159007767Y-70085281D01*
X159007768Y-70085280D01*
X159007772Y-70085280D01*
X159265641Y-70005738D01*
X159508775Y-69888651D01*
X159731741Y-69736635D01*
X159929561Y-69553085D01*
X160097815Y-69342102D01*
X160232743Y-69108398D01*
X160331334Y-68857195D01*
X160391383Y-68594103D01*
X160411549Y-68325000D01*
X160411549Y-68324995D01*
X161800451Y-68324995D01*
X161800451Y-68325004D01*
X161820616Y-68594101D01*
X161880664Y-68857188D01*
X161880666Y-68857195D01*
X161926901Y-68975000D01*
X161979257Y-69108398D01*
X162114185Y-69342102D01*
X162167655Y-69409151D01*
X162282442Y-69553089D01*
X162469183Y-69726358D01*
X162480259Y-69736635D01*
X162703226Y-69888651D01*
X162946359Y-70005738D01*
X163204228Y-70085280D01*
X163204229Y-70085280D01*
X163204232Y-70085281D01*
X163471063Y-70125499D01*
X163471068Y-70125499D01*
X163471071Y-70125500D01*
X163471072Y-70125500D01*
X163740928Y-70125500D01*
X163740929Y-70125500D01*
X163740936Y-70125499D01*
X164007767Y-70085281D01*
X164007768Y-70085280D01*
X164007772Y-70085280D01*
X164265641Y-70005738D01*
X164508775Y-69888651D01*
X164731741Y-69736635D01*
X164929561Y-69553085D01*
X165097815Y-69342102D01*
X165232743Y-69108398D01*
X165331334Y-68857195D01*
X165391383Y-68594103D01*
X165411549Y-68325000D01*
X165411549Y-68324995D01*
X166800451Y-68324995D01*
X166800451Y-68325004D01*
X166820616Y-68594101D01*
X166880664Y-68857188D01*
X166880666Y-68857195D01*
X166926901Y-68975000D01*
X166979257Y-69108398D01*
X167114185Y-69342102D01*
X167167655Y-69409151D01*
X167282442Y-69553089D01*
X167469183Y-69726358D01*
X167480259Y-69736635D01*
X167703226Y-69888651D01*
X167946359Y-70005738D01*
X168204228Y-70085280D01*
X168204229Y-70085280D01*
X168204232Y-70085281D01*
X168471063Y-70125499D01*
X168471068Y-70125499D01*
X168471071Y-70125500D01*
X168471072Y-70125500D01*
X168740928Y-70125500D01*
X168740929Y-70125500D01*
X168740936Y-70125499D01*
X169007767Y-70085281D01*
X169007768Y-70085280D01*
X169007772Y-70085280D01*
X169265641Y-70005738D01*
X169508775Y-69888651D01*
X169731741Y-69736635D01*
X169929561Y-69553085D01*
X170097815Y-69342102D01*
X170232743Y-69108398D01*
X170331334Y-68857195D01*
X170391383Y-68594103D01*
X170411549Y-68325000D01*
X170411549Y-68324995D01*
X171800451Y-68324995D01*
X171800451Y-68325004D01*
X171820616Y-68594101D01*
X171880664Y-68857188D01*
X171880666Y-68857195D01*
X171926901Y-68975000D01*
X171979257Y-69108398D01*
X172114185Y-69342102D01*
X172167655Y-69409151D01*
X172282442Y-69553089D01*
X172469183Y-69726358D01*
X172480259Y-69736635D01*
X172703226Y-69888651D01*
X172946359Y-70005738D01*
X173204228Y-70085280D01*
X173204229Y-70085280D01*
X173204232Y-70085281D01*
X173471063Y-70125499D01*
X173471068Y-70125499D01*
X173471071Y-70125500D01*
X173471072Y-70125500D01*
X173740928Y-70125500D01*
X173740929Y-70125500D01*
X173740936Y-70125499D01*
X174007767Y-70085281D01*
X174007768Y-70085280D01*
X174007772Y-70085280D01*
X174265641Y-70005738D01*
X174508775Y-69888651D01*
X174731741Y-69736635D01*
X174929561Y-69553085D01*
X175097815Y-69342102D01*
X175232743Y-69108398D01*
X175331334Y-68857195D01*
X175391383Y-68594103D01*
X175411549Y-68325000D01*
X175411549Y-68324995D01*
X176800451Y-68324995D01*
X176800451Y-68325004D01*
X176820616Y-68594101D01*
X176880664Y-68857188D01*
X176880666Y-68857195D01*
X176926901Y-68975000D01*
X176979257Y-69108398D01*
X177114185Y-69342102D01*
X177167655Y-69409151D01*
X177282442Y-69553089D01*
X177469183Y-69726358D01*
X177480259Y-69736635D01*
X177703226Y-69888651D01*
X177946359Y-70005738D01*
X178204228Y-70085280D01*
X178204229Y-70085280D01*
X178204232Y-70085281D01*
X178471063Y-70125499D01*
X178471068Y-70125499D01*
X178471071Y-70125500D01*
X178471072Y-70125500D01*
X178740928Y-70125500D01*
X178740929Y-70125500D01*
X178740936Y-70125499D01*
X179007767Y-70085281D01*
X179007768Y-70085280D01*
X179007772Y-70085280D01*
X179265641Y-70005738D01*
X179508775Y-69888651D01*
X179731741Y-69736635D01*
X179929561Y-69553085D01*
X180097815Y-69342102D01*
X180232743Y-69108398D01*
X180331334Y-68857195D01*
X180391383Y-68594103D01*
X180411549Y-68325000D01*
X180411549Y-68324995D01*
X181800451Y-68324995D01*
X181800451Y-68325004D01*
X181820616Y-68594101D01*
X181880664Y-68857188D01*
X181880666Y-68857195D01*
X181926901Y-68975000D01*
X181979257Y-69108398D01*
X182114185Y-69342102D01*
X182167655Y-69409151D01*
X182282442Y-69553089D01*
X182469183Y-69726358D01*
X182480259Y-69736635D01*
X182703226Y-69888651D01*
X182946359Y-70005738D01*
X183204228Y-70085280D01*
X183204229Y-70085280D01*
X183204232Y-70085281D01*
X183471063Y-70125499D01*
X183471068Y-70125499D01*
X183471071Y-70125500D01*
X183471072Y-70125500D01*
X183740928Y-70125500D01*
X183740929Y-70125500D01*
X183740936Y-70125499D01*
X184007767Y-70085281D01*
X184007768Y-70085280D01*
X184007772Y-70085280D01*
X184265641Y-70005738D01*
X184508775Y-69888651D01*
X184731741Y-69736635D01*
X184929561Y-69553085D01*
X185097815Y-69342102D01*
X185232743Y-69108398D01*
X185331334Y-68857195D01*
X185391383Y-68594103D01*
X185411549Y-68325000D01*
X185411549Y-68324995D01*
X186800451Y-68324995D01*
X186800451Y-68325004D01*
X186820616Y-68594101D01*
X186880664Y-68857188D01*
X186880666Y-68857195D01*
X186926901Y-68975000D01*
X186979257Y-69108398D01*
X187114185Y-69342102D01*
X187167655Y-69409151D01*
X187282442Y-69553089D01*
X187469183Y-69726358D01*
X187480259Y-69736635D01*
X187703226Y-69888651D01*
X187946359Y-70005738D01*
X188204228Y-70085280D01*
X188204229Y-70085280D01*
X188204232Y-70085281D01*
X188471063Y-70125499D01*
X188471068Y-70125499D01*
X188471071Y-70125500D01*
X188471072Y-70125500D01*
X188740928Y-70125500D01*
X188740929Y-70125500D01*
X188740936Y-70125499D01*
X189007767Y-70085281D01*
X189007768Y-70085280D01*
X189007772Y-70085280D01*
X189265641Y-70005738D01*
X189508775Y-69888651D01*
X189731741Y-69736635D01*
X189929561Y-69553085D01*
X190097815Y-69342102D01*
X190232743Y-69108398D01*
X190331334Y-68857195D01*
X190391383Y-68594103D01*
X190411549Y-68325000D01*
X190391383Y-68055897D01*
X190331334Y-67792805D01*
X190232743Y-67541602D01*
X190097815Y-67307898D01*
X189929561Y-67096915D01*
X189929560Y-67096914D01*
X189929557Y-67096910D01*
X189800469Y-66977135D01*
X191805500Y-66977135D01*
X191805500Y-69672870D01*
X191805501Y-69672876D01*
X191811908Y-69732483D01*
X191862202Y-69867328D01*
X191862206Y-69867335D01*
X191948452Y-69982544D01*
X191948455Y-69982547D01*
X192063664Y-70068793D01*
X192063671Y-70068797D01*
X192198517Y-70119091D01*
X192198516Y-70119091D01*
X192205444Y-70119835D01*
X192258127Y-70125500D01*
X194953872Y-70125499D01*
X195013483Y-70119091D01*
X195148331Y-70068796D01*
X195263546Y-69982546D01*
X195349796Y-69867331D01*
X195400091Y-69732483D01*
X195406500Y-69672873D01*
X195406499Y-66977128D01*
X195400091Y-66917517D01*
X195398542Y-66913365D01*
X195349797Y-66782671D01*
X195349793Y-66782664D01*
X195263547Y-66667455D01*
X195263544Y-66667452D01*
X195148335Y-66581206D01*
X195148328Y-66581202D01*
X195013482Y-66530908D01*
X195013483Y-66530908D01*
X194953883Y-66524501D01*
X194953881Y-66524500D01*
X194953873Y-66524500D01*
X194953864Y-66524500D01*
X192258129Y-66524500D01*
X192258123Y-66524501D01*
X192198516Y-66530908D01*
X192063671Y-66581202D01*
X192063664Y-66581206D01*
X191948455Y-66667452D01*
X191948452Y-66667455D01*
X191862206Y-66782664D01*
X191862202Y-66782671D01*
X191811908Y-66917517D01*
X191805501Y-66977116D01*
X191805501Y-66977123D01*
X191805500Y-66977135D01*
X189800469Y-66977135D01*
X189731741Y-66913365D01*
X189692038Y-66886296D01*
X189508775Y-66761349D01*
X189508769Y-66761346D01*
X189508768Y-66761345D01*
X189508767Y-66761344D01*
X189265643Y-66644263D01*
X189265645Y-66644263D01*
X189007773Y-66564720D01*
X189007767Y-66564718D01*
X188740936Y-66524500D01*
X188740929Y-66524500D01*
X188471071Y-66524500D01*
X188471063Y-66524500D01*
X188204232Y-66564718D01*
X188204226Y-66564720D01*
X187946358Y-66644262D01*
X187703230Y-66761346D01*
X187480258Y-66913365D01*
X187282442Y-67096910D01*
X187114185Y-67307898D01*
X186979258Y-67541599D01*
X186979256Y-67541603D01*
X186880666Y-67792804D01*
X186880664Y-67792811D01*
X186820616Y-68055898D01*
X186800451Y-68324995D01*
X185411549Y-68324995D01*
X185391383Y-68055897D01*
X185331334Y-67792805D01*
X185232743Y-67541602D01*
X185097815Y-67307898D01*
X184929561Y-67096915D01*
X184929560Y-67096914D01*
X184929557Y-67096910D01*
X184731741Y-66913365D01*
X184692038Y-66886296D01*
X184508775Y-66761349D01*
X184508769Y-66761346D01*
X184508768Y-66761345D01*
X184508767Y-66761344D01*
X184265643Y-66644263D01*
X184265645Y-66644263D01*
X184007773Y-66564720D01*
X184007767Y-66564718D01*
X183740936Y-66524500D01*
X183740929Y-66524500D01*
X183471071Y-66524500D01*
X183471063Y-66524500D01*
X183204232Y-66564718D01*
X183204226Y-66564720D01*
X182946358Y-66644262D01*
X182703230Y-66761346D01*
X182480258Y-66913365D01*
X182282442Y-67096910D01*
X182114185Y-67307898D01*
X181979258Y-67541599D01*
X181979256Y-67541603D01*
X181880666Y-67792804D01*
X181880664Y-67792811D01*
X181820616Y-68055898D01*
X181800451Y-68324995D01*
X180411549Y-68324995D01*
X180391383Y-68055897D01*
X180331334Y-67792805D01*
X180232743Y-67541602D01*
X180097815Y-67307898D01*
X179929561Y-67096915D01*
X179929560Y-67096914D01*
X179929557Y-67096910D01*
X179731741Y-66913365D01*
X179692038Y-66886296D01*
X179508775Y-66761349D01*
X179508769Y-66761346D01*
X179508768Y-66761345D01*
X179508767Y-66761344D01*
X179265643Y-66644263D01*
X179265645Y-66644263D01*
X179007773Y-66564720D01*
X179007767Y-66564718D01*
X178740936Y-66524500D01*
X178740929Y-66524500D01*
X178471071Y-66524500D01*
X178471063Y-66524500D01*
X178204232Y-66564718D01*
X178204226Y-66564720D01*
X177946358Y-66644262D01*
X177703230Y-66761346D01*
X177480258Y-66913365D01*
X177282442Y-67096910D01*
X177114185Y-67307898D01*
X176979258Y-67541599D01*
X176979256Y-67541603D01*
X176880666Y-67792804D01*
X176880664Y-67792811D01*
X176820616Y-68055898D01*
X176800451Y-68324995D01*
X175411549Y-68324995D01*
X175391383Y-68055897D01*
X175331334Y-67792805D01*
X175232743Y-67541602D01*
X175097815Y-67307898D01*
X174929561Y-67096915D01*
X174929560Y-67096914D01*
X174929557Y-67096910D01*
X174731741Y-66913365D01*
X174692038Y-66886296D01*
X174508775Y-66761349D01*
X174508769Y-66761346D01*
X174508768Y-66761345D01*
X174508767Y-66761344D01*
X174265643Y-66644263D01*
X174265645Y-66644263D01*
X174007773Y-66564720D01*
X174007767Y-66564718D01*
X173740936Y-66524500D01*
X173740929Y-66524500D01*
X173471071Y-66524500D01*
X173471063Y-66524500D01*
X173204232Y-66564718D01*
X173204226Y-66564720D01*
X172946358Y-66644262D01*
X172703230Y-66761346D01*
X172480258Y-66913365D01*
X172282442Y-67096910D01*
X172114185Y-67307898D01*
X171979258Y-67541599D01*
X171979256Y-67541603D01*
X171880666Y-67792804D01*
X171880664Y-67792811D01*
X171820616Y-68055898D01*
X171800451Y-68324995D01*
X170411549Y-68324995D01*
X170391383Y-68055897D01*
X170331334Y-67792805D01*
X170232743Y-67541602D01*
X170097815Y-67307898D01*
X169929561Y-67096915D01*
X169929560Y-67096914D01*
X169929557Y-67096910D01*
X169731741Y-66913365D01*
X169692038Y-66886296D01*
X169508775Y-66761349D01*
X169508769Y-66761346D01*
X169508768Y-66761345D01*
X169508767Y-66761344D01*
X169265643Y-66644263D01*
X169265645Y-66644263D01*
X169007773Y-66564720D01*
X169007767Y-66564718D01*
X168740936Y-66524500D01*
X168740929Y-66524500D01*
X168471071Y-66524500D01*
X168471063Y-66524500D01*
X168204232Y-66564718D01*
X168204226Y-66564720D01*
X167946358Y-66644262D01*
X167703230Y-66761346D01*
X167480258Y-66913365D01*
X167282442Y-67096910D01*
X167114185Y-67307898D01*
X166979258Y-67541599D01*
X166979256Y-67541603D01*
X166880666Y-67792804D01*
X166880664Y-67792811D01*
X166820616Y-68055898D01*
X166800451Y-68324995D01*
X165411549Y-68324995D01*
X165391383Y-68055897D01*
X165331334Y-67792805D01*
X165232743Y-67541602D01*
X165097815Y-67307898D01*
X164929561Y-67096915D01*
X164929560Y-67096914D01*
X164929557Y-67096910D01*
X164731741Y-66913365D01*
X164692038Y-66886296D01*
X164508775Y-66761349D01*
X164508769Y-66761346D01*
X164508768Y-66761345D01*
X164508767Y-66761344D01*
X164265643Y-66644263D01*
X164265645Y-66644263D01*
X164007773Y-66564720D01*
X164007767Y-66564718D01*
X163740936Y-66524500D01*
X163740929Y-66524500D01*
X163471071Y-66524500D01*
X163471063Y-66524500D01*
X163204232Y-66564718D01*
X163204226Y-66564720D01*
X162946358Y-66644262D01*
X162703230Y-66761346D01*
X162480258Y-66913365D01*
X162282442Y-67096910D01*
X162114185Y-67307898D01*
X161979258Y-67541599D01*
X161979256Y-67541603D01*
X161880666Y-67792804D01*
X161880664Y-67792811D01*
X161820616Y-68055898D01*
X161800451Y-68324995D01*
X160411549Y-68324995D01*
X160391383Y-68055897D01*
X160331334Y-67792805D01*
X160232743Y-67541602D01*
X160097815Y-67307898D01*
X159929561Y-67096915D01*
X159929560Y-67096914D01*
X159929557Y-67096910D01*
X159731741Y-66913365D01*
X159692038Y-66886296D01*
X159508775Y-66761349D01*
X159508769Y-66761346D01*
X159508768Y-66761345D01*
X159508767Y-66761344D01*
X159265643Y-66644263D01*
X159265645Y-66644263D01*
X159007773Y-66564720D01*
X159007767Y-66564718D01*
X158740936Y-66524500D01*
X158740929Y-66524500D01*
X158471071Y-66524500D01*
X158471063Y-66524500D01*
X158204232Y-66564718D01*
X158204226Y-66564720D01*
X157946358Y-66644262D01*
X157703230Y-66761346D01*
X157480258Y-66913365D01*
X157282442Y-67096910D01*
X157114185Y-67307898D01*
X156979258Y-67541599D01*
X156979256Y-67541603D01*
X156880666Y-67792804D01*
X156880664Y-67792811D01*
X156820616Y-68055898D01*
X156800451Y-68324995D01*
X145406499Y-68324995D01*
X145406499Y-66977128D01*
X145400091Y-66917517D01*
X145398542Y-66913365D01*
X145349797Y-66782671D01*
X145349793Y-66782664D01*
X145263547Y-66667455D01*
X145263544Y-66667452D01*
X145148335Y-66581206D01*
X145148328Y-66581202D01*
X145013482Y-66530908D01*
X145013483Y-66530908D01*
X144953883Y-66524501D01*
X144953881Y-66524500D01*
X144953873Y-66524500D01*
X144953864Y-66524500D01*
X142258129Y-66524500D01*
X142258123Y-66524501D01*
X142198516Y-66530908D01*
X142063671Y-66581202D01*
X142063664Y-66581206D01*
X141948455Y-66667452D01*
X141948452Y-66667455D01*
X141862206Y-66782664D01*
X141862202Y-66782671D01*
X141811908Y-66917517D01*
X141805501Y-66977116D01*
X141805501Y-66977123D01*
X141805500Y-66977135D01*
X139800469Y-66977135D01*
X139731741Y-66913365D01*
X139692038Y-66886296D01*
X139508775Y-66761349D01*
X139508769Y-66761346D01*
X139508768Y-66761345D01*
X139508767Y-66761344D01*
X139265643Y-66644263D01*
X139265645Y-66644263D01*
X139007773Y-66564720D01*
X139007767Y-66564718D01*
X138740936Y-66524500D01*
X138740929Y-66524500D01*
X138471071Y-66524500D01*
X138471063Y-66524500D01*
X138204232Y-66564718D01*
X138204226Y-66564720D01*
X137946358Y-66644262D01*
X137703230Y-66761346D01*
X137480258Y-66913365D01*
X137282442Y-67096910D01*
X137114185Y-67307898D01*
X136979258Y-67541599D01*
X136979256Y-67541603D01*
X136880666Y-67792804D01*
X136880664Y-67792811D01*
X136820616Y-68055898D01*
X136800451Y-68324995D01*
X135411549Y-68324995D01*
X135391383Y-68055897D01*
X135331334Y-67792805D01*
X135232743Y-67541602D01*
X135097815Y-67307898D01*
X134929561Y-67096915D01*
X134929560Y-67096914D01*
X134929557Y-67096910D01*
X134731741Y-66913365D01*
X134692038Y-66886296D01*
X134508775Y-66761349D01*
X134508769Y-66761346D01*
X134508768Y-66761345D01*
X134508767Y-66761344D01*
X134265643Y-66644263D01*
X134265645Y-66644263D01*
X134007773Y-66564720D01*
X134007767Y-66564718D01*
X133740936Y-66524500D01*
X133740929Y-66524500D01*
X133471071Y-66524500D01*
X133471063Y-66524500D01*
X133204232Y-66564718D01*
X133204226Y-66564720D01*
X132946358Y-66644262D01*
X132703230Y-66761346D01*
X132480258Y-66913365D01*
X132282442Y-67096910D01*
X132114185Y-67307898D01*
X131979258Y-67541599D01*
X131979256Y-67541603D01*
X131880666Y-67792804D01*
X131880664Y-67792811D01*
X131820616Y-68055898D01*
X131800451Y-68324995D01*
X130411549Y-68324995D01*
X130391383Y-68055897D01*
X130331334Y-67792805D01*
X130232743Y-67541602D01*
X130097815Y-67307898D01*
X129929561Y-67096915D01*
X129929560Y-67096914D01*
X129929557Y-67096910D01*
X129731741Y-66913365D01*
X129692038Y-66886296D01*
X129508775Y-66761349D01*
X129508769Y-66761346D01*
X129508768Y-66761345D01*
X129508767Y-66761344D01*
X129265643Y-66644263D01*
X129265645Y-66644263D01*
X129007773Y-66564720D01*
X129007767Y-66564718D01*
X128740936Y-66524500D01*
X128740929Y-66524500D01*
X128471071Y-66524500D01*
X128471063Y-66524500D01*
X128204232Y-66564718D01*
X128204226Y-66564720D01*
X127946358Y-66644262D01*
X127703230Y-66761346D01*
X127480258Y-66913365D01*
X127282442Y-67096910D01*
X127114185Y-67307898D01*
X126979258Y-67541599D01*
X126979256Y-67541603D01*
X126880666Y-67792804D01*
X126880664Y-67792811D01*
X126820616Y-68055898D01*
X126800451Y-68324995D01*
X126800451Y-68325004D01*
X126820616Y-68594101D01*
X126880664Y-68857188D01*
X126880666Y-68857195D01*
X126926901Y-68975000D01*
X126979257Y-69108398D01*
X127114185Y-69342102D01*
X127167655Y-69409151D01*
X127282442Y-69553089D01*
X127398567Y-69660836D01*
X127480259Y-69736635D01*
X127551351Y-69785104D01*
X127595653Y-69839133D01*
X127605500Y-69887558D01*
X127605500Y-72204541D01*
X127605500Y-72204543D01*
X127605499Y-72204543D01*
X127643947Y-72397829D01*
X127643950Y-72397839D01*
X127719364Y-72579907D01*
X127719371Y-72579920D01*
X127828860Y-72743781D01*
X127828863Y-72743785D01*
X127972537Y-72887459D01*
X127972559Y-72887479D01*
X128917398Y-73832318D01*
X128950883Y-73893641D01*
X128945899Y-73963333D01*
X128917398Y-74007680D01*
X128655648Y-74269431D01*
X128199608Y-74725472D01*
X127961899Y-74963181D01*
X127900576Y-74996666D01*
X127874218Y-74999500D01*
X127101457Y-74999500D01*
X126908170Y-75037947D01*
X126908160Y-75037950D01*
X126726092Y-75113364D01*
X126726079Y-75113371D01*
X126562221Y-75222858D01*
X126472280Y-75312797D01*
X126423605Y-75342820D01*
X126280666Y-75390186D01*
X126280663Y-75390187D01*
X126131342Y-75482289D01*
X126007289Y-75606342D01*
X125911821Y-75761121D01*
X125859873Y-75807845D01*
X125790910Y-75819068D01*
X125726828Y-75791224D01*
X125718601Y-75783705D01*
X125579786Y-75644890D01*
X125407820Y-75519951D01*
X125218414Y-75423444D01*
X125218413Y-75423443D01*
X125218412Y-75423443D01*
X125016243Y-75357754D01*
X125016241Y-75357753D01*
X125016240Y-75357753D01*
X124854957Y-75332208D01*
X124806287Y-75324500D01*
X124593713Y-75324500D01*
X124545042Y-75332208D01*
X124383760Y-75357753D01*
X124181585Y-75423444D01*
X123992179Y-75519951D01*
X123820213Y-75644890D01*
X123669894Y-75795209D01*
X123669890Y-75795214D01*
X123550318Y-75959793D01*
X123494989Y-76002459D01*
X123425375Y-76008438D01*
X123363580Y-75975833D01*
X123349682Y-75959793D01*
X123230109Y-75795214D01*
X123230105Y-75795209D01*
X123079786Y-75644890D01*
X122907820Y-75519951D01*
X122718414Y-75423444D01*
X122718413Y-75423443D01*
X122718412Y-75423443D01*
X122516243Y-75357754D01*
X122516241Y-75357753D01*
X122516240Y-75357753D01*
X122354957Y-75332208D01*
X122306287Y-75324500D01*
X122093713Y-75324500D01*
X122045042Y-75332208D01*
X121883760Y-75357753D01*
X121681585Y-75423444D01*
X121492179Y-75519951D01*
X121320213Y-75644890D01*
X121169894Y-75795209D01*
X121169890Y-75795214D01*
X121050318Y-75959793D01*
X120994989Y-76002459D01*
X120925375Y-76008438D01*
X120863580Y-75975833D01*
X120849682Y-75959793D01*
X120730109Y-75795214D01*
X120730105Y-75795209D01*
X120579786Y-75644890D01*
X120407820Y-75519951D01*
X120218414Y-75423444D01*
X120218413Y-75423443D01*
X120218412Y-75423443D01*
X120016243Y-75357754D01*
X120016241Y-75357753D01*
X120016240Y-75357753D01*
X119854957Y-75332208D01*
X119806287Y-75324500D01*
X119593713Y-75324500D01*
X119545042Y-75332208D01*
X119383760Y-75357753D01*
X119181585Y-75423444D01*
X118992179Y-75519951D01*
X118820213Y-75644890D01*
X118669894Y-75795209D01*
X118669890Y-75795214D01*
X118550008Y-75960218D01*
X118494678Y-76002884D01*
X118425065Y-76008863D01*
X118363270Y-75976257D01*
X118349372Y-75960218D01*
X118229727Y-75795540D01*
X118229723Y-75795535D01*
X118079464Y-75645276D01*
X118079459Y-75645272D01*
X117907557Y-75520379D01*
X117718215Y-75423903D01*
X117516124Y-75358241D01*
X117450000Y-75347768D01*
X117450000Y-76395854D01*
X117383343Y-76357370D01*
X117262535Y-76325000D01*
X117137465Y-76325000D01*
X117016657Y-76357370D01*
X116950000Y-76395854D01*
X116950000Y-75347768D01*
X116949999Y-75347768D01*
X116883875Y-75358241D01*
X116681784Y-75423903D01*
X116492442Y-75520379D01*
X116320540Y-75645272D01*
X116320535Y-75645276D01*
X116170276Y-75795535D01*
X116170272Y-75795540D01*
X116050627Y-75960218D01*
X115995297Y-76002884D01*
X115925684Y-76008863D01*
X115863889Y-75976257D01*
X115849991Y-75960218D01*
X115730109Y-75795214D01*
X115730105Y-75795209D01*
X115579786Y-75644890D01*
X115407820Y-75519951D01*
X115218414Y-75423444D01*
X115218413Y-75423443D01*
X115218412Y-75423443D01*
X115016243Y-75357754D01*
X115016241Y-75357753D01*
X115016240Y-75357753D01*
X114854957Y-75332208D01*
X114806287Y-75324500D01*
X114593713Y-75324500D01*
X114545042Y-75332208D01*
X114383760Y-75357753D01*
X114181585Y-75423444D01*
X113992179Y-75519951D01*
X113820213Y-75644890D01*
X113669890Y-75795213D01*
X113544951Y-75967179D01*
X113448444Y-76156585D01*
X113382753Y-76358760D01*
X113359062Y-76508343D01*
X113349500Y-76568713D01*
X113349500Y-77031287D01*
X113353659Y-77057546D01*
X113381913Y-77235938D01*
X113382754Y-77241243D01*
X113440359Y-77418533D01*
X113448444Y-77443414D01*
X113544951Y-77632820D01*
X113669890Y-77804786D01*
X113820213Y-77955109D01*
X113992179Y-78080048D01*
X113992181Y-78080049D01*
X113992184Y-78080051D01*
X114181588Y-78176557D01*
X114383757Y-78242246D01*
X114593713Y-78275500D01*
X114593714Y-78275500D01*
X114806286Y-78275500D01*
X114806287Y-78275500D01*
X115016243Y-78242246D01*
X115218412Y-78176557D01*
X115407816Y-78080051D01*
X115476959Y-78029816D01*
X115579786Y-77955109D01*
X115579788Y-77955106D01*
X115579792Y-77955104D01*
X115730104Y-77804792D01*
X115849991Y-77639779D01*
X115905320Y-77597115D01*
X115974933Y-77591136D01*
X116036729Y-77623741D01*
X116050627Y-77639781D01*
X116170272Y-77804459D01*
X116170276Y-77804464D01*
X116320535Y-77954723D01*
X116320540Y-77954727D01*
X116492442Y-78079620D01*
X116681782Y-78176095D01*
X116883871Y-78241757D01*
X116950000Y-78252231D01*
X116950000Y-77204145D01*
X117016657Y-77242630D01*
X117137465Y-77275000D01*
X117262535Y-77275000D01*
X117383343Y-77242630D01*
X117450000Y-77204145D01*
X117450000Y-78252230D01*
X117516126Y-78241757D01*
X117516129Y-78241757D01*
X117718217Y-78176095D01*
X117907557Y-78079620D01*
X118079459Y-77954727D01*
X118079464Y-77954723D01*
X118229721Y-77804466D01*
X118349371Y-77639781D01*
X118404701Y-77597115D01*
X118474314Y-77591136D01*
X118536110Y-77623741D01*
X118550008Y-77639781D01*
X118669890Y-77804785D01*
X118669894Y-77804790D01*
X118820213Y-77955109D01*
X118992179Y-78080048D01*
X118992181Y-78080049D01*
X118992184Y-78080051D01*
X119181588Y-78176557D01*
X119383757Y-78242246D01*
X119593713Y-78275500D01*
X119593714Y-78275500D01*
X119806286Y-78275500D01*
X119806287Y-78275500D01*
X120016243Y-78242246D01*
X120218412Y-78176557D01*
X120407816Y-78080051D01*
X120476959Y-78029816D01*
X120579786Y-77955109D01*
X120579788Y-77955106D01*
X120579792Y-77955104D01*
X120730104Y-77804792D01*
X120849683Y-77640204D01*
X120905011Y-77597540D01*
X120974624Y-77591561D01*
X121036420Y-77624166D01*
X121050313Y-77640199D01*
X121137245Y-77759851D01*
X121169896Y-77804792D01*
X121320213Y-77955109D01*
X121492179Y-78080048D01*
X121492181Y-78080049D01*
X121492184Y-78080051D01*
X121681588Y-78176557D01*
X121883757Y-78242246D01*
X122093713Y-78275500D01*
X122093714Y-78275500D01*
X122306286Y-78275500D01*
X122306287Y-78275500D01*
X122516243Y-78242246D01*
X122718412Y-78176557D01*
X122907816Y-78080051D01*
X122976959Y-78029816D01*
X123079786Y-77955109D01*
X123079788Y-77955106D01*
X123079792Y-77955104D01*
X123230104Y-77804792D01*
X123349683Y-77640204D01*
X123405011Y-77597540D01*
X123474624Y-77591561D01*
X123536420Y-77624166D01*
X123550313Y-77640199D01*
X123637245Y-77759851D01*
X123669896Y-77804792D01*
X123820213Y-77955109D01*
X123992179Y-78080048D01*
X123992181Y-78080049D01*
X123992184Y-78080051D01*
X124181588Y-78176557D01*
X124383757Y-78242246D01*
X124593713Y-78275500D01*
X124593714Y-78275500D01*
X124806286Y-78275500D01*
X124806287Y-78275500D01*
X125016243Y-78242246D01*
X125218412Y-78176557D01*
X125407816Y-78080051D01*
X125579792Y-77955104D01*
X125718604Y-77816291D01*
X125779923Y-77782809D01*
X125849615Y-77787793D01*
X125905549Y-77829664D01*
X125911821Y-77838878D01*
X125915185Y-77844333D01*
X125915186Y-77844334D01*
X126007288Y-77993656D01*
X126131344Y-78117712D01*
X126140591Y-78123416D01*
X126187318Y-78175360D01*
X126199500Y-78228957D01*
X126199500Y-78571042D01*
X126179815Y-78638081D01*
X126140598Y-78676580D01*
X126131344Y-78682287D01*
X126007289Y-78806342D01*
X125911821Y-78961121D01*
X125859873Y-79007845D01*
X125790910Y-79019068D01*
X125726828Y-78991224D01*
X125718601Y-78983705D01*
X125579786Y-78844890D01*
X125407820Y-78719951D01*
X125218414Y-78623444D01*
X125218413Y-78623443D01*
X125218412Y-78623443D01*
X125016243Y-78557754D01*
X125016241Y-78557753D01*
X125016240Y-78557753D01*
X124854957Y-78532208D01*
X124806287Y-78524500D01*
X124593713Y-78524500D01*
X124545042Y-78532208D01*
X124383760Y-78557753D01*
X124181585Y-78623444D01*
X123992179Y-78719951D01*
X123820213Y-78844890D01*
X123669894Y-78995209D01*
X123669890Y-78995214D01*
X123550318Y-79159793D01*
X123494989Y-79202459D01*
X123425375Y-79208438D01*
X123363580Y-79175833D01*
X123349682Y-79159793D01*
X123230109Y-78995214D01*
X123230105Y-78995209D01*
X123079786Y-78844890D01*
X122907820Y-78719951D01*
X122718414Y-78623444D01*
X122718413Y-78623443D01*
X122718412Y-78623443D01*
X122516243Y-78557754D01*
X122516241Y-78557753D01*
X122516240Y-78557753D01*
X122354957Y-78532208D01*
X122306287Y-78524500D01*
X122093713Y-78524500D01*
X122045042Y-78532208D01*
X121883760Y-78557753D01*
X121681585Y-78623444D01*
X121492179Y-78719951D01*
X121320213Y-78844890D01*
X121169894Y-78995209D01*
X121169890Y-78995214D01*
X121050318Y-79159793D01*
X120994989Y-79202459D01*
X120925375Y-79208438D01*
X120863580Y-79175833D01*
X120849682Y-79159793D01*
X120730109Y-78995214D01*
X120730105Y-78995209D01*
X120579786Y-78844890D01*
X120407820Y-78719951D01*
X120218414Y-78623444D01*
X120218413Y-78623443D01*
X120218412Y-78623443D01*
X120016243Y-78557754D01*
X120016241Y-78557753D01*
X120016240Y-78557753D01*
X119854957Y-78532208D01*
X119806287Y-78524500D01*
X119593713Y-78524500D01*
X119545042Y-78532208D01*
X119383760Y-78557753D01*
X119181585Y-78623444D01*
X118992179Y-78719951D01*
X118820213Y-78844890D01*
X118669894Y-78995209D01*
X118669890Y-78995214D01*
X118550008Y-79160218D01*
X118494678Y-79202884D01*
X118425065Y-79208863D01*
X118363270Y-79176257D01*
X118349372Y-79160218D01*
X118229727Y-78995540D01*
X118229723Y-78995535D01*
X118079464Y-78845276D01*
X118079459Y-78845272D01*
X117907557Y-78720379D01*
X117718215Y-78623903D01*
X117516124Y-78558241D01*
X117450000Y-78547768D01*
X117450000Y-79595854D01*
X117383343Y-79557370D01*
X117262535Y-79525000D01*
X117137465Y-79525000D01*
X117016657Y-79557370D01*
X116950000Y-79595854D01*
X116950000Y-78547768D01*
X116949999Y-78547768D01*
X116883875Y-78558241D01*
X116681784Y-78623903D01*
X116492442Y-78720379D01*
X116320540Y-78845272D01*
X116320535Y-78845276D01*
X116170276Y-78995535D01*
X116170272Y-78995540D01*
X116050627Y-79160218D01*
X115995297Y-79202884D01*
X115925684Y-79208863D01*
X115863889Y-79176257D01*
X115849991Y-79160218D01*
X115730109Y-78995214D01*
X115730105Y-78995209D01*
X115579786Y-78844890D01*
X115407820Y-78719951D01*
X115218414Y-78623444D01*
X115218413Y-78623443D01*
X115218412Y-78623443D01*
X115016243Y-78557754D01*
X115016241Y-78557753D01*
X115016240Y-78557753D01*
X114854957Y-78532208D01*
X114806287Y-78524500D01*
X114593713Y-78524500D01*
X114545042Y-78532208D01*
X114383760Y-78557753D01*
X114181585Y-78623444D01*
X113992179Y-78719951D01*
X113820213Y-78844890D01*
X113669890Y-78995213D01*
X113544951Y-79167179D01*
X113448444Y-79356585D01*
X113382753Y-79558760D01*
X113367719Y-79653682D01*
X113349500Y-79768713D01*
X113349500Y-80231287D01*
X113357298Y-80280520D01*
X113377121Y-80405682D01*
X113382754Y-80441243D01*
X113441387Y-80621697D01*
X113448444Y-80643414D01*
X113544951Y-80832820D01*
X113669890Y-81004786D01*
X113820213Y-81155109D01*
X113992179Y-81280048D01*
X113992181Y-81280049D01*
X113992184Y-81280051D01*
X114181588Y-81376557D01*
X114383757Y-81442246D01*
X114593713Y-81475500D01*
X114593714Y-81475500D01*
X114806286Y-81475500D01*
X114806287Y-81475500D01*
X115016243Y-81442246D01*
X115218412Y-81376557D01*
X115407816Y-81280051D01*
X115476524Y-81230132D01*
X115579786Y-81155109D01*
X115579788Y-81155106D01*
X115579792Y-81155104D01*
X115730104Y-81004792D01*
X115849991Y-80839779D01*
X115905320Y-80797115D01*
X115974933Y-80791136D01*
X116036729Y-80823741D01*
X116050627Y-80839781D01*
X116170272Y-81004459D01*
X116170276Y-81004464D01*
X116320535Y-81154723D01*
X116320540Y-81154727D01*
X116492442Y-81279620D01*
X116681782Y-81376095D01*
X116883871Y-81441757D01*
X116950000Y-81452231D01*
X116950000Y-80404145D01*
X117016657Y-80442630D01*
X117137465Y-80475000D01*
X117262535Y-80475000D01*
X117383343Y-80442630D01*
X117450000Y-80404145D01*
X117450000Y-81452230D01*
X117516126Y-81441757D01*
X117516129Y-81441757D01*
X117718217Y-81376095D01*
X117907557Y-81279620D01*
X118079459Y-81154727D01*
X118079464Y-81154723D01*
X118229721Y-81004466D01*
X118349371Y-80839781D01*
X118404701Y-80797115D01*
X118474314Y-80791136D01*
X118536110Y-80823741D01*
X118550008Y-80839781D01*
X118669890Y-81004785D01*
X118669894Y-81004790D01*
X118820213Y-81155109D01*
X118992179Y-81280048D01*
X118992181Y-81280049D01*
X118992184Y-81280051D01*
X119181588Y-81376557D01*
X119383757Y-81442246D01*
X119593713Y-81475500D01*
X119593714Y-81475500D01*
X119806286Y-81475500D01*
X119806287Y-81475500D01*
X120016243Y-81442246D01*
X120218412Y-81376557D01*
X120407816Y-81280051D01*
X120476524Y-81230132D01*
X120579786Y-81155109D01*
X120579788Y-81155106D01*
X120579792Y-81155104D01*
X120730104Y-81004792D01*
X120849683Y-80840204D01*
X120905011Y-80797540D01*
X120974624Y-80791561D01*
X121036420Y-80824166D01*
X121050313Y-80840199D01*
X121153603Y-80982366D01*
X121169896Y-81004792D01*
X121320213Y-81155109D01*
X121492179Y-81280048D01*
X121492181Y-81280049D01*
X121492184Y-81280051D01*
X121681588Y-81376557D01*
X121883757Y-81442246D01*
X122093713Y-81475500D01*
X122093714Y-81475500D01*
X122306286Y-81475500D01*
X122306287Y-81475500D01*
X122516243Y-81442246D01*
X122718412Y-81376557D01*
X122907816Y-81280051D01*
X122976524Y-81230132D01*
X123079786Y-81155109D01*
X123079788Y-81155106D01*
X123079792Y-81155104D01*
X123230104Y-81004792D01*
X123349683Y-80840204D01*
X123405011Y-80797540D01*
X123474624Y-80791561D01*
X123536420Y-80824166D01*
X123550313Y-80840199D01*
X123653603Y-80982366D01*
X123669896Y-81004792D01*
X123820213Y-81155109D01*
X123992179Y-81280048D01*
X123992181Y-81280049D01*
X123992184Y-81280051D01*
X124181588Y-81376557D01*
X124383757Y-81442246D01*
X124593713Y-81475500D01*
X124593714Y-81475500D01*
X124806286Y-81475500D01*
X124806287Y-81475500D01*
X125016243Y-81442246D01*
X125218412Y-81376557D01*
X125407816Y-81280051D01*
X125526729Y-81193656D01*
X125579784Y-81155110D01*
X125579784Y-81155109D01*
X125579792Y-81155104D01*
X125718604Y-81016291D01*
X125779923Y-80982809D01*
X125849615Y-80987793D01*
X125905549Y-81029664D01*
X125911821Y-81038878D01*
X125915185Y-81044333D01*
X125915186Y-81044334D01*
X126007288Y-81193656D01*
X126131344Y-81317712D01*
X126280666Y-81409814D01*
X126447203Y-81464999D01*
X126549991Y-81475500D01*
X127850008Y-81475499D01*
X127952797Y-81464999D01*
X128119334Y-81409814D01*
X128268656Y-81317712D01*
X128392712Y-81193656D01*
X128484814Y-81044334D01*
X128539999Y-80877797D01*
X128550500Y-80775009D01*
X128550499Y-79224992D01*
X128548851Y-79208863D01*
X128539999Y-79122203D01*
X128539998Y-79122200D01*
X128533391Y-79102262D01*
X128484814Y-78955666D01*
X128392712Y-78806344D01*
X128268656Y-78682288D01*
X128268655Y-78682287D01*
X128259402Y-78676580D01*
X128212678Y-78624632D01*
X128200500Y-78571042D01*
X128200500Y-78228957D01*
X128220185Y-78161918D01*
X128259407Y-78123416D01*
X128268656Y-78117712D01*
X128392712Y-77993656D01*
X128484814Y-77844334D01*
X128539999Y-77677797D01*
X128550500Y-77575009D01*
X128550499Y-77078594D01*
X128570183Y-77011556D01*
X128622987Y-76965801D01*
X128627047Y-76964034D01*
X128631833Y-76962051D01*
X128631836Y-76962051D01*
X128704904Y-76931785D01*
X128813914Y-76886632D01*
X128977782Y-76777139D01*
X129117139Y-76637782D01*
X129117139Y-76637780D01*
X129127347Y-76627573D01*
X129127348Y-76627570D01*
X130432820Y-75322098D01*
X130494142Y-75288615D01*
X130563834Y-75293599D01*
X130619767Y-75335471D01*
X130644184Y-75400935D01*
X130644500Y-75409781D01*
X130644500Y-75550002D01*
X130649645Y-75621941D01*
X130653107Y-75633732D01*
X130654470Y-75684561D01*
X130656738Y-75684805D01*
X130649501Y-75752116D01*
X130649500Y-75752127D01*
X130649500Y-76847870D01*
X130649501Y-76847876D01*
X130655908Y-76907483D01*
X130706202Y-77042328D01*
X130706206Y-77042335D01*
X130792452Y-77157544D01*
X130792455Y-77157547D01*
X130907664Y-77243793D01*
X130907671Y-77243797D01*
X131042517Y-77294091D01*
X131042516Y-77294091D01*
X131048525Y-77294737D01*
X131102127Y-77300500D01*
X132697872Y-77300499D01*
X132757483Y-77294091D01*
X132775782Y-77287266D01*
X132832167Y-77266236D01*
X132901859Y-77261252D01*
X132963182Y-77294737D01*
X132996666Y-77356061D01*
X132999500Y-77382418D01*
X132999500Y-79013330D01*
X132999499Y-79013348D01*
X132999499Y-79179054D01*
X132999498Y-79179054D01*
X133040424Y-79331789D01*
X133040425Y-79331790D01*
X133054742Y-79356587D01*
X133054743Y-79356588D01*
X133119477Y-79468712D01*
X133119481Y-79468717D01*
X133238349Y-79587585D01*
X133238355Y-79587590D01*
X133815139Y-80164374D01*
X133815149Y-80164385D01*
X133819479Y-80168715D01*
X133819480Y-80168716D01*
X133931284Y-80280520D01*
X133931286Y-80280521D01*
X133931290Y-80280524D01*
X134044017Y-80345606D01*
X134068216Y-80359577D01*
X134180019Y-80389534D01*
X134220942Y-80400500D01*
X134220943Y-80400500D01*
X143313331Y-80400500D01*
X143313347Y-80400501D01*
X143320943Y-80400501D01*
X143479054Y-80400501D01*
X143479057Y-80400501D01*
X143631785Y-80359577D01*
X143688743Y-80326692D01*
X143768716Y-80280520D01*
X143880520Y-80168716D01*
X143880520Y-80168714D01*
X143890724Y-80158511D01*
X143890728Y-80158506D01*
X144618535Y-79430698D01*
X144679856Y-79397215D01*
X144692311Y-79395163D01*
X144779255Y-79385368D01*
X144949522Y-79325789D01*
X145102262Y-79229816D01*
X145229816Y-79102262D01*
X145325789Y-78949522D01*
X145385368Y-78779255D01*
X145394958Y-78694141D01*
X145405565Y-78600003D01*
X145405565Y-78599996D01*
X145385369Y-78420750D01*
X145385368Y-78420745D01*
X145375133Y-78391496D01*
X145325789Y-78250478D01*
X145320616Y-78242246D01*
X145278589Y-78175360D01*
X145229816Y-78097738D01*
X145102262Y-77970184D01*
X145054226Y-77940001D01*
X144949524Y-77874212D01*
X144949523Y-77874211D01*
X144840146Y-77835938D01*
X144783371Y-77795216D01*
X144764060Y-77759851D01*
X144760446Y-77749522D01*
X144725789Y-77650478D01*
X144629816Y-77497738D01*
X144502262Y-77370184D01*
X144391359Y-77300499D01*
X144349524Y-77274212D01*
X144349523Y-77274211D01*
X144240146Y-77235938D01*
X144183371Y-77195216D01*
X144164060Y-77159851D01*
X144163254Y-77157547D01*
X144125789Y-77050478D01*
X144120672Y-77042335D01*
X144072583Y-76965801D01*
X144029816Y-76897738D01*
X143902262Y-76770184D01*
X143848193Y-76736210D01*
X143749521Y-76674210D01*
X143579249Y-76614630D01*
X143492330Y-76604837D01*
X143427916Y-76577770D01*
X143418533Y-76569298D01*
X142887590Y-76038355D01*
X142887588Y-76038352D01*
X142768717Y-75919481D01*
X142768716Y-75919480D01*
X142669136Y-75861988D01*
X142669135Y-75861987D01*
X142631783Y-75840422D01*
X142575881Y-75825443D01*
X142479057Y-75799499D01*
X142320943Y-75799499D01*
X142313347Y-75799499D01*
X142313331Y-75799500D01*
X140074499Y-75799500D01*
X140007460Y-75779815D01*
X139961705Y-75727011D01*
X139950499Y-75675500D01*
X139950499Y-75652129D01*
X139950498Y-75652123D01*
X139950497Y-75652116D01*
X139944091Y-75592517D01*
X139944089Y-75592513D01*
X139943853Y-75591511D01*
X139943760Y-75589442D01*
X139943262Y-75584804D01*
X139943552Y-75584772D01*
X139941791Y-75545346D01*
X139955500Y-75450000D01*
X139955500Y-75224500D01*
X139975185Y-75157461D01*
X140027989Y-75111706D01*
X140079500Y-75100500D01*
X146195500Y-75100500D01*
X146262539Y-75120185D01*
X146308294Y-75172989D01*
X146319500Y-75224500D01*
X146319500Y-79336663D01*
X146299815Y-79403702D01*
X146297084Y-79407773D01*
X146269433Y-79447265D01*
X146269432Y-79447266D01*
X146173261Y-79653502D01*
X146173258Y-79653511D01*
X146114366Y-79873302D01*
X146114364Y-79873313D01*
X146094532Y-80099998D01*
X146094532Y-80100001D01*
X146114364Y-80326686D01*
X146114366Y-80326697D01*
X146173258Y-80546488D01*
X146173261Y-80546497D01*
X146269313Y-80752478D01*
X146269432Y-80752734D01*
X146296321Y-80791136D01*
X146297075Y-80792212D01*
X146319402Y-80858418D01*
X146319500Y-80863335D01*
X146319500Y-81589668D01*
X146299815Y-81656707D01*
X146247011Y-81702462D01*
X146177853Y-81712406D01*
X146139207Y-81700154D01*
X146099223Y-81679782D01*
X146099222Y-81679781D01*
X146099219Y-81679780D01*
X146019035Y-81653726D01*
X145904534Y-81616522D01*
X145729995Y-81588878D01*
X145702352Y-81584500D01*
X145497648Y-81584500D01*
X145473329Y-81588351D01*
X145295465Y-81616522D01*
X145100776Y-81679781D01*
X144918386Y-81772715D01*
X144752786Y-81893028D01*
X144608028Y-82037786D01*
X144487715Y-82203386D01*
X144440485Y-82296080D01*
X144392510Y-82346876D01*
X144324689Y-82363671D01*
X144258554Y-82341134D01*
X144219515Y-82296080D01*
X144218883Y-82294840D01*
X144172287Y-82203390D01*
X144147615Y-82169431D01*
X144051971Y-82037786D01*
X143907213Y-81893028D01*
X143741613Y-81772715D01*
X143741612Y-81772714D01*
X143741610Y-81772713D01*
X143684653Y-81743691D01*
X143559223Y-81679781D01*
X143364534Y-81616522D01*
X143189995Y-81588878D01*
X143162352Y-81584500D01*
X142957648Y-81584500D01*
X142933329Y-81588351D01*
X142755465Y-81616522D01*
X142560776Y-81679781D01*
X142378386Y-81772715D01*
X142212786Y-81893028D01*
X142068028Y-82037786D01*
X141947713Y-82203388D01*
X141900203Y-82296630D01*
X141852228Y-82347426D01*
X141784407Y-82364220D01*
X141718272Y-82341682D01*
X141679234Y-82296628D01*
X141631861Y-82203652D01*
X141511582Y-82038105D01*
X141511582Y-82038104D01*
X141366895Y-81893417D01*
X141201349Y-81773140D01*
X141019029Y-81680244D01*
X140824413Y-81617009D01*
X140770000Y-81608390D01*
X140770000Y-82969314D01*
X140765606Y-82964920D01*
X140674394Y-82912259D01*
X140572661Y-82885000D01*
X140467339Y-82885000D01*
X140365606Y-82912259D01*
X140274394Y-82964920D01*
X140270000Y-82969314D01*
X140270000Y-81608390D01*
X140215586Y-81617009D01*
X140020970Y-81680244D01*
X139838650Y-81773140D01*
X139673105Y-81893417D01*
X139673104Y-81893417D01*
X139528417Y-82038104D01*
X139528417Y-82038105D01*
X139408140Y-82203650D01*
X139315244Y-82385968D01*
X139252011Y-82580578D01*
X139220000Y-82782682D01*
X139220000Y-83035000D01*
X140204314Y-83035000D01*
X140199920Y-83039394D01*
X140147259Y-83130606D01*
X140120000Y-83232339D01*
X140120000Y-83337661D01*
X140147259Y-83439394D01*
X140199920Y-83530606D01*
X140204314Y-83535000D01*
X139220000Y-83535000D01*
X139220000Y-83787317D01*
X139252009Y-83989417D01*
X139315244Y-84184031D01*
X139408140Y-84366349D01*
X139528417Y-84531894D01*
X139528417Y-84531895D01*
X139673104Y-84676582D01*
X139838650Y-84796859D01*
X140020968Y-84889755D01*
X140215582Y-84952989D01*
X140385507Y-84979903D01*
X140448641Y-85009832D01*
X140485573Y-85069143D01*
X140484575Y-85139006D01*
X140445966Y-85197239D01*
X140407064Y-85219417D01*
X140250480Y-85274208D01*
X140097737Y-85370184D01*
X139970184Y-85497737D01*
X139874211Y-85650476D01*
X139814631Y-85820745D01*
X139814630Y-85820750D01*
X139794435Y-85999996D01*
X139794435Y-86000003D01*
X139814630Y-86179249D01*
X139814631Y-86179254D01*
X139874211Y-86349523D01*
X139970185Y-86502263D01*
X139972445Y-86505097D01*
X139973334Y-86507275D01*
X139973889Y-86508158D01*
X139973734Y-86508255D01*
X139998855Y-86569783D01*
X139999500Y-86582412D01*
X139999500Y-89234635D01*
X139979815Y-89301674D01*
X139931796Y-89345119D01*
X139838388Y-89392713D01*
X139672786Y-89513028D01*
X139528032Y-89657782D01*
X139528028Y-89657787D01*
X139424818Y-89799845D01*
X139369488Y-89842511D01*
X139299875Y-89848490D01*
X139238080Y-89815885D01*
X139203723Y-89755046D01*
X139200500Y-89726960D01*
X139200500Y-89689060D01*
X139200501Y-89689047D01*
X139200501Y-89520944D01*
X139200501Y-89520943D01*
X139159577Y-89368216D01*
X139145443Y-89343735D01*
X139080524Y-89231290D01*
X139080518Y-89231282D01*
X137862590Y-88013355D01*
X137862588Y-88013352D01*
X137743717Y-87894481D01*
X137743709Y-87894475D01*
X137631715Y-87829816D01*
X137631714Y-87829815D01*
X137631714Y-87829816D01*
X137606785Y-87815423D01*
X137598086Y-87813092D01*
X137454057Y-87774499D01*
X137295943Y-87774499D01*
X137288347Y-87774499D01*
X137288331Y-87774500D01*
X130100097Y-87774500D01*
X130033058Y-87754815D01*
X130012416Y-87738181D01*
X129541819Y-87267584D01*
X129508334Y-87206261D01*
X129505500Y-87179903D01*
X129505500Y-86004601D01*
X129525185Y-85937562D01*
X129573206Y-85894116D01*
X129586610Y-85887287D01*
X129752219Y-85766966D01*
X129896966Y-85622219D01*
X129896968Y-85622215D01*
X129896971Y-85622213D01*
X130017284Y-85456614D01*
X130017286Y-85456611D01*
X130017287Y-85456610D01*
X130064516Y-85363917D01*
X130112489Y-85313123D01*
X130180310Y-85296328D01*
X130246445Y-85318865D01*
X130285483Y-85363917D01*
X130303614Y-85399500D01*
X130332715Y-85456614D01*
X130453028Y-85622213D01*
X130597786Y-85766971D01*
X130745392Y-85874211D01*
X130763390Y-85887287D01*
X130844499Y-85928614D01*
X130945776Y-85980218D01*
X130945778Y-85980218D01*
X130945781Y-85980220D01*
X131006658Y-86000000D01*
X131140465Y-86043477D01*
X131241557Y-86059488D01*
X131342648Y-86075500D01*
X131342649Y-86075500D01*
X131547351Y-86075500D01*
X131547352Y-86075500D01*
X131749534Y-86043477D01*
X131944219Y-85980220D01*
X132126610Y-85887287D01*
X132254411Y-85794435D01*
X132292213Y-85766971D01*
X132292215Y-85766968D01*
X132292219Y-85766966D01*
X132436966Y-85622219D01*
X132436968Y-85622215D01*
X132436971Y-85622213D01*
X132557284Y-85456614D01*
X132557286Y-85456611D01*
X132557287Y-85456610D01*
X132604516Y-85363917D01*
X132652489Y-85313123D01*
X132720310Y-85296328D01*
X132786445Y-85318865D01*
X132825483Y-85363917D01*
X132843614Y-85399500D01*
X132872715Y-85456614D01*
X132993028Y-85622213D01*
X133137786Y-85766971D01*
X133285392Y-85874211D01*
X133303390Y-85887287D01*
X133384499Y-85928614D01*
X133485776Y-85980218D01*
X133485778Y-85980218D01*
X133485781Y-85980220D01*
X133546658Y-86000000D01*
X133680465Y-86043477D01*
X133781557Y-86059488D01*
X133882648Y-86075500D01*
X133882649Y-86075500D01*
X134087351Y-86075500D01*
X134087352Y-86075500D01*
X134289534Y-86043477D01*
X134484219Y-85980220D01*
X134666610Y-85887287D01*
X134794411Y-85794435D01*
X134832213Y-85766971D01*
X134832215Y-85766968D01*
X134832219Y-85766966D01*
X134976966Y-85622219D01*
X135003330Y-85585930D01*
X135058658Y-85543265D01*
X135128271Y-85537284D01*
X135190067Y-85569889D01*
X135224426Y-85630726D01*
X135226938Y-85645559D01*
X135230907Y-85682480D01*
X135281202Y-85817328D01*
X135281206Y-85817335D01*
X135367452Y-85932544D01*
X135367455Y-85932547D01*
X135482664Y-86018793D01*
X135482671Y-86018797D01*
X135617517Y-86069091D01*
X135617516Y-86069091D01*
X135624444Y-86069835D01*
X135677127Y-86075500D01*
X137372872Y-86075499D01*
X137432483Y-86069091D01*
X137567331Y-86018796D01*
X137682546Y-85932546D01*
X137768796Y-85817331D01*
X137819091Y-85682483D01*
X137825500Y-85622873D01*
X137825499Y-83127128D01*
X137819091Y-83067517D01*
X137814196Y-83054394D01*
X137768797Y-82932671D01*
X137768793Y-82932664D01*
X137682547Y-82817455D01*
X137682544Y-82817452D01*
X137567335Y-82731206D01*
X137567328Y-82731202D01*
X137432482Y-82680908D01*
X137432483Y-82680908D01*
X137372883Y-82674501D01*
X137372881Y-82674500D01*
X137372873Y-82674500D01*
X137372864Y-82674500D01*
X135677129Y-82674500D01*
X135677123Y-82674501D01*
X135617516Y-82680908D01*
X135482671Y-82731202D01*
X135482664Y-82731206D01*
X135367455Y-82817452D01*
X135367452Y-82817455D01*
X135281206Y-82932664D01*
X135281202Y-82932671D01*
X135230908Y-83067516D01*
X135226939Y-83104440D01*
X135200201Y-83168991D01*
X135142809Y-83208839D01*
X135072983Y-83211332D01*
X135012895Y-83175679D01*
X135003332Y-83164070D01*
X134976967Y-83127782D01*
X134832213Y-82983028D01*
X134666613Y-82862715D01*
X134666612Y-82862714D01*
X134666610Y-82862713D01*
X134609653Y-82833691D01*
X134484223Y-82769781D01*
X134289534Y-82706522D01*
X134114995Y-82678878D01*
X134087352Y-82674500D01*
X133882648Y-82674500D01*
X133858329Y-82678351D01*
X133680465Y-82706522D01*
X133485776Y-82769781D01*
X133303386Y-82862715D01*
X133137786Y-82983028D01*
X132993028Y-83127786D01*
X132872715Y-83293386D01*
X132825485Y-83386080D01*
X132777510Y-83436876D01*
X132709689Y-83453671D01*
X132643554Y-83431134D01*
X132604515Y-83386080D01*
X132579844Y-83337661D01*
X132557287Y-83293390D01*
X132549556Y-83282749D01*
X132436971Y-83127786D01*
X132292213Y-82983028D01*
X132126613Y-82862715D01*
X132126612Y-82862714D01*
X132126610Y-82862713D01*
X132069653Y-82833691D01*
X131944223Y-82769781D01*
X131749534Y-82706522D01*
X131574995Y-82678878D01*
X131547352Y-82674500D01*
X131342648Y-82674500D01*
X131318329Y-82678351D01*
X131140465Y-82706522D01*
X130945776Y-82769781D01*
X130763386Y-82862715D01*
X130597786Y-82983028D01*
X130453028Y-83127786D01*
X130332715Y-83293386D01*
X130285485Y-83386080D01*
X130237510Y-83436876D01*
X130169689Y-83453671D01*
X130103554Y-83431134D01*
X130064515Y-83386080D01*
X130039844Y-83337661D01*
X130017287Y-83293390D01*
X130009556Y-83282749D01*
X129896971Y-83127786D01*
X129752213Y-82983028D01*
X129586613Y-82862715D01*
X129586612Y-82862714D01*
X129586610Y-82862713D01*
X129529653Y-82833691D01*
X129404223Y-82769781D01*
X129209534Y-82706522D01*
X129034995Y-82678878D01*
X129007352Y-82674500D01*
X128802648Y-82674500D01*
X128778329Y-82678351D01*
X128600465Y-82706522D01*
X128405776Y-82769781D01*
X128223386Y-82862715D01*
X128057786Y-82983028D01*
X127913028Y-83127786D01*
X127792715Y-83293386D01*
X127745485Y-83386080D01*
X127697510Y-83436876D01*
X127629689Y-83453671D01*
X127563554Y-83431134D01*
X127524515Y-83386080D01*
X127499844Y-83337661D01*
X127477287Y-83293390D01*
X127469556Y-83282749D01*
X127356971Y-83127786D01*
X127212213Y-82983028D01*
X127046613Y-82862715D01*
X127046612Y-82862714D01*
X127046610Y-82862713D01*
X126989653Y-82833691D01*
X126864223Y-82769781D01*
X126669534Y-82706522D01*
X126494995Y-82678878D01*
X126467352Y-82674500D01*
X126262648Y-82674500D01*
X126238329Y-82678351D01*
X126060465Y-82706522D01*
X125865776Y-82769781D01*
X125683386Y-82862715D01*
X125517786Y-82983028D01*
X125373028Y-83127786D01*
X125252715Y-83293386D01*
X125205485Y-83386080D01*
X125157510Y-83436876D01*
X125089689Y-83453671D01*
X125023554Y-83431134D01*
X124984515Y-83386080D01*
X124959844Y-83337661D01*
X124937287Y-83293390D01*
X124929556Y-83282749D01*
X124816971Y-83127786D01*
X124672213Y-82983028D01*
X124506613Y-82862715D01*
X124506612Y-82862714D01*
X124506610Y-82862713D01*
X124449653Y-82833691D01*
X124324223Y-82769781D01*
X124129534Y-82706522D01*
X123954995Y-82678878D01*
X123927352Y-82674500D01*
X123722648Y-82674500D01*
X123698329Y-82678351D01*
X123520465Y-82706522D01*
X123325776Y-82769781D01*
X123143386Y-82862715D01*
X122977786Y-82983028D01*
X122833028Y-83127786D01*
X122712715Y-83293386D01*
X122665485Y-83386080D01*
X122617510Y-83436876D01*
X122549689Y-83453671D01*
X122483554Y-83431134D01*
X122444515Y-83386080D01*
X122419844Y-83337661D01*
X122397287Y-83293390D01*
X122389556Y-83282749D01*
X122276971Y-83127786D01*
X122132213Y-82983028D01*
X121966613Y-82862715D01*
X121966612Y-82862714D01*
X121966610Y-82862713D01*
X121909653Y-82833691D01*
X121784223Y-82769781D01*
X121589534Y-82706522D01*
X121414995Y-82678878D01*
X121387352Y-82674500D01*
X121182648Y-82674500D01*
X121158329Y-82678351D01*
X120980465Y-82706522D01*
X120785776Y-82769781D01*
X120603386Y-82862715D01*
X120437786Y-82983028D01*
X120293028Y-83127786D01*
X120172713Y-83293388D01*
X120125203Y-83386630D01*
X120077228Y-83437426D01*
X120009407Y-83454220D01*
X119943272Y-83431682D01*
X119904234Y-83386628D01*
X119856861Y-83293652D01*
X119736582Y-83128105D01*
X119736582Y-83128104D01*
X119591895Y-82983417D01*
X119426349Y-82863140D01*
X119244029Y-82770244D01*
X119049413Y-82707009D01*
X118995000Y-82698390D01*
X118995000Y-84059314D01*
X118990606Y-84054920D01*
X118899394Y-84002259D01*
X118797661Y-83975000D01*
X118692339Y-83975000D01*
X118590606Y-84002259D01*
X118499394Y-84054920D01*
X118495000Y-84059314D01*
X118495000Y-82698390D01*
X118440586Y-82707009D01*
X118245970Y-82770244D01*
X118063650Y-82863140D01*
X117898105Y-82983417D01*
X117898104Y-82983417D01*
X117753417Y-83128104D01*
X117753417Y-83128105D01*
X117633140Y-83293650D01*
X117540244Y-83475968D01*
X117477009Y-83670582D01*
X117445000Y-83872682D01*
X117445000Y-84125000D01*
X118429314Y-84125000D01*
X118424920Y-84129394D01*
X118372259Y-84220606D01*
X118345000Y-84322339D01*
X118345000Y-84427661D01*
X118372259Y-84529394D01*
X118424920Y-84620606D01*
X118429314Y-84625000D01*
X117445000Y-84625000D01*
X117445000Y-84877317D01*
X117477009Y-85079417D01*
X117540244Y-85274031D01*
X117633140Y-85456349D01*
X117753417Y-85621894D01*
X117753417Y-85621895D01*
X117898104Y-85766582D01*
X118063650Y-85886859D01*
X118245968Y-85979754D01*
X118440578Y-86042988D01*
X118495000Y-86051607D01*
X118495000Y-84690686D01*
X118499394Y-84695080D01*
X118590606Y-84747741D01*
X118692339Y-84775000D01*
X118797661Y-84775000D01*
X118899394Y-84747741D01*
X118990606Y-84695080D01*
X118995000Y-84690686D01*
X118995000Y-86051606D01*
X119049421Y-86042988D01*
X119244031Y-85979754D01*
X119426349Y-85886859D01*
X119591894Y-85766582D01*
X119591895Y-85766582D01*
X119736582Y-85621895D01*
X119736582Y-85621894D01*
X119856861Y-85456347D01*
X119904234Y-85363371D01*
X119952208Y-85312575D01*
X120020028Y-85295779D01*
X120086164Y-85318316D01*
X120125203Y-85363369D01*
X120172712Y-85456609D01*
X120293028Y-85622213D01*
X120293034Y-85622219D01*
X120437781Y-85766966D01*
X120603390Y-85887287D01*
X120616793Y-85894116D01*
X120667589Y-85942088D01*
X120684500Y-86004601D01*
X120684500Y-87373330D01*
X120684499Y-87373348D01*
X120684499Y-87539054D01*
X120684498Y-87539054D01*
X120722979Y-87682666D01*
X120725423Y-87691785D01*
X120727361Y-87695142D01*
X120727825Y-87695944D01*
X120727828Y-87695951D01*
X120804475Y-87828709D01*
X120804481Y-87828717D01*
X120923349Y-87947585D01*
X120923355Y-87947590D01*
X121915139Y-88939374D01*
X121915149Y-88939385D01*
X121919479Y-88943715D01*
X121919480Y-88943716D01*
X122031284Y-89055520D01*
X122103556Y-89097245D01*
X122118095Y-89105639D01*
X122118097Y-89105641D01*
X122152993Y-89125788D01*
X122168215Y-89134577D01*
X122320943Y-89175500D01*
X122479057Y-89175500D01*
X123317588Y-89175500D01*
X123384627Y-89195185D01*
X123394903Y-89202555D01*
X123397736Y-89204814D01*
X123397738Y-89204816D01*
X123510067Y-89275397D01*
X123548873Y-89299781D01*
X123550478Y-89300789D01*
X123673208Y-89343734D01*
X123720745Y-89360368D01*
X123720750Y-89360369D01*
X123899996Y-89380565D01*
X123900000Y-89380565D01*
X123900004Y-89380565D01*
X124079249Y-89360369D01*
X124079252Y-89360368D01*
X124079255Y-89360368D01*
X124249522Y-89300789D01*
X124402262Y-89204816D01*
X124529816Y-89077262D01*
X124625789Y-88924522D01*
X124685368Y-88754255D01*
X124685901Y-88749523D01*
X124705565Y-88575003D01*
X124705565Y-88574996D01*
X124685369Y-88395750D01*
X124685368Y-88395745D01*
X124625788Y-88225476D01*
X124529815Y-88072737D01*
X124402262Y-87945184D01*
X124249523Y-87849211D01*
X124079254Y-87789631D01*
X124079249Y-87789630D01*
X123900004Y-87769435D01*
X123899996Y-87769435D01*
X123720750Y-87789630D01*
X123720745Y-87789631D01*
X123550476Y-87849211D01*
X123397736Y-87945185D01*
X123394903Y-87947445D01*
X123392724Y-87948334D01*
X123391842Y-87948889D01*
X123391744Y-87948734D01*
X123330217Y-87973855D01*
X123317588Y-87974500D01*
X122700097Y-87974500D01*
X122633058Y-87954815D01*
X122612416Y-87938181D01*
X121921819Y-87247584D01*
X121888334Y-87186261D01*
X121885500Y-87159903D01*
X121885500Y-86004601D01*
X121905185Y-85937562D01*
X121953206Y-85894116D01*
X121966610Y-85887287D01*
X122132219Y-85766966D01*
X122276966Y-85622219D01*
X122276968Y-85622215D01*
X122276971Y-85622213D01*
X122397284Y-85456614D01*
X122397286Y-85456611D01*
X122397287Y-85456610D01*
X122444516Y-85363917D01*
X122492489Y-85313123D01*
X122560310Y-85296328D01*
X122626445Y-85318865D01*
X122665483Y-85363917D01*
X122683614Y-85399500D01*
X122712715Y-85456614D01*
X122833028Y-85622213D01*
X122977786Y-85766971D01*
X123125392Y-85874211D01*
X123143390Y-85887287D01*
X123224499Y-85928614D01*
X123325776Y-85980218D01*
X123325778Y-85980218D01*
X123325781Y-85980220D01*
X123386658Y-86000000D01*
X123520465Y-86043477D01*
X123621557Y-86059488D01*
X123722648Y-86075500D01*
X123722649Y-86075500D01*
X123927351Y-86075500D01*
X123927352Y-86075500D01*
X124129534Y-86043477D01*
X124324219Y-85980220D01*
X124506610Y-85887287D01*
X124634411Y-85794435D01*
X124672213Y-85766971D01*
X124672215Y-85766968D01*
X124672219Y-85766966D01*
X124816966Y-85622219D01*
X124816968Y-85622215D01*
X124816971Y-85622213D01*
X124937284Y-85456614D01*
X124937286Y-85456611D01*
X124937287Y-85456610D01*
X124984516Y-85363917D01*
X125032489Y-85313123D01*
X125100310Y-85296328D01*
X125166445Y-85318865D01*
X125205483Y-85363917D01*
X125223614Y-85399500D01*
X125252715Y-85456614D01*
X125373028Y-85622213D01*
X125517786Y-85766971D01*
X125665392Y-85874211D01*
X125683390Y-85887287D01*
X125764499Y-85928614D01*
X125865776Y-85980218D01*
X125865778Y-85980218D01*
X125865781Y-85980220D01*
X125926658Y-86000000D01*
X126060465Y-86043477D01*
X126161557Y-86059488D01*
X126262648Y-86075500D01*
X126262649Y-86075500D01*
X126467351Y-86075500D01*
X126467352Y-86075500D01*
X126669534Y-86043477D01*
X126864219Y-85980220D01*
X127046610Y-85887287D01*
X127174411Y-85794435D01*
X127212213Y-85766971D01*
X127212215Y-85766968D01*
X127212219Y-85766966D01*
X127356966Y-85622219D01*
X127356968Y-85622215D01*
X127356971Y-85622213D01*
X127477284Y-85456614D01*
X127477286Y-85456611D01*
X127477287Y-85456610D01*
X127524516Y-85363917D01*
X127572489Y-85313123D01*
X127640310Y-85296328D01*
X127706445Y-85318865D01*
X127745483Y-85363917D01*
X127763614Y-85399500D01*
X127792715Y-85456614D01*
X127913028Y-85622213D01*
X127913034Y-85622219D01*
X128057781Y-85766966D01*
X128223390Y-85887287D01*
X128236793Y-85894116D01*
X128287589Y-85942088D01*
X128304500Y-86004601D01*
X128304500Y-87393330D01*
X128304499Y-87393348D01*
X128304499Y-87559054D01*
X128304498Y-87559054D01*
X128345424Y-87711789D01*
X128345425Y-87711790D01*
X128361298Y-87739282D01*
X128361299Y-87739283D01*
X128424477Y-87848712D01*
X128424481Y-87848717D01*
X128543349Y-87967585D01*
X128543355Y-87967590D01*
X129315139Y-88739374D01*
X129315149Y-88739385D01*
X129319479Y-88743715D01*
X129319480Y-88743716D01*
X129431284Y-88855520D01*
X129512244Y-88902262D01*
X129568215Y-88934577D01*
X129720943Y-88975500D01*
X129879057Y-88975500D01*
X137074903Y-88975500D01*
X137141942Y-88995185D01*
X137162584Y-89011819D01*
X137963181Y-89812416D01*
X137996666Y-89873739D01*
X137999500Y-89900097D01*
X137999500Y-91141634D01*
X137979815Y-91208673D01*
X137927011Y-91254428D01*
X137857853Y-91264372D01*
X137794297Y-91235347D01*
X137757569Y-91179953D01*
X137754335Y-91170000D01*
X137730220Y-91095781D01*
X137730218Y-91095778D01*
X137730218Y-91095776D01*
X137666131Y-90970000D01*
X137637287Y-90913390D01*
X137629556Y-90902749D01*
X137516971Y-90747786D01*
X137372213Y-90603028D01*
X137206613Y-90482715D01*
X137206612Y-90482714D01*
X137206610Y-90482713D01*
X137149653Y-90453691D01*
X137024223Y-90389781D01*
X136829534Y-90326522D01*
X136654995Y-90298878D01*
X136627352Y-90294500D01*
X136422648Y-90294500D01*
X136398329Y-90298351D01*
X136220465Y-90326522D01*
X136025776Y-90389781D01*
X135843386Y-90482715D01*
X135677786Y-90603028D01*
X135533028Y-90747786D01*
X135412715Y-90913386D01*
X135365485Y-91006080D01*
X135317510Y-91056876D01*
X135249689Y-91073671D01*
X135183554Y-91051134D01*
X135144515Y-91006080D01*
X135126131Y-90970000D01*
X135097287Y-90913390D01*
X135089556Y-90902749D01*
X134976971Y-90747786D01*
X134832213Y-90603028D01*
X134666613Y-90482715D01*
X134666612Y-90482714D01*
X134666610Y-90482713D01*
X134609653Y-90453691D01*
X134484223Y-90389781D01*
X134289534Y-90326522D01*
X134114995Y-90298878D01*
X134087352Y-90294500D01*
X133882648Y-90294500D01*
X133858329Y-90298351D01*
X133680465Y-90326522D01*
X133485776Y-90389781D01*
X133303386Y-90482715D01*
X133137786Y-90603028D01*
X132993028Y-90747786D01*
X132872715Y-90913386D01*
X132825485Y-91006080D01*
X132777510Y-91056876D01*
X132709689Y-91073671D01*
X132643554Y-91051134D01*
X132604515Y-91006080D01*
X132586131Y-90970000D01*
X132557287Y-90913390D01*
X132549556Y-90902749D01*
X132436971Y-90747786D01*
X132292213Y-90603028D01*
X132126613Y-90482715D01*
X132126612Y-90482714D01*
X132126610Y-90482713D01*
X132069653Y-90453691D01*
X131944223Y-90389781D01*
X131749534Y-90326522D01*
X131574995Y-90298878D01*
X131547352Y-90294500D01*
X131342648Y-90294500D01*
X131318329Y-90298351D01*
X131140465Y-90326522D01*
X130945776Y-90389781D01*
X130763386Y-90482715D01*
X130597786Y-90603028D01*
X130453028Y-90747786D01*
X130332715Y-90913386D01*
X130285485Y-91006080D01*
X130237510Y-91056876D01*
X130169689Y-91073671D01*
X130103554Y-91051134D01*
X130064515Y-91006080D01*
X130046131Y-90970000D01*
X130017287Y-90913390D01*
X130009556Y-90902749D01*
X129896971Y-90747786D01*
X129752213Y-90603028D01*
X129586613Y-90482715D01*
X129586612Y-90482714D01*
X129586610Y-90482713D01*
X129529653Y-90453691D01*
X129404223Y-90389781D01*
X129209534Y-90326522D01*
X129034995Y-90298878D01*
X129007352Y-90294500D01*
X128802648Y-90294500D01*
X128778329Y-90298351D01*
X128600465Y-90326522D01*
X128405776Y-90389781D01*
X128223386Y-90482715D01*
X128057786Y-90603028D01*
X127913028Y-90747786D01*
X127792715Y-90913386D01*
X127745485Y-91006080D01*
X127697510Y-91056876D01*
X127629689Y-91073671D01*
X127563554Y-91051134D01*
X127524515Y-91006080D01*
X127506131Y-90970000D01*
X127477287Y-90913390D01*
X127469556Y-90902749D01*
X127356971Y-90747786D01*
X127212213Y-90603028D01*
X127046613Y-90482715D01*
X127046612Y-90482714D01*
X127046610Y-90482713D01*
X126989653Y-90453691D01*
X126864223Y-90389781D01*
X126669534Y-90326522D01*
X126494995Y-90298878D01*
X126467352Y-90294500D01*
X126262648Y-90294500D01*
X126238329Y-90298351D01*
X126060465Y-90326522D01*
X125865776Y-90389781D01*
X125683386Y-90482715D01*
X125517786Y-90603028D01*
X125373028Y-90747786D01*
X125252715Y-90913386D01*
X125205485Y-91006080D01*
X125157510Y-91056876D01*
X125089689Y-91073671D01*
X125023554Y-91051134D01*
X124984515Y-91006080D01*
X124966131Y-90970000D01*
X124937287Y-90913390D01*
X124929556Y-90902749D01*
X124816971Y-90747786D01*
X124672213Y-90603028D01*
X124506613Y-90482715D01*
X124506612Y-90482714D01*
X124506610Y-90482713D01*
X124449653Y-90453691D01*
X124324223Y-90389781D01*
X124129534Y-90326522D01*
X123954995Y-90298878D01*
X123927352Y-90294500D01*
X123722648Y-90294500D01*
X123698329Y-90298351D01*
X123520465Y-90326522D01*
X123325776Y-90389781D01*
X123143386Y-90482715D01*
X122977786Y-90603028D01*
X122833028Y-90747786D01*
X122712715Y-90913386D01*
X122665485Y-91006080D01*
X122617510Y-91056876D01*
X122549689Y-91073671D01*
X122483554Y-91051134D01*
X122444515Y-91006080D01*
X122426131Y-90970000D01*
X122397287Y-90913390D01*
X122389556Y-90902749D01*
X122276971Y-90747786D01*
X122132213Y-90603028D01*
X121966613Y-90482715D01*
X121966612Y-90482714D01*
X121966610Y-90482713D01*
X121909653Y-90453691D01*
X121784223Y-90389781D01*
X121589534Y-90326522D01*
X121414995Y-90298878D01*
X121387352Y-90294500D01*
X121182648Y-90294500D01*
X121158329Y-90298351D01*
X120980465Y-90326522D01*
X120785776Y-90389781D01*
X120603386Y-90482715D01*
X120437786Y-90603028D01*
X120293028Y-90747786D01*
X120172715Y-90913386D01*
X120125485Y-91006080D01*
X120077510Y-91056876D01*
X120009689Y-91073671D01*
X119943554Y-91051134D01*
X119904515Y-91006080D01*
X119886131Y-90970000D01*
X119857287Y-90913390D01*
X119849556Y-90902749D01*
X119736971Y-90747786D01*
X119592213Y-90603028D01*
X119426613Y-90482715D01*
X119426612Y-90482714D01*
X119426610Y-90482713D01*
X119369653Y-90453691D01*
X119244223Y-90389781D01*
X119049534Y-90326522D01*
X118874995Y-90298878D01*
X118847352Y-90294500D01*
X118642648Y-90294500D01*
X118618329Y-90298351D01*
X118440465Y-90326522D01*
X118245776Y-90389781D01*
X118063386Y-90482715D01*
X117897786Y-90603028D01*
X117753028Y-90747786D01*
X117632715Y-90913386D01*
X117539781Y-91095776D01*
X117476522Y-91290465D01*
X117444500Y-91492648D01*
X117444500Y-92497351D01*
X117476522Y-92699534D01*
X117539781Y-92894223D01*
X117632715Y-93076613D01*
X117753028Y-93242213D01*
X117897786Y-93386971D01*
X118026548Y-93480520D01*
X118063390Y-93507287D01*
X118160455Y-93556744D01*
X118245776Y-93600218D01*
X118245778Y-93600218D01*
X118245781Y-93600220D01*
X118322763Y-93625233D01*
X118440465Y-93663477D01*
X118541557Y-93679488D01*
X118642648Y-93695500D01*
X118642649Y-93695500D01*
X118847351Y-93695500D01*
X118847352Y-93695500D01*
X119049534Y-93663477D01*
X119244219Y-93600220D01*
X119426610Y-93507287D01*
X119546619Y-93420096D01*
X119592213Y-93386971D01*
X119592215Y-93386968D01*
X119592219Y-93386966D01*
X119736966Y-93242219D01*
X119736968Y-93242215D01*
X119736971Y-93242213D01*
X119857284Y-93076614D01*
X119857285Y-93076613D01*
X119857287Y-93076610D01*
X119904516Y-92983917D01*
X119952489Y-92933123D01*
X120020310Y-92916328D01*
X120086445Y-92938865D01*
X120125485Y-92983919D01*
X120172715Y-93076614D01*
X120293028Y-93242213D01*
X120293034Y-93242219D01*
X120437781Y-93386966D01*
X120483384Y-93420098D01*
X120526050Y-93475425D01*
X120534500Y-93520416D01*
X120534500Y-94503918D01*
X120534500Y-94503920D01*
X120534499Y-94503920D01*
X120563340Y-94648907D01*
X120563343Y-94648917D01*
X120619912Y-94785489D01*
X120619915Y-94785494D01*
X120619916Y-94785495D01*
X120621113Y-94787286D01*
X120621119Y-94787307D01*
X120621125Y-94787304D01*
X120671823Y-94863181D01*
X120702051Y-94908420D01*
X121536089Y-95742458D01*
X121569574Y-95803781D01*
X121564590Y-95873473D01*
X121522718Y-95929406D01*
X121457254Y-95953823D01*
X121413473Y-95949116D01*
X121391756Y-95942739D01*
X121362392Y-95934117D01*
X121362386Y-95934116D01*
X121243365Y-95917003D01*
X121121622Y-95899500D01*
X121065892Y-95899500D01*
X115965892Y-95899500D01*
X115900000Y-95899500D01*
X115778378Y-95899500D01*
X115717506Y-95908251D01*
X115537613Y-95934116D01*
X115537603Y-95934118D01*
X115361694Y-95985770D01*
X115348993Y-95989500D01*
X115330340Y-95994977D01*
X115295405Y-96000000D01*
X108996115Y-96000000D01*
X108929076Y-95980315D01*
X108883321Y-95927511D01*
X108873377Y-95858353D01*
X108894540Y-95804877D01*
X108894541Y-95804876D01*
X108990568Y-95667734D01*
X109086739Y-95461496D01*
X109145635Y-95241692D01*
X109165468Y-95015000D01*
X109145635Y-94788308D01*
X109086739Y-94568504D01*
X108990568Y-94362266D01*
X108860047Y-94175861D01*
X108860045Y-94175858D01*
X108699141Y-94014954D01*
X108512734Y-93884432D01*
X108512732Y-93884431D01*
X108306497Y-93788261D01*
X108306488Y-93788258D01*
X108086697Y-93729366D01*
X108086693Y-93729365D01*
X108086692Y-93729365D01*
X108086691Y-93729364D01*
X108086686Y-93729364D01*
X107860002Y-93709532D01*
X107859998Y-93709532D01*
X107633313Y-93729364D01*
X107633302Y-93729366D01*
X107413511Y-93788258D01*
X107413502Y-93788261D01*
X107207267Y-93884431D01*
X107207265Y-93884432D01*
X107020858Y-94014954D01*
X106859954Y-94175858D01*
X106729432Y-94362265D01*
X106729431Y-94362267D01*
X106633261Y-94568502D01*
X106633258Y-94568511D01*
X106574366Y-94788302D01*
X106574364Y-94788313D01*
X106554532Y-95014998D01*
X106554532Y-95015001D01*
X106574364Y-95241686D01*
X106574366Y-95241697D01*
X106633258Y-95461488D01*
X106633261Y-95461496D01*
X106729432Y-95667734D01*
X106824692Y-95803781D01*
X106825460Y-95804877D01*
X106847787Y-95871083D01*
X106830777Y-95938850D01*
X106779828Y-95986663D01*
X106723885Y-96000000D01*
X103995504Y-96000000D01*
X103928465Y-95980315D01*
X103882710Y-95927511D01*
X103872766Y-95858353D01*
X103893929Y-95804876D01*
X103990134Y-95667482D01*
X104086265Y-95461326D01*
X104086269Y-95461317D01*
X104145139Y-95241610D01*
X104145141Y-95241599D01*
X104164966Y-95015002D01*
X104164966Y-95014997D01*
X104145141Y-94788400D01*
X104145139Y-94788389D01*
X104086269Y-94568682D01*
X104086264Y-94568668D01*
X103990136Y-94362521D01*
X103990132Y-94362513D01*
X103939025Y-94289526D01*
X103260000Y-94968551D01*
X103260000Y-94962339D01*
X103232741Y-94860606D01*
X103180080Y-94769394D01*
X103105606Y-94694920D01*
X103014394Y-94642259D01*
X102912661Y-94615000D01*
X102906448Y-94615000D01*
X103585472Y-93935974D01*
X103512478Y-93884863D01*
X103306331Y-93788735D01*
X103306317Y-93788730D01*
X103086610Y-93729860D01*
X103086599Y-93729858D01*
X102860002Y-93710034D01*
X102859998Y-93710034D01*
X102633400Y-93729858D01*
X102633389Y-93729860D01*
X102413682Y-93788730D01*
X102413673Y-93788734D01*
X102207516Y-93884866D01*
X102207512Y-93884868D01*
X102134526Y-93935973D01*
X102134526Y-93935974D01*
X102813553Y-94615000D01*
X102807339Y-94615000D01*
X102705606Y-94642259D01*
X102614394Y-94694920D01*
X102539920Y-94769394D01*
X102487259Y-94860606D01*
X102460000Y-94962339D01*
X102460000Y-94968552D01*
X101770384Y-94278936D01*
X101741806Y-94273193D01*
X101691624Y-94224577D01*
X101675500Y-94163432D01*
X101675500Y-89722135D01*
X109449500Y-89722135D01*
X109449500Y-91417870D01*
X109449501Y-91417876D01*
X109455908Y-91477483D01*
X109506202Y-91612328D01*
X109506206Y-91612335D01*
X109592452Y-91727544D01*
X109592455Y-91727547D01*
X109707664Y-91813793D01*
X109707671Y-91813797D01*
X109842517Y-91864091D01*
X109842516Y-91864091D01*
X109849444Y-91864835D01*
X109902127Y-91870500D01*
X111597872Y-91870499D01*
X111657483Y-91864091D01*
X111792331Y-91813796D01*
X111907546Y-91727546D01*
X111993796Y-91612331D01*
X112044091Y-91477483D01*
X112050500Y-91417873D01*
X112050499Y-90569997D01*
X112945034Y-90569997D01*
X112945034Y-90570002D01*
X112964858Y-90796599D01*
X112964860Y-90796610D01*
X113023730Y-91016317D01*
X113023735Y-91016331D01*
X113119863Y-91222478D01*
X113170974Y-91295472D01*
X113850000Y-90616446D01*
X113850000Y-90622661D01*
X113877259Y-90724394D01*
X113929920Y-90815606D01*
X114004394Y-90890080D01*
X114095606Y-90942741D01*
X114197339Y-90970000D01*
X114203553Y-90970000D01*
X113524526Y-91649025D01*
X113597513Y-91700132D01*
X113597521Y-91700136D01*
X113803668Y-91796264D01*
X113803682Y-91796269D01*
X114023389Y-91855139D01*
X114023400Y-91855141D01*
X114249998Y-91874966D01*
X114250002Y-91874966D01*
X114476599Y-91855141D01*
X114476610Y-91855139D01*
X114696317Y-91796269D01*
X114696331Y-91796264D01*
X114902478Y-91700136D01*
X114975471Y-91649024D01*
X114296447Y-90970000D01*
X114302661Y-90970000D01*
X114404394Y-90942741D01*
X114495606Y-90890080D01*
X114570080Y-90815606D01*
X114622741Y-90724394D01*
X114650000Y-90622661D01*
X114650000Y-90616447D01*
X115329024Y-91295471D01*
X115380136Y-91222478D01*
X115476264Y-91016331D01*
X115476269Y-91016317D01*
X115535139Y-90796610D01*
X115535141Y-90796599D01*
X115554966Y-90570002D01*
X115554966Y-90569997D01*
X115535141Y-90343400D01*
X115535139Y-90343389D01*
X115476269Y-90123682D01*
X115476264Y-90123668D01*
X115380136Y-89917521D01*
X115380132Y-89917513D01*
X115329025Y-89844526D01*
X114650000Y-90523551D01*
X114650000Y-90517339D01*
X114622741Y-90415606D01*
X114570080Y-90324394D01*
X114495606Y-90249920D01*
X114404394Y-90197259D01*
X114302661Y-90170000D01*
X114296448Y-90170000D01*
X114975472Y-89490974D01*
X114902478Y-89439863D01*
X114696331Y-89343735D01*
X114696317Y-89343730D01*
X114476610Y-89284860D01*
X114476599Y-89284858D01*
X114250002Y-89265034D01*
X114249998Y-89265034D01*
X114023400Y-89284858D01*
X114023389Y-89284860D01*
X113803682Y-89343730D01*
X113803673Y-89343734D01*
X113597516Y-89439866D01*
X113597512Y-89439868D01*
X113524526Y-89490973D01*
X113524526Y-89490974D01*
X114203553Y-90170000D01*
X114197339Y-90170000D01*
X114095606Y-90197259D01*
X114004394Y-90249920D01*
X113929920Y-90324394D01*
X113877259Y-90415606D01*
X113850000Y-90517339D01*
X113850000Y-90523552D01*
X113170974Y-89844526D01*
X113170973Y-89844526D01*
X113119868Y-89917512D01*
X113119866Y-89917516D01*
X113023734Y-90123673D01*
X113023730Y-90123682D01*
X112964860Y-90343389D01*
X112964858Y-90343400D01*
X112945034Y-90569997D01*
X112050499Y-90569997D01*
X112050499Y-89722128D01*
X112044091Y-89662517D01*
X112042326Y-89657786D01*
X111993797Y-89527671D01*
X111993793Y-89527664D01*
X111907547Y-89412455D01*
X111907544Y-89412452D01*
X111792335Y-89326206D01*
X111792328Y-89326202D01*
X111657482Y-89275908D01*
X111657483Y-89275908D01*
X111597883Y-89269501D01*
X111597881Y-89269500D01*
X111597873Y-89269500D01*
X111597864Y-89269500D01*
X109902129Y-89269500D01*
X109902123Y-89269501D01*
X109842516Y-89275908D01*
X109707671Y-89326202D01*
X109707664Y-89326206D01*
X109592455Y-89412452D01*
X109592452Y-89412455D01*
X109506206Y-89527664D01*
X109506202Y-89527671D01*
X109455908Y-89662517D01*
X109449501Y-89722116D01*
X109449501Y-89722123D01*
X109449500Y-89722135D01*
X101675500Y-89722135D01*
X101675500Y-78690429D01*
X101695185Y-78623390D01*
X101747989Y-78577635D01*
X101817147Y-78567691D01*
X101880703Y-78596716D01*
X101915264Y-78645992D01*
X101972745Y-78795736D01*
X102139320Y-79122656D01*
X102339147Y-79430364D01*
X102519980Y-79653673D01*
X102570051Y-79715506D01*
X102829494Y-79974949D01*
X102829498Y-79974952D01*
X103114635Y-80205852D01*
X103414368Y-80400500D01*
X103422348Y-80405682D01*
X103749264Y-80572255D01*
X104091801Y-80703742D01*
X104446206Y-80798705D01*
X104808596Y-80856102D01*
X105154734Y-80874241D01*
X105174999Y-80875304D01*
X105175000Y-80875304D01*
X105175001Y-80875304D01*
X105194203Y-80874297D01*
X105541404Y-80856102D01*
X105903794Y-80798705D01*
X106258199Y-80703742D01*
X106600736Y-80572255D01*
X106927652Y-80405682D01*
X107235366Y-80205851D01*
X107520506Y-79974949D01*
X107779949Y-79715506D01*
X108010851Y-79430366D01*
X108210682Y-79122652D01*
X108377255Y-78795736D01*
X108508742Y-78453199D01*
X108603705Y-78098794D01*
X108661102Y-77736404D01*
X108680304Y-77370000D01*
X108661102Y-77003596D01*
X108603705Y-76641206D01*
X108508742Y-76286801D01*
X108377255Y-75944264D01*
X108210682Y-75617348D01*
X108210679Y-75617343D01*
X108010852Y-75309635D01*
X107851918Y-75113368D01*
X107779949Y-75024494D01*
X107520506Y-74765051D01*
X107274527Y-74565861D01*
X107235364Y-74534147D01*
X106927656Y-74334320D01*
X106600739Y-74167746D01*
X106258206Y-74036260D01*
X106258199Y-74036258D01*
X105903794Y-73941295D01*
X105903790Y-73941294D01*
X105903789Y-73941294D01*
X105541405Y-73883898D01*
X105175001Y-73864696D01*
X105174999Y-73864696D01*
X104808594Y-73883898D01*
X104446211Y-73941294D01*
X104446209Y-73941294D01*
X104091793Y-74036260D01*
X103749260Y-74167746D01*
X103422343Y-74334320D01*
X103114635Y-74534147D01*
X102829498Y-74765047D01*
X102829490Y-74765054D01*
X102570054Y-75024490D01*
X102570047Y-75024498D01*
X102339147Y-75309635D01*
X102139320Y-75617343D01*
X101972746Y-75944260D01*
X101915264Y-76094008D01*
X101872862Y-76149540D01*
X101807168Y-76173333D01*
X101739040Y-76157831D01*
X101690107Y-76107958D01*
X101675500Y-76049570D01*
X101675500Y-68324995D01*
X106800451Y-68324995D01*
X106800451Y-68325004D01*
X106820616Y-68594101D01*
X106880664Y-68857188D01*
X106880666Y-68857195D01*
X106926901Y-68975000D01*
X106979257Y-69108398D01*
X107114185Y-69342102D01*
X107167655Y-69409151D01*
X107282442Y-69553089D01*
X107469183Y-69726358D01*
X107480259Y-69736635D01*
X107703226Y-69888651D01*
X107946359Y-70005738D01*
X108204228Y-70085280D01*
X108204229Y-70085280D01*
X108204232Y-70085281D01*
X108471063Y-70125499D01*
X108471068Y-70125499D01*
X108471071Y-70125500D01*
X108471072Y-70125500D01*
X108740928Y-70125500D01*
X108740929Y-70125500D01*
X108740936Y-70125499D01*
X109007767Y-70085281D01*
X109007768Y-70085280D01*
X109007772Y-70085280D01*
X109265641Y-70005738D01*
X109508775Y-69888651D01*
X109731741Y-69736635D01*
X109929561Y-69553085D01*
X110097815Y-69342102D01*
X110232743Y-69108398D01*
X110331334Y-68857195D01*
X110391383Y-68594103D01*
X110411549Y-68325000D01*
X110411549Y-68324995D01*
X111800451Y-68324995D01*
X111800451Y-68325004D01*
X111820616Y-68594101D01*
X111880664Y-68857188D01*
X111880666Y-68857195D01*
X111926901Y-68975000D01*
X111979257Y-69108398D01*
X112114185Y-69342102D01*
X112167655Y-69409151D01*
X112282442Y-69553089D01*
X112469183Y-69726358D01*
X112480259Y-69736635D01*
X112703226Y-69888651D01*
X112946359Y-70005738D01*
X113204228Y-70085280D01*
X113204229Y-70085280D01*
X113204232Y-70085281D01*
X113471063Y-70125499D01*
X113471068Y-70125499D01*
X113471071Y-70125500D01*
X113471072Y-70125500D01*
X113740928Y-70125500D01*
X113740929Y-70125500D01*
X113740936Y-70125499D01*
X114007767Y-70085281D01*
X114007768Y-70085280D01*
X114007772Y-70085280D01*
X114265641Y-70005738D01*
X114508775Y-69888651D01*
X114731741Y-69736635D01*
X114929561Y-69553085D01*
X115097815Y-69342102D01*
X115232743Y-69108398D01*
X115331334Y-68857195D01*
X115391383Y-68594103D01*
X115411549Y-68325000D01*
X115411549Y-68324995D01*
X116800953Y-68324995D01*
X116800953Y-68325004D01*
X116821113Y-68594026D01*
X116821113Y-68594028D01*
X116881142Y-68857033D01*
X116881148Y-68857052D01*
X116979709Y-69108181D01*
X116979708Y-69108181D01*
X117114602Y-69341822D01*
X117168294Y-69409151D01*
X117168295Y-69409151D01*
X118004958Y-68572488D01*
X118029978Y-68632890D01*
X118101112Y-68739351D01*
X118191649Y-68829888D01*
X118298110Y-68901022D01*
X118358510Y-68926041D01*
X117520848Y-69763702D01*
X117703483Y-69888220D01*
X117703485Y-69888221D01*
X117946539Y-70005269D01*
X117946537Y-70005269D01*
X118204337Y-70084790D01*
X118204343Y-70084792D01*
X118471101Y-70124999D01*
X118471110Y-70125000D01*
X118740890Y-70125000D01*
X118740898Y-70124999D01*
X119007656Y-70084792D01*
X119007662Y-70084790D01*
X119265461Y-70005269D01*
X119508521Y-69888218D01*
X119691150Y-69763702D01*
X118853488Y-68926041D01*
X118913890Y-68901022D01*
X119020351Y-68829888D01*
X119110888Y-68739351D01*
X119182022Y-68632890D01*
X119207041Y-68572488D01*
X120043703Y-69409151D01*
X120043704Y-69409150D01*
X120097393Y-69341828D01*
X120097400Y-69341817D01*
X120232290Y-69108181D01*
X120330851Y-68857052D01*
X120330857Y-68857033D01*
X120390886Y-68594028D01*
X120390886Y-68594026D01*
X120411047Y-68325004D01*
X120411047Y-68324995D01*
X121800953Y-68324995D01*
X121800953Y-68325004D01*
X121821113Y-68594026D01*
X121821113Y-68594028D01*
X121881142Y-68857033D01*
X121881148Y-68857052D01*
X121979709Y-69108181D01*
X121979708Y-69108181D01*
X122114602Y-69341822D01*
X122168294Y-69409151D01*
X122168295Y-69409151D01*
X123004958Y-68572488D01*
X123029978Y-68632890D01*
X123101112Y-68739351D01*
X123191649Y-68829888D01*
X123298110Y-68901022D01*
X123358510Y-68926041D01*
X122520848Y-69763702D01*
X122703483Y-69888220D01*
X122703485Y-69888221D01*
X122946539Y-70005269D01*
X122946537Y-70005269D01*
X123204337Y-70084790D01*
X123204343Y-70084792D01*
X123471101Y-70124999D01*
X123471110Y-70125000D01*
X123740890Y-70125000D01*
X123740898Y-70124999D01*
X124007656Y-70084792D01*
X124007662Y-70084790D01*
X124265461Y-70005269D01*
X124508521Y-69888218D01*
X124691150Y-69763702D01*
X123853488Y-68926041D01*
X123913890Y-68901022D01*
X124020351Y-68829888D01*
X124110888Y-68739351D01*
X124182022Y-68632890D01*
X124207041Y-68572488D01*
X125043703Y-69409151D01*
X125043704Y-69409150D01*
X125097393Y-69341828D01*
X125097400Y-69341817D01*
X125232290Y-69108181D01*
X125330851Y-68857052D01*
X125330857Y-68857033D01*
X125390886Y-68594028D01*
X125390886Y-68594026D01*
X125411047Y-68325004D01*
X125411047Y-68324995D01*
X125390886Y-68055973D01*
X125390886Y-68055971D01*
X125330857Y-67792966D01*
X125330851Y-67792947D01*
X125232290Y-67541818D01*
X125232291Y-67541818D01*
X125097397Y-67308177D01*
X125043704Y-67240847D01*
X124207041Y-68077510D01*
X124182022Y-68017110D01*
X124110888Y-67910649D01*
X124020351Y-67820112D01*
X123913890Y-67748978D01*
X123853488Y-67723958D01*
X124691150Y-66886296D01*
X124508517Y-66761779D01*
X124508516Y-66761778D01*
X124265460Y-66644730D01*
X124265462Y-66644730D01*
X124007662Y-66565209D01*
X124007656Y-66565207D01*
X123740898Y-66525000D01*
X123471101Y-66525000D01*
X123204343Y-66565207D01*
X123204337Y-66565209D01*
X122946538Y-66644730D01*
X122703485Y-66761778D01*
X122703476Y-66761783D01*
X122520848Y-66886296D01*
X123358511Y-67723958D01*
X123298110Y-67748978D01*
X123191649Y-67820112D01*
X123101112Y-67910649D01*
X123029978Y-68017110D01*
X123004958Y-68077511D01*
X122168295Y-67240848D01*
X122114600Y-67308180D01*
X121979709Y-67541818D01*
X121881148Y-67792947D01*
X121881142Y-67792966D01*
X121821113Y-68055971D01*
X121821113Y-68055973D01*
X121800953Y-68324995D01*
X120411047Y-68324995D01*
X120390886Y-68055973D01*
X120390886Y-68055971D01*
X120330857Y-67792966D01*
X120330851Y-67792947D01*
X120232290Y-67541818D01*
X120232291Y-67541818D01*
X120097397Y-67308177D01*
X120043704Y-67240847D01*
X119207041Y-68077510D01*
X119182022Y-68017110D01*
X119110888Y-67910649D01*
X119020351Y-67820112D01*
X118913890Y-67748978D01*
X118853488Y-67723958D01*
X119691150Y-66886296D01*
X119508517Y-66761779D01*
X119508516Y-66761778D01*
X119265460Y-66644730D01*
X119265462Y-66644730D01*
X119007662Y-66565209D01*
X119007656Y-66565207D01*
X118740898Y-66525000D01*
X118471101Y-66525000D01*
X118204343Y-66565207D01*
X118204337Y-66565209D01*
X117946538Y-66644730D01*
X117703485Y-66761778D01*
X117703476Y-66761783D01*
X117520848Y-66886296D01*
X118358511Y-67723958D01*
X118298110Y-67748978D01*
X118191649Y-67820112D01*
X118101112Y-67910649D01*
X118029978Y-68017110D01*
X118004958Y-68077511D01*
X117168295Y-67240848D01*
X117114600Y-67308180D01*
X116979709Y-67541818D01*
X116881148Y-67792947D01*
X116881142Y-67792966D01*
X116821113Y-68055971D01*
X116821113Y-68055973D01*
X116800953Y-68324995D01*
X115411549Y-68324995D01*
X115391383Y-68055897D01*
X115331334Y-67792805D01*
X115232743Y-67541602D01*
X115097815Y-67307898D01*
X114929561Y-67096915D01*
X114929560Y-67096914D01*
X114929557Y-67096910D01*
X114731741Y-66913365D01*
X114692038Y-66886296D01*
X114508775Y-66761349D01*
X114508769Y-66761346D01*
X114508768Y-66761345D01*
X114508767Y-66761344D01*
X114265643Y-66644263D01*
X114265645Y-66644263D01*
X114007773Y-66564720D01*
X114007767Y-66564718D01*
X113740936Y-66524500D01*
X113740929Y-66524500D01*
X113471071Y-66524500D01*
X113471063Y-66524500D01*
X113204232Y-66564718D01*
X113204226Y-66564720D01*
X112946358Y-66644262D01*
X112703230Y-66761346D01*
X112480258Y-66913365D01*
X112282442Y-67096910D01*
X112114185Y-67307898D01*
X111979258Y-67541599D01*
X111979256Y-67541603D01*
X111880666Y-67792804D01*
X111880664Y-67792811D01*
X111820616Y-68055898D01*
X111800451Y-68324995D01*
X110411549Y-68324995D01*
X110391383Y-68055897D01*
X110331334Y-67792805D01*
X110232743Y-67541602D01*
X110097815Y-67307898D01*
X109929561Y-67096915D01*
X109929560Y-67096914D01*
X109929557Y-67096910D01*
X109731741Y-66913365D01*
X109692038Y-66886296D01*
X109508775Y-66761349D01*
X109508769Y-66761346D01*
X109508768Y-66761345D01*
X109508767Y-66761344D01*
X109265643Y-66644263D01*
X109265645Y-66644263D01*
X109007773Y-66564720D01*
X109007767Y-66564718D01*
X108740936Y-66524500D01*
X108740929Y-66524500D01*
X108471071Y-66524500D01*
X108471063Y-66524500D01*
X108204232Y-66564718D01*
X108204226Y-66564720D01*
X107946358Y-66644262D01*
X107703230Y-66761346D01*
X107480258Y-66913365D01*
X107282442Y-67096910D01*
X107114185Y-67307898D01*
X106979258Y-67541599D01*
X106979256Y-67541603D01*
X106880666Y-67792804D01*
X106880664Y-67792811D01*
X106820616Y-68055898D01*
X106800451Y-68324995D01*
X101675500Y-68324995D01*
X101675500Y-63744500D01*
X101695185Y-63677461D01*
X101747989Y-63631706D01*
X101799500Y-63620500D01*
X200550500Y-63620500D01*
X200617539Y-63640185D01*
G37*
%TD.AperFunction*%
%TA.AperFunction,Conductor*%
G36*
X152473960Y-87220185D02*
G01*
X152519715Y-87272989D01*
X152529659Y-87342147D01*
X152511915Y-87390472D01*
X152474210Y-87450478D01*
X152414630Y-87620750D01*
X152406898Y-87689383D01*
X152379832Y-87753797D01*
X152322237Y-87793352D01*
X152283678Y-87799500D01*
X151382412Y-87799500D01*
X151315373Y-87779815D01*
X151305097Y-87772445D01*
X151302263Y-87770185D01*
X151302262Y-87770184D01*
X151191821Y-87700789D01*
X151149523Y-87674211D01*
X150979254Y-87614631D01*
X150979249Y-87614630D01*
X150800004Y-87594435D01*
X150799996Y-87594435D01*
X150620750Y-87614630D01*
X150620745Y-87614631D01*
X150450476Y-87674211D01*
X150297737Y-87770184D01*
X150170184Y-87897737D01*
X150074211Y-88050476D01*
X150014631Y-88220745D01*
X150014630Y-88220750D01*
X149994435Y-88399996D01*
X149994435Y-88400003D01*
X150014630Y-88579249D01*
X150014631Y-88579254D01*
X150074211Y-88749523D01*
X150160856Y-88887416D01*
X150170184Y-88902262D01*
X150297738Y-89029816D01*
X150316644Y-89041695D01*
X150362935Y-89094029D01*
X150373584Y-89163083D01*
X150345209Y-89226931D01*
X150288991Y-89264620D01*
X150180776Y-89299781D01*
X149998386Y-89392715D01*
X149832786Y-89513028D01*
X149688028Y-89657786D01*
X149567715Y-89823386D01*
X149520485Y-89916080D01*
X149472510Y-89966876D01*
X149404689Y-89983671D01*
X149338554Y-89961134D01*
X149299515Y-89916080D01*
X149277941Y-89873739D01*
X149252287Y-89823390D01*
X149202633Y-89755046D01*
X149131971Y-89657786D01*
X148987213Y-89513028D01*
X148821613Y-89392715D01*
X148821612Y-89392714D01*
X148821610Y-89392713D01*
X148764653Y-89363691D01*
X148639223Y-89299781D01*
X148444534Y-89236522D01*
X148249947Y-89205703D01*
X148242352Y-89204500D01*
X148037648Y-89204500D01*
X148030053Y-89205703D01*
X147835465Y-89236522D01*
X147640776Y-89299781D01*
X147458386Y-89392715D01*
X147292786Y-89513028D01*
X147148028Y-89657786D01*
X147027715Y-89823386D01*
X146980485Y-89916080D01*
X146932510Y-89966876D01*
X146864689Y-89983671D01*
X146798554Y-89961134D01*
X146759515Y-89916080D01*
X146737941Y-89873739D01*
X146712287Y-89823390D01*
X146662633Y-89755046D01*
X146591971Y-89657786D01*
X146447213Y-89513028D01*
X146281610Y-89392712D01*
X146268200Y-89385879D01*
X146217406Y-89337903D01*
X146200500Y-89275397D01*
X146200500Y-88595940D01*
X146197668Y-88585370D01*
X146197668Y-88585371D01*
X146190968Y-88560367D01*
X146159577Y-88443215D01*
X146111288Y-88359577D01*
X146080520Y-88306284D01*
X145968716Y-88194480D01*
X145968715Y-88194479D01*
X145964385Y-88190149D01*
X145964374Y-88190139D01*
X145530700Y-87756465D01*
X145497215Y-87695142D01*
X145495163Y-87682686D01*
X145485368Y-87595745D01*
X145425789Y-87425478D01*
X145425789Y-87425477D01*
X145403794Y-87390473D01*
X145384793Y-87323236D01*
X145405160Y-87256401D01*
X145458428Y-87211187D01*
X145508787Y-87200500D01*
X152406921Y-87200500D01*
X152473960Y-87220185D01*
G37*
%TD.AperFunction*%
%TA.AperFunction,Conductor*%
G36*
X151620720Y-78875185D02*
G01*
X151666475Y-78927989D01*
X151677209Y-78990307D01*
X151674526Y-79020974D01*
X152353553Y-79700000D01*
X152347339Y-79700000D01*
X152245606Y-79727259D01*
X152154394Y-79779920D01*
X152079920Y-79854394D01*
X152027259Y-79945606D01*
X152000000Y-80047339D01*
X152000000Y-80053552D01*
X151320974Y-79374526D01*
X151320973Y-79374526D01*
X151269868Y-79447512D01*
X151269866Y-79447516D01*
X151173734Y-79653673D01*
X151173730Y-79653682D01*
X151114860Y-79873389D01*
X151114858Y-79873400D01*
X151095034Y-80099997D01*
X151095034Y-80100002D01*
X151114858Y-80326599D01*
X151114860Y-80326610D01*
X151173730Y-80546317D01*
X151173735Y-80546331D01*
X151269863Y-80752478D01*
X151320974Y-80825472D01*
X152000000Y-80146446D01*
X152000000Y-80152661D01*
X152027259Y-80254394D01*
X152079920Y-80345606D01*
X152154394Y-80420080D01*
X152245606Y-80472741D01*
X152347339Y-80500000D01*
X152353553Y-80500000D01*
X151674526Y-81179025D01*
X151747513Y-81230132D01*
X151747521Y-81230136D01*
X151953668Y-81326264D01*
X151953682Y-81326269D01*
X152173389Y-81385139D01*
X152173400Y-81385141D01*
X152399998Y-81404966D01*
X152400002Y-81404966D01*
X152626599Y-81385141D01*
X152626610Y-81385139D01*
X152846317Y-81326269D01*
X152846331Y-81326264D01*
X153052478Y-81230136D01*
X153125471Y-81179024D01*
X152446447Y-80500000D01*
X152452661Y-80500000D01*
X152554394Y-80472741D01*
X152645606Y-80420080D01*
X152720080Y-80345606D01*
X152772741Y-80254394D01*
X152800000Y-80152661D01*
X152800000Y-80146447D01*
X153479024Y-80825471D01*
X153530136Y-80752478D01*
X153626264Y-80546331D01*
X153626269Y-80546317D01*
X153685139Y-80326610D01*
X153685141Y-80326599D01*
X153704966Y-80100002D01*
X153704966Y-80099997D01*
X153685141Y-79873400D01*
X153685139Y-79873389D01*
X153626269Y-79653682D01*
X153626264Y-79653668D01*
X153530136Y-79447521D01*
X153530132Y-79447513D01*
X153479025Y-79374526D01*
X152800000Y-80053551D01*
X152800000Y-80047339D01*
X152772741Y-79945606D01*
X152720080Y-79854394D01*
X152645606Y-79779920D01*
X152554394Y-79727259D01*
X152452661Y-79700000D01*
X152446448Y-79700000D01*
X153125472Y-79020974D01*
X153122789Y-78990308D01*
X153136555Y-78921808D01*
X153185170Y-78871625D01*
X153246317Y-78855500D01*
X161522412Y-78855500D01*
X161589451Y-78875185D01*
X161593523Y-78877917D01*
X161747266Y-78985568D01*
X161795039Y-79007845D01*
X161805275Y-79012618D01*
X161857714Y-79058791D01*
X161876866Y-79125984D01*
X161856650Y-79192865D01*
X161805275Y-79237382D01*
X161747267Y-79264431D01*
X161747265Y-79264432D01*
X161560858Y-79394954D01*
X161399954Y-79555858D01*
X161269432Y-79742265D01*
X161269431Y-79742267D01*
X161173261Y-79948502D01*
X161173258Y-79948511D01*
X161114366Y-80168302D01*
X161114364Y-80168313D01*
X161094532Y-80394998D01*
X161094532Y-80395001D01*
X161114364Y-80621686D01*
X161114366Y-80621697D01*
X161173258Y-80841488D01*
X161173261Y-80841497D01*
X161269431Y-81047732D01*
X161269432Y-81047734D01*
X161399954Y-81234141D01*
X161538632Y-81372819D01*
X161572117Y-81434142D01*
X161567133Y-81503834D01*
X161525261Y-81559767D01*
X161459797Y-81584184D01*
X161450951Y-81584500D01*
X159992129Y-81584500D01*
X159992123Y-81584501D01*
X159932516Y-81590908D01*
X159797671Y-81641202D01*
X159797664Y-81641206D01*
X159682455Y-81727452D01*
X159682452Y-81727455D01*
X159596206Y-81842664D01*
X159596202Y-81842671D01*
X159545908Y-81977516D01*
X159541939Y-82014440D01*
X159515201Y-82078991D01*
X159457809Y-82118839D01*
X159387983Y-82121332D01*
X159327895Y-82085679D01*
X159318332Y-82074070D01*
X159291967Y-82037782D01*
X159147213Y-81893028D01*
X158981613Y-81772715D01*
X158981612Y-81772714D01*
X158981610Y-81772713D01*
X158924653Y-81743691D01*
X158799223Y-81679781D01*
X158604534Y-81616522D01*
X158429995Y-81588878D01*
X158402352Y-81584500D01*
X158197648Y-81584500D01*
X158173329Y-81588351D01*
X157995465Y-81616522D01*
X157800776Y-81679781D01*
X157618386Y-81772715D01*
X157452786Y-81893028D01*
X157308028Y-82037786D01*
X157187715Y-82203386D01*
X157140485Y-82296080D01*
X157092510Y-82346876D01*
X157024689Y-82363671D01*
X156958554Y-82341134D01*
X156919515Y-82296080D01*
X156918883Y-82294840D01*
X156872287Y-82203390D01*
X156847615Y-82169431D01*
X156751971Y-82037786D01*
X156607213Y-81893028D01*
X156441613Y-81772715D01*
X156441612Y-81772714D01*
X156441610Y-81772713D01*
X156384653Y-81743691D01*
X156259223Y-81679781D01*
X156064534Y-81616522D01*
X155889995Y-81588878D01*
X155862352Y-81584500D01*
X155657648Y-81584500D01*
X155633329Y-81588351D01*
X155455465Y-81616522D01*
X155260776Y-81679781D01*
X155078386Y-81772715D01*
X154912786Y-81893028D01*
X154768028Y-82037786D01*
X154647715Y-82203386D01*
X154600485Y-82296080D01*
X154552510Y-82346876D01*
X154484689Y-82363671D01*
X154418554Y-82341134D01*
X154379515Y-82296080D01*
X154378883Y-82294840D01*
X154332287Y-82203390D01*
X154307615Y-82169431D01*
X154211971Y-82037786D01*
X154067213Y-81893028D01*
X153901613Y-81772715D01*
X153901612Y-81772714D01*
X153901610Y-81772713D01*
X153844653Y-81743691D01*
X153719223Y-81679781D01*
X153524534Y-81616522D01*
X153349995Y-81588878D01*
X153322352Y-81584500D01*
X153117648Y-81584500D01*
X153093329Y-81588351D01*
X152915465Y-81616522D01*
X152720776Y-81679781D01*
X152538386Y-81772715D01*
X152372786Y-81893028D01*
X152228028Y-82037786D01*
X152107715Y-82203386D01*
X152060485Y-82296080D01*
X152012510Y-82346876D01*
X151944689Y-82363671D01*
X151878554Y-82341134D01*
X151839515Y-82296080D01*
X151838883Y-82294840D01*
X151792287Y-82203390D01*
X151767615Y-82169431D01*
X151671971Y-82037786D01*
X151527213Y-81893028D01*
X151361613Y-81772715D01*
X151361612Y-81772714D01*
X151361610Y-81772713D01*
X151304653Y-81743691D01*
X151179223Y-81679781D01*
X150984534Y-81616522D01*
X150809995Y-81588878D01*
X150782352Y-81584500D01*
X150577648Y-81584500D01*
X150553329Y-81588351D01*
X150375465Y-81616522D01*
X150180776Y-81679781D01*
X149998386Y-81772715D01*
X149832786Y-81893028D01*
X149688028Y-82037786D01*
X149567715Y-82203386D01*
X149520485Y-82296080D01*
X149472510Y-82346876D01*
X149404689Y-82363671D01*
X149338554Y-82341134D01*
X149299515Y-82296080D01*
X149298883Y-82294840D01*
X149252287Y-82203390D01*
X149227615Y-82169431D01*
X149131971Y-82037786D01*
X148987213Y-81893028D01*
X148821613Y-81772715D01*
X148821612Y-81772714D01*
X148821610Y-81772713D01*
X148639219Y-81679780D01*
X148444534Y-81616523D01*
X148438276Y-81615531D01*
X148425097Y-81613444D01*
X148361964Y-81583512D01*
X148325035Y-81524199D01*
X148320500Y-81490971D01*
X148320500Y-81070048D01*
X148340185Y-81003009D01*
X148356820Y-80982366D01*
X148400046Y-80939140D01*
X148400047Y-80939139D01*
X148530568Y-80752734D01*
X148626739Y-80546496D01*
X148685635Y-80326692D01*
X148705468Y-80100000D01*
X148685635Y-79873308D01*
X148626739Y-79653504D01*
X148530568Y-79447266D01*
X148432839Y-79307693D01*
X148400045Y-79260858D01*
X148356819Y-79217632D01*
X148323334Y-79156309D01*
X148320500Y-79129951D01*
X148320500Y-78979500D01*
X148340185Y-78912461D01*
X148392989Y-78866706D01*
X148444500Y-78855500D01*
X151553681Y-78855500D01*
X151620720Y-78875185D01*
G37*
%TD.AperFunction*%
%TA.AperFunction,Conductor*%
G36*
X134398811Y-77062305D02*
G01*
X134507664Y-77143793D01*
X134507671Y-77143797D01*
X134642517Y-77194091D01*
X134642516Y-77194091D01*
X134649444Y-77194835D01*
X134702127Y-77200500D01*
X136297872Y-77200499D01*
X136351407Y-77194744D01*
X136362247Y-77193579D01*
X136431006Y-77205986D01*
X136482143Y-77253597D01*
X136499500Y-77316869D01*
X136499500Y-78813330D01*
X136499499Y-78813348D01*
X136499499Y-78979054D01*
X136499498Y-78979054D01*
X136499499Y-78979057D01*
X136510722Y-79020943D01*
X136516742Y-79043406D01*
X136515079Y-79113256D01*
X136475917Y-79171119D01*
X136411688Y-79198623D01*
X136396967Y-79199500D01*
X134600097Y-79199500D01*
X134533058Y-79179815D01*
X134512416Y-79163181D01*
X134236819Y-78887584D01*
X134203334Y-78826261D01*
X134200500Y-78799903D01*
X134200500Y-77161571D01*
X134220185Y-77094532D01*
X134272989Y-77048777D01*
X134342147Y-77038833D01*
X134398811Y-77062305D01*
G37*
%TD.AperFunction*%
%TA.AperFunction,Conductor*%
G36*
X142166942Y-77020185D02*
G01*
X142187584Y-77036819D01*
X142569298Y-77418533D01*
X142602783Y-77479856D01*
X142604837Y-77492330D01*
X142614630Y-77579249D01*
X142614631Y-77579254D01*
X142614632Y-77579255D01*
X142621030Y-77597540D01*
X142674210Y-77749521D01*
X142733785Y-77844334D01*
X142770184Y-77902262D01*
X142897738Y-78029816D01*
X142903156Y-78033220D01*
X142949448Y-78085554D01*
X142960098Y-78154607D01*
X142931724Y-78218456D01*
X142924868Y-78225896D01*
X142587582Y-78563182D01*
X142526261Y-78596666D01*
X142499903Y-78599500D01*
X137824500Y-78599500D01*
X137757461Y-78579815D01*
X137711706Y-78527011D01*
X137700500Y-78475500D01*
X137700500Y-77316868D01*
X137720185Y-77249829D01*
X137772989Y-77204074D01*
X137837756Y-77193579D01*
X137842516Y-77194090D01*
X137842517Y-77194091D01*
X137902127Y-77200500D01*
X139497872Y-77200499D01*
X139557483Y-77194091D01*
X139692331Y-77143796D01*
X139807546Y-77057546D01*
X139813052Y-77050191D01*
X139868985Y-77008319D01*
X139912320Y-77000500D01*
X142099903Y-77000500D01*
X142166942Y-77020185D01*
G37*
%TD.AperFunction*%
%TD*%
M02*
