%TF.GenerationSoftware,KiCad,Pcbnew,8.0.5*%
%TF.CreationDate,2025-03-15T22:24:31+01:00*%
%TF.ProjectId,esp32_blinds_controller,65737033-325f-4626-9c69-6e64735f636f,V0.2*%
%TF.SameCoordinates,Original*%
%TF.FileFunction,Paste,Top*%
%TF.FilePolarity,Positive*%
%FSLAX46Y46*%
G04 Gerber Fmt 4.6, Leading zero omitted, Abs format (unit mm)*
G04 Created by KiCad (PCBNEW 8.0.5) date 2025-03-15 22:24:31*
%MOMM*%
%LPD*%
G01*
G04 APERTURE LIST*
%TA.AperFunction,Profile*%
%ADD10C,0.050000*%
%TD*%
%TA.AperFunction,Profile*%
%ADD11C,0.120000*%
%TD*%
G04 APERTURE END LIST*
D10*
X139900000Y-103048528D02*
G75*
G02*
X141099972Y-104248528I0J-1199972D01*
G01*
X167400000Y-103100000D02*
G75*
G02*
X168600000Y-104300000I0J-1200000D01*
G01*
X168600000Y-109800000D02*
G75*
G02*
X167600000Y-109800000I-500000J0D01*
G01*
X187700000Y-109800000D02*
X187700000Y-104300000D01*
X161100000Y-109800000D02*
X161100000Y-104300000D01*
X134600000Y-109748528D02*
X134600000Y-104248528D01*
X122200000Y-109750000D02*
G75*
G02*
X121200000Y-109750000I-500000J0D01*
G01*
X122200000Y-109750000D02*
X122200000Y-104250000D01*
X134800000Y-103048528D02*
X139900000Y-103048528D01*
X162300000Y-104100000D02*
X167400000Y-104100000D01*
X141100000Y-109748528D02*
X141100000Y-104248528D01*
X181200000Y-109800000D02*
G75*
G02*
X180200000Y-109800000I-500000J0D01*
G01*
X121000000Y-103050000D02*
G75*
G02*
X122200000Y-104250000I0J-1200000D01*
G01*
X181400000Y-104100000D02*
X186500000Y-104100000D01*
X162100000Y-104300000D02*
G75*
G02*
X162300000Y-104100000I200000J0D01*
G01*
X133600000Y-104248528D02*
G75*
G02*
X134800000Y-103048500I1200000J28D01*
G01*
X121200000Y-109750000D02*
X121200000Y-104250000D01*
X187700000Y-109800000D02*
G75*
G02*
X186700000Y-109800000I-500000J0D01*
G01*
X115900000Y-104050000D02*
X121000000Y-104050000D01*
X115700000Y-109750000D02*
X115700000Y-104250000D01*
X167400000Y-104100000D02*
G75*
G02*
X167600000Y-104300000I0J-200000D01*
G01*
X141100000Y-109748528D02*
G75*
G02*
X140100000Y-109748528I-500000J0D01*
G01*
X186700000Y-109800000D02*
X186700000Y-104300000D01*
X180200000Y-104300000D02*
G75*
G02*
X181400000Y-103100000I1200000J0D01*
G01*
X134800000Y-104048528D02*
X139900000Y-104048528D01*
X181200000Y-104300000D02*
G75*
G02*
X181400000Y-104100000I200000J0D01*
G01*
X186500000Y-104100000D02*
G75*
G02*
X186700000Y-104300000I0J-200000D01*
G01*
X162100000Y-109800000D02*
G75*
G02*
X161100000Y-109800000I-500000J0D01*
G01*
X139900000Y-104048528D02*
G75*
G02*
X140099972Y-104248528I0J-199972D01*
G01*
X115700000Y-109750000D02*
G75*
G02*
X114700000Y-109750000I-500000J0D01*
G01*
X186500000Y-103100000D02*
G75*
G02*
X187700000Y-104300000I0J-1200000D01*
G01*
X180200000Y-109800000D02*
X180200000Y-104300000D01*
X162100000Y-109800000D02*
X162100000Y-104300000D01*
X134600000Y-104248528D02*
G75*
G02*
X134800000Y-104048500I200000J28D01*
G01*
X115900000Y-103050000D02*
X121000000Y-103050000D01*
X121000000Y-104050000D02*
G75*
G02*
X121200000Y-104250000I0J-200000D01*
G01*
X140100000Y-109748528D02*
X140100000Y-104248528D01*
X181200000Y-109800000D02*
X181200000Y-104300000D01*
X114700000Y-109750000D02*
X114700000Y-104250000D01*
X168600000Y-109800000D02*
X168600000Y-104300000D01*
X162300000Y-103100000D02*
X167400000Y-103100000D01*
X167600000Y-109800000D02*
X167600000Y-104300000D01*
X161100000Y-104300000D02*
G75*
G02*
X162300000Y-103100000I1200000J0D01*
G01*
X134600000Y-109748528D02*
G75*
G02*
X133600000Y-109748528I-500000J0D01*
G01*
X181400000Y-103100000D02*
X186500000Y-103100000D01*
X115700000Y-104250000D02*
G75*
G02*
X115900000Y-104050000I200000J0D01*
G01*
X114700000Y-104250000D02*
G75*
G02*
X115900000Y-103050000I1200000J0D01*
G01*
X133600000Y-109748528D02*
X133600000Y-104248528D01*
D11*
%TO.C,MOD1*%
X101175000Y-55745000D02*
X101175000Y-138995000D01*
X101175000Y-138995000D02*
X201175000Y-138995000D01*
X201175000Y-55745000D02*
X101175000Y-55745000D01*
X201175000Y-138995000D02*
X201175000Y-55745000D01*
%TD*%
M02*
