%TF.GenerationSoftware,KiCad,Pcbnew,8.0.5*%
%TF.CreationDate,2025-03-15T22:24:35+01:00*%
%TF.ProjectId,esp32_blinds_controller,65737033-325f-4626-9c69-6e64735f636f,V0.2*%
%TF.SameCoordinates,Original*%
%TF.FileFunction,Drillmap*%
%TF.FilePolarity,Positive*%
%FSLAX45Y45*%
G04 Gerber Fmt 4.5, Leading zero omitted, Abs format (unit mm)*
G04 Created by KiCad (PCBNEW 8.0.5) date 2025-03-15 22:24:35*
%MOMM*%
%LPD*%
G01*
G04 APERTURE LIST*
%ADD10C,0.050000*%
%ADD11C,0.120000*%
%ADD12C,0.200000*%
%ADD13C,0.100000*%
%ADD14C,0.130000*%
%ADD15C,0.250000*%
G04 APERTURE END LIST*
D10*
X13990000Y-10304853D02*
G75*
G02*
X14109997Y-10424853I0J-119997D01*
G01*
X16740000Y-10310000D02*
G75*
G02*
X16860000Y-10430000I0J-120000D01*
G01*
X16860000Y-10980000D02*
G75*
G02*
X16760000Y-10980000I-50000J0D01*
G01*
X18770000Y-10980000D02*
X18770000Y-10430000D01*
X16110000Y-10980000D02*
X16110000Y-10430000D01*
X13460000Y-10974853D02*
X13460000Y-10424853D01*
X12220000Y-10975000D02*
G75*
G02*
X12120000Y-10975000I-50000J0D01*
G01*
X12220000Y-10975000D02*
X12220000Y-10425000D01*
X13480000Y-10304853D02*
X13990000Y-10304853D01*
X16230000Y-10410000D02*
X16740000Y-10410000D01*
X14110000Y-10974853D02*
X14110000Y-10424853D01*
X18120000Y-10980000D02*
G75*
G02*
X18020000Y-10980000I-50000J0D01*
G01*
X12100000Y-10305000D02*
G75*
G02*
X12220000Y-10425000I0J-120000D01*
G01*
X18140000Y-10410000D02*
X18650000Y-10410000D01*
X16210000Y-10430000D02*
G75*
G02*
X16230000Y-10410000I20000J0D01*
G01*
X13360000Y-10424853D02*
G75*
G02*
X13480000Y-10304850I120000J3D01*
G01*
X12120000Y-10975000D02*
X12120000Y-10425000D01*
X18770000Y-10980000D02*
G75*
G02*
X18670000Y-10980000I-50000J0D01*
G01*
X11590000Y-10405000D02*
X12100000Y-10405000D01*
X11570000Y-10975000D02*
X11570000Y-10425000D01*
X16740000Y-10410000D02*
G75*
G02*
X16760000Y-10430000I0J-20000D01*
G01*
X14110000Y-10974853D02*
G75*
G02*
X14010000Y-10974853I-50000J0D01*
G01*
X18670000Y-10980000D02*
X18670000Y-10430000D01*
X18020000Y-10430000D02*
G75*
G02*
X18140000Y-10310000I120000J0D01*
G01*
X13480000Y-10404853D02*
X13990000Y-10404853D01*
X18120000Y-10430000D02*
G75*
G02*
X18140000Y-10410000I20000J0D01*
G01*
X18650000Y-10410000D02*
G75*
G02*
X18670000Y-10430000I0J-20000D01*
G01*
X16210000Y-10980000D02*
G75*
G02*
X16110000Y-10980000I-50000J0D01*
G01*
X13990000Y-10404853D02*
G75*
G02*
X14009997Y-10424853I0J-19997D01*
G01*
X11570000Y-10975000D02*
G75*
G02*
X11470000Y-10975000I-50000J0D01*
G01*
X18650000Y-10310000D02*
G75*
G02*
X18770000Y-10430000I0J-120000D01*
G01*
X18020000Y-10980000D02*
X18020000Y-10430000D01*
X16210000Y-10980000D02*
X16210000Y-10430000D01*
X13460000Y-10424853D02*
G75*
G02*
X13480000Y-10404850I20000J3D01*
G01*
X11590000Y-10305000D02*
X12100000Y-10305000D01*
X12100000Y-10405000D02*
G75*
G02*
X12120000Y-10425000I0J-20000D01*
G01*
X14010000Y-10974853D02*
X14010000Y-10424853D01*
X18120000Y-10980000D02*
X18120000Y-10430000D01*
X11470000Y-10975000D02*
X11470000Y-10425000D01*
X16860000Y-10980000D02*
X16860000Y-10430000D01*
X16230000Y-10310000D02*
X16740000Y-10310000D01*
X16760000Y-10980000D02*
X16760000Y-10430000D01*
X16110000Y-10430000D02*
G75*
G02*
X16230000Y-10310000I120000J0D01*
G01*
X13460000Y-10974853D02*
G75*
G02*
X13360000Y-10974853I-50000J0D01*
G01*
X18140000Y-10310000D02*
X18650000Y-10310000D01*
X11570000Y-10425000D02*
G75*
G02*
X11590000Y-10405000I20000J0D01*
G01*
X11470000Y-10425000D02*
G75*
G02*
X11590000Y-10305000I120000J0D01*
G01*
X13360000Y-10974853D02*
X13360000Y-10424853D01*
D11*
X10117500Y-5574500D02*
X10117500Y-13899500D01*
X10117500Y-13899500D02*
X20117500Y-13899500D01*
X20117500Y-5574500D02*
X10117500Y-5574500D01*
X20117500Y-13899500D02*
X20117500Y-5574500D01*
D12*
D13*
X10185000Y-5665000D02*
X10215000Y-5695000D01*
X10215000Y-5665000D02*
X10185000Y-5695000D01*
X10185000Y-7685000D02*
X10215000Y-7715000D01*
X10215000Y-7685000D02*
X10185000Y-7715000D01*
X10205000Y-9745000D02*
X10235000Y-9775000D01*
X10235000Y-9745000D02*
X10205000Y-9775000D01*
X11045000Y-9785000D02*
X11075000Y-9815000D01*
X11075000Y-9785000D02*
X11045000Y-9815000D01*
X11345000Y-9305000D02*
X11375000Y-9335000D01*
X11375000Y-9305000D02*
X11345000Y-9335000D01*
X11475000Y-5765000D02*
X11505000Y-5795000D01*
X11505000Y-5765000D02*
X11475000Y-5795000D01*
X11485000Y-8245000D02*
X11515000Y-8275000D01*
X11515000Y-8245000D02*
X11485000Y-8275000D01*
X11545000Y-6845000D02*
X11575000Y-6875000D01*
X11575000Y-6845000D02*
X11545000Y-6875000D01*
X12035000Y-7435000D02*
X12065000Y-7465000D01*
X12065000Y-7435000D02*
X12035000Y-7465000D01*
X12469000Y-8875000D02*
X12499000Y-8905000D01*
X12499000Y-8875000D02*
X12469000Y-8905000D01*
X12835000Y-8985000D02*
X12865000Y-9015000D01*
X12865000Y-8985000D02*
X12835000Y-9015000D01*
X13635000Y-7415000D02*
X13665000Y-7445000D01*
X13665000Y-7415000D02*
X13635000Y-7445000D01*
X13752000Y-9318000D02*
X13782000Y-9348000D01*
X13782000Y-9318000D02*
X13752000Y-9348000D01*
X14075000Y-8305000D02*
X14105000Y-8335000D01*
X14105000Y-8305000D02*
X14075000Y-8335000D01*
X15255000Y-8795000D02*
X15285000Y-8825000D01*
X15285000Y-8795000D02*
X15255000Y-8825000D01*
X15355000Y-6005000D02*
X15385000Y-6035000D01*
X15385000Y-6005000D02*
X15355000Y-6035000D01*
X15715000Y-5725000D02*
X15745000Y-5755000D01*
X15745000Y-5725000D02*
X15715000Y-5755000D01*
X16365000Y-9005000D02*
X16395000Y-9035000D01*
X16395000Y-9005000D02*
X16365000Y-9035000D01*
X16705000Y-6505000D02*
X16735000Y-6535000D01*
X16735000Y-6505000D02*
X16705000Y-6535000D01*
X17255000Y-7355000D02*
X17285000Y-7385000D01*
X17285000Y-7355000D02*
X17255000Y-7385000D01*
X17255000Y-7975000D02*
X17285000Y-8005000D01*
X17285000Y-7975000D02*
X17255000Y-8005000D01*
X17260000Y-8570000D02*
X17290000Y-8600000D01*
X17290000Y-8570000D02*
X17260000Y-8600000D01*
X17765000Y-8045000D02*
X17795000Y-8075000D01*
X17795000Y-8045000D02*
X17765000Y-8075000D01*
X18295000Y-8125000D02*
X18325000Y-8155000D01*
X18325000Y-8125000D02*
X18295000Y-8155000D01*
X18885000Y-8135000D02*
X18915000Y-8165000D01*
X18915000Y-8135000D02*
X18885000Y-8165000D01*
X19295000Y-8055000D02*
X19325000Y-8085000D01*
X19325000Y-8055000D02*
X19295000Y-8085000D01*
X19310000Y-9770000D02*
X19340000Y-9800000D01*
X19340000Y-9770000D02*
X19310000Y-9800000D01*
X19875000Y-6785000D02*
X19905000Y-6815000D01*
X19905000Y-6785000D02*
X19875000Y-6815000D01*
X19945000Y-5715000D02*
X19975000Y-5745000D01*
X19975000Y-5715000D02*
X19945000Y-5745000D01*
X19965000Y-9735000D02*
X19995000Y-9765000D01*
X19995000Y-9735000D02*
X19965000Y-9765000D01*
X10790000Y-9000000D02*
G75*
G02*
X10710000Y-9000000I-40000J0D01*
G01*
X10710000Y-9000000D02*
G75*
G02*
X10790000Y-9000000I40000J0D01*
G01*
X10799735Y-8225000D02*
G75*
G02*
X10719735Y-8225000I-40000J0D01*
G01*
X10719735Y-8225000D02*
G75*
G02*
X10799735Y-8225000I40000J0D01*
G01*
X11149735Y-8225000D02*
G75*
G02*
X11069735Y-8225000I-40000J0D01*
G01*
X11069735Y-8225000D02*
G75*
G02*
X11149735Y-8225000I40000J0D01*
G01*
X11290000Y-9000000D02*
G75*
G02*
X11210000Y-9000000I-40000J0D01*
G01*
X11210000Y-9000000D02*
G75*
G02*
X11290000Y-9000000I40000J0D01*
G01*
X11762000Y-8480000D02*
G75*
G02*
X11682000Y-8480000I-40000J0D01*
G01*
X11682000Y-8480000D02*
G75*
G02*
X11762000Y-8480000I40000J0D01*
G01*
X11762000Y-9242000D02*
G75*
G02*
X11682000Y-9242000I-40000J0D01*
G01*
X11682000Y-9242000D02*
G75*
G02*
X11762000Y-9242000I40000J0D01*
G01*
X12016000Y-8480000D02*
G75*
G02*
X11936000Y-8480000I-40000J0D01*
G01*
X11936000Y-8480000D02*
G75*
G02*
X12016000Y-8480000I40000J0D01*
G01*
X12016000Y-9242000D02*
G75*
G02*
X11936000Y-9242000I-40000J0D01*
G01*
X11936000Y-9242000D02*
G75*
G02*
X12016000Y-9242000I40000J0D01*
G01*
X12270000Y-8480000D02*
G75*
G02*
X12190000Y-8480000I-40000J0D01*
G01*
X12190000Y-8480000D02*
G75*
G02*
X12270000Y-8480000I40000J0D01*
G01*
X12270000Y-9242000D02*
G75*
G02*
X12190000Y-9242000I-40000J0D01*
G01*
X12190000Y-9242000D02*
G75*
G02*
X12270000Y-9242000I40000J0D01*
G01*
X12524000Y-8480000D02*
G75*
G02*
X12444000Y-8480000I-40000J0D01*
G01*
X12444000Y-8480000D02*
G75*
G02*
X12524000Y-8480000I40000J0D01*
G01*
X12524000Y-9242000D02*
G75*
G02*
X12444000Y-9242000I-40000J0D01*
G01*
X12444000Y-9242000D02*
G75*
G02*
X12524000Y-9242000I40000J0D01*
G01*
X12778000Y-8480000D02*
G75*
G02*
X12698000Y-8480000I-40000J0D01*
G01*
X12698000Y-8480000D02*
G75*
G02*
X12778000Y-8480000I40000J0D01*
G01*
X12778000Y-9242000D02*
G75*
G02*
X12698000Y-9242000I-40000J0D01*
G01*
X12698000Y-9242000D02*
G75*
G02*
X12778000Y-9242000I40000J0D01*
G01*
X13032000Y-8480000D02*
G75*
G02*
X12952000Y-8480000I-40000J0D01*
G01*
X12952000Y-8480000D02*
G75*
G02*
X13032000Y-8480000I40000J0D01*
G01*
X13032000Y-9242000D02*
G75*
G02*
X12952000Y-9242000I-40000J0D01*
G01*
X12952000Y-9242000D02*
G75*
G02*
X13032000Y-9242000I40000J0D01*
G01*
X13115000Y-7565265D02*
G75*
G02*
X13035000Y-7565265I-40000J0D01*
G01*
X13035000Y-7565265D02*
G75*
G02*
X13115000Y-7565265I40000J0D01*
G01*
X13115000Y-7915265D02*
G75*
G02*
X13035000Y-7915265I-40000J0D01*
G01*
X13035000Y-7915265D02*
G75*
G02*
X13115000Y-7915265I40000J0D01*
G01*
X13286000Y-8480000D02*
G75*
G02*
X13206000Y-8480000I-40000J0D01*
G01*
X13206000Y-8480000D02*
G75*
G02*
X13286000Y-8480000I40000J0D01*
G01*
X13286000Y-9242000D02*
G75*
G02*
X13206000Y-9242000I-40000J0D01*
G01*
X13206000Y-9242000D02*
G75*
G02*
X13286000Y-9242000I40000J0D01*
G01*
X13540000Y-8480000D02*
G75*
G02*
X13460000Y-8480000I-40000J0D01*
G01*
X13460000Y-8480000D02*
G75*
G02*
X13540000Y-8480000I40000J0D01*
G01*
X13540000Y-9242000D02*
G75*
G02*
X13460000Y-9242000I-40000J0D01*
G01*
X13460000Y-9242000D02*
G75*
G02*
X13540000Y-9242000I40000J0D01*
G01*
X14506000Y-6940000D02*
G75*
G02*
X14426000Y-6940000I-40000J0D01*
G01*
X14426000Y-6940000D02*
G75*
G02*
X14506000Y-6940000I40000J0D01*
G01*
X14576000Y-8480000D02*
G75*
G02*
X14496000Y-8480000I-40000J0D01*
G01*
X14496000Y-8480000D02*
G75*
G02*
X14576000Y-8480000I40000J0D01*
G01*
X14576000Y-9242000D02*
G75*
G02*
X14496000Y-9242000I-40000J0D01*
G01*
X14496000Y-9242000D02*
G75*
G02*
X14576000Y-9242000I40000J0D01*
G01*
X14760000Y-6940000D02*
G75*
G02*
X14680000Y-6940000I-40000J0D01*
G01*
X14680000Y-6940000D02*
G75*
G02*
X14760000Y-6940000I40000J0D01*
G01*
X14830000Y-8480000D02*
G75*
G02*
X14750000Y-8480000I-40000J0D01*
G01*
X14750000Y-8480000D02*
G75*
G02*
X14830000Y-8480000I40000J0D01*
G01*
X14830000Y-9242000D02*
G75*
G02*
X14750000Y-9242000I-40000J0D01*
G01*
X14750000Y-9242000D02*
G75*
G02*
X14830000Y-9242000I40000J0D01*
G01*
X15084000Y-8480000D02*
G75*
G02*
X15004000Y-8480000I-40000J0D01*
G01*
X15004000Y-8480000D02*
G75*
G02*
X15084000Y-8480000I40000J0D01*
G01*
X15084000Y-9242000D02*
G75*
G02*
X15004000Y-9242000I-40000J0D01*
G01*
X15004000Y-9242000D02*
G75*
G02*
X15084000Y-9242000I40000J0D01*
G01*
X15338000Y-8480000D02*
G75*
G02*
X15258000Y-8480000I-40000J0D01*
G01*
X15258000Y-8480000D02*
G75*
G02*
X15338000Y-8480000I40000J0D01*
G01*
X15338000Y-9242000D02*
G75*
G02*
X15258000Y-9242000I-40000J0D01*
G01*
X15258000Y-9242000D02*
G75*
G02*
X15338000Y-9242000I40000J0D01*
G01*
X15415500Y-6920000D02*
G75*
G02*
X15335500Y-6920000I-40000J0D01*
G01*
X15335500Y-6920000D02*
G75*
G02*
X15415500Y-6920000I40000J0D01*
G01*
X15592000Y-8480000D02*
G75*
G02*
X15512000Y-8480000I-40000J0D01*
G01*
X15512000Y-8480000D02*
G75*
G02*
X15592000Y-8480000I40000J0D01*
G01*
X15592000Y-9242000D02*
G75*
G02*
X15512000Y-9242000I-40000J0D01*
G01*
X15512000Y-9242000D02*
G75*
G02*
X15592000Y-9242000I40000J0D01*
G01*
X15669500Y-6920000D02*
G75*
G02*
X15589500Y-6920000I-40000J0D01*
G01*
X15589500Y-6920000D02*
G75*
G02*
X15669500Y-6920000I40000J0D01*
G01*
X15846000Y-8480000D02*
G75*
G02*
X15766000Y-8480000I-40000J0D01*
G01*
X15766000Y-8480000D02*
G75*
G02*
X15846000Y-8480000I40000J0D01*
G01*
X15846000Y-9242000D02*
G75*
G02*
X15766000Y-9242000I-40000J0D01*
G01*
X15766000Y-9242000D02*
G75*
G02*
X15846000Y-9242000I40000J0D01*
G01*
X16100000Y-8480000D02*
G75*
G02*
X16020000Y-8480000I-40000J0D01*
G01*
X16020000Y-8480000D02*
G75*
G02*
X16100000Y-8480000I40000J0D01*
G01*
X16100000Y-9242000D02*
G75*
G02*
X16020000Y-9242000I-40000J0D01*
G01*
X16020000Y-9242000D02*
G75*
G02*
X16100000Y-9242000I40000J0D01*
G01*
X16165500Y-6930000D02*
G75*
G02*
X16085500Y-6930000I-40000J0D01*
G01*
X16085500Y-6930000D02*
G75*
G02*
X16165500Y-6930000I40000J0D01*
G01*
X16354000Y-8480000D02*
G75*
G02*
X16274000Y-8480000I-40000J0D01*
G01*
X16274000Y-8480000D02*
G75*
G02*
X16354000Y-8480000I40000J0D01*
G01*
X16354000Y-9242000D02*
G75*
G02*
X16274000Y-9242000I-40000J0D01*
G01*
X16274000Y-9242000D02*
G75*
G02*
X16354000Y-9242000I40000J0D01*
G01*
X16419500Y-6930000D02*
G75*
G02*
X16339500Y-6930000I-40000J0D01*
G01*
X16339500Y-6930000D02*
G75*
G02*
X16419500Y-6930000I40000J0D01*
G01*
X16608000Y-8480000D02*
G75*
G02*
X16528000Y-8480000I-40000J0D01*
G01*
X16528000Y-8480000D02*
G75*
G02*
X16608000Y-8480000I40000J0D01*
G01*
X16608000Y-9242000D02*
G75*
G02*
X16528000Y-9242000I-40000J0D01*
G01*
X16528000Y-9242000D02*
G75*
G02*
X16608000Y-9242000I40000J0D01*
G01*
X16890000Y-9225000D02*
G75*
G02*
X16810000Y-9225000I-40000J0D01*
G01*
X16810000Y-9225000D02*
G75*
G02*
X16890000Y-9225000I40000J0D01*
G01*
X17390000Y-9225000D02*
G75*
G02*
X17310000Y-9225000I-40000J0D01*
G01*
X17310000Y-9225000D02*
G75*
G02*
X17390000Y-9225000I40000J0D01*
G01*
X17611000Y-7725000D02*
G75*
G02*
X17531000Y-7725000I-40000J0D01*
G01*
X17531000Y-7725000D02*
G75*
G02*
X17611000Y-7725000I40000J0D01*
G01*
X17611000Y-8487000D02*
G75*
G02*
X17531000Y-8487000I-40000J0D01*
G01*
X17531000Y-8487000D02*
G75*
G02*
X17611000Y-8487000I40000J0D01*
G01*
X17840000Y-6800500D02*
G75*
G02*
X17760000Y-6800500I-40000J0D01*
G01*
X17760000Y-6800500D02*
G75*
G02*
X17840000Y-6800500I40000J0D01*
G01*
X17840000Y-7054500D02*
G75*
G02*
X17760000Y-7054500I-40000J0D01*
G01*
X17760000Y-7054500D02*
G75*
G02*
X17840000Y-7054500I40000J0D01*
G01*
X17865000Y-7725000D02*
G75*
G02*
X17785000Y-7725000I-40000J0D01*
G01*
X17785000Y-7725000D02*
G75*
G02*
X17865000Y-7725000I40000J0D01*
G01*
X17865000Y-8487000D02*
G75*
G02*
X17785000Y-8487000I-40000J0D01*
G01*
X17785000Y-8487000D02*
G75*
G02*
X17865000Y-8487000I40000J0D01*
G01*
X17865000Y-9175500D02*
G75*
G02*
X17785000Y-9175500I-40000J0D01*
G01*
X17785000Y-9175500D02*
G75*
G02*
X17865000Y-9175500I40000J0D01*
G01*
X17865000Y-9429500D02*
G75*
G02*
X17785000Y-9429500I-40000J0D01*
G01*
X17785000Y-9429500D02*
G75*
G02*
X17865000Y-9429500I40000J0D01*
G01*
X18186000Y-7725000D02*
G75*
G02*
X18106000Y-7725000I-40000J0D01*
G01*
X18106000Y-7725000D02*
G75*
G02*
X18186000Y-7725000I40000J0D01*
G01*
X18186000Y-8487000D02*
G75*
G02*
X18106000Y-8487000I-40000J0D01*
G01*
X18106000Y-8487000D02*
G75*
G02*
X18186000Y-8487000I40000J0D01*
G01*
X18315000Y-6825500D02*
G75*
G02*
X18235000Y-6825500I-40000J0D01*
G01*
X18235000Y-6825500D02*
G75*
G02*
X18315000Y-6825500I40000J0D01*
G01*
X18315000Y-7079500D02*
G75*
G02*
X18235000Y-7079500I-40000J0D01*
G01*
X18235000Y-7079500D02*
G75*
G02*
X18315000Y-7079500I40000J0D01*
G01*
X18440000Y-7725000D02*
G75*
G02*
X18360000Y-7725000I-40000J0D01*
G01*
X18360000Y-7725000D02*
G75*
G02*
X18440000Y-7725000I40000J0D01*
G01*
X18440000Y-8487000D02*
G75*
G02*
X18360000Y-8487000I-40000J0D01*
G01*
X18360000Y-8487000D02*
G75*
G02*
X18440000Y-8487000I40000J0D01*
G01*
X18440000Y-9176000D02*
G75*
G02*
X18360000Y-9176000I-40000J0D01*
G01*
X18360000Y-9176000D02*
G75*
G02*
X18440000Y-9176000I40000J0D01*
G01*
X18440000Y-9430000D02*
G75*
G02*
X18360000Y-9430000I-40000J0D01*
G01*
X18360000Y-9430000D02*
G75*
G02*
X18440000Y-9430000I40000J0D01*
G01*
X18763500Y-7720000D02*
G75*
G02*
X18683500Y-7720000I-40000J0D01*
G01*
X18683500Y-7720000D02*
G75*
G02*
X18763500Y-7720000I40000J0D01*
G01*
X18763500Y-8482000D02*
G75*
G02*
X18683500Y-8482000I-40000J0D01*
G01*
X18683500Y-8482000D02*
G75*
G02*
X18763500Y-8482000I40000J0D01*
G01*
X18790000Y-6825500D02*
G75*
G02*
X18710000Y-6825500I-40000J0D01*
G01*
X18710000Y-6825500D02*
G75*
G02*
X18790000Y-6825500I40000J0D01*
G01*
X18790000Y-7079500D02*
G75*
G02*
X18710000Y-7079500I-40000J0D01*
G01*
X18710000Y-7079500D02*
G75*
G02*
X18790000Y-7079500I40000J0D01*
G01*
X19015000Y-9176000D02*
G75*
G02*
X18935000Y-9176000I-40000J0D01*
G01*
X18935000Y-9176000D02*
G75*
G02*
X19015000Y-9176000I40000J0D01*
G01*
X19015000Y-9430000D02*
G75*
G02*
X18935000Y-9430000I-40000J0D01*
G01*
X18935000Y-9430000D02*
G75*
G02*
X19015000Y-9430000I40000J0D01*
G01*
X19017500Y-7720000D02*
G75*
G02*
X18937500Y-7720000I-40000J0D01*
G01*
X18937500Y-7720000D02*
G75*
G02*
X19017500Y-7720000I40000J0D01*
G01*
X19017500Y-8482000D02*
G75*
G02*
X18937500Y-8482000I-40000J0D01*
G01*
X18937500Y-8482000D02*
G75*
G02*
X19017500Y-8482000I40000J0D01*
G01*
X19240000Y-6825500D02*
G75*
G02*
X19160000Y-6825500I-40000J0D01*
G01*
X19160000Y-6825500D02*
G75*
G02*
X19240000Y-6825500I40000J0D01*
G01*
X19240000Y-7079500D02*
G75*
G02*
X19160000Y-7079500I-40000J0D01*
G01*
X19160000Y-7079500D02*
G75*
G02*
X19240000Y-7079500I40000J0D01*
G01*
X19338500Y-7720000D02*
G75*
G02*
X19258500Y-7720000I-40000J0D01*
G01*
X19258500Y-7720000D02*
G75*
G02*
X19338500Y-7720000I40000J0D01*
G01*
X19338500Y-8482000D02*
G75*
G02*
X19258500Y-8482000I-40000J0D01*
G01*
X19258500Y-8482000D02*
G75*
G02*
X19338500Y-8482000I40000J0D01*
G01*
X19590000Y-9176000D02*
G75*
G02*
X19510000Y-9176000I-40000J0D01*
G01*
X19510000Y-9176000D02*
G75*
G02*
X19590000Y-9176000I40000J0D01*
G01*
X19590000Y-9430000D02*
G75*
G02*
X19510000Y-9430000I-40000J0D01*
G01*
X19510000Y-9430000D02*
G75*
G02*
X19590000Y-9430000I40000J0D01*
G01*
X19592500Y-7720000D02*
G75*
G02*
X19512500Y-7720000I-40000J0D01*
G01*
X19512500Y-7720000D02*
G75*
G02*
X19592500Y-7720000I40000J0D01*
G01*
X19592500Y-8482000D02*
G75*
G02*
X19512500Y-8482000I-40000J0D01*
G01*
X19512500Y-8482000D02*
G75*
G02*
X19592500Y-8482000I40000J0D01*
G01*
X11960000Y-6942500D02*
X11960000Y-7037500D01*
X11912500Y-6990000D02*
X12007500Y-6990000D01*
X12210000Y-6942500D02*
X12210000Y-7037500D01*
X12162500Y-6990000D02*
X12257500Y-6990000D01*
X12460000Y-6942500D02*
X12460000Y-7037500D01*
X12412500Y-6990000D02*
X12507500Y-6990000D01*
X12710000Y-6942500D02*
X12710000Y-7037500D01*
X12662500Y-6990000D02*
X12757500Y-6990000D01*
X12960000Y-6942500D02*
X12960000Y-7037500D01*
X12912500Y-6990000D02*
X13007500Y-6990000D01*
X13210000Y-6942500D02*
X13210000Y-7037500D01*
X13162500Y-6990000D02*
X13257500Y-6990000D01*
X11815656Y-7956106D02*
X11815656Y-7885394D01*
X11744944Y-7885394D01*
X11744944Y-7956106D01*
X11815656Y-7956106D01*
X12069656Y-7956106D02*
X12069656Y-7885394D01*
X11998944Y-7885394D01*
X11998944Y-7956106D01*
X12069656Y-7956106D01*
X12323656Y-7956106D02*
X12323656Y-7885394D01*
X12252944Y-7885394D01*
X12252944Y-7956106D01*
X12323656Y-7956106D01*
D11*
X14339500Y-7610000D02*
X14399500Y-7550000D01*
X14339500Y-7490000D01*
X14279500Y-7550000D01*
X14339500Y-7610000D01*
X14399500Y-8040000D02*
X14459500Y-7980000D01*
X14399500Y-7920000D01*
X14339500Y-7980000D01*
X14399500Y-8040000D01*
X14720500Y-7610000D02*
X14780500Y-7550000D01*
X14720500Y-7490000D01*
X14660500Y-7550000D01*
X14720500Y-7610000D01*
X14780500Y-8040000D02*
X14840500Y-7980000D01*
X14780500Y-7920000D01*
X14720500Y-7980000D01*
X14780500Y-8040000D01*
X15259500Y-7620000D02*
X15319500Y-7560000D01*
X15259500Y-7500000D01*
X15199500Y-7560000D01*
X15259500Y-7620000D01*
X15319500Y-8060000D02*
X15379500Y-8000000D01*
X15319500Y-7940000D01*
X15259500Y-8000000D01*
X15319500Y-8060000D01*
X15640500Y-7620000D02*
X15700500Y-7560000D01*
X15640500Y-7500000D01*
X15580500Y-7560000D01*
X15640500Y-7620000D01*
X15700500Y-8060000D02*
X15760500Y-8000000D01*
X15700500Y-7940000D01*
X15640500Y-8000000D01*
X15700500Y-8060000D01*
X16059500Y-7400000D02*
X16119500Y-7340000D01*
X16059500Y-7280000D01*
X15999500Y-7340000D01*
X16059500Y-7400000D01*
X16109500Y-7840000D02*
X16169500Y-7780000D01*
X16109500Y-7720000D01*
X16049500Y-7780000D01*
X16109500Y-7840000D01*
X16440500Y-7400000D02*
X16500500Y-7340000D01*
X16440500Y-7280000D01*
X16380500Y-7340000D01*
X16440500Y-7400000D01*
X16490500Y-7840000D02*
X16550500Y-7780000D01*
X16490500Y-7720000D01*
X16430500Y-7780000D01*
X16490500Y-7840000D01*
D14*
X10802500Y-6051000D02*
X10932500Y-6181000D01*
X10932500Y-6051000D02*
X10802500Y-6181000D01*
X10932500Y-6116000D02*
G75*
G02*
X10802500Y-6116000I-65000J0D01*
G01*
X10802500Y-6116000D02*
G75*
G02*
X10932500Y-6116000I65000J0D01*
G01*
X10802500Y-13293000D02*
X10932500Y-13423000D01*
X10932500Y-13293000D02*
X10802500Y-13423000D01*
X10932500Y-13358000D02*
G75*
G02*
X10802500Y-13358000I-65000J0D01*
G01*
X10802500Y-13358000D02*
G75*
G02*
X10932500Y-13358000I65000J0D01*
G01*
X11175000Y-10852250D02*
X11305000Y-10982250D01*
X11305000Y-10852250D02*
X11175000Y-10982250D01*
X11305000Y-10917250D02*
G75*
G02*
X11175000Y-10917250I-65000J0D01*
G01*
X11175000Y-10917250D02*
G75*
G02*
X11305000Y-10917250I65000J0D01*
G01*
X11175000Y-12072250D02*
X11305000Y-12202250D01*
X11305000Y-12072250D02*
X11175000Y-12202250D01*
X11305000Y-12137250D02*
G75*
G02*
X11175000Y-12137250I-65000J0D01*
G01*
X11175000Y-12137250D02*
G75*
G02*
X11305000Y-12137250I65000J0D01*
G01*
X11302500Y-6051000D02*
X11432500Y-6181000D01*
X11432500Y-6051000D02*
X11302500Y-6181000D01*
X11432500Y-6116000D02*
G75*
G02*
X11302500Y-6116000I-65000J0D01*
G01*
X11302500Y-6116000D02*
G75*
G02*
X11432500Y-6116000I65000J0D01*
G01*
X11302500Y-13293000D02*
X11432500Y-13423000D01*
X11432500Y-13293000D02*
X11302500Y-13423000D01*
X11432500Y-13358000D02*
G75*
G02*
X11302500Y-13358000I-65000J0D01*
G01*
X11302500Y-13358000D02*
G75*
G02*
X11432500Y-13358000I65000J0D01*
G01*
X11775000Y-10652250D02*
X11905000Y-10782250D01*
X11905000Y-10652250D02*
X11775000Y-10782250D01*
X11905000Y-10717250D02*
G75*
G02*
X11775000Y-10717250I-65000J0D01*
G01*
X11775000Y-10717250D02*
G75*
G02*
X11905000Y-10717250I65000J0D01*
G01*
X11802500Y-6051000D02*
X11932500Y-6181000D01*
X11932500Y-6051000D02*
X11802500Y-6181000D01*
X11932500Y-6116000D02*
G75*
G02*
X11802500Y-6116000I-65000J0D01*
G01*
X11802500Y-6116000D02*
G75*
G02*
X11932500Y-6116000I65000J0D01*
G01*
X11802500Y-13293000D02*
X11932500Y-13423000D01*
X11932500Y-13293000D02*
X11802500Y-13423000D01*
X11932500Y-13358000D02*
G75*
G02*
X11802500Y-13358000I-65000J0D01*
G01*
X11802500Y-13358000D02*
G75*
G02*
X11932500Y-13358000I65000J0D01*
G01*
X12302500Y-6051000D02*
X12432500Y-6181000D01*
X12432500Y-6051000D02*
X12302500Y-6181000D01*
X12432500Y-6116000D02*
G75*
G02*
X12302500Y-6116000I-65000J0D01*
G01*
X12302500Y-6116000D02*
G75*
G02*
X12432500Y-6116000I65000J0D01*
G01*
X12302500Y-13293000D02*
X12432500Y-13423000D01*
X12432500Y-13293000D02*
X12302500Y-13423000D01*
X12432500Y-13358000D02*
G75*
G02*
X12302500Y-13358000I-65000J0D01*
G01*
X12302500Y-13358000D02*
G75*
G02*
X12432500Y-13358000I65000J0D01*
G01*
X12375000Y-10852250D02*
X12505000Y-10982250D01*
X12505000Y-10852250D02*
X12375000Y-10982250D01*
X12505000Y-10917250D02*
G75*
G02*
X12375000Y-10917250I-65000J0D01*
G01*
X12375000Y-10917250D02*
G75*
G02*
X12505000Y-10917250I65000J0D01*
G01*
X12375000Y-12072250D02*
X12505000Y-12202250D01*
X12505000Y-12072250D02*
X12375000Y-12202250D01*
X12505000Y-12137250D02*
G75*
G02*
X12375000Y-12137250I-65000J0D01*
G01*
X12375000Y-12137250D02*
G75*
G02*
X12505000Y-12137250I65000J0D01*
G01*
X12802500Y-6051000D02*
X12932500Y-6181000D01*
X12932500Y-6051000D02*
X12802500Y-6181000D01*
X12932500Y-6116000D02*
G75*
G02*
X12802500Y-6116000I-65000J0D01*
G01*
X12802500Y-6116000D02*
G75*
G02*
X12932500Y-6116000I65000J0D01*
G01*
X12802500Y-13293000D02*
X12932500Y-13423000D01*
X12932500Y-13293000D02*
X12802500Y-13423000D01*
X12932500Y-13358000D02*
G75*
G02*
X12802500Y-13358000I-65000J0D01*
G01*
X12802500Y-13358000D02*
G75*
G02*
X12932500Y-13358000I65000J0D01*
G01*
X13065000Y-10852250D02*
X13195000Y-10982250D01*
X13195000Y-10852250D02*
X13065000Y-10982250D01*
X13195000Y-10917250D02*
G75*
G02*
X13065000Y-10917250I-65000J0D01*
G01*
X13065000Y-10917250D02*
G75*
G02*
X13195000Y-10917250I65000J0D01*
G01*
X13065000Y-12072250D02*
X13195000Y-12202250D01*
X13195000Y-12072250D02*
X13065000Y-12202250D01*
X13195000Y-12137250D02*
G75*
G02*
X13065000Y-12137250I-65000J0D01*
G01*
X13065000Y-12137250D02*
G75*
G02*
X13195000Y-12137250I65000J0D01*
G01*
X13302500Y-6051000D02*
X13432500Y-6181000D01*
X13432500Y-6051000D02*
X13302500Y-6181000D01*
X13432500Y-6116000D02*
G75*
G02*
X13302500Y-6116000I-65000J0D01*
G01*
X13302500Y-6116000D02*
G75*
G02*
X13432500Y-6116000I65000J0D01*
G01*
X13302500Y-13293000D02*
X13432500Y-13423000D01*
X13432500Y-13293000D02*
X13302500Y-13423000D01*
X13432500Y-13358000D02*
G75*
G02*
X13302500Y-13358000I-65000J0D01*
G01*
X13302500Y-13358000D02*
G75*
G02*
X13432500Y-13358000I65000J0D01*
G01*
X13665000Y-10652250D02*
X13795000Y-10782250D01*
X13795000Y-10652250D02*
X13665000Y-10782250D01*
X13795000Y-10717250D02*
G75*
G02*
X13665000Y-10717250I-65000J0D01*
G01*
X13665000Y-10717250D02*
G75*
G02*
X13795000Y-10717250I65000J0D01*
G01*
X13802500Y-6051000D02*
X13932500Y-6181000D01*
X13932500Y-6051000D02*
X13802500Y-6181000D01*
X13932500Y-6116000D02*
G75*
G02*
X13802500Y-6116000I-65000J0D01*
G01*
X13802500Y-6116000D02*
G75*
G02*
X13932500Y-6116000I65000J0D01*
G01*
X13802500Y-13293000D02*
X13932500Y-13423000D01*
X13932500Y-13293000D02*
X13802500Y-13423000D01*
X13932500Y-13358000D02*
G75*
G02*
X13802500Y-13358000I-65000J0D01*
G01*
X13802500Y-13358000D02*
G75*
G02*
X13932500Y-13358000I65000J0D01*
G01*
X14265000Y-10852250D02*
X14395000Y-10982250D01*
X14395000Y-10852250D02*
X14265000Y-10982250D01*
X14395000Y-10917250D02*
G75*
G02*
X14265000Y-10917250I-65000J0D01*
G01*
X14265000Y-10917250D02*
G75*
G02*
X14395000Y-10917250I65000J0D01*
G01*
X14265000Y-12072250D02*
X14395000Y-12202250D01*
X14395000Y-12072250D02*
X14265000Y-12202250D01*
X14395000Y-12137250D02*
G75*
G02*
X14265000Y-12137250I-65000J0D01*
G01*
X14265000Y-12137250D02*
G75*
G02*
X14395000Y-12137250I65000J0D01*
G01*
X14302500Y-6051000D02*
X14432500Y-6181000D01*
X14432500Y-6051000D02*
X14302500Y-6181000D01*
X14432500Y-6116000D02*
G75*
G02*
X14302500Y-6116000I-65000J0D01*
G01*
X14302500Y-6116000D02*
G75*
G02*
X14432500Y-6116000I65000J0D01*
G01*
X14302500Y-13293000D02*
X14432500Y-13423000D01*
X14432500Y-13293000D02*
X14302500Y-13423000D01*
X14432500Y-13358000D02*
G75*
G02*
X14302500Y-13358000I-65000J0D01*
G01*
X14302500Y-13358000D02*
G75*
G02*
X14432500Y-13358000I65000J0D01*
G01*
X15802500Y-6051000D02*
X15932500Y-6181000D01*
X15932500Y-6051000D02*
X15802500Y-6181000D01*
X15932500Y-6116000D02*
G75*
G02*
X15802500Y-6116000I-65000J0D01*
G01*
X15802500Y-6116000D02*
G75*
G02*
X15932500Y-6116000I65000J0D01*
G01*
X15802500Y-13293000D02*
X15932500Y-13423000D01*
X15932500Y-13293000D02*
X15802500Y-13423000D01*
X15932500Y-13358000D02*
G75*
G02*
X15802500Y-13358000I-65000J0D01*
G01*
X15802500Y-13358000D02*
G75*
G02*
X15932500Y-13358000I65000J0D01*
G01*
X15815000Y-10852250D02*
X15945000Y-10982250D01*
X15945000Y-10852250D02*
X15815000Y-10982250D01*
X15945000Y-10917250D02*
G75*
G02*
X15815000Y-10917250I-65000J0D01*
G01*
X15815000Y-10917250D02*
G75*
G02*
X15945000Y-10917250I65000J0D01*
G01*
X15815000Y-12072250D02*
X15945000Y-12202250D01*
X15945000Y-12072250D02*
X15815000Y-12202250D01*
X15945000Y-12137250D02*
G75*
G02*
X15815000Y-12137250I-65000J0D01*
G01*
X15815000Y-12137250D02*
G75*
G02*
X15945000Y-12137250I65000J0D01*
G01*
X16302500Y-6051000D02*
X16432500Y-6181000D01*
X16432500Y-6051000D02*
X16302500Y-6181000D01*
X16432500Y-6116000D02*
G75*
G02*
X16302500Y-6116000I-65000J0D01*
G01*
X16302500Y-6116000D02*
G75*
G02*
X16432500Y-6116000I65000J0D01*
G01*
X16302500Y-13293000D02*
X16432500Y-13423000D01*
X16432500Y-13293000D02*
X16302500Y-13423000D01*
X16432500Y-13358000D02*
G75*
G02*
X16302500Y-13358000I-65000J0D01*
G01*
X16302500Y-13358000D02*
G75*
G02*
X16432500Y-13358000I65000J0D01*
G01*
X16415000Y-10652250D02*
X16545000Y-10782250D01*
X16545000Y-10652250D02*
X16415000Y-10782250D01*
X16545000Y-10717250D02*
G75*
G02*
X16415000Y-10717250I-65000J0D01*
G01*
X16415000Y-10717250D02*
G75*
G02*
X16545000Y-10717250I65000J0D01*
G01*
X16802500Y-6051000D02*
X16932500Y-6181000D01*
X16932500Y-6051000D02*
X16802500Y-6181000D01*
X16932500Y-6116000D02*
G75*
G02*
X16802500Y-6116000I-65000J0D01*
G01*
X16802500Y-6116000D02*
G75*
G02*
X16932500Y-6116000I65000J0D01*
G01*
X16802500Y-13293000D02*
X16932500Y-13423000D01*
X16932500Y-13293000D02*
X16802500Y-13423000D01*
X16932500Y-13358000D02*
G75*
G02*
X16802500Y-13358000I-65000J0D01*
G01*
X16802500Y-13358000D02*
G75*
G02*
X16932500Y-13358000I65000J0D01*
G01*
X17015000Y-10852250D02*
X17145000Y-10982250D01*
X17145000Y-10852250D02*
X17015000Y-10982250D01*
X17145000Y-10917250D02*
G75*
G02*
X17015000Y-10917250I-65000J0D01*
G01*
X17015000Y-10917250D02*
G75*
G02*
X17145000Y-10917250I65000J0D01*
G01*
X17015000Y-12072250D02*
X17145000Y-12202250D01*
X17145000Y-12072250D02*
X17015000Y-12202250D01*
X17145000Y-12137250D02*
G75*
G02*
X17015000Y-12137250I-65000J0D01*
G01*
X17015000Y-12137250D02*
G75*
G02*
X17145000Y-12137250I65000J0D01*
G01*
X17302500Y-6051000D02*
X17432500Y-6181000D01*
X17432500Y-6051000D02*
X17302500Y-6181000D01*
X17432500Y-6116000D02*
G75*
G02*
X17302500Y-6116000I-65000J0D01*
G01*
X17302500Y-6116000D02*
G75*
G02*
X17432500Y-6116000I65000J0D01*
G01*
X17302500Y-13293000D02*
X17432500Y-13423000D01*
X17432500Y-13293000D02*
X17302500Y-13423000D01*
X17432500Y-13358000D02*
G75*
G02*
X17302500Y-13358000I-65000J0D01*
G01*
X17302500Y-13358000D02*
G75*
G02*
X17432500Y-13358000I65000J0D01*
G01*
X17720000Y-10852250D02*
X17850000Y-10982250D01*
X17850000Y-10852250D02*
X17720000Y-10982250D01*
X17850000Y-10917250D02*
G75*
G02*
X17720000Y-10917250I-65000J0D01*
G01*
X17720000Y-10917250D02*
G75*
G02*
X17850000Y-10917250I65000J0D01*
G01*
X17720000Y-12072250D02*
X17850000Y-12202250D01*
X17850000Y-12072250D02*
X17720000Y-12202250D01*
X17850000Y-12137250D02*
G75*
G02*
X17720000Y-12137250I-65000J0D01*
G01*
X17720000Y-12137250D02*
G75*
G02*
X17850000Y-12137250I65000J0D01*
G01*
X17802500Y-6051000D02*
X17932500Y-6181000D01*
X17932500Y-6051000D02*
X17802500Y-6181000D01*
X17932500Y-6116000D02*
G75*
G02*
X17802500Y-6116000I-65000J0D01*
G01*
X17802500Y-6116000D02*
G75*
G02*
X17932500Y-6116000I65000J0D01*
G01*
X17802500Y-13293000D02*
X17932500Y-13423000D01*
X17932500Y-13293000D02*
X17802500Y-13423000D01*
X17932500Y-13358000D02*
G75*
G02*
X17802500Y-13358000I-65000J0D01*
G01*
X17802500Y-13358000D02*
G75*
G02*
X17932500Y-13358000I65000J0D01*
G01*
X18302500Y-6051000D02*
X18432500Y-6181000D01*
X18432500Y-6051000D02*
X18302500Y-6181000D01*
X18432500Y-6116000D02*
G75*
G02*
X18302500Y-6116000I-65000J0D01*
G01*
X18302500Y-6116000D02*
G75*
G02*
X18432500Y-6116000I65000J0D01*
G01*
X18302500Y-13293000D02*
X18432500Y-13423000D01*
X18432500Y-13293000D02*
X18302500Y-13423000D01*
X18432500Y-13358000D02*
G75*
G02*
X18302500Y-13358000I-65000J0D01*
G01*
X18302500Y-13358000D02*
G75*
G02*
X18432500Y-13358000I65000J0D01*
G01*
X18320000Y-10652250D02*
X18450000Y-10782250D01*
X18450000Y-10652250D02*
X18320000Y-10782250D01*
X18450000Y-10717250D02*
G75*
G02*
X18320000Y-10717250I-65000J0D01*
G01*
X18320000Y-10717250D02*
G75*
G02*
X18450000Y-10717250I65000J0D01*
G01*
X18802500Y-6051000D02*
X18932500Y-6181000D01*
X18932500Y-6051000D02*
X18802500Y-6181000D01*
X18932500Y-6116000D02*
G75*
G02*
X18802500Y-6116000I-65000J0D01*
G01*
X18802500Y-6116000D02*
G75*
G02*
X18932500Y-6116000I65000J0D01*
G01*
X18802500Y-13293000D02*
X18932500Y-13423000D01*
X18932500Y-13293000D02*
X18802500Y-13423000D01*
X18932500Y-13358000D02*
G75*
G02*
X18802500Y-13358000I-65000J0D01*
G01*
X18802500Y-13358000D02*
G75*
G02*
X18932500Y-13358000I65000J0D01*
G01*
X18920000Y-10852250D02*
X19050000Y-10982250D01*
X19050000Y-10852250D02*
X18920000Y-10982250D01*
X19050000Y-10917250D02*
G75*
G02*
X18920000Y-10917250I-65000J0D01*
G01*
X18920000Y-10917250D02*
G75*
G02*
X19050000Y-10917250I65000J0D01*
G01*
X18920000Y-12072250D02*
X19050000Y-12202250D01*
X19050000Y-12072250D02*
X18920000Y-12202250D01*
X19050000Y-12137250D02*
G75*
G02*
X18920000Y-12137250I-65000J0D01*
G01*
X18920000Y-12137250D02*
G75*
G02*
X19050000Y-12137250I65000J0D01*
G01*
X19302500Y-6051000D02*
X19432500Y-6181000D01*
X19432500Y-6051000D02*
X19302500Y-6181000D01*
X19432500Y-6116000D02*
G75*
G02*
X19302500Y-6116000I-65000J0D01*
G01*
X19302500Y-6116000D02*
G75*
G02*
X19432500Y-6116000I65000J0D01*
G01*
X19302500Y-13293000D02*
X19432500Y-13423000D01*
X19432500Y-13293000D02*
X19302500Y-13423000D01*
X19432500Y-13358000D02*
G75*
G02*
X19302500Y-13358000I-65000J0D01*
G01*
X19302500Y-13358000D02*
G75*
G02*
X19432500Y-13358000I65000J0D01*
G01*
D15*
X10380000Y-7065000D02*
X10630000Y-7315000D01*
X10630000Y-7065000D02*
X10380000Y-7315000D01*
X10505000Y-7065000D02*
X10505000Y-7315000D01*
X10380000Y-7190000D02*
X10630000Y-7190000D01*
X10380000Y-12155000D02*
X10630000Y-12405000D01*
X10630000Y-12155000D02*
X10380000Y-12405000D01*
X10505000Y-12155000D02*
X10505000Y-12405000D01*
X10380000Y-12280000D02*
X10630000Y-12280000D01*
X19605000Y-7065000D02*
X19855000Y-7315000D01*
X19855000Y-7065000D02*
X19605000Y-7315000D01*
X19730000Y-7065000D02*
X19730000Y-7315000D01*
X19605000Y-7190000D02*
X19855000Y-7190000D01*
X19605000Y-12155000D02*
X19855000Y-12405000D01*
X19855000Y-12155000D02*
X19605000Y-12405000D01*
X19730000Y-12155000D02*
X19730000Y-12405000D01*
X19605000Y-12280000D02*
X19855000Y-12280000D01*
D12*
X10372277Y-14216984D02*
X10372277Y-14016984D01*
X10372277Y-14016984D02*
X10419896Y-14016984D01*
X10419896Y-14016984D02*
X10448467Y-14026508D01*
X10448467Y-14026508D02*
X10467515Y-14045555D01*
X10467515Y-14045555D02*
X10477039Y-14064603D01*
X10477039Y-14064603D02*
X10486563Y-14102698D01*
X10486563Y-14102698D02*
X10486563Y-14131269D01*
X10486563Y-14131269D02*
X10477039Y-14169365D01*
X10477039Y-14169365D02*
X10467515Y-14188412D01*
X10467515Y-14188412D02*
X10448467Y-14207460D01*
X10448467Y-14207460D02*
X10419896Y-14216984D01*
X10419896Y-14216984D02*
X10372277Y-14216984D01*
X10572277Y-14216984D02*
X10572277Y-14083650D01*
X10572277Y-14121746D02*
X10581801Y-14102698D01*
X10581801Y-14102698D02*
X10591324Y-14093174D01*
X10591324Y-14093174D02*
X10610372Y-14083650D01*
X10610372Y-14083650D02*
X10629420Y-14083650D01*
X10696086Y-14216984D02*
X10696086Y-14083650D01*
X10696086Y-14016984D02*
X10686563Y-14026508D01*
X10686563Y-14026508D02*
X10696086Y-14036031D01*
X10696086Y-14036031D02*
X10705610Y-14026508D01*
X10705610Y-14026508D02*
X10696086Y-14016984D01*
X10696086Y-14016984D02*
X10696086Y-14036031D01*
X10819896Y-14216984D02*
X10800848Y-14207460D01*
X10800848Y-14207460D02*
X10791324Y-14188412D01*
X10791324Y-14188412D02*
X10791324Y-14016984D01*
X10924658Y-14216984D02*
X10905610Y-14207460D01*
X10905610Y-14207460D02*
X10896086Y-14188412D01*
X10896086Y-14188412D02*
X10896086Y-14016984D01*
X11153229Y-14216984D02*
X11153229Y-14016984D01*
X11153229Y-14016984D02*
X11219896Y-14159841D01*
X11219896Y-14159841D02*
X11286562Y-14016984D01*
X11286562Y-14016984D02*
X11286562Y-14216984D01*
X11467515Y-14216984D02*
X11467515Y-14112222D01*
X11467515Y-14112222D02*
X11457991Y-14093174D01*
X11457991Y-14093174D02*
X11438943Y-14083650D01*
X11438943Y-14083650D02*
X11400848Y-14083650D01*
X11400848Y-14083650D02*
X11381801Y-14093174D01*
X11467515Y-14207460D02*
X11448467Y-14216984D01*
X11448467Y-14216984D02*
X11400848Y-14216984D01*
X11400848Y-14216984D02*
X11381801Y-14207460D01*
X11381801Y-14207460D02*
X11372277Y-14188412D01*
X11372277Y-14188412D02*
X11372277Y-14169365D01*
X11372277Y-14169365D02*
X11381801Y-14150317D01*
X11381801Y-14150317D02*
X11400848Y-14140793D01*
X11400848Y-14140793D02*
X11448467Y-14140793D01*
X11448467Y-14140793D02*
X11467515Y-14131269D01*
X11562753Y-14083650D02*
X11562753Y-14283650D01*
X11562753Y-14093174D02*
X11581801Y-14083650D01*
X11581801Y-14083650D02*
X11619896Y-14083650D01*
X11619896Y-14083650D02*
X11638943Y-14093174D01*
X11638943Y-14093174D02*
X11648467Y-14102698D01*
X11648467Y-14102698D02*
X11657991Y-14121746D01*
X11657991Y-14121746D02*
X11657991Y-14178888D01*
X11657991Y-14178888D02*
X11648467Y-14197936D01*
X11648467Y-14197936D02*
X11638943Y-14207460D01*
X11638943Y-14207460D02*
X11619896Y-14216984D01*
X11619896Y-14216984D02*
X11581801Y-14216984D01*
X11581801Y-14216984D02*
X11562753Y-14207460D01*
X11743705Y-14197936D02*
X11753229Y-14207460D01*
X11753229Y-14207460D02*
X11743705Y-14216984D01*
X11743705Y-14216984D02*
X11734182Y-14207460D01*
X11734182Y-14207460D02*
X11743705Y-14197936D01*
X11743705Y-14197936D02*
X11743705Y-14216984D01*
X11743705Y-14093174D02*
X11753229Y-14102698D01*
X11753229Y-14102698D02*
X11743705Y-14112222D01*
X11743705Y-14112222D02*
X11734182Y-14102698D01*
X11734182Y-14102698D02*
X11743705Y-14093174D01*
X11743705Y-14093174D02*
X11743705Y-14112222D01*
D13*
X10081500Y-14530500D02*
X10111500Y-14560500D01*
X10111500Y-14530500D02*
X10081500Y-14560500D01*
D12*
X10410372Y-14436984D02*
X10429420Y-14436984D01*
X10429420Y-14436984D02*
X10448467Y-14446508D01*
X10448467Y-14446508D02*
X10457991Y-14456031D01*
X10457991Y-14456031D02*
X10467515Y-14475079D01*
X10467515Y-14475079D02*
X10477039Y-14513174D01*
X10477039Y-14513174D02*
X10477039Y-14560793D01*
X10477039Y-14560793D02*
X10467515Y-14598888D01*
X10467515Y-14598888D02*
X10457991Y-14617936D01*
X10457991Y-14617936D02*
X10448467Y-14627460D01*
X10448467Y-14627460D02*
X10429420Y-14636984D01*
X10429420Y-14636984D02*
X10410372Y-14636984D01*
X10410372Y-14636984D02*
X10391324Y-14627460D01*
X10391324Y-14627460D02*
X10381801Y-14617936D01*
X10381801Y-14617936D02*
X10372277Y-14598888D01*
X10372277Y-14598888D02*
X10362753Y-14560793D01*
X10362753Y-14560793D02*
X10362753Y-14513174D01*
X10362753Y-14513174D02*
X10372277Y-14475079D01*
X10372277Y-14475079D02*
X10381801Y-14456031D01*
X10381801Y-14456031D02*
X10391324Y-14446508D01*
X10391324Y-14446508D02*
X10410372Y-14436984D01*
X10562753Y-14617936D02*
X10572277Y-14627460D01*
X10572277Y-14627460D02*
X10562753Y-14636984D01*
X10562753Y-14636984D02*
X10553229Y-14627460D01*
X10553229Y-14627460D02*
X10562753Y-14617936D01*
X10562753Y-14617936D02*
X10562753Y-14636984D01*
X10638944Y-14436984D02*
X10762753Y-14436984D01*
X10762753Y-14436984D02*
X10696086Y-14513174D01*
X10696086Y-14513174D02*
X10724658Y-14513174D01*
X10724658Y-14513174D02*
X10743705Y-14522698D01*
X10743705Y-14522698D02*
X10753229Y-14532222D01*
X10753229Y-14532222D02*
X10762753Y-14551269D01*
X10762753Y-14551269D02*
X10762753Y-14598888D01*
X10762753Y-14598888D02*
X10753229Y-14617936D01*
X10753229Y-14617936D02*
X10743705Y-14627460D01*
X10743705Y-14627460D02*
X10724658Y-14636984D01*
X10724658Y-14636984D02*
X10667515Y-14636984D01*
X10667515Y-14636984D02*
X10648467Y-14627460D01*
X10648467Y-14627460D02*
X10638944Y-14617936D01*
X10886563Y-14436984D02*
X10905610Y-14436984D01*
X10905610Y-14436984D02*
X10924658Y-14446508D01*
X10924658Y-14446508D02*
X10934182Y-14456031D01*
X10934182Y-14456031D02*
X10943705Y-14475079D01*
X10943705Y-14475079D02*
X10953229Y-14513174D01*
X10953229Y-14513174D02*
X10953229Y-14560793D01*
X10953229Y-14560793D02*
X10943705Y-14598888D01*
X10943705Y-14598888D02*
X10934182Y-14617936D01*
X10934182Y-14617936D02*
X10924658Y-14627460D01*
X10924658Y-14627460D02*
X10905610Y-14636984D01*
X10905610Y-14636984D02*
X10886563Y-14636984D01*
X10886563Y-14636984D02*
X10867515Y-14627460D01*
X10867515Y-14627460D02*
X10857991Y-14617936D01*
X10857991Y-14617936D02*
X10848467Y-14598888D01*
X10848467Y-14598888D02*
X10838944Y-14560793D01*
X10838944Y-14560793D02*
X10838944Y-14513174D01*
X10838944Y-14513174D02*
X10848467Y-14475079D01*
X10848467Y-14475079D02*
X10857991Y-14456031D01*
X10857991Y-14456031D02*
X10867515Y-14446508D01*
X10867515Y-14446508D02*
X10886563Y-14436984D01*
X11077039Y-14436984D02*
X11096086Y-14436984D01*
X11096086Y-14436984D02*
X11115134Y-14446508D01*
X11115134Y-14446508D02*
X11124658Y-14456031D01*
X11124658Y-14456031D02*
X11134182Y-14475079D01*
X11134182Y-14475079D02*
X11143705Y-14513174D01*
X11143705Y-14513174D02*
X11143705Y-14560793D01*
X11143705Y-14560793D02*
X11134182Y-14598888D01*
X11134182Y-14598888D02*
X11124658Y-14617936D01*
X11124658Y-14617936D02*
X11115134Y-14627460D01*
X11115134Y-14627460D02*
X11096086Y-14636984D01*
X11096086Y-14636984D02*
X11077039Y-14636984D01*
X11077039Y-14636984D02*
X11057991Y-14627460D01*
X11057991Y-14627460D02*
X11048467Y-14617936D01*
X11048467Y-14617936D02*
X11038944Y-14598888D01*
X11038944Y-14598888D02*
X11029420Y-14560793D01*
X11029420Y-14560793D02*
X11029420Y-14513174D01*
X11029420Y-14513174D02*
X11038944Y-14475079D01*
X11038944Y-14475079D02*
X11048467Y-14456031D01*
X11048467Y-14456031D02*
X11057991Y-14446508D01*
X11057991Y-14446508D02*
X11077039Y-14436984D01*
X11229420Y-14636984D02*
X11229420Y-14503650D01*
X11229420Y-14522698D02*
X11238943Y-14513174D01*
X11238943Y-14513174D02*
X11257991Y-14503650D01*
X11257991Y-14503650D02*
X11286563Y-14503650D01*
X11286563Y-14503650D02*
X11305610Y-14513174D01*
X11305610Y-14513174D02*
X11315134Y-14532222D01*
X11315134Y-14532222D02*
X11315134Y-14636984D01*
X11315134Y-14532222D02*
X11324658Y-14513174D01*
X11324658Y-14513174D02*
X11343705Y-14503650D01*
X11343705Y-14503650D02*
X11372277Y-14503650D01*
X11372277Y-14503650D02*
X11391324Y-14513174D01*
X11391324Y-14513174D02*
X11400848Y-14532222D01*
X11400848Y-14532222D02*
X11400848Y-14636984D01*
X11496086Y-14636984D02*
X11496086Y-14503650D01*
X11496086Y-14522698D02*
X11505610Y-14513174D01*
X11505610Y-14513174D02*
X11524658Y-14503650D01*
X11524658Y-14503650D02*
X11553229Y-14503650D01*
X11553229Y-14503650D02*
X11572277Y-14513174D01*
X11572277Y-14513174D02*
X11581801Y-14532222D01*
X11581801Y-14532222D02*
X11581801Y-14636984D01*
X11581801Y-14532222D02*
X11591324Y-14513174D01*
X11591324Y-14513174D02*
X11610372Y-14503650D01*
X11610372Y-14503650D02*
X11638943Y-14503650D01*
X11638943Y-14503650D02*
X11657991Y-14513174D01*
X11657991Y-14513174D02*
X11667515Y-14532222D01*
X11667515Y-14532222D02*
X11667515Y-14636984D01*
X12057991Y-14427460D02*
X11886563Y-14684603D01*
X12315134Y-14436984D02*
X12334182Y-14436984D01*
X12334182Y-14436984D02*
X12353229Y-14446508D01*
X12353229Y-14446508D02*
X12362753Y-14456031D01*
X12362753Y-14456031D02*
X12372277Y-14475079D01*
X12372277Y-14475079D02*
X12381801Y-14513174D01*
X12381801Y-14513174D02*
X12381801Y-14560793D01*
X12381801Y-14560793D02*
X12372277Y-14598888D01*
X12372277Y-14598888D02*
X12362753Y-14617936D01*
X12362753Y-14617936D02*
X12353229Y-14627460D01*
X12353229Y-14627460D02*
X12334182Y-14636984D01*
X12334182Y-14636984D02*
X12315134Y-14636984D01*
X12315134Y-14636984D02*
X12296086Y-14627460D01*
X12296086Y-14627460D02*
X12286563Y-14617936D01*
X12286563Y-14617936D02*
X12277039Y-14598888D01*
X12277039Y-14598888D02*
X12267515Y-14560793D01*
X12267515Y-14560793D02*
X12267515Y-14513174D01*
X12267515Y-14513174D02*
X12277039Y-14475079D01*
X12277039Y-14475079D02*
X12286563Y-14456031D01*
X12286563Y-14456031D02*
X12296086Y-14446508D01*
X12296086Y-14446508D02*
X12315134Y-14436984D01*
X12467515Y-14617936D02*
X12477039Y-14627460D01*
X12477039Y-14627460D02*
X12467515Y-14636984D01*
X12467515Y-14636984D02*
X12457991Y-14627460D01*
X12457991Y-14627460D02*
X12467515Y-14617936D01*
X12467515Y-14617936D02*
X12467515Y-14636984D01*
X12600848Y-14436984D02*
X12619896Y-14436984D01*
X12619896Y-14436984D02*
X12638944Y-14446508D01*
X12638944Y-14446508D02*
X12648467Y-14456031D01*
X12648467Y-14456031D02*
X12657991Y-14475079D01*
X12657991Y-14475079D02*
X12667515Y-14513174D01*
X12667515Y-14513174D02*
X12667515Y-14560793D01*
X12667515Y-14560793D02*
X12657991Y-14598888D01*
X12657991Y-14598888D02*
X12648467Y-14617936D01*
X12648467Y-14617936D02*
X12638944Y-14627460D01*
X12638944Y-14627460D02*
X12619896Y-14636984D01*
X12619896Y-14636984D02*
X12600848Y-14636984D01*
X12600848Y-14636984D02*
X12581801Y-14627460D01*
X12581801Y-14627460D02*
X12572277Y-14617936D01*
X12572277Y-14617936D02*
X12562753Y-14598888D01*
X12562753Y-14598888D02*
X12553229Y-14560793D01*
X12553229Y-14560793D02*
X12553229Y-14513174D01*
X12553229Y-14513174D02*
X12562753Y-14475079D01*
X12562753Y-14475079D02*
X12572277Y-14456031D01*
X12572277Y-14456031D02*
X12581801Y-14446508D01*
X12581801Y-14446508D02*
X12600848Y-14436984D01*
X12857991Y-14636984D02*
X12743706Y-14636984D01*
X12800848Y-14636984D02*
X12800848Y-14436984D01*
X12800848Y-14436984D02*
X12781801Y-14465555D01*
X12781801Y-14465555D02*
X12762753Y-14484603D01*
X12762753Y-14484603D02*
X12743706Y-14494127D01*
X13048467Y-14636984D02*
X12934182Y-14636984D01*
X12991325Y-14636984D02*
X12991325Y-14436984D01*
X12991325Y-14436984D02*
X12972277Y-14465555D01*
X12972277Y-14465555D02*
X12953229Y-14484603D01*
X12953229Y-14484603D02*
X12934182Y-14494127D01*
X13162753Y-14522698D02*
X13143706Y-14513174D01*
X13143706Y-14513174D02*
X13134182Y-14503650D01*
X13134182Y-14503650D02*
X13124658Y-14484603D01*
X13124658Y-14484603D02*
X13124658Y-14475079D01*
X13124658Y-14475079D02*
X13134182Y-14456031D01*
X13134182Y-14456031D02*
X13143706Y-14446508D01*
X13143706Y-14446508D02*
X13162753Y-14436984D01*
X13162753Y-14436984D02*
X13200848Y-14436984D01*
X13200848Y-14436984D02*
X13219896Y-14446508D01*
X13219896Y-14446508D02*
X13229420Y-14456031D01*
X13229420Y-14456031D02*
X13238944Y-14475079D01*
X13238944Y-14475079D02*
X13238944Y-14484603D01*
X13238944Y-14484603D02*
X13229420Y-14503650D01*
X13229420Y-14503650D02*
X13219896Y-14513174D01*
X13219896Y-14513174D02*
X13200848Y-14522698D01*
X13200848Y-14522698D02*
X13162753Y-14522698D01*
X13162753Y-14522698D02*
X13143706Y-14532222D01*
X13143706Y-14532222D02*
X13134182Y-14541746D01*
X13134182Y-14541746D02*
X13124658Y-14560793D01*
X13124658Y-14560793D02*
X13124658Y-14598888D01*
X13124658Y-14598888D02*
X13134182Y-14617936D01*
X13134182Y-14617936D02*
X13143706Y-14627460D01*
X13143706Y-14627460D02*
X13162753Y-14636984D01*
X13162753Y-14636984D02*
X13200848Y-14636984D01*
X13200848Y-14636984D02*
X13219896Y-14627460D01*
X13219896Y-14627460D02*
X13229420Y-14617936D01*
X13229420Y-14617936D02*
X13238944Y-14598888D01*
X13238944Y-14598888D02*
X13238944Y-14560793D01*
X13238944Y-14560793D02*
X13229420Y-14541746D01*
X13229420Y-14541746D02*
X13219896Y-14532222D01*
X13219896Y-14532222D02*
X13200848Y-14522698D01*
X13315134Y-14436984D02*
X13315134Y-14475079D01*
X13391325Y-14436984D02*
X13391325Y-14475079D01*
X13686563Y-14713174D02*
X13677039Y-14703650D01*
X13677039Y-14703650D02*
X13657991Y-14675079D01*
X13657991Y-14675079D02*
X13648468Y-14656031D01*
X13648468Y-14656031D02*
X13638944Y-14627460D01*
X13638944Y-14627460D02*
X13629420Y-14579841D01*
X13629420Y-14579841D02*
X13629420Y-14541746D01*
X13629420Y-14541746D02*
X13638944Y-14494127D01*
X13638944Y-14494127D02*
X13648468Y-14465555D01*
X13648468Y-14465555D02*
X13657991Y-14446508D01*
X13657991Y-14446508D02*
X13677039Y-14417936D01*
X13677039Y-14417936D02*
X13686563Y-14408412D01*
X13743706Y-14436984D02*
X13867515Y-14436984D01*
X13867515Y-14436984D02*
X13800848Y-14513174D01*
X13800848Y-14513174D02*
X13829420Y-14513174D01*
X13829420Y-14513174D02*
X13848468Y-14522698D01*
X13848468Y-14522698D02*
X13857991Y-14532222D01*
X13857991Y-14532222D02*
X13867515Y-14551269D01*
X13867515Y-14551269D02*
X13867515Y-14598888D01*
X13867515Y-14598888D02*
X13857991Y-14617936D01*
X13857991Y-14617936D02*
X13848468Y-14627460D01*
X13848468Y-14627460D02*
X13829420Y-14636984D01*
X13829420Y-14636984D02*
X13772277Y-14636984D01*
X13772277Y-14636984D02*
X13753229Y-14627460D01*
X13753229Y-14627460D02*
X13743706Y-14617936D01*
X13991325Y-14436984D02*
X14010372Y-14436984D01*
X14010372Y-14436984D02*
X14029420Y-14446508D01*
X14029420Y-14446508D02*
X14038944Y-14456031D01*
X14038944Y-14456031D02*
X14048468Y-14475079D01*
X14048468Y-14475079D02*
X14057991Y-14513174D01*
X14057991Y-14513174D02*
X14057991Y-14560793D01*
X14057991Y-14560793D02*
X14048468Y-14598888D01*
X14048468Y-14598888D02*
X14038944Y-14617936D01*
X14038944Y-14617936D02*
X14029420Y-14627460D01*
X14029420Y-14627460D02*
X14010372Y-14636984D01*
X14010372Y-14636984D02*
X13991325Y-14636984D01*
X13991325Y-14636984D02*
X13972277Y-14627460D01*
X13972277Y-14627460D02*
X13962753Y-14617936D01*
X13962753Y-14617936D02*
X13953229Y-14598888D01*
X13953229Y-14598888D02*
X13943706Y-14560793D01*
X13943706Y-14560793D02*
X13943706Y-14513174D01*
X13943706Y-14513174D02*
X13953229Y-14475079D01*
X13953229Y-14475079D02*
X13962753Y-14456031D01*
X13962753Y-14456031D02*
X13972277Y-14446508D01*
X13972277Y-14446508D02*
X13991325Y-14436984D01*
X14296087Y-14636984D02*
X14296087Y-14436984D01*
X14381801Y-14636984D02*
X14381801Y-14532222D01*
X14381801Y-14532222D02*
X14372277Y-14513174D01*
X14372277Y-14513174D02*
X14353230Y-14503650D01*
X14353230Y-14503650D02*
X14324658Y-14503650D01*
X14324658Y-14503650D02*
X14305610Y-14513174D01*
X14305610Y-14513174D02*
X14296087Y-14522698D01*
X14505610Y-14636984D02*
X14486563Y-14627460D01*
X14486563Y-14627460D02*
X14477039Y-14617936D01*
X14477039Y-14617936D02*
X14467515Y-14598888D01*
X14467515Y-14598888D02*
X14467515Y-14541746D01*
X14467515Y-14541746D02*
X14477039Y-14522698D01*
X14477039Y-14522698D02*
X14486563Y-14513174D01*
X14486563Y-14513174D02*
X14505610Y-14503650D01*
X14505610Y-14503650D02*
X14534182Y-14503650D01*
X14534182Y-14503650D02*
X14553230Y-14513174D01*
X14553230Y-14513174D02*
X14562753Y-14522698D01*
X14562753Y-14522698D02*
X14572277Y-14541746D01*
X14572277Y-14541746D02*
X14572277Y-14598888D01*
X14572277Y-14598888D02*
X14562753Y-14617936D01*
X14562753Y-14617936D02*
X14553230Y-14627460D01*
X14553230Y-14627460D02*
X14534182Y-14636984D01*
X14534182Y-14636984D02*
X14505610Y-14636984D01*
X14686563Y-14636984D02*
X14667515Y-14627460D01*
X14667515Y-14627460D02*
X14657991Y-14608412D01*
X14657991Y-14608412D02*
X14657991Y-14436984D01*
X14838944Y-14627460D02*
X14819896Y-14636984D01*
X14819896Y-14636984D02*
X14781801Y-14636984D01*
X14781801Y-14636984D02*
X14762753Y-14627460D01*
X14762753Y-14627460D02*
X14753230Y-14608412D01*
X14753230Y-14608412D02*
X14753230Y-14532222D01*
X14753230Y-14532222D02*
X14762753Y-14513174D01*
X14762753Y-14513174D02*
X14781801Y-14503650D01*
X14781801Y-14503650D02*
X14819896Y-14503650D01*
X14819896Y-14503650D02*
X14838944Y-14513174D01*
X14838944Y-14513174D02*
X14848468Y-14532222D01*
X14848468Y-14532222D02*
X14848468Y-14551269D01*
X14848468Y-14551269D02*
X14753230Y-14570317D01*
X14924658Y-14627460D02*
X14943706Y-14636984D01*
X14943706Y-14636984D02*
X14981801Y-14636984D01*
X14981801Y-14636984D02*
X15000849Y-14627460D01*
X15000849Y-14627460D02*
X15010372Y-14608412D01*
X15010372Y-14608412D02*
X15010372Y-14598888D01*
X15010372Y-14598888D02*
X15000849Y-14579841D01*
X15000849Y-14579841D02*
X14981801Y-14570317D01*
X14981801Y-14570317D02*
X14953230Y-14570317D01*
X14953230Y-14570317D02*
X14934182Y-14560793D01*
X14934182Y-14560793D02*
X14924658Y-14541746D01*
X14924658Y-14541746D02*
X14924658Y-14532222D01*
X14924658Y-14532222D02*
X14934182Y-14513174D01*
X14934182Y-14513174D02*
X14953230Y-14503650D01*
X14953230Y-14503650D02*
X14981801Y-14503650D01*
X14981801Y-14503650D02*
X15000849Y-14513174D01*
X15077039Y-14713174D02*
X15086563Y-14703650D01*
X15086563Y-14703650D02*
X15105611Y-14675079D01*
X15105611Y-14675079D02*
X15115134Y-14656031D01*
X15115134Y-14656031D02*
X15124658Y-14627460D01*
X15124658Y-14627460D02*
X15134182Y-14579841D01*
X15134182Y-14579841D02*
X15134182Y-14541746D01*
X15134182Y-14541746D02*
X15124658Y-14494127D01*
X15124658Y-14494127D02*
X15115134Y-14465555D01*
X15115134Y-14465555D02*
X15105611Y-14446508D01*
X15105611Y-14446508D02*
X15086563Y-14417936D01*
X15086563Y-14417936D02*
X15077039Y-14408412D01*
D13*
X10111500Y-14809500D02*
G75*
G02*
X10031500Y-14809500I-40000J0D01*
G01*
X10031500Y-14809500D02*
G75*
G02*
X10111500Y-14809500I40000J0D01*
G01*
D12*
X10410372Y-14700984D02*
X10429420Y-14700984D01*
X10429420Y-14700984D02*
X10448467Y-14710508D01*
X10448467Y-14710508D02*
X10457991Y-14720031D01*
X10457991Y-14720031D02*
X10467515Y-14739079D01*
X10467515Y-14739079D02*
X10477039Y-14777174D01*
X10477039Y-14777174D02*
X10477039Y-14824793D01*
X10477039Y-14824793D02*
X10467515Y-14862888D01*
X10467515Y-14862888D02*
X10457991Y-14881936D01*
X10457991Y-14881936D02*
X10448467Y-14891460D01*
X10448467Y-14891460D02*
X10429420Y-14900984D01*
X10429420Y-14900984D02*
X10410372Y-14900984D01*
X10410372Y-14900984D02*
X10391324Y-14891460D01*
X10391324Y-14891460D02*
X10381801Y-14881936D01*
X10381801Y-14881936D02*
X10372277Y-14862888D01*
X10372277Y-14862888D02*
X10362753Y-14824793D01*
X10362753Y-14824793D02*
X10362753Y-14777174D01*
X10362753Y-14777174D02*
X10372277Y-14739079D01*
X10372277Y-14739079D02*
X10381801Y-14720031D01*
X10381801Y-14720031D02*
X10391324Y-14710508D01*
X10391324Y-14710508D02*
X10410372Y-14700984D01*
X10562753Y-14881936D02*
X10572277Y-14891460D01*
X10572277Y-14891460D02*
X10562753Y-14900984D01*
X10562753Y-14900984D02*
X10553229Y-14891460D01*
X10553229Y-14891460D02*
X10562753Y-14881936D01*
X10562753Y-14881936D02*
X10562753Y-14900984D01*
X10686563Y-14786698D02*
X10667515Y-14777174D01*
X10667515Y-14777174D02*
X10657991Y-14767650D01*
X10657991Y-14767650D02*
X10648467Y-14748603D01*
X10648467Y-14748603D02*
X10648467Y-14739079D01*
X10648467Y-14739079D02*
X10657991Y-14720031D01*
X10657991Y-14720031D02*
X10667515Y-14710508D01*
X10667515Y-14710508D02*
X10686563Y-14700984D01*
X10686563Y-14700984D02*
X10724658Y-14700984D01*
X10724658Y-14700984D02*
X10743705Y-14710508D01*
X10743705Y-14710508D02*
X10753229Y-14720031D01*
X10753229Y-14720031D02*
X10762753Y-14739079D01*
X10762753Y-14739079D02*
X10762753Y-14748603D01*
X10762753Y-14748603D02*
X10753229Y-14767650D01*
X10753229Y-14767650D02*
X10743705Y-14777174D01*
X10743705Y-14777174D02*
X10724658Y-14786698D01*
X10724658Y-14786698D02*
X10686563Y-14786698D01*
X10686563Y-14786698D02*
X10667515Y-14796222D01*
X10667515Y-14796222D02*
X10657991Y-14805746D01*
X10657991Y-14805746D02*
X10648467Y-14824793D01*
X10648467Y-14824793D02*
X10648467Y-14862888D01*
X10648467Y-14862888D02*
X10657991Y-14881936D01*
X10657991Y-14881936D02*
X10667515Y-14891460D01*
X10667515Y-14891460D02*
X10686563Y-14900984D01*
X10686563Y-14900984D02*
X10724658Y-14900984D01*
X10724658Y-14900984D02*
X10743705Y-14891460D01*
X10743705Y-14891460D02*
X10753229Y-14881936D01*
X10753229Y-14881936D02*
X10762753Y-14862888D01*
X10762753Y-14862888D02*
X10762753Y-14824793D01*
X10762753Y-14824793D02*
X10753229Y-14805746D01*
X10753229Y-14805746D02*
X10743705Y-14796222D01*
X10743705Y-14796222D02*
X10724658Y-14786698D01*
X10886563Y-14700984D02*
X10905610Y-14700984D01*
X10905610Y-14700984D02*
X10924658Y-14710508D01*
X10924658Y-14710508D02*
X10934182Y-14720031D01*
X10934182Y-14720031D02*
X10943705Y-14739079D01*
X10943705Y-14739079D02*
X10953229Y-14777174D01*
X10953229Y-14777174D02*
X10953229Y-14824793D01*
X10953229Y-14824793D02*
X10943705Y-14862888D01*
X10943705Y-14862888D02*
X10934182Y-14881936D01*
X10934182Y-14881936D02*
X10924658Y-14891460D01*
X10924658Y-14891460D02*
X10905610Y-14900984D01*
X10905610Y-14900984D02*
X10886563Y-14900984D01*
X10886563Y-14900984D02*
X10867515Y-14891460D01*
X10867515Y-14891460D02*
X10857991Y-14881936D01*
X10857991Y-14881936D02*
X10848467Y-14862888D01*
X10848467Y-14862888D02*
X10838944Y-14824793D01*
X10838944Y-14824793D02*
X10838944Y-14777174D01*
X10838944Y-14777174D02*
X10848467Y-14739079D01*
X10848467Y-14739079D02*
X10857991Y-14720031D01*
X10857991Y-14720031D02*
X10867515Y-14710508D01*
X10867515Y-14710508D02*
X10886563Y-14700984D01*
X11077039Y-14700984D02*
X11096086Y-14700984D01*
X11096086Y-14700984D02*
X11115134Y-14710508D01*
X11115134Y-14710508D02*
X11124658Y-14720031D01*
X11124658Y-14720031D02*
X11134182Y-14739079D01*
X11134182Y-14739079D02*
X11143705Y-14777174D01*
X11143705Y-14777174D02*
X11143705Y-14824793D01*
X11143705Y-14824793D02*
X11134182Y-14862888D01*
X11134182Y-14862888D02*
X11124658Y-14881936D01*
X11124658Y-14881936D02*
X11115134Y-14891460D01*
X11115134Y-14891460D02*
X11096086Y-14900984D01*
X11096086Y-14900984D02*
X11077039Y-14900984D01*
X11077039Y-14900984D02*
X11057991Y-14891460D01*
X11057991Y-14891460D02*
X11048467Y-14881936D01*
X11048467Y-14881936D02*
X11038944Y-14862888D01*
X11038944Y-14862888D02*
X11029420Y-14824793D01*
X11029420Y-14824793D02*
X11029420Y-14777174D01*
X11029420Y-14777174D02*
X11038944Y-14739079D01*
X11038944Y-14739079D02*
X11048467Y-14720031D01*
X11048467Y-14720031D02*
X11057991Y-14710508D01*
X11057991Y-14710508D02*
X11077039Y-14700984D01*
X11229420Y-14900984D02*
X11229420Y-14767650D01*
X11229420Y-14786698D02*
X11238943Y-14777174D01*
X11238943Y-14777174D02*
X11257991Y-14767650D01*
X11257991Y-14767650D02*
X11286563Y-14767650D01*
X11286563Y-14767650D02*
X11305610Y-14777174D01*
X11305610Y-14777174D02*
X11315134Y-14796222D01*
X11315134Y-14796222D02*
X11315134Y-14900984D01*
X11315134Y-14796222D02*
X11324658Y-14777174D01*
X11324658Y-14777174D02*
X11343705Y-14767650D01*
X11343705Y-14767650D02*
X11372277Y-14767650D01*
X11372277Y-14767650D02*
X11391324Y-14777174D01*
X11391324Y-14777174D02*
X11400848Y-14796222D01*
X11400848Y-14796222D02*
X11400848Y-14900984D01*
X11496086Y-14900984D02*
X11496086Y-14767650D01*
X11496086Y-14786698D02*
X11505610Y-14777174D01*
X11505610Y-14777174D02*
X11524658Y-14767650D01*
X11524658Y-14767650D02*
X11553229Y-14767650D01*
X11553229Y-14767650D02*
X11572277Y-14777174D01*
X11572277Y-14777174D02*
X11581801Y-14796222D01*
X11581801Y-14796222D02*
X11581801Y-14900984D01*
X11581801Y-14796222D02*
X11591324Y-14777174D01*
X11591324Y-14777174D02*
X11610372Y-14767650D01*
X11610372Y-14767650D02*
X11638943Y-14767650D01*
X11638943Y-14767650D02*
X11657991Y-14777174D01*
X11657991Y-14777174D02*
X11667515Y-14796222D01*
X11667515Y-14796222D02*
X11667515Y-14900984D01*
X12057991Y-14691460D02*
X11886563Y-14948603D01*
X12315134Y-14700984D02*
X12334182Y-14700984D01*
X12334182Y-14700984D02*
X12353229Y-14710508D01*
X12353229Y-14710508D02*
X12362753Y-14720031D01*
X12362753Y-14720031D02*
X12372277Y-14739079D01*
X12372277Y-14739079D02*
X12381801Y-14777174D01*
X12381801Y-14777174D02*
X12381801Y-14824793D01*
X12381801Y-14824793D02*
X12372277Y-14862888D01*
X12372277Y-14862888D02*
X12362753Y-14881936D01*
X12362753Y-14881936D02*
X12353229Y-14891460D01*
X12353229Y-14891460D02*
X12334182Y-14900984D01*
X12334182Y-14900984D02*
X12315134Y-14900984D01*
X12315134Y-14900984D02*
X12296086Y-14891460D01*
X12296086Y-14891460D02*
X12286563Y-14881936D01*
X12286563Y-14881936D02*
X12277039Y-14862888D01*
X12277039Y-14862888D02*
X12267515Y-14824793D01*
X12267515Y-14824793D02*
X12267515Y-14777174D01*
X12267515Y-14777174D02*
X12277039Y-14739079D01*
X12277039Y-14739079D02*
X12286563Y-14720031D01*
X12286563Y-14720031D02*
X12296086Y-14710508D01*
X12296086Y-14710508D02*
X12315134Y-14700984D01*
X12467515Y-14881936D02*
X12477039Y-14891460D01*
X12477039Y-14891460D02*
X12467515Y-14900984D01*
X12467515Y-14900984D02*
X12457991Y-14891460D01*
X12457991Y-14891460D02*
X12467515Y-14881936D01*
X12467515Y-14881936D02*
X12467515Y-14900984D01*
X12600848Y-14700984D02*
X12619896Y-14700984D01*
X12619896Y-14700984D02*
X12638944Y-14710508D01*
X12638944Y-14710508D02*
X12648467Y-14720031D01*
X12648467Y-14720031D02*
X12657991Y-14739079D01*
X12657991Y-14739079D02*
X12667515Y-14777174D01*
X12667515Y-14777174D02*
X12667515Y-14824793D01*
X12667515Y-14824793D02*
X12657991Y-14862888D01*
X12657991Y-14862888D02*
X12648467Y-14881936D01*
X12648467Y-14881936D02*
X12638944Y-14891460D01*
X12638944Y-14891460D02*
X12619896Y-14900984D01*
X12619896Y-14900984D02*
X12600848Y-14900984D01*
X12600848Y-14900984D02*
X12581801Y-14891460D01*
X12581801Y-14891460D02*
X12572277Y-14881936D01*
X12572277Y-14881936D02*
X12562753Y-14862888D01*
X12562753Y-14862888D02*
X12553229Y-14824793D01*
X12553229Y-14824793D02*
X12553229Y-14777174D01*
X12553229Y-14777174D02*
X12562753Y-14739079D01*
X12562753Y-14739079D02*
X12572277Y-14720031D01*
X12572277Y-14720031D02*
X12581801Y-14710508D01*
X12581801Y-14710508D02*
X12600848Y-14700984D01*
X12734182Y-14700984D02*
X12857991Y-14700984D01*
X12857991Y-14700984D02*
X12791325Y-14777174D01*
X12791325Y-14777174D02*
X12819896Y-14777174D01*
X12819896Y-14777174D02*
X12838944Y-14786698D01*
X12838944Y-14786698D02*
X12848467Y-14796222D01*
X12848467Y-14796222D02*
X12857991Y-14815269D01*
X12857991Y-14815269D02*
X12857991Y-14862888D01*
X12857991Y-14862888D02*
X12848467Y-14881936D01*
X12848467Y-14881936D02*
X12838944Y-14891460D01*
X12838944Y-14891460D02*
X12819896Y-14900984D01*
X12819896Y-14900984D02*
X12762753Y-14900984D01*
X12762753Y-14900984D02*
X12743706Y-14891460D01*
X12743706Y-14891460D02*
X12734182Y-14881936D01*
X13048467Y-14900984D02*
X12934182Y-14900984D01*
X12991325Y-14900984D02*
X12991325Y-14700984D01*
X12991325Y-14700984D02*
X12972277Y-14729555D01*
X12972277Y-14729555D02*
X12953229Y-14748603D01*
X12953229Y-14748603D02*
X12934182Y-14758127D01*
X13229420Y-14700984D02*
X13134182Y-14700984D01*
X13134182Y-14700984D02*
X13124658Y-14796222D01*
X13124658Y-14796222D02*
X13134182Y-14786698D01*
X13134182Y-14786698D02*
X13153229Y-14777174D01*
X13153229Y-14777174D02*
X13200848Y-14777174D01*
X13200848Y-14777174D02*
X13219896Y-14786698D01*
X13219896Y-14786698D02*
X13229420Y-14796222D01*
X13229420Y-14796222D02*
X13238944Y-14815269D01*
X13238944Y-14815269D02*
X13238944Y-14862888D01*
X13238944Y-14862888D02*
X13229420Y-14881936D01*
X13229420Y-14881936D02*
X13219896Y-14891460D01*
X13219896Y-14891460D02*
X13200848Y-14900984D01*
X13200848Y-14900984D02*
X13153229Y-14900984D01*
X13153229Y-14900984D02*
X13134182Y-14891460D01*
X13134182Y-14891460D02*
X13124658Y-14881936D01*
X13315134Y-14700984D02*
X13315134Y-14739079D01*
X13391325Y-14700984D02*
X13391325Y-14739079D01*
X13686563Y-14977174D02*
X13677039Y-14967650D01*
X13677039Y-14967650D02*
X13657991Y-14939079D01*
X13657991Y-14939079D02*
X13648468Y-14920031D01*
X13648468Y-14920031D02*
X13638944Y-14891460D01*
X13638944Y-14891460D02*
X13629420Y-14843841D01*
X13629420Y-14843841D02*
X13629420Y-14805746D01*
X13629420Y-14805746D02*
X13638944Y-14758127D01*
X13638944Y-14758127D02*
X13648468Y-14729555D01*
X13648468Y-14729555D02*
X13657991Y-14710508D01*
X13657991Y-14710508D02*
X13677039Y-14681936D01*
X13677039Y-14681936D02*
X13686563Y-14672412D01*
X13791325Y-14786698D02*
X13772277Y-14777174D01*
X13772277Y-14777174D02*
X13762753Y-14767650D01*
X13762753Y-14767650D02*
X13753229Y-14748603D01*
X13753229Y-14748603D02*
X13753229Y-14739079D01*
X13753229Y-14739079D02*
X13762753Y-14720031D01*
X13762753Y-14720031D02*
X13772277Y-14710508D01*
X13772277Y-14710508D02*
X13791325Y-14700984D01*
X13791325Y-14700984D02*
X13829420Y-14700984D01*
X13829420Y-14700984D02*
X13848468Y-14710508D01*
X13848468Y-14710508D02*
X13857991Y-14720031D01*
X13857991Y-14720031D02*
X13867515Y-14739079D01*
X13867515Y-14739079D02*
X13867515Y-14748603D01*
X13867515Y-14748603D02*
X13857991Y-14767650D01*
X13857991Y-14767650D02*
X13848468Y-14777174D01*
X13848468Y-14777174D02*
X13829420Y-14786698D01*
X13829420Y-14786698D02*
X13791325Y-14786698D01*
X13791325Y-14786698D02*
X13772277Y-14796222D01*
X13772277Y-14796222D02*
X13762753Y-14805746D01*
X13762753Y-14805746D02*
X13753229Y-14824793D01*
X13753229Y-14824793D02*
X13753229Y-14862888D01*
X13753229Y-14862888D02*
X13762753Y-14881936D01*
X13762753Y-14881936D02*
X13772277Y-14891460D01*
X13772277Y-14891460D02*
X13791325Y-14900984D01*
X13791325Y-14900984D02*
X13829420Y-14900984D01*
X13829420Y-14900984D02*
X13848468Y-14891460D01*
X13848468Y-14891460D02*
X13857991Y-14881936D01*
X13857991Y-14881936D02*
X13867515Y-14862888D01*
X13867515Y-14862888D02*
X13867515Y-14824793D01*
X13867515Y-14824793D02*
X13857991Y-14805746D01*
X13857991Y-14805746D02*
X13848468Y-14796222D01*
X13848468Y-14796222D02*
X13829420Y-14786698D01*
X13991325Y-14700984D02*
X14010372Y-14700984D01*
X14010372Y-14700984D02*
X14029420Y-14710508D01*
X14029420Y-14710508D02*
X14038944Y-14720031D01*
X14038944Y-14720031D02*
X14048468Y-14739079D01*
X14048468Y-14739079D02*
X14057991Y-14777174D01*
X14057991Y-14777174D02*
X14057991Y-14824793D01*
X14057991Y-14824793D02*
X14048468Y-14862888D01*
X14048468Y-14862888D02*
X14038944Y-14881936D01*
X14038944Y-14881936D02*
X14029420Y-14891460D01*
X14029420Y-14891460D02*
X14010372Y-14900984D01*
X14010372Y-14900984D02*
X13991325Y-14900984D01*
X13991325Y-14900984D02*
X13972277Y-14891460D01*
X13972277Y-14891460D02*
X13962753Y-14881936D01*
X13962753Y-14881936D02*
X13953229Y-14862888D01*
X13953229Y-14862888D02*
X13943706Y-14824793D01*
X13943706Y-14824793D02*
X13943706Y-14777174D01*
X13943706Y-14777174D02*
X13953229Y-14739079D01*
X13953229Y-14739079D02*
X13962753Y-14720031D01*
X13962753Y-14720031D02*
X13972277Y-14710508D01*
X13972277Y-14710508D02*
X13991325Y-14700984D01*
X14296087Y-14900984D02*
X14296087Y-14700984D01*
X14381801Y-14900984D02*
X14381801Y-14796222D01*
X14381801Y-14796222D02*
X14372277Y-14777174D01*
X14372277Y-14777174D02*
X14353230Y-14767650D01*
X14353230Y-14767650D02*
X14324658Y-14767650D01*
X14324658Y-14767650D02*
X14305610Y-14777174D01*
X14305610Y-14777174D02*
X14296087Y-14786698D01*
X14505610Y-14900984D02*
X14486563Y-14891460D01*
X14486563Y-14891460D02*
X14477039Y-14881936D01*
X14477039Y-14881936D02*
X14467515Y-14862888D01*
X14467515Y-14862888D02*
X14467515Y-14805746D01*
X14467515Y-14805746D02*
X14477039Y-14786698D01*
X14477039Y-14786698D02*
X14486563Y-14777174D01*
X14486563Y-14777174D02*
X14505610Y-14767650D01*
X14505610Y-14767650D02*
X14534182Y-14767650D01*
X14534182Y-14767650D02*
X14553230Y-14777174D01*
X14553230Y-14777174D02*
X14562753Y-14786698D01*
X14562753Y-14786698D02*
X14572277Y-14805746D01*
X14572277Y-14805746D02*
X14572277Y-14862888D01*
X14572277Y-14862888D02*
X14562753Y-14881936D01*
X14562753Y-14881936D02*
X14553230Y-14891460D01*
X14553230Y-14891460D02*
X14534182Y-14900984D01*
X14534182Y-14900984D02*
X14505610Y-14900984D01*
X14686563Y-14900984D02*
X14667515Y-14891460D01*
X14667515Y-14891460D02*
X14657991Y-14872412D01*
X14657991Y-14872412D02*
X14657991Y-14700984D01*
X14838944Y-14891460D02*
X14819896Y-14900984D01*
X14819896Y-14900984D02*
X14781801Y-14900984D01*
X14781801Y-14900984D02*
X14762753Y-14891460D01*
X14762753Y-14891460D02*
X14753230Y-14872412D01*
X14753230Y-14872412D02*
X14753230Y-14796222D01*
X14753230Y-14796222D02*
X14762753Y-14777174D01*
X14762753Y-14777174D02*
X14781801Y-14767650D01*
X14781801Y-14767650D02*
X14819896Y-14767650D01*
X14819896Y-14767650D02*
X14838944Y-14777174D01*
X14838944Y-14777174D02*
X14848468Y-14796222D01*
X14848468Y-14796222D02*
X14848468Y-14815269D01*
X14848468Y-14815269D02*
X14753230Y-14834317D01*
X14924658Y-14891460D02*
X14943706Y-14900984D01*
X14943706Y-14900984D02*
X14981801Y-14900984D01*
X14981801Y-14900984D02*
X15000849Y-14891460D01*
X15000849Y-14891460D02*
X15010372Y-14872412D01*
X15010372Y-14872412D02*
X15010372Y-14862888D01*
X15010372Y-14862888D02*
X15000849Y-14843841D01*
X15000849Y-14843841D02*
X14981801Y-14834317D01*
X14981801Y-14834317D02*
X14953230Y-14834317D01*
X14953230Y-14834317D02*
X14934182Y-14824793D01*
X14934182Y-14824793D02*
X14924658Y-14805746D01*
X14924658Y-14805746D02*
X14924658Y-14796222D01*
X14924658Y-14796222D02*
X14934182Y-14777174D01*
X14934182Y-14777174D02*
X14953230Y-14767650D01*
X14953230Y-14767650D02*
X14981801Y-14767650D01*
X14981801Y-14767650D02*
X15000849Y-14777174D01*
X15077039Y-14977174D02*
X15086563Y-14967650D01*
X15086563Y-14967650D02*
X15105611Y-14939079D01*
X15105611Y-14939079D02*
X15115134Y-14920031D01*
X15115134Y-14920031D02*
X15124658Y-14891460D01*
X15124658Y-14891460D02*
X15134182Y-14843841D01*
X15134182Y-14843841D02*
X15134182Y-14805746D01*
X15134182Y-14805746D02*
X15124658Y-14758127D01*
X15124658Y-14758127D02*
X15115134Y-14729555D01*
X15115134Y-14729555D02*
X15105611Y-14710508D01*
X15105611Y-14710508D02*
X15086563Y-14681936D01*
X15086563Y-14681936D02*
X15077039Y-14672412D01*
D13*
X10064000Y-15026000D02*
X10064000Y-15121000D01*
X10016500Y-15073500D02*
X10111500Y-15073500D01*
D12*
X10410372Y-14964984D02*
X10429420Y-14964984D01*
X10429420Y-14964984D02*
X10448467Y-14974508D01*
X10448467Y-14974508D02*
X10457991Y-14984031D01*
X10457991Y-14984031D02*
X10467515Y-15003079D01*
X10467515Y-15003079D02*
X10477039Y-15041174D01*
X10477039Y-15041174D02*
X10477039Y-15088793D01*
X10477039Y-15088793D02*
X10467515Y-15126888D01*
X10467515Y-15126888D02*
X10457991Y-15145936D01*
X10457991Y-15145936D02*
X10448467Y-15155460D01*
X10448467Y-15155460D02*
X10429420Y-15164984D01*
X10429420Y-15164984D02*
X10410372Y-15164984D01*
X10410372Y-15164984D02*
X10391324Y-15155460D01*
X10391324Y-15155460D02*
X10381801Y-15145936D01*
X10381801Y-15145936D02*
X10372277Y-15126888D01*
X10372277Y-15126888D02*
X10362753Y-15088793D01*
X10362753Y-15088793D02*
X10362753Y-15041174D01*
X10362753Y-15041174D02*
X10372277Y-15003079D01*
X10372277Y-15003079D02*
X10381801Y-14984031D01*
X10381801Y-14984031D02*
X10391324Y-14974508D01*
X10391324Y-14974508D02*
X10410372Y-14964984D01*
X10562753Y-15145936D02*
X10572277Y-15155460D01*
X10572277Y-15155460D02*
X10562753Y-15164984D01*
X10562753Y-15164984D02*
X10553229Y-15155460D01*
X10553229Y-15155460D02*
X10562753Y-15145936D01*
X10562753Y-15145936D02*
X10562753Y-15164984D01*
X10667515Y-15164984D02*
X10705610Y-15164984D01*
X10705610Y-15164984D02*
X10724658Y-15155460D01*
X10724658Y-15155460D02*
X10734182Y-15145936D01*
X10734182Y-15145936D02*
X10753229Y-15117365D01*
X10753229Y-15117365D02*
X10762753Y-15079269D01*
X10762753Y-15079269D02*
X10762753Y-15003079D01*
X10762753Y-15003079D02*
X10753229Y-14984031D01*
X10753229Y-14984031D02*
X10743705Y-14974508D01*
X10743705Y-14974508D02*
X10724658Y-14964984D01*
X10724658Y-14964984D02*
X10686563Y-14964984D01*
X10686563Y-14964984D02*
X10667515Y-14974508D01*
X10667515Y-14974508D02*
X10657991Y-14984031D01*
X10657991Y-14984031D02*
X10648467Y-15003079D01*
X10648467Y-15003079D02*
X10648467Y-15050698D01*
X10648467Y-15050698D02*
X10657991Y-15069746D01*
X10657991Y-15069746D02*
X10667515Y-15079269D01*
X10667515Y-15079269D02*
X10686563Y-15088793D01*
X10686563Y-15088793D02*
X10724658Y-15088793D01*
X10724658Y-15088793D02*
X10743705Y-15079269D01*
X10743705Y-15079269D02*
X10753229Y-15069746D01*
X10753229Y-15069746D02*
X10762753Y-15050698D01*
X10943705Y-14964984D02*
X10848467Y-14964984D01*
X10848467Y-14964984D02*
X10838944Y-15060222D01*
X10838944Y-15060222D02*
X10848467Y-15050698D01*
X10848467Y-15050698D02*
X10867515Y-15041174D01*
X10867515Y-15041174D02*
X10915134Y-15041174D01*
X10915134Y-15041174D02*
X10934182Y-15050698D01*
X10934182Y-15050698D02*
X10943705Y-15060222D01*
X10943705Y-15060222D02*
X10953229Y-15079269D01*
X10953229Y-15079269D02*
X10953229Y-15126888D01*
X10953229Y-15126888D02*
X10943705Y-15145936D01*
X10943705Y-15145936D02*
X10934182Y-15155460D01*
X10934182Y-15155460D02*
X10915134Y-15164984D01*
X10915134Y-15164984D02*
X10867515Y-15164984D01*
X10867515Y-15164984D02*
X10848467Y-15155460D01*
X10848467Y-15155460D02*
X10838944Y-15145936D01*
X11077039Y-14964984D02*
X11096086Y-14964984D01*
X11096086Y-14964984D02*
X11115134Y-14974508D01*
X11115134Y-14974508D02*
X11124658Y-14984031D01*
X11124658Y-14984031D02*
X11134182Y-15003079D01*
X11134182Y-15003079D02*
X11143705Y-15041174D01*
X11143705Y-15041174D02*
X11143705Y-15088793D01*
X11143705Y-15088793D02*
X11134182Y-15126888D01*
X11134182Y-15126888D02*
X11124658Y-15145936D01*
X11124658Y-15145936D02*
X11115134Y-15155460D01*
X11115134Y-15155460D02*
X11096086Y-15164984D01*
X11096086Y-15164984D02*
X11077039Y-15164984D01*
X11077039Y-15164984D02*
X11057991Y-15155460D01*
X11057991Y-15155460D02*
X11048467Y-15145936D01*
X11048467Y-15145936D02*
X11038944Y-15126888D01*
X11038944Y-15126888D02*
X11029420Y-15088793D01*
X11029420Y-15088793D02*
X11029420Y-15041174D01*
X11029420Y-15041174D02*
X11038944Y-15003079D01*
X11038944Y-15003079D02*
X11048467Y-14984031D01*
X11048467Y-14984031D02*
X11057991Y-14974508D01*
X11057991Y-14974508D02*
X11077039Y-14964984D01*
X11229420Y-15164984D02*
X11229420Y-15031650D01*
X11229420Y-15050698D02*
X11238943Y-15041174D01*
X11238943Y-15041174D02*
X11257991Y-15031650D01*
X11257991Y-15031650D02*
X11286563Y-15031650D01*
X11286563Y-15031650D02*
X11305610Y-15041174D01*
X11305610Y-15041174D02*
X11315134Y-15060222D01*
X11315134Y-15060222D02*
X11315134Y-15164984D01*
X11315134Y-15060222D02*
X11324658Y-15041174D01*
X11324658Y-15041174D02*
X11343705Y-15031650D01*
X11343705Y-15031650D02*
X11372277Y-15031650D01*
X11372277Y-15031650D02*
X11391324Y-15041174D01*
X11391324Y-15041174D02*
X11400848Y-15060222D01*
X11400848Y-15060222D02*
X11400848Y-15164984D01*
X11496086Y-15164984D02*
X11496086Y-15031650D01*
X11496086Y-15050698D02*
X11505610Y-15041174D01*
X11505610Y-15041174D02*
X11524658Y-15031650D01*
X11524658Y-15031650D02*
X11553229Y-15031650D01*
X11553229Y-15031650D02*
X11572277Y-15041174D01*
X11572277Y-15041174D02*
X11581801Y-15060222D01*
X11581801Y-15060222D02*
X11581801Y-15164984D01*
X11581801Y-15060222D02*
X11591324Y-15041174D01*
X11591324Y-15041174D02*
X11610372Y-15031650D01*
X11610372Y-15031650D02*
X11638943Y-15031650D01*
X11638943Y-15031650D02*
X11657991Y-15041174D01*
X11657991Y-15041174D02*
X11667515Y-15060222D01*
X11667515Y-15060222D02*
X11667515Y-15164984D01*
X12057991Y-14955460D02*
X11886563Y-15212603D01*
X12315134Y-14964984D02*
X12334182Y-14964984D01*
X12334182Y-14964984D02*
X12353229Y-14974508D01*
X12353229Y-14974508D02*
X12362753Y-14984031D01*
X12362753Y-14984031D02*
X12372277Y-15003079D01*
X12372277Y-15003079D02*
X12381801Y-15041174D01*
X12381801Y-15041174D02*
X12381801Y-15088793D01*
X12381801Y-15088793D02*
X12372277Y-15126888D01*
X12372277Y-15126888D02*
X12362753Y-15145936D01*
X12362753Y-15145936D02*
X12353229Y-15155460D01*
X12353229Y-15155460D02*
X12334182Y-15164984D01*
X12334182Y-15164984D02*
X12315134Y-15164984D01*
X12315134Y-15164984D02*
X12296086Y-15155460D01*
X12296086Y-15155460D02*
X12286563Y-15145936D01*
X12286563Y-15145936D02*
X12277039Y-15126888D01*
X12277039Y-15126888D02*
X12267515Y-15088793D01*
X12267515Y-15088793D02*
X12267515Y-15041174D01*
X12267515Y-15041174D02*
X12277039Y-15003079D01*
X12277039Y-15003079D02*
X12286563Y-14984031D01*
X12286563Y-14984031D02*
X12296086Y-14974508D01*
X12296086Y-14974508D02*
X12315134Y-14964984D01*
X12467515Y-15145936D02*
X12477039Y-15155460D01*
X12477039Y-15155460D02*
X12467515Y-15164984D01*
X12467515Y-15164984D02*
X12457991Y-15155460D01*
X12457991Y-15155460D02*
X12467515Y-15145936D01*
X12467515Y-15145936D02*
X12467515Y-15164984D01*
X12600848Y-14964984D02*
X12619896Y-14964984D01*
X12619896Y-14964984D02*
X12638944Y-14974508D01*
X12638944Y-14974508D02*
X12648467Y-14984031D01*
X12648467Y-14984031D02*
X12657991Y-15003079D01*
X12657991Y-15003079D02*
X12667515Y-15041174D01*
X12667515Y-15041174D02*
X12667515Y-15088793D01*
X12667515Y-15088793D02*
X12657991Y-15126888D01*
X12657991Y-15126888D02*
X12648467Y-15145936D01*
X12648467Y-15145936D02*
X12638944Y-15155460D01*
X12638944Y-15155460D02*
X12619896Y-15164984D01*
X12619896Y-15164984D02*
X12600848Y-15164984D01*
X12600848Y-15164984D02*
X12581801Y-15155460D01*
X12581801Y-15155460D02*
X12572277Y-15145936D01*
X12572277Y-15145936D02*
X12562753Y-15126888D01*
X12562753Y-15126888D02*
X12553229Y-15088793D01*
X12553229Y-15088793D02*
X12553229Y-15041174D01*
X12553229Y-15041174D02*
X12562753Y-15003079D01*
X12562753Y-15003079D02*
X12572277Y-14984031D01*
X12572277Y-14984031D02*
X12581801Y-14974508D01*
X12581801Y-14974508D02*
X12600848Y-14964984D01*
X12734182Y-14964984D02*
X12857991Y-14964984D01*
X12857991Y-14964984D02*
X12791325Y-15041174D01*
X12791325Y-15041174D02*
X12819896Y-15041174D01*
X12819896Y-15041174D02*
X12838944Y-15050698D01*
X12838944Y-15050698D02*
X12848467Y-15060222D01*
X12848467Y-15060222D02*
X12857991Y-15079269D01*
X12857991Y-15079269D02*
X12857991Y-15126888D01*
X12857991Y-15126888D02*
X12848467Y-15145936D01*
X12848467Y-15145936D02*
X12838944Y-15155460D01*
X12838944Y-15155460D02*
X12819896Y-15164984D01*
X12819896Y-15164984D02*
X12762753Y-15164984D01*
X12762753Y-15164984D02*
X12743706Y-15155460D01*
X12743706Y-15155460D02*
X12734182Y-15145936D01*
X12924658Y-14964984D02*
X13057991Y-14964984D01*
X13057991Y-14964984D02*
X12972277Y-15164984D01*
X13219896Y-15031650D02*
X13219896Y-15164984D01*
X13172277Y-14955460D02*
X13124658Y-15098317D01*
X13124658Y-15098317D02*
X13248467Y-15098317D01*
X13315134Y-14964984D02*
X13315134Y-15003079D01*
X13391325Y-14964984D02*
X13391325Y-15003079D01*
X13686563Y-15241174D02*
X13677039Y-15231650D01*
X13677039Y-15231650D02*
X13657991Y-15203079D01*
X13657991Y-15203079D02*
X13648468Y-15184031D01*
X13648468Y-15184031D02*
X13638944Y-15155460D01*
X13638944Y-15155460D02*
X13629420Y-15107841D01*
X13629420Y-15107841D02*
X13629420Y-15069746D01*
X13629420Y-15069746D02*
X13638944Y-15022127D01*
X13638944Y-15022127D02*
X13648468Y-14993555D01*
X13648468Y-14993555D02*
X13657991Y-14974508D01*
X13657991Y-14974508D02*
X13677039Y-14945936D01*
X13677039Y-14945936D02*
X13686563Y-14936412D01*
X13848468Y-14964984D02*
X13810372Y-14964984D01*
X13810372Y-14964984D02*
X13791325Y-14974508D01*
X13791325Y-14974508D02*
X13781801Y-14984031D01*
X13781801Y-14984031D02*
X13762753Y-15012603D01*
X13762753Y-15012603D02*
X13753229Y-15050698D01*
X13753229Y-15050698D02*
X13753229Y-15126888D01*
X13753229Y-15126888D02*
X13762753Y-15145936D01*
X13762753Y-15145936D02*
X13772277Y-15155460D01*
X13772277Y-15155460D02*
X13791325Y-15164984D01*
X13791325Y-15164984D02*
X13829420Y-15164984D01*
X13829420Y-15164984D02*
X13848468Y-15155460D01*
X13848468Y-15155460D02*
X13857991Y-15145936D01*
X13857991Y-15145936D02*
X13867515Y-15126888D01*
X13867515Y-15126888D02*
X13867515Y-15079269D01*
X13867515Y-15079269D02*
X13857991Y-15060222D01*
X13857991Y-15060222D02*
X13848468Y-15050698D01*
X13848468Y-15050698D02*
X13829420Y-15041174D01*
X13829420Y-15041174D02*
X13791325Y-15041174D01*
X13791325Y-15041174D02*
X13772277Y-15050698D01*
X13772277Y-15050698D02*
X13762753Y-15060222D01*
X13762753Y-15060222D02*
X13753229Y-15079269D01*
X14105610Y-15164984D02*
X14105610Y-14964984D01*
X14191325Y-15164984D02*
X14191325Y-15060222D01*
X14191325Y-15060222D02*
X14181801Y-15041174D01*
X14181801Y-15041174D02*
X14162753Y-15031650D01*
X14162753Y-15031650D02*
X14134182Y-15031650D01*
X14134182Y-15031650D02*
X14115134Y-15041174D01*
X14115134Y-15041174D02*
X14105610Y-15050698D01*
X14315134Y-15164984D02*
X14296087Y-15155460D01*
X14296087Y-15155460D02*
X14286563Y-15145936D01*
X14286563Y-15145936D02*
X14277039Y-15126888D01*
X14277039Y-15126888D02*
X14277039Y-15069746D01*
X14277039Y-15069746D02*
X14286563Y-15050698D01*
X14286563Y-15050698D02*
X14296087Y-15041174D01*
X14296087Y-15041174D02*
X14315134Y-15031650D01*
X14315134Y-15031650D02*
X14343706Y-15031650D01*
X14343706Y-15031650D02*
X14362753Y-15041174D01*
X14362753Y-15041174D02*
X14372277Y-15050698D01*
X14372277Y-15050698D02*
X14381801Y-15069746D01*
X14381801Y-15069746D02*
X14381801Y-15126888D01*
X14381801Y-15126888D02*
X14372277Y-15145936D01*
X14372277Y-15145936D02*
X14362753Y-15155460D01*
X14362753Y-15155460D02*
X14343706Y-15164984D01*
X14343706Y-15164984D02*
X14315134Y-15164984D01*
X14496087Y-15164984D02*
X14477039Y-15155460D01*
X14477039Y-15155460D02*
X14467515Y-15136412D01*
X14467515Y-15136412D02*
X14467515Y-14964984D01*
X14648468Y-15155460D02*
X14629420Y-15164984D01*
X14629420Y-15164984D02*
X14591325Y-15164984D01*
X14591325Y-15164984D02*
X14572277Y-15155460D01*
X14572277Y-15155460D02*
X14562753Y-15136412D01*
X14562753Y-15136412D02*
X14562753Y-15060222D01*
X14562753Y-15060222D02*
X14572277Y-15041174D01*
X14572277Y-15041174D02*
X14591325Y-15031650D01*
X14591325Y-15031650D02*
X14629420Y-15031650D01*
X14629420Y-15031650D02*
X14648468Y-15041174D01*
X14648468Y-15041174D02*
X14657991Y-15060222D01*
X14657991Y-15060222D02*
X14657991Y-15079269D01*
X14657991Y-15079269D02*
X14562753Y-15098317D01*
X14734182Y-15155460D02*
X14753230Y-15164984D01*
X14753230Y-15164984D02*
X14791325Y-15164984D01*
X14791325Y-15164984D02*
X14810372Y-15155460D01*
X14810372Y-15155460D02*
X14819896Y-15136412D01*
X14819896Y-15136412D02*
X14819896Y-15126888D01*
X14819896Y-15126888D02*
X14810372Y-15107841D01*
X14810372Y-15107841D02*
X14791325Y-15098317D01*
X14791325Y-15098317D02*
X14762753Y-15098317D01*
X14762753Y-15098317D02*
X14743706Y-15088793D01*
X14743706Y-15088793D02*
X14734182Y-15069746D01*
X14734182Y-15069746D02*
X14734182Y-15060222D01*
X14734182Y-15060222D02*
X14743706Y-15041174D01*
X14743706Y-15041174D02*
X14762753Y-15031650D01*
X14762753Y-15031650D02*
X14791325Y-15031650D01*
X14791325Y-15031650D02*
X14810372Y-15041174D01*
X14886563Y-15241174D02*
X14896087Y-15231650D01*
X14896087Y-15231650D02*
X14915134Y-15203079D01*
X14915134Y-15203079D02*
X14924658Y-15184031D01*
X14924658Y-15184031D02*
X14934182Y-15155460D01*
X14934182Y-15155460D02*
X14943706Y-15107841D01*
X14943706Y-15107841D02*
X14943706Y-15069746D01*
X14943706Y-15069746D02*
X14934182Y-15022127D01*
X14934182Y-15022127D02*
X14924658Y-14993555D01*
X14924658Y-14993555D02*
X14915134Y-14974508D01*
X14915134Y-14974508D02*
X14896087Y-14945936D01*
X14896087Y-14945936D02*
X14886563Y-14936412D01*
D13*
X10096856Y-15372856D02*
X10096856Y-15302144D01*
X10026144Y-15302144D01*
X10026144Y-15372856D01*
X10096856Y-15372856D01*
D12*
X10477039Y-15428984D02*
X10362753Y-15428984D01*
X10419896Y-15428984D02*
X10419896Y-15228984D01*
X10419896Y-15228984D02*
X10400848Y-15257555D01*
X10400848Y-15257555D02*
X10381801Y-15276603D01*
X10381801Y-15276603D02*
X10362753Y-15286127D01*
X10562753Y-15409936D02*
X10572277Y-15419460D01*
X10572277Y-15419460D02*
X10562753Y-15428984D01*
X10562753Y-15428984D02*
X10553229Y-15419460D01*
X10553229Y-15419460D02*
X10562753Y-15409936D01*
X10562753Y-15409936D02*
X10562753Y-15428984D01*
X10696086Y-15228984D02*
X10715134Y-15228984D01*
X10715134Y-15228984D02*
X10734182Y-15238508D01*
X10734182Y-15238508D02*
X10743705Y-15248031D01*
X10743705Y-15248031D02*
X10753229Y-15267079D01*
X10753229Y-15267079D02*
X10762753Y-15305174D01*
X10762753Y-15305174D02*
X10762753Y-15352793D01*
X10762753Y-15352793D02*
X10753229Y-15390888D01*
X10753229Y-15390888D02*
X10743705Y-15409936D01*
X10743705Y-15409936D02*
X10734182Y-15419460D01*
X10734182Y-15419460D02*
X10715134Y-15428984D01*
X10715134Y-15428984D02*
X10696086Y-15428984D01*
X10696086Y-15428984D02*
X10677039Y-15419460D01*
X10677039Y-15419460D02*
X10667515Y-15409936D01*
X10667515Y-15409936D02*
X10657991Y-15390888D01*
X10657991Y-15390888D02*
X10648467Y-15352793D01*
X10648467Y-15352793D02*
X10648467Y-15305174D01*
X10648467Y-15305174D02*
X10657991Y-15267079D01*
X10657991Y-15267079D02*
X10667515Y-15248031D01*
X10667515Y-15248031D02*
X10677039Y-15238508D01*
X10677039Y-15238508D02*
X10696086Y-15228984D01*
X10886563Y-15228984D02*
X10905610Y-15228984D01*
X10905610Y-15228984D02*
X10924658Y-15238508D01*
X10924658Y-15238508D02*
X10934182Y-15248031D01*
X10934182Y-15248031D02*
X10943705Y-15267079D01*
X10943705Y-15267079D02*
X10953229Y-15305174D01*
X10953229Y-15305174D02*
X10953229Y-15352793D01*
X10953229Y-15352793D02*
X10943705Y-15390888D01*
X10943705Y-15390888D02*
X10934182Y-15409936D01*
X10934182Y-15409936D02*
X10924658Y-15419460D01*
X10924658Y-15419460D02*
X10905610Y-15428984D01*
X10905610Y-15428984D02*
X10886563Y-15428984D01*
X10886563Y-15428984D02*
X10867515Y-15419460D01*
X10867515Y-15419460D02*
X10857991Y-15409936D01*
X10857991Y-15409936D02*
X10848467Y-15390888D01*
X10848467Y-15390888D02*
X10838944Y-15352793D01*
X10838944Y-15352793D02*
X10838944Y-15305174D01*
X10838944Y-15305174D02*
X10848467Y-15267079D01*
X10848467Y-15267079D02*
X10857991Y-15248031D01*
X10857991Y-15248031D02*
X10867515Y-15238508D01*
X10867515Y-15238508D02*
X10886563Y-15228984D01*
X11077039Y-15228984D02*
X11096086Y-15228984D01*
X11096086Y-15228984D02*
X11115134Y-15238508D01*
X11115134Y-15238508D02*
X11124658Y-15248031D01*
X11124658Y-15248031D02*
X11134182Y-15267079D01*
X11134182Y-15267079D02*
X11143705Y-15305174D01*
X11143705Y-15305174D02*
X11143705Y-15352793D01*
X11143705Y-15352793D02*
X11134182Y-15390888D01*
X11134182Y-15390888D02*
X11124658Y-15409936D01*
X11124658Y-15409936D02*
X11115134Y-15419460D01*
X11115134Y-15419460D02*
X11096086Y-15428984D01*
X11096086Y-15428984D02*
X11077039Y-15428984D01*
X11077039Y-15428984D02*
X11057991Y-15419460D01*
X11057991Y-15419460D02*
X11048467Y-15409936D01*
X11048467Y-15409936D02*
X11038944Y-15390888D01*
X11038944Y-15390888D02*
X11029420Y-15352793D01*
X11029420Y-15352793D02*
X11029420Y-15305174D01*
X11029420Y-15305174D02*
X11038944Y-15267079D01*
X11038944Y-15267079D02*
X11048467Y-15248031D01*
X11048467Y-15248031D02*
X11057991Y-15238508D01*
X11057991Y-15238508D02*
X11077039Y-15228984D01*
X11229420Y-15428984D02*
X11229420Y-15295650D01*
X11229420Y-15314698D02*
X11238943Y-15305174D01*
X11238943Y-15305174D02*
X11257991Y-15295650D01*
X11257991Y-15295650D02*
X11286563Y-15295650D01*
X11286563Y-15295650D02*
X11305610Y-15305174D01*
X11305610Y-15305174D02*
X11315134Y-15324222D01*
X11315134Y-15324222D02*
X11315134Y-15428984D01*
X11315134Y-15324222D02*
X11324658Y-15305174D01*
X11324658Y-15305174D02*
X11343705Y-15295650D01*
X11343705Y-15295650D02*
X11372277Y-15295650D01*
X11372277Y-15295650D02*
X11391324Y-15305174D01*
X11391324Y-15305174D02*
X11400848Y-15324222D01*
X11400848Y-15324222D02*
X11400848Y-15428984D01*
X11496086Y-15428984D02*
X11496086Y-15295650D01*
X11496086Y-15314698D02*
X11505610Y-15305174D01*
X11505610Y-15305174D02*
X11524658Y-15295650D01*
X11524658Y-15295650D02*
X11553229Y-15295650D01*
X11553229Y-15295650D02*
X11572277Y-15305174D01*
X11572277Y-15305174D02*
X11581801Y-15324222D01*
X11581801Y-15324222D02*
X11581801Y-15428984D01*
X11581801Y-15324222D02*
X11591324Y-15305174D01*
X11591324Y-15305174D02*
X11610372Y-15295650D01*
X11610372Y-15295650D02*
X11638943Y-15295650D01*
X11638943Y-15295650D02*
X11657991Y-15305174D01*
X11657991Y-15305174D02*
X11667515Y-15324222D01*
X11667515Y-15324222D02*
X11667515Y-15428984D01*
X12057991Y-15219460D02*
X11886563Y-15476603D01*
X12315134Y-15228984D02*
X12334182Y-15228984D01*
X12334182Y-15228984D02*
X12353229Y-15238508D01*
X12353229Y-15238508D02*
X12362753Y-15248031D01*
X12362753Y-15248031D02*
X12372277Y-15267079D01*
X12372277Y-15267079D02*
X12381801Y-15305174D01*
X12381801Y-15305174D02*
X12381801Y-15352793D01*
X12381801Y-15352793D02*
X12372277Y-15390888D01*
X12372277Y-15390888D02*
X12362753Y-15409936D01*
X12362753Y-15409936D02*
X12353229Y-15419460D01*
X12353229Y-15419460D02*
X12334182Y-15428984D01*
X12334182Y-15428984D02*
X12315134Y-15428984D01*
X12315134Y-15428984D02*
X12296086Y-15419460D01*
X12296086Y-15419460D02*
X12286563Y-15409936D01*
X12286563Y-15409936D02*
X12277039Y-15390888D01*
X12277039Y-15390888D02*
X12267515Y-15352793D01*
X12267515Y-15352793D02*
X12267515Y-15305174D01*
X12267515Y-15305174D02*
X12277039Y-15267079D01*
X12277039Y-15267079D02*
X12286563Y-15248031D01*
X12286563Y-15248031D02*
X12296086Y-15238508D01*
X12296086Y-15238508D02*
X12315134Y-15228984D01*
X12467515Y-15409936D02*
X12477039Y-15419460D01*
X12477039Y-15419460D02*
X12467515Y-15428984D01*
X12467515Y-15428984D02*
X12457991Y-15419460D01*
X12457991Y-15419460D02*
X12467515Y-15409936D01*
X12467515Y-15409936D02*
X12467515Y-15428984D01*
X12600848Y-15228984D02*
X12619896Y-15228984D01*
X12619896Y-15228984D02*
X12638944Y-15238508D01*
X12638944Y-15238508D02*
X12648467Y-15248031D01*
X12648467Y-15248031D02*
X12657991Y-15267079D01*
X12657991Y-15267079D02*
X12667515Y-15305174D01*
X12667515Y-15305174D02*
X12667515Y-15352793D01*
X12667515Y-15352793D02*
X12657991Y-15390888D01*
X12657991Y-15390888D02*
X12648467Y-15409936D01*
X12648467Y-15409936D02*
X12638944Y-15419460D01*
X12638944Y-15419460D02*
X12619896Y-15428984D01*
X12619896Y-15428984D02*
X12600848Y-15428984D01*
X12600848Y-15428984D02*
X12581801Y-15419460D01*
X12581801Y-15419460D02*
X12572277Y-15409936D01*
X12572277Y-15409936D02*
X12562753Y-15390888D01*
X12562753Y-15390888D02*
X12553229Y-15352793D01*
X12553229Y-15352793D02*
X12553229Y-15305174D01*
X12553229Y-15305174D02*
X12562753Y-15267079D01*
X12562753Y-15267079D02*
X12572277Y-15248031D01*
X12572277Y-15248031D02*
X12581801Y-15238508D01*
X12581801Y-15238508D02*
X12600848Y-15228984D01*
X12734182Y-15228984D02*
X12857991Y-15228984D01*
X12857991Y-15228984D02*
X12791325Y-15305174D01*
X12791325Y-15305174D02*
X12819896Y-15305174D01*
X12819896Y-15305174D02*
X12838944Y-15314698D01*
X12838944Y-15314698D02*
X12848467Y-15324222D01*
X12848467Y-15324222D02*
X12857991Y-15343269D01*
X12857991Y-15343269D02*
X12857991Y-15390888D01*
X12857991Y-15390888D02*
X12848467Y-15409936D01*
X12848467Y-15409936D02*
X12838944Y-15419460D01*
X12838944Y-15419460D02*
X12819896Y-15428984D01*
X12819896Y-15428984D02*
X12762753Y-15428984D01*
X12762753Y-15428984D02*
X12743706Y-15419460D01*
X12743706Y-15419460D02*
X12734182Y-15409936D01*
X12953229Y-15428984D02*
X12991325Y-15428984D01*
X12991325Y-15428984D02*
X13010372Y-15419460D01*
X13010372Y-15419460D02*
X13019896Y-15409936D01*
X13019896Y-15409936D02*
X13038944Y-15381365D01*
X13038944Y-15381365D02*
X13048467Y-15343269D01*
X13048467Y-15343269D02*
X13048467Y-15267079D01*
X13048467Y-15267079D02*
X13038944Y-15248031D01*
X13038944Y-15248031D02*
X13029420Y-15238508D01*
X13029420Y-15238508D02*
X13010372Y-15228984D01*
X13010372Y-15228984D02*
X12972277Y-15228984D01*
X12972277Y-15228984D02*
X12953229Y-15238508D01*
X12953229Y-15238508D02*
X12943706Y-15248031D01*
X12943706Y-15248031D02*
X12934182Y-15267079D01*
X12934182Y-15267079D02*
X12934182Y-15314698D01*
X12934182Y-15314698D02*
X12943706Y-15333746D01*
X12943706Y-15333746D02*
X12953229Y-15343269D01*
X12953229Y-15343269D02*
X12972277Y-15352793D01*
X12972277Y-15352793D02*
X13010372Y-15352793D01*
X13010372Y-15352793D02*
X13029420Y-15343269D01*
X13029420Y-15343269D02*
X13038944Y-15333746D01*
X13038944Y-15333746D02*
X13048467Y-15314698D01*
X13219896Y-15295650D02*
X13219896Y-15428984D01*
X13172277Y-15219460D02*
X13124658Y-15362317D01*
X13124658Y-15362317D02*
X13248467Y-15362317D01*
X13315134Y-15228984D02*
X13315134Y-15267079D01*
X13391325Y-15228984D02*
X13391325Y-15267079D01*
X13686563Y-15505174D02*
X13677039Y-15495650D01*
X13677039Y-15495650D02*
X13657991Y-15467079D01*
X13657991Y-15467079D02*
X13648468Y-15448031D01*
X13648468Y-15448031D02*
X13638944Y-15419460D01*
X13638944Y-15419460D02*
X13629420Y-15371841D01*
X13629420Y-15371841D02*
X13629420Y-15333746D01*
X13629420Y-15333746D02*
X13638944Y-15286127D01*
X13638944Y-15286127D02*
X13648468Y-15257555D01*
X13648468Y-15257555D02*
X13657991Y-15238508D01*
X13657991Y-15238508D02*
X13677039Y-15209936D01*
X13677039Y-15209936D02*
X13686563Y-15200412D01*
X13743706Y-15228984D02*
X13867515Y-15228984D01*
X13867515Y-15228984D02*
X13800848Y-15305174D01*
X13800848Y-15305174D02*
X13829420Y-15305174D01*
X13829420Y-15305174D02*
X13848468Y-15314698D01*
X13848468Y-15314698D02*
X13857991Y-15324222D01*
X13857991Y-15324222D02*
X13867515Y-15343269D01*
X13867515Y-15343269D02*
X13867515Y-15390888D01*
X13867515Y-15390888D02*
X13857991Y-15409936D01*
X13857991Y-15409936D02*
X13848468Y-15419460D01*
X13848468Y-15419460D02*
X13829420Y-15428984D01*
X13829420Y-15428984D02*
X13772277Y-15428984D01*
X13772277Y-15428984D02*
X13753229Y-15419460D01*
X13753229Y-15419460D02*
X13743706Y-15409936D01*
X14105610Y-15428984D02*
X14105610Y-15228984D01*
X14191325Y-15428984D02*
X14191325Y-15324222D01*
X14191325Y-15324222D02*
X14181801Y-15305174D01*
X14181801Y-15305174D02*
X14162753Y-15295650D01*
X14162753Y-15295650D02*
X14134182Y-15295650D01*
X14134182Y-15295650D02*
X14115134Y-15305174D01*
X14115134Y-15305174D02*
X14105610Y-15314698D01*
X14315134Y-15428984D02*
X14296087Y-15419460D01*
X14296087Y-15419460D02*
X14286563Y-15409936D01*
X14286563Y-15409936D02*
X14277039Y-15390888D01*
X14277039Y-15390888D02*
X14277039Y-15333746D01*
X14277039Y-15333746D02*
X14286563Y-15314698D01*
X14286563Y-15314698D02*
X14296087Y-15305174D01*
X14296087Y-15305174D02*
X14315134Y-15295650D01*
X14315134Y-15295650D02*
X14343706Y-15295650D01*
X14343706Y-15295650D02*
X14362753Y-15305174D01*
X14362753Y-15305174D02*
X14372277Y-15314698D01*
X14372277Y-15314698D02*
X14381801Y-15333746D01*
X14381801Y-15333746D02*
X14381801Y-15390888D01*
X14381801Y-15390888D02*
X14372277Y-15409936D01*
X14372277Y-15409936D02*
X14362753Y-15419460D01*
X14362753Y-15419460D02*
X14343706Y-15428984D01*
X14343706Y-15428984D02*
X14315134Y-15428984D01*
X14496087Y-15428984D02*
X14477039Y-15419460D01*
X14477039Y-15419460D02*
X14467515Y-15400412D01*
X14467515Y-15400412D02*
X14467515Y-15228984D01*
X14648468Y-15419460D02*
X14629420Y-15428984D01*
X14629420Y-15428984D02*
X14591325Y-15428984D01*
X14591325Y-15428984D02*
X14572277Y-15419460D01*
X14572277Y-15419460D02*
X14562753Y-15400412D01*
X14562753Y-15400412D02*
X14562753Y-15324222D01*
X14562753Y-15324222D02*
X14572277Y-15305174D01*
X14572277Y-15305174D02*
X14591325Y-15295650D01*
X14591325Y-15295650D02*
X14629420Y-15295650D01*
X14629420Y-15295650D02*
X14648468Y-15305174D01*
X14648468Y-15305174D02*
X14657991Y-15324222D01*
X14657991Y-15324222D02*
X14657991Y-15343269D01*
X14657991Y-15343269D02*
X14562753Y-15362317D01*
X14734182Y-15419460D02*
X14753230Y-15428984D01*
X14753230Y-15428984D02*
X14791325Y-15428984D01*
X14791325Y-15428984D02*
X14810372Y-15419460D01*
X14810372Y-15419460D02*
X14819896Y-15400412D01*
X14819896Y-15400412D02*
X14819896Y-15390888D01*
X14819896Y-15390888D02*
X14810372Y-15371841D01*
X14810372Y-15371841D02*
X14791325Y-15362317D01*
X14791325Y-15362317D02*
X14762753Y-15362317D01*
X14762753Y-15362317D02*
X14743706Y-15352793D01*
X14743706Y-15352793D02*
X14734182Y-15333746D01*
X14734182Y-15333746D02*
X14734182Y-15324222D01*
X14734182Y-15324222D02*
X14743706Y-15305174D01*
X14743706Y-15305174D02*
X14762753Y-15295650D01*
X14762753Y-15295650D02*
X14791325Y-15295650D01*
X14791325Y-15295650D02*
X14810372Y-15305174D01*
X14886563Y-15505174D02*
X14896087Y-15495650D01*
X14896087Y-15495650D02*
X14915134Y-15467079D01*
X14915134Y-15467079D02*
X14924658Y-15448031D01*
X14924658Y-15448031D02*
X14934182Y-15419460D01*
X14934182Y-15419460D02*
X14943706Y-15371841D01*
X14943706Y-15371841D02*
X14943706Y-15333746D01*
X14943706Y-15333746D02*
X14934182Y-15286127D01*
X14934182Y-15286127D02*
X14924658Y-15257555D01*
X14924658Y-15257555D02*
X14915134Y-15238508D01*
X14915134Y-15238508D02*
X14896087Y-15209936D01*
X14896087Y-15209936D02*
X14886563Y-15200412D01*
D11*
X10051500Y-15661500D02*
X10111500Y-15601500D01*
X10051500Y-15541500D01*
X9991500Y-15601500D01*
X10051500Y-15661500D01*
D12*
X10477039Y-15692984D02*
X10362753Y-15692984D01*
X10419896Y-15692984D02*
X10419896Y-15492984D01*
X10419896Y-15492984D02*
X10400848Y-15521555D01*
X10400848Y-15521555D02*
X10381801Y-15540603D01*
X10381801Y-15540603D02*
X10362753Y-15550127D01*
X10562753Y-15673936D02*
X10572277Y-15683460D01*
X10572277Y-15683460D02*
X10562753Y-15692984D01*
X10562753Y-15692984D02*
X10553229Y-15683460D01*
X10553229Y-15683460D02*
X10562753Y-15673936D01*
X10562753Y-15673936D02*
X10562753Y-15692984D01*
X10648467Y-15512031D02*
X10657991Y-15502508D01*
X10657991Y-15502508D02*
X10677039Y-15492984D01*
X10677039Y-15492984D02*
X10724658Y-15492984D01*
X10724658Y-15492984D02*
X10743705Y-15502508D01*
X10743705Y-15502508D02*
X10753229Y-15512031D01*
X10753229Y-15512031D02*
X10762753Y-15531079D01*
X10762753Y-15531079D02*
X10762753Y-15550127D01*
X10762753Y-15550127D02*
X10753229Y-15578698D01*
X10753229Y-15578698D02*
X10638944Y-15692984D01*
X10638944Y-15692984D02*
X10762753Y-15692984D01*
X10886563Y-15492984D02*
X10905610Y-15492984D01*
X10905610Y-15492984D02*
X10924658Y-15502508D01*
X10924658Y-15502508D02*
X10934182Y-15512031D01*
X10934182Y-15512031D02*
X10943705Y-15531079D01*
X10943705Y-15531079D02*
X10953229Y-15569174D01*
X10953229Y-15569174D02*
X10953229Y-15616793D01*
X10953229Y-15616793D02*
X10943705Y-15654888D01*
X10943705Y-15654888D02*
X10934182Y-15673936D01*
X10934182Y-15673936D02*
X10924658Y-15683460D01*
X10924658Y-15683460D02*
X10905610Y-15692984D01*
X10905610Y-15692984D02*
X10886563Y-15692984D01*
X10886563Y-15692984D02*
X10867515Y-15683460D01*
X10867515Y-15683460D02*
X10857991Y-15673936D01*
X10857991Y-15673936D02*
X10848467Y-15654888D01*
X10848467Y-15654888D02*
X10838944Y-15616793D01*
X10838944Y-15616793D02*
X10838944Y-15569174D01*
X10838944Y-15569174D02*
X10848467Y-15531079D01*
X10848467Y-15531079D02*
X10857991Y-15512031D01*
X10857991Y-15512031D02*
X10867515Y-15502508D01*
X10867515Y-15502508D02*
X10886563Y-15492984D01*
X11077039Y-15492984D02*
X11096086Y-15492984D01*
X11096086Y-15492984D02*
X11115134Y-15502508D01*
X11115134Y-15502508D02*
X11124658Y-15512031D01*
X11124658Y-15512031D02*
X11134182Y-15531079D01*
X11134182Y-15531079D02*
X11143705Y-15569174D01*
X11143705Y-15569174D02*
X11143705Y-15616793D01*
X11143705Y-15616793D02*
X11134182Y-15654888D01*
X11134182Y-15654888D02*
X11124658Y-15673936D01*
X11124658Y-15673936D02*
X11115134Y-15683460D01*
X11115134Y-15683460D02*
X11096086Y-15692984D01*
X11096086Y-15692984D02*
X11077039Y-15692984D01*
X11077039Y-15692984D02*
X11057991Y-15683460D01*
X11057991Y-15683460D02*
X11048467Y-15673936D01*
X11048467Y-15673936D02*
X11038944Y-15654888D01*
X11038944Y-15654888D02*
X11029420Y-15616793D01*
X11029420Y-15616793D02*
X11029420Y-15569174D01*
X11029420Y-15569174D02*
X11038944Y-15531079D01*
X11038944Y-15531079D02*
X11048467Y-15512031D01*
X11048467Y-15512031D02*
X11057991Y-15502508D01*
X11057991Y-15502508D02*
X11077039Y-15492984D01*
X11229420Y-15692984D02*
X11229420Y-15559650D01*
X11229420Y-15578698D02*
X11238943Y-15569174D01*
X11238943Y-15569174D02*
X11257991Y-15559650D01*
X11257991Y-15559650D02*
X11286563Y-15559650D01*
X11286563Y-15559650D02*
X11305610Y-15569174D01*
X11305610Y-15569174D02*
X11315134Y-15588222D01*
X11315134Y-15588222D02*
X11315134Y-15692984D01*
X11315134Y-15588222D02*
X11324658Y-15569174D01*
X11324658Y-15569174D02*
X11343705Y-15559650D01*
X11343705Y-15559650D02*
X11372277Y-15559650D01*
X11372277Y-15559650D02*
X11391324Y-15569174D01*
X11391324Y-15569174D02*
X11400848Y-15588222D01*
X11400848Y-15588222D02*
X11400848Y-15692984D01*
X11496086Y-15692984D02*
X11496086Y-15559650D01*
X11496086Y-15578698D02*
X11505610Y-15569174D01*
X11505610Y-15569174D02*
X11524658Y-15559650D01*
X11524658Y-15559650D02*
X11553229Y-15559650D01*
X11553229Y-15559650D02*
X11572277Y-15569174D01*
X11572277Y-15569174D02*
X11581801Y-15588222D01*
X11581801Y-15588222D02*
X11581801Y-15692984D01*
X11581801Y-15588222D02*
X11591324Y-15569174D01*
X11591324Y-15569174D02*
X11610372Y-15559650D01*
X11610372Y-15559650D02*
X11638943Y-15559650D01*
X11638943Y-15559650D02*
X11657991Y-15569174D01*
X11657991Y-15569174D02*
X11667515Y-15588222D01*
X11667515Y-15588222D02*
X11667515Y-15692984D01*
X12057991Y-15483460D02*
X11886563Y-15740603D01*
X12315134Y-15492984D02*
X12334182Y-15492984D01*
X12334182Y-15492984D02*
X12353229Y-15502508D01*
X12353229Y-15502508D02*
X12362753Y-15512031D01*
X12362753Y-15512031D02*
X12372277Y-15531079D01*
X12372277Y-15531079D02*
X12381801Y-15569174D01*
X12381801Y-15569174D02*
X12381801Y-15616793D01*
X12381801Y-15616793D02*
X12372277Y-15654888D01*
X12372277Y-15654888D02*
X12362753Y-15673936D01*
X12362753Y-15673936D02*
X12353229Y-15683460D01*
X12353229Y-15683460D02*
X12334182Y-15692984D01*
X12334182Y-15692984D02*
X12315134Y-15692984D01*
X12315134Y-15692984D02*
X12296086Y-15683460D01*
X12296086Y-15683460D02*
X12286563Y-15673936D01*
X12286563Y-15673936D02*
X12277039Y-15654888D01*
X12277039Y-15654888D02*
X12267515Y-15616793D01*
X12267515Y-15616793D02*
X12267515Y-15569174D01*
X12267515Y-15569174D02*
X12277039Y-15531079D01*
X12277039Y-15531079D02*
X12286563Y-15512031D01*
X12286563Y-15512031D02*
X12296086Y-15502508D01*
X12296086Y-15502508D02*
X12315134Y-15492984D01*
X12467515Y-15673936D02*
X12477039Y-15683460D01*
X12477039Y-15683460D02*
X12467515Y-15692984D01*
X12467515Y-15692984D02*
X12457991Y-15683460D01*
X12457991Y-15683460D02*
X12467515Y-15673936D01*
X12467515Y-15673936D02*
X12467515Y-15692984D01*
X12600848Y-15492984D02*
X12619896Y-15492984D01*
X12619896Y-15492984D02*
X12638944Y-15502508D01*
X12638944Y-15502508D02*
X12648467Y-15512031D01*
X12648467Y-15512031D02*
X12657991Y-15531079D01*
X12657991Y-15531079D02*
X12667515Y-15569174D01*
X12667515Y-15569174D02*
X12667515Y-15616793D01*
X12667515Y-15616793D02*
X12657991Y-15654888D01*
X12657991Y-15654888D02*
X12648467Y-15673936D01*
X12648467Y-15673936D02*
X12638944Y-15683460D01*
X12638944Y-15683460D02*
X12619896Y-15692984D01*
X12619896Y-15692984D02*
X12600848Y-15692984D01*
X12600848Y-15692984D02*
X12581801Y-15683460D01*
X12581801Y-15683460D02*
X12572277Y-15673936D01*
X12572277Y-15673936D02*
X12562753Y-15654888D01*
X12562753Y-15654888D02*
X12553229Y-15616793D01*
X12553229Y-15616793D02*
X12553229Y-15569174D01*
X12553229Y-15569174D02*
X12562753Y-15531079D01*
X12562753Y-15531079D02*
X12572277Y-15512031D01*
X12572277Y-15512031D02*
X12581801Y-15502508D01*
X12581801Y-15502508D02*
X12600848Y-15492984D01*
X12838944Y-15559650D02*
X12838944Y-15692984D01*
X12791325Y-15483460D02*
X12743706Y-15626317D01*
X12743706Y-15626317D02*
X12867515Y-15626317D01*
X12924658Y-15492984D02*
X13057991Y-15492984D01*
X13057991Y-15492984D02*
X12972277Y-15692984D01*
X13124658Y-15512031D02*
X13134182Y-15502508D01*
X13134182Y-15502508D02*
X13153229Y-15492984D01*
X13153229Y-15492984D02*
X13200848Y-15492984D01*
X13200848Y-15492984D02*
X13219896Y-15502508D01*
X13219896Y-15502508D02*
X13229420Y-15512031D01*
X13229420Y-15512031D02*
X13238944Y-15531079D01*
X13238944Y-15531079D02*
X13238944Y-15550127D01*
X13238944Y-15550127D02*
X13229420Y-15578698D01*
X13229420Y-15578698D02*
X13115134Y-15692984D01*
X13115134Y-15692984D02*
X13238944Y-15692984D01*
X13315134Y-15492984D02*
X13315134Y-15531079D01*
X13391325Y-15492984D02*
X13391325Y-15531079D01*
X13686563Y-15769174D02*
X13677039Y-15759650D01*
X13677039Y-15759650D02*
X13657991Y-15731079D01*
X13657991Y-15731079D02*
X13648468Y-15712031D01*
X13648468Y-15712031D02*
X13638944Y-15683460D01*
X13638944Y-15683460D02*
X13629420Y-15635841D01*
X13629420Y-15635841D02*
X13629420Y-15597746D01*
X13629420Y-15597746D02*
X13638944Y-15550127D01*
X13638944Y-15550127D02*
X13648468Y-15521555D01*
X13648468Y-15521555D02*
X13657991Y-15502508D01*
X13657991Y-15502508D02*
X13677039Y-15473936D01*
X13677039Y-15473936D02*
X13686563Y-15464412D01*
X13867515Y-15692984D02*
X13753229Y-15692984D01*
X13810372Y-15692984D02*
X13810372Y-15492984D01*
X13810372Y-15492984D02*
X13791325Y-15521555D01*
X13791325Y-15521555D02*
X13772277Y-15540603D01*
X13772277Y-15540603D02*
X13753229Y-15550127D01*
X13943706Y-15512031D02*
X13953229Y-15502508D01*
X13953229Y-15502508D02*
X13972277Y-15492984D01*
X13972277Y-15492984D02*
X14019896Y-15492984D01*
X14019896Y-15492984D02*
X14038944Y-15502508D01*
X14038944Y-15502508D02*
X14048468Y-15512031D01*
X14048468Y-15512031D02*
X14057991Y-15531079D01*
X14057991Y-15531079D02*
X14057991Y-15550127D01*
X14057991Y-15550127D02*
X14048468Y-15578698D01*
X14048468Y-15578698D02*
X13934182Y-15692984D01*
X13934182Y-15692984D02*
X14057991Y-15692984D01*
X14296087Y-15692984D02*
X14296087Y-15492984D01*
X14381801Y-15692984D02*
X14381801Y-15588222D01*
X14381801Y-15588222D02*
X14372277Y-15569174D01*
X14372277Y-15569174D02*
X14353230Y-15559650D01*
X14353230Y-15559650D02*
X14324658Y-15559650D01*
X14324658Y-15559650D02*
X14305610Y-15569174D01*
X14305610Y-15569174D02*
X14296087Y-15578698D01*
X14505610Y-15692984D02*
X14486563Y-15683460D01*
X14486563Y-15683460D02*
X14477039Y-15673936D01*
X14477039Y-15673936D02*
X14467515Y-15654888D01*
X14467515Y-15654888D02*
X14467515Y-15597746D01*
X14467515Y-15597746D02*
X14477039Y-15578698D01*
X14477039Y-15578698D02*
X14486563Y-15569174D01*
X14486563Y-15569174D02*
X14505610Y-15559650D01*
X14505610Y-15559650D02*
X14534182Y-15559650D01*
X14534182Y-15559650D02*
X14553230Y-15569174D01*
X14553230Y-15569174D02*
X14562753Y-15578698D01*
X14562753Y-15578698D02*
X14572277Y-15597746D01*
X14572277Y-15597746D02*
X14572277Y-15654888D01*
X14572277Y-15654888D02*
X14562753Y-15673936D01*
X14562753Y-15673936D02*
X14553230Y-15683460D01*
X14553230Y-15683460D02*
X14534182Y-15692984D01*
X14534182Y-15692984D02*
X14505610Y-15692984D01*
X14686563Y-15692984D02*
X14667515Y-15683460D01*
X14667515Y-15683460D02*
X14657991Y-15664412D01*
X14657991Y-15664412D02*
X14657991Y-15492984D01*
X14838944Y-15683460D02*
X14819896Y-15692984D01*
X14819896Y-15692984D02*
X14781801Y-15692984D01*
X14781801Y-15692984D02*
X14762753Y-15683460D01*
X14762753Y-15683460D02*
X14753230Y-15664412D01*
X14753230Y-15664412D02*
X14753230Y-15588222D01*
X14753230Y-15588222D02*
X14762753Y-15569174D01*
X14762753Y-15569174D02*
X14781801Y-15559650D01*
X14781801Y-15559650D02*
X14819896Y-15559650D01*
X14819896Y-15559650D02*
X14838944Y-15569174D01*
X14838944Y-15569174D02*
X14848468Y-15588222D01*
X14848468Y-15588222D02*
X14848468Y-15607269D01*
X14848468Y-15607269D02*
X14753230Y-15626317D01*
X14924658Y-15683460D02*
X14943706Y-15692984D01*
X14943706Y-15692984D02*
X14981801Y-15692984D01*
X14981801Y-15692984D02*
X15000849Y-15683460D01*
X15000849Y-15683460D02*
X15010372Y-15664412D01*
X15010372Y-15664412D02*
X15010372Y-15654888D01*
X15010372Y-15654888D02*
X15000849Y-15635841D01*
X15000849Y-15635841D02*
X14981801Y-15626317D01*
X14981801Y-15626317D02*
X14953230Y-15626317D01*
X14953230Y-15626317D02*
X14934182Y-15616793D01*
X14934182Y-15616793D02*
X14924658Y-15597746D01*
X14924658Y-15597746D02*
X14924658Y-15588222D01*
X14924658Y-15588222D02*
X14934182Y-15569174D01*
X14934182Y-15569174D02*
X14953230Y-15559650D01*
X14953230Y-15559650D02*
X14981801Y-15559650D01*
X14981801Y-15559650D02*
X15000849Y-15569174D01*
X15077039Y-15769174D02*
X15086563Y-15759650D01*
X15086563Y-15759650D02*
X15105611Y-15731079D01*
X15105611Y-15731079D02*
X15115134Y-15712031D01*
X15115134Y-15712031D02*
X15124658Y-15683460D01*
X15124658Y-15683460D02*
X15134182Y-15635841D01*
X15134182Y-15635841D02*
X15134182Y-15597746D01*
X15134182Y-15597746D02*
X15124658Y-15550127D01*
X15124658Y-15550127D02*
X15115134Y-15521555D01*
X15115134Y-15521555D02*
X15105611Y-15502508D01*
X15105611Y-15502508D02*
X15086563Y-15473936D01*
X15086563Y-15473936D02*
X15077039Y-15464412D01*
D14*
X9981500Y-15800500D02*
X10111500Y-15930500D01*
X10111500Y-15800500D02*
X9981500Y-15930500D01*
X10111500Y-15865500D02*
G75*
G02*
X9981500Y-15865500I-65000J0D01*
G01*
X9981500Y-15865500D02*
G75*
G02*
X10111500Y-15865500I65000J0D01*
G01*
D12*
X10477039Y-15956984D02*
X10362753Y-15956984D01*
X10419896Y-15956984D02*
X10419896Y-15756984D01*
X10419896Y-15756984D02*
X10400848Y-15785555D01*
X10400848Y-15785555D02*
X10381801Y-15804603D01*
X10381801Y-15804603D02*
X10362753Y-15814127D01*
X10562753Y-15937936D02*
X10572277Y-15947460D01*
X10572277Y-15947460D02*
X10562753Y-15956984D01*
X10562753Y-15956984D02*
X10553229Y-15947460D01*
X10553229Y-15947460D02*
X10562753Y-15937936D01*
X10562753Y-15937936D02*
X10562753Y-15956984D01*
X10638944Y-15756984D02*
X10762753Y-15756984D01*
X10762753Y-15756984D02*
X10696086Y-15833174D01*
X10696086Y-15833174D02*
X10724658Y-15833174D01*
X10724658Y-15833174D02*
X10743705Y-15842698D01*
X10743705Y-15842698D02*
X10753229Y-15852222D01*
X10753229Y-15852222D02*
X10762753Y-15871269D01*
X10762753Y-15871269D02*
X10762753Y-15918888D01*
X10762753Y-15918888D02*
X10753229Y-15937936D01*
X10753229Y-15937936D02*
X10743705Y-15947460D01*
X10743705Y-15947460D02*
X10724658Y-15956984D01*
X10724658Y-15956984D02*
X10667515Y-15956984D01*
X10667515Y-15956984D02*
X10648467Y-15947460D01*
X10648467Y-15947460D02*
X10638944Y-15937936D01*
X10886563Y-15756984D02*
X10905610Y-15756984D01*
X10905610Y-15756984D02*
X10924658Y-15766508D01*
X10924658Y-15766508D02*
X10934182Y-15776031D01*
X10934182Y-15776031D02*
X10943705Y-15795079D01*
X10943705Y-15795079D02*
X10953229Y-15833174D01*
X10953229Y-15833174D02*
X10953229Y-15880793D01*
X10953229Y-15880793D02*
X10943705Y-15918888D01*
X10943705Y-15918888D02*
X10934182Y-15937936D01*
X10934182Y-15937936D02*
X10924658Y-15947460D01*
X10924658Y-15947460D02*
X10905610Y-15956984D01*
X10905610Y-15956984D02*
X10886563Y-15956984D01*
X10886563Y-15956984D02*
X10867515Y-15947460D01*
X10867515Y-15947460D02*
X10857991Y-15937936D01*
X10857991Y-15937936D02*
X10848467Y-15918888D01*
X10848467Y-15918888D02*
X10838944Y-15880793D01*
X10838944Y-15880793D02*
X10838944Y-15833174D01*
X10838944Y-15833174D02*
X10848467Y-15795079D01*
X10848467Y-15795079D02*
X10857991Y-15776031D01*
X10857991Y-15776031D02*
X10867515Y-15766508D01*
X10867515Y-15766508D02*
X10886563Y-15756984D01*
X11077039Y-15756984D02*
X11096086Y-15756984D01*
X11096086Y-15756984D02*
X11115134Y-15766508D01*
X11115134Y-15766508D02*
X11124658Y-15776031D01*
X11124658Y-15776031D02*
X11134182Y-15795079D01*
X11134182Y-15795079D02*
X11143705Y-15833174D01*
X11143705Y-15833174D02*
X11143705Y-15880793D01*
X11143705Y-15880793D02*
X11134182Y-15918888D01*
X11134182Y-15918888D02*
X11124658Y-15937936D01*
X11124658Y-15937936D02*
X11115134Y-15947460D01*
X11115134Y-15947460D02*
X11096086Y-15956984D01*
X11096086Y-15956984D02*
X11077039Y-15956984D01*
X11077039Y-15956984D02*
X11057991Y-15947460D01*
X11057991Y-15947460D02*
X11048467Y-15937936D01*
X11048467Y-15937936D02*
X11038944Y-15918888D01*
X11038944Y-15918888D02*
X11029420Y-15880793D01*
X11029420Y-15880793D02*
X11029420Y-15833174D01*
X11029420Y-15833174D02*
X11038944Y-15795079D01*
X11038944Y-15795079D02*
X11048467Y-15776031D01*
X11048467Y-15776031D02*
X11057991Y-15766508D01*
X11057991Y-15766508D02*
X11077039Y-15756984D01*
X11229420Y-15956984D02*
X11229420Y-15823650D01*
X11229420Y-15842698D02*
X11238943Y-15833174D01*
X11238943Y-15833174D02*
X11257991Y-15823650D01*
X11257991Y-15823650D02*
X11286563Y-15823650D01*
X11286563Y-15823650D02*
X11305610Y-15833174D01*
X11305610Y-15833174D02*
X11315134Y-15852222D01*
X11315134Y-15852222D02*
X11315134Y-15956984D01*
X11315134Y-15852222D02*
X11324658Y-15833174D01*
X11324658Y-15833174D02*
X11343705Y-15823650D01*
X11343705Y-15823650D02*
X11372277Y-15823650D01*
X11372277Y-15823650D02*
X11391324Y-15833174D01*
X11391324Y-15833174D02*
X11400848Y-15852222D01*
X11400848Y-15852222D02*
X11400848Y-15956984D01*
X11496086Y-15956984D02*
X11496086Y-15823650D01*
X11496086Y-15842698D02*
X11505610Y-15833174D01*
X11505610Y-15833174D02*
X11524658Y-15823650D01*
X11524658Y-15823650D02*
X11553229Y-15823650D01*
X11553229Y-15823650D02*
X11572277Y-15833174D01*
X11572277Y-15833174D02*
X11581801Y-15852222D01*
X11581801Y-15852222D02*
X11581801Y-15956984D01*
X11581801Y-15852222D02*
X11591324Y-15833174D01*
X11591324Y-15833174D02*
X11610372Y-15823650D01*
X11610372Y-15823650D02*
X11638943Y-15823650D01*
X11638943Y-15823650D02*
X11657991Y-15833174D01*
X11657991Y-15833174D02*
X11667515Y-15852222D01*
X11667515Y-15852222D02*
X11667515Y-15956984D01*
X12057991Y-15747460D02*
X11886563Y-16004603D01*
X12315134Y-15756984D02*
X12334182Y-15756984D01*
X12334182Y-15756984D02*
X12353229Y-15766508D01*
X12353229Y-15766508D02*
X12362753Y-15776031D01*
X12362753Y-15776031D02*
X12372277Y-15795079D01*
X12372277Y-15795079D02*
X12381801Y-15833174D01*
X12381801Y-15833174D02*
X12381801Y-15880793D01*
X12381801Y-15880793D02*
X12372277Y-15918888D01*
X12372277Y-15918888D02*
X12362753Y-15937936D01*
X12362753Y-15937936D02*
X12353229Y-15947460D01*
X12353229Y-15947460D02*
X12334182Y-15956984D01*
X12334182Y-15956984D02*
X12315134Y-15956984D01*
X12315134Y-15956984D02*
X12296086Y-15947460D01*
X12296086Y-15947460D02*
X12286563Y-15937936D01*
X12286563Y-15937936D02*
X12277039Y-15918888D01*
X12277039Y-15918888D02*
X12267515Y-15880793D01*
X12267515Y-15880793D02*
X12267515Y-15833174D01*
X12267515Y-15833174D02*
X12277039Y-15795079D01*
X12277039Y-15795079D02*
X12286563Y-15776031D01*
X12286563Y-15776031D02*
X12296086Y-15766508D01*
X12296086Y-15766508D02*
X12315134Y-15756984D01*
X12467515Y-15937936D02*
X12477039Y-15947460D01*
X12477039Y-15947460D02*
X12467515Y-15956984D01*
X12467515Y-15956984D02*
X12457991Y-15947460D01*
X12457991Y-15947460D02*
X12467515Y-15937936D01*
X12467515Y-15937936D02*
X12467515Y-15956984D01*
X12600848Y-15756984D02*
X12619896Y-15756984D01*
X12619896Y-15756984D02*
X12638944Y-15766508D01*
X12638944Y-15766508D02*
X12648467Y-15776031D01*
X12648467Y-15776031D02*
X12657991Y-15795079D01*
X12657991Y-15795079D02*
X12667515Y-15833174D01*
X12667515Y-15833174D02*
X12667515Y-15880793D01*
X12667515Y-15880793D02*
X12657991Y-15918888D01*
X12657991Y-15918888D02*
X12648467Y-15937936D01*
X12648467Y-15937936D02*
X12638944Y-15947460D01*
X12638944Y-15947460D02*
X12619896Y-15956984D01*
X12619896Y-15956984D02*
X12600848Y-15956984D01*
X12600848Y-15956984D02*
X12581801Y-15947460D01*
X12581801Y-15947460D02*
X12572277Y-15937936D01*
X12572277Y-15937936D02*
X12562753Y-15918888D01*
X12562753Y-15918888D02*
X12553229Y-15880793D01*
X12553229Y-15880793D02*
X12553229Y-15833174D01*
X12553229Y-15833174D02*
X12562753Y-15795079D01*
X12562753Y-15795079D02*
X12572277Y-15776031D01*
X12572277Y-15776031D02*
X12581801Y-15766508D01*
X12581801Y-15766508D02*
X12600848Y-15756984D01*
X12848467Y-15756984D02*
X12753229Y-15756984D01*
X12753229Y-15756984D02*
X12743706Y-15852222D01*
X12743706Y-15852222D02*
X12753229Y-15842698D01*
X12753229Y-15842698D02*
X12772277Y-15833174D01*
X12772277Y-15833174D02*
X12819896Y-15833174D01*
X12819896Y-15833174D02*
X12838944Y-15842698D01*
X12838944Y-15842698D02*
X12848467Y-15852222D01*
X12848467Y-15852222D02*
X12857991Y-15871269D01*
X12857991Y-15871269D02*
X12857991Y-15918888D01*
X12857991Y-15918888D02*
X12848467Y-15937936D01*
X12848467Y-15937936D02*
X12838944Y-15947460D01*
X12838944Y-15947460D02*
X12819896Y-15956984D01*
X12819896Y-15956984D02*
X12772277Y-15956984D01*
X12772277Y-15956984D02*
X12753229Y-15947460D01*
X12753229Y-15947460D02*
X12743706Y-15937936D01*
X13048467Y-15956984D02*
X12934182Y-15956984D01*
X12991325Y-15956984D02*
X12991325Y-15756984D01*
X12991325Y-15756984D02*
X12972277Y-15785555D01*
X12972277Y-15785555D02*
X12953229Y-15804603D01*
X12953229Y-15804603D02*
X12934182Y-15814127D01*
X13124658Y-15776031D02*
X13134182Y-15766508D01*
X13134182Y-15766508D02*
X13153229Y-15756984D01*
X13153229Y-15756984D02*
X13200848Y-15756984D01*
X13200848Y-15756984D02*
X13219896Y-15766508D01*
X13219896Y-15766508D02*
X13229420Y-15776031D01*
X13229420Y-15776031D02*
X13238944Y-15795079D01*
X13238944Y-15795079D02*
X13238944Y-15814127D01*
X13238944Y-15814127D02*
X13229420Y-15842698D01*
X13229420Y-15842698D02*
X13115134Y-15956984D01*
X13115134Y-15956984D02*
X13238944Y-15956984D01*
X13315134Y-15756984D02*
X13315134Y-15795079D01*
X13391325Y-15756984D02*
X13391325Y-15795079D01*
X13686563Y-16033174D02*
X13677039Y-16023650D01*
X13677039Y-16023650D02*
X13657991Y-15995079D01*
X13657991Y-15995079D02*
X13648468Y-15976031D01*
X13648468Y-15976031D02*
X13638944Y-15947460D01*
X13638944Y-15947460D02*
X13629420Y-15899841D01*
X13629420Y-15899841D02*
X13629420Y-15861746D01*
X13629420Y-15861746D02*
X13638944Y-15814127D01*
X13638944Y-15814127D02*
X13648468Y-15785555D01*
X13648468Y-15785555D02*
X13657991Y-15766508D01*
X13657991Y-15766508D02*
X13677039Y-15737936D01*
X13677039Y-15737936D02*
X13686563Y-15728412D01*
X13857991Y-15756984D02*
X13762753Y-15756984D01*
X13762753Y-15756984D02*
X13753229Y-15852222D01*
X13753229Y-15852222D02*
X13762753Y-15842698D01*
X13762753Y-15842698D02*
X13781801Y-15833174D01*
X13781801Y-15833174D02*
X13829420Y-15833174D01*
X13829420Y-15833174D02*
X13848468Y-15842698D01*
X13848468Y-15842698D02*
X13857991Y-15852222D01*
X13857991Y-15852222D02*
X13867515Y-15871269D01*
X13867515Y-15871269D02*
X13867515Y-15918888D01*
X13867515Y-15918888D02*
X13857991Y-15937936D01*
X13857991Y-15937936D02*
X13848468Y-15947460D01*
X13848468Y-15947460D02*
X13829420Y-15956984D01*
X13829420Y-15956984D02*
X13781801Y-15956984D01*
X13781801Y-15956984D02*
X13762753Y-15947460D01*
X13762753Y-15947460D02*
X13753229Y-15937936D01*
X13943706Y-15776031D02*
X13953229Y-15766508D01*
X13953229Y-15766508D02*
X13972277Y-15756984D01*
X13972277Y-15756984D02*
X14019896Y-15756984D01*
X14019896Y-15756984D02*
X14038944Y-15766508D01*
X14038944Y-15766508D02*
X14048468Y-15776031D01*
X14048468Y-15776031D02*
X14057991Y-15795079D01*
X14057991Y-15795079D02*
X14057991Y-15814127D01*
X14057991Y-15814127D02*
X14048468Y-15842698D01*
X14048468Y-15842698D02*
X13934182Y-15956984D01*
X13934182Y-15956984D02*
X14057991Y-15956984D01*
X14296087Y-15956984D02*
X14296087Y-15756984D01*
X14381801Y-15956984D02*
X14381801Y-15852222D01*
X14381801Y-15852222D02*
X14372277Y-15833174D01*
X14372277Y-15833174D02*
X14353230Y-15823650D01*
X14353230Y-15823650D02*
X14324658Y-15823650D01*
X14324658Y-15823650D02*
X14305610Y-15833174D01*
X14305610Y-15833174D02*
X14296087Y-15842698D01*
X14505610Y-15956984D02*
X14486563Y-15947460D01*
X14486563Y-15947460D02*
X14477039Y-15937936D01*
X14477039Y-15937936D02*
X14467515Y-15918888D01*
X14467515Y-15918888D02*
X14467515Y-15861746D01*
X14467515Y-15861746D02*
X14477039Y-15842698D01*
X14477039Y-15842698D02*
X14486563Y-15833174D01*
X14486563Y-15833174D02*
X14505610Y-15823650D01*
X14505610Y-15823650D02*
X14534182Y-15823650D01*
X14534182Y-15823650D02*
X14553230Y-15833174D01*
X14553230Y-15833174D02*
X14562753Y-15842698D01*
X14562753Y-15842698D02*
X14572277Y-15861746D01*
X14572277Y-15861746D02*
X14572277Y-15918888D01*
X14572277Y-15918888D02*
X14562753Y-15937936D01*
X14562753Y-15937936D02*
X14553230Y-15947460D01*
X14553230Y-15947460D02*
X14534182Y-15956984D01*
X14534182Y-15956984D02*
X14505610Y-15956984D01*
X14686563Y-15956984D02*
X14667515Y-15947460D01*
X14667515Y-15947460D02*
X14657991Y-15928412D01*
X14657991Y-15928412D02*
X14657991Y-15756984D01*
X14838944Y-15947460D02*
X14819896Y-15956984D01*
X14819896Y-15956984D02*
X14781801Y-15956984D01*
X14781801Y-15956984D02*
X14762753Y-15947460D01*
X14762753Y-15947460D02*
X14753230Y-15928412D01*
X14753230Y-15928412D02*
X14753230Y-15852222D01*
X14753230Y-15852222D02*
X14762753Y-15833174D01*
X14762753Y-15833174D02*
X14781801Y-15823650D01*
X14781801Y-15823650D02*
X14819896Y-15823650D01*
X14819896Y-15823650D02*
X14838944Y-15833174D01*
X14838944Y-15833174D02*
X14848468Y-15852222D01*
X14848468Y-15852222D02*
X14848468Y-15871269D01*
X14848468Y-15871269D02*
X14753230Y-15890317D01*
X14924658Y-15947460D02*
X14943706Y-15956984D01*
X14943706Y-15956984D02*
X14981801Y-15956984D01*
X14981801Y-15956984D02*
X15000849Y-15947460D01*
X15000849Y-15947460D02*
X15010372Y-15928412D01*
X15010372Y-15928412D02*
X15010372Y-15918888D01*
X15010372Y-15918888D02*
X15000849Y-15899841D01*
X15000849Y-15899841D02*
X14981801Y-15890317D01*
X14981801Y-15890317D02*
X14953230Y-15890317D01*
X14953230Y-15890317D02*
X14934182Y-15880793D01*
X14934182Y-15880793D02*
X14924658Y-15861746D01*
X14924658Y-15861746D02*
X14924658Y-15852222D01*
X14924658Y-15852222D02*
X14934182Y-15833174D01*
X14934182Y-15833174D02*
X14953230Y-15823650D01*
X14953230Y-15823650D02*
X14981801Y-15823650D01*
X14981801Y-15823650D02*
X15000849Y-15833174D01*
X15077039Y-16033174D02*
X15086563Y-16023650D01*
X15086563Y-16023650D02*
X15105611Y-15995079D01*
X15105611Y-15995079D02*
X15115134Y-15976031D01*
X15115134Y-15976031D02*
X15124658Y-15947460D01*
X15124658Y-15947460D02*
X15134182Y-15899841D01*
X15134182Y-15899841D02*
X15134182Y-15861746D01*
X15134182Y-15861746D02*
X15124658Y-15814127D01*
X15124658Y-15814127D02*
X15115134Y-15785555D01*
X15115134Y-15785555D02*
X15105611Y-15766508D01*
X15105611Y-15766508D02*
X15086563Y-15737936D01*
X15086563Y-15737936D02*
X15077039Y-15728412D01*
X9911500Y-16029500D02*
X10111500Y-16229500D01*
X10111500Y-16029500D02*
X9911500Y-16229500D01*
X10011500Y-16029500D02*
X10011500Y-16229500D01*
X9911500Y-16129500D02*
X10111500Y-16129500D01*
X10362753Y-16040031D02*
X10372277Y-16030508D01*
X10372277Y-16030508D02*
X10391324Y-16020984D01*
X10391324Y-16020984D02*
X10438944Y-16020984D01*
X10438944Y-16020984D02*
X10457991Y-16030508D01*
X10457991Y-16030508D02*
X10467515Y-16040031D01*
X10467515Y-16040031D02*
X10477039Y-16059079D01*
X10477039Y-16059079D02*
X10477039Y-16078127D01*
X10477039Y-16078127D02*
X10467515Y-16106698D01*
X10467515Y-16106698D02*
X10353229Y-16220984D01*
X10353229Y-16220984D02*
X10477039Y-16220984D01*
X10562753Y-16201936D02*
X10572277Y-16211460D01*
X10572277Y-16211460D02*
X10562753Y-16220984D01*
X10562753Y-16220984D02*
X10553229Y-16211460D01*
X10553229Y-16211460D02*
X10562753Y-16201936D01*
X10562753Y-16201936D02*
X10562753Y-16220984D01*
X10753229Y-16020984D02*
X10657991Y-16020984D01*
X10657991Y-16020984D02*
X10648467Y-16116222D01*
X10648467Y-16116222D02*
X10657991Y-16106698D01*
X10657991Y-16106698D02*
X10677039Y-16097174D01*
X10677039Y-16097174D02*
X10724658Y-16097174D01*
X10724658Y-16097174D02*
X10743705Y-16106698D01*
X10743705Y-16106698D02*
X10753229Y-16116222D01*
X10753229Y-16116222D02*
X10762753Y-16135269D01*
X10762753Y-16135269D02*
X10762753Y-16182888D01*
X10762753Y-16182888D02*
X10753229Y-16201936D01*
X10753229Y-16201936D02*
X10743705Y-16211460D01*
X10743705Y-16211460D02*
X10724658Y-16220984D01*
X10724658Y-16220984D02*
X10677039Y-16220984D01*
X10677039Y-16220984D02*
X10657991Y-16211460D01*
X10657991Y-16211460D02*
X10648467Y-16201936D01*
X10886563Y-16020984D02*
X10905610Y-16020984D01*
X10905610Y-16020984D02*
X10924658Y-16030508D01*
X10924658Y-16030508D02*
X10934182Y-16040031D01*
X10934182Y-16040031D02*
X10943705Y-16059079D01*
X10943705Y-16059079D02*
X10953229Y-16097174D01*
X10953229Y-16097174D02*
X10953229Y-16144793D01*
X10953229Y-16144793D02*
X10943705Y-16182888D01*
X10943705Y-16182888D02*
X10934182Y-16201936D01*
X10934182Y-16201936D02*
X10924658Y-16211460D01*
X10924658Y-16211460D02*
X10905610Y-16220984D01*
X10905610Y-16220984D02*
X10886563Y-16220984D01*
X10886563Y-16220984D02*
X10867515Y-16211460D01*
X10867515Y-16211460D02*
X10857991Y-16201936D01*
X10857991Y-16201936D02*
X10848467Y-16182888D01*
X10848467Y-16182888D02*
X10838944Y-16144793D01*
X10838944Y-16144793D02*
X10838944Y-16097174D01*
X10838944Y-16097174D02*
X10848467Y-16059079D01*
X10848467Y-16059079D02*
X10857991Y-16040031D01*
X10857991Y-16040031D02*
X10867515Y-16030508D01*
X10867515Y-16030508D02*
X10886563Y-16020984D01*
X11077039Y-16020984D02*
X11096086Y-16020984D01*
X11096086Y-16020984D02*
X11115134Y-16030508D01*
X11115134Y-16030508D02*
X11124658Y-16040031D01*
X11124658Y-16040031D02*
X11134182Y-16059079D01*
X11134182Y-16059079D02*
X11143705Y-16097174D01*
X11143705Y-16097174D02*
X11143705Y-16144793D01*
X11143705Y-16144793D02*
X11134182Y-16182888D01*
X11134182Y-16182888D02*
X11124658Y-16201936D01*
X11124658Y-16201936D02*
X11115134Y-16211460D01*
X11115134Y-16211460D02*
X11096086Y-16220984D01*
X11096086Y-16220984D02*
X11077039Y-16220984D01*
X11077039Y-16220984D02*
X11057991Y-16211460D01*
X11057991Y-16211460D02*
X11048467Y-16201936D01*
X11048467Y-16201936D02*
X11038944Y-16182888D01*
X11038944Y-16182888D02*
X11029420Y-16144793D01*
X11029420Y-16144793D02*
X11029420Y-16097174D01*
X11029420Y-16097174D02*
X11038944Y-16059079D01*
X11038944Y-16059079D02*
X11048467Y-16040031D01*
X11048467Y-16040031D02*
X11057991Y-16030508D01*
X11057991Y-16030508D02*
X11077039Y-16020984D01*
X11229420Y-16220984D02*
X11229420Y-16087650D01*
X11229420Y-16106698D02*
X11238943Y-16097174D01*
X11238943Y-16097174D02*
X11257991Y-16087650D01*
X11257991Y-16087650D02*
X11286563Y-16087650D01*
X11286563Y-16087650D02*
X11305610Y-16097174D01*
X11305610Y-16097174D02*
X11315134Y-16116222D01*
X11315134Y-16116222D02*
X11315134Y-16220984D01*
X11315134Y-16116222D02*
X11324658Y-16097174D01*
X11324658Y-16097174D02*
X11343705Y-16087650D01*
X11343705Y-16087650D02*
X11372277Y-16087650D01*
X11372277Y-16087650D02*
X11391324Y-16097174D01*
X11391324Y-16097174D02*
X11400848Y-16116222D01*
X11400848Y-16116222D02*
X11400848Y-16220984D01*
X11496086Y-16220984D02*
X11496086Y-16087650D01*
X11496086Y-16106698D02*
X11505610Y-16097174D01*
X11505610Y-16097174D02*
X11524658Y-16087650D01*
X11524658Y-16087650D02*
X11553229Y-16087650D01*
X11553229Y-16087650D02*
X11572277Y-16097174D01*
X11572277Y-16097174D02*
X11581801Y-16116222D01*
X11581801Y-16116222D02*
X11581801Y-16220984D01*
X11581801Y-16116222D02*
X11591324Y-16097174D01*
X11591324Y-16097174D02*
X11610372Y-16087650D01*
X11610372Y-16087650D02*
X11638943Y-16087650D01*
X11638943Y-16087650D02*
X11657991Y-16097174D01*
X11657991Y-16097174D02*
X11667515Y-16116222D01*
X11667515Y-16116222D02*
X11667515Y-16220984D01*
X12057991Y-16011460D02*
X11886563Y-16268603D01*
X12315134Y-16020984D02*
X12334182Y-16020984D01*
X12334182Y-16020984D02*
X12353229Y-16030508D01*
X12353229Y-16030508D02*
X12362753Y-16040031D01*
X12362753Y-16040031D02*
X12372277Y-16059079D01*
X12372277Y-16059079D02*
X12381801Y-16097174D01*
X12381801Y-16097174D02*
X12381801Y-16144793D01*
X12381801Y-16144793D02*
X12372277Y-16182888D01*
X12372277Y-16182888D02*
X12362753Y-16201936D01*
X12362753Y-16201936D02*
X12353229Y-16211460D01*
X12353229Y-16211460D02*
X12334182Y-16220984D01*
X12334182Y-16220984D02*
X12315134Y-16220984D01*
X12315134Y-16220984D02*
X12296086Y-16211460D01*
X12296086Y-16211460D02*
X12286563Y-16201936D01*
X12286563Y-16201936D02*
X12277039Y-16182888D01*
X12277039Y-16182888D02*
X12267515Y-16144793D01*
X12267515Y-16144793D02*
X12267515Y-16097174D01*
X12267515Y-16097174D02*
X12277039Y-16059079D01*
X12277039Y-16059079D02*
X12286563Y-16040031D01*
X12286563Y-16040031D02*
X12296086Y-16030508D01*
X12296086Y-16030508D02*
X12315134Y-16020984D01*
X12467515Y-16201936D02*
X12477039Y-16211460D01*
X12477039Y-16211460D02*
X12467515Y-16220984D01*
X12467515Y-16220984D02*
X12457991Y-16211460D01*
X12457991Y-16211460D02*
X12467515Y-16201936D01*
X12467515Y-16201936D02*
X12467515Y-16220984D01*
X12600848Y-16020984D02*
X12619896Y-16020984D01*
X12619896Y-16020984D02*
X12638944Y-16030508D01*
X12638944Y-16030508D02*
X12648467Y-16040031D01*
X12648467Y-16040031D02*
X12657991Y-16059079D01*
X12657991Y-16059079D02*
X12667515Y-16097174D01*
X12667515Y-16097174D02*
X12667515Y-16144793D01*
X12667515Y-16144793D02*
X12657991Y-16182888D01*
X12657991Y-16182888D02*
X12648467Y-16201936D01*
X12648467Y-16201936D02*
X12638944Y-16211460D01*
X12638944Y-16211460D02*
X12619896Y-16220984D01*
X12619896Y-16220984D02*
X12600848Y-16220984D01*
X12600848Y-16220984D02*
X12581801Y-16211460D01*
X12581801Y-16211460D02*
X12572277Y-16201936D01*
X12572277Y-16201936D02*
X12562753Y-16182888D01*
X12562753Y-16182888D02*
X12553229Y-16144793D01*
X12553229Y-16144793D02*
X12553229Y-16097174D01*
X12553229Y-16097174D02*
X12562753Y-16059079D01*
X12562753Y-16059079D02*
X12572277Y-16040031D01*
X12572277Y-16040031D02*
X12581801Y-16030508D01*
X12581801Y-16030508D02*
X12600848Y-16020984D01*
X12762753Y-16220984D02*
X12800848Y-16220984D01*
X12800848Y-16220984D02*
X12819896Y-16211460D01*
X12819896Y-16211460D02*
X12829420Y-16201936D01*
X12829420Y-16201936D02*
X12848467Y-16173365D01*
X12848467Y-16173365D02*
X12857991Y-16135269D01*
X12857991Y-16135269D02*
X12857991Y-16059079D01*
X12857991Y-16059079D02*
X12848467Y-16040031D01*
X12848467Y-16040031D02*
X12838944Y-16030508D01*
X12838944Y-16030508D02*
X12819896Y-16020984D01*
X12819896Y-16020984D02*
X12781801Y-16020984D01*
X12781801Y-16020984D02*
X12762753Y-16030508D01*
X12762753Y-16030508D02*
X12753229Y-16040031D01*
X12753229Y-16040031D02*
X12743706Y-16059079D01*
X12743706Y-16059079D02*
X12743706Y-16106698D01*
X12743706Y-16106698D02*
X12753229Y-16125746D01*
X12753229Y-16125746D02*
X12762753Y-16135269D01*
X12762753Y-16135269D02*
X12781801Y-16144793D01*
X12781801Y-16144793D02*
X12819896Y-16144793D01*
X12819896Y-16144793D02*
X12838944Y-16135269D01*
X12838944Y-16135269D02*
X12848467Y-16125746D01*
X12848467Y-16125746D02*
X12857991Y-16106698D01*
X12972277Y-16106698D02*
X12953229Y-16097174D01*
X12953229Y-16097174D02*
X12943706Y-16087650D01*
X12943706Y-16087650D02*
X12934182Y-16068603D01*
X12934182Y-16068603D02*
X12934182Y-16059079D01*
X12934182Y-16059079D02*
X12943706Y-16040031D01*
X12943706Y-16040031D02*
X12953229Y-16030508D01*
X12953229Y-16030508D02*
X12972277Y-16020984D01*
X12972277Y-16020984D02*
X13010372Y-16020984D01*
X13010372Y-16020984D02*
X13029420Y-16030508D01*
X13029420Y-16030508D02*
X13038944Y-16040031D01*
X13038944Y-16040031D02*
X13048467Y-16059079D01*
X13048467Y-16059079D02*
X13048467Y-16068603D01*
X13048467Y-16068603D02*
X13038944Y-16087650D01*
X13038944Y-16087650D02*
X13029420Y-16097174D01*
X13029420Y-16097174D02*
X13010372Y-16106698D01*
X13010372Y-16106698D02*
X12972277Y-16106698D01*
X12972277Y-16106698D02*
X12953229Y-16116222D01*
X12953229Y-16116222D02*
X12943706Y-16125746D01*
X12943706Y-16125746D02*
X12934182Y-16144793D01*
X12934182Y-16144793D02*
X12934182Y-16182888D01*
X12934182Y-16182888D02*
X12943706Y-16201936D01*
X12943706Y-16201936D02*
X12953229Y-16211460D01*
X12953229Y-16211460D02*
X12972277Y-16220984D01*
X12972277Y-16220984D02*
X13010372Y-16220984D01*
X13010372Y-16220984D02*
X13029420Y-16211460D01*
X13029420Y-16211460D02*
X13038944Y-16201936D01*
X13038944Y-16201936D02*
X13048467Y-16182888D01*
X13048467Y-16182888D02*
X13048467Y-16144793D01*
X13048467Y-16144793D02*
X13038944Y-16125746D01*
X13038944Y-16125746D02*
X13029420Y-16116222D01*
X13029420Y-16116222D02*
X13010372Y-16106698D01*
X13219896Y-16087650D02*
X13219896Y-16220984D01*
X13172277Y-16011460D02*
X13124658Y-16154317D01*
X13124658Y-16154317D02*
X13248467Y-16154317D01*
X13315134Y-16020984D02*
X13315134Y-16059079D01*
X13391325Y-16020984D02*
X13391325Y-16059079D01*
X13686563Y-16297174D02*
X13677039Y-16287650D01*
X13677039Y-16287650D02*
X13657991Y-16259079D01*
X13657991Y-16259079D02*
X13648468Y-16240031D01*
X13648468Y-16240031D02*
X13638944Y-16211460D01*
X13638944Y-16211460D02*
X13629420Y-16163841D01*
X13629420Y-16163841D02*
X13629420Y-16125746D01*
X13629420Y-16125746D02*
X13638944Y-16078127D01*
X13638944Y-16078127D02*
X13648468Y-16049555D01*
X13648468Y-16049555D02*
X13657991Y-16030508D01*
X13657991Y-16030508D02*
X13677039Y-16001936D01*
X13677039Y-16001936D02*
X13686563Y-15992412D01*
X13848468Y-16087650D02*
X13848468Y-16220984D01*
X13800848Y-16011460D02*
X13753229Y-16154317D01*
X13753229Y-16154317D02*
X13877039Y-16154317D01*
X14105610Y-16220984D02*
X14105610Y-16020984D01*
X14191325Y-16220984D02*
X14191325Y-16116222D01*
X14191325Y-16116222D02*
X14181801Y-16097174D01*
X14181801Y-16097174D02*
X14162753Y-16087650D01*
X14162753Y-16087650D02*
X14134182Y-16087650D01*
X14134182Y-16087650D02*
X14115134Y-16097174D01*
X14115134Y-16097174D02*
X14105610Y-16106698D01*
X14315134Y-16220984D02*
X14296087Y-16211460D01*
X14296087Y-16211460D02*
X14286563Y-16201936D01*
X14286563Y-16201936D02*
X14277039Y-16182888D01*
X14277039Y-16182888D02*
X14277039Y-16125746D01*
X14277039Y-16125746D02*
X14286563Y-16106698D01*
X14286563Y-16106698D02*
X14296087Y-16097174D01*
X14296087Y-16097174D02*
X14315134Y-16087650D01*
X14315134Y-16087650D02*
X14343706Y-16087650D01*
X14343706Y-16087650D02*
X14362753Y-16097174D01*
X14362753Y-16097174D02*
X14372277Y-16106698D01*
X14372277Y-16106698D02*
X14381801Y-16125746D01*
X14381801Y-16125746D02*
X14381801Y-16182888D01*
X14381801Y-16182888D02*
X14372277Y-16201936D01*
X14372277Y-16201936D02*
X14362753Y-16211460D01*
X14362753Y-16211460D02*
X14343706Y-16220984D01*
X14343706Y-16220984D02*
X14315134Y-16220984D01*
X14496087Y-16220984D02*
X14477039Y-16211460D01*
X14477039Y-16211460D02*
X14467515Y-16192412D01*
X14467515Y-16192412D02*
X14467515Y-16020984D01*
X14648468Y-16211460D02*
X14629420Y-16220984D01*
X14629420Y-16220984D02*
X14591325Y-16220984D01*
X14591325Y-16220984D02*
X14572277Y-16211460D01*
X14572277Y-16211460D02*
X14562753Y-16192412D01*
X14562753Y-16192412D02*
X14562753Y-16116222D01*
X14562753Y-16116222D02*
X14572277Y-16097174D01*
X14572277Y-16097174D02*
X14591325Y-16087650D01*
X14591325Y-16087650D02*
X14629420Y-16087650D01*
X14629420Y-16087650D02*
X14648468Y-16097174D01*
X14648468Y-16097174D02*
X14657991Y-16116222D01*
X14657991Y-16116222D02*
X14657991Y-16135269D01*
X14657991Y-16135269D02*
X14562753Y-16154317D01*
X14734182Y-16211460D02*
X14753230Y-16220984D01*
X14753230Y-16220984D02*
X14791325Y-16220984D01*
X14791325Y-16220984D02*
X14810372Y-16211460D01*
X14810372Y-16211460D02*
X14819896Y-16192412D01*
X14819896Y-16192412D02*
X14819896Y-16182888D01*
X14819896Y-16182888D02*
X14810372Y-16163841D01*
X14810372Y-16163841D02*
X14791325Y-16154317D01*
X14791325Y-16154317D02*
X14762753Y-16154317D01*
X14762753Y-16154317D02*
X14743706Y-16144793D01*
X14743706Y-16144793D02*
X14734182Y-16125746D01*
X14734182Y-16125746D02*
X14734182Y-16116222D01*
X14734182Y-16116222D02*
X14743706Y-16097174D01*
X14743706Y-16097174D02*
X14762753Y-16087650D01*
X14762753Y-16087650D02*
X14791325Y-16087650D01*
X14791325Y-16087650D02*
X14810372Y-16097174D01*
X14886563Y-16297174D02*
X14896087Y-16287650D01*
X14896087Y-16287650D02*
X14915134Y-16259079D01*
X14915134Y-16259079D02*
X14924658Y-16240031D01*
X14924658Y-16240031D02*
X14934182Y-16211460D01*
X14934182Y-16211460D02*
X14943706Y-16163841D01*
X14943706Y-16163841D02*
X14943706Y-16125746D01*
X14943706Y-16125746D02*
X14934182Y-16078127D01*
X14934182Y-16078127D02*
X14924658Y-16049555D01*
X14924658Y-16049555D02*
X14915134Y-16030508D01*
X14915134Y-16030508D02*
X14896087Y-16001936D01*
X14896087Y-16001936D02*
X14886563Y-15992412D01*
M02*
