M48
; DRILL file {KiCad 8.0.0} date 2024-08-31T22:07:20+0200
; FORMAT={-:-/ absolute / metric / decimal}
; #@! TF.CreationDate,2024-08-31T22:07:20+02:00
; #@! TF.GenerationSoftware,Kicad,Pcbnew,8.0.0
; #@! TF.FileFunction,Plated,1,2,PTH
FMAT,2
METRIC
; #@! TA.AperFunction,Plated,PTH,ViaDrill
T1C0.300
; #@! TA.AperFunction,Plated,PTH,ComponentDrill
T2C0.800
; #@! TA.AperFunction,Plated,PTH,ComponentDrill
T3C1.000
; #@! TA.AperFunction,Plated,PTH,ComponentDrill
T4C1.200
; #@! TA.AperFunction,Plated,PTH,ComponentDrill
T5C1.300
; #@! TA.AperFunction,Plated,PTH,ComponentDrill
T6C2.500
%
G90
G05
T1
X102.0Y-56.8
X102.0Y-77.0
X102.2Y-97.6
X110.6Y-98.0
X113.6Y-93.2
X114.9Y-57.8
X115.0Y-82.6
X115.6Y-68.6
X120.5Y-74.5
X124.84Y-88.9
X128.5Y-90.0
X136.5Y-74.3
X137.67Y-93.33
X140.9Y-83.2
X152.7Y-88.1
X153.7Y-60.2
X157.3Y-57.4
X167.2Y-65.2
X172.7Y-73.7
X172.7Y-79.9
X172.75Y-85.85
X177.8Y-80.6
X183.1Y-81.4
X189.0Y-81.5
X193.1Y-80.7
X193.25Y-97.85
X198.9Y-68.0
X199.6Y-57.3
X199.8Y-97.5
T2
X107.5Y-90.0
X107.597Y-82.25
X111.097Y-82.25
X112.5Y-90.0
X117.22Y-84.8
X117.22Y-92.42
X119.76Y-84.8
X119.76Y-92.42
X122.25Y-70.0
X122.3Y-84.8
X122.3Y-92.42
X124.84Y-84.8
X124.84Y-92.42
X127.25Y-70.0
X127.38Y-84.8
X127.38Y-92.42
X129.92Y-84.8
X129.92Y-92.42
X130.75Y-75.653
X130.75Y-79.153
X132.46Y-84.8
X132.46Y-92.42
X135.0Y-84.8
X135.0Y-92.42
X144.66Y-69.4
X145.36Y-84.8
X145.36Y-92.42
X147.2Y-69.4
X147.9Y-84.8
X147.9Y-92.42
X150.44Y-84.8
X150.44Y-92.42
X152.98Y-84.8
X152.98Y-92.42
X153.755Y-69.2
X155.52Y-84.8
X155.52Y-92.42
X156.295Y-69.2
X158.06Y-84.8
X158.06Y-92.42
X160.6Y-84.8
X160.6Y-92.42
X161.255Y-69.3
X163.14Y-84.8
X163.14Y-92.42
X163.795Y-69.3
X165.68Y-84.8
X165.68Y-92.42
X168.5Y-92.25
X173.5Y-92.25
X175.71Y-77.25
X175.71Y-84.87
X178.0Y-68.005
X178.0Y-70.545
X178.25Y-77.25
X178.25Y-84.87
X178.25Y-91.755
X178.25Y-94.295
X181.46Y-77.25
X181.46Y-84.87
X182.75Y-68.255
X182.75Y-70.795
X184.0Y-77.25
X184.0Y-84.87
X184.0Y-91.76
X184.0Y-94.3
X187.235Y-77.2
X187.235Y-84.82
X187.5Y-68.255
X187.5Y-70.795
X189.75Y-91.76
X189.75Y-94.3
X189.775Y-77.2
X189.775Y-84.82
X192.0Y-68.255
X192.0Y-70.795
X192.985Y-77.2
X192.985Y-84.82
X195.5Y-91.76
X195.5Y-94.3
X195.525Y-77.2
X195.525Y-84.82
T3
X117.803Y-79.207
X120.343Y-79.207
X122.883Y-79.207
X130.925Y-69.415
X133.465Y-69.415
X136.005Y-69.415
X138.545Y-69.415
X141.085Y-69.415
T4
X143.395Y-75.5
X143.995Y-79.8
X147.205Y-75.5
X147.805Y-79.8
X152.595Y-75.6
X153.195Y-80.0
X156.405Y-75.6
X157.005Y-80.0
X160.595Y-73.4
X161.095Y-77.8
X164.405Y-73.4
X164.905Y-77.8
T5
X108.675Y-61.16
X108.675Y-133.58
X112.4Y-105.25
X112.4Y-117.45
X113.675Y-61.16
X113.675Y-133.58
X118.4Y-103.25
X118.675Y-61.16
X118.675Y-133.58
X123.675Y-61.16
X123.675Y-133.58
X124.4Y-105.25
X124.4Y-117.45
X128.675Y-61.16
X128.675Y-133.58
X131.3Y-105.25
X131.3Y-117.45
X133.675Y-61.16
X133.675Y-133.58
X137.3Y-103.25
X138.675Y-61.16
X138.675Y-133.58
X143.3Y-105.25
X143.3Y-117.45
X143.675Y-61.16
X143.675Y-133.58
X158.675Y-61.16
X158.675Y-133.58
X158.8Y-105.25
X158.8Y-117.45
X163.675Y-61.16
X163.675Y-133.58
X164.8Y-103.25
X168.675Y-61.16
X168.675Y-133.58
X170.8Y-105.25
X170.8Y-117.45
X173.675Y-61.16
X173.675Y-133.58
X177.85Y-105.25
X177.85Y-117.45
X178.675Y-61.16
X178.675Y-133.58
X183.675Y-61.16
X183.675Y-133.58
X183.85Y-103.25
X188.675Y-61.16
X188.675Y-133.58
X189.85Y-105.25
X189.85Y-117.45
X193.675Y-61.16
X193.675Y-133.58
T6
X105.05Y-71.9
X105.05Y-122.8
X197.3Y-71.9
X197.3Y-122.8
M30
