%TF.GenerationSoftware,KiCad,Pcbnew,8.0.0*%
%TF.CreationDate,2024-08-31T22:07:21+02:00*%
%TF.ProjectId,esp32_blinds_controller,65737033-325f-4626-9c69-6e64735f636f,V0.2*%
%TF.SameCoordinates,Original*%
%TF.FileFunction,Drillmap*%
%TF.FilePolarity,Positive*%
%FSLAX45Y45*%
G04 Gerber Fmt 4.5, Leading zero omitted, Abs format (unit mm)*
G04 Created by KiCad (PCBNEW 8.0.0) date 2024-08-31 22:07:21*
%MOMM*%
%LPD*%
G01*
G04 APERTURE LIST*
%ADD10C,0.050000*%
%ADD11C,0.120000*%
%ADD12C,0.200000*%
G04 APERTURE END LIST*
D10*
X13990000Y-9990000D02*
G75*
G02*
X14110000Y-10110000I0J-120000D01*
G01*
X16740000Y-9980000D02*
G75*
G02*
X16860000Y-10100000I0J-120000D01*
G01*
X16860000Y-10650000D02*
G75*
G02*
X16760000Y-10650000I-50000J0D01*
G01*
X18770000Y-10630000D02*
X18770000Y-10080000D01*
X16110000Y-10650000D02*
X16110000Y-10100000D01*
X13460000Y-10660000D02*
X13460000Y-10110000D01*
X12220000Y-10660000D02*
G75*
G02*
X12120000Y-10660000I-50000J0D01*
G01*
X12220000Y-10660000D02*
X12220000Y-10110000D01*
X13480000Y-9990000D02*
X13990000Y-9990000D01*
X16230000Y-10080000D02*
X16740000Y-10080000D01*
X14110000Y-10660000D02*
X14110000Y-10110000D01*
X18120000Y-10630000D02*
G75*
G02*
X18020000Y-10630000I-50000J0D01*
G01*
X12100000Y-9990000D02*
G75*
G02*
X12220000Y-10110000I0J-120000D01*
G01*
X18140000Y-10060000D02*
X18650000Y-10060000D01*
X16210000Y-10100000D02*
G75*
G02*
X16230000Y-10080000I20000J0D01*
G01*
X13360000Y-10110000D02*
G75*
G02*
X13480000Y-9990000I120000J0D01*
G01*
X12120000Y-10660000D02*
X12120000Y-10110000D01*
X18770000Y-10630000D02*
G75*
G02*
X18670000Y-10630000I-50000J0D01*
G01*
X11590000Y-10090000D02*
X12100000Y-10090000D01*
X11570000Y-10660000D02*
X11570000Y-10110000D01*
X16740000Y-10080000D02*
G75*
G02*
X16760000Y-10100000I0J-20000D01*
G01*
X14110000Y-10660000D02*
G75*
G02*
X14010000Y-10660000I-50000J0D01*
G01*
X18670000Y-10630000D02*
X18670000Y-10080000D01*
X18020000Y-10080000D02*
G75*
G02*
X18140000Y-9960000I120000J0D01*
G01*
X13480000Y-10090000D02*
X13990000Y-10090000D01*
X18120000Y-10080000D02*
G75*
G02*
X18140000Y-10060000I20000J0D01*
G01*
X18650000Y-10060000D02*
G75*
G02*
X18670000Y-10080000I0J-20000D01*
G01*
X16210000Y-10650000D02*
G75*
G02*
X16110000Y-10650000I-50000J0D01*
G01*
X13990000Y-10090000D02*
G75*
G02*
X14010000Y-10110000I0J-20000D01*
G01*
X11570000Y-10660000D02*
G75*
G02*
X11470000Y-10660000I-50000J0D01*
G01*
X18650000Y-9960000D02*
G75*
G02*
X18770000Y-10080000I0J-120000D01*
G01*
X18020000Y-10630000D02*
X18020000Y-10080000D01*
X16210000Y-10650000D02*
X16210000Y-10100000D01*
X13460000Y-10110000D02*
G75*
G02*
X13480000Y-10090000I20000J0D01*
G01*
X11590000Y-9990000D02*
X12100000Y-9990000D01*
X12100000Y-10090000D02*
G75*
G02*
X12120000Y-10110000I0J-20000D01*
G01*
X14010000Y-10660000D02*
X14010000Y-10110000D01*
X18120000Y-10630000D02*
X18120000Y-10080000D01*
X11470000Y-10660000D02*
X11470000Y-10110000D01*
X16860000Y-10650000D02*
X16860000Y-10100000D01*
X16230000Y-9980000D02*
X16740000Y-9980000D01*
X16760000Y-10650000D02*
X16760000Y-10100000D01*
X16110000Y-10100000D02*
G75*
G02*
X16230000Y-9980000I120000J0D01*
G01*
X13460000Y-10660000D02*
G75*
G02*
X13360000Y-10660000I-50000J0D01*
G01*
X18140000Y-9960000D02*
X18650000Y-9960000D01*
X11570000Y-10110000D02*
G75*
G02*
X11590000Y-10090000I20000J0D01*
G01*
X11470000Y-10110000D02*
G75*
G02*
X11590000Y-9990000I120000J0D01*
G01*
X13360000Y-10660000D02*
X13360000Y-10110000D01*
D11*
X10117500Y-5574500D02*
X10117500Y-13899500D01*
X10117500Y-13899500D02*
X20117500Y-13899500D01*
X20117500Y-5574500D02*
X10117500Y-5574500D01*
X20117500Y-13899500D02*
X20117500Y-5574500D01*
D12*
X10372277Y-14216984D02*
X10372277Y-14016984D01*
X10372277Y-14016984D02*
X10419896Y-14016984D01*
X10419896Y-14016984D02*
X10448467Y-14026508D01*
X10448467Y-14026508D02*
X10467515Y-14045555D01*
X10467515Y-14045555D02*
X10477039Y-14064603D01*
X10477039Y-14064603D02*
X10486563Y-14102698D01*
X10486563Y-14102698D02*
X10486563Y-14131269D01*
X10486563Y-14131269D02*
X10477039Y-14169365D01*
X10477039Y-14169365D02*
X10467515Y-14188412D01*
X10467515Y-14188412D02*
X10448467Y-14207460D01*
X10448467Y-14207460D02*
X10419896Y-14216984D01*
X10419896Y-14216984D02*
X10372277Y-14216984D01*
X10572277Y-14216984D02*
X10572277Y-14083650D01*
X10572277Y-14121746D02*
X10581801Y-14102698D01*
X10581801Y-14102698D02*
X10591324Y-14093174D01*
X10591324Y-14093174D02*
X10610372Y-14083650D01*
X10610372Y-14083650D02*
X10629420Y-14083650D01*
X10696086Y-14216984D02*
X10696086Y-14083650D01*
X10696086Y-14016984D02*
X10686563Y-14026508D01*
X10686563Y-14026508D02*
X10696086Y-14036031D01*
X10696086Y-14036031D02*
X10705610Y-14026508D01*
X10705610Y-14026508D02*
X10696086Y-14016984D01*
X10696086Y-14016984D02*
X10696086Y-14036031D01*
X10819896Y-14216984D02*
X10800848Y-14207460D01*
X10800848Y-14207460D02*
X10791324Y-14188412D01*
X10791324Y-14188412D02*
X10791324Y-14016984D01*
X10924658Y-14216984D02*
X10905610Y-14207460D01*
X10905610Y-14207460D02*
X10896086Y-14188412D01*
X10896086Y-14188412D02*
X10896086Y-14016984D01*
X11153229Y-14216984D02*
X11153229Y-14016984D01*
X11153229Y-14016984D02*
X11219896Y-14159841D01*
X11219896Y-14159841D02*
X11286562Y-14016984D01*
X11286562Y-14016984D02*
X11286562Y-14216984D01*
X11467515Y-14216984D02*
X11467515Y-14112222D01*
X11467515Y-14112222D02*
X11457991Y-14093174D01*
X11457991Y-14093174D02*
X11438943Y-14083650D01*
X11438943Y-14083650D02*
X11400848Y-14083650D01*
X11400848Y-14083650D02*
X11381801Y-14093174D01*
X11467515Y-14207460D02*
X11448467Y-14216984D01*
X11448467Y-14216984D02*
X11400848Y-14216984D01*
X11400848Y-14216984D02*
X11381801Y-14207460D01*
X11381801Y-14207460D02*
X11372277Y-14188412D01*
X11372277Y-14188412D02*
X11372277Y-14169365D01*
X11372277Y-14169365D02*
X11381801Y-14150317D01*
X11381801Y-14150317D02*
X11400848Y-14140793D01*
X11400848Y-14140793D02*
X11448467Y-14140793D01*
X11448467Y-14140793D02*
X11467515Y-14131269D01*
X11562753Y-14083650D02*
X11562753Y-14283650D01*
X11562753Y-14093174D02*
X11581801Y-14083650D01*
X11581801Y-14083650D02*
X11619896Y-14083650D01*
X11619896Y-14083650D02*
X11638943Y-14093174D01*
X11638943Y-14093174D02*
X11648467Y-14102698D01*
X11648467Y-14102698D02*
X11657991Y-14121746D01*
X11657991Y-14121746D02*
X11657991Y-14178888D01*
X11657991Y-14178888D02*
X11648467Y-14197936D01*
X11648467Y-14197936D02*
X11638943Y-14207460D01*
X11638943Y-14207460D02*
X11619896Y-14216984D01*
X11619896Y-14216984D02*
X11581801Y-14216984D01*
X11581801Y-14216984D02*
X11562753Y-14207460D01*
X11743705Y-14197936D02*
X11753229Y-14207460D01*
X11753229Y-14207460D02*
X11743705Y-14216984D01*
X11743705Y-14216984D02*
X11734182Y-14207460D01*
X11734182Y-14207460D02*
X11743705Y-14197936D01*
X11743705Y-14197936D02*
X11743705Y-14216984D01*
X11743705Y-14093174D02*
X11753229Y-14102698D01*
X11753229Y-14102698D02*
X11743705Y-14112222D01*
X11743705Y-14112222D02*
X11734182Y-14102698D01*
X11734182Y-14102698D02*
X11743705Y-14093174D01*
X11743705Y-14093174D02*
X11743705Y-14112222D01*
M02*
