%TF.GenerationSoftware,KiCad,Pcbnew,8.0.5*%
%TF.CreationDate,2025-03-13T21:04:31+01:00*%
%TF.ProjectId,esp32_blinds_controller,65737033-325f-4626-9c69-6e64735f636f,V0.2*%
%TF.SameCoordinates,Original*%
%TF.FileFunction,Legend,Bot*%
%TF.FilePolarity,Positive*%
%FSLAX46Y46*%
G04 Gerber Fmt 4.6, Leading zero omitted, Abs format (unit mm)*
G04 Created by KiCad (PCBNEW 8.0.5) date 2025-03-13 21:04:31*
%MOMM*%
%LPD*%
G01*
G04 APERTURE LIST*
%ADD10C,0.150000*%
%ADD11C,0.120000*%
%TA.AperFunction,Profile*%
%ADD12C,0.050000*%
%TD*%
%TA.AperFunction,Profile*%
%ADD13C,0.120000*%
%TD*%
G04 APERTURE END LIST*
D10*
X171119104Y-76035714D02*
X171119104Y-76511904D01*
X171404819Y-75940476D02*
X170404819Y-76273809D01*
X170404819Y-76273809D02*
X171404819Y-76607142D01*
X171404819Y-77464285D02*
X171404819Y-76892857D01*
X171404819Y-77178571D02*
X170404819Y-77178571D01*
X170404819Y-77178571D02*
X170547676Y-77083333D01*
X170547676Y-77083333D02*
X170642914Y-76988095D01*
X170642914Y-76988095D02*
X170690533Y-76892857D01*
X173204819Y-74435714D02*
X173204819Y-73864286D01*
X173204819Y-74150000D02*
X172204819Y-74150000D01*
X172204819Y-74150000D02*
X172347676Y-74054762D01*
X172347676Y-74054762D02*
X172442914Y-73959524D01*
X172442914Y-73959524D02*
X172490533Y-73864286D01*
X172204819Y-79016667D02*
X172204819Y-79635714D01*
X172204819Y-79635714D02*
X172585771Y-79302381D01*
X172585771Y-79302381D02*
X172585771Y-79445238D01*
X172585771Y-79445238D02*
X172633390Y-79540476D01*
X172633390Y-79540476D02*
X172681009Y-79588095D01*
X172681009Y-79588095D02*
X172776247Y-79635714D01*
X172776247Y-79635714D02*
X173014342Y-79635714D01*
X173014342Y-79635714D02*
X173109580Y-79588095D01*
X173109580Y-79588095D02*
X173157200Y-79540476D01*
X173157200Y-79540476D02*
X173204819Y-79445238D01*
X173204819Y-79445238D02*
X173204819Y-79159524D01*
X173204819Y-79159524D02*
X173157200Y-79064286D01*
X173157200Y-79064286D02*
X173109580Y-79016667D01*
X128088094Y-103454819D02*
X128088094Y-102454819D01*
X128088094Y-102454819D02*
X127849999Y-102454819D01*
X127849999Y-102454819D02*
X127707142Y-102502438D01*
X127707142Y-102502438D02*
X127611904Y-102597676D01*
X127611904Y-102597676D02*
X127564285Y-102692914D01*
X127564285Y-102692914D02*
X127516666Y-102883390D01*
X127516666Y-102883390D02*
X127516666Y-103026247D01*
X127516666Y-103026247D02*
X127564285Y-103216723D01*
X127564285Y-103216723D02*
X127611904Y-103311961D01*
X127611904Y-103311961D02*
X127707142Y-103407200D01*
X127707142Y-103407200D02*
X127849999Y-103454819D01*
X127849999Y-103454819D02*
X128088094Y-103454819D01*
X126564285Y-103454819D02*
X127135713Y-103454819D01*
X126849999Y-103454819D02*
X126849999Y-102454819D01*
X126849999Y-102454819D02*
X126945237Y-102597676D01*
X126945237Y-102597676D02*
X127040475Y-102692914D01*
X127040475Y-102692914D02*
X127135713Y-102740533D01*
X193443094Y-102954819D02*
X193443094Y-101954819D01*
X193443094Y-101954819D02*
X193204999Y-101954819D01*
X193204999Y-101954819D02*
X193062142Y-102002438D01*
X193062142Y-102002438D02*
X192966904Y-102097676D01*
X192966904Y-102097676D02*
X192919285Y-102192914D01*
X192919285Y-102192914D02*
X192871666Y-102383390D01*
X192871666Y-102383390D02*
X192871666Y-102526247D01*
X192871666Y-102526247D02*
X192919285Y-102716723D01*
X192919285Y-102716723D02*
X192966904Y-102811961D01*
X192966904Y-102811961D02*
X193062142Y-102907200D01*
X193062142Y-102907200D02*
X193204999Y-102954819D01*
X193204999Y-102954819D02*
X193443094Y-102954819D01*
X192538332Y-101954819D02*
X191919285Y-101954819D01*
X191919285Y-101954819D02*
X192252618Y-102335771D01*
X192252618Y-102335771D02*
X192109761Y-102335771D01*
X192109761Y-102335771D02*
X192014523Y-102383390D01*
X192014523Y-102383390D02*
X191966904Y-102431009D01*
X191966904Y-102431009D02*
X191919285Y-102526247D01*
X191919285Y-102526247D02*
X191919285Y-102764342D01*
X191919285Y-102764342D02*
X191966904Y-102859580D01*
X191966904Y-102859580D02*
X192014523Y-102907200D01*
X192014523Y-102907200D02*
X192109761Y-102954819D01*
X192109761Y-102954819D02*
X192395475Y-102954819D01*
X192395475Y-102954819D02*
X192490713Y-102907200D01*
X192490713Y-102907200D02*
X192538332Y-102859580D01*
X146988094Y-102704819D02*
X146988094Y-101704819D01*
X146988094Y-101704819D02*
X146749999Y-101704819D01*
X146749999Y-101704819D02*
X146607142Y-101752438D01*
X146607142Y-101752438D02*
X146511904Y-101847676D01*
X146511904Y-101847676D02*
X146464285Y-101942914D01*
X146464285Y-101942914D02*
X146416666Y-102133390D01*
X146416666Y-102133390D02*
X146416666Y-102276247D01*
X146416666Y-102276247D02*
X146464285Y-102466723D01*
X146464285Y-102466723D02*
X146511904Y-102561961D01*
X146511904Y-102561961D02*
X146607142Y-102657200D01*
X146607142Y-102657200D02*
X146749999Y-102704819D01*
X146749999Y-102704819D02*
X146988094Y-102704819D01*
X145559523Y-102038152D02*
X145559523Y-102704819D01*
X145797618Y-101657200D02*
X146035713Y-102371485D01*
X146035713Y-102371485D02*
X145416666Y-102371485D01*
X171119104Y-82285714D02*
X171119104Y-82761904D01*
X171404819Y-82190476D02*
X170404819Y-82523809D01*
X170404819Y-82523809D02*
X171404819Y-82857142D01*
X170404819Y-83380952D02*
X170404819Y-83476190D01*
X170404819Y-83476190D02*
X170452438Y-83571428D01*
X170452438Y-83571428D02*
X170500057Y-83619047D01*
X170500057Y-83619047D02*
X170595295Y-83666666D01*
X170595295Y-83666666D02*
X170785771Y-83714285D01*
X170785771Y-83714285D02*
X171023866Y-83714285D01*
X171023866Y-83714285D02*
X171214342Y-83666666D01*
X171214342Y-83666666D02*
X171309580Y-83619047D01*
X171309580Y-83619047D02*
X171357200Y-83571428D01*
X171357200Y-83571428D02*
X171404819Y-83476190D01*
X171404819Y-83476190D02*
X171404819Y-83380952D01*
X171404819Y-83380952D02*
X171357200Y-83285714D01*
X171357200Y-83285714D02*
X171309580Y-83238095D01*
X171309580Y-83238095D02*
X171214342Y-83190476D01*
X171214342Y-83190476D02*
X171023866Y-83142857D01*
X171023866Y-83142857D02*
X170785771Y-83142857D01*
X170785771Y-83142857D02*
X170595295Y-83190476D01*
X170595295Y-83190476D02*
X170500057Y-83238095D01*
X170500057Y-83238095D02*
X170452438Y-83285714D01*
X170452438Y-83285714D02*
X170404819Y-83380952D01*
X172204819Y-85266667D02*
X172204819Y-85885714D01*
X172204819Y-85885714D02*
X172585771Y-85552381D01*
X172585771Y-85552381D02*
X172585771Y-85695238D01*
X172585771Y-85695238D02*
X172633390Y-85790476D01*
X172633390Y-85790476D02*
X172681009Y-85838095D01*
X172681009Y-85838095D02*
X172776247Y-85885714D01*
X172776247Y-85885714D02*
X173014342Y-85885714D01*
X173014342Y-85885714D02*
X173109580Y-85838095D01*
X173109580Y-85838095D02*
X173157200Y-85790476D01*
X173157200Y-85790476D02*
X173204819Y-85695238D01*
X173204819Y-85695238D02*
X173204819Y-85409524D01*
X173204819Y-85409524D02*
X173157200Y-85314286D01*
X173157200Y-85314286D02*
X173109580Y-85266667D01*
X173204819Y-80685714D02*
X173204819Y-80114286D01*
X173204819Y-80400000D02*
X172204819Y-80400000D01*
X172204819Y-80400000D02*
X172347676Y-80304762D01*
X172347676Y-80304762D02*
X172442914Y-80209524D01*
X172442914Y-80209524D02*
X172490533Y-80114286D01*
X174738094Y-102904819D02*
X174738094Y-101904819D01*
X174738094Y-101904819D02*
X174499999Y-101904819D01*
X174499999Y-101904819D02*
X174357142Y-101952438D01*
X174357142Y-101952438D02*
X174261904Y-102047676D01*
X174261904Y-102047676D02*
X174214285Y-102142914D01*
X174214285Y-102142914D02*
X174166666Y-102333390D01*
X174166666Y-102333390D02*
X174166666Y-102476247D01*
X174166666Y-102476247D02*
X174214285Y-102666723D01*
X174214285Y-102666723D02*
X174261904Y-102761961D01*
X174261904Y-102761961D02*
X174357142Y-102857200D01*
X174357142Y-102857200D02*
X174499999Y-102904819D01*
X174499999Y-102904819D02*
X174738094Y-102904819D01*
X173785713Y-102000057D02*
X173738094Y-101952438D01*
X173738094Y-101952438D02*
X173642856Y-101904819D01*
X173642856Y-101904819D02*
X173404761Y-101904819D01*
X173404761Y-101904819D02*
X173309523Y-101952438D01*
X173309523Y-101952438D02*
X173261904Y-102000057D01*
X173261904Y-102000057D02*
X173214285Y-102095295D01*
X173214285Y-102095295D02*
X173214285Y-102190533D01*
X173214285Y-102190533D02*
X173261904Y-102333390D01*
X173261904Y-102333390D02*
X173833332Y-102904819D01*
X173833332Y-102904819D02*
X173214285Y-102904819D01*
X171119104Y-69785714D02*
X171119104Y-70261904D01*
X171404819Y-69690476D02*
X170404819Y-70023809D01*
X170404819Y-70023809D02*
X171404819Y-70357142D01*
X170500057Y-70642857D02*
X170452438Y-70690476D01*
X170452438Y-70690476D02*
X170404819Y-70785714D01*
X170404819Y-70785714D02*
X170404819Y-71023809D01*
X170404819Y-71023809D02*
X170452438Y-71119047D01*
X170452438Y-71119047D02*
X170500057Y-71166666D01*
X170500057Y-71166666D02*
X170595295Y-71214285D01*
X170595295Y-71214285D02*
X170690533Y-71214285D01*
X170690533Y-71214285D02*
X170833390Y-71166666D01*
X170833390Y-71166666D02*
X171404819Y-70595238D01*
X171404819Y-70595238D02*
X171404819Y-71214285D01*
X173204819Y-68185714D02*
X173204819Y-67614286D01*
X173204819Y-67900000D02*
X172204819Y-67900000D01*
X172204819Y-67900000D02*
X172347676Y-67804762D01*
X172347676Y-67804762D02*
X172442914Y-67709524D01*
X172442914Y-67709524D02*
X172490533Y-67614286D01*
X172204819Y-72766667D02*
X172204819Y-73385714D01*
X172204819Y-73385714D02*
X172585771Y-73052381D01*
X172585771Y-73052381D02*
X172585771Y-73195238D01*
X172585771Y-73195238D02*
X172633390Y-73290476D01*
X172633390Y-73290476D02*
X172681009Y-73338095D01*
X172681009Y-73338095D02*
X172776247Y-73385714D01*
X172776247Y-73385714D02*
X173014342Y-73385714D01*
X173014342Y-73385714D02*
X173109580Y-73338095D01*
X173109580Y-73338095D02*
X173157200Y-73290476D01*
X173157200Y-73290476D02*
X173204819Y-73195238D01*
X173204819Y-73195238D02*
X173204819Y-72909524D01*
X173204819Y-72909524D02*
X173157200Y-72814286D01*
X173157200Y-72814286D02*
X173109580Y-72766667D01*
D11*
%TO.C,A1*%
X171750000Y-78150000D02*
X171750000Y-75350000D01*
X172450000Y-74700000D02*
X173050000Y-74700000D01*
X173050000Y-78800000D02*
X172450000Y-78800000D01*
X173750000Y-75350000D02*
X173750000Y-78150000D01*
X171750000Y-75400000D02*
G75*
G02*
X172450000Y-74700000I699999J1D01*
G01*
X172450000Y-78800000D02*
G75*
G02*
X171750000Y-78100000I0J700000D01*
G01*
X173050000Y-74700000D02*
G75*
G02*
X173750000Y-75400000I1J-699999D01*
G01*
X173750000Y-78100000D02*
G75*
G02*
X173050000Y-78800000I-700000J0D01*
G01*
%TO.C,D1*%
X124950000Y-107110000D02*
X130760000Y-107110000D01*
X130760000Y-103890000D02*
X124950000Y-103890000D01*
X130760000Y-107110000D02*
X130760000Y-103890000D01*
%TO.C,D3*%
X190305000Y-106610000D02*
X196115000Y-106610000D01*
X196115000Y-103390000D02*
X190305000Y-103390000D01*
X196115000Y-106610000D02*
X196115000Y-103390000D01*
%TO.C,D4*%
X143850000Y-106360000D02*
X149660000Y-106360000D01*
X149660000Y-103140000D02*
X143850000Y-103140000D01*
X149660000Y-106360000D02*
X149660000Y-103140000D01*
%TO.C,A0*%
X171750000Y-84400000D02*
X171750000Y-81600000D01*
X172450000Y-80950000D02*
X173050000Y-80950000D01*
X173050000Y-85050000D02*
X172450000Y-85050000D01*
X173750000Y-81600000D02*
X173750000Y-84400000D01*
X171750000Y-81650000D02*
G75*
G02*
X172450000Y-80950000I699999J1D01*
G01*
X172450000Y-85050000D02*
G75*
G02*
X171750000Y-84350000I0J700000D01*
G01*
X173050000Y-80950000D02*
G75*
G02*
X173750000Y-81650000I1J-699999D01*
G01*
X173750000Y-84350000D02*
G75*
G02*
X173050000Y-85050000I-700000J0D01*
G01*
%TO.C,D2*%
X171600000Y-106560000D02*
X177410000Y-106560000D01*
X177410000Y-103340000D02*
X171600000Y-103340000D01*
X177410000Y-106560000D02*
X177410000Y-103340000D01*
%TO.C,A2*%
X171750000Y-71900000D02*
X171750000Y-69100000D01*
X172450000Y-68450000D02*
X173050000Y-68450000D01*
X173050000Y-72550000D02*
X172450000Y-72550000D01*
X173750000Y-69100000D02*
X173750000Y-71900000D01*
X171750000Y-69150000D02*
G75*
G02*
X172450000Y-68450000I699999J1D01*
G01*
X172450000Y-72550000D02*
G75*
G02*
X171750000Y-71850000I0J700000D01*
G01*
X173050000Y-68450000D02*
G75*
G02*
X173750000Y-69150000I1J-699999D01*
G01*
X173750000Y-71850000D02*
G75*
G02*
X173050000Y-72550000I-700000J0D01*
G01*
%TD*%
D12*
X139900000Y-103048528D02*
G75*
G02*
X141100000Y-104248528I0J-1200000D01*
G01*
X167400000Y-103100000D02*
G75*
G02*
X168600000Y-104300000I0J-1200000D01*
G01*
X168600000Y-109800000D02*
G75*
G02*
X167600000Y-109800000I-500000J0D01*
G01*
X187700000Y-109800000D02*
X187700000Y-104300000D01*
X161100000Y-109800000D02*
X161100000Y-104300000D01*
X134600000Y-109748528D02*
X134600000Y-104248528D01*
X122200000Y-109750000D02*
G75*
G02*
X121200000Y-109750000I-500000J0D01*
G01*
X122200000Y-109750000D02*
X122200000Y-104250000D01*
X134800000Y-103048528D02*
X139900000Y-103048528D01*
X162300000Y-104100000D02*
X167400000Y-104100000D01*
X141100000Y-109748528D02*
X141100000Y-104248528D01*
X181200000Y-109800000D02*
G75*
G02*
X180200000Y-109800000I-500000J0D01*
G01*
X121000000Y-103050000D02*
G75*
G02*
X122200000Y-104250000I0J-1200000D01*
G01*
X181400000Y-104100000D02*
X186500000Y-104100000D01*
X162100000Y-104300000D02*
G75*
G02*
X162300000Y-104100000I200000J0D01*
G01*
X133600000Y-104248528D02*
G75*
G02*
X134800000Y-103048528I1200000J0D01*
G01*
X121200000Y-109750000D02*
X121200000Y-104250000D01*
X187700000Y-109800000D02*
G75*
G02*
X186700000Y-109800000I-500000J0D01*
G01*
X115900000Y-104050000D02*
X121000000Y-104050000D01*
X115700000Y-109750000D02*
X115700000Y-104250000D01*
X167400000Y-104100000D02*
G75*
G02*
X167600000Y-104300000I0J-200000D01*
G01*
X141100000Y-109748528D02*
G75*
G02*
X140100000Y-109748528I-500000J0D01*
G01*
X186700000Y-109800000D02*
X186700000Y-104300000D01*
X180200000Y-104300000D02*
G75*
G02*
X181400000Y-103100000I1200000J0D01*
G01*
X134800000Y-104048528D02*
X139900000Y-104048528D01*
X181200000Y-104300000D02*
G75*
G02*
X181400000Y-104100000I200000J0D01*
G01*
X186500000Y-104100000D02*
G75*
G02*
X186700000Y-104300000I0J-200000D01*
G01*
X162100000Y-109800000D02*
G75*
G02*
X161100000Y-109800000I-500000J0D01*
G01*
X139900000Y-104048528D02*
G75*
G02*
X140100000Y-104248528I0J-200000D01*
G01*
X115700000Y-109750000D02*
G75*
G02*
X114700000Y-109750000I-500000J0D01*
G01*
X186500000Y-103100000D02*
G75*
G02*
X187700000Y-104300000I0J-1200000D01*
G01*
X180200000Y-109800000D02*
X180200000Y-104300000D01*
X162100000Y-109800000D02*
X162100000Y-104300000D01*
X134600000Y-104248528D02*
G75*
G02*
X134800000Y-104048528I200000J0D01*
G01*
X115900000Y-103050000D02*
X121000000Y-103050000D01*
X121000000Y-104050000D02*
G75*
G02*
X121200000Y-104250000I0J-200000D01*
G01*
X140100000Y-109748528D02*
X140100000Y-104248528D01*
X181200000Y-109800000D02*
X181200000Y-104300000D01*
X114700000Y-109750000D02*
X114700000Y-104250000D01*
X168600000Y-109800000D02*
X168600000Y-104300000D01*
X162300000Y-103100000D02*
X167400000Y-103100000D01*
X167600000Y-109800000D02*
X167600000Y-104300000D01*
X161100000Y-104300000D02*
G75*
G02*
X162300000Y-103100000I1200000J0D01*
G01*
X134600000Y-109748528D02*
G75*
G02*
X133600000Y-109748528I-500000J0D01*
G01*
X181400000Y-103100000D02*
X186500000Y-103100000D01*
X115700000Y-104250000D02*
G75*
G02*
X115900000Y-104050000I200000J0D01*
G01*
X114700000Y-104250000D02*
G75*
G02*
X115900000Y-103050000I1200000J0D01*
G01*
X133600000Y-109748528D02*
X133600000Y-104248528D01*
D13*
%TO.C,MOD1*%
X101175000Y-55745000D02*
X101175000Y-138995000D01*
X101175000Y-138995000D02*
X201175000Y-138995000D01*
X201175000Y-55745000D02*
X101175000Y-55745000D01*
X201175000Y-138995000D02*
X201175000Y-55745000D01*
%TD*%
M02*
