M48
; DRILL file {KiCad 8.0.5} date 2025-03-13T20:37:12+0100
; FORMAT={-:-/ absolute / metric / decimal}
; #@! TF.CreationDate,2025-03-13T20:37:12+01:00
; #@! TF.GenerationSoftware,Kicad,Pcbnew,8.0.5
; #@! TF.FileFunction,Plated,1,2,PTH
FMAT,2
METRIC
; #@! TA.AperFunction,Plated,PTH,ViaDrill
T1C0.300
; #@! TA.AperFunction,Plated,PTH,ComponentDrill
T2C0.800
; #@! TA.AperFunction,Plated,PTH,ComponentDrill
T3C0.950
; #@! TA.AperFunction,Plated,PTH,ComponentDrill
T4C1.300
; #@! TA.AperFunction,Plated,PTH,ComponentDrill
T5C2.500
%
G90
G05
T1
X102.1Y-64.0
X105.7Y-95.8
X110.1Y-70.3
X111.8Y-85.0
X115.3Y-64.0
X117.3Y-93.9
X123.9Y-88.575
X130.4Y-76.1
X131.0Y-78.5
X131.3Y-71.2
X132.3Y-72.0
X134.5Y-78.5
X136.5Y-72.9
X138.606Y-72.0
X140.5Y-78.5
X142.1Y-72.7
X142.2Y-86.975
X143.4Y-77.4
X143.4Y-92.7
X143.606Y-71.2
X143.9Y-75.9
X144.0Y-78.0
X144.5Y-72.2
X144.6Y-78.6
X144.7Y-87.775
X148.6Y-88.0
X148.9Y-80.8
X150.6Y-66.9
X150.8Y-88.4
X153.2Y-87.8
X155.8Y-87.2
X156.1Y-80.7
X157.2Y-64.1
X157.4Y-85.7
X158.5Y-80.2
X158.7Y-93.0
X161.0Y-81.5
X162.4Y-87.8
X163.7Y-83.9
X164.0Y-89.5
X165.5Y-87.2
X167.0Y-77.855
X168.5Y-90.0
X168.6Y-88.4
X169.9Y-84.2
X170.2Y-76.2
X171.6Y-86.6
X172.5Y-92.8
X174.1Y-81.5
X175.4Y-85.4
X175.5Y-95.4
X176.9Y-88.4
X180.1Y-81.2
X182.0Y-87.8
X184.6Y-80.9
X187.0Y-87.2
X188.0Y-94.2
X190.0Y-81.2
X190.4Y-85.6
X192.14Y-86.6
X195.8Y-95.7
X200.2Y-64.0
X200.2Y-95.5
T2
X102.86Y-95.015
X107.86Y-95.015
X110.75Y-90.57
X114.25Y-90.57
X118.745Y-84.375
X118.745Y-91.995
X121.285Y-84.375
X121.285Y-91.995
X123.825Y-84.375
X123.825Y-91.995
X126.365Y-84.375
X126.365Y-91.995
X128.905Y-84.375
X128.905Y-91.995
X131.445Y-84.375
X131.445Y-91.995
X133.985Y-84.375
X133.985Y-91.995
X136.525Y-84.375
X136.525Y-91.995
X140.52Y-83.285
X140.52Y-90.905
X143.06Y-83.285
X143.06Y-90.905
X145.6Y-83.285
X145.6Y-90.905
X147.4Y-80.1
X148.14Y-83.285
X148.14Y-90.905
X149.347Y-74.0
X150.68Y-83.285
X150.68Y-90.905
X152.4Y-80.1
X152.847Y-74.0
X153.22Y-83.285
X153.22Y-90.905
X155.76Y-83.285
X155.76Y-90.905
X158.3Y-83.285
X158.3Y-90.905
X160.84Y-83.285
X160.84Y-90.905
X162.4Y-77.855
X162.4Y-80.395
X165.5Y-77.855
X165.5Y-80.395
X168.6Y-77.855
X168.6Y-80.395
X171.6Y-77.855
X171.6Y-80.395
X174.36Y-83.3
X174.36Y-90.92
X176.9Y-83.3
X176.9Y-90.92
X178.6Y-75.405
X178.6Y-77.945
X179.44Y-83.3
X179.44Y-90.92
X181.98Y-83.3
X181.98Y-90.92
X183.6Y-75.4
X183.6Y-77.94
X184.52Y-83.3
X184.52Y-90.92
X187.06Y-83.3
X187.06Y-90.92
X188.7Y-75.4
X188.7Y-77.94
X189.6Y-83.3
X189.6Y-90.92
X192.0Y-75.4
X192.0Y-77.94
X192.14Y-83.3
X192.14Y-90.92
T3
X114.7Y-76.8
X114.7Y-80.0
X117.2Y-76.8
X117.2Y-80.0
X119.7Y-76.8
X119.7Y-80.0
X122.2Y-76.8
X122.2Y-80.0
X124.7Y-76.8
X124.7Y-80.0
X127.2Y-76.8
X127.2Y-80.0
T4
X108.606Y-68.325
X108.675Y-126.27
X112.35Y-102.4
X112.35Y-114.6
X113.606Y-68.325
X113.675Y-126.27
X118.35Y-100.4
X118.606Y-68.325
X118.675Y-126.27
X123.606Y-68.325
X123.675Y-126.27
X124.35Y-102.4
X124.35Y-114.6
X128.606Y-68.325
X128.675Y-126.27
X131.25Y-102.4
X131.25Y-114.6
X133.606Y-68.325
X133.675Y-126.27
X137.25Y-100.4
X138.606Y-68.325
X138.675Y-126.27
X143.25Y-102.4
X143.25Y-114.6
X143.606Y-68.325
X143.675Y-126.27
X158.606Y-68.325
X158.675Y-126.27
X158.75Y-102.4
X158.75Y-114.6
X163.606Y-68.325
X163.675Y-126.27
X164.75Y-100.4
X168.606Y-68.325
X168.675Y-126.27
X170.75Y-102.4
X170.75Y-114.6
X173.606Y-68.325
X173.675Y-126.27
X177.8Y-102.4
X177.8Y-114.6
X178.606Y-68.325
X178.675Y-126.27
X183.606Y-68.325
X183.675Y-126.27
X183.8Y-100.4
X188.606Y-68.325
X188.675Y-126.27
X189.8Y-102.4
X189.8Y-114.6
X193.606Y-68.325
X193.675Y-126.27
T5
X105.175Y-77.37
X105.175Y-117.37
X197.175Y-77.37
X197.175Y-117.37
M30
