%TF.GenerationSoftware,KiCad,Pcbnew,8.0.5*%
%TF.CreationDate,2025-03-13T20:37:12+01:00*%
%TF.ProjectId,esp32_blinds_controller,65737033-325f-4626-9c69-6e64735f636f,V0.2*%
%TF.SameCoordinates,Original*%
%TF.FileFunction,Drillmap*%
%TF.FilePolarity,Positive*%
%FSLAX45Y45*%
G04 Gerber Fmt 4.5, Leading zero omitted, Abs format (unit mm)*
G04 Created by KiCad (PCBNEW 8.0.5) date 2025-03-13 20:37:12*
%MOMM*%
%LPD*%
G01*
G04 APERTURE LIST*
%ADD10C,0.050000*%
%ADD11C,0.120000*%
%ADD12C,0.200000*%
G04 APERTURE END LIST*
D10*
X13990000Y-9644853D02*
G75*
G02*
X14109997Y-9764853I0J-119997D01*
G01*
X16740000Y-9640000D02*
G75*
G02*
X16860000Y-9760000I0J-120000D01*
G01*
X16860000Y-10310000D02*
G75*
G02*
X16760000Y-10310000I-50000J0D01*
G01*
X18770000Y-10310000D02*
X18770000Y-9760000D01*
X16110000Y-10310000D02*
X16110000Y-9760000D01*
X13460000Y-10314853D02*
X13460000Y-9764853D01*
X12220000Y-10310000D02*
G75*
G02*
X12120000Y-10310000I-50000J0D01*
G01*
X12220000Y-10310000D02*
X12220000Y-9760000D01*
X13480000Y-9644853D02*
X13990000Y-9644853D01*
X16230000Y-9740000D02*
X16740000Y-9740000D01*
X14110000Y-10314853D02*
X14110000Y-9764853D01*
X18120000Y-10310000D02*
G75*
G02*
X18020000Y-10310000I-50000J0D01*
G01*
X12100000Y-9640000D02*
G75*
G02*
X12220000Y-9760000I0J-120000D01*
G01*
X18140000Y-9740000D02*
X18650000Y-9740000D01*
X16210000Y-9760000D02*
G75*
G02*
X16230000Y-9740000I20000J0D01*
G01*
X13360000Y-9764853D02*
G75*
G02*
X13480000Y-9644850I120000J3D01*
G01*
X12120000Y-10310000D02*
X12120000Y-9760000D01*
X18770000Y-10310000D02*
G75*
G02*
X18670000Y-10310000I-50000J0D01*
G01*
X11590000Y-9740000D02*
X12100000Y-9740000D01*
X11570000Y-10310000D02*
X11570000Y-9760000D01*
X16740000Y-9740000D02*
G75*
G02*
X16760000Y-9760000I0J-20000D01*
G01*
X14110000Y-10314853D02*
G75*
G02*
X14010000Y-10314853I-50000J0D01*
G01*
X18670000Y-10310000D02*
X18670000Y-9760000D01*
X18020000Y-9760000D02*
G75*
G02*
X18140000Y-9640000I120000J0D01*
G01*
X13480000Y-9744853D02*
X13990000Y-9744853D01*
X18120000Y-9760000D02*
G75*
G02*
X18140000Y-9740000I20000J0D01*
G01*
X18650000Y-9740000D02*
G75*
G02*
X18670000Y-9760000I0J-20000D01*
G01*
X16210000Y-10310000D02*
G75*
G02*
X16110000Y-10310000I-50000J0D01*
G01*
X13990000Y-9744853D02*
G75*
G02*
X14009997Y-9764853I0J-19997D01*
G01*
X11570000Y-10310000D02*
G75*
G02*
X11470000Y-10310000I-50000J0D01*
G01*
X18650000Y-9640000D02*
G75*
G02*
X18770000Y-9760000I0J-120000D01*
G01*
X18020000Y-10310000D02*
X18020000Y-9760000D01*
X16210000Y-10310000D02*
X16210000Y-9760000D01*
X13460000Y-9764853D02*
G75*
G02*
X13480000Y-9744850I20000J3D01*
G01*
X11590000Y-9640000D02*
X12100000Y-9640000D01*
X12100000Y-9740000D02*
G75*
G02*
X12120000Y-9760000I0J-20000D01*
G01*
X14010000Y-10314853D02*
X14010000Y-9764853D01*
X18120000Y-10310000D02*
X18120000Y-9760000D01*
X11470000Y-10310000D02*
X11470000Y-9760000D01*
X16860000Y-10310000D02*
X16860000Y-9760000D01*
X16230000Y-9640000D02*
X16740000Y-9640000D01*
X16760000Y-10310000D02*
X16760000Y-9760000D01*
X16110000Y-9760000D02*
G75*
G02*
X16230000Y-9640000I120000J0D01*
G01*
X13460000Y-10314853D02*
G75*
G02*
X13360000Y-10314853I-50000J0D01*
G01*
X18140000Y-9640000D02*
X18650000Y-9640000D01*
X11570000Y-9760000D02*
G75*
G02*
X11590000Y-9740000I20000J0D01*
G01*
X11470000Y-9760000D02*
G75*
G02*
X11590000Y-9640000I120000J0D01*
G01*
X13360000Y-10314853D02*
X13360000Y-9764853D01*
D11*
X10117500Y-6312000D02*
X10117500Y-13137000D01*
X10117500Y-13137000D02*
X20117500Y-13137000D01*
X20117500Y-6312000D02*
X10117500Y-6312000D01*
X20117500Y-13137000D02*
X20117500Y-6312000D01*
D12*
X10372277Y-13454484D02*
X10372277Y-13254484D01*
X10372277Y-13254484D02*
X10419896Y-13254484D01*
X10419896Y-13254484D02*
X10448467Y-13264008D01*
X10448467Y-13264008D02*
X10467515Y-13283055D01*
X10467515Y-13283055D02*
X10477039Y-13302103D01*
X10477039Y-13302103D02*
X10486563Y-13340198D01*
X10486563Y-13340198D02*
X10486563Y-13368769D01*
X10486563Y-13368769D02*
X10477039Y-13406865D01*
X10477039Y-13406865D02*
X10467515Y-13425912D01*
X10467515Y-13425912D02*
X10448467Y-13444960D01*
X10448467Y-13444960D02*
X10419896Y-13454484D01*
X10419896Y-13454484D02*
X10372277Y-13454484D01*
X10572277Y-13454484D02*
X10572277Y-13321150D01*
X10572277Y-13359246D02*
X10581801Y-13340198D01*
X10581801Y-13340198D02*
X10591324Y-13330674D01*
X10591324Y-13330674D02*
X10610372Y-13321150D01*
X10610372Y-13321150D02*
X10629420Y-13321150D01*
X10696086Y-13454484D02*
X10696086Y-13321150D01*
X10696086Y-13254484D02*
X10686563Y-13264008D01*
X10686563Y-13264008D02*
X10696086Y-13273531D01*
X10696086Y-13273531D02*
X10705610Y-13264008D01*
X10705610Y-13264008D02*
X10696086Y-13254484D01*
X10696086Y-13254484D02*
X10696086Y-13273531D01*
X10819896Y-13454484D02*
X10800848Y-13444960D01*
X10800848Y-13444960D02*
X10791324Y-13425912D01*
X10791324Y-13425912D02*
X10791324Y-13254484D01*
X10924658Y-13454484D02*
X10905610Y-13444960D01*
X10905610Y-13444960D02*
X10896086Y-13425912D01*
X10896086Y-13425912D02*
X10896086Y-13254484D01*
X11153229Y-13454484D02*
X11153229Y-13254484D01*
X11153229Y-13254484D02*
X11219896Y-13397341D01*
X11219896Y-13397341D02*
X11286562Y-13254484D01*
X11286562Y-13254484D02*
X11286562Y-13454484D01*
X11467515Y-13454484D02*
X11467515Y-13349722D01*
X11467515Y-13349722D02*
X11457991Y-13330674D01*
X11457991Y-13330674D02*
X11438943Y-13321150D01*
X11438943Y-13321150D02*
X11400848Y-13321150D01*
X11400848Y-13321150D02*
X11381801Y-13330674D01*
X11467515Y-13444960D02*
X11448467Y-13454484D01*
X11448467Y-13454484D02*
X11400848Y-13454484D01*
X11400848Y-13454484D02*
X11381801Y-13444960D01*
X11381801Y-13444960D02*
X11372277Y-13425912D01*
X11372277Y-13425912D02*
X11372277Y-13406865D01*
X11372277Y-13406865D02*
X11381801Y-13387817D01*
X11381801Y-13387817D02*
X11400848Y-13378293D01*
X11400848Y-13378293D02*
X11448467Y-13378293D01*
X11448467Y-13378293D02*
X11467515Y-13368769D01*
X11562753Y-13321150D02*
X11562753Y-13521150D01*
X11562753Y-13330674D02*
X11581801Y-13321150D01*
X11581801Y-13321150D02*
X11619896Y-13321150D01*
X11619896Y-13321150D02*
X11638943Y-13330674D01*
X11638943Y-13330674D02*
X11648467Y-13340198D01*
X11648467Y-13340198D02*
X11657991Y-13359246D01*
X11657991Y-13359246D02*
X11657991Y-13416388D01*
X11657991Y-13416388D02*
X11648467Y-13435436D01*
X11648467Y-13435436D02*
X11638943Y-13444960D01*
X11638943Y-13444960D02*
X11619896Y-13454484D01*
X11619896Y-13454484D02*
X11581801Y-13454484D01*
X11581801Y-13454484D02*
X11562753Y-13444960D01*
X11743705Y-13435436D02*
X11753229Y-13444960D01*
X11753229Y-13444960D02*
X11743705Y-13454484D01*
X11743705Y-13454484D02*
X11734182Y-13444960D01*
X11734182Y-13444960D02*
X11743705Y-13435436D01*
X11743705Y-13435436D02*
X11743705Y-13454484D01*
X11743705Y-13330674D02*
X11753229Y-13340198D01*
X11753229Y-13340198D02*
X11743705Y-13349722D01*
X11743705Y-13349722D02*
X11734182Y-13340198D01*
X11734182Y-13340198D02*
X11743705Y-13330674D01*
X11743705Y-13330674D02*
X11743705Y-13349722D01*
M02*
