%TF.GenerationSoftware,KiCad,Pcbnew,8.0.5*%
%TF.CreationDate,2025-03-13T20:37:10+01:00*%
%TF.ProjectId,esp32_blinds_controller,65737033-325f-4626-9c69-6e64735f636f,V0.2*%
%TF.SameCoordinates,Original*%
%TF.FileFunction,Copper,L1,Top*%
%TF.FilePolarity,Positive*%
%FSLAX46Y46*%
G04 Gerber Fmt 4.6, Leading zero omitted, Abs format (unit mm)*
G04 Created by KiCad (PCBNEW 8.0.5) date 2025-03-13 20:37:10*
%MOMM*%
%LPD*%
G01*
G04 APERTURE LIST*
G04 Aperture macros list*
%AMRoundRect*
0 Rectangle with rounded corners*
0 $1 Rounding radius*
0 $2 $3 $4 $5 $6 $7 $8 $9 X,Y pos of 4 corners*
0 Add a 4 corners polygon primitive as box body*
4,1,4,$2,$3,$4,$5,$6,$7,$8,$9,$2,$3,0*
0 Add four circle primitives for the rounded corners*
1,1,$1+$1,$2,$3*
1,1,$1+$1,$4,$5*
1,1,$1+$1,$6,$7*
1,1,$1+$1,$8,$9*
0 Add four rect primitives between the rounded corners*
20,1,$1+$1,$2,$3,$4,$5,0*
20,1,$1+$1,$4,$5,$6,$7,0*
20,1,$1+$1,$6,$7,$8,$9,0*
20,1,$1+$1,$8,$9,$2,$3,0*%
G04 Aperture macros list end*
%ADD10C,0.300000*%
%TA.AperFunction,NonConductor*%
%ADD11C,0.300000*%
%TD*%
%TA.AperFunction,ComponentPad*%
%ADD12C,1.600000*%
%TD*%
%TA.AperFunction,ComponentPad*%
%ADD13O,1.600000X1.600000*%
%TD*%
%TA.AperFunction,ComponentPad*%
%ADD14R,2.500000X2.500000*%
%TD*%
%TA.AperFunction,ComponentPad*%
%ADD15O,2.500000X2.500000*%
%TD*%
%TA.AperFunction,ComponentPad*%
%ADD16R,1.600000X2.400000*%
%TD*%
%TA.AperFunction,ComponentPad*%
%ADD17O,1.600000X2.400000*%
%TD*%
%TA.AperFunction,ComponentPad*%
%ADD18R,1.600000X1.600000*%
%TD*%
%TA.AperFunction,ComponentPad*%
%ADD19R,2.600000X2.600000*%
%TD*%
%TA.AperFunction,ComponentPad*%
%ADD20C,2.600000*%
%TD*%
%TA.AperFunction,ComponentPad*%
%ADD21C,6.000000*%
%TD*%
%TA.AperFunction,ComponentPad*%
%ADD22RoundRect,0.250000X0.600000X0.725000X-0.600000X0.725000X-0.600000X-0.725000X0.600000X-0.725000X0*%
%TD*%
%TA.AperFunction,ComponentPad*%
%ADD23O,1.700000X1.950000*%
%TD*%
%TA.AperFunction,ViaPad*%
%ADD24C,0.600000*%
%TD*%
%TA.AperFunction,Conductor*%
%ADD25C,0.200000*%
%TD*%
%TA.AperFunction,Conductor*%
%ADD26C,2.000000*%
%TD*%
%TA.AperFunction,Conductor*%
%ADD27C,0.500000*%
%TD*%
%TA.AperFunction,Conductor*%
%ADD28C,1.000000*%
%TD*%
%TA.AperFunction,Profile*%
%ADD29C,0.050000*%
%TD*%
%TA.AperFunction,Profile*%
%ADD30C,0.120000*%
%TD*%
G04 APERTURE END LIST*
D10*
D11*
X195783082Y-104820828D02*
X195783082Y-105892257D01*
X195783082Y-105892257D02*
X195711653Y-106106542D01*
X195711653Y-106106542D02*
X195568796Y-106249400D01*
X195568796Y-106249400D02*
X195354510Y-106320828D01*
X195354510Y-106320828D02*
X195211653Y-106320828D01*
X196497367Y-106320828D02*
X196497367Y-104820828D01*
X197354510Y-106320828D02*
X196711653Y-105463685D01*
X197354510Y-104820828D02*
X196497367Y-105677971D01*
X198497367Y-105535114D02*
X198711653Y-105606542D01*
X198711653Y-105606542D02*
X198783082Y-105677971D01*
X198783082Y-105677971D02*
X198854510Y-105820828D01*
X198854510Y-105820828D02*
X198854510Y-106035114D01*
X198854510Y-106035114D02*
X198783082Y-106177971D01*
X198783082Y-106177971D02*
X198711653Y-106249400D01*
X198711653Y-106249400D02*
X198568796Y-106320828D01*
X198568796Y-106320828D02*
X197997367Y-106320828D01*
X197997367Y-106320828D02*
X197997367Y-104820828D01*
X197997367Y-104820828D02*
X198497367Y-104820828D01*
X198497367Y-104820828D02*
X198640225Y-104892257D01*
X198640225Y-104892257D02*
X198711653Y-104963685D01*
X198711653Y-104963685D02*
X198783082Y-105106542D01*
X198783082Y-105106542D02*
X198783082Y-105249400D01*
X198783082Y-105249400D02*
X198711653Y-105392257D01*
X198711653Y-105392257D02*
X198640225Y-105463685D01*
X198640225Y-105463685D02*
X198497367Y-105535114D01*
X198497367Y-105535114D02*
X197997367Y-105535114D01*
X199497367Y-106320828D02*
X199497367Y-104820828D01*
D12*
%TO.P,R5,1*%
%TO.N,+3V3*%
X165500000Y-77855000D03*
D13*
%TO.P,R5,2*%
%TO.N,/IN3_L*%
X165500000Y-80395000D03*
%TD*%
D12*
%TO.P,R9,1*%
%TO.N,Net-(R9-Pad1)*%
X188700000Y-77940000D03*
D13*
%TO.P,R9,2*%
%TO.N,/IN3_H*%
X188700000Y-75400000D03*
%TD*%
D12*
%TO.P,R4,1*%
%TO.N,+3V3*%
X168600000Y-77855000D03*
D13*
%TO.P,R4,2*%
%TO.N,/IN1_L*%
X168600000Y-80395000D03*
%TD*%
D14*
%TO.P,K2,1*%
%TO.N,Net-(K1-Pad4)*%
X137250000Y-100400000D03*
D15*
%TO.P,K2,2*%
%TO.N,VBUS*%
X131250000Y-102400000D03*
%TO.P,K2,3*%
%TO.N,/L1-UP*%
X131250000Y-114600000D03*
%TO.P,K2,4*%
%TO.N,/L1-SW*%
X143250000Y-114600000D03*
%TO.P,K2,5*%
%TO.N,/nUP1*%
X143250000Y-102400000D03*
%TD*%
D16*
%TO.P,U2,1,I1*%
%TO.N,unconnected-(U2-I1-Pad1)*%
X136525000Y-84375000D03*
D17*
%TO.P,U2,2,I2*%
%TO.N,unconnected-(U2-I2-Pad2)*%
X133985000Y-84375000D03*
%TO.P,U2,3,I3*%
%TO.N,unconnected-(U2-I3-Pad3)*%
X131445000Y-84375000D03*
%TO.P,U2,4,I4*%
%TO.N,/UP2*%
X128905000Y-84375000D03*
%TO.P,U2,5,I5*%
%TO.N,/DN2*%
X126365000Y-84375000D03*
%TO.P,U2,6,I6*%
%TO.N,/UP1*%
X123825000Y-84375000D03*
%TO.P,U2,7,I7*%
%TO.N,/DN1*%
X121285000Y-84375000D03*
%TO.P,U2,8,GND*%
%TO.N,GND*%
X118745000Y-84375000D03*
%TO.P,U2,9,COM*%
%TO.N,VBUS*%
X118745000Y-91995000D03*
%TO.P,U2,10,O7*%
%TO.N,/nDOWN1*%
X121285000Y-91995000D03*
%TO.P,U2,11,O6*%
%TO.N,/nUP1*%
X123825000Y-91995000D03*
%TO.P,U2,12,O5*%
%TO.N,/nDOWN2*%
X126365000Y-91995000D03*
%TO.P,U2,13,O4*%
%TO.N,/nUP2*%
X128905000Y-91995000D03*
%TO.P,U2,14,O3*%
%TO.N,unconnected-(U2-O3-Pad14)*%
X131445000Y-91995000D03*
%TO.P,U2,15,O2*%
%TO.N,unconnected-(U2-O2-Pad15)*%
X133985000Y-91995000D03*
%TO.P,U2,16,O1*%
%TO.N,unconnected-(U2-O1-Pad16)*%
X136525000Y-91995000D03*
%TD*%
D14*
%TO.P,K4,1*%
%TO.N,Net-(K3-Pad4)*%
X183800000Y-100400000D03*
D15*
%TO.P,K4,2*%
%TO.N,VBUS*%
X177800000Y-102400000D03*
%TO.P,K4,3*%
%TO.N,/L2-UP*%
X177800000Y-114600000D03*
%TO.P,K4,4*%
%TO.N,/L2-SW*%
X189800000Y-114600000D03*
%TO.P,K4,5*%
%TO.N,/nUP2*%
X189800000Y-102400000D03*
%TD*%
D12*
%TO.P,R10,1*%
%TO.N,Net-(R10-Pad1)*%
X178600000Y-77945000D03*
D13*
%TO.P,R10,2*%
%TO.N,/IN1_H*%
X178600000Y-75405000D03*
%TD*%
D14*
%TO.P,K1,1*%
%TO.N,/L1*%
X118350000Y-100400000D03*
D15*
%TO.P,K1,2*%
%TO.N,VBUS*%
X112350000Y-102400000D03*
%TO.P,K1,3*%
%TO.N,/L1-DOWN*%
X112350000Y-114600000D03*
%TO.P,K1,4*%
%TO.N,Net-(K1-Pad4)*%
X124350000Y-114600000D03*
%TO.P,K1,5*%
%TO.N,/nDOWN1*%
X124350000Y-102400000D03*
%TD*%
D18*
%TO.P,C4,1*%
%TO.N,+3V3*%
X149347349Y-74000000D03*
D12*
%TO.P,C4,2*%
%TO.N,GND*%
X152847349Y-74000000D03*
%TD*%
%TO.P,R11,1*%
%TO.N,Net-(R11-Pad1)*%
X192000000Y-77940000D03*
D13*
%TO.P,R11,2*%
%TO.N,/IN4_H*%
X192000000Y-75400000D03*
%TD*%
D19*
%TO.P,MOD1,A1,A1*%
%TO.N,/L1-DOWN*%
X108675000Y-126270000D03*
D20*
%TO.P,MOD1,A2,A2*%
X113675000Y-126270000D03*
%TO.P,MOD1,A3,A3*%
%TO.N,/L1*%
X118675000Y-126270000D03*
%TO.P,MOD1,A4,A4*%
X123675000Y-126270000D03*
%TO.P,MOD1,A5,A5*%
%TO.N,/L1-UP*%
X128675000Y-126270000D03*
%TO.P,MOD1,A6,A6*%
X133675000Y-126270000D03*
%TO.P,MOD1,A7,A7*%
%TO.N,/L1-SW*%
X138675000Y-126270000D03*
%TO.P,MOD1,A8,A8*%
X143675000Y-126270000D03*
D19*
%TO.P,MOD1,B1,B1*%
%TO.N,/L2-DOWN*%
X158675000Y-126270000D03*
D20*
%TO.P,MOD1,B2,B2*%
X163675000Y-126270000D03*
%TO.P,MOD1,B3,B3*%
%TO.N,/L2*%
X168675000Y-126270000D03*
%TO.P,MOD1,B4,B4*%
X173675000Y-126270000D03*
%TO.P,MOD1,B5,B5*%
%TO.N,/L2-UP*%
X178675000Y-126270000D03*
%TO.P,MOD1,B6,B6*%
X183675000Y-126270000D03*
%TO.P,MOD1,B7,B7*%
%TO.N,/L2-SW*%
X188675000Y-126270000D03*
%TO.P,MOD1,B8,B8*%
X193675000Y-126270000D03*
D19*
%TO.P,MOD1,C1,C1*%
%TO.N,/IN4_H*%
X193606000Y-68325000D03*
D20*
%TO.P,MOD1,C2,C2*%
%TO.N,/IN3_H*%
X188606000Y-68325000D03*
%TO.P,MOD1,C3,C3*%
%TO.N,/IN2_H*%
X183606000Y-68325000D03*
%TO.P,MOD1,C4,C4*%
%TO.N,/IN1_H*%
X178606000Y-68325000D03*
%TO.P,MOD1,C5,C5*%
%TO.N,VBUS*%
X173606000Y-68325000D03*
%TO.P,MOD1,C6,C6*%
X168606000Y-68325000D03*
%TO.P,MOD1,C7,C7*%
X163606000Y-68325000D03*
%TO.P,MOD1,C8,C8*%
X158606000Y-68325000D03*
D19*
%TO.P,MOD1,D1,D1*%
%TO.N,/SCL*%
X143606000Y-68325000D03*
D20*
%TO.P,MOD1,D2,D2*%
%TO.N,/SDA*%
X138606000Y-68325000D03*
%TO.P,MOD1,D3,D3*%
%TO.N,/INT*%
X133606000Y-68325000D03*
%TO.P,MOD1,D4,D4*%
%TO.N,+3V3*%
X128606000Y-68325000D03*
%TO.P,MOD1,D5,D5*%
%TO.N,GND*%
X123606000Y-68325000D03*
%TO.P,MOD1,D6,D6*%
X118606000Y-68325000D03*
%TO.P,MOD1,D7,D7*%
%TO.N,VBUS*%
X113606000Y-68325000D03*
%TO.P,MOD1,D8,D8*%
X108606000Y-68325000D03*
D21*
%TO.P,MOD1,MH1*%
%TO.N,N/C*%
X105175000Y-77370000D03*
%TO.P,MOD1,MH2*%
X197175000Y-77370000D03*
%TO.P,MOD1,MH3*%
X105175000Y-117370000D03*
%TO.P,MOD1,MH4*%
X197175000Y-117370000D03*
%TD*%
D12*
%TO.P,R8,1*%
%TO.N,Net-(R8-Pad1)*%
X183600000Y-77940000D03*
D13*
%TO.P,R8,2*%
%TO.N,/IN2_H*%
X183600000Y-75400000D03*
%TD*%
D12*
%TO.P,R7,1*%
%TO.N,+3V3*%
X171600000Y-77855000D03*
D13*
%TO.P,R7,2*%
%TO.N,/IN4_L*%
X171600000Y-80395000D03*
%TD*%
D12*
%TO.P,C2,1*%
%TO.N,VBUS*%
X107860000Y-95015000D03*
%TO.P,C2,2*%
%TO.N,GND*%
X102860000Y-95015000D03*
%TD*%
D18*
%TO.P,C5,1*%
%TO.N,VBUS*%
X110750000Y-90570000D03*
D12*
%TO.P,C5,2*%
%TO.N,GND*%
X114250000Y-90570000D03*
%TD*%
%TO.P,C3,1*%
%TO.N,+3V3*%
X147400000Y-80100000D03*
%TO.P,C3,2*%
%TO.N,GND*%
X152400000Y-80100000D03*
%TD*%
D16*
%TO.P,U1,1,SCL*%
%TO.N,/SCL*%
X160840000Y-83285000D03*
D17*
%TO.P,U1,2,SDA*%
%TO.N,/SDA*%
X158300000Y-83285000D03*
%TO.P,U1,3,A2*%
%TO.N,/A2*%
X155760000Y-83285000D03*
%TO.P,U1,4,A1*%
%TO.N,/A1*%
X153220000Y-83285000D03*
%TO.P,U1,5,A0*%
%TO.N,/A0*%
X150680000Y-83285000D03*
%TO.P,U1,6,~{RESET}*%
%TO.N,+3V3*%
X148140000Y-83285000D03*
%TO.P,U1,7,NC*%
%TO.N,unconnected-(U1-NC-Pad7)*%
X145600000Y-83285000D03*
%TO.P,U1,8,INT*%
%TO.N,/INT*%
X143060000Y-83285000D03*
%TO.P,U1,9,VSS*%
%TO.N,GND*%
X140520000Y-83285000D03*
%TO.P,U1,10,GP0*%
%TO.N,/IN4_L*%
X140520000Y-90905000D03*
%TO.P,U1,11,GP1*%
%TO.N,/DN2*%
X143060000Y-90905000D03*
%TO.P,U1,12,GP2*%
%TO.N,/UP1*%
X145600000Y-90905000D03*
%TO.P,U1,13,GP3*%
%TO.N,/DN1*%
X148140000Y-90905000D03*
%TO.P,U1,14,GP4*%
%TO.N,/IN1_L*%
X150680000Y-90905000D03*
%TO.P,U1,15,GP5*%
%TO.N,/IN2_L*%
X153220000Y-90905000D03*
%TO.P,U1,16,GP6*%
%TO.N,/IN3_L*%
X155760000Y-90905000D03*
%TO.P,U1,17,GP7*%
%TO.N,/UP2*%
X158300000Y-90905000D03*
%TO.P,U1,18,VDD*%
%TO.N,+3V3*%
X160840000Y-90905000D03*
%TD*%
D14*
%TO.P,K3,1*%
%TO.N,/L2*%
X164750000Y-100400000D03*
D15*
%TO.P,K3,2*%
%TO.N,VBUS*%
X158750000Y-102400000D03*
%TO.P,K3,3*%
%TO.N,/L2-DOWN*%
X158750000Y-114600000D03*
%TO.P,K3,4*%
%TO.N,Net-(K3-Pad4)*%
X170750000Y-114600000D03*
%TO.P,K3,5*%
%TO.N,/nDOWN2*%
X170750000Y-102400000D03*
%TD*%
D18*
%TO.P,U3,1*%
%TO.N,Net-(R11-Pad1)*%
X192140000Y-83300000D03*
D13*
%TO.P,U3,2*%
%TO.N,GND*%
X189600000Y-83300000D03*
%TO.P,U3,3*%
%TO.N,Net-(R9-Pad1)*%
X187060000Y-83300000D03*
%TO.P,U3,4*%
%TO.N,GND*%
X184520000Y-83300000D03*
%TO.P,U3,5*%
%TO.N,Net-(R8-Pad1)*%
X181980000Y-83300000D03*
%TO.P,U3,6*%
%TO.N,GND*%
X179440000Y-83300000D03*
%TO.P,U3,7*%
%TO.N,Net-(R10-Pad1)*%
X176900000Y-83300000D03*
%TO.P,U3,8*%
%TO.N,GND*%
X174360000Y-83300000D03*
%TO.P,U3,9*%
X174360000Y-90920000D03*
%TO.P,U3,10*%
%TO.N,/IN1_L*%
X176900000Y-90920000D03*
%TO.P,U3,11*%
%TO.N,GND*%
X179440000Y-90920000D03*
%TO.P,U3,12*%
%TO.N,/IN2_L*%
X181980000Y-90920000D03*
%TO.P,U3,13*%
%TO.N,GND*%
X184520000Y-90920000D03*
%TO.P,U3,14*%
%TO.N,/IN3_L*%
X187060000Y-90920000D03*
%TO.P,U3,15*%
%TO.N,GND*%
X189600000Y-90920000D03*
%TO.P,U3,16*%
%TO.N,/IN4_L*%
X192140000Y-90920000D03*
%TD*%
D12*
%TO.P,R6,1*%
%TO.N,+3V3*%
X162400000Y-77855000D03*
D13*
%TO.P,R6,2*%
%TO.N,/IN2_L*%
X162400000Y-80395000D03*
%TD*%
D22*
%TO.P,J2,1,Pin_1*%
%TO.N,+3V3*%
X127200000Y-76800000D03*
D23*
%TO.P,J2,2,Pin_2*%
%TO.N,/INT*%
X124700000Y-76800000D03*
%TO.P,J2,3,Pin_3*%
%TO.N,/SDA*%
X122200000Y-76800000D03*
%TO.P,J2,4,Pin_4*%
%TO.N,/SCL*%
X119700000Y-76800000D03*
%TO.P,J2,5,Pin_5*%
%TO.N,GND*%
X117200000Y-76800000D03*
%TO.P,J2,6,Pin_6*%
%TO.N,VBUS*%
X114700000Y-76800000D03*
%TD*%
D22*
%TO.P,J1,1,Pin_1*%
%TO.N,+3V3*%
X127200000Y-80000000D03*
D23*
%TO.P,J1,2,Pin_2*%
%TO.N,/INT*%
X124700000Y-80000000D03*
%TO.P,J1,3,Pin_3*%
%TO.N,/SDA*%
X122200000Y-80000000D03*
%TO.P,J1,4,Pin_4*%
%TO.N,/SCL*%
X119700000Y-80000000D03*
%TO.P,J1,5,Pin_5*%
%TO.N,GND*%
X117200000Y-80000000D03*
%TO.P,J1,6,Pin_6*%
%TO.N,VBUS*%
X114700000Y-80000000D03*
%TD*%
D24*
%TO.N,/UP2*%
X157400000Y-85700000D03*
%TO.N,GND*%
X200200000Y-64000000D03*
X170200000Y-76200000D03*
X172500000Y-92800000D03*
X102100000Y-64000000D03*
X157200000Y-64100000D03*
X105700000Y-95800000D03*
X158700000Y-93000000D03*
X190400000Y-85600000D03*
X115300000Y-64000000D03*
X148600000Y-88000000D03*
X111800000Y-85000000D03*
X195800000Y-95700000D03*
X169900000Y-84200000D03*
X144500000Y-72200000D03*
X190000000Y-81200000D03*
X140500000Y-78500000D03*
X168500000Y-90000000D03*
X134500000Y-78500000D03*
X161000000Y-81500000D03*
X148900000Y-80800000D03*
X142100000Y-72700000D03*
X174100000Y-81500000D03*
X130400000Y-76100000D03*
X156100000Y-80700000D03*
X184600000Y-80900000D03*
X163700000Y-83900000D03*
X131000000Y-78500000D03*
X188000000Y-94200000D03*
X110100000Y-70300000D03*
X143400000Y-92700000D03*
X143900000Y-75900000D03*
X117300000Y-93900000D03*
X200200000Y-95500000D03*
X180100000Y-81200000D03*
X158500000Y-80200000D03*
X150600000Y-66900000D03*
X175400000Y-85400000D03*
X164000000Y-89500000D03*
X136500000Y-72900000D03*
%TO.N,VBUS*%
X175500000Y-95400000D03*
%TO.N,/DN1*%
X123900000Y-88575000D03*
%TO.N,/UP1*%
X144700000Y-87775000D03*
%TO.N,/DN2*%
X142200000Y-86975000D03*
%TO.N,/SCL*%
X143606000Y-71200000D03*
X131300000Y-71200000D03*
%TO.N,/SDA*%
X132300000Y-72000000D03*
X138606000Y-72000000D03*
%TO.N,+3V3*%
X167000000Y-77855000D03*
%TO.N,/A0*%
X144600000Y-78600000D03*
%TO.N,/A1*%
X144000000Y-78000000D03*
%TO.N,/A2*%
X143400000Y-77400000D03*
%TO.N,/IN1_L*%
X168600000Y-88400000D03*
X150800000Y-88400000D03*
X176900000Y-88400000D03*
%TO.N,/IN2_L*%
X162400000Y-87800000D03*
X153200000Y-87800000D03*
X182000000Y-87800000D03*
%TO.N,/IN3_L*%
X155800000Y-87200000D03*
X187000000Y-87200000D03*
X165500000Y-87200000D03*
%TO.N,/IN4_L*%
X171600000Y-86600000D03*
X192140000Y-86600000D03*
%TD*%
D25*
%TO.N,/UP2*%
X157400000Y-85700000D02*
X158300000Y-86600000D01*
X158300000Y-86600000D02*
X158300000Y-90905000D01*
D26*
%TO.N,GND*%
X118606000Y-68325000D02*
X123606000Y-68325000D01*
D27*
%TO.N,/nUP2*%
X186100000Y-93900000D02*
X189750000Y-97550000D01*
X129500000Y-93900000D02*
X186100000Y-93900000D01*
X128905000Y-93305000D02*
X129500000Y-93900000D01*
X128905000Y-91400000D02*
X128905000Y-93305000D01*
X189750000Y-97550000D02*
X189750000Y-102295000D01*
D28*
%TO.N,VBUS*%
X175500000Y-95400000D02*
X175645000Y-95400000D01*
X112300000Y-95544196D02*
X112445000Y-95399196D01*
X177800000Y-97610000D02*
X177800000Y-102400000D01*
X118745000Y-95244196D02*
X118745000Y-90905000D01*
X110400000Y-76000000D02*
X114700000Y-76000000D01*
X112300000Y-95544196D02*
X111770804Y-95015000D01*
X131055804Y-95400000D02*
X131200000Y-95544196D01*
X111770804Y-95015000D02*
X110400000Y-95015000D01*
D26*
X155281000Y-65000000D02*
X116931000Y-65000000D01*
D28*
X107860000Y-95015000D02*
X110400000Y-95015000D01*
X112445000Y-95399196D02*
X118900000Y-95399196D01*
D26*
X113606000Y-68325000D02*
X108606000Y-68325000D01*
D28*
X108606000Y-71906000D02*
X108606000Y-68325000D01*
D26*
X116931000Y-65000000D02*
X113606000Y-68325000D01*
X173606000Y-68325000D02*
X158606000Y-68325000D01*
D28*
X110400000Y-76000000D02*
X110400000Y-73700000D01*
X158750000Y-102400000D02*
X158800000Y-102350000D01*
X175645000Y-95400000D02*
X177750000Y-97505000D01*
X110400000Y-73700000D02*
X108606000Y-71906000D01*
X158700000Y-95650000D02*
X158700000Y-102345000D01*
X131055000Y-95399196D02*
X131200000Y-95544196D01*
X118900000Y-95399196D02*
X131055000Y-95399196D01*
X110400000Y-95015000D02*
X110400000Y-76000000D01*
D26*
X158606000Y-68325000D02*
X155281000Y-65000000D01*
D28*
X131200000Y-95544196D02*
X131200000Y-102345000D01*
X114700000Y-76000000D02*
X114700000Y-79000000D01*
X112350000Y-102400000D02*
X112350000Y-97655000D01*
X175500000Y-95400000D02*
X131055804Y-95400000D01*
X118900000Y-95399196D02*
X118745000Y-95244196D01*
X112300000Y-97600000D02*
X112300000Y-95544196D01*
D25*
%TO.N,/DN1*%
X147575000Y-88575000D02*
X148140000Y-89140000D01*
X148140000Y-89140000D02*
X148140000Y-90905000D01*
X123900000Y-88575000D02*
X147575000Y-88575000D01*
%TO.N,/UP1*%
X125400000Y-87775000D02*
X123825000Y-86200000D01*
X123825000Y-86200000D02*
X123825000Y-83285000D01*
X144700000Y-87775000D02*
X125400000Y-87775000D01*
%TO.N,/DN2*%
X127600000Y-86975000D02*
X126365000Y-85740000D01*
X126365000Y-85740000D02*
X126365000Y-83285000D01*
X142200000Y-86975000D02*
X127600000Y-86975000D01*
%TO.N,/SCL*%
X119700000Y-76000000D02*
X119700000Y-79000000D01*
X143606000Y-74406000D02*
X144600000Y-75400000D01*
X119700000Y-76000000D02*
X119700000Y-75000000D01*
X144600000Y-75400000D02*
X156500000Y-75400000D01*
X143606000Y-71200000D02*
X143606000Y-74406000D01*
X156500000Y-75400000D02*
X159600000Y-78500000D01*
X160840000Y-82640000D02*
X160840000Y-83285000D01*
X119700000Y-75000000D02*
X123500000Y-71200000D01*
X159600000Y-78500000D02*
X159600000Y-81400000D01*
X123500000Y-71200000D02*
X131300000Y-71200000D01*
X143606000Y-68325000D02*
X143606000Y-71200000D01*
X159600000Y-81400000D02*
X160840000Y-82640000D01*
%TO.N,/SDA*%
X138606000Y-75706000D02*
X139500000Y-76600000D01*
X155500000Y-76600000D02*
X157480000Y-78580000D01*
X138606000Y-68325000D02*
X138606000Y-72000000D01*
X139500000Y-76600000D02*
X155500000Y-76600000D01*
X122200000Y-76000000D02*
X122200000Y-74500000D01*
X122200000Y-76000000D02*
X122200000Y-79000000D01*
X138606000Y-72000000D02*
X138606000Y-75706000D01*
X124700000Y-72000000D02*
X132300000Y-72000000D01*
X157480000Y-78580000D02*
X157480000Y-82465000D01*
X122200000Y-74500000D02*
X124700000Y-72000000D01*
X157480000Y-82465000D02*
X158300000Y-83285000D01*
D28*
%TO.N,+3V3*%
X165095000Y-90905000D02*
X167000000Y-89000000D01*
X160840000Y-90905000D02*
X165095000Y-90905000D01*
X167000000Y-89000000D02*
X167000000Y-77855000D01*
D25*
%TO.N,/INT*%
X133606000Y-72900000D02*
X133606000Y-68325000D01*
X124700000Y-79000000D02*
X124700000Y-76000000D01*
X142240000Y-80840000D02*
X142240000Y-78140000D01*
X143060000Y-83285000D02*
X143060000Y-81660000D01*
X126500000Y-72900000D02*
X124700000Y-74700000D01*
X133606000Y-72900000D02*
X126500000Y-72900000D01*
X141600000Y-77500000D02*
X138206000Y-77500000D01*
X142240000Y-78140000D02*
X141600000Y-77500000D01*
X124700000Y-74700000D02*
X124700000Y-76000000D01*
X143060000Y-81660000D02*
X142240000Y-80840000D01*
X138206000Y-77500000D02*
X133606000Y-72900000D01*
%TO.N,/A0*%
X144600000Y-78600000D02*
X148700000Y-78600000D01*
X148700000Y-78600000D02*
X149860000Y-79760000D01*
X149860000Y-79760000D02*
X149860000Y-83285000D01*
%TO.N,/A1*%
X150800000Y-79500000D02*
X150800000Y-81300000D01*
X152785000Y-83285000D02*
X153220000Y-83285000D01*
X150800000Y-81300000D02*
X152785000Y-83285000D01*
X144000000Y-78000000D02*
X149300000Y-78000000D01*
X149300000Y-78000000D02*
X150800000Y-79500000D01*
%TO.N,/A2*%
X152900000Y-77400000D02*
X154940000Y-79440000D01*
X154940000Y-82465000D02*
X155760000Y-83285000D01*
X154940000Y-79440000D02*
X154940000Y-82465000D01*
X143400000Y-77400000D02*
X152900000Y-77400000D01*
%TO.N,/IN1_L*%
X168600000Y-80395000D02*
X168600000Y-88400000D01*
X150800000Y-90785000D02*
X150680000Y-90905000D01*
X150800000Y-88400000D02*
X150800000Y-90785000D01*
X176900000Y-88400000D02*
X176900000Y-90920000D01*
%TO.N,/IN2_L*%
X181980000Y-88320000D02*
X181980000Y-90920000D01*
X153200000Y-87800000D02*
X153220000Y-87820000D01*
X153220000Y-87820000D02*
X153220000Y-90905000D01*
X182000000Y-88300000D02*
X181980000Y-88320000D01*
X182000000Y-87800000D02*
X182000000Y-88300000D01*
X162400000Y-80395000D02*
X162400000Y-87800000D01*
%TO.N,/IN3_L*%
X155800000Y-87200000D02*
X155760000Y-87240000D01*
X155760000Y-87240000D02*
X155760000Y-90905000D01*
X187060000Y-87260000D02*
X187060000Y-90920000D01*
X187000000Y-87200000D02*
X187060000Y-87260000D01*
X165500000Y-80395000D02*
X165500000Y-87200000D01*
%TO.N,/IN4_L*%
X171600000Y-80395000D02*
X171600000Y-86600000D01*
X192140000Y-86600000D02*
X192140000Y-90920000D01*
D27*
%TO.N,/IN1_H*%
X178600000Y-68331000D02*
X178600000Y-75005000D01*
X178606000Y-68325000D02*
X178600000Y-68331000D01*
%TO.N,Net-(R8-Pad1)*%
X181980000Y-81520000D02*
X181980000Y-83300000D01*
X183600000Y-77940000D02*
X183600000Y-79900000D01*
X183600000Y-79900000D02*
X181980000Y-81520000D01*
%TO.N,Net-(R9-Pad1)*%
X188700000Y-79950000D02*
X187060000Y-81590000D01*
X187060000Y-81590000D02*
X187060000Y-83300000D01*
X188700000Y-77940000D02*
X188700000Y-79950000D01*
%TO.N,/IN2_H*%
X183600000Y-68331000D02*
X183600000Y-75100000D01*
X183606000Y-68325000D02*
X183600000Y-68331000D01*
%TO.N,Net-(R10-Pad1)*%
X178600000Y-77845000D02*
X178600000Y-79700000D01*
X176900000Y-81400000D02*
X176900000Y-83300000D01*
X178600000Y-79700000D02*
X176900000Y-81400000D01*
%TO.N,/IN4_H*%
X193606000Y-71494000D02*
X192000000Y-73100000D01*
X193606000Y-68325000D02*
X193606000Y-71494000D01*
X192000000Y-73100000D02*
X192000000Y-75100000D01*
%TO.N,Net-(R11-Pad1)*%
X192000000Y-77640000D02*
X192000000Y-83160000D01*
X192000000Y-83160000D02*
X192140000Y-83300000D01*
%TO.N,/IN3_H*%
X188700000Y-68419000D02*
X188700000Y-75100000D01*
X188606000Y-68325000D02*
X188700000Y-68419000D01*
%TD*%
%TA.AperFunction,Conductor*%
%TO.N,GND*%
G36*
X115962323Y-63640185D02*
G01*
X116008078Y-63692989D01*
X116018022Y-63762147D01*
X115988997Y-63825703D01*
X115968173Y-63844814D01*
X115956375Y-63853386D01*
X115953487Y-63855485D01*
X113280207Y-66528764D01*
X113218884Y-66562249D01*
X113211013Y-66563697D01*
X113204227Y-66564720D01*
X113204225Y-66564720D01*
X112946358Y-66644262D01*
X112703229Y-66761347D01*
X112703225Y-66761349D01*
X112642202Y-66802954D01*
X112575722Y-66824454D01*
X112572351Y-66824500D01*
X109639649Y-66824500D01*
X109572610Y-66804815D01*
X109569830Y-66802976D01*
X109508775Y-66761349D01*
X109508769Y-66761346D01*
X109508768Y-66761345D01*
X109508767Y-66761344D01*
X109265643Y-66644263D01*
X109265645Y-66644263D01*
X109007773Y-66564720D01*
X109007767Y-66564718D01*
X108740936Y-66524500D01*
X108740929Y-66524500D01*
X108471071Y-66524500D01*
X108471063Y-66524500D01*
X108204232Y-66564718D01*
X108204226Y-66564720D01*
X107946358Y-66644262D01*
X107703230Y-66761346D01*
X107480258Y-66913365D01*
X107282442Y-67096910D01*
X107114185Y-67307898D01*
X106979258Y-67541599D01*
X106979256Y-67541603D01*
X106880666Y-67792804D01*
X106880664Y-67792811D01*
X106820616Y-68055898D01*
X106800451Y-68324995D01*
X106800451Y-68325004D01*
X106820616Y-68594101D01*
X106880664Y-68857188D01*
X106880666Y-68857195D01*
X106926901Y-68975000D01*
X106979257Y-69108398D01*
X107114185Y-69342102D01*
X107167655Y-69409151D01*
X107282442Y-69553089D01*
X107398567Y-69660836D01*
X107480259Y-69736635D01*
X107551351Y-69785104D01*
X107595653Y-69839133D01*
X107605500Y-69887558D01*
X107605500Y-72004541D01*
X107605500Y-72004543D01*
X107605499Y-72004543D01*
X107643947Y-72197829D01*
X107643950Y-72197839D01*
X107719364Y-72379907D01*
X107719371Y-72379920D01*
X107828860Y-72543781D01*
X107828863Y-72543785D01*
X107972537Y-72687459D01*
X107972559Y-72687479D01*
X109363181Y-74078101D01*
X109396666Y-74139424D01*
X109399500Y-74165782D01*
X109399500Y-93890500D01*
X109379815Y-93957539D01*
X109327011Y-94003294D01*
X109275500Y-94014500D01*
X108737588Y-94014500D01*
X108670549Y-93994815D01*
X108666465Y-93992075D01*
X108617142Y-93957539D01*
X108512734Y-93884432D01*
X108512732Y-93884431D01*
X108306497Y-93788261D01*
X108306488Y-93788258D01*
X108086697Y-93729366D01*
X108086693Y-93729365D01*
X108086692Y-93729365D01*
X108086691Y-93729364D01*
X108086686Y-93729364D01*
X107860002Y-93709532D01*
X107859998Y-93709532D01*
X107633313Y-93729364D01*
X107633302Y-93729366D01*
X107413511Y-93788258D01*
X107413502Y-93788261D01*
X107207267Y-93884431D01*
X107207265Y-93884432D01*
X107020858Y-94014954D01*
X106859954Y-94175858D01*
X106729432Y-94362265D01*
X106729431Y-94362267D01*
X106633261Y-94568502D01*
X106633258Y-94568511D01*
X106574366Y-94788302D01*
X106574364Y-94788313D01*
X106554532Y-95014998D01*
X106554532Y-95015001D01*
X106574364Y-95241686D01*
X106574366Y-95241697D01*
X106633258Y-95461488D01*
X106633261Y-95461497D01*
X106729431Y-95667732D01*
X106729432Y-95667734D01*
X106825460Y-95804877D01*
X106847787Y-95871083D01*
X106830777Y-95938850D01*
X106779828Y-95986663D01*
X106723885Y-96000000D01*
X103995504Y-96000000D01*
X103928465Y-95980315D01*
X103882710Y-95927511D01*
X103872766Y-95858353D01*
X103893929Y-95804876D01*
X103990134Y-95667482D01*
X104086265Y-95461326D01*
X104086269Y-95461317D01*
X104145139Y-95241610D01*
X104145141Y-95241599D01*
X104164966Y-95015002D01*
X104164966Y-95014997D01*
X104145141Y-94788400D01*
X104145139Y-94788389D01*
X104086269Y-94568682D01*
X104086264Y-94568668D01*
X103990136Y-94362521D01*
X103990132Y-94362513D01*
X103939025Y-94289526D01*
X103260000Y-94968551D01*
X103260000Y-94962339D01*
X103232741Y-94860606D01*
X103180080Y-94769394D01*
X103105606Y-94694920D01*
X103014394Y-94642259D01*
X102912661Y-94615000D01*
X102906448Y-94615000D01*
X103585472Y-93935974D01*
X103512478Y-93884863D01*
X103306331Y-93788735D01*
X103306317Y-93788730D01*
X103086610Y-93729860D01*
X103086599Y-93729858D01*
X102860002Y-93710034D01*
X102859998Y-93710034D01*
X102633400Y-93729858D01*
X102633389Y-93729860D01*
X102413682Y-93788730D01*
X102413673Y-93788734D01*
X102207516Y-93884866D01*
X102207512Y-93884868D01*
X102134526Y-93935973D01*
X102134526Y-93935974D01*
X102813553Y-94615000D01*
X102807339Y-94615000D01*
X102705606Y-94642259D01*
X102614394Y-94694920D01*
X102539920Y-94769394D01*
X102487259Y-94860606D01*
X102460000Y-94962339D01*
X102460000Y-94968552D01*
X101770384Y-94278936D01*
X101741806Y-94273193D01*
X101691624Y-94224577D01*
X101675500Y-94163432D01*
X101675500Y-78690429D01*
X101695185Y-78623390D01*
X101747989Y-78577635D01*
X101817147Y-78567691D01*
X101880703Y-78596716D01*
X101915263Y-78645991D01*
X101929197Y-78682288D01*
X101972745Y-78795736D01*
X102139320Y-79122656D01*
X102339147Y-79430364D01*
X102519987Y-79653682D01*
X102570051Y-79715506D01*
X102829494Y-79974949D01*
X102829498Y-79974952D01*
X103114635Y-80205852D01*
X103422343Y-80405679D01*
X103422348Y-80405682D01*
X103749264Y-80572255D01*
X104091801Y-80703742D01*
X104446206Y-80798705D01*
X104808596Y-80856102D01*
X105154734Y-80874241D01*
X105174999Y-80875304D01*
X105175000Y-80875304D01*
X105175001Y-80875304D01*
X105194203Y-80874297D01*
X105541404Y-80856102D01*
X105903794Y-80798705D01*
X106258199Y-80703742D01*
X106600736Y-80572255D01*
X106927652Y-80405682D01*
X107235366Y-80205851D01*
X107520506Y-79974949D01*
X107779949Y-79715506D01*
X108010851Y-79430366D01*
X108210682Y-79122652D01*
X108377255Y-78795736D01*
X108508742Y-78453199D01*
X108603705Y-78098794D01*
X108661102Y-77736404D01*
X108680304Y-77370000D01*
X108661102Y-77003596D01*
X108603705Y-76641206D01*
X108508742Y-76286801D01*
X108377255Y-75944264D01*
X108210682Y-75617348D01*
X108151416Y-75526086D01*
X108010852Y-75309635D01*
X107851918Y-75113368D01*
X107779949Y-75024494D01*
X107520506Y-74765051D01*
X107355315Y-74631282D01*
X107235364Y-74534147D01*
X106927656Y-74334320D01*
X106600739Y-74167746D01*
X106258206Y-74036260D01*
X106258199Y-74036258D01*
X105903794Y-73941295D01*
X105903790Y-73941294D01*
X105903789Y-73941294D01*
X105541405Y-73883898D01*
X105175001Y-73864696D01*
X105174999Y-73864696D01*
X104808594Y-73883898D01*
X104446211Y-73941294D01*
X104446209Y-73941294D01*
X104091793Y-74036260D01*
X103749260Y-74167746D01*
X103422343Y-74334320D01*
X103114635Y-74534147D01*
X102829498Y-74765047D01*
X102829490Y-74765054D01*
X102570054Y-75024490D01*
X102570047Y-75024498D01*
X102339147Y-75309635D01*
X102139320Y-75617343D01*
X101972746Y-75944260D01*
X101935833Y-76040423D01*
X101920194Y-76081166D01*
X101915264Y-76094008D01*
X101872862Y-76149540D01*
X101807168Y-76173333D01*
X101739040Y-76157831D01*
X101690107Y-76107958D01*
X101675500Y-76049570D01*
X101675500Y-63744500D01*
X101695185Y-63677461D01*
X101747989Y-63631706D01*
X101799500Y-63620500D01*
X115895284Y-63620500D01*
X115962323Y-63640185D01*
G37*
%TD.AperFunction*%
%TA.AperFunction,Conductor*%
G36*
X200617539Y-63640185D02*
G01*
X200663294Y-63692989D01*
X200674500Y-63744500D01*
X200674500Y-76049570D01*
X200654815Y-76116609D01*
X200602011Y-76162364D01*
X200532853Y-76172308D01*
X200469297Y-76143283D01*
X200434736Y-76094008D01*
X200377255Y-75944264D01*
X200210682Y-75617348D01*
X200151416Y-75526086D01*
X200010852Y-75309635D01*
X199851918Y-75113368D01*
X199779949Y-75024494D01*
X199520506Y-74765051D01*
X199355315Y-74631282D01*
X199235364Y-74534147D01*
X198927656Y-74334320D01*
X198600739Y-74167746D01*
X198258206Y-74036260D01*
X198258199Y-74036258D01*
X197903794Y-73941295D01*
X197903790Y-73941294D01*
X197903789Y-73941294D01*
X197541405Y-73883898D01*
X197175001Y-73864696D01*
X197174999Y-73864696D01*
X196808594Y-73883898D01*
X196446211Y-73941294D01*
X196446209Y-73941294D01*
X196091793Y-74036260D01*
X195749260Y-74167746D01*
X195422343Y-74334320D01*
X195114635Y-74534147D01*
X194829498Y-74765047D01*
X194829490Y-74765054D01*
X194570054Y-75024490D01*
X194570047Y-75024498D01*
X194339147Y-75309635D01*
X194139320Y-75617343D01*
X193972746Y-75944260D01*
X193841260Y-76286793D01*
X193746294Y-76641209D01*
X193746294Y-76641211D01*
X193688898Y-77003594D01*
X193669696Y-77369999D01*
X193669696Y-77370000D01*
X193688898Y-77736405D01*
X193734644Y-78025233D01*
X193746295Y-78098794D01*
X193813127Y-78348215D01*
X193841260Y-78453206D01*
X193972746Y-78795739D01*
X194139320Y-79122656D01*
X194339147Y-79430364D01*
X194519987Y-79653682D01*
X194570051Y-79715506D01*
X194829494Y-79974949D01*
X194829498Y-79974952D01*
X195114635Y-80205852D01*
X195422343Y-80405679D01*
X195422348Y-80405682D01*
X195749264Y-80572255D01*
X196091801Y-80703742D01*
X196446206Y-80798705D01*
X196808596Y-80856102D01*
X197154734Y-80874241D01*
X197174999Y-80875304D01*
X197175000Y-80875304D01*
X197175001Y-80875304D01*
X197194203Y-80874297D01*
X197541404Y-80856102D01*
X197903794Y-80798705D01*
X198258199Y-80703742D01*
X198600736Y-80572255D01*
X198927652Y-80405682D01*
X199235366Y-80205851D01*
X199520506Y-79974949D01*
X199779949Y-79715506D01*
X200010851Y-79430366D01*
X200210682Y-79122652D01*
X200377255Y-78795736D01*
X200434736Y-78645991D01*
X200477138Y-78590459D01*
X200542832Y-78566666D01*
X200610960Y-78582167D01*
X200659893Y-78632041D01*
X200674500Y-78690429D01*
X200674500Y-95876000D01*
X200654815Y-95943039D01*
X200602011Y-95988794D01*
X200550500Y-96000000D01*
X189312729Y-96000000D01*
X189245690Y-95980315D01*
X189225048Y-95963681D01*
X186578421Y-93317052D01*
X186578414Y-93317046D01*
X186504729Y-93267812D01*
X186504729Y-93267813D01*
X186455491Y-93234913D01*
X186318917Y-93178343D01*
X186318907Y-93178340D01*
X186173920Y-93149500D01*
X186173918Y-93149500D01*
X137802498Y-93149500D01*
X137735459Y-93129815D01*
X137689704Y-93077011D01*
X137679760Y-93007853D01*
X137692013Y-92969205D01*
X137710397Y-92933123D01*
X137730220Y-92894219D01*
X137793477Y-92699534D01*
X137825500Y-92497352D01*
X137825500Y-91492648D01*
X137793477Y-91290466D01*
X137730220Y-91095781D01*
X137730218Y-91095778D01*
X137730218Y-91095776D01*
X137666131Y-90970000D01*
X137637287Y-90913390D01*
X137629556Y-90902749D01*
X137516971Y-90747786D01*
X137372213Y-90603028D01*
X137206613Y-90482715D01*
X137206612Y-90482714D01*
X137206610Y-90482713D01*
X137149653Y-90453691D01*
X137024223Y-90389781D01*
X136829534Y-90326522D01*
X136654995Y-90298878D01*
X136627352Y-90294500D01*
X136422648Y-90294500D01*
X136398329Y-90298351D01*
X136220465Y-90326522D01*
X136025776Y-90389781D01*
X135843386Y-90482715D01*
X135677786Y-90603028D01*
X135533028Y-90747786D01*
X135412715Y-90913386D01*
X135365485Y-91006080D01*
X135317510Y-91056876D01*
X135249689Y-91073671D01*
X135183554Y-91051134D01*
X135144515Y-91006080D01*
X135126131Y-90970000D01*
X135097287Y-90913390D01*
X135089556Y-90902749D01*
X134976971Y-90747786D01*
X134832213Y-90603028D01*
X134666613Y-90482715D01*
X134666612Y-90482714D01*
X134666610Y-90482713D01*
X134609653Y-90453691D01*
X134484223Y-90389781D01*
X134289534Y-90326522D01*
X134114995Y-90298878D01*
X134087352Y-90294500D01*
X133882648Y-90294500D01*
X133858329Y-90298351D01*
X133680465Y-90326522D01*
X133485776Y-90389781D01*
X133303386Y-90482715D01*
X133137786Y-90603028D01*
X132993028Y-90747786D01*
X132872715Y-90913386D01*
X132825485Y-91006080D01*
X132777510Y-91056876D01*
X132709689Y-91073671D01*
X132643554Y-91051134D01*
X132604515Y-91006080D01*
X132586131Y-90970000D01*
X132557287Y-90913390D01*
X132549556Y-90902749D01*
X132436971Y-90747786D01*
X132292213Y-90603028D01*
X132126613Y-90482715D01*
X132126612Y-90482714D01*
X132126610Y-90482713D01*
X132069653Y-90453691D01*
X131944223Y-90389781D01*
X131749534Y-90326522D01*
X131574995Y-90298878D01*
X131547352Y-90294500D01*
X131342648Y-90294500D01*
X131318329Y-90298351D01*
X131140465Y-90326522D01*
X130945776Y-90389781D01*
X130763386Y-90482715D01*
X130597786Y-90603028D01*
X130453028Y-90747786D01*
X130332715Y-90913386D01*
X130285485Y-91006080D01*
X130237510Y-91056876D01*
X130169689Y-91073671D01*
X130103554Y-91051134D01*
X130064515Y-91006080D01*
X130046131Y-90970000D01*
X130017287Y-90913390D01*
X130009556Y-90902749D01*
X129896971Y-90747786D01*
X129752213Y-90603028D01*
X129586613Y-90482715D01*
X129586612Y-90482714D01*
X129586610Y-90482713D01*
X129529653Y-90453691D01*
X129404223Y-90389781D01*
X129209534Y-90326522D01*
X129034995Y-90298878D01*
X129007352Y-90294500D01*
X128802648Y-90294500D01*
X128778329Y-90298351D01*
X128600465Y-90326522D01*
X128405776Y-90389781D01*
X128223386Y-90482715D01*
X128057786Y-90603028D01*
X127913028Y-90747786D01*
X127792715Y-90913386D01*
X127745485Y-91006080D01*
X127697510Y-91056876D01*
X127629689Y-91073671D01*
X127563554Y-91051134D01*
X127524515Y-91006080D01*
X127506131Y-90970000D01*
X127477287Y-90913390D01*
X127469556Y-90902749D01*
X127356971Y-90747786D01*
X127212213Y-90603028D01*
X127046613Y-90482715D01*
X127046612Y-90482714D01*
X127046610Y-90482713D01*
X126989653Y-90453691D01*
X126864223Y-90389781D01*
X126669534Y-90326522D01*
X126494995Y-90298878D01*
X126467352Y-90294500D01*
X126262648Y-90294500D01*
X126238329Y-90298351D01*
X126060465Y-90326522D01*
X125865776Y-90389781D01*
X125683386Y-90482715D01*
X125517786Y-90603028D01*
X125373028Y-90747786D01*
X125252715Y-90913386D01*
X125205485Y-91006080D01*
X125157510Y-91056876D01*
X125089689Y-91073671D01*
X125023554Y-91051134D01*
X124984515Y-91006080D01*
X124966131Y-90970000D01*
X124937287Y-90913390D01*
X124929556Y-90902749D01*
X124816971Y-90747786D01*
X124672213Y-90603028D01*
X124506613Y-90482715D01*
X124506612Y-90482714D01*
X124506610Y-90482713D01*
X124449653Y-90453691D01*
X124324223Y-90389781D01*
X124129534Y-90326522D01*
X123954995Y-90298878D01*
X123927352Y-90294500D01*
X123722648Y-90294500D01*
X123698329Y-90298351D01*
X123520465Y-90326522D01*
X123325776Y-90389781D01*
X123143386Y-90482715D01*
X122977786Y-90603028D01*
X122833028Y-90747786D01*
X122712715Y-90913386D01*
X122665485Y-91006080D01*
X122617510Y-91056876D01*
X122549689Y-91073671D01*
X122483554Y-91051134D01*
X122444515Y-91006080D01*
X122426131Y-90970000D01*
X122397287Y-90913390D01*
X122389556Y-90902749D01*
X122276971Y-90747786D01*
X122132213Y-90603028D01*
X121966613Y-90482715D01*
X121966612Y-90482714D01*
X121966610Y-90482713D01*
X121909653Y-90453691D01*
X121784223Y-90389781D01*
X121589534Y-90326522D01*
X121414995Y-90298878D01*
X121387352Y-90294500D01*
X121182648Y-90294500D01*
X121158329Y-90298351D01*
X120980465Y-90326522D01*
X120785776Y-90389781D01*
X120603386Y-90482715D01*
X120437786Y-90603028D01*
X120293028Y-90747786D01*
X120172715Y-90913386D01*
X120125485Y-91006080D01*
X120077510Y-91056876D01*
X120009689Y-91073671D01*
X119943554Y-91051134D01*
X119904515Y-91006080D01*
X119886131Y-90970000D01*
X119857287Y-90913390D01*
X119823829Y-90867339D01*
X119748635Y-90763841D01*
X119727336Y-90715149D01*
X119707051Y-90613165D01*
X119667359Y-90517339D01*
X119631635Y-90431092D01*
X119631628Y-90431079D01*
X119522139Y-90267218D01*
X119522136Y-90267214D01*
X119382785Y-90127863D01*
X119382781Y-90127860D01*
X119218920Y-90018371D01*
X119218907Y-90018364D01*
X119036839Y-89942950D01*
X119036829Y-89942947D01*
X118843543Y-89904500D01*
X118843541Y-89904500D01*
X118646459Y-89904500D01*
X118646457Y-89904500D01*
X118453170Y-89942947D01*
X118453160Y-89942950D01*
X118271092Y-90018364D01*
X118271079Y-90018371D01*
X118107218Y-90127860D01*
X118107214Y-90127863D01*
X117967863Y-90267214D01*
X117967860Y-90267218D01*
X117858371Y-90431079D01*
X117858364Y-90431092D01*
X117782950Y-90613160D01*
X117782947Y-90613170D01*
X117762662Y-90715151D01*
X117741363Y-90763844D01*
X117632715Y-90913386D01*
X117539781Y-91095776D01*
X117476522Y-91290465D01*
X117444500Y-91492648D01*
X117444500Y-92497351D01*
X117476522Y-92699534D01*
X117539781Y-92894223D01*
X117632713Y-93076610D01*
X117720819Y-93197877D01*
X117744298Y-93263681D01*
X117744500Y-93270761D01*
X117744500Y-94274696D01*
X117724815Y-94341735D01*
X117672011Y-94387490D01*
X117620500Y-94398696D01*
X112620784Y-94398696D01*
X112553745Y-94379011D01*
X112533103Y-94362377D01*
X112408589Y-94237863D01*
X112408585Y-94237860D01*
X112244724Y-94128371D01*
X112244715Y-94128366D01*
X112172119Y-94098296D01*
X112115969Y-94075038D01*
X112062640Y-94052949D01*
X112062636Y-94052948D01*
X112062632Y-94052946D01*
X111965992Y-94033724D01*
X111869348Y-94014500D01*
X111869345Y-94014500D01*
X111524500Y-94014500D01*
X111457461Y-93994815D01*
X111411706Y-93942011D01*
X111400500Y-93890500D01*
X111400500Y-91994499D01*
X111420185Y-91927460D01*
X111472989Y-91881705D01*
X111524500Y-91870499D01*
X111597871Y-91870499D01*
X111597872Y-91870499D01*
X111657483Y-91864091D01*
X111792331Y-91813796D01*
X111907546Y-91727546D01*
X111993796Y-91612331D01*
X112044091Y-91477483D01*
X112050500Y-91417873D01*
X112050499Y-90569997D01*
X112945034Y-90569997D01*
X112945034Y-90570002D01*
X112964858Y-90796599D01*
X112964860Y-90796610D01*
X113023730Y-91016317D01*
X113023735Y-91016331D01*
X113119863Y-91222478D01*
X113170974Y-91295472D01*
X113850000Y-90616446D01*
X113850000Y-90622661D01*
X113877259Y-90724394D01*
X113929920Y-90815606D01*
X114004394Y-90890080D01*
X114095606Y-90942741D01*
X114197339Y-90970000D01*
X114203553Y-90970000D01*
X113524526Y-91649025D01*
X113597513Y-91700132D01*
X113597521Y-91700136D01*
X113803668Y-91796264D01*
X113803682Y-91796269D01*
X114023389Y-91855139D01*
X114023400Y-91855141D01*
X114249998Y-91874966D01*
X114250002Y-91874966D01*
X114476599Y-91855141D01*
X114476610Y-91855139D01*
X114696317Y-91796269D01*
X114696331Y-91796264D01*
X114902478Y-91700136D01*
X114975471Y-91649024D01*
X114296447Y-90970000D01*
X114302661Y-90970000D01*
X114404394Y-90942741D01*
X114495606Y-90890080D01*
X114570080Y-90815606D01*
X114622741Y-90724394D01*
X114650000Y-90622661D01*
X114650000Y-90616447D01*
X115329024Y-91295471D01*
X115380136Y-91222478D01*
X115476264Y-91016331D01*
X115476269Y-91016317D01*
X115535139Y-90796610D01*
X115535141Y-90796599D01*
X115554966Y-90570002D01*
X115554966Y-90569997D01*
X115535141Y-90343400D01*
X115535139Y-90343389D01*
X115476269Y-90123682D01*
X115476264Y-90123668D01*
X115380136Y-89917521D01*
X115380132Y-89917513D01*
X115329025Y-89844526D01*
X114650000Y-90523551D01*
X114650000Y-90517339D01*
X114622741Y-90415606D01*
X114570080Y-90324394D01*
X114495606Y-90249920D01*
X114404394Y-90197259D01*
X114302661Y-90170000D01*
X114296448Y-90170000D01*
X114975472Y-89490974D01*
X114902478Y-89439863D01*
X114696331Y-89343735D01*
X114696317Y-89343730D01*
X114476610Y-89284860D01*
X114476599Y-89284858D01*
X114250002Y-89265034D01*
X114249998Y-89265034D01*
X114023400Y-89284858D01*
X114023389Y-89284860D01*
X113803682Y-89343730D01*
X113803673Y-89343734D01*
X113597516Y-89439866D01*
X113597512Y-89439868D01*
X113524526Y-89490973D01*
X113524526Y-89490974D01*
X114203553Y-90170000D01*
X114197339Y-90170000D01*
X114095606Y-90197259D01*
X114004394Y-90249920D01*
X113929920Y-90324394D01*
X113877259Y-90415606D01*
X113850000Y-90517339D01*
X113850000Y-90523552D01*
X113170974Y-89844526D01*
X113170973Y-89844526D01*
X113119868Y-89917512D01*
X113119866Y-89917516D01*
X113023734Y-90123673D01*
X113023730Y-90123682D01*
X112964860Y-90343389D01*
X112964858Y-90343400D01*
X112945034Y-90569997D01*
X112050499Y-90569997D01*
X112050499Y-89722128D01*
X112044091Y-89662517D01*
X112042326Y-89657786D01*
X111993797Y-89527671D01*
X111993793Y-89527664D01*
X111907547Y-89412455D01*
X111907544Y-89412452D01*
X111792335Y-89326206D01*
X111792328Y-89326202D01*
X111657482Y-89275908D01*
X111657483Y-89275908D01*
X111597883Y-89269501D01*
X111597881Y-89269500D01*
X111597873Y-89269500D01*
X111597865Y-89269500D01*
X111524500Y-89269500D01*
X111457461Y-89249815D01*
X111411706Y-89197011D01*
X111400500Y-89145500D01*
X111400500Y-77124500D01*
X111420185Y-77057461D01*
X111472989Y-77011706D01*
X111524500Y-77000500D01*
X113238718Y-77000500D01*
X113305757Y-77020185D01*
X113351512Y-77072989D01*
X113361191Y-77105102D01*
X113379418Y-77220185D01*
X113382754Y-77241243D01*
X113438295Y-77412181D01*
X113448444Y-77443414D01*
X113544951Y-77632820D01*
X113672759Y-77808734D01*
X113671888Y-77809366D01*
X113698357Y-77868401D01*
X113699500Y-77885199D01*
X113699500Y-78914800D01*
X113679815Y-78981839D01*
X113670506Y-78994365D01*
X113544951Y-79167179D01*
X113448444Y-79356585D01*
X113448443Y-79356587D01*
X113448443Y-79356588D01*
X113426068Y-79425450D01*
X113382753Y-79558760D01*
X113349500Y-79768713D01*
X113349500Y-80231286D01*
X113377121Y-80405682D01*
X113382754Y-80441243D01*
X113441387Y-80621697D01*
X113448444Y-80643414D01*
X113544951Y-80832820D01*
X113669890Y-81004786D01*
X113820213Y-81155109D01*
X113992179Y-81280048D01*
X113992181Y-81280049D01*
X113992184Y-81280051D01*
X114181588Y-81376557D01*
X114383757Y-81442246D01*
X114593713Y-81475500D01*
X114593714Y-81475500D01*
X114806286Y-81475500D01*
X114806287Y-81475500D01*
X115016243Y-81442246D01*
X115218412Y-81376557D01*
X115407816Y-81280051D01*
X115475924Y-81230568D01*
X115579786Y-81155109D01*
X115579788Y-81155106D01*
X115579792Y-81155104D01*
X115730104Y-81004792D01*
X115849991Y-80839779D01*
X115905320Y-80797115D01*
X115974933Y-80791136D01*
X116036729Y-80823741D01*
X116050627Y-80839781D01*
X116170272Y-81004459D01*
X116170276Y-81004464D01*
X116320535Y-81154723D01*
X116320540Y-81154727D01*
X116492442Y-81279620D01*
X116681782Y-81376095D01*
X116883871Y-81441757D01*
X116950000Y-81452231D01*
X116950000Y-80404145D01*
X117016657Y-80442630D01*
X117137465Y-80475000D01*
X117262535Y-80475000D01*
X117383343Y-80442630D01*
X117450000Y-80404145D01*
X117450000Y-81452230D01*
X117516126Y-81441757D01*
X117516129Y-81441757D01*
X117718217Y-81376095D01*
X117907557Y-81279620D01*
X118079459Y-81154727D01*
X118079464Y-81154723D01*
X118229721Y-81004466D01*
X118349371Y-80839781D01*
X118404701Y-80797115D01*
X118474314Y-80791136D01*
X118536110Y-80823741D01*
X118550008Y-80839781D01*
X118669890Y-81004785D01*
X118669894Y-81004790D01*
X118820213Y-81155109D01*
X118992179Y-81280048D01*
X118992181Y-81280049D01*
X118992184Y-81280051D01*
X119181588Y-81376557D01*
X119383757Y-81442246D01*
X119593713Y-81475500D01*
X119593714Y-81475500D01*
X119806286Y-81475500D01*
X119806287Y-81475500D01*
X120016243Y-81442246D01*
X120218412Y-81376557D01*
X120407816Y-81280051D01*
X120475924Y-81230568D01*
X120579786Y-81155109D01*
X120579788Y-81155106D01*
X120579792Y-81155104D01*
X120730104Y-81004792D01*
X120849683Y-80840204D01*
X120905011Y-80797540D01*
X120974624Y-80791561D01*
X121036420Y-80824166D01*
X121050313Y-80840199D01*
X121162977Y-80995269D01*
X121169896Y-81004792D01*
X121320213Y-81155109D01*
X121492179Y-81280048D01*
X121492181Y-81280049D01*
X121492184Y-81280051D01*
X121681588Y-81376557D01*
X121883757Y-81442246D01*
X122093713Y-81475500D01*
X122093714Y-81475500D01*
X122306286Y-81475500D01*
X122306287Y-81475500D01*
X122516243Y-81442246D01*
X122718412Y-81376557D01*
X122907816Y-81280051D01*
X122975924Y-81230568D01*
X123079786Y-81155109D01*
X123079788Y-81155106D01*
X123079792Y-81155104D01*
X123230104Y-81004792D01*
X123349683Y-80840204D01*
X123405011Y-80797540D01*
X123474624Y-80791561D01*
X123536420Y-80824166D01*
X123550313Y-80840199D01*
X123662977Y-80995269D01*
X123669896Y-81004792D01*
X123820213Y-81155109D01*
X123992179Y-81280048D01*
X123992181Y-81280049D01*
X123992184Y-81280051D01*
X124181588Y-81376557D01*
X124383757Y-81442246D01*
X124593713Y-81475500D01*
X124593714Y-81475500D01*
X124806286Y-81475500D01*
X124806287Y-81475500D01*
X125016243Y-81442246D01*
X125218412Y-81376557D01*
X125407816Y-81280051D01*
X125535087Y-81187584D01*
X125579784Y-81155110D01*
X125579784Y-81155109D01*
X125579792Y-81155104D01*
X125718604Y-81016291D01*
X125779923Y-80982809D01*
X125849615Y-80987793D01*
X125905549Y-81029664D01*
X125911821Y-81038878D01*
X125915185Y-81044333D01*
X125915186Y-81044334D01*
X126007288Y-81193656D01*
X126131344Y-81317712D01*
X126280666Y-81409814D01*
X126447203Y-81464999D01*
X126549991Y-81475500D01*
X127850008Y-81475499D01*
X127952797Y-81464999D01*
X128119334Y-81409814D01*
X128268656Y-81317712D01*
X128392712Y-81193656D01*
X128484814Y-81044334D01*
X128539999Y-80877797D01*
X128550500Y-80775009D01*
X128550499Y-79224992D01*
X128548851Y-79208863D01*
X128539999Y-79122203D01*
X128539998Y-79122200D01*
X128533391Y-79102262D01*
X128484814Y-78955666D01*
X128392712Y-78806344D01*
X128268656Y-78682288D01*
X128173167Y-78623390D01*
X128119336Y-78590187D01*
X128119331Y-78590185D01*
X128085749Y-78579057D01*
X127952797Y-78535001D01*
X127952795Y-78535000D01*
X127850010Y-78524500D01*
X126549998Y-78524500D01*
X126549981Y-78524501D01*
X126447203Y-78535000D01*
X126447200Y-78535001D01*
X126280668Y-78590185D01*
X126280663Y-78590187D01*
X126131342Y-78682289D01*
X126007289Y-78806342D01*
X125911821Y-78961121D01*
X125859873Y-79007845D01*
X125790910Y-79019068D01*
X125726828Y-78991224D01*
X125718601Y-78983705D01*
X125579786Y-78844890D01*
X125407815Y-78719948D01*
X125407814Y-78719947D01*
X125368205Y-78699765D01*
X125317409Y-78651791D01*
X125300500Y-78589281D01*
X125300500Y-78210718D01*
X125320185Y-78143679D01*
X125368207Y-78100233D01*
X125407815Y-78080052D01*
X125407815Y-78080051D01*
X125407816Y-78080051D01*
X125579792Y-77955104D01*
X125718604Y-77816291D01*
X125779923Y-77782809D01*
X125849615Y-77787793D01*
X125905549Y-77829664D01*
X125911821Y-77838878D01*
X125915185Y-77844333D01*
X125915186Y-77844334D01*
X126007288Y-77993656D01*
X126131344Y-78117712D01*
X126280666Y-78209814D01*
X126447203Y-78264999D01*
X126549991Y-78275500D01*
X127850008Y-78275499D01*
X127952797Y-78264999D01*
X128119334Y-78209814D01*
X128268656Y-78117712D01*
X128392712Y-77993656D01*
X128484814Y-77844334D01*
X128539999Y-77677797D01*
X128550500Y-77575009D01*
X128550499Y-76024992D01*
X128548851Y-76008863D01*
X128539999Y-75922203D01*
X128539998Y-75922200D01*
X128533125Y-75901459D01*
X128484814Y-75755666D01*
X128392712Y-75606344D01*
X128268656Y-75482288D01*
X128173998Y-75423903D01*
X128119336Y-75390187D01*
X128119331Y-75390185D01*
X128116603Y-75389281D01*
X127952797Y-75335001D01*
X127952795Y-75335000D01*
X127850010Y-75324500D01*
X126549998Y-75324500D01*
X126549981Y-75324501D01*
X126447203Y-75335000D01*
X126447200Y-75335001D01*
X126280668Y-75390185D01*
X126280663Y-75390187D01*
X126131342Y-75482289D01*
X126007289Y-75606342D01*
X125911821Y-75761121D01*
X125859873Y-75807845D01*
X125790910Y-75819068D01*
X125726828Y-75791224D01*
X125718601Y-75783705D01*
X125579786Y-75644890D01*
X125407815Y-75519948D01*
X125407814Y-75519947D01*
X125368205Y-75499765D01*
X125317409Y-75451791D01*
X125300500Y-75389281D01*
X125300500Y-75000097D01*
X125320185Y-74933058D01*
X125336819Y-74912416D01*
X126712416Y-73536819D01*
X126773739Y-73503334D01*
X126800097Y-73500500D01*
X133305903Y-73500500D01*
X133372942Y-73520185D01*
X133393584Y-73536819D01*
X137721139Y-77864374D01*
X137721149Y-77864385D01*
X137725479Y-77868715D01*
X137725480Y-77868716D01*
X137837284Y-77980520D01*
X137837286Y-77980521D01*
X137837290Y-77980524D01*
X137974209Y-78059573D01*
X137974216Y-78059577D01*
X138086019Y-78089534D01*
X138126942Y-78100500D01*
X138126943Y-78100500D01*
X141299903Y-78100500D01*
X141366942Y-78120185D01*
X141387584Y-78136819D01*
X141603181Y-78352416D01*
X141636666Y-78413739D01*
X141639500Y-78440097D01*
X141639500Y-80753330D01*
X141639499Y-80753348D01*
X141639499Y-80919054D01*
X141639498Y-80919054D01*
X141639499Y-80919057D01*
X141680423Y-81071785D01*
X141703401Y-81111584D01*
X141759477Y-81208712D01*
X141759481Y-81208717D01*
X141878349Y-81327585D01*
X141878355Y-81327590D01*
X142243923Y-81693158D01*
X142277408Y-81754481D01*
X142272424Y-81824173D01*
X142230552Y-81880106D01*
X142229127Y-81881157D01*
X142212787Y-81893028D01*
X142212782Y-81893032D01*
X142068028Y-82037786D01*
X141947713Y-82203388D01*
X141900203Y-82296630D01*
X141852228Y-82347426D01*
X141784407Y-82364220D01*
X141718272Y-82341682D01*
X141679234Y-82296628D01*
X141631861Y-82203652D01*
X141511582Y-82038105D01*
X141511582Y-82038104D01*
X141366895Y-81893417D01*
X141201349Y-81773140D01*
X141019029Y-81680244D01*
X140824413Y-81617009D01*
X140770000Y-81608390D01*
X140770000Y-82969314D01*
X140765606Y-82964920D01*
X140674394Y-82912259D01*
X140572661Y-82885000D01*
X140467339Y-82885000D01*
X140365606Y-82912259D01*
X140274394Y-82964920D01*
X140270000Y-82969314D01*
X140270000Y-81608390D01*
X140215586Y-81617009D01*
X140020970Y-81680244D01*
X139838650Y-81773140D01*
X139673105Y-81893417D01*
X139673104Y-81893417D01*
X139528417Y-82038104D01*
X139528417Y-82038105D01*
X139408140Y-82203650D01*
X139315244Y-82385968D01*
X139252011Y-82580578D01*
X139220000Y-82782682D01*
X139220000Y-83035000D01*
X140204314Y-83035000D01*
X140199920Y-83039394D01*
X140147259Y-83130606D01*
X140120000Y-83232339D01*
X140120000Y-83337661D01*
X140147259Y-83439394D01*
X140199920Y-83530606D01*
X140204314Y-83535000D01*
X139220000Y-83535000D01*
X139220000Y-83787317D01*
X139252009Y-83989417D01*
X139315244Y-84184031D01*
X139408140Y-84366349D01*
X139528417Y-84531894D01*
X139528417Y-84531895D01*
X139673104Y-84676582D01*
X139838650Y-84796859D01*
X140020968Y-84889754D01*
X140215578Y-84952988D01*
X140270000Y-84961607D01*
X140270000Y-83600686D01*
X140274394Y-83605080D01*
X140365606Y-83657741D01*
X140467339Y-83685000D01*
X140572661Y-83685000D01*
X140674394Y-83657741D01*
X140765606Y-83605080D01*
X140770000Y-83600686D01*
X140770000Y-84961606D01*
X140824421Y-84952988D01*
X141019031Y-84889754D01*
X141201349Y-84796859D01*
X141366894Y-84676582D01*
X141366895Y-84676582D01*
X141511582Y-84531895D01*
X141511582Y-84531894D01*
X141631861Y-84366347D01*
X141679234Y-84273371D01*
X141727208Y-84222575D01*
X141795028Y-84205779D01*
X141861164Y-84228316D01*
X141900203Y-84273369D01*
X141947713Y-84366611D01*
X142068028Y-84532213D01*
X142212786Y-84676971D01*
X142310195Y-84747741D01*
X142378390Y-84797287D01*
X142467212Y-84842544D01*
X142560776Y-84890218D01*
X142560778Y-84890218D01*
X142560781Y-84890220D01*
X142665137Y-84924127D01*
X142755465Y-84953477D01*
X142856557Y-84969488D01*
X142957648Y-84985500D01*
X142957649Y-84985500D01*
X143162351Y-84985500D01*
X143162352Y-84985500D01*
X143364534Y-84953477D01*
X143559219Y-84890220D01*
X143741610Y-84797287D01*
X143837901Y-84727328D01*
X143907213Y-84676971D01*
X143907215Y-84676968D01*
X143907219Y-84676966D01*
X144051966Y-84532219D01*
X144051968Y-84532215D01*
X144051971Y-84532213D01*
X144172284Y-84366614D01*
X144172286Y-84366611D01*
X144172287Y-84366610D01*
X144219516Y-84273917D01*
X144267489Y-84223123D01*
X144335310Y-84206328D01*
X144401445Y-84228865D01*
X144440483Y-84273917D01*
X144465156Y-84322339D01*
X144487715Y-84366614D01*
X144608028Y-84532213D01*
X144752786Y-84676971D01*
X144850195Y-84747741D01*
X144918390Y-84797287D01*
X145007212Y-84842544D01*
X145100776Y-84890218D01*
X145100778Y-84890218D01*
X145100781Y-84890220D01*
X145205137Y-84924127D01*
X145295465Y-84953477D01*
X145396557Y-84969488D01*
X145497648Y-84985500D01*
X145497649Y-84985500D01*
X145702351Y-84985500D01*
X145702352Y-84985500D01*
X145904534Y-84953477D01*
X146099219Y-84890220D01*
X146281610Y-84797287D01*
X146377901Y-84727328D01*
X146447213Y-84676971D01*
X146447215Y-84676968D01*
X146447219Y-84676966D01*
X146591966Y-84532219D01*
X146591968Y-84532215D01*
X146591971Y-84532213D01*
X146712284Y-84366614D01*
X146712286Y-84366611D01*
X146712287Y-84366610D01*
X146759516Y-84273917D01*
X146807489Y-84223123D01*
X146875310Y-84206328D01*
X146941445Y-84228865D01*
X146980483Y-84273917D01*
X147005156Y-84322339D01*
X147027715Y-84366614D01*
X147148028Y-84532213D01*
X147292786Y-84676971D01*
X147390195Y-84747741D01*
X147458390Y-84797287D01*
X147547212Y-84842544D01*
X147640776Y-84890218D01*
X147640778Y-84890218D01*
X147640781Y-84890220D01*
X147745137Y-84924127D01*
X147835465Y-84953477D01*
X147936557Y-84969488D01*
X148037648Y-84985500D01*
X148037649Y-84985500D01*
X148242351Y-84985500D01*
X148242352Y-84985500D01*
X148444534Y-84953477D01*
X148639219Y-84890220D01*
X148821610Y-84797287D01*
X148917901Y-84727328D01*
X148987213Y-84676971D01*
X148987215Y-84676968D01*
X148987219Y-84676966D01*
X149131966Y-84532219D01*
X149131968Y-84532215D01*
X149131971Y-84532213D01*
X149252284Y-84366614D01*
X149252286Y-84366611D01*
X149252287Y-84366610D01*
X149299516Y-84273917D01*
X149347489Y-84223123D01*
X149415310Y-84206328D01*
X149481445Y-84228865D01*
X149520483Y-84273917D01*
X149545156Y-84322339D01*
X149567715Y-84366614D01*
X149688028Y-84532213D01*
X149832786Y-84676971D01*
X149930195Y-84747741D01*
X149998390Y-84797287D01*
X150087212Y-84842544D01*
X150180776Y-84890218D01*
X150180778Y-84890218D01*
X150180781Y-84890220D01*
X150285137Y-84924127D01*
X150375465Y-84953477D01*
X150476557Y-84969488D01*
X150577648Y-84985500D01*
X150577649Y-84985500D01*
X150782351Y-84985500D01*
X150782352Y-84985500D01*
X150984534Y-84953477D01*
X151179219Y-84890220D01*
X151361610Y-84797287D01*
X151457901Y-84727328D01*
X151527213Y-84676971D01*
X151527215Y-84676968D01*
X151527219Y-84676966D01*
X151671966Y-84532219D01*
X151671968Y-84532215D01*
X151671971Y-84532213D01*
X151792284Y-84366614D01*
X151792286Y-84366611D01*
X151792287Y-84366610D01*
X151839516Y-84273917D01*
X151887489Y-84223123D01*
X151955310Y-84206328D01*
X152021445Y-84228865D01*
X152060483Y-84273917D01*
X152085156Y-84322339D01*
X152107715Y-84366614D01*
X152228028Y-84532213D01*
X152372786Y-84676971D01*
X152470195Y-84747741D01*
X152538390Y-84797287D01*
X152627212Y-84842544D01*
X152720776Y-84890218D01*
X152720778Y-84890218D01*
X152720781Y-84890220D01*
X152825137Y-84924127D01*
X152915465Y-84953477D01*
X153016557Y-84969488D01*
X153117648Y-84985500D01*
X153117649Y-84985500D01*
X153322351Y-84985500D01*
X153322352Y-84985500D01*
X153524534Y-84953477D01*
X153719219Y-84890220D01*
X153901610Y-84797287D01*
X153997901Y-84727328D01*
X154067213Y-84676971D01*
X154067215Y-84676968D01*
X154067219Y-84676966D01*
X154211966Y-84532219D01*
X154211968Y-84532215D01*
X154211971Y-84532213D01*
X154332284Y-84366614D01*
X154332286Y-84366611D01*
X154332287Y-84366610D01*
X154379516Y-84273917D01*
X154427489Y-84223123D01*
X154495310Y-84206328D01*
X154561445Y-84228865D01*
X154600483Y-84273917D01*
X154625156Y-84322339D01*
X154647715Y-84366614D01*
X154768028Y-84532213D01*
X154912786Y-84676971D01*
X155010195Y-84747741D01*
X155078390Y-84797287D01*
X155167212Y-84842544D01*
X155260776Y-84890218D01*
X155260778Y-84890218D01*
X155260781Y-84890220D01*
X155365137Y-84924127D01*
X155455465Y-84953477D01*
X155556557Y-84969488D01*
X155657648Y-84985500D01*
X155657649Y-84985500D01*
X155862351Y-84985500D01*
X155862352Y-84985500D01*
X156064534Y-84953477D01*
X156259219Y-84890220D01*
X156441610Y-84797287D01*
X156537901Y-84727328D01*
X156607213Y-84676971D01*
X156607215Y-84676968D01*
X156607219Y-84676966D01*
X156751966Y-84532219D01*
X156751968Y-84532215D01*
X156751971Y-84532213D01*
X156872284Y-84366614D01*
X156872286Y-84366611D01*
X156872287Y-84366610D01*
X156919516Y-84273917D01*
X156967489Y-84223123D01*
X157035310Y-84206328D01*
X157101445Y-84228865D01*
X157140483Y-84273917D01*
X157165156Y-84322339D01*
X157187715Y-84366614D01*
X157308028Y-84532213D01*
X157308034Y-84532219D01*
X157452781Y-84676966D01*
X157452785Y-84676969D01*
X157454354Y-84678309D01*
X157454786Y-84678971D01*
X157456226Y-84680411D01*
X157455923Y-84680713D01*
X157492547Y-84736816D01*
X157493045Y-84806684D01*
X157455692Y-84865730D01*
X157392345Y-84895208D01*
X157387706Y-84895819D01*
X157220749Y-84914630D01*
X157220745Y-84914631D01*
X157050476Y-84974211D01*
X156897737Y-85070184D01*
X156770184Y-85197737D01*
X156674211Y-85350476D01*
X156614631Y-85520745D01*
X156614630Y-85520750D01*
X156594435Y-85699996D01*
X156594435Y-85700003D01*
X156614630Y-85879249D01*
X156614631Y-85879254D01*
X156674211Y-86049523D01*
X156749557Y-86169435D01*
X156770184Y-86202262D01*
X156897738Y-86329816D01*
X157050478Y-86425789D01*
X157220745Y-86485368D01*
X157307669Y-86495161D01*
X157372080Y-86522226D01*
X157381465Y-86530700D01*
X157663181Y-86812416D01*
X157696666Y-86873739D01*
X157699500Y-86900097D01*
X157699500Y-89275397D01*
X157679815Y-89342436D01*
X157631800Y-89385879D01*
X157618389Y-89392712D01*
X157452786Y-89513028D01*
X157308028Y-89657786D01*
X157187715Y-89823386D01*
X157140485Y-89916080D01*
X157092510Y-89966876D01*
X157024689Y-89983671D01*
X156958554Y-89961134D01*
X156919515Y-89916080D01*
X156912171Y-89901666D01*
X156872287Y-89823390D01*
X156864556Y-89812749D01*
X156751971Y-89657786D01*
X156607213Y-89513028D01*
X156441610Y-89392712D01*
X156428200Y-89385879D01*
X156377406Y-89337903D01*
X156360500Y-89275397D01*
X156360500Y-87822940D01*
X156380185Y-87755901D01*
X156396819Y-87735259D01*
X156411096Y-87720982D01*
X156429816Y-87702262D01*
X156525789Y-87549522D01*
X156585368Y-87379255D01*
X156591392Y-87325789D01*
X156605565Y-87200003D01*
X156605565Y-87199996D01*
X156585369Y-87020750D01*
X156585368Y-87020745D01*
X156525788Y-86850476D01*
X156429815Y-86697737D01*
X156302262Y-86570184D01*
X156149523Y-86474211D01*
X155979254Y-86414631D01*
X155979249Y-86414630D01*
X155800004Y-86394435D01*
X155799996Y-86394435D01*
X155620750Y-86414630D01*
X155620745Y-86414631D01*
X155450476Y-86474211D01*
X155297737Y-86570184D01*
X155170184Y-86697737D01*
X155074211Y-86850476D01*
X155014631Y-87020745D01*
X155014630Y-87020750D01*
X154994435Y-87199996D01*
X154994435Y-87200003D01*
X155014630Y-87379249D01*
X155014631Y-87379254D01*
X155074211Y-87549524D01*
X155140493Y-87655009D01*
X155159500Y-87720982D01*
X155159500Y-89275397D01*
X155139815Y-89342436D01*
X155091800Y-89385879D01*
X155078389Y-89392712D01*
X154912786Y-89513028D01*
X154768028Y-89657786D01*
X154647715Y-89823386D01*
X154600485Y-89916080D01*
X154552510Y-89966876D01*
X154484689Y-89983671D01*
X154418554Y-89961134D01*
X154379515Y-89916080D01*
X154372171Y-89901666D01*
X154332287Y-89823390D01*
X154324556Y-89812749D01*
X154211971Y-89657786D01*
X154067213Y-89513028D01*
X153901610Y-89392712D01*
X153888200Y-89385879D01*
X153837406Y-89337903D01*
X153820500Y-89275397D01*
X153820500Y-88352812D01*
X153839506Y-88286840D01*
X153925789Y-88149522D01*
X153985368Y-87979255D01*
X153991392Y-87925789D01*
X154005565Y-87800003D01*
X154005565Y-87799996D01*
X153985369Y-87620750D01*
X153985368Y-87620745D01*
X153925788Y-87450476D01*
X153881033Y-87379249D01*
X153829816Y-87297738D01*
X153702262Y-87170184D01*
X153701624Y-87169783D01*
X153549523Y-87074211D01*
X153379254Y-87014631D01*
X153379249Y-87014630D01*
X153200004Y-86994435D01*
X153199996Y-86994435D01*
X153020750Y-87014630D01*
X153020745Y-87014631D01*
X152850476Y-87074211D01*
X152697737Y-87170184D01*
X152570184Y-87297737D01*
X152474211Y-87450476D01*
X152414631Y-87620745D01*
X152414630Y-87620750D01*
X152394435Y-87799996D01*
X152394435Y-87800003D01*
X152414630Y-87979249D01*
X152414631Y-87979254D01*
X152474211Y-88149523D01*
X152570184Y-88302262D01*
X152583181Y-88315259D01*
X152616666Y-88376582D01*
X152619500Y-88402940D01*
X152619500Y-89275397D01*
X152599815Y-89342436D01*
X152551800Y-89385879D01*
X152538389Y-89392712D01*
X152372786Y-89513028D01*
X152228028Y-89657786D01*
X152107715Y-89823386D01*
X152060485Y-89916080D01*
X152012510Y-89966876D01*
X151944689Y-89983671D01*
X151878554Y-89961134D01*
X151839515Y-89916080D01*
X151832171Y-89901666D01*
X151792287Y-89823390D01*
X151784556Y-89812749D01*
X151671971Y-89657786D01*
X151527213Y-89513028D01*
X151451615Y-89458104D01*
X151408949Y-89402775D01*
X151400500Y-89357786D01*
X151400500Y-88982412D01*
X151420185Y-88915373D01*
X151427555Y-88905097D01*
X151429810Y-88902267D01*
X151429816Y-88902262D01*
X151525789Y-88749522D01*
X151585368Y-88579255D01*
X151585847Y-88575003D01*
X151605565Y-88400003D01*
X151605565Y-88399996D01*
X151585369Y-88220750D01*
X151585368Y-88220745D01*
X151525788Y-88050476D01*
X151450735Y-87931030D01*
X151429816Y-87897738D01*
X151302262Y-87770184D01*
X151278509Y-87755259D01*
X151149523Y-87674211D01*
X150979254Y-87614631D01*
X150979249Y-87614630D01*
X150800004Y-87594435D01*
X150799996Y-87594435D01*
X150620750Y-87614630D01*
X150620745Y-87614631D01*
X150450476Y-87674211D01*
X150297737Y-87770184D01*
X150170184Y-87897737D01*
X150074211Y-88050476D01*
X150014631Y-88220745D01*
X150014630Y-88220750D01*
X149994435Y-88399996D01*
X149994435Y-88400003D01*
X150014630Y-88579249D01*
X150014631Y-88579254D01*
X150074211Y-88749523D01*
X150170185Y-88902263D01*
X150172445Y-88905097D01*
X150173334Y-88907275D01*
X150173889Y-88908158D01*
X150173734Y-88908255D01*
X150198855Y-88969783D01*
X150199500Y-88982412D01*
X150199500Y-89214254D01*
X150179815Y-89281293D01*
X150131795Y-89324739D01*
X149998386Y-89392715D01*
X149832786Y-89513028D01*
X149688028Y-89657786D01*
X149567715Y-89823386D01*
X149520485Y-89916080D01*
X149472510Y-89966876D01*
X149404689Y-89983671D01*
X149338554Y-89961134D01*
X149299515Y-89916080D01*
X149292171Y-89901666D01*
X149252287Y-89823390D01*
X149244556Y-89812749D01*
X149131971Y-89657786D01*
X148987213Y-89513028D01*
X148821610Y-89392712D01*
X148808200Y-89385879D01*
X148757406Y-89337903D01*
X148740500Y-89275397D01*
X148740500Y-89229060D01*
X148740501Y-89229047D01*
X148740501Y-89060944D01*
X148716074Y-88969783D01*
X148699577Y-88908216D01*
X148696140Y-88902263D01*
X148620524Y-88771290D01*
X148620518Y-88771282D01*
X147943717Y-88094481D01*
X147943709Y-88094475D01*
X147841936Y-88035717D01*
X147841934Y-88035716D01*
X147806790Y-88015425D01*
X147806789Y-88015424D01*
X147769995Y-88005565D01*
X147654057Y-87974499D01*
X147495943Y-87974499D01*
X147488347Y-87974499D01*
X147488331Y-87974500D01*
X145621843Y-87974500D01*
X145554804Y-87954815D01*
X145509049Y-87902011D01*
X145498623Y-87836617D01*
X145505565Y-87775003D01*
X145505565Y-87774996D01*
X145485369Y-87595750D01*
X145485368Y-87595745D01*
X145484910Y-87594435D01*
X145425789Y-87425478D01*
X145329816Y-87272738D01*
X145202262Y-87145184D01*
X145143336Y-87108158D01*
X145049523Y-87049211D01*
X144879254Y-86989631D01*
X144879249Y-86989630D01*
X144700004Y-86969435D01*
X144699996Y-86969435D01*
X144520750Y-86989630D01*
X144520745Y-86989631D01*
X144350476Y-87049211D01*
X144197736Y-87145185D01*
X144194903Y-87147445D01*
X144192724Y-87148334D01*
X144191842Y-87148889D01*
X144191744Y-87148734D01*
X144130217Y-87173855D01*
X144117588Y-87174500D01*
X143121843Y-87174500D01*
X143054804Y-87154815D01*
X143009049Y-87102011D01*
X142998623Y-87036617D01*
X143005565Y-86975003D01*
X143005565Y-86974996D01*
X142985369Y-86795750D01*
X142985368Y-86795745D01*
X142951074Y-86697738D01*
X142925789Y-86625478D01*
X142829816Y-86472738D01*
X142702262Y-86345184D01*
X142677804Y-86329816D01*
X142549523Y-86249211D01*
X142379254Y-86189631D01*
X142379249Y-86189630D01*
X142200004Y-86169435D01*
X142199996Y-86169435D01*
X142020750Y-86189630D01*
X142020745Y-86189631D01*
X141850476Y-86249211D01*
X141697736Y-86345185D01*
X141694903Y-86347445D01*
X141692724Y-86348334D01*
X141691842Y-86348889D01*
X141691744Y-86348734D01*
X141630217Y-86373855D01*
X141617588Y-86374500D01*
X127900098Y-86374500D01*
X127833059Y-86354815D01*
X127812417Y-86338181D01*
X127314391Y-85840155D01*
X127280906Y-85778832D01*
X127285890Y-85709140D01*
X127314390Y-85664793D01*
X127356966Y-85622219D01*
X127356968Y-85622215D01*
X127356971Y-85622213D01*
X127477284Y-85456614D01*
X127477286Y-85456611D01*
X127477287Y-85456610D01*
X127524516Y-85363917D01*
X127572489Y-85313123D01*
X127640310Y-85296328D01*
X127706445Y-85318865D01*
X127745485Y-85363919D01*
X127792715Y-85456614D01*
X127913028Y-85622213D01*
X128057786Y-85766971D01*
X128189964Y-85863002D01*
X128223390Y-85887287D01*
X128304499Y-85928614D01*
X128405776Y-85980218D01*
X128405778Y-85980218D01*
X128405781Y-85980220D01*
X128480818Y-86004601D01*
X128600465Y-86043477D01*
X128701557Y-86059488D01*
X128802648Y-86075500D01*
X128802649Y-86075500D01*
X129007351Y-86075500D01*
X129007352Y-86075500D01*
X129209534Y-86043477D01*
X129404219Y-85980220D01*
X129586610Y-85887287D01*
X129735887Y-85778832D01*
X129752213Y-85766971D01*
X129752215Y-85766968D01*
X129752219Y-85766966D01*
X129896966Y-85622219D01*
X129896968Y-85622215D01*
X129896971Y-85622213D01*
X130017284Y-85456614D01*
X130017286Y-85456611D01*
X130017287Y-85456610D01*
X130064516Y-85363917D01*
X130112489Y-85313123D01*
X130180310Y-85296328D01*
X130246445Y-85318865D01*
X130285485Y-85363919D01*
X130332715Y-85456614D01*
X130453028Y-85622213D01*
X130597786Y-85766971D01*
X130729964Y-85863002D01*
X130763390Y-85887287D01*
X130844499Y-85928614D01*
X130945776Y-85980218D01*
X130945778Y-85980218D01*
X130945781Y-85980220D01*
X131020818Y-86004601D01*
X131140465Y-86043477D01*
X131241557Y-86059488D01*
X131342648Y-86075500D01*
X131342649Y-86075500D01*
X131547351Y-86075500D01*
X131547352Y-86075500D01*
X131749534Y-86043477D01*
X131944219Y-85980220D01*
X132126610Y-85887287D01*
X132275887Y-85778832D01*
X132292213Y-85766971D01*
X132292215Y-85766968D01*
X132292219Y-85766966D01*
X132436966Y-85622219D01*
X132436968Y-85622215D01*
X132436971Y-85622213D01*
X132557284Y-85456614D01*
X132557286Y-85456611D01*
X132557287Y-85456610D01*
X132604516Y-85363917D01*
X132652489Y-85313123D01*
X132720310Y-85296328D01*
X132786445Y-85318865D01*
X132825485Y-85363919D01*
X132872715Y-85456614D01*
X132993028Y-85622213D01*
X133137786Y-85766971D01*
X133269964Y-85863002D01*
X133303390Y-85887287D01*
X133384499Y-85928614D01*
X133485776Y-85980218D01*
X133485778Y-85980218D01*
X133485781Y-85980220D01*
X133560818Y-86004601D01*
X133680465Y-86043477D01*
X133781557Y-86059488D01*
X133882648Y-86075500D01*
X133882649Y-86075500D01*
X134087351Y-86075500D01*
X134087352Y-86075500D01*
X134289534Y-86043477D01*
X134484219Y-85980220D01*
X134666610Y-85887287D01*
X134815887Y-85778832D01*
X134832213Y-85766971D01*
X134832215Y-85766968D01*
X134832219Y-85766966D01*
X134976966Y-85622219D01*
X135003330Y-85585930D01*
X135058658Y-85543265D01*
X135128271Y-85537284D01*
X135190067Y-85569889D01*
X135224426Y-85630726D01*
X135226938Y-85645559D01*
X135230907Y-85682480D01*
X135281202Y-85817328D01*
X135281206Y-85817335D01*
X135367452Y-85932544D01*
X135367455Y-85932547D01*
X135482664Y-86018793D01*
X135482671Y-86018797D01*
X135617517Y-86069091D01*
X135617516Y-86069091D01*
X135624444Y-86069835D01*
X135677127Y-86075500D01*
X137372872Y-86075499D01*
X137432483Y-86069091D01*
X137567331Y-86018796D01*
X137682546Y-85932546D01*
X137768796Y-85817331D01*
X137819091Y-85682483D01*
X137825500Y-85622873D01*
X137825499Y-83127128D01*
X137819091Y-83067517D01*
X137814196Y-83054394D01*
X137768797Y-82932671D01*
X137768793Y-82932664D01*
X137682547Y-82817455D01*
X137682544Y-82817452D01*
X137567335Y-82731206D01*
X137567328Y-82731202D01*
X137432482Y-82680908D01*
X137432483Y-82680908D01*
X137372883Y-82674501D01*
X137372881Y-82674500D01*
X137372873Y-82674500D01*
X137372864Y-82674500D01*
X135677129Y-82674500D01*
X135677123Y-82674501D01*
X135617516Y-82680908D01*
X135482671Y-82731202D01*
X135482664Y-82731206D01*
X135367455Y-82817452D01*
X135367452Y-82817455D01*
X135281206Y-82932664D01*
X135281202Y-82932671D01*
X135230908Y-83067516D01*
X135226939Y-83104440D01*
X135200201Y-83168991D01*
X135142809Y-83208839D01*
X135072983Y-83211332D01*
X135012895Y-83175679D01*
X135003332Y-83164070D01*
X134976967Y-83127782D01*
X134832213Y-82983028D01*
X134666613Y-82862715D01*
X134666612Y-82862714D01*
X134666610Y-82862713D01*
X134609653Y-82833691D01*
X134484223Y-82769781D01*
X134289534Y-82706522D01*
X134114995Y-82678878D01*
X134087352Y-82674500D01*
X133882648Y-82674500D01*
X133858329Y-82678351D01*
X133680465Y-82706522D01*
X133485776Y-82769781D01*
X133303386Y-82862715D01*
X133137786Y-82983028D01*
X132993028Y-83127786D01*
X132872715Y-83293386D01*
X132825485Y-83386080D01*
X132777510Y-83436876D01*
X132709689Y-83453671D01*
X132643554Y-83431134D01*
X132604515Y-83386080D01*
X132579844Y-83337661D01*
X132557287Y-83293390D01*
X132549556Y-83282749D01*
X132436971Y-83127786D01*
X132292213Y-82983028D01*
X132126613Y-82862715D01*
X132126612Y-82862714D01*
X132126610Y-82862713D01*
X132069653Y-82833691D01*
X131944223Y-82769781D01*
X131749534Y-82706522D01*
X131574995Y-82678878D01*
X131547352Y-82674500D01*
X131342648Y-82674500D01*
X131318329Y-82678351D01*
X131140465Y-82706522D01*
X130945776Y-82769781D01*
X130763386Y-82862715D01*
X130597786Y-82983028D01*
X130453028Y-83127786D01*
X130332715Y-83293386D01*
X130285485Y-83386080D01*
X130237510Y-83436876D01*
X130169689Y-83453671D01*
X130103554Y-83431134D01*
X130064515Y-83386080D01*
X130039844Y-83337661D01*
X130017287Y-83293390D01*
X130009556Y-83282749D01*
X129896971Y-83127786D01*
X129752213Y-82983028D01*
X129586613Y-82862715D01*
X129586612Y-82862714D01*
X129586610Y-82862713D01*
X129529653Y-82833691D01*
X129404223Y-82769781D01*
X129209534Y-82706522D01*
X129034995Y-82678878D01*
X129007352Y-82674500D01*
X128802648Y-82674500D01*
X128778329Y-82678351D01*
X128600465Y-82706522D01*
X128405776Y-82769781D01*
X128223386Y-82862715D01*
X128057786Y-82983028D01*
X127913028Y-83127786D01*
X127792715Y-83293386D01*
X127745485Y-83386080D01*
X127697510Y-83436876D01*
X127629689Y-83453671D01*
X127563554Y-83431134D01*
X127524515Y-83386080D01*
X127499844Y-83337661D01*
X127477287Y-83293390D01*
X127469556Y-83282749D01*
X127356971Y-83127786D01*
X127212213Y-82983028D01*
X127046613Y-82862715D01*
X127046612Y-82862714D01*
X127046610Y-82862713D01*
X126989653Y-82833691D01*
X126864223Y-82769781D01*
X126669534Y-82706522D01*
X126494995Y-82678878D01*
X126467352Y-82674500D01*
X126262648Y-82674500D01*
X126238329Y-82678351D01*
X126060465Y-82706522D01*
X125865776Y-82769781D01*
X125683386Y-82862715D01*
X125517786Y-82983028D01*
X125373028Y-83127786D01*
X125252715Y-83293386D01*
X125205485Y-83386080D01*
X125157510Y-83436876D01*
X125089689Y-83453671D01*
X125023554Y-83431134D01*
X124984515Y-83386080D01*
X124959844Y-83337661D01*
X124937287Y-83293390D01*
X124929556Y-83282749D01*
X124816971Y-83127786D01*
X124672213Y-82983028D01*
X124506613Y-82862715D01*
X124506612Y-82862714D01*
X124506610Y-82862713D01*
X124449653Y-82833691D01*
X124324223Y-82769781D01*
X124129534Y-82706522D01*
X123954995Y-82678878D01*
X123927352Y-82674500D01*
X123722648Y-82674500D01*
X123698329Y-82678351D01*
X123520465Y-82706522D01*
X123325776Y-82769781D01*
X123143386Y-82862715D01*
X122977786Y-82983028D01*
X122833028Y-83127786D01*
X122712715Y-83293386D01*
X122665485Y-83386080D01*
X122617510Y-83436876D01*
X122549689Y-83453671D01*
X122483554Y-83431134D01*
X122444515Y-83386080D01*
X122419844Y-83337661D01*
X122397287Y-83293390D01*
X122389556Y-83282749D01*
X122276971Y-83127786D01*
X122132213Y-82983028D01*
X121966613Y-82862715D01*
X121966612Y-82862714D01*
X121966610Y-82862713D01*
X121909653Y-82833691D01*
X121784223Y-82769781D01*
X121589534Y-82706522D01*
X121414995Y-82678878D01*
X121387352Y-82674500D01*
X121182648Y-82674500D01*
X121158329Y-82678351D01*
X120980465Y-82706522D01*
X120785776Y-82769781D01*
X120603386Y-82862715D01*
X120437786Y-82983028D01*
X120293028Y-83127786D01*
X120172713Y-83293388D01*
X120125203Y-83386630D01*
X120077228Y-83437426D01*
X120009407Y-83454220D01*
X119943272Y-83431682D01*
X119904234Y-83386628D01*
X119856861Y-83293652D01*
X119736582Y-83128105D01*
X119736582Y-83128104D01*
X119591895Y-82983417D01*
X119426349Y-82863140D01*
X119244029Y-82770244D01*
X119049413Y-82707009D01*
X118995000Y-82698390D01*
X118995000Y-84059314D01*
X118990606Y-84054920D01*
X118899394Y-84002259D01*
X118797661Y-83975000D01*
X118692339Y-83975000D01*
X118590606Y-84002259D01*
X118499394Y-84054920D01*
X118495000Y-84059314D01*
X118495000Y-82698390D01*
X118440586Y-82707009D01*
X118245970Y-82770244D01*
X118063650Y-82863140D01*
X117898105Y-82983417D01*
X117898104Y-82983417D01*
X117753417Y-83128104D01*
X117753417Y-83128105D01*
X117633140Y-83293650D01*
X117540244Y-83475968D01*
X117477009Y-83670582D01*
X117445000Y-83872682D01*
X117445000Y-84125000D01*
X118429314Y-84125000D01*
X118424920Y-84129394D01*
X118372259Y-84220606D01*
X118345000Y-84322339D01*
X118345000Y-84427661D01*
X118372259Y-84529394D01*
X118424920Y-84620606D01*
X118429314Y-84625000D01*
X117445000Y-84625000D01*
X117445000Y-84877317D01*
X117477009Y-85079417D01*
X117540244Y-85274031D01*
X117633140Y-85456349D01*
X117753417Y-85621894D01*
X117753417Y-85621895D01*
X117898104Y-85766582D01*
X118063650Y-85886859D01*
X118245968Y-85979754D01*
X118440578Y-86042988D01*
X118495000Y-86051607D01*
X118495000Y-84690686D01*
X118499394Y-84695080D01*
X118590606Y-84747741D01*
X118692339Y-84775000D01*
X118797661Y-84775000D01*
X118899394Y-84747741D01*
X118990606Y-84695080D01*
X118995000Y-84690686D01*
X118995000Y-86051606D01*
X119049421Y-86042988D01*
X119244031Y-85979754D01*
X119426349Y-85886859D01*
X119591894Y-85766582D01*
X119591895Y-85766582D01*
X119736582Y-85621895D01*
X119736582Y-85621894D01*
X119856861Y-85456347D01*
X119904234Y-85363371D01*
X119952208Y-85312575D01*
X120020028Y-85295779D01*
X120086164Y-85318316D01*
X120125203Y-85363369D01*
X120172713Y-85456611D01*
X120293028Y-85622213D01*
X120437786Y-85766971D01*
X120569964Y-85863002D01*
X120603390Y-85887287D01*
X120684499Y-85928614D01*
X120785776Y-85980218D01*
X120785778Y-85980218D01*
X120785781Y-85980220D01*
X120860818Y-86004601D01*
X120980465Y-86043477D01*
X121081557Y-86059488D01*
X121182648Y-86075500D01*
X121182649Y-86075500D01*
X121387351Y-86075500D01*
X121387352Y-86075500D01*
X121589534Y-86043477D01*
X121784219Y-85980220D01*
X121966610Y-85887287D01*
X122115887Y-85778832D01*
X122132213Y-85766971D01*
X122132215Y-85766968D01*
X122132219Y-85766966D01*
X122276966Y-85622219D01*
X122276968Y-85622215D01*
X122276971Y-85622213D01*
X122397284Y-85456614D01*
X122397286Y-85456611D01*
X122397287Y-85456610D01*
X122444516Y-85363917D01*
X122492489Y-85313123D01*
X122560310Y-85296328D01*
X122626445Y-85318865D01*
X122665485Y-85363919D01*
X122712715Y-85456614D01*
X122833028Y-85622213D01*
X122833034Y-85622219D01*
X122977781Y-85766966D01*
X123143390Y-85887287D01*
X123156793Y-85894116D01*
X123207589Y-85942088D01*
X123224500Y-86004601D01*
X123224500Y-86113330D01*
X123224499Y-86113348D01*
X123224499Y-86279054D01*
X123224498Y-86279054D01*
X123265423Y-86431785D01*
X123289067Y-86472738D01*
X123289918Y-86474211D01*
X123322532Y-86530700D01*
X123344479Y-86568714D01*
X123344481Y-86568717D01*
X123463349Y-86687585D01*
X123463355Y-86687590D01*
X124481542Y-87705777D01*
X124515027Y-87767100D01*
X124510043Y-87836792D01*
X124468171Y-87892725D01*
X124402707Y-87917142D01*
X124334434Y-87902290D01*
X124327889Y-87898452D01*
X124249523Y-87849211D01*
X124079254Y-87789631D01*
X124079249Y-87789630D01*
X123900004Y-87769435D01*
X123899996Y-87769435D01*
X123720750Y-87789630D01*
X123720745Y-87789631D01*
X123550476Y-87849211D01*
X123397737Y-87945184D01*
X123270184Y-88072737D01*
X123174211Y-88225476D01*
X123114631Y-88395745D01*
X123114630Y-88395750D01*
X123094435Y-88574996D01*
X123094435Y-88575003D01*
X123114630Y-88754249D01*
X123114631Y-88754254D01*
X123174211Y-88924523D01*
X123259930Y-89060943D01*
X123270184Y-89077262D01*
X123397738Y-89204816D01*
X123476404Y-89254245D01*
X123548873Y-89299781D01*
X123550478Y-89300789D01*
X123695073Y-89351385D01*
X123720745Y-89360368D01*
X123720750Y-89360369D01*
X123899996Y-89380565D01*
X123900000Y-89380565D01*
X123900004Y-89380565D01*
X124079249Y-89360369D01*
X124079252Y-89360368D01*
X124079255Y-89360368D01*
X124249522Y-89300789D01*
X124402262Y-89204816D01*
X124402267Y-89204810D01*
X124405097Y-89202555D01*
X124407275Y-89201665D01*
X124408158Y-89201111D01*
X124408255Y-89201265D01*
X124469783Y-89176145D01*
X124482412Y-89175500D01*
X139755725Y-89175500D01*
X139822764Y-89195185D01*
X139868519Y-89247989D01*
X139878463Y-89317147D01*
X139849438Y-89380703D01*
X139828612Y-89399816D01*
X139770216Y-89442244D01*
X139672780Y-89513034D01*
X139528028Y-89657786D01*
X139407715Y-89823386D01*
X139314781Y-90005776D01*
X139251522Y-90200465D01*
X139219500Y-90402648D01*
X139219500Y-91407351D01*
X139251522Y-91609534D01*
X139314781Y-91804223D01*
X139407715Y-91986613D01*
X139528028Y-92152213D01*
X139672786Y-92296971D01*
X139827749Y-92409556D01*
X139838390Y-92417287D01*
X139954607Y-92476503D01*
X140020776Y-92510218D01*
X140020778Y-92510218D01*
X140020781Y-92510220D01*
X140125137Y-92544127D01*
X140215465Y-92573477D01*
X140316557Y-92589488D01*
X140417648Y-92605500D01*
X140417649Y-92605500D01*
X140622351Y-92605500D01*
X140622352Y-92605500D01*
X140824534Y-92573477D01*
X141019219Y-92510220D01*
X141201610Y-92417287D01*
X141294590Y-92349732D01*
X141367213Y-92296971D01*
X141367215Y-92296968D01*
X141367219Y-92296966D01*
X141511966Y-92152219D01*
X141511968Y-92152215D01*
X141511971Y-92152213D01*
X141632284Y-91986614D01*
X141632285Y-91986613D01*
X141632287Y-91986610D01*
X141679516Y-91893917D01*
X141727489Y-91843123D01*
X141795310Y-91826328D01*
X141861445Y-91848865D01*
X141900483Y-91893917D01*
X141915001Y-91922409D01*
X141947715Y-91986614D01*
X142068028Y-92152213D01*
X142212786Y-92296971D01*
X142367749Y-92409556D01*
X142378390Y-92417287D01*
X142494607Y-92476503D01*
X142560776Y-92510218D01*
X142560778Y-92510218D01*
X142560781Y-92510220D01*
X142665137Y-92544127D01*
X142755465Y-92573477D01*
X142856557Y-92589488D01*
X142957648Y-92605500D01*
X142957649Y-92605500D01*
X143162351Y-92605500D01*
X143162352Y-92605500D01*
X143364534Y-92573477D01*
X143559219Y-92510220D01*
X143741610Y-92417287D01*
X143834590Y-92349732D01*
X143907213Y-92296971D01*
X143907215Y-92296968D01*
X143907219Y-92296966D01*
X144051966Y-92152219D01*
X144051968Y-92152215D01*
X144051971Y-92152213D01*
X144172284Y-91986614D01*
X144172285Y-91986613D01*
X144172287Y-91986610D01*
X144219516Y-91893917D01*
X144267489Y-91843123D01*
X144335310Y-91826328D01*
X144401445Y-91848865D01*
X144440483Y-91893917D01*
X144455001Y-91922409D01*
X144487715Y-91986614D01*
X144608028Y-92152213D01*
X144752786Y-92296971D01*
X144907749Y-92409556D01*
X144918390Y-92417287D01*
X145034607Y-92476503D01*
X145100776Y-92510218D01*
X145100778Y-92510218D01*
X145100781Y-92510220D01*
X145205137Y-92544127D01*
X145295465Y-92573477D01*
X145396557Y-92589488D01*
X145497648Y-92605500D01*
X145497649Y-92605500D01*
X145702351Y-92605500D01*
X145702352Y-92605500D01*
X145904534Y-92573477D01*
X146099219Y-92510220D01*
X146281610Y-92417287D01*
X146374590Y-92349732D01*
X146447213Y-92296971D01*
X146447215Y-92296968D01*
X146447219Y-92296966D01*
X146591966Y-92152219D01*
X146591968Y-92152215D01*
X146591971Y-92152213D01*
X146712284Y-91986614D01*
X146712285Y-91986613D01*
X146712287Y-91986610D01*
X146759516Y-91893917D01*
X146807489Y-91843123D01*
X146875310Y-91826328D01*
X146941445Y-91848865D01*
X146980483Y-91893917D01*
X146995001Y-91922409D01*
X147027715Y-91986614D01*
X147148028Y-92152213D01*
X147292786Y-92296971D01*
X147447749Y-92409556D01*
X147458390Y-92417287D01*
X147574607Y-92476503D01*
X147640776Y-92510218D01*
X147640778Y-92510218D01*
X147640781Y-92510220D01*
X147745137Y-92544127D01*
X147835465Y-92573477D01*
X147936557Y-92589488D01*
X148037648Y-92605500D01*
X148037649Y-92605500D01*
X148242351Y-92605500D01*
X148242352Y-92605500D01*
X148444534Y-92573477D01*
X148639219Y-92510220D01*
X148821610Y-92417287D01*
X148914590Y-92349732D01*
X148987213Y-92296971D01*
X148987215Y-92296968D01*
X148987219Y-92296966D01*
X149131966Y-92152219D01*
X149131968Y-92152215D01*
X149131971Y-92152213D01*
X149252284Y-91986614D01*
X149252285Y-91986613D01*
X149252287Y-91986610D01*
X149299516Y-91893917D01*
X149347489Y-91843123D01*
X149415310Y-91826328D01*
X149481445Y-91848865D01*
X149520483Y-91893917D01*
X149535001Y-91922409D01*
X149567715Y-91986614D01*
X149688028Y-92152213D01*
X149832786Y-92296971D01*
X149987749Y-92409556D01*
X149998390Y-92417287D01*
X150114607Y-92476503D01*
X150180776Y-92510218D01*
X150180778Y-92510218D01*
X150180781Y-92510220D01*
X150285137Y-92544127D01*
X150375465Y-92573477D01*
X150476557Y-92589488D01*
X150577648Y-92605500D01*
X150577649Y-92605500D01*
X150782351Y-92605500D01*
X150782352Y-92605500D01*
X150984534Y-92573477D01*
X151179219Y-92510220D01*
X151361610Y-92417287D01*
X151454590Y-92349732D01*
X151527213Y-92296971D01*
X151527215Y-92296968D01*
X151527219Y-92296966D01*
X151671966Y-92152219D01*
X151671968Y-92152215D01*
X151671971Y-92152213D01*
X151792284Y-91986614D01*
X151792285Y-91986613D01*
X151792287Y-91986610D01*
X151839516Y-91893917D01*
X151887489Y-91843123D01*
X151955310Y-91826328D01*
X152021445Y-91848865D01*
X152060483Y-91893917D01*
X152075001Y-91922409D01*
X152107715Y-91986614D01*
X152228028Y-92152213D01*
X152372786Y-92296971D01*
X152527749Y-92409556D01*
X152538390Y-92417287D01*
X152654607Y-92476503D01*
X152720776Y-92510218D01*
X152720778Y-92510218D01*
X152720781Y-92510220D01*
X152825137Y-92544127D01*
X152915465Y-92573477D01*
X153016557Y-92589488D01*
X153117648Y-92605500D01*
X153117649Y-92605500D01*
X153322351Y-92605500D01*
X153322352Y-92605500D01*
X153524534Y-92573477D01*
X153719219Y-92510220D01*
X153901610Y-92417287D01*
X153994590Y-92349732D01*
X154067213Y-92296971D01*
X154067215Y-92296968D01*
X154067219Y-92296966D01*
X154211966Y-92152219D01*
X154211968Y-92152215D01*
X154211971Y-92152213D01*
X154332284Y-91986614D01*
X154332285Y-91986613D01*
X154332287Y-91986610D01*
X154379516Y-91893917D01*
X154427489Y-91843123D01*
X154495310Y-91826328D01*
X154561445Y-91848865D01*
X154600483Y-91893917D01*
X154615001Y-91922409D01*
X154647715Y-91986614D01*
X154768028Y-92152213D01*
X154912786Y-92296971D01*
X155067749Y-92409556D01*
X155078390Y-92417287D01*
X155194607Y-92476503D01*
X155260776Y-92510218D01*
X155260778Y-92510218D01*
X155260781Y-92510220D01*
X155365137Y-92544127D01*
X155455465Y-92573477D01*
X155556557Y-92589488D01*
X155657648Y-92605500D01*
X155657649Y-92605500D01*
X155862351Y-92605500D01*
X155862352Y-92605500D01*
X156064534Y-92573477D01*
X156259219Y-92510220D01*
X156441610Y-92417287D01*
X156534590Y-92349732D01*
X156607213Y-92296971D01*
X156607215Y-92296968D01*
X156607219Y-92296966D01*
X156751966Y-92152219D01*
X156751968Y-92152215D01*
X156751971Y-92152213D01*
X156872284Y-91986614D01*
X156872285Y-91986613D01*
X156872287Y-91986610D01*
X156919516Y-91893917D01*
X156967489Y-91843123D01*
X157035310Y-91826328D01*
X157101445Y-91848865D01*
X157140483Y-91893917D01*
X157155001Y-91922409D01*
X157187715Y-91986614D01*
X157308028Y-92152213D01*
X157452786Y-92296971D01*
X157607749Y-92409556D01*
X157618390Y-92417287D01*
X157734607Y-92476503D01*
X157800776Y-92510218D01*
X157800778Y-92510218D01*
X157800781Y-92510220D01*
X157905137Y-92544127D01*
X157995465Y-92573477D01*
X158096557Y-92589488D01*
X158197648Y-92605500D01*
X158197649Y-92605500D01*
X158402351Y-92605500D01*
X158402352Y-92605500D01*
X158604534Y-92573477D01*
X158799219Y-92510220D01*
X158981610Y-92417287D01*
X159074590Y-92349732D01*
X159147213Y-92296971D01*
X159147215Y-92296968D01*
X159147219Y-92296966D01*
X159291966Y-92152219D01*
X159291968Y-92152215D01*
X159291971Y-92152213D01*
X159412284Y-91986614D01*
X159412285Y-91986613D01*
X159412287Y-91986610D01*
X159459516Y-91893917D01*
X159507489Y-91843123D01*
X159575310Y-91826328D01*
X159641445Y-91848865D01*
X159680483Y-91893917D01*
X159695001Y-91922409D01*
X159727715Y-91986614D01*
X159848028Y-92152213D01*
X159992786Y-92296971D01*
X160147749Y-92409556D01*
X160158390Y-92417287D01*
X160274607Y-92476503D01*
X160340776Y-92510218D01*
X160340778Y-92510218D01*
X160340781Y-92510220D01*
X160445137Y-92544127D01*
X160535465Y-92573477D01*
X160636557Y-92589488D01*
X160737648Y-92605500D01*
X160737649Y-92605500D01*
X160942351Y-92605500D01*
X160942352Y-92605500D01*
X161144534Y-92573477D01*
X161339219Y-92510220D01*
X161521610Y-92417287D01*
X161614590Y-92349732D01*
X161687213Y-92296971D01*
X161687215Y-92296968D01*
X161687219Y-92296966D01*
X161831966Y-92152219D01*
X161831968Y-92152215D01*
X161831971Y-92152213D01*
X161952284Y-91986614D01*
X161952285Y-91986613D01*
X161952287Y-91986610D01*
X161959117Y-91973204D01*
X162007091Y-91922409D01*
X162069602Y-91905500D01*
X165193542Y-91905500D01*
X165212870Y-91901655D01*
X165290188Y-91886275D01*
X165386836Y-91867051D01*
X165440165Y-91844961D01*
X165568914Y-91791632D01*
X165732782Y-91682139D01*
X165872139Y-91542782D01*
X165872140Y-91542779D01*
X165879206Y-91535714D01*
X165879209Y-91535710D01*
X166744920Y-90669999D01*
X173081127Y-90669999D01*
X173081128Y-90670000D01*
X174044314Y-90670000D01*
X174039920Y-90674394D01*
X173987259Y-90765606D01*
X173960000Y-90867339D01*
X173960000Y-90972661D01*
X173987259Y-91074394D01*
X174039920Y-91165606D01*
X174044314Y-91170000D01*
X173081128Y-91170000D01*
X173133730Y-91366317D01*
X173133734Y-91366326D01*
X173229865Y-91572482D01*
X173360342Y-91758820D01*
X173521179Y-91919657D01*
X173707517Y-92050134D01*
X173913673Y-92146265D01*
X173913682Y-92146269D01*
X174109999Y-92198872D01*
X174110000Y-92198871D01*
X174110000Y-91235686D01*
X174114394Y-91240080D01*
X174205606Y-91292741D01*
X174307339Y-91320000D01*
X174412661Y-91320000D01*
X174514394Y-91292741D01*
X174605606Y-91240080D01*
X174610000Y-91235686D01*
X174610000Y-92198872D01*
X174806317Y-92146269D01*
X174806326Y-92146265D01*
X175012482Y-92050134D01*
X175198820Y-91919657D01*
X175359657Y-91758820D01*
X175490132Y-91572484D01*
X175517341Y-91514134D01*
X175563513Y-91461695D01*
X175630707Y-91442542D01*
X175697588Y-91462757D01*
X175742105Y-91514132D01*
X175752169Y-91535714D01*
X175769431Y-91572732D01*
X175769432Y-91572734D01*
X175899954Y-91759141D01*
X176060858Y-91920045D01*
X176060861Y-91920047D01*
X176247266Y-92050568D01*
X176453504Y-92146739D01*
X176453509Y-92146740D01*
X176453511Y-92146741D01*
X176506415Y-92160916D01*
X176673308Y-92205635D01*
X176835230Y-92219801D01*
X176899998Y-92225468D01*
X176900000Y-92225468D01*
X176900002Y-92225468D01*
X176956673Y-92220509D01*
X177126692Y-92205635D01*
X177346496Y-92146739D01*
X177552734Y-92050568D01*
X177739139Y-91920047D01*
X177900047Y-91759139D01*
X178030568Y-91572734D01*
X178057895Y-91514129D01*
X178104064Y-91461695D01*
X178171257Y-91442542D01*
X178238139Y-91462757D01*
X178282657Y-91514133D01*
X178309865Y-91572482D01*
X178440342Y-91758820D01*
X178601179Y-91919657D01*
X178787517Y-92050134D01*
X178993673Y-92146265D01*
X178993682Y-92146269D01*
X179189999Y-92198872D01*
X179190000Y-92198871D01*
X179190000Y-91235686D01*
X179194394Y-91240080D01*
X179285606Y-91292741D01*
X179387339Y-91320000D01*
X179492661Y-91320000D01*
X179594394Y-91292741D01*
X179685606Y-91240080D01*
X179690000Y-91235686D01*
X179690000Y-92198872D01*
X179886317Y-92146269D01*
X179886326Y-92146265D01*
X180092482Y-92050134D01*
X180278820Y-91919657D01*
X180439657Y-91758820D01*
X180570132Y-91572484D01*
X180597341Y-91514134D01*
X180643513Y-91461695D01*
X180710707Y-91442542D01*
X180777588Y-91462757D01*
X180822105Y-91514132D01*
X180832169Y-91535714D01*
X180849431Y-91572732D01*
X180849432Y-91572734D01*
X180979954Y-91759141D01*
X181140858Y-91920045D01*
X181140861Y-91920047D01*
X181327266Y-92050568D01*
X181533504Y-92146739D01*
X181533509Y-92146740D01*
X181533511Y-92146741D01*
X181586415Y-92160916D01*
X181753308Y-92205635D01*
X181915230Y-92219801D01*
X181979998Y-92225468D01*
X181980000Y-92225468D01*
X181980002Y-92225468D01*
X182036673Y-92220509D01*
X182206692Y-92205635D01*
X182426496Y-92146739D01*
X182632734Y-92050568D01*
X182819139Y-91920047D01*
X182980047Y-91759139D01*
X183110568Y-91572734D01*
X183137895Y-91514129D01*
X183184064Y-91461695D01*
X183251257Y-91442542D01*
X183318139Y-91462757D01*
X183362657Y-91514133D01*
X183389865Y-91572482D01*
X183520342Y-91758820D01*
X183681179Y-91919657D01*
X183867517Y-92050134D01*
X184073673Y-92146265D01*
X184073682Y-92146269D01*
X184269999Y-92198872D01*
X184270000Y-92198871D01*
X184270000Y-91235686D01*
X184274394Y-91240080D01*
X184365606Y-91292741D01*
X184467339Y-91320000D01*
X184572661Y-91320000D01*
X184674394Y-91292741D01*
X184765606Y-91240080D01*
X184770000Y-91235686D01*
X184770000Y-92198872D01*
X184966317Y-92146269D01*
X184966326Y-92146265D01*
X185172482Y-92050134D01*
X185358820Y-91919657D01*
X185519657Y-91758820D01*
X185650132Y-91572484D01*
X185677341Y-91514134D01*
X185723513Y-91461695D01*
X185790707Y-91442542D01*
X185857588Y-91462757D01*
X185902105Y-91514132D01*
X185912169Y-91535714D01*
X185929431Y-91572732D01*
X185929432Y-91572734D01*
X186059954Y-91759141D01*
X186220858Y-91920045D01*
X186220861Y-91920047D01*
X186407266Y-92050568D01*
X186613504Y-92146739D01*
X186613509Y-92146740D01*
X186613511Y-92146741D01*
X186666415Y-92160916D01*
X186833308Y-92205635D01*
X186995230Y-92219801D01*
X187059998Y-92225468D01*
X187060000Y-92225468D01*
X187060002Y-92225468D01*
X187116673Y-92220509D01*
X187286692Y-92205635D01*
X187506496Y-92146739D01*
X187712734Y-92050568D01*
X187899139Y-91920047D01*
X188060047Y-91759139D01*
X188190568Y-91572734D01*
X188217895Y-91514129D01*
X188264064Y-91461695D01*
X188331257Y-91442542D01*
X188398139Y-91462757D01*
X188442657Y-91514133D01*
X188469865Y-91572482D01*
X188600342Y-91758820D01*
X188761179Y-91919657D01*
X188947517Y-92050134D01*
X189153673Y-92146265D01*
X189153682Y-92146269D01*
X189349999Y-92198872D01*
X189350000Y-92198871D01*
X189350000Y-91235686D01*
X189354394Y-91240080D01*
X189445606Y-91292741D01*
X189547339Y-91320000D01*
X189652661Y-91320000D01*
X189754394Y-91292741D01*
X189845606Y-91240080D01*
X189850000Y-91235686D01*
X189850000Y-92198872D01*
X190046317Y-92146269D01*
X190046326Y-92146265D01*
X190252482Y-92050134D01*
X190438820Y-91919657D01*
X190599657Y-91758820D01*
X190730132Y-91572484D01*
X190757341Y-91514134D01*
X190803513Y-91461695D01*
X190870707Y-91442542D01*
X190937588Y-91462757D01*
X190982105Y-91514132D01*
X190992169Y-91535714D01*
X191009431Y-91572732D01*
X191009432Y-91572734D01*
X191139954Y-91759141D01*
X191300858Y-91920045D01*
X191300861Y-91920047D01*
X191487266Y-92050568D01*
X191693504Y-92146739D01*
X191693509Y-92146740D01*
X191693511Y-92146741D01*
X191746415Y-92160916D01*
X191913308Y-92205635D01*
X192075230Y-92219801D01*
X192139998Y-92225468D01*
X192140000Y-92225468D01*
X192140002Y-92225468D01*
X192196673Y-92220509D01*
X192366692Y-92205635D01*
X192586496Y-92146739D01*
X192792734Y-92050568D01*
X192979139Y-91920047D01*
X193140047Y-91759139D01*
X193270568Y-91572734D01*
X193366739Y-91366496D01*
X193425635Y-91146692D01*
X193445468Y-90920000D01*
X193444889Y-90913386D01*
X193430401Y-90747786D01*
X193425635Y-90693308D01*
X193379198Y-90520000D01*
X193366741Y-90473511D01*
X193366738Y-90473502D01*
X193346956Y-90431079D01*
X193270568Y-90267266D01*
X193140047Y-90080861D01*
X193140045Y-90080858D01*
X192979140Y-89919953D01*
X192793377Y-89789881D01*
X192749752Y-89735304D01*
X192740500Y-89688306D01*
X192740500Y-87182412D01*
X192760185Y-87115373D01*
X192767555Y-87105097D01*
X192769810Y-87102267D01*
X192769816Y-87102262D01*
X192865789Y-86949522D01*
X192925368Y-86779255D01*
X192937856Y-86668422D01*
X192945565Y-86600003D01*
X192945565Y-86599996D01*
X192925369Y-86420750D01*
X192925368Y-86420745D01*
X192898928Y-86345184D01*
X192865789Y-86250478D01*
X192853732Y-86231290D01*
X192814866Y-86169435D01*
X192769816Y-86097738D01*
X192642262Y-85970184D01*
X192597548Y-85942088D01*
X192489523Y-85874211D01*
X192319254Y-85814631D01*
X192319249Y-85814630D01*
X192140004Y-85794435D01*
X192139996Y-85794435D01*
X191960750Y-85814630D01*
X191960745Y-85814631D01*
X191790476Y-85874211D01*
X191637737Y-85970184D01*
X191510184Y-86097737D01*
X191414211Y-86250476D01*
X191354631Y-86420745D01*
X191354630Y-86420750D01*
X191334435Y-86599996D01*
X191334435Y-86600003D01*
X191354630Y-86779249D01*
X191354631Y-86779254D01*
X191414211Y-86949523D01*
X191461098Y-87024142D01*
X191510026Y-87102011D01*
X191510185Y-87102263D01*
X191512445Y-87105097D01*
X191513334Y-87107275D01*
X191513889Y-87108158D01*
X191513734Y-87108255D01*
X191538855Y-87169783D01*
X191539500Y-87182412D01*
X191539500Y-89688306D01*
X191519815Y-89755345D01*
X191486623Y-89789881D01*
X191300859Y-89919953D01*
X191139954Y-90080858D01*
X191009433Y-90267264D01*
X191009432Y-90267266D01*
X190996733Y-90294500D01*
X190982106Y-90325867D01*
X190935933Y-90378306D01*
X190868739Y-90397457D01*
X190801858Y-90377241D01*
X190757342Y-90325865D01*
X190730135Y-90267520D01*
X190730134Y-90267518D01*
X190599657Y-90081179D01*
X190438820Y-89920342D01*
X190252482Y-89789865D01*
X190046328Y-89693734D01*
X189850000Y-89641127D01*
X189850000Y-90604314D01*
X189845606Y-90599920D01*
X189754394Y-90547259D01*
X189652661Y-90520000D01*
X189547339Y-90520000D01*
X189445606Y-90547259D01*
X189354394Y-90599920D01*
X189350000Y-90604314D01*
X189350000Y-89641127D01*
X189153671Y-89693734D01*
X188947517Y-89789865D01*
X188761179Y-89920342D01*
X188600342Y-90081179D01*
X188469867Y-90267515D01*
X188442657Y-90325867D01*
X188396484Y-90378306D01*
X188329290Y-90397457D01*
X188262409Y-90377241D01*
X188217893Y-90325865D01*
X188203267Y-90294500D01*
X188190568Y-90267266D01*
X188060047Y-90080861D01*
X188060045Y-90080858D01*
X187899140Y-89919953D01*
X187713377Y-89789881D01*
X187669752Y-89735304D01*
X187660500Y-89688306D01*
X187660500Y-87689152D01*
X187679507Y-87623179D01*
X187725788Y-87549524D01*
X187760446Y-87450478D01*
X187785368Y-87379255D01*
X187791392Y-87325789D01*
X187805565Y-87200003D01*
X187805565Y-87199996D01*
X187785369Y-87020750D01*
X187785368Y-87020745D01*
X187725788Y-86850476D01*
X187629815Y-86697737D01*
X187502262Y-86570184D01*
X187349523Y-86474211D01*
X187179254Y-86414631D01*
X187179249Y-86414630D01*
X187000004Y-86394435D01*
X186999996Y-86394435D01*
X186820750Y-86414630D01*
X186820745Y-86414631D01*
X186650476Y-86474211D01*
X186497737Y-86570184D01*
X186370184Y-86697737D01*
X186274211Y-86850476D01*
X186214631Y-87020745D01*
X186214630Y-87020750D01*
X186194435Y-87199996D01*
X186194435Y-87200003D01*
X186214630Y-87379249D01*
X186214631Y-87379254D01*
X186274211Y-87549523D01*
X186370184Y-87702262D01*
X186423181Y-87755259D01*
X186456666Y-87816582D01*
X186459500Y-87842940D01*
X186459500Y-89688306D01*
X186439815Y-89755345D01*
X186406623Y-89789881D01*
X186220859Y-89919953D01*
X186059954Y-90080858D01*
X185929433Y-90267264D01*
X185929432Y-90267266D01*
X185916733Y-90294500D01*
X185902106Y-90325867D01*
X185855933Y-90378306D01*
X185788739Y-90397457D01*
X185721858Y-90377241D01*
X185677342Y-90325865D01*
X185650135Y-90267520D01*
X185650134Y-90267518D01*
X185519657Y-90081179D01*
X185358820Y-89920342D01*
X185172482Y-89789865D01*
X184966328Y-89693734D01*
X184770000Y-89641127D01*
X184770000Y-90604314D01*
X184765606Y-90599920D01*
X184674394Y-90547259D01*
X184572661Y-90520000D01*
X184467339Y-90520000D01*
X184365606Y-90547259D01*
X184274394Y-90599920D01*
X184270000Y-90604314D01*
X184270000Y-89641127D01*
X184073671Y-89693734D01*
X183867517Y-89789865D01*
X183681179Y-89920342D01*
X183520342Y-90081179D01*
X183389867Y-90267515D01*
X183362657Y-90325867D01*
X183316484Y-90378306D01*
X183249290Y-90397457D01*
X183182409Y-90377241D01*
X183137893Y-90325865D01*
X183123267Y-90294500D01*
X183110568Y-90267266D01*
X182980047Y-90080861D01*
X182980045Y-90080858D01*
X182819140Y-89919953D01*
X182633377Y-89789881D01*
X182589752Y-89735304D01*
X182580500Y-89688306D01*
X182580500Y-88470024D01*
X182584725Y-88437931D01*
X182592461Y-88409059D01*
X182600500Y-88379058D01*
X182600500Y-88379049D01*
X182601561Y-88370998D01*
X182603766Y-88371288D01*
X182620185Y-88315373D01*
X182627555Y-88305097D01*
X182629810Y-88302267D01*
X182629816Y-88302262D01*
X182725789Y-88149522D01*
X182785368Y-87979255D01*
X182791392Y-87925789D01*
X182805565Y-87800003D01*
X182805565Y-87799996D01*
X182785369Y-87620750D01*
X182785368Y-87620745D01*
X182725788Y-87450476D01*
X182681033Y-87379249D01*
X182629816Y-87297738D01*
X182502262Y-87170184D01*
X182501624Y-87169783D01*
X182349523Y-87074211D01*
X182179254Y-87014631D01*
X182179249Y-87014630D01*
X182000004Y-86994435D01*
X181999996Y-86994435D01*
X181820750Y-87014630D01*
X181820745Y-87014631D01*
X181650476Y-87074211D01*
X181497737Y-87170184D01*
X181370184Y-87297737D01*
X181274211Y-87450476D01*
X181214631Y-87620745D01*
X181214630Y-87620750D01*
X181194435Y-87799996D01*
X181194435Y-87800003D01*
X181214630Y-87979249D01*
X181214631Y-87979254D01*
X181274212Y-88149526D01*
X181360492Y-88286838D01*
X181379499Y-88352810D01*
X181379499Y-88409046D01*
X181379500Y-88409059D01*
X181379500Y-89688306D01*
X181359815Y-89755345D01*
X181326623Y-89789881D01*
X181140859Y-89919953D01*
X180979954Y-90080858D01*
X180849433Y-90267264D01*
X180849432Y-90267266D01*
X180836733Y-90294500D01*
X180822106Y-90325867D01*
X180775933Y-90378306D01*
X180708739Y-90397457D01*
X180641858Y-90377241D01*
X180597342Y-90325865D01*
X180570135Y-90267520D01*
X180570134Y-90267518D01*
X180439657Y-90081179D01*
X180278820Y-89920342D01*
X180092482Y-89789865D01*
X179886328Y-89693734D01*
X179690000Y-89641127D01*
X179690000Y-90604314D01*
X179685606Y-90599920D01*
X179594394Y-90547259D01*
X179492661Y-90520000D01*
X179387339Y-90520000D01*
X179285606Y-90547259D01*
X179194394Y-90599920D01*
X179190000Y-90604314D01*
X179190000Y-89641127D01*
X178993671Y-89693734D01*
X178787517Y-89789865D01*
X178601179Y-89920342D01*
X178440342Y-90081179D01*
X178309867Y-90267515D01*
X178282657Y-90325867D01*
X178236484Y-90378306D01*
X178169290Y-90397457D01*
X178102409Y-90377241D01*
X178057893Y-90325865D01*
X178043267Y-90294500D01*
X178030568Y-90267266D01*
X177900047Y-90080861D01*
X177900045Y-90080858D01*
X177739140Y-89919953D01*
X177553377Y-89789881D01*
X177509752Y-89735304D01*
X177500500Y-89688306D01*
X177500500Y-88982412D01*
X177520185Y-88915373D01*
X177527555Y-88905097D01*
X177529810Y-88902267D01*
X177529816Y-88902262D01*
X177625789Y-88749522D01*
X177685368Y-88579255D01*
X177685847Y-88575003D01*
X177705565Y-88400003D01*
X177705565Y-88399996D01*
X177685369Y-88220750D01*
X177685368Y-88220745D01*
X177625788Y-88050476D01*
X177550735Y-87931030D01*
X177529816Y-87897738D01*
X177402262Y-87770184D01*
X177378509Y-87755259D01*
X177249523Y-87674211D01*
X177079254Y-87614631D01*
X177079249Y-87614630D01*
X176900004Y-87594435D01*
X176899996Y-87594435D01*
X176720750Y-87614630D01*
X176720745Y-87614631D01*
X176550476Y-87674211D01*
X176397737Y-87770184D01*
X176270184Y-87897737D01*
X176174211Y-88050476D01*
X176114631Y-88220745D01*
X176114630Y-88220750D01*
X176094435Y-88399996D01*
X176094435Y-88400003D01*
X176114630Y-88579249D01*
X176114631Y-88579254D01*
X176174211Y-88749523D01*
X176270185Y-88902263D01*
X176272445Y-88905097D01*
X176273334Y-88907275D01*
X176273889Y-88908158D01*
X176273734Y-88908255D01*
X176298855Y-88969783D01*
X176299500Y-88982412D01*
X176299500Y-89688306D01*
X176279815Y-89755345D01*
X176246623Y-89789881D01*
X176060859Y-89919953D01*
X175899954Y-90080858D01*
X175769433Y-90267264D01*
X175769432Y-90267266D01*
X175756733Y-90294500D01*
X175742106Y-90325867D01*
X175695933Y-90378306D01*
X175628739Y-90397457D01*
X175561858Y-90377241D01*
X175517342Y-90325865D01*
X175490135Y-90267520D01*
X175490134Y-90267518D01*
X175359657Y-90081179D01*
X175198820Y-89920342D01*
X175012482Y-89789865D01*
X174806328Y-89693734D01*
X174610000Y-89641127D01*
X174610000Y-90604314D01*
X174605606Y-90599920D01*
X174514394Y-90547259D01*
X174412661Y-90520000D01*
X174307339Y-90520000D01*
X174205606Y-90547259D01*
X174114394Y-90599920D01*
X174110000Y-90604314D01*
X174110000Y-89641127D01*
X173913671Y-89693734D01*
X173707517Y-89789865D01*
X173521179Y-89920342D01*
X173360342Y-90081179D01*
X173229865Y-90267517D01*
X173133734Y-90473673D01*
X173133730Y-90473682D01*
X173081127Y-90669999D01*
X166744920Y-90669999D01*
X167637778Y-89777141D01*
X167637782Y-89777139D01*
X167777139Y-89637782D01*
X167886632Y-89473914D01*
X167947815Y-89326204D01*
X167962051Y-89291836D01*
X167988326Y-89159738D01*
X168020710Y-89097830D01*
X168081426Y-89063256D01*
X168151195Y-89066995D01*
X168175915Y-89078938D01*
X168207111Y-89098540D01*
X168250478Y-89125789D01*
X168306809Y-89145500D01*
X168420745Y-89185368D01*
X168420750Y-89185369D01*
X168599996Y-89205565D01*
X168600000Y-89205565D01*
X168600004Y-89205565D01*
X168779249Y-89185369D01*
X168779252Y-89185368D01*
X168779255Y-89185368D01*
X168949522Y-89125789D01*
X169102262Y-89029816D01*
X169229816Y-88902262D01*
X169325789Y-88749522D01*
X169385368Y-88579255D01*
X169385847Y-88575003D01*
X169405565Y-88400003D01*
X169405565Y-88399996D01*
X169385369Y-88220750D01*
X169385368Y-88220745D01*
X169325788Y-88050476D01*
X169284876Y-87985366D01*
X169229816Y-87897738D01*
X169229814Y-87897736D01*
X169229813Y-87897734D01*
X169227550Y-87894896D01*
X169226659Y-87892715D01*
X169226111Y-87891842D01*
X169226264Y-87891745D01*
X169201144Y-87830209D01*
X169200500Y-87817587D01*
X169200500Y-81626692D01*
X169220185Y-81559653D01*
X169253374Y-81525119D01*
X169439139Y-81395047D01*
X169600047Y-81234139D01*
X169730568Y-81047734D01*
X169826739Y-80841496D01*
X169885635Y-80621692D01*
X169903274Y-80420080D01*
X169905468Y-80395001D01*
X169905468Y-80394998D01*
X169893263Y-80255495D01*
X169885635Y-80168308D01*
X169826739Y-79948504D01*
X169730568Y-79742266D01*
X169600047Y-79555861D01*
X169600045Y-79555858D01*
X169439141Y-79394954D01*
X169252734Y-79264432D01*
X169252728Y-79264429D01*
X169194725Y-79237382D01*
X169142285Y-79191210D01*
X169123133Y-79124017D01*
X169143348Y-79057135D01*
X169194725Y-79012618D01*
X169199501Y-79010391D01*
X169252734Y-78985568D01*
X169439139Y-78855047D01*
X169600047Y-78694139D01*
X169730568Y-78507734D01*
X169826739Y-78301496D01*
X169885635Y-78081692D01*
X169905468Y-77855000D01*
X169905468Y-77854998D01*
X170294532Y-77854998D01*
X170294532Y-77855001D01*
X170314364Y-78081686D01*
X170314366Y-78081697D01*
X170373258Y-78301488D01*
X170373261Y-78301497D01*
X170469431Y-78507732D01*
X170469432Y-78507734D01*
X170599954Y-78694141D01*
X170760858Y-78855045D01*
X170760861Y-78855047D01*
X170947266Y-78985568D01*
X170995039Y-79007845D01*
X171005275Y-79012618D01*
X171057714Y-79058791D01*
X171076866Y-79125984D01*
X171056650Y-79192865D01*
X171005275Y-79237382D01*
X170947267Y-79264431D01*
X170947265Y-79264432D01*
X170760858Y-79394954D01*
X170599954Y-79555858D01*
X170469432Y-79742265D01*
X170469431Y-79742267D01*
X170373261Y-79948502D01*
X170373258Y-79948511D01*
X170314366Y-80168302D01*
X170314364Y-80168313D01*
X170294532Y-80394998D01*
X170294532Y-80395001D01*
X170314364Y-80621686D01*
X170314366Y-80621697D01*
X170373258Y-80841488D01*
X170373261Y-80841497D01*
X170469431Y-81047732D01*
X170469432Y-81047734D01*
X170599954Y-81234141D01*
X170760858Y-81395045D01*
X170760861Y-81395047D01*
X170946624Y-81525118D01*
X170990248Y-81579693D01*
X170999500Y-81626692D01*
X170999500Y-86017587D01*
X170979815Y-86084626D01*
X170972450Y-86094896D01*
X170970186Y-86097734D01*
X170874211Y-86250476D01*
X170814631Y-86420745D01*
X170814630Y-86420750D01*
X170794435Y-86599996D01*
X170794435Y-86600003D01*
X170814630Y-86779249D01*
X170814631Y-86779254D01*
X170874211Y-86949523D01*
X170921098Y-87024142D01*
X170970184Y-87102262D01*
X171097738Y-87229816D01*
X171159179Y-87268422D01*
X171205833Y-87297737D01*
X171250478Y-87325789D01*
X171403258Y-87379249D01*
X171420745Y-87385368D01*
X171420750Y-87385369D01*
X171599996Y-87405565D01*
X171600000Y-87405565D01*
X171600004Y-87405565D01*
X171779249Y-87385369D01*
X171779252Y-87385368D01*
X171779255Y-87385368D01*
X171949522Y-87325789D01*
X172102262Y-87229816D01*
X172229816Y-87102262D01*
X172325789Y-86949522D01*
X172385368Y-86779255D01*
X172397856Y-86668422D01*
X172405565Y-86600003D01*
X172405565Y-86599996D01*
X172385369Y-86420750D01*
X172385368Y-86420745D01*
X172358928Y-86345184D01*
X172325789Y-86250478D01*
X172313732Y-86231290D01*
X172274866Y-86169435D01*
X172229816Y-86097738D01*
X172229814Y-86097736D01*
X172229813Y-86097734D01*
X172227550Y-86094896D01*
X172226659Y-86092715D01*
X172226111Y-86091842D01*
X172226264Y-86091745D01*
X172201144Y-86030209D01*
X172200500Y-86017587D01*
X172200500Y-83049999D01*
X173081127Y-83049999D01*
X173081128Y-83050000D01*
X174044314Y-83050000D01*
X174039920Y-83054394D01*
X173987259Y-83145606D01*
X173960000Y-83247339D01*
X173960000Y-83352661D01*
X173987259Y-83454394D01*
X174039920Y-83545606D01*
X174044314Y-83550000D01*
X173081128Y-83550000D01*
X173133730Y-83746317D01*
X173133734Y-83746326D01*
X173229865Y-83952482D01*
X173360342Y-84138820D01*
X173521179Y-84299657D01*
X173707517Y-84430134D01*
X173913673Y-84526265D01*
X173913682Y-84526269D01*
X174109999Y-84578872D01*
X174110000Y-84578871D01*
X174110000Y-83615686D01*
X174114394Y-83620080D01*
X174205606Y-83672741D01*
X174307339Y-83700000D01*
X174412661Y-83700000D01*
X174514394Y-83672741D01*
X174605606Y-83620080D01*
X174610000Y-83615686D01*
X174610000Y-84578872D01*
X174806317Y-84526269D01*
X174806326Y-84526265D01*
X175012482Y-84430134D01*
X175198820Y-84299657D01*
X175359657Y-84138820D01*
X175490132Y-83952484D01*
X175517341Y-83894134D01*
X175563513Y-83841695D01*
X175630707Y-83822542D01*
X175697588Y-83842757D01*
X175742106Y-83894133D01*
X175769431Y-83952732D01*
X175769432Y-83952734D01*
X175899954Y-84139141D01*
X176060858Y-84300045D01*
X176060861Y-84300047D01*
X176247266Y-84430568D01*
X176453504Y-84526739D01*
X176453509Y-84526740D01*
X176453511Y-84526741D01*
X176476393Y-84532872D01*
X176673308Y-84585635D01*
X176835230Y-84599801D01*
X176899998Y-84605468D01*
X176900000Y-84605468D01*
X176900002Y-84605468D01*
X176956807Y-84600498D01*
X177126692Y-84585635D01*
X177346496Y-84526739D01*
X177552734Y-84430568D01*
X177739139Y-84300047D01*
X177900047Y-84139139D01*
X178030568Y-83952734D01*
X178057895Y-83894129D01*
X178104064Y-83841695D01*
X178171257Y-83822542D01*
X178238139Y-83842757D01*
X178282657Y-83894133D01*
X178309865Y-83952482D01*
X178440342Y-84138820D01*
X178601179Y-84299657D01*
X178787517Y-84430134D01*
X178993673Y-84526265D01*
X178993682Y-84526269D01*
X179189999Y-84578872D01*
X179190000Y-84578871D01*
X179190000Y-83615686D01*
X179194394Y-83620080D01*
X179285606Y-83672741D01*
X179387339Y-83700000D01*
X179492661Y-83700000D01*
X179594394Y-83672741D01*
X179685606Y-83620080D01*
X179690000Y-83615686D01*
X179690000Y-84578872D01*
X179886317Y-84526269D01*
X179886326Y-84526265D01*
X180092482Y-84430134D01*
X180278820Y-84299657D01*
X180439657Y-84138820D01*
X180570132Y-83952484D01*
X180597341Y-83894134D01*
X180643513Y-83841695D01*
X180710707Y-83822542D01*
X180777588Y-83842757D01*
X180822106Y-83894133D01*
X180849431Y-83952732D01*
X180849432Y-83952734D01*
X180979954Y-84139141D01*
X181140858Y-84300045D01*
X181140861Y-84300047D01*
X181327266Y-84430568D01*
X181533504Y-84526739D01*
X181533509Y-84526740D01*
X181533511Y-84526741D01*
X181556393Y-84532872D01*
X181753308Y-84585635D01*
X181915230Y-84599801D01*
X181979998Y-84605468D01*
X181980000Y-84605468D01*
X181980002Y-84605468D01*
X182036807Y-84600498D01*
X182206692Y-84585635D01*
X182426496Y-84526739D01*
X182632734Y-84430568D01*
X182819139Y-84300047D01*
X182980047Y-84139139D01*
X183110568Y-83952734D01*
X183137895Y-83894129D01*
X183184064Y-83841695D01*
X183251257Y-83822542D01*
X183318139Y-83842757D01*
X183362657Y-83894133D01*
X183389865Y-83952482D01*
X183520342Y-84138820D01*
X183681179Y-84299657D01*
X183867517Y-84430134D01*
X184073673Y-84526265D01*
X184073682Y-84526269D01*
X184269999Y-84578872D01*
X184270000Y-84578871D01*
X184270000Y-83615686D01*
X184274394Y-83620080D01*
X184365606Y-83672741D01*
X184467339Y-83700000D01*
X184572661Y-83700000D01*
X184674394Y-83672741D01*
X184765606Y-83620080D01*
X184770000Y-83615686D01*
X184770000Y-84578872D01*
X184966317Y-84526269D01*
X184966326Y-84526265D01*
X185172482Y-84430134D01*
X185358820Y-84299657D01*
X185519657Y-84138820D01*
X185650132Y-83952484D01*
X185677341Y-83894134D01*
X185723513Y-83841695D01*
X185790707Y-83822542D01*
X185857588Y-83842757D01*
X185902106Y-83894133D01*
X185929431Y-83952732D01*
X185929432Y-83952734D01*
X186059954Y-84139141D01*
X186220858Y-84300045D01*
X186220861Y-84300047D01*
X186407266Y-84430568D01*
X186613504Y-84526739D01*
X186613509Y-84526740D01*
X186613511Y-84526741D01*
X186636393Y-84532872D01*
X186833308Y-84585635D01*
X186995230Y-84599801D01*
X187059998Y-84605468D01*
X187060000Y-84605468D01*
X187060002Y-84605468D01*
X187116807Y-84600498D01*
X187286692Y-84585635D01*
X187506496Y-84526739D01*
X187712734Y-84430568D01*
X187899139Y-84300047D01*
X188060047Y-84139139D01*
X188190568Y-83952734D01*
X188217895Y-83894129D01*
X188264064Y-83841695D01*
X188331257Y-83822542D01*
X188398139Y-83842757D01*
X188442657Y-83894133D01*
X188469865Y-83952482D01*
X188600342Y-84138820D01*
X188761179Y-84299657D01*
X188947517Y-84430134D01*
X189153673Y-84526265D01*
X189153682Y-84526269D01*
X189349999Y-84578872D01*
X189350000Y-84578871D01*
X189350000Y-83615686D01*
X189354394Y-83620080D01*
X189445606Y-83672741D01*
X189547339Y-83700000D01*
X189652661Y-83700000D01*
X189754394Y-83672741D01*
X189845606Y-83620080D01*
X189850000Y-83615686D01*
X189850000Y-84578872D01*
X190046317Y-84526269D01*
X190046326Y-84526265D01*
X190252482Y-84430134D01*
X190438820Y-84299657D01*
X190599658Y-84138819D01*
X190617190Y-84113781D01*
X190671766Y-84070155D01*
X190741264Y-84062961D01*
X190803619Y-84094482D01*
X190839034Y-84154712D01*
X190842055Y-84171647D01*
X190845907Y-84207480D01*
X190896202Y-84342328D01*
X190896206Y-84342335D01*
X190982452Y-84457544D01*
X190982455Y-84457547D01*
X191097664Y-84543793D01*
X191097671Y-84543797D01*
X191232517Y-84594091D01*
X191232516Y-84594091D01*
X191239444Y-84594835D01*
X191292127Y-84600500D01*
X192987872Y-84600499D01*
X193047483Y-84594091D01*
X193182331Y-84543796D01*
X193297546Y-84457546D01*
X193383796Y-84342331D01*
X193434091Y-84207483D01*
X193440500Y-84147873D01*
X193440499Y-82452128D01*
X193434091Y-82392517D01*
X193431648Y-82385968D01*
X193383797Y-82257671D01*
X193383793Y-82257664D01*
X193297547Y-82142455D01*
X193297544Y-82142452D01*
X193182335Y-82056206D01*
X193182328Y-82056202D01*
X193047482Y-82005908D01*
X193047483Y-82005908D01*
X192987883Y-81999501D01*
X192987881Y-81999500D01*
X192987873Y-81999500D01*
X192987865Y-81999500D01*
X192874500Y-81999500D01*
X192807461Y-81979815D01*
X192761706Y-81927011D01*
X192750500Y-81875500D01*
X192750500Y-79066662D01*
X192770185Y-78999623D01*
X192803379Y-78965086D01*
X192809042Y-78961121D01*
X192839139Y-78940047D01*
X193000047Y-78779139D01*
X193130568Y-78592734D01*
X193226739Y-78386496D01*
X193285635Y-78166692D01*
X193304180Y-77954723D01*
X193305468Y-77940001D01*
X193305468Y-77939998D01*
X193298852Y-77864374D01*
X193285635Y-77713308D01*
X193226739Y-77493504D01*
X193130568Y-77287266D01*
X193000047Y-77100861D01*
X193000045Y-77100858D01*
X192839141Y-76939954D01*
X192652734Y-76809432D01*
X192652728Y-76809429D01*
X192594725Y-76782382D01*
X192542285Y-76736210D01*
X192523133Y-76669017D01*
X192543348Y-76602135D01*
X192594725Y-76557618D01*
X192652734Y-76530568D01*
X192839139Y-76400047D01*
X193000047Y-76239139D01*
X193130568Y-76052734D01*
X193226739Y-75846496D01*
X193285635Y-75626692D01*
X193304952Y-75405903D01*
X193305468Y-75400001D01*
X193305468Y-75399998D01*
X193290862Y-75233058D01*
X193285635Y-75173308D01*
X193240916Y-75006415D01*
X193226741Y-74953511D01*
X193226738Y-74953502D01*
X193195504Y-74886521D01*
X193130568Y-74747266D01*
X193053909Y-74637785D01*
X193000048Y-74560862D01*
X192924240Y-74485054D01*
X192839139Y-74399953D01*
X192810515Y-74379910D01*
X192803375Y-74374910D01*
X192759751Y-74320332D01*
X192750500Y-74273336D01*
X192750500Y-73462230D01*
X192770185Y-73395191D01*
X192786819Y-73374549D01*
X194188948Y-71972420D01*
X194188952Y-71972416D01*
X194270412Y-71850500D01*
X194270416Y-71850502D01*
X194270436Y-71850463D01*
X194271084Y-71849495D01*
X194327658Y-71712913D01*
X194340078Y-71650476D01*
X194356500Y-71567920D01*
X194356500Y-70249499D01*
X194376185Y-70182460D01*
X194428989Y-70136705D01*
X194480500Y-70125499D01*
X194953871Y-70125499D01*
X194953872Y-70125499D01*
X195013483Y-70119091D01*
X195148331Y-70068796D01*
X195263546Y-69982546D01*
X195349796Y-69867331D01*
X195400091Y-69732483D01*
X195406500Y-69672873D01*
X195406499Y-66977128D01*
X195400091Y-66917517D01*
X195398542Y-66913365D01*
X195349797Y-66782671D01*
X195349793Y-66782664D01*
X195263547Y-66667455D01*
X195263544Y-66667452D01*
X195148335Y-66581206D01*
X195148328Y-66581202D01*
X195013482Y-66530908D01*
X195013483Y-66530908D01*
X194953883Y-66524501D01*
X194953881Y-66524500D01*
X194953873Y-66524500D01*
X194953864Y-66524500D01*
X192258129Y-66524500D01*
X192258123Y-66524501D01*
X192198516Y-66530908D01*
X192063671Y-66581202D01*
X192063664Y-66581206D01*
X191948455Y-66667452D01*
X191948452Y-66667455D01*
X191862206Y-66782664D01*
X191862202Y-66782671D01*
X191811908Y-66917517D01*
X191805501Y-66977116D01*
X191805501Y-66977123D01*
X191805500Y-66977135D01*
X191805500Y-69672870D01*
X191805501Y-69672876D01*
X191811908Y-69732483D01*
X191862202Y-69867328D01*
X191862206Y-69867335D01*
X191948452Y-69982544D01*
X191948455Y-69982547D01*
X192063664Y-70068793D01*
X192063671Y-70068797D01*
X192106551Y-70084790D01*
X192198517Y-70119091D01*
X192258127Y-70125500D01*
X192731500Y-70125499D01*
X192798539Y-70145183D01*
X192844294Y-70197987D01*
X192855500Y-70249499D01*
X192855500Y-71131769D01*
X192835815Y-71198808D01*
X192819181Y-71219450D01*
X191417052Y-72621578D01*
X191417049Y-72621581D01*
X191375918Y-72683138D01*
X191375919Y-72683139D01*
X191373033Y-72687459D01*
X191334914Y-72744508D01*
X191278343Y-72881082D01*
X191278340Y-72881092D01*
X191249500Y-73026079D01*
X191249500Y-74273336D01*
X191229815Y-74340375D01*
X191196625Y-74374910D01*
X191160863Y-74399951D01*
X190999951Y-74560862D01*
X190869432Y-74747265D01*
X190869431Y-74747267D01*
X190773261Y-74953502D01*
X190773258Y-74953511D01*
X190714366Y-75173302D01*
X190714364Y-75173313D01*
X190694532Y-75399998D01*
X190694532Y-75400001D01*
X190714364Y-75626686D01*
X190714366Y-75626697D01*
X190773258Y-75846488D01*
X190773261Y-75846497D01*
X190869431Y-76052732D01*
X190869432Y-76052734D01*
X190999954Y-76239141D01*
X191160858Y-76400045D01*
X191160861Y-76400047D01*
X191347266Y-76530568D01*
X191405275Y-76557618D01*
X191457714Y-76603791D01*
X191476866Y-76670984D01*
X191456650Y-76737865D01*
X191405275Y-76782382D01*
X191347267Y-76809431D01*
X191347265Y-76809432D01*
X191160858Y-76939954D01*
X190999954Y-77100858D01*
X190869432Y-77287265D01*
X190869431Y-77287267D01*
X190773261Y-77493502D01*
X190773258Y-77493511D01*
X190714366Y-77713302D01*
X190714364Y-77713313D01*
X190694532Y-77939998D01*
X190694532Y-77940001D01*
X190714364Y-78166686D01*
X190714366Y-78166697D01*
X190773258Y-78386488D01*
X190773261Y-78386497D01*
X190869431Y-78592732D01*
X190869432Y-78592734D01*
X190999954Y-78779141D01*
X191160859Y-78940046D01*
X191196621Y-78965086D01*
X191240247Y-79019662D01*
X191249500Y-79066662D01*
X191249500Y-81913479D01*
X191229815Y-81980518D01*
X191177011Y-82026273D01*
X191168833Y-82029661D01*
X191097671Y-82056202D01*
X191097664Y-82056206D01*
X190982455Y-82142452D01*
X190982452Y-82142455D01*
X190896206Y-82257664D01*
X190896202Y-82257671D01*
X190845908Y-82392517D01*
X190842056Y-82428352D01*
X190815318Y-82492903D01*
X190757926Y-82532752D01*
X190688101Y-82535245D01*
X190628012Y-82499593D01*
X190617192Y-82486221D01*
X190599657Y-82461179D01*
X190438820Y-82300342D01*
X190252482Y-82169865D01*
X190046328Y-82073734D01*
X189850000Y-82021127D01*
X189850000Y-82984314D01*
X189845606Y-82979920D01*
X189754394Y-82927259D01*
X189652661Y-82900000D01*
X189547339Y-82900000D01*
X189445606Y-82927259D01*
X189354394Y-82979920D01*
X189350000Y-82984314D01*
X189350000Y-82021127D01*
X189153671Y-82073734D01*
X188947517Y-82169865D01*
X188761179Y-82300342D01*
X188600342Y-82461179D01*
X188469867Y-82647515D01*
X188442657Y-82705867D01*
X188396484Y-82758306D01*
X188329290Y-82777457D01*
X188262409Y-82757241D01*
X188217893Y-82705865D01*
X188214407Y-82698390D01*
X188190568Y-82647266D01*
X188060047Y-82460861D01*
X187899139Y-82299953D01*
X187893608Y-82296080D01*
X187863375Y-82274910D01*
X187819751Y-82220332D01*
X187810500Y-82173336D01*
X187810500Y-81952229D01*
X187830185Y-81885190D01*
X187846819Y-81864548D01*
X189282948Y-80428419D01*
X189282951Y-80428416D01*
X189365084Y-80305495D01*
X189421658Y-80168913D01*
X189435367Y-80099997D01*
X189450500Y-80023920D01*
X189450500Y-79066662D01*
X189470185Y-78999623D01*
X189503379Y-78965086D01*
X189509042Y-78961121D01*
X189539139Y-78940047D01*
X189700047Y-78779139D01*
X189830568Y-78592734D01*
X189926739Y-78386496D01*
X189985635Y-78166692D01*
X190004180Y-77954723D01*
X190005468Y-77940001D01*
X190005468Y-77939998D01*
X189998852Y-77864374D01*
X189985635Y-77713308D01*
X189926739Y-77493504D01*
X189830568Y-77287266D01*
X189700047Y-77100861D01*
X189700045Y-77100858D01*
X189539141Y-76939954D01*
X189352734Y-76809432D01*
X189352728Y-76809429D01*
X189294725Y-76782382D01*
X189242285Y-76736210D01*
X189223133Y-76669017D01*
X189243348Y-76602135D01*
X189294725Y-76557618D01*
X189352734Y-76530568D01*
X189539139Y-76400047D01*
X189700047Y-76239139D01*
X189830568Y-76052734D01*
X189926739Y-75846496D01*
X189985635Y-75626692D01*
X190004952Y-75405903D01*
X190005468Y-75400001D01*
X190005468Y-75399998D01*
X189990862Y-75233058D01*
X189985635Y-75173308D01*
X189940916Y-75006415D01*
X189926741Y-74953511D01*
X189926738Y-74953502D01*
X189895504Y-74886521D01*
X189830568Y-74747266D01*
X189753909Y-74637785D01*
X189700048Y-74560862D01*
X189624240Y-74485054D01*
X189539139Y-74399953D01*
X189510515Y-74379910D01*
X189503375Y-74374910D01*
X189459751Y-74320332D01*
X189450500Y-74273336D01*
X189450500Y-69993887D01*
X189470185Y-69926848D01*
X189505956Y-69892753D01*
X189504941Y-69891264D01*
X189508770Y-69888653D01*
X189508775Y-69888651D01*
X189731741Y-69736635D01*
X189929561Y-69553085D01*
X190097815Y-69342102D01*
X190232743Y-69108398D01*
X190331334Y-68857195D01*
X190391383Y-68594103D01*
X190411549Y-68325000D01*
X190391383Y-68055897D01*
X190331334Y-67792805D01*
X190232743Y-67541602D01*
X190097815Y-67307898D01*
X189929561Y-67096915D01*
X189929560Y-67096914D01*
X189929557Y-67096910D01*
X189731741Y-66913365D01*
X189692038Y-66886296D01*
X189508775Y-66761349D01*
X189508769Y-66761346D01*
X189508768Y-66761345D01*
X189508767Y-66761344D01*
X189265643Y-66644263D01*
X189265645Y-66644263D01*
X189007773Y-66564720D01*
X189007767Y-66564718D01*
X188740936Y-66524500D01*
X188740929Y-66524500D01*
X188471071Y-66524500D01*
X188471063Y-66524500D01*
X188204232Y-66564718D01*
X188204226Y-66564720D01*
X187946358Y-66644262D01*
X187703230Y-66761346D01*
X187480258Y-66913365D01*
X187282442Y-67096910D01*
X187114185Y-67307898D01*
X186979258Y-67541599D01*
X186979256Y-67541603D01*
X186880666Y-67792804D01*
X186880664Y-67792811D01*
X186820616Y-68055898D01*
X186800451Y-68324995D01*
X186800451Y-68325004D01*
X186820616Y-68594101D01*
X186880664Y-68857188D01*
X186880666Y-68857195D01*
X186926901Y-68975000D01*
X186979257Y-69108398D01*
X187114185Y-69342102D01*
X187167655Y-69409151D01*
X187282442Y-69553089D01*
X187469183Y-69726358D01*
X187480259Y-69736635D01*
X187703226Y-69888651D01*
X187703229Y-69888652D01*
X187703230Y-69888653D01*
X187879302Y-69973445D01*
X187931161Y-70020268D01*
X187949500Y-70085165D01*
X187949500Y-74273336D01*
X187929815Y-74340375D01*
X187896625Y-74374910D01*
X187860863Y-74399951D01*
X187699951Y-74560862D01*
X187569432Y-74747265D01*
X187569431Y-74747267D01*
X187473261Y-74953502D01*
X187473258Y-74953511D01*
X187414366Y-75173302D01*
X187414364Y-75173313D01*
X187394532Y-75399998D01*
X187394532Y-75400001D01*
X187414364Y-75626686D01*
X187414366Y-75626697D01*
X187473258Y-75846488D01*
X187473261Y-75846497D01*
X187569431Y-76052732D01*
X187569432Y-76052734D01*
X187699954Y-76239141D01*
X187860858Y-76400045D01*
X187860861Y-76400047D01*
X188047266Y-76530568D01*
X188105275Y-76557618D01*
X188157714Y-76603791D01*
X188176866Y-76670984D01*
X188156650Y-76737865D01*
X188105275Y-76782382D01*
X188047267Y-76809431D01*
X188047265Y-76809432D01*
X187860858Y-76939954D01*
X187699954Y-77100858D01*
X187569432Y-77287265D01*
X187569431Y-77287267D01*
X187473261Y-77493502D01*
X187473258Y-77493511D01*
X187414366Y-77713302D01*
X187414364Y-77713313D01*
X187394532Y-77939998D01*
X187394532Y-77940001D01*
X187414364Y-78166686D01*
X187414366Y-78166697D01*
X187473258Y-78386488D01*
X187473261Y-78386497D01*
X187569431Y-78592732D01*
X187569432Y-78592734D01*
X187699954Y-78779141D01*
X187860859Y-78940046D01*
X187896621Y-78965086D01*
X187940247Y-79019662D01*
X187949500Y-79066662D01*
X187949500Y-79587769D01*
X187929815Y-79654808D01*
X187913181Y-79675450D01*
X186477052Y-81111578D01*
X186477049Y-81111581D01*
X186439208Y-81168214D01*
X186439209Y-81168215D01*
X186394914Y-81234508D01*
X186338343Y-81371082D01*
X186338340Y-81371092D01*
X186309500Y-81516079D01*
X186309500Y-82173336D01*
X186289815Y-82240375D01*
X186256625Y-82274910D01*
X186220863Y-82299951D01*
X186059951Y-82460862D01*
X185929433Y-82647264D01*
X185929432Y-82647266D01*
X185905593Y-82698390D01*
X185902106Y-82705867D01*
X185855933Y-82758306D01*
X185788739Y-82777457D01*
X185721858Y-82757241D01*
X185677342Y-82705865D01*
X185650135Y-82647520D01*
X185650134Y-82647518D01*
X185519657Y-82461179D01*
X185358820Y-82300342D01*
X185172482Y-82169865D01*
X184966328Y-82073734D01*
X184770000Y-82021127D01*
X184770000Y-82984314D01*
X184765606Y-82979920D01*
X184674394Y-82927259D01*
X184572661Y-82900000D01*
X184467339Y-82900000D01*
X184365606Y-82927259D01*
X184274394Y-82979920D01*
X184270000Y-82984314D01*
X184270000Y-82021127D01*
X184073671Y-82073734D01*
X183867517Y-82169865D01*
X183681179Y-82300342D01*
X183520342Y-82461179D01*
X183389867Y-82647515D01*
X183362657Y-82705867D01*
X183316484Y-82758306D01*
X183249290Y-82777457D01*
X183182409Y-82757241D01*
X183137893Y-82705865D01*
X183134407Y-82698390D01*
X183110568Y-82647266D01*
X182980047Y-82460861D01*
X182819139Y-82299953D01*
X182813608Y-82296080D01*
X182783375Y-82274910D01*
X182739751Y-82220332D01*
X182730500Y-82173336D01*
X182730500Y-81882230D01*
X182750185Y-81815191D01*
X182766819Y-81794549D01*
X184182950Y-80378418D01*
X184182952Y-80378416D01*
X184245675Y-80284543D01*
X184265084Y-80255495D01*
X184321658Y-80118913D01*
X184340554Y-80023918D01*
X184350500Y-79973920D01*
X184350500Y-79066662D01*
X184370185Y-78999623D01*
X184403379Y-78965086D01*
X184409042Y-78961121D01*
X184439139Y-78940047D01*
X184600047Y-78779139D01*
X184730568Y-78592734D01*
X184826739Y-78386496D01*
X184885635Y-78166692D01*
X184904180Y-77954723D01*
X184905468Y-77940001D01*
X184905468Y-77939998D01*
X184898852Y-77864374D01*
X184885635Y-77713308D01*
X184826739Y-77493504D01*
X184730568Y-77287266D01*
X184600047Y-77100861D01*
X184600045Y-77100858D01*
X184439141Y-76939954D01*
X184252734Y-76809432D01*
X184252728Y-76809429D01*
X184194725Y-76782382D01*
X184142285Y-76736210D01*
X184123133Y-76669017D01*
X184143348Y-76602135D01*
X184194725Y-76557618D01*
X184252734Y-76530568D01*
X184439139Y-76400047D01*
X184600047Y-76239139D01*
X184730568Y-76052734D01*
X184826739Y-75846496D01*
X184885635Y-75626692D01*
X184904952Y-75405903D01*
X184905468Y-75400001D01*
X184905468Y-75399998D01*
X184890862Y-75233058D01*
X184885635Y-75173308D01*
X184840916Y-75006415D01*
X184826741Y-74953511D01*
X184826738Y-74953502D01*
X184795504Y-74886521D01*
X184730568Y-74747266D01*
X184653909Y-74637785D01*
X184600048Y-74560862D01*
X184524240Y-74485054D01*
X184439139Y-74399953D01*
X184410515Y-74379910D01*
X184403375Y-74374910D01*
X184359751Y-74320332D01*
X184350500Y-74273336D01*
X184350500Y-70042786D01*
X184370185Y-69975747D01*
X184420699Y-69931066D01*
X184508767Y-69888655D01*
X184508767Y-69888654D01*
X184508775Y-69888651D01*
X184731741Y-69736635D01*
X184929561Y-69553085D01*
X185097815Y-69342102D01*
X185232743Y-69108398D01*
X185331334Y-68857195D01*
X185391383Y-68594103D01*
X185411549Y-68325000D01*
X185391383Y-68055897D01*
X185331334Y-67792805D01*
X185232743Y-67541602D01*
X185097815Y-67307898D01*
X184929561Y-67096915D01*
X184929560Y-67096914D01*
X184929557Y-67096910D01*
X184731741Y-66913365D01*
X184692038Y-66886296D01*
X184508775Y-66761349D01*
X184508769Y-66761346D01*
X184508768Y-66761345D01*
X184508767Y-66761344D01*
X184265643Y-66644263D01*
X184265645Y-66644263D01*
X184007773Y-66564720D01*
X184007767Y-66564718D01*
X183740936Y-66524500D01*
X183740929Y-66524500D01*
X183471071Y-66524500D01*
X183471063Y-66524500D01*
X183204232Y-66564718D01*
X183204226Y-66564720D01*
X182946358Y-66644262D01*
X182703230Y-66761346D01*
X182480258Y-66913365D01*
X182282442Y-67096910D01*
X182114185Y-67307898D01*
X181979258Y-67541599D01*
X181979256Y-67541603D01*
X181880666Y-67792804D01*
X181880664Y-67792811D01*
X181820616Y-68055898D01*
X181800451Y-68324995D01*
X181800451Y-68325004D01*
X181820616Y-68594101D01*
X181880664Y-68857188D01*
X181880666Y-68857195D01*
X181926901Y-68975000D01*
X181979257Y-69108398D01*
X182114185Y-69342102D01*
X182167655Y-69409151D01*
X182282442Y-69553089D01*
X182469183Y-69726358D01*
X182480259Y-69736635D01*
X182703226Y-69888651D01*
X182703231Y-69888653D01*
X182703232Y-69888654D01*
X182703233Y-69888655D01*
X182779301Y-69925287D01*
X182831161Y-69972109D01*
X182849500Y-70037007D01*
X182849500Y-74273336D01*
X182829815Y-74340375D01*
X182796625Y-74374910D01*
X182760863Y-74399951D01*
X182599951Y-74560862D01*
X182469432Y-74747265D01*
X182469431Y-74747267D01*
X182373261Y-74953502D01*
X182373258Y-74953511D01*
X182314366Y-75173302D01*
X182314364Y-75173313D01*
X182294532Y-75399998D01*
X182294532Y-75400001D01*
X182314364Y-75626686D01*
X182314366Y-75626697D01*
X182373258Y-75846488D01*
X182373261Y-75846497D01*
X182469431Y-76052732D01*
X182469432Y-76052734D01*
X182599954Y-76239141D01*
X182760858Y-76400045D01*
X182760861Y-76400047D01*
X182947266Y-76530568D01*
X183005275Y-76557618D01*
X183057714Y-76603791D01*
X183076866Y-76670984D01*
X183056650Y-76737865D01*
X183005275Y-76782382D01*
X182947267Y-76809431D01*
X182947265Y-76809432D01*
X182760858Y-76939954D01*
X182599954Y-77100858D01*
X182469432Y-77287265D01*
X182469431Y-77287267D01*
X182373261Y-77493502D01*
X182373258Y-77493511D01*
X182314366Y-77713302D01*
X182314364Y-77713313D01*
X182294532Y-77939998D01*
X182294532Y-77940001D01*
X182314364Y-78166686D01*
X182314366Y-78166697D01*
X182373258Y-78386488D01*
X182373261Y-78386497D01*
X182469431Y-78592732D01*
X182469432Y-78592734D01*
X182599954Y-78779141D01*
X182760859Y-78940046D01*
X182796621Y-78965086D01*
X182840247Y-79019662D01*
X182849500Y-79066662D01*
X182849500Y-79537770D01*
X182829815Y-79604809D01*
X182813181Y-79625451D01*
X181397048Y-81041583D01*
X181376870Y-81071784D01*
X181376869Y-81071785D01*
X181314913Y-81164508D01*
X181258343Y-81301082D01*
X181258340Y-81301092D01*
X181229500Y-81446079D01*
X181229500Y-82173336D01*
X181209815Y-82240375D01*
X181176625Y-82274910D01*
X181140863Y-82299951D01*
X180979951Y-82460862D01*
X180849433Y-82647264D01*
X180849432Y-82647266D01*
X180825593Y-82698390D01*
X180822106Y-82705867D01*
X180775933Y-82758306D01*
X180708739Y-82777457D01*
X180641858Y-82757241D01*
X180597342Y-82705865D01*
X180570135Y-82647520D01*
X180570134Y-82647518D01*
X180439657Y-82461179D01*
X180278820Y-82300342D01*
X180092482Y-82169865D01*
X179886328Y-82073734D01*
X179690000Y-82021127D01*
X179690000Y-82984314D01*
X179685606Y-82979920D01*
X179594394Y-82927259D01*
X179492661Y-82900000D01*
X179387339Y-82900000D01*
X179285606Y-82927259D01*
X179194394Y-82979920D01*
X179190000Y-82984314D01*
X179190000Y-82021127D01*
X178993671Y-82073734D01*
X178787517Y-82169865D01*
X178601179Y-82300342D01*
X178440342Y-82461179D01*
X178309867Y-82647515D01*
X178282657Y-82705867D01*
X178236484Y-82758306D01*
X178169290Y-82777457D01*
X178102409Y-82757241D01*
X178057893Y-82705865D01*
X178054407Y-82698390D01*
X178030568Y-82647266D01*
X177900047Y-82460861D01*
X177739139Y-82299953D01*
X177733608Y-82296080D01*
X177703375Y-82274910D01*
X177659751Y-82220332D01*
X177650500Y-82173336D01*
X177650500Y-81762230D01*
X177670185Y-81695191D01*
X177686819Y-81674549D01*
X179182947Y-80178421D01*
X179182952Y-80178416D01*
X179202938Y-80148504D01*
X179262358Y-80059576D01*
X179262362Y-80059568D01*
X179265084Y-80055495D01*
X179321658Y-79918913D01*
X179334492Y-79854394D01*
X179350500Y-79773920D01*
X179350500Y-79071662D01*
X179370185Y-79004623D01*
X179403379Y-78970086D01*
X179439139Y-78945047D01*
X179600047Y-78784139D01*
X179730568Y-78597734D01*
X179826739Y-78391496D01*
X179885635Y-78171692D01*
X179902634Y-77977384D01*
X179905468Y-77945001D01*
X179905468Y-77944998D01*
X179896661Y-77844334D01*
X179885635Y-77718308D01*
X179826739Y-77498504D01*
X179730568Y-77292266D01*
X179600047Y-77105861D01*
X179600045Y-77105858D01*
X179439141Y-76944954D01*
X179252734Y-76814432D01*
X179252728Y-76814429D01*
X179194725Y-76787382D01*
X179142285Y-76741210D01*
X179123133Y-76674017D01*
X179143348Y-76607135D01*
X179194725Y-76562618D01*
X179252734Y-76535568D01*
X179439139Y-76405047D01*
X179600047Y-76244139D01*
X179730568Y-76057734D01*
X179826739Y-75851496D01*
X179885635Y-75631692D01*
X179905468Y-75405000D01*
X179905030Y-75399998D01*
X179897125Y-75309635D01*
X179885635Y-75178308D01*
X179826739Y-74958504D01*
X179730568Y-74752266D01*
X179650408Y-74637785D01*
X179600048Y-74565862D01*
X179553664Y-74519478D01*
X179439139Y-74404953D01*
X179431998Y-74399953D01*
X179403375Y-74379910D01*
X179359751Y-74325332D01*
X179350500Y-74278336D01*
X179350500Y-70042786D01*
X179370185Y-69975747D01*
X179420699Y-69931066D01*
X179508767Y-69888655D01*
X179508767Y-69888654D01*
X179508775Y-69888651D01*
X179731741Y-69736635D01*
X179929561Y-69553085D01*
X180097815Y-69342102D01*
X180232743Y-69108398D01*
X180331334Y-68857195D01*
X180391383Y-68594103D01*
X180411549Y-68325000D01*
X180391383Y-68055897D01*
X180331334Y-67792805D01*
X180232743Y-67541602D01*
X180097815Y-67307898D01*
X179929561Y-67096915D01*
X179929560Y-67096914D01*
X179929557Y-67096910D01*
X179731741Y-66913365D01*
X179692038Y-66886296D01*
X179508775Y-66761349D01*
X179508769Y-66761346D01*
X179508768Y-66761345D01*
X179508767Y-66761344D01*
X179265643Y-66644263D01*
X179265645Y-66644263D01*
X179007773Y-66564720D01*
X179007767Y-66564718D01*
X178740936Y-66524500D01*
X178740929Y-66524500D01*
X178471071Y-66524500D01*
X178471063Y-66524500D01*
X178204232Y-66564718D01*
X178204226Y-66564720D01*
X177946358Y-66644262D01*
X177703230Y-66761346D01*
X177480258Y-66913365D01*
X177282442Y-67096910D01*
X177114185Y-67307898D01*
X176979258Y-67541599D01*
X176979256Y-67541603D01*
X176880666Y-67792804D01*
X176880664Y-67792811D01*
X176820616Y-68055898D01*
X176800451Y-68324995D01*
X176800451Y-68325004D01*
X176820616Y-68594101D01*
X176880664Y-68857188D01*
X176880666Y-68857195D01*
X176926901Y-68975000D01*
X176979257Y-69108398D01*
X177114185Y-69342102D01*
X177167655Y-69409151D01*
X177282442Y-69553089D01*
X177469183Y-69726358D01*
X177480259Y-69736635D01*
X177703226Y-69888651D01*
X177703231Y-69888653D01*
X177703232Y-69888654D01*
X177703233Y-69888655D01*
X177779301Y-69925287D01*
X177831161Y-69972109D01*
X177849500Y-70037007D01*
X177849500Y-74278336D01*
X177829815Y-74345375D01*
X177796625Y-74379910D01*
X177760863Y-74404951D01*
X177599951Y-74565862D01*
X177469432Y-74752265D01*
X177469431Y-74752267D01*
X177373261Y-74958502D01*
X177373258Y-74958511D01*
X177314366Y-75178302D01*
X177314364Y-75178313D01*
X177294532Y-75404998D01*
X177294532Y-75405001D01*
X177314364Y-75631686D01*
X177314366Y-75631697D01*
X177373258Y-75851488D01*
X177373261Y-75851497D01*
X177469431Y-76057732D01*
X177469432Y-76057734D01*
X177599954Y-76244141D01*
X177760858Y-76405045D01*
X177760861Y-76405047D01*
X177947266Y-76535568D01*
X178005275Y-76562618D01*
X178057714Y-76608791D01*
X178076866Y-76675984D01*
X178056650Y-76742865D01*
X178005275Y-76787382D01*
X177947267Y-76814431D01*
X177947265Y-76814432D01*
X177760858Y-76944954D01*
X177599954Y-77105858D01*
X177469432Y-77292265D01*
X177469431Y-77292267D01*
X177373261Y-77498502D01*
X177373258Y-77498511D01*
X177314366Y-77718302D01*
X177314364Y-77718313D01*
X177294532Y-77944998D01*
X177294532Y-77945001D01*
X177314364Y-78171686D01*
X177314366Y-78171697D01*
X177373258Y-78391488D01*
X177373261Y-78391497D01*
X177469431Y-78597732D01*
X177469432Y-78597734D01*
X177599954Y-78784141D01*
X177760859Y-78945046D01*
X177783817Y-78961121D01*
X177796309Y-78969868D01*
X177796621Y-78970086D01*
X177840247Y-79024662D01*
X177849500Y-79071662D01*
X177849500Y-79337769D01*
X177829815Y-79404808D01*
X177813181Y-79425450D01*
X176317050Y-80921580D01*
X176317044Y-80921588D01*
X176267812Y-80995268D01*
X176267813Y-80995269D01*
X176234921Y-81044496D01*
X176234914Y-81044508D01*
X176178342Y-81181086D01*
X176178340Y-81181092D01*
X176149500Y-81326079D01*
X176149500Y-82173336D01*
X176129815Y-82240375D01*
X176096625Y-82274910D01*
X176060863Y-82299951D01*
X175899951Y-82460862D01*
X175769433Y-82647264D01*
X175769432Y-82647266D01*
X175745593Y-82698390D01*
X175742106Y-82705867D01*
X175695933Y-82758306D01*
X175628739Y-82777457D01*
X175561858Y-82757241D01*
X175517342Y-82705865D01*
X175490135Y-82647520D01*
X175490134Y-82647518D01*
X175359657Y-82461179D01*
X175198820Y-82300342D01*
X175012482Y-82169865D01*
X174806328Y-82073734D01*
X174610000Y-82021127D01*
X174610000Y-82984314D01*
X174605606Y-82979920D01*
X174514394Y-82927259D01*
X174412661Y-82900000D01*
X174307339Y-82900000D01*
X174205606Y-82927259D01*
X174114394Y-82979920D01*
X174110000Y-82984314D01*
X174110000Y-82021127D01*
X173913671Y-82073734D01*
X173707517Y-82169865D01*
X173521179Y-82300342D01*
X173360342Y-82461179D01*
X173229865Y-82647517D01*
X173133734Y-82853673D01*
X173133730Y-82853682D01*
X173081127Y-83049999D01*
X172200500Y-83049999D01*
X172200500Y-81626692D01*
X172220185Y-81559653D01*
X172253374Y-81525119D01*
X172439139Y-81395047D01*
X172600047Y-81234139D01*
X172730568Y-81047734D01*
X172826739Y-80841496D01*
X172885635Y-80621692D01*
X172903274Y-80420080D01*
X172905468Y-80395001D01*
X172905468Y-80394998D01*
X172893263Y-80255495D01*
X172885635Y-80168308D01*
X172826739Y-79948504D01*
X172730568Y-79742266D01*
X172600047Y-79555861D01*
X172600045Y-79555858D01*
X172439141Y-79394954D01*
X172252734Y-79264432D01*
X172252728Y-79264429D01*
X172194725Y-79237382D01*
X172142285Y-79191210D01*
X172123133Y-79124017D01*
X172143348Y-79057135D01*
X172194725Y-79012618D01*
X172199501Y-79010391D01*
X172252734Y-78985568D01*
X172439139Y-78855047D01*
X172600047Y-78694139D01*
X172730568Y-78507734D01*
X172826739Y-78301496D01*
X172885635Y-78081692D01*
X172905468Y-77855000D01*
X172903665Y-77834396D01*
X172893072Y-77713313D01*
X172885635Y-77628308D01*
X172826739Y-77408504D01*
X172730568Y-77202266D01*
X172600047Y-77015861D01*
X172600045Y-77015858D01*
X172439141Y-76854954D01*
X172252734Y-76724432D01*
X172252732Y-76724431D01*
X172046497Y-76628261D01*
X172046488Y-76628258D01*
X171826697Y-76569366D01*
X171826693Y-76569365D01*
X171826692Y-76569365D01*
X171826691Y-76569364D01*
X171826686Y-76569364D01*
X171600002Y-76549532D01*
X171599998Y-76549532D01*
X171373313Y-76569364D01*
X171373302Y-76569366D01*
X171153511Y-76628258D01*
X171153502Y-76628261D01*
X170947267Y-76724431D01*
X170947265Y-76724432D01*
X170760858Y-76854954D01*
X170599954Y-77015858D01*
X170469432Y-77202265D01*
X170469431Y-77202267D01*
X170373261Y-77408502D01*
X170373258Y-77408511D01*
X170314366Y-77628302D01*
X170314364Y-77628313D01*
X170294532Y-77854998D01*
X169905468Y-77854998D01*
X169903665Y-77834396D01*
X169893072Y-77713313D01*
X169885635Y-77628308D01*
X169826739Y-77408504D01*
X169730568Y-77202266D01*
X169600047Y-77015861D01*
X169600045Y-77015858D01*
X169439141Y-76854954D01*
X169252734Y-76724432D01*
X169252732Y-76724431D01*
X169046497Y-76628261D01*
X169046488Y-76628258D01*
X168826697Y-76569366D01*
X168826693Y-76569365D01*
X168826692Y-76569365D01*
X168826691Y-76569364D01*
X168826686Y-76569364D01*
X168600002Y-76549532D01*
X168599998Y-76549532D01*
X168373313Y-76569364D01*
X168373302Y-76569366D01*
X168153511Y-76628258D01*
X168153502Y-76628261D01*
X167947267Y-76724431D01*
X167947265Y-76724432D01*
X167760862Y-76854951D01*
X167649896Y-76965917D01*
X167588573Y-76999401D01*
X167518881Y-76994417D01*
X167493325Y-76981338D01*
X167473917Y-76968370D01*
X167473916Y-76968369D01*
X167473914Y-76968368D01*
X167473911Y-76968366D01*
X167473906Y-76968364D01*
X167291839Y-76892950D01*
X167291829Y-76892947D01*
X167098543Y-76854500D01*
X167098541Y-76854500D01*
X166901459Y-76854500D01*
X166901457Y-76854500D01*
X166708170Y-76892947D01*
X166708160Y-76892950D01*
X166550637Y-76958198D01*
X166481168Y-76965667D01*
X166418689Y-76934391D01*
X166415531Y-76931345D01*
X166339139Y-76854953D01*
X166339138Y-76854952D01*
X166339137Y-76854951D01*
X166152734Y-76724432D01*
X166152732Y-76724431D01*
X165946497Y-76628261D01*
X165946488Y-76628258D01*
X165726697Y-76569366D01*
X165726693Y-76569365D01*
X165726692Y-76569365D01*
X165726691Y-76569364D01*
X165726686Y-76569364D01*
X165500002Y-76549532D01*
X165499998Y-76549532D01*
X165273313Y-76569364D01*
X165273302Y-76569366D01*
X165053511Y-76628258D01*
X165053502Y-76628261D01*
X164847267Y-76724431D01*
X164847265Y-76724432D01*
X164660858Y-76854954D01*
X164499954Y-77015858D01*
X164369432Y-77202265D01*
X164369431Y-77202267D01*
X164273261Y-77408502D01*
X164273258Y-77408511D01*
X164214366Y-77628302D01*
X164214364Y-77628313D01*
X164194532Y-77854998D01*
X164194532Y-77855001D01*
X164214364Y-78081686D01*
X164214366Y-78081697D01*
X164273258Y-78301488D01*
X164273261Y-78301497D01*
X164369431Y-78507732D01*
X164369432Y-78507734D01*
X164499954Y-78694141D01*
X164660858Y-78855045D01*
X164660861Y-78855047D01*
X164847266Y-78985568D01*
X164895039Y-79007845D01*
X164905275Y-79012618D01*
X164957714Y-79058791D01*
X164976866Y-79125984D01*
X164956650Y-79192865D01*
X164905275Y-79237382D01*
X164847267Y-79264431D01*
X164847265Y-79264432D01*
X164660858Y-79394954D01*
X164499954Y-79555858D01*
X164369432Y-79742265D01*
X164369431Y-79742267D01*
X164273261Y-79948502D01*
X164273258Y-79948511D01*
X164214366Y-80168302D01*
X164214364Y-80168313D01*
X164194532Y-80394998D01*
X164194532Y-80395001D01*
X164214364Y-80621686D01*
X164214366Y-80621697D01*
X164273258Y-80841488D01*
X164273261Y-80841497D01*
X164369431Y-81047732D01*
X164369432Y-81047734D01*
X164499954Y-81234141D01*
X164660858Y-81395045D01*
X164660861Y-81395047D01*
X164846624Y-81525118D01*
X164890248Y-81579693D01*
X164899500Y-81626692D01*
X164899500Y-86617587D01*
X164879815Y-86684626D01*
X164872450Y-86694896D01*
X164870186Y-86697734D01*
X164774211Y-86850476D01*
X164714631Y-87020745D01*
X164714630Y-87020750D01*
X164694435Y-87199996D01*
X164694435Y-87200003D01*
X164714630Y-87379249D01*
X164714631Y-87379254D01*
X164774211Y-87549523D01*
X164840493Y-87655009D01*
X164870184Y-87702262D01*
X164997738Y-87829816D01*
X165018625Y-87842940D01*
X165113079Y-87902290D01*
X165150478Y-87925789D01*
X165289683Y-87974499D01*
X165320745Y-87985368D01*
X165320750Y-87985369D01*
X165499996Y-88005565D01*
X165500000Y-88005565D01*
X165500004Y-88005565D01*
X165679249Y-87985369D01*
X165679251Y-87985368D01*
X165679255Y-87985368D01*
X165679258Y-87985366D01*
X165679262Y-87985366D01*
X165834545Y-87931030D01*
X165904324Y-87927468D01*
X165964951Y-87962196D01*
X165997179Y-88024190D01*
X165999500Y-88048071D01*
X165999500Y-88534218D01*
X165979815Y-88601257D01*
X165963181Y-88621899D01*
X164716899Y-89868181D01*
X164655576Y-89901666D01*
X164629218Y-89904500D01*
X162069602Y-89904500D01*
X162002563Y-89884815D01*
X161959117Y-89836795D01*
X161952284Y-89823385D01*
X161831971Y-89657786D01*
X161687213Y-89513028D01*
X161521613Y-89392715D01*
X161521612Y-89392714D01*
X161521610Y-89392713D01*
X161464653Y-89363691D01*
X161339223Y-89299781D01*
X161144534Y-89236522D01*
X160969995Y-89208878D01*
X160942352Y-89204500D01*
X160737648Y-89204500D01*
X160713329Y-89208351D01*
X160535465Y-89236522D01*
X160340776Y-89299781D01*
X160158386Y-89392715D01*
X159992786Y-89513028D01*
X159848028Y-89657786D01*
X159727715Y-89823386D01*
X159680485Y-89916080D01*
X159632510Y-89966876D01*
X159564689Y-89983671D01*
X159498554Y-89961134D01*
X159459515Y-89916080D01*
X159452171Y-89901666D01*
X159412287Y-89823390D01*
X159404556Y-89812749D01*
X159291971Y-89657786D01*
X159147213Y-89513028D01*
X158981610Y-89392712D01*
X158968200Y-89385879D01*
X158917406Y-89337903D01*
X158900500Y-89275397D01*
X158900500Y-86520945D01*
X158900498Y-86520936D01*
X158896380Y-86505565D01*
X158859577Y-86368215D01*
X158827523Y-86312696D01*
X158827523Y-86312695D01*
X158780524Y-86231290D01*
X158780521Y-86231286D01*
X158780520Y-86231284D01*
X158668716Y-86119480D01*
X158668715Y-86119479D01*
X158664385Y-86115149D01*
X158664374Y-86115139D01*
X158230700Y-85681465D01*
X158197215Y-85620142D01*
X158195163Y-85607686D01*
X158185368Y-85520745D01*
X158125789Y-85350478D01*
X158029816Y-85197738D01*
X158015906Y-85183828D01*
X157982421Y-85122505D01*
X157987405Y-85052813D01*
X158029277Y-84996880D01*
X158094741Y-84972463D01*
X158122981Y-84973673D01*
X158197648Y-84985500D01*
X158197649Y-84985500D01*
X158402351Y-84985500D01*
X158402352Y-84985500D01*
X158604534Y-84953477D01*
X158799219Y-84890220D01*
X158981610Y-84797287D01*
X159077901Y-84727328D01*
X159147213Y-84676971D01*
X159147215Y-84676968D01*
X159147219Y-84676966D01*
X159291966Y-84532219D01*
X159318330Y-84495930D01*
X159373658Y-84453265D01*
X159443271Y-84447284D01*
X159505067Y-84479889D01*
X159539426Y-84540726D01*
X159541938Y-84555559D01*
X159545907Y-84592480D01*
X159596202Y-84727328D01*
X159596206Y-84727335D01*
X159682452Y-84842544D01*
X159682455Y-84842547D01*
X159797664Y-84928793D01*
X159797671Y-84928797D01*
X159932517Y-84979091D01*
X159932516Y-84979091D01*
X159939444Y-84979835D01*
X159992127Y-84985500D01*
X161675500Y-84985499D01*
X161742539Y-85005184D01*
X161788294Y-85057987D01*
X161799500Y-85109499D01*
X161799500Y-87217587D01*
X161779815Y-87284626D01*
X161772450Y-87294896D01*
X161770186Y-87297734D01*
X161674211Y-87450476D01*
X161614631Y-87620745D01*
X161614630Y-87620750D01*
X161594435Y-87799996D01*
X161594435Y-87800003D01*
X161614630Y-87979249D01*
X161614631Y-87979254D01*
X161674211Y-88149523D01*
X161721936Y-88225476D01*
X161770184Y-88302262D01*
X161897738Y-88429816D01*
X162050478Y-88525789D01*
X162074567Y-88534218D01*
X162220745Y-88585368D01*
X162220750Y-88585369D01*
X162399996Y-88605565D01*
X162400000Y-88605565D01*
X162400004Y-88605565D01*
X162579249Y-88585369D01*
X162579252Y-88585368D01*
X162579255Y-88585368D01*
X162749522Y-88525789D01*
X162902262Y-88429816D01*
X163029816Y-88302262D01*
X163125789Y-88149522D01*
X163185368Y-87979255D01*
X163191392Y-87925789D01*
X163205565Y-87800003D01*
X163205565Y-87799996D01*
X163185369Y-87620750D01*
X163185368Y-87620745D01*
X163125788Y-87450476D01*
X163084878Y-87385368D01*
X163029816Y-87297738D01*
X163029814Y-87297736D01*
X163029813Y-87297734D01*
X163027550Y-87294896D01*
X163026659Y-87292715D01*
X163026111Y-87291842D01*
X163026264Y-87291745D01*
X163001144Y-87230209D01*
X163000500Y-87217587D01*
X163000500Y-81626692D01*
X163020185Y-81559653D01*
X163053374Y-81525119D01*
X163239139Y-81395047D01*
X163400047Y-81234139D01*
X163530568Y-81047734D01*
X163626739Y-80841496D01*
X163685635Y-80621692D01*
X163703274Y-80420080D01*
X163705468Y-80395001D01*
X163705468Y-80394998D01*
X163693263Y-80255495D01*
X163685635Y-80168308D01*
X163626739Y-79948504D01*
X163530568Y-79742266D01*
X163400047Y-79555861D01*
X163400045Y-79555858D01*
X163239141Y-79394954D01*
X163052734Y-79264432D01*
X163052728Y-79264429D01*
X162994725Y-79237382D01*
X162942285Y-79191210D01*
X162923133Y-79124017D01*
X162943348Y-79057135D01*
X162994725Y-79012618D01*
X162999501Y-79010391D01*
X163052734Y-78985568D01*
X163239139Y-78855047D01*
X163400047Y-78694139D01*
X163530568Y-78507734D01*
X163626739Y-78301496D01*
X163685635Y-78081692D01*
X163705468Y-77855000D01*
X163703665Y-77834396D01*
X163693072Y-77713313D01*
X163685635Y-77628308D01*
X163626739Y-77408504D01*
X163530568Y-77202266D01*
X163400047Y-77015861D01*
X163400045Y-77015858D01*
X163239141Y-76854954D01*
X163052734Y-76724432D01*
X163052732Y-76724431D01*
X162846497Y-76628261D01*
X162846488Y-76628258D01*
X162626697Y-76569366D01*
X162626693Y-76569365D01*
X162626692Y-76569365D01*
X162626691Y-76569364D01*
X162626686Y-76569364D01*
X162400002Y-76549532D01*
X162399998Y-76549532D01*
X162173313Y-76569364D01*
X162173302Y-76569366D01*
X161953511Y-76628258D01*
X161953502Y-76628261D01*
X161747267Y-76724431D01*
X161747265Y-76724432D01*
X161560858Y-76854954D01*
X161399954Y-77015858D01*
X161269432Y-77202265D01*
X161269431Y-77202267D01*
X161173261Y-77408502D01*
X161173258Y-77408511D01*
X161114366Y-77628302D01*
X161114364Y-77628313D01*
X161094532Y-77854998D01*
X161094532Y-77855001D01*
X161114364Y-78081686D01*
X161114366Y-78081697D01*
X161173258Y-78301488D01*
X161173261Y-78301497D01*
X161269431Y-78507732D01*
X161269432Y-78507734D01*
X161399954Y-78694141D01*
X161560858Y-78855045D01*
X161560861Y-78855047D01*
X161747266Y-78985568D01*
X161795039Y-79007845D01*
X161805275Y-79012618D01*
X161857714Y-79058791D01*
X161876866Y-79125984D01*
X161856650Y-79192865D01*
X161805275Y-79237382D01*
X161747267Y-79264431D01*
X161747265Y-79264432D01*
X161560858Y-79394954D01*
X161399954Y-79555858D01*
X161269432Y-79742265D01*
X161269431Y-79742267D01*
X161173261Y-79948502D01*
X161173258Y-79948511D01*
X161114366Y-80168302D01*
X161114364Y-80168313D01*
X161094532Y-80394998D01*
X161094532Y-80395001D01*
X161114364Y-80621686D01*
X161114366Y-80621697D01*
X161173258Y-80841488D01*
X161173261Y-80841497D01*
X161269431Y-81047732D01*
X161269432Y-81047734D01*
X161399954Y-81234141D01*
X161538632Y-81372819D01*
X161572117Y-81434142D01*
X161567133Y-81503834D01*
X161525261Y-81559767D01*
X161459797Y-81584184D01*
X161450951Y-81584500D01*
X160685097Y-81584500D01*
X160618058Y-81564815D01*
X160597416Y-81548181D01*
X160236819Y-81187584D01*
X160203334Y-81126261D01*
X160200500Y-81099903D01*
X160200500Y-78589059D01*
X160200501Y-78589046D01*
X160200501Y-78420945D01*
X160200501Y-78420943D01*
X160159577Y-78268215D01*
X160123406Y-78205565D01*
X160123406Y-78205564D01*
X160080524Y-78131290D01*
X160080521Y-78131286D01*
X160080520Y-78131284D01*
X159968716Y-78019480D01*
X159968715Y-78019479D01*
X159964385Y-78015149D01*
X159964374Y-78015139D01*
X156987590Y-75038355D01*
X156987588Y-75038352D01*
X156868717Y-74919481D01*
X156868709Y-74919475D01*
X156780789Y-74868715D01*
X156780788Y-74868715D01*
X156760077Y-74856757D01*
X156731785Y-74840423D01*
X156579057Y-74799499D01*
X156420943Y-74799499D01*
X156413347Y-74799499D01*
X156413331Y-74799500D01*
X154103569Y-74799500D01*
X154036530Y-74779815D01*
X153990775Y-74727011D01*
X153980831Y-74657853D01*
X153991187Y-74623096D01*
X154073613Y-74446331D01*
X154073618Y-74446317D01*
X154132488Y-74226610D01*
X154132490Y-74226599D01*
X154152315Y-74000002D01*
X154152315Y-73999997D01*
X154132490Y-73773400D01*
X154132488Y-73773389D01*
X154073618Y-73553682D01*
X154073613Y-73553668D01*
X153977485Y-73347521D01*
X153977481Y-73347513D01*
X153926374Y-73274526D01*
X153247349Y-73953551D01*
X153247349Y-73947339D01*
X153220090Y-73845606D01*
X153167429Y-73754394D01*
X153092955Y-73679920D01*
X153001743Y-73627259D01*
X152900010Y-73600000D01*
X152893797Y-73600000D01*
X153572821Y-72920974D01*
X153499827Y-72869863D01*
X153293680Y-72773735D01*
X153293666Y-72773730D01*
X153073959Y-72714860D01*
X153073948Y-72714858D01*
X152847351Y-72695034D01*
X152847347Y-72695034D01*
X152620749Y-72714858D01*
X152620738Y-72714860D01*
X152401031Y-72773730D01*
X152401022Y-72773734D01*
X152194865Y-72869866D01*
X152194861Y-72869868D01*
X152121875Y-72920973D01*
X152121875Y-72920974D01*
X152800902Y-73600000D01*
X152794688Y-73600000D01*
X152692955Y-73627259D01*
X152601743Y-73679920D01*
X152527269Y-73754394D01*
X152474608Y-73845606D01*
X152447349Y-73947339D01*
X152447349Y-73953552D01*
X151768323Y-73274526D01*
X151768322Y-73274526D01*
X151717217Y-73347512D01*
X151717215Y-73347516D01*
X151621083Y-73553673D01*
X151621079Y-73553682D01*
X151562209Y-73773389D01*
X151562207Y-73773400D01*
X151542383Y-73999997D01*
X151542383Y-74000002D01*
X151562207Y-74226599D01*
X151562209Y-74226610D01*
X151621079Y-74446317D01*
X151621084Y-74446331D01*
X151703511Y-74623096D01*
X151714003Y-74692173D01*
X151685483Y-74755957D01*
X151627006Y-74794196D01*
X151591129Y-74799500D01*
X150771849Y-74799500D01*
X150704810Y-74779815D01*
X150659055Y-74727011D01*
X150647849Y-74675500D01*
X150647848Y-73152129D01*
X150647847Y-73152123D01*
X150647846Y-73152116D01*
X150641440Y-73092517D01*
X150630139Y-73062218D01*
X150591146Y-72957671D01*
X150591142Y-72957664D01*
X150504896Y-72842455D01*
X150504893Y-72842452D01*
X150389684Y-72756206D01*
X150389677Y-72756202D01*
X150254831Y-72705908D01*
X150254832Y-72705908D01*
X150195232Y-72699501D01*
X150195230Y-72699500D01*
X150195222Y-72699500D01*
X150195213Y-72699500D01*
X148499478Y-72699500D01*
X148499472Y-72699501D01*
X148439865Y-72705908D01*
X148305020Y-72756202D01*
X148305013Y-72756206D01*
X148189804Y-72842452D01*
X148189801Y-72842455D01*
X148103555Y-72957664D01*
X148103551Y-72957671D01*
X148053257Y-73092517D01*
X148046850Y-73152116D01*
X148046849Y-73152127D01*
X148046849Y-73947339D01*
X148046850Y-74675500D01*
X148027165Y-74742539D01*
X147974362Y-74788294D01*
X147922850Y-74799500D01*
X144900097Y-74799500D01*
X144833058Y-74779815D01*
X144812416Y-74763181D01*
X144242819Y-74193584D01*
X144209334Y-74132261D01*
X144206500Y-74105903D01*
X144206500Y-71782412D01*
X144226185Y-71715373D01*
X144233555Y-71705097D01*
X144235810Y-71702267D01*
X144235816Y-71702262D01*
X144331789Y-71549522D01*
X144391368Y-71379255D01*
X144395587Y-71341811D01*
X144411565Y-71200003D01*
X144411565Y-71199996D01*
X144391369Y-71020750D01*
X144391368Y-71020745D01*
X144331788Y-70850476D01*
X144235813Y-70697734D01*
X144233550Y-70694896D01*
X144232659Y-70692715D01*
X144232111Y-70691842D01*
X144232264Y-70691745D01*
X144207144Y-70630209D01*
X144206500Y-70617587D01*
X144206500Y-70249499D01*
X144226185Y-70182460D01*
X144278989Y-70136705D01*
X144330500Y-70125499D01*
X144953871Y-70125499D01*
X144953872Y-70125499D01*
X145013483Y-70119091D01*
X145148331Y-70068796D01*
X145263546Y-69982546D01*
X145349796Y-69867331D01*
X145400091Y-69732483D01*
X145406500Y-69672873D01*
X145406499Y-66977128D01*
X145400091Y-66917517D01*
X145398542Y-66913365D01*
X145349797Y-66782671D01*
X145349795Y-66782668D01*
X145349792Y-66782664D01*
X145287019Y-66698810D01*
X145262602Y-66633348D01*
X145277453Y-66565074D01*
X145326858Y-66515669D01*
X145386286Y-66500500D01*
X154608111Y-66500500D01*
X154675150Y-66520185D01*
X154695792Y-66536819D01*
X156815330Y-68656357D01*
X156848539Y-68716443D01*
X156880666Y-68857195D01*
X156979257Y-69108398D01*
X157114185Y-69342102D01*
X157167655Y-69409151D01*
X157282442Y-69553089D01*
X157469183Y-69726358D01*
X157480259Y-69736635D01*
X157703226Y-69888651D01*
X157946359Y-70005738D01*
X158204228Y-70085280D01*
X158204229Y-70085280D01*
X158204232Y-70085281D01*
X158471063Y-70125499D01*
X158471068Y-70125499D01*
X158471071Y-70125500D01*
X158471072Y-70125500D01*
X158740928Y-70125500D01*
X158740929Y-70125500D01*
X158740936Y-70125499D01*
X159007767Y-70085281D01*
X159007768Y-70085280D01*
X159007772Y-70085280D01*
X159265641Y-70005738D01*
X159508775Y-69888651D01*
X159569798Y-69847045D01*
X159636277Y-69825546D01*
X159639649Y-69825500D01*
X162572351Y-69825500D01*
X162639390Y-69845185D01*
X162642202Y-69847046D01*
X162703226Y-69888651D01*
X162946359Y-70005738D01*
X163204228Y-70085280D01*
X163204229Y-70085280D01*
X163204232Y-70085281D01*
X163471063Y-70125499D01*
X163471068Y-70125499D01*
X163471071Y-70125500D01*
X163471072Y-70125500D01*
X163740928Y-70125500D01*
X163740929Y-70125500D01*
X163740936Y-70125499D01*
X164007767Y-70085281D01*
X164007768Y-70085280D01*
X164007772Y-70085280D01*
X164265641Y-70005738D01*
X164508775Y-69888651D01*
X164569798Y-69847045D01*
X164636277Y-69825546D01*
X164639649Y-69825500D01*
X167572351Y-69825500D01*
X167639390Y-69845185D01*
X167642202Y-69847046D01*
X167703226Y-69888651D01*
X167946359Y-70005738D01*
X168204228Y-70085280D01*
X168204229Y-70085280D01*
X168204232Y-70085281D01*
X168471063Y-70125499D01*
X168471068Y-70125499D01*
X168471071Y-70125500D01*
X168471072Y-70125500D01*
X168740928Y-70125500D01*
X168740929Y-70125500D01*
X168740936Y-70125499D01*
X169007767Y-70085281D01*
X169007768Y-70085280D01*
X169007772Y-70085280D01*
X169265641Y-70005738D01*
X169508775Y-69888651D01*
X169569798Y-69847045D01*
X169636277Y-69825546D01*
X169639649Y-69825500D01*
X172572351Y-69825500D01*
X172639390Y-69845185D01*
X172642202Y-69847046D01*
X172703226Y-69888651D01*
X172946359Y-70005738D01*
X173204228Y-70085280D01*
X173204229Y-70085280D01*
X173204232Y-70085281D01*
X173471063Y-70125499D01*
X173471068Y-70125499D01*
X173471071Y-70125500D01*
X173471072Y-70125500D01*
X173740928Y-70125500D01*
X173740929Y-70125500D01*
X173740936Y-70125499D01*
X174007767Y-70085281D01*
X174007768Y-70085280D01*
X174007772Y-70085280D01*
X174265641Y-70005738D01*
X174508775Y-69888651D01*
X174731741Y-69736635D01*
X174929561Y-69553085D01*
X175097815Y-69342102D01*
X175232743Y-69108398D01*
X175331334Y-68857195D01*
X175391383Y-68594103D01*
X175411549Y-68325000D01*
X175391383Y-68055897D01*
X175331334Y-67792805D01*
X175232743Y-67541602D01*
X175097815Y-67307898D01*
X174929561Y-67096915D01*
X174929560Y-67096914D01*
X174929557Y-67096910D01*
X174731741Y-66913365D01*
X174692038Y-66886296D01*
X174508775Y-66761349D01*
X174508769Y-66761346D01*
X174508768Y-66761345D01*
X174508767Y-66761344D01*
X174265643Y-66644263D01*
X174265645Y-66644263D01*
X174007773Y-66564720D01*
X174007767Y-66564718D01*
X173740936Y-66524500D01*
X173740929Y-66524500D01*
X173471071Y-66524500D01*
X173471063Y-66524500D01*
X173204232Y-66564718D01*
X173204226Y-66564720D01*
X172946358Y-66644262D01*
X172703229Y-66761347D01*
X172703225Y-66761349D01*
X172642202Y-66802954D01*
X172575722Y-66824454D01*
X172572351Y-66824500D01*
X169639649Y-66824500D01*
X169572610Y-66804815D01*
X169569830Y-66802976D01*
X169508775Y-66761349D01*
X169508769Y-66761346D01*
X169508768Y-66761345D01*
X169508767Y-66761344D01*
X169265643Y-66644263D01*
X169265645Y-66644263D01*
X169007773Y-66564720D01*
X169007767Y-66564718D01*
X168740936Y-66524500D01*
X168740929Y-66524500D01*
X168471071Y-66524500D01*
X168471063Y-66524500D01*
X168204232Y-66564718D01*
X168204226Y-66564720D01*
X167946358Y-66644262D01*
X167703229Y-66761347D01*
X167703225Y-66761349D01*
X167642202Y-66802954D01*
X167575722Y-66824454D01*
X167572351Y-66824500D01*
X164639649Y-66824500D01*
X164572610Y-66804815D01*
X164569830Y-66802976D01*
X164508775Y-66761349D01*
X164508769Y-66761346D01*
X164508768Y-66761345D01*
X164508767Y-66761344D01*
X164265643Y-66644263D01*
X164265645Y-66644263D01*
X164007773Y-66564720D01*
X164007767Y-66564718D01*
X163740936Y-66524500D01*
X163740929Y-66524500D01*
X163471071Y-66524500D01*
X163471063Y-66524500D01*
X163204232Y-66564718D01*
X163204226Y-66564720D01*
X162946358Y-66644262D01*
X162703229Y-66761347D01*
X162703225Y-66761349D01*
X162642202Y-66802954D01*
X162575722Y-66824454D01*
X162572351Y-66824500D01*
X159639649Y-66824500D01*
X159572610Y-66804815D01*
X159569830Y-66802976D01*
X159508775Y-66761349D01*
X159508769Y-66761346D01*
X159508768Y-66761345D01*
X159508767Y-66761344D01*
X159265643Y-66644263D01*
X159265645Y-66644263D01*
X159007778Y-66564721D01*
X159007772Y-66564720D01*
X159000986Y-66563697D01*
X158937632Y-66534240D01*
X158931791Y-66528764D01*
X156258512Y-63855485D01*
X156258510Y-63855483D01*
X156243828Y-63844816D01*
X156201165Y-63789488D01*
X156195186Y-63719875D01*
X156227792Y-63658080D01*
X156288631Y-63623722D01*
X156316716Y-63620500D01*
X200550500Y-63620500D01*
X200617539Y-63640185D01*
G37*
%TD.AperFunction*%
%TA.AperFunction,Conductor*%
G36*
X143030474Y-78113220D02*
G01*
X143041559Y-78120185D01*
X143050478Y-78125789D01*
X143159851Y-78164060D01*
X143216627Y-78204782D01*
X143235938Y-78240146D01*
X143274211Y-78349523D01*
X143274212Y-78349524D01*
X143314561Y-78413739D01*
X143370184Y-78502262D01*
X143497738Y-78629816D01*
X143560172Y-78669046D01*
X143641183Y-78719949D01*
X143650478Y-78725789D01*
X143759851Y-78764060D01*
X143816627Y-78804782D01*
X143835938Y-78840146D01*
X143874211Y-78949523D01*
X143874212Y-78949524D01*
X143970184Y-79102262D01*
X144097738Y-79229816D01*
X144250478Y-79325789D01*
X144420745Y-79385368D01*
X144420750Y-79385369D01*
X144599996Y-79405565D01*
X144600000Y-79405565D01*
X144600004Y-79405565D01*
X144779249Y-79385369D01*
X144779252Y-79385368D01*
X144779255Y-79385368D01*
X144949522Y-79325789D01*
X145102262Y-79229816D01*
X145102267Y-79229810D01*
X145105097Y-79227555D01*
X145107275Y-79226665D01*
X145108158Y-79226111D01*
X145108255Y-79226265D01*
X145169783Y-79201145D01*
X145182412Y-79200500D01*
X146204018Y-79200500D01*
X146271057Y-79220185D01*
X146316812Y-79272989D01*
X146326756Y-79342147D01*
X146305593Y-79395621D01*
X146299161Y-79404808D01*
X146269432Y-79447265D01*
X146269431Y-79447267D01*
X146173261Y-79653502D01*
X146173258Y-79653511D01*
X146114366Y-79873302D01*
X146114364Y-79873313D01*
X146094532Y-80099998D01*
X146094532Y-80100001D01*
X146114364Y-80326686D01*
X146114366Y-80326697D01*
X146173258Y-80546488D01*
X146173261Y-80546497D01*
X146269431Y-80752732D01*
X146269432Y-80752734D01*
X146399954Y-80939141D01*
X146560858Y-81100045D01*
X146560861Y-81100047D01*
X146747266Y-81230568D01*
X146953504Y-81326739D01*
X147173308Y-81385635D01*
X147335230Y-81399801D01*
X147399998Y-81405468D01*
X147400000Y-81405468D01*
X147400002Y-81405468D01*
X147456673Y-81400509D01*
X147626692Y-81385635D01*
X147846496Y-81326739D01*
X148052734Y-81230568D01*
X148239139Y-81100047D01*
X148400047Y-80939139D01*
X148530568Y-80752734D01*
X148626739Y-80546496D01*
X148685635Y-80326692D01*
X148705468Y-80100000D01*
X148685635Y-79873308D01*
X148644930Y-79721394D01*
X148646593Y-79651546D01*
X148685755Y-79593683D01*
X148749984Y-79566179D01*
X148818886Y-79577765D01*
X148852386Y-79601621D01*
X149223181Y-79972416D01*
X149256666Y-80033739D01*
X149259500Y-80060097D01*
X149259500Y-81865953D01*
X149239815Y-81932992D01*
X149187011Y-81978747D01*
X149117853Y-81988691D01*
X149054297Y-81959666D01*
X149047819Y-81953634D01*
X148987213Y-81893028D01*
X148821613Y-81772715D01*
X148821612Y-81772714D01*
X148821610Y-81772713D01*
X148764653Y-81743691D01*
X148639223Y-81679781D01*
X148444534Y-81616522D01*
X148269995Y-81588878D01*
X148242352Y-81584500D01*
X148037648Y-81584500D01*
X148013329Y-81588351D01*
X147835465Y-81616522D01*
X147640776Y-81679781D01*
X147458386Y-81772715D01*
X147292786Y-81893028D01*
X147148028Y-82037786D01*
X147027715Y-82203386D01*
X146980485Y-82296080D01*
X146932510Y-82346876D01*
X146864689Y-82363671D01*
X146798554Y-82341134D01*
X146759515Y-82296080D01*
X146748728Y-82274910D01*
X146712287Y-82203390D01*
X146687930Y-82169865D01*
X146591971Y-82037786D01*
X146447213Y-81893028D01*
X146281613Y-81772715D01*
X146281612Y-81772714D01*
X146281610Y-81772713D01*
X146224653Y-81743691D01*
X146099223Y-81679781D01*
X145904534Y-81616522D01*
X145729995Y-81588878D01*
X145702352Y-81584500D01*
X145497648Y-81584500D01*
X145473329Y-81588351D01*
X145295465Y-81616522D01*
X145100776Y-81679781D01*
X144918386Y-81772715D01*
X144752786Y-81893028D01*
X144608028Y-82037786D01*
X144487715Y-82203386D01*
X144440485Y-82296080D01*
X144392510Y-82346876D01*
X144324689Y-82363671D01*
X144258554Y-82341134D01*
X144219515Y-82296080D01*
X144208728Y-82274910D01*
X144172287Y-82203390D01*
X144147930Y-82169865D01*
X144051971Y-82037786D01*
X143907213Y-81893028D01*
X143741610Y-81772712D01*
X143728200Y-81765879D01*
X143677406Y-81717903D01*
X143660500Y-81655397D01*
X143660500Y-81580945D01*
X143660500Y-81580943D01*
X143632247Y-81475500D01*
X143619577Y-81428215D01*
X143586594Y-81371087D01*
X143540520Y-81291284D01*
X143428716Y-81179480D01*
X143428715Y-81179479D01*
X143424385Y-81175149D01*
X143424374Y-81175139D01*
X142876819Y-80627584D01*
X142843334Y-80566261D01*
X142840500Y-80539903D01*
X142840500Y-78229060D01*
X142840501Y-78229047D01*
X142840501Y-78218213D01*
X142841749Y-78213960D01*
X142842187Y-78208675D01*
X142842188Y-78208669D01*
X142843251Y-78208846D01*
X142860186Y-78151174D01*
X142912990Y-78105419D01*
X142982148Y-78095475D01*
X143030474Y-78113220D01*
G37*
%TD.AperFunction*%
%TA.AperFunction,Conductor*%
G36*
X152666942Y-78020185D02*
G01*
X152687584Y-78036819D01*
X154303181Y-79652416D01*
X154336666Y-79713739D01*
X154339500Y-79740097D01*
X154339500Y-81865953D01*
X154319815Y-81932992D01*
X154267011Y-81978747D01*
X154197853Y-81988691D01*
X154134297Y-81959666D01*
X154127819Y-81953634D01*
X154067213Y-81893028D01*
X153901613Y-81772715D01*
X153901612Y-81772714D01*
X153901610Y-81772713D01*
X153844653Y-81743691D01*
X153719223Y-81679781D01*
X153524534Y-81616522D01*
X153349995Y-81588878D01*
X153322352Y-81584500D01*
X153117648Y-81584500D01*
X153093329Y-81588351D01*
X152915465Y-81616522D01*
X152720776Y-81679781D01*
X152538390Y-81772712D01*
X152382868Y-81885705D01*
X152317061Y-81909184D01*
X152249007Y-81893358D01*
X152222302Y-81873067D01*
X151900914Y-81551679D01*
X151867429Y-81490356D01*
X151872413Y-81420664D01*
X151914285Y-81364731D01*
X151979749Y-81340314D01*
X152020689Y-81344223D01*
X152173393Y-81385140D01*
X152173400Y-81385141D01*
X152399998Y-81404966D01*
X152400002Y-81404966D01*
X152626599Y-81385141D01*
X152626610Y-81385139D01*
X152846317Y-81326269D01*
X152846331Y-81326264D01*
X153052478Y-81230136D01*
X153125471Y-81179024D01*
X152446447Y-80500000D01*
X152452661Y-80500000D01*
X152554394Y-80472741D01*
X152645606Y-80420080D01*
X152720080Y-80345606D01*
X152772741Y-80254394D01*
X152800000Y-80152661D01*
X152800000Y-80146447D01*
X153479024Y-80825471D01*
X153530136Y-80752478D01*
X153626264Y-80546331D01*
X153626269Y-80546317D01*
X153685139Y-80326610D01*
X153685141Y-80326599D01*
X153704966Y-80100002D01*
X153704966Y-80099997D01*
X153685141Y-79873400D01*
X153685139Y-79873389D01*
X153626269Y-79653682D01*
X153626264Y-79653668D01*
X153530136Y-79447521D01*
X153530132Y-79447513D01*
X153479025Y-79374526D01*
X152800000Y-80053551D01*
X152800000Y-80047339D01*
X152772741Y-79945606D01*
X152720080Y-79854394D01*
X152645606Y-79779920D01*
X152554394Y-79727259D01*
X152452661Y-79700000D01*
X152446448Y-79700000D01*
X153125472Y-79020974D01*
X153052478Y-78969863D01*
X152846331Y-78873735D01*
X152846317Y-78873730D01*
X152626610Y-78814860D01*
X152626599Y-78814858D01*
X152400002Y-78795034D01*
X152399998Y-78795034D01*
X152173400Y-78814858D01*
X152173389Y-78814860D01*
X151953682Y-78873730D01*
X151953673Y-78873734D01*
X151747516Y-78969866D01*
X151747512Y-78969868D01*
X151674526Y-79020973D01*
X151674526Y-79020974D01*
X152353553Y-79700000D01*
X152347339Y-79700000D01*
X152245606Y-79727259D01*
X152154394Y-79779920D01*
X152079920Y-79854394D01*
X152027259Y-79945606D01*
X152000000Y-80047339D01*
X152000000Y-80053553D01*
X151435284Y-79488837D01*
X151401799Y-79427514D01*
X151400939Y-79422584D01*
X151400500Y-79420945D01*
X151400500Y-79420943D01*
X151396379Y-79405565D01*
X151396176Y-79404808D01*
X151380019Y-79344506D01*
X151359577Y-79268216D01*
X151337407Y-79229816D01*
X151280524Y-79131290D01*
X151280521Y-79131286D01*
X151280520Y-79131284D01*
X151168716Y-79019480D01*
X151168715Y-79019479D01*
X151164385Y-79015149D01*
X151164374Y-79015139D01*
X150361416Y-78212181D01*
X150327931Y-78150858D01*
X150332915Y-78081166D01*
X150374787Y-78025233D01*
X150440251Y-78000816D01*
X150449097Y-78000500D01*
X152599903Y-78000500D01*
X152666942Y-78020185D01*
G37*
%TD.AperFunction*%
%TA.AperFunction,Conductor*%
G36*
X155266942Y-77220185D02*
G01*
X155287584Y-77236819D01*
X156843181Y-78792416D01*
X156876666Y-78853739D01*
X156879500Y-78880097D01*
X156879500Y-81865953D01*
X156859815Y-81932992D01*
X156807011Y-81978747D01*
X156737853Y-81988691D01*
X156674297Y-81959666D01*
X156667819Y-81953634D01*
X156607213Y-81893028D01*
X156441613Y-81772715D01*
X156441612Y-81772714D01*
X156441610Y-81772713D01*
X156384653Y-81743691D01*
X156259223Y-81679781D01*
X156064534Y-81616522D01*
X155889995Y-81588878D01*
X155862352Y-81584500D01*
X155664500Y-81584500D01*
X155597461Y-81564815D01*
X155551706Y-81512011D01*
X155540500Y-81460500D01*
X155540500Y-79529060D01*
X155540501Y-79529047D01*
X155540501Y-79360944D01*
X155536097Y-79344507D01*
X155499577Y-79208216D01*
X155476222Y-79167763D01*
X155420524Y-79071290D01*
X155420518Y-79071282D01*
X154590993Y-78241757D01*
X153761415Y-77412180D01*
X153727931Y-77350858D01*
X153732915Y-77281166D01*
X153774787Y-77225233D01*
X153840251Y-77200816D01*
X153849097Y-77200500D01*
X155199903Y-77200500D01*
X155266942Y-77220185D01*
G37*
%TD.AperFunction*%
%TA.AperFunction,Conductor*%
G36*
X156266942Y-76020185D02*
G01*
X156287584Y-76036819D01*
X158963181Y-78712416D01*
X158996666Y-78773739D01*
X158999500Y-78800097D01*
X158999500Y-81313330D01*
X158999499Y-81313348D01*
X158999499Y-81479054D01*
X158999498Y-81479054D01*
X158999499Y-81479057D01*
X159021370Y-81560682D01*
X159019708Y-81630530D01*
X158980546Y-81688392D01*
X158916318Y-81715897D01*
X158847415Y-81704311D01*
X158845303Y-81703260D01*
X158799223Y-81679782D01*
X158799222Y-81679781D01*
X158799219Y-81679780D01*
X158719035Y-81653726D01*
X158604534Y-81616522D01*
X158429995Y-81588878D01*
X158402352Y-81584500D01*
X158204500Y-81584500D01*
X158137461Y-81564815D01*
X158091706Y-81512011D01*
X158080500Y-81460500D01*
X158080500Y-78669059D01*
X158080501Y-78669046D01*
X158080501Y-78500945D01*
X158080501Y-78500943D01*
X158039577Y-78348215D01*
X157993389Y-78268216D01*
X157993388Y-78268214D01*
X157960521Y-78211286D01*
X157960520Y-78211284D01*
X157848716Y-78099480D01*
X157848715Y-78099479D01*
X157844385Y-78095149D01*
X157844374Y-78095139D01*
X155987590Y-76238355D01*
X155987588Y-76238352D01*
X155961417Y-76212181D01*
X155927932Y-76150858D01*
X155932916Y-76081166D01*
X155974788Y-76025233D01*
X156040252Y-76000816D01*
X156049098Y-76000500D01*
X156199903Y-76000500D01*
X156266942Y-76020185D01*
G37*
%TD.AperFunction*%
%TA.AperFunction,Conductor*%
G36*
X117450000Y-78252230D02*
G01*
X117516126Y-78241757D01*
X117516129Y-78241757D01*
X117718217Y-78176095D01*
X117907557Y-78079620D01*
X118079459Y-77954727D01*
X118079464Y-77954723D01*
X118229721Y-77804466D01*
X118349371Y-77639781D01*
X118404701Y-77597115D01*
X118474314Y-77591136D01*
X118536110Y-77623741D01*
X118550008Y-77639781D01*
X118669890Y-77804785D01*
X118669894Y-77804790D01*
X118820213Y-77955109D01*
X118992184Y-78080051D01*
X118992184Y-78080052D01*
X119031793Y-78100233D01*
X119082590Y-78148206D01*
X119099500Y-78210718D01*
X119099500Y-78589281D01*
X119079815Y-78656320D01*
X119031795Y-78699765D01*
X118992185Y-78719947D01*
X118992184Y-78719948D01*
X118820213Y-78844890D01*
X118669894Y-78995209D01*
X118669890Y-78995214D01*
X118550008Y-79160218D01*
X118494678Y-79202884D01*
X118425065Y-79208863D01*
X118363270Y-79176257D01*
X118349372Y-79160218D01*
X118229727Y-78995540D01*
X118229723Y-78995535D01*
X118079464Y-78845276D01*
X118079459Y-78845272D01*
X117907557Y-78720379D01*
X117718215Y-78623903D01*
X117516124Y-78558241D01*
X117450000Y-78547768D01*
X117450000Y-79595854D01*
X117383343Y-79557370D01*
X117262535Y-79525000D01*
X117137465Y-79525000D01*
X117016657Y-79557370D01*
X116950000Y-79595854D01*
X116950000Y-78547768D01*
X116949999Y-78547768D01*
X116883875Y-78558241D01*
X116681784Y-78623903D01*
X116492442Y-78720379D01*
X116320540Y-78845272D01*
X116320535Y-78845276D01*
X116170276Y-78995535D01*
X116170272Y-78995540D01*
X116050627Y-79160218D01*
X115995297Y-79202884D01*
X115925684Y-79208863D01*
X115863889Y-79176257D01*
X115849991Y-79160218D01*
X115727241Y-78991266D01*
X115728108Y-78990635D01*
X115701641Y-78931581D01*
X115700500Y-78914800D01*
X115700500Y-77885199D01*
X115720185Y-77818160D01*
X115729426Y-77805724D01*
X115730100Y-77804795D01*
X115730104Y-77804792D01*
X115849991Y-77639779D01*
X115905320Y-77597115D01*
X115974933Y-77591136D01*
X116036729Y-77623741D01*
X116050627Y-77639781D01*
X116170272Y-77804459D01*
X116170276Y-77804464D01*
X116320535Y-77954723D01*
X116320540Y-77954727D01*
X116492442Y-78079620D01*
X116681782Y-78176095D01*
X116883871Y-78241757D01*
X116950000Y-78252231D01*
X116950000Y-77204145D01*
X117016657Y-77242630D01*
X117137465Y-77275000D01*
X117262535Y-77275000D01*
X117383343Y-77242630D01*
X117450000Y-77204145D01*
X117450000Y-78252230D01*
G37*
%TD.AperFunction*%
%TA.AperFunction,Conductor*%
G36*
X137768644Y-66520185D02*
G01*
X137814399Y-66572989D01*
X137824343Y-66642147D01*
X137795318Y-66705703D01*
X137755407Y-66736220D01*
X137703230Y-66761346D01*
X137480258Y-66913365D01*
X137282442Y-67096910D01*
X137114185Y-67307898D01*
X136979258Y-67541599D01*
X136979256Y-67541603D01*
X136880666Y-67792804D01*
X136880664Y-67792811D01*
X136820616Y-68055898D01*
X136800451Y-68324995D01*
X136800451Y-68325004D01*
X136820616Y-68594101D01*
X136880664Y-68857188D01*
X136880666Y-68857195D01*
X136926901Y-68975000D01*
X136979257Y-69108398D01*
X137114185Y-69342102D01*
X137167655Y-69409151D01*
X137282442Y-69553089D01*
X137469183Y-69726358D01*
X137480259Y-69736635D01*
X137703226Y-69888651D01*
X137703231Y-69888653D01*
X137703232Y-69888654D01*
X137703233Y-69888655D01*
X137791301Y-69931066D01*
X137935302Y-70000413D01*
X137987161Y-70047234D01*
X138005500Y-70112132D01*
X138005500Y-71417587D01*
X137985815Y-71484626D01*
X137978450Y-71494896D01*
X137976186Y-71497734D01*
X137880211Y-71650476D01*
X137820631Y-71820745D01*
X137820630Y-71820750D01*
X137800435Y-71999996D01*
X137800435Y-72000003D01*
X137820630Y-72179249D01*
X137820631Y-72179254D01*
X137880211Y-72349523D01*
X137976185Y-72502263D01*
X137978445Y-72505097D01*
X137979334Y-72507275D01*
X137979889Y-72508158D01*
X137979734Y-72508255D01*
X138004855Y-72569783D01*
X138005500Y-72582412D01*
X138005500Y-75619330D01*
X138005499Y-75619348D01*
X138005499Y-75785054D01*
X138005498Y-75785054D01*
X138046422Y-75937782D01*
X138046424Y-75937787D01*
X138050165Y-75944266D01*
X138050166Y-75944268D01*
X138125477Y-76074712D01*
X138125481Y-76074717D01*
X138244349Y-76193585D01*
X138244355Y-76193590D01*
X138738584Y-76687819D01*
X138772069Y-76749142D01*
X138767085Y-76818834D01*
X138725213Y-76874767D01*
X138659749Y-76899184D01*
X138650903Y-76899500D01*
X138506097Y-76899500D01*
X138439058Y-76879815D01*
X138418416Y-76863181D01*
X134242819Y-72687584D01*
X134209334Y-72626261D01*
X134206500Y-72599903D01*
X134206500Y-70112132D01*
X134226185Y-70045093D01*
X134276697Y-70000413D01*
X134508775Y-69888651D01*
X134731741Y-69736635D01*
X134929561Y-69553085D01*
X135097815Y-69342102D01*
X135232743Y-69108398D01*
X135331334Y-68857195D01*
X135391383Y-68594103D01*
X135411549Y-68325000D01*
X135391383Y-68055897D01*
X135331334Y-67792805D01*
X135232743Y-67541602D01*
X135097815Y-67307898D01*
X134929561Y-67096915D01*
X134929560Y-67096914D01*
X134929557Y-67096910D01*
X134731741Y-66913365D01*
X134601400Y-66824500D01*
X134508775Y-66761349D01*
X134508771Y-66761347D01*
X134508770Y-66761346D01*
X134456594Y-66736220D01*
X134404735Y-66689398D01*
X134386422Y-66621971D01*
X134407470Y-66555347D01*
X134461196Y-66510678D01*
X134510396Y-66500500D01*
X137701605Y-66500500D01*
X137768644Y-66520185D01*
G37*
%TD.AperFunction*%
%TA.AperFunction,Conductor*%
G36*
X122769796Y-66520185D02*
G01*
X122815551Y-66572989D01*
X122825495Y-66642147D01*
X122796470Y-66705703D01*
X122756559Y-66736220D01*
X122703480Y-66761781D01*
X122703476Y-66761783D01*
X122520848Y-66886296D01*
X123358511Y-67723958D01*
X123298110Y-67748978D01*
X123191649Y-67820112D01*
X123101112Y-67910649D01*
X123029978Y-68017110D01*
X123004958Y-68077511D01*
X122168295Y-67240848D01*
X122114600Y-67308180D01*
X121979709Y-67541818D01*
X121881148Y-67792947D01*
X121881142Y-67792966D01*
X121821113Y-68055971D01*
X121821113Y-68055973D01*
X121800953Y-68324995D01*
X121800953Y-68325004D01*
X121821113Y-68594026D01*
X121821113Y-68594028D01*
X121881142Y-68857033D01*
X121881148Y-68857052D01*
X121979709Y-69108181D01*
X121979708Y-69108181D01*
X122114602Y-69341822D01*
X122168294Y-69409151D01*
X122168295Y-69409151D01*
X123004958Y-68572488D01*
X123029978Y-68632890D01*
X123101112Y-68739351D01*
X123191649Y-68829888D01*
X123298110Y-68901022D01*
X123358510Y-68926041D01*
X122520848Y-69763702D01*
X122703483Y-69888220D01*
X122703485Y-69888221D01*
X122946539Y-70005269D01*
X122946537Y-70005269D01*
X123204337Y-70084790D01*
X123204343Y-70084792D01*
X123471101Y-70124999D01*
X123471110Y-70125000D01*
X123740890Y-70125000D01*
X123740898Y-70124999D01*
X124007656Y-70084792D01*
X124007662Y-70084790D01*
X124265461Y-70005269D01*
X124508521Y-69888218D01*
X124691150Y-69763702D01*
X123853488Y-68926041D01*
X123913890Y-68901022D01*
X124020351Y-68829888D01*
X124110888Y-68739351D01*
X124182022Y-68632890D01*
X124207041Y-68572488D01*
X125043703Y-69409151D01*
X125043704Y-69409150D01*
X125097393Y-69341828D01*
X125097400Y-69341817D01*
X125232290Y-69108181D01*
X125330851Y-68857052D01*
X125330857Y-68857033D01*
X125390886Y-68594028D01*
X125390886Y-68594026D01*
X125411047Y-68325004D01*
X125411047Y-68324995D01*
X125390886Y-68055973D01*
X125390886Y-68055971D01*
X125330857Y-67792966D01*
X125330851Y-67792947D01*
X125232290Y-67541818D01*
X125232291Y-67541818D01*
X125097397Y-67308177D01*
X125043704Y-67240847D01*
X124207041Y-68077510D01*
X124182022Y-68017110D01*
X124110888Y-67910649D01*
X124020351Y-67820112D01*
X123913890Y-67748978D01*
X123853488Y-67723958D01*
X124691150Y-66886296D01*
X124508517Y-66761779D01*
X124508516Y-66761778D01*
X124455442Y-66736220D01*
X124403582Y-66689398D01*
X124385269Y-66621971D01*
X124406316Y-66555347D01*
X124460042Y-66510679D01*
X124509243Y-66500500D01*
X127701605Y-66500500D01*
X127768644Y-66520185D01*
X127814399Y-66572989D01*
X127824343Y-66642147D01*
X127795318Y-66705703D01*
X127755407Y-66736220D01*
X127703230Y-66761346D01*
X127480258Y-66913365D01*
X127282442Y-67096910D01*
X127114185Y-67307898D01*
X126979258Y-67541599D01*
X126979256Y-67541603D01*
X126880666Y-67792804D01*
X126880664Y-67792811D01*
X126820616Y-68055898D01*
X126800451Y-68324995D01*
X126800451Y-68325004D01*
X126820616Y-68594101D01*
X126880664Y-68857188D01*
X126880666Y-68857195D01*
X126926901Y-68975000D01*
X126979257Y-69108398D01*
X127114185Y-69342102D01*
X127167655Y-69409151D01*
X127282442Y-69553089D01*
X127469183Y-69726358D01*
X127480259Y-69736635D01*
X127703226Y-69888651D01*
X127946359Y-70005738D01*
X128204228Y-70085280D01*
X128204229Y-70085280D01*
X128204232Y-70085281D01*
X128471063Y-70125499D01*
X128471068Y-70125499D01*
X128471071Y-70125500D01*
X128471072Y-70125500D01*
X128740928Y-70125500D01*
X128740929Y-70125500D01*
X128740936Y-70125499D01*
X129007767Y-70085281D01*
X129007768Y-70085280D01*
X129007772Y-70085280D01*
X129265641Y-70005738D01*
X129508775Y-69888651D01*
X129731741Y-69736635D01*
X129929561Y-69553085D01*
X130097815Y-69342102D01*
X130232743Y-69108398D01*
X130331334Y-68857195D01*
X130391383Y-68594103D01*
X130411549Y-68325000D01*
X130391383Y-68055897D01*
X130331334Y-67792805D01*
X130232743Y-67541602D01*
X130097815Y-67307898D01*
X129929561Y-67096915D01*
X129929560Y-67096914D01*
X129929557Y-67096910D01*
X129731741Y-66913365D01*
X129601400Y-66824500D01*
X129508775Y-66761349D01*
X129508771Y-66761347D01*
X129508770Y-66761346D01*
X129456594Y-66736220D01*
X129404735Y-66689398D01*
X129386422Y-66621971D01*
X129407470Y-66555347D01*
X129461196Y-66510678D01*
X129510396Y-66500500D01*
X132701605Y-66500500D01*
X132768644Y-66520185D01*
X132814399Y-66572989D01*
X132824343Y-66642147D01*
X132795318Y-66705703D01*
X132755407Y-66736220D01*
X132703230Y-66761346D01*
X132480258Y-66913365D01*
X132282442Y-67096910D01*
X132114185Y-67307898D01*
X131979258Y-67541599D01*
X131979256Y-67541603D01*
X131880666Y-67792804D01*
X131880664Y-67792811D01*
X131820616Y-68055898D01*
X131800451Y-68324995D01*
X131800451Y-68325004D01*
X131820616Y-68594101D01*
X131880664Y-68857188D01*
X131880666Y-68857195D01*
X131926901Y-68975000D01*
X131979257Y-69108398D01*
X132114185Y-69342102D01*
X132167655Y-69409151D01*
X132282442Y-69553089D01*
X132469183Y-69726358D01*
X132480259Y-69736635D01*
X132703226Y-69888651D01*
X132703231Y-69888653D01*
X132703232Y-69888654D01*
X132703233Y-69888655D01*
X132791301Y-69931066D01*
X132935302Y-70000413D01*
X132987161Y-70047234D01*
X133005500Y-70112132D01*
X133005500Y-71274772D01*
X132985815Y-71341811D01*
X132933011Y-71387566D01*
X132863853Y-71397510D01*
X132808381Y-71373533D01*
X132808158Y-71373889D01*
X132805853Y-71372441D01*
X132804190Y-71371722D01*
X132802264Y-71370186D01*
X132802262Y-71370184D01*
X132757107Y-71341811D01*
X132649523Y-71274211D01*
X132479254Y-71214631D01*
X132479249Y-71214630D01*
X132300004Y-71194435D01*
X132299995Y-71194435D01*
X132230602Y-71202253D01*
X132161781Y-71190198D01*
X132110402Y-71142849D01*
X132093500Y-71092916D01*
X132085369Y-71020750D01*
X132085368Y-71020745D01*
X132025788Y-70850476D01*
X131929815Y-70697737D01*
X131802262Y-70570184D01*
X131649523Y-70474211D01*
X131479254Y-70414631D01*
X131479249Y-70414630D01*
X131300004Y-70394435D01*
X131299996Y-70394435D01*
X131120750Y-70414630D01*
X131120745Y-70414631D01*
X130950476Y-70474211D01*
X130797736Y-70570185D01*
X130794903Y-70572445D01*
X130792724Y-70573334D01*
X130791842Y-70573889D01*
X130791744Y-70573734D01*
X130730217Y-70598855D01*
X130717588Y-70599500D01*
X123586670Y-70599500D01*
X123586654Y-70599499D01*
X123579058Y-70599499D01*
X123420943Y-70599499D01*
X123353439Y-70617587D01*
X123268214Y-70640423D01*
X123268209Y-70640426D01*
X123131290Y-70719475D01*
X123131282Y-70719481D01*
X119219481Y-74631282D01*
X119219475Y-74631290D01*
X119179498Y-74700534D01*
X119179498Y-74700536D01*
X119140423Y-74768214D01*
X119140423Y-74768215D01*
X119099499Y-74920943D01*
X119099499Y-74920945D01*
X119099499Y-75089046D01*
X119099500Y-75089059D01*
X119099500Y-75389281D01*
X119079815Y-75456320D01*
X119031795Y-75499765D01*
X118992185Y-75519947D01*
X118992184Y-75519948D01*
X118820213Y-75644890D01*
X118669894Y-75795209D01*
X118669890Y-75795214D01*
X118550008Y-75960218D01*
X118494678Y-76002884D01*
X118425065Y-76008863D01*
X118363270Y-75976257D01*
X118349372Y-75960218D01*
X118229727Y-75795540D01*
X118229723Y-75795535D01*
X118079464Y-75645276D01*
X118079459Y-75645272D01*
X117907557Y-75520379D01*
X117718215Y-75423903D01*
X117516124Y-75358241D01*
X117450000Y-75347768D01*
X117450000Y-76395854D01*
X117383343Y-76357370D01*
X117262535Y-76325000D01*
X117137465Y-76325000D01*
X117016657Y-76357370D01*
X116950000Y-76395854D01*
X116950000Y-75347768D01*
X116949999Y-75347768D01*
X116883875Y-75358241D01*
X116681784Y-75423903D01*
X116492442Y-75520379D01*
X116320540Y-75645272D01*
X116320535Y-75645276D01*
X116170276Y-75795535D01*
X116170272Y-75795540D01*
X116050627Y-75960218D01*
X115995297Y-76002884D01*
X115925684Y-76008863D01*
X115863889Y-75976257D01*
X115849991Y-75960218D01*
X115730109Y-75795214D01*
X115730105Y-75795209D01*
X115692282Y-75757386D01*
X115665804Y-75713203D01*
X115664382Y-75713793D01*
X115586635Y-75526092D01*
X115586628Y-75526079D01*
X115477139Y-75362218D01*
X115477136Y-75362214D01*
X115337785Y-75222863D01*
X115337781Y-75222860D01*
X115173920Y-75113371D01*
X115173907Y-75113364D01*
X114991839Y-75037950D01*
X114991829Y-75037947D01*
X114798543Y-74999500D01*
X114798541Y-74999500D01*
X111524500Y-74999500D01*
X111457461Y-74979815D01*
X111411706Y-74927011D01*
X111400500Y-74875500D01*
X111400500Y-73601458D01*
X111400499Y-73601455D01*
X111372278Y-73459576D01*
X111362052Y-73408171D01*
X111362051Y-73408164D01*
X111317470Y-73300536D01*
X111317470Y-73300535D01*
X111286635Y-73226092D01*
X111286628Y-73226079D01*
X111177139Y-73062218D01*
X111177136Y-73062214D01*
X111034686Y-72919764D01*
X111034655Y-72919735D01*
X109642819Y-71527899D01*
X109609334Y-71466576D01*
X109606500Y-71440218D01*
X109606500Y-69949500D01*
X109626185Y-69882461D01*
X109678989Y-69836706D01*
X109730500Y-69825500D01*
X112572351Y-69825500D01*
X112639390Y-69845185D01*
X112642202Y-69847046D01*
X112703226Y-69888651D01*
X112946359Y-70005738D01*
X113204228Y-70085280D01*
X113204229Y-70085280D01*
X113204232Y-70085281D01*
X113471063Y-70125499D01*
X113471068Y-70125499D01*
X113471071Y-70125500D01*
X113471072Y-70125500D01*
X113740928Y-70125500D01*
X113740929Y-70125500D01*
X113740936Y-70125499D01*
X114007767Y-70085281D01*
X114007768Y-70085280D01*
X114007772Y-70085280D01*
X114265641Y-70005738D01*
X114508775Y-69888651D01*
X114731741Y-69736635D01*
X114929561Y-69553085D01*
X115097815Y-69342102D01*
X115232743Y-69108398D01*
X115331334Y-68857195D01*
X115363458Y-68716445D01*
X115396666Y-68656359D01*
X117009249Y-67043776D01*
X117070569Y-67010294D01*
X117140261Y-67015278D01*
X117196194Y-67057150D01*
X117220611Y-67122614D01*
X117205759Y-67190887D01*
X117193875Y-67208772D01*
X117114599Y-67308181D01*
X116979709Y-67541818D01*
X116881148Y-67792947D01*
X116881142Y-67792966D01*
X116821113Y-68055971D01*
X116821113Y-68055973D01*
X116800953Y-68324995D01*
X116800953Y-68325004D01*
X116821113Y-68594026D01*
X116821113Y-68594028D01*
X116881142Y-68857033D01*
X116881148Y-68857052D01*
X116979709Y-69108181D01*
X116979708Y-69108181D01*
X117114602Y-69341822D01*
X117168294Y-69409151D01*
X118004958Y-68572487D01*
X118029978Y-68632890D01*
X118101112Y-68739351D01*
X118191649Y-68829888D01*
X118298110Y-68901022D01*
X118358510Y-68926041D01*
X117520848Y-69763702D01*
X117703483Y-69888220D01*
X117703485Y-69888221D01*
X117946539Y-70005269D01*
X117946537Y-70005269D01*
X118204337Y-70084790D01*
X118204343Y-70084792D01*
X118471101Y-70124999D01*
X118471110Y-70125000D01*
X118740890Y-70125000D01*
X118740898Y-70124999D01*
X119007656Y-70084792D01*
X119007662Y-70084790D01*
X119265461Y-70005269D01*
X119508521Y-69888218D01*
X119691150Y-69763702D01*
X118853488Y-68926041D01*
X118913890Y-68901022D01*
X119020351Y-68829888D01*
X119110888Y-68739351D01*
X119182022Y-68632890D01*
X119207041Y-68572488D01*
X120043703Y-69409151D01*
X120043704Y-69409150D01*
X120097393Y-69341828D01*
X120097400Y-69341817D01*
X120232290Y-69108181D01*
X120330851Y-68857052D01*
X120330857Y-68857033D01*
X120390886Y-68594028D01*
X120390886Y-68594026D01*
X120411047Y-68325004D01*
X120411047Y-68324995D01*
X120390886Y-68055973D01*
X120390886Y-68055971D01*
X120330857Y-67792966D01*
X120330851Y-67792947D01*
X120232290Y-67541818D01*
X120232291Y-67541818D01*
X120097397Y-67308177D01*
X120043704Y-67240847D01*
X119207041Y-68077510D01*
X119182022Y-68017110D01*
X119110888Y-67910649D01*
X119020351Y-67820112D01*
X118913890Y-67748978D01*
X118853488Y-67723958D01*
X119691150Y-66886296D01*
X119508517Y-66761779D01*
X119508516Y-66761778D01*
X119455442Y-66736220D01*
X119403582Y-66689398D01*
X119385269Y-66621971D01*
X119406316Y-66555347D01*
X119460042Y-66510679D01*
X119509243Y-66500500D01*
X122702757Y-66500500D01*
X122769796Y-66520185D01*
G37*
%TD.AperFunction*%
%TA.AperFunction,Conductor*%
G36*
X141892753Y-66520185D02*
G01*
X141938508Y-66572989D01*
X141948452Y-66642147D01*
X141924980Y-66698810D01*
X141919821Y-66705703D01*
X141862204Y-66782668D01*
X141862202Y-66782671D01*
X141811908Y-66917517D01*
X141805501Y-66977116D01*
X141805501Y-66977123D01*
X141805500Y-66977135D01*
X141805500Y-69672870D01*
X141805501Y-69672876D01*
X141811908Y-69732483D01*
X141862202Y-69867328D01*
X141862206Y-69867335D01*
X141948452Y-69982544D01*
X141948455Y-69982547D01*
X142063664Y-70068793D01*
X142063671Y-70068797D01*
X142106551Y-70084790D01*
X142198517Y-70119091D01*
X142258127Y-70125500D01*
X142881500Y-70125499D01*
X142948539Y-70145183D01*
X142994294Y-70197987D01*
X143005500Y-70249499D01*
X143005500Y-70617587D01*
X142985815Y-70684626D01*
X142978450Y-70694896D01*
X142976186Y-70697734D01*
X142880211Y-70850476D01*
X142820631Y-71020745D01*
X142820630Y-71020750D01*
X142800435Y-71199996D01*
X142800435Y-71200003D01*
X142820630Y-71379249D01*
X142820631Y-71379254D01*
X142880211Y-71549523D01*
X142976185Y-71702263D01*
X142978445Y-71705097D01*
X142979334Y-71707275D01*
X142979889Y-71708158D01*
X142979734Y-71708255D01*
X143004855Y-71769783D01*
X143005500Y-71782412D01*
X143005500Y-74319330D01*
X143005499Y-74319348D01*
X143005499Y-74485054D01*
X143005498Y-74485054D01*
X143005499Y-74485057D01*
X143044680Y-74631282D01*
X143046424Y-74637787D01*
X143060432Y-74662049D01*
X143060433Y-74662051D01*
X143125477Y-74774712D01*
X143125481Y-74774717D01*
X143244349Y-74893585D01*
X143244355Y-74893590D01*
X144115139Y-75764374D01*
X144115160Y-75764397D01*
X144138582Y-75787819D01*
X144172067Y-75849142D01*
X144167083Y-75918834D01*
X144125211Y-75974767D01*
X144059747Y-75999184D01*
X144050901Y-75999500D01*
X139800097Y-75999500D01*
X139733058Y-75979815D01*
X139712416Y-75963181D01*
X139242819Y-75493584D01*
X139209334Y-75432261D01*
X139206500Y-75405903D01*
X139206500Y-72582412D01*
X139226185Y-72515373D01*
X139233555Y-72505097D01*
X139235810Y-72502267D01*
X139235816Y-72502262D01*
X139331789Y-72349522D01*
X139391368Y-72179255D01*
X139411053Y-72004543D01*
X139411565Y-72000003D01*
X139411565Y-71999996D01*
X139391369Y-71820750D01*
X139391368Y-71820745D01*
X139331788Y-71650476D01*
X139279913Y-71567918D01*
X139235816Y-71497738D01*
X139235814Y-71497736D01*
X139235813Y-71497734D01*
X139233550Y-71494896D01*
X139232659Y-71492715D01*
X139232111Y-71491842D01*
X139232264Y-71491745D01*
X139207144Y-71430209D01*
X139206500Y-71417587D01*
X139206500Y-70112132D01*
X139226185Y-70045093D01*
X139276697Y-70000413D01*
X139508775Y-69888651D01*
X139731741Y-69736635D01*
X139929561Y-69553085D01*
X140097815Y-69342102D01*
X140232743Y-69108398D01*
X140331334Y-68857195D01*
X140391383Y-68594103D01*
X140411549Y-68325000D01*
X140391383Y-68055897D01*
X140331334Y-67792805D01*
X140232743Y-67541602D01*
X140097815Y-67307898D01*
X139929561Y-67096915D01*
X139929560Y-67096914D01*
X139929557Y-67096910D01*
X139731741Y-66913365D01*
X139601400Y-66824500D01*
X139508775Y-66761349D01*
X139508771Y-66761347D01*
X139508770Y-66761346D01*
X139456594Y-66736220D01*
X139404735Y-66689398D01*
X139386422Y-66621971D01*
X139407470Y-66555347D01*
X139461196Y-66510678D01*
X139510396Y-66500500D01*
X141825714Y-66500500D01*
X141892753Y-66520185D01*
G37*
%TD.AperFunction*%
%TD*%
D29*
X139900000Y-96448528D02*
G75*
G02*
X141099972Y-97648528I0J-1199972D01*
G01*
X167400000Y-96400000D02*
G75*
G02*
X168600000Y-97600000I0J-1200000D01*
G01*
X168600000Y-103100000D02*
G75*
G02*
X167600000Y-103100000I-500000J0D01*
G01*
X187700000Y-103100000D02*
X187700000Y-97600000D01*
X161100000Y-103100000D02*
X161100000Y-97600000D01*
X134600000Y-103148528D02*
X134600000Y-97648528D01*
X122200000Y-103100000D02*
G75*
G02*
X121200000Y-103100000I-500000J0D01*
G01*
X122200000Y-103100000D02*
X122200000Y-97600000D01*
X134800000Y-96448528D02*
X139900000Y-96448528D01*
X162300000Y-97400000D02*
X167400000Y-97400000D01*
X141100000Y-103148528D02*
X141100000Y-97648528D01*
X181200000Y-103100000D02*
G75*
G02*
X180200000Y-103100000I-500000J0D01*
G01*
X121000000Y-96400000D02*
G75*
G02*
X122200000Y-97600000I0J-1200000D01*
G01*
X181400000Y-97400000D02*
X186500000Y-97400000D01*
X162100000Y-97600000D02*
G75*
G02*
X162300000Y-97400000I200000J0D01*
G01*
X133600000Y-97648528D02*
G75*
G02*
X134800000Y-96448500I1200000J28D01*
G01*
X121200000Y-103100000D02*
X121200000Y-97600000D01*
X187700000Y-103100000D02*
G75*
G02*
X186700000Y-103100000I-500000J0D01*
G01*
X115900000Y-97400000D02*
X121000000Y-97400000D01*
X115700000Y-103100000D02*
X115700000Y-97600000D01*
X167400000Y-97400000D02*
G75*
G02*
X167600000Y-97600000I0J-200000D01*
G01*
X141100000Y-103148528D02*
G75*
G02*
X140100000Y-103148528I-500000J0D01*
G01*
X186700000Y-103100000D02*
X186700000Y-97600000D01*
X180200000Y-97600000D02*
G75*
G02*
X181400000Y-96400000I1200000J0D01*
G01*
X134800000Y-97448528D02*
X139900000Y-97448528D01*
X181200000Y-97600000D02*
G75*
G02*
X181400000Y-97400000I200000J0D01*
G01*
X186500000Y-97400000D02*
G75*
G02*
X186700000Y-97600000I0J-200000D01*
G01*
X162100000Y-103100000D02*
G75*
G02*
X161100000Y-103100000I-500000J0D01*
G01*
X139900000Y-97448528D02*
G75*
G02*
X140099972Y-97648528I0J-199972D01*
G01*
X115700000Y-103100000D02*
G75*
G02*
X114700000Y-103100000I-500000J0D01*
G01*
X186500000Y-96400000D02*
G75*
G02*
X187700000Y-97600000I0J-1200000D01*
G01*
X180200000Y-103100000D02*
X180200000Y-97600000D01*
X162100000Y-103100000D02*
X162100000Y-97600000D01*
X134600000Y-97648528D02*
G75*
G02*
X134800000Y-97448500I200000J28D01*
G01*
X115900000Y-96400000D02*
X121000000Y-96400000D01*
X121000000Y-97400000D02*
G75*
G02*
X121200000Y-97600000I0J-200000D01*
G01*
X140100000Y-103148528D02*
X140100000Y-97648528D01*
X181200000Y-103100000D02*
X181200000Y-97600000D01*
X114700000Y-103100000D02*
X114700000Y-97600000D01*
X168600000Y-103100000D02*
X168600000Y-97600000D01*
X162300000Y-96400000D02*
X167400000Y-96400000D01*
X167600000Y-103100000D02*
X167600000Y-97600000D01*
X161100000Y-97600000D02*
G75*
G02*
X162300000Y-96400000I1200000J0D01*
G01*
X134600000Y-103148528D02*
G75*
G02*
X133600000Y-103148528I-500000J0D01*
G01*
X181400000Y-96400000D02*
X186500000Y-96400000D01*
X115700000Y-97600000D02*
G75*
G02*
X115900000Y-97400000I200000J0D01*
G01*
X114700000Y-97600000D02*
G75*
G02*
X115900000Y-96400000I1200000J0D01*
G01*
X133600000Y-103148528D02*
X133600000Y-97648528D01*
D30*
%TO.C,MOD1*%
X101175000Y-63120000D02*
X101175000Y-131370000D01*
X101175000Y-131370000D02*
X201175000Y-131370000D01*
X201175000Y-63120000D02*
X101175000Y-63120000D01*
X201175000Y-131370000D02*
X201175000Y-63120000D01*
%TD*%
M02*
