M48
; DRILL file {KiCad 8.0.0} date 2024-08-19T17:47:20+0200
; FORMAT={-:-/ absolute / inch / decimal}
; #@! TF.CreationDate,2024-08-19T17:47:20+02:00
; #@! TF.GenerationSoftware,Kicad,Pcbnew,8.0.0
; #@! TF.FileFunction,Plated,1,2,PTH
FMAT,2
INCH
; #@! TA.AperFunction,Plated,PTH,ViaDrill
T1C0.0118
; #@! TA.AperFunction,Plated,PTH,ComponentDrill
T2C0.0315
; #@! TA.AperFunction,Plated,PTH,ComponentDrill
T3C0.0394
; #@! TA.AperFunction,Plated,PTH,ComponentDrill
T4C0.0472
; #@! TA.AperFunction,Plated,PTH,ComponentDrill
T5C0.0512
; #@! TA.AperFunction,Plated,PTH,ComponentDrill
T6C0.0984
%
G90
G05
T1
X4.0157Y-2.2362
X4.0157Y-3.0315
X4.0236Y-3.8425
X4.3543Y-3.8583
X4.4724Y-3.6693
X4.5236Y-2.2756
X4.5276Y-3.252
X4.5512Y-2.7008
X4.7441Y-2.9331
X5.374Y-2.9252
X5.4201Y-3.6744
X5.5472Y-3.2756
X6.0118Y-3.4685
X6.0512Y-2.3701
X6.1929Y-2.2598
X6.5827Y-2.5669
X6.7992Y-2.9016
X6.7992Y-3.1457
X6.8012Y-3.3799
X7.0Y-3.1732
X7.2087Y-3.2047
X7.4409Y-3.2087
X7.6024Y-3.1772
X7.6083Y-3.8524
X7.8307Y-2.6772
X7.8583Y-2.2559
X7.8661Y-3.8386
T2
X4.2323Y-3.5433
X4.2361Y-3.2382
X4.3739Y-3.2382
X4.4291Y-3.5433
X4.615Y-3.3386
X4.615Y-3.6386
X4.715Y-3.3386
X4.715Y-3.6386
X4.813Y-2.7559
X4.815Y-3.3386
X4.815Y-3.6386
X4.915Y-3.3386
X4.915Y-3.6386
X5.0098Y-2.7559
X5.015Y-3.3386
X5.015Y-3.6386
X5.115Y-3.3386
X5.115Y-3.6386
X5.1476Y-2.9785
X5.1476Y-3.1162
X5.215Y-3.3386
X5.215Y-3.6386
X5.315Y-3.3386
X5.315Y-3.6386
X5.6953Y-2.7323
X5.7228Y-3.3386
X5.7228Y-3.6386
X5.7953Y-2.7323
X5.8228Y-3.3386
X5.8228Y-3.6386
X5.9228Y-3.3386
X5.9228Y-3.6386
X6.0228Y-3.3386
X6.0228Y-3.6386
X6.0533Y-2.7244
X6.1228Y-3.3386
X6.1228Y-3.6386
X6.1533Y-2.7244
X6.2228Y-3.3386
X6.2228Y-3.6386
X6.3228Y-3.3386
X6.3228Y-3.6386
X6.3486Y-2.7283
X6.4228Y-3.3386
X6.4228Y-3.6386
X6.4486Y-2.7283
X6.5228Y-3.3386
X6.5228Y-3.6386
X6.6339Y-3.6319
X6.8307Y-3.6319
X6.9177Y-3.0413
X6.9177Y-3.3413
X7.0079Y-2.6774
X7.0079Y-2.7774
X7.0177Y-3.0413
X7.0177Y-3.3413
X7.0177Y-3.6124
X7.0177Y-3.7124
X7.1441Y-3.0413
X7.1441Y-3.3413
X7.1949Y-2.6872
X7.1949Y-2.7872
X7.2441Y-3.0413
X7.2441Y-3.3413
X7.2441Y-3.6126
X7.2441Y-3.7126
X7.3715Y-3.0394
X7.3715Y-3.3394
X7.3819Y-2.6872
X7.3819Y-2.7872
X7.4705Y-3.6126
X7.4705Y-3.7126
X7.4715Y-3.0394
X7.4715Y-3.3394
X7.5591Y-2.6872
X7.5591Y-2.7872
X7.5978Y-3.0394
X7.5978Y-3.3394
X7.6969Y-3.6126
X7.6969Y-3.7126
X7.6978Y-3.0394
X7.6978Y-3.3394
T3
X4.6379Y-3.1184
X4.7379Y-3.1184
X4.8379Y-3.1184
X5.1545Y-2.7329
X5.2545Y-2.7329
X5.3545Y-2.7329
X5.4545Y-2.7329
X5.5545Y-2.7329
T4
X5.6455Y-2.9724
X5.6691Y-3.1417
X5.7955Y-2.9724
X5.8191Y-3.1417
X6.0077Y-2.9764
X6.0313Y-3.1496
X6.1577Y-2.9764
X6.1813Y-3.1496
X6.3226Y-2.8898
X6.3423Y-3.063
X6.4726Y-2.8898
X6.4923Y-3.063
T5
X4.2785Y-2.4079
X4.2785Y-5.2591
X4.4252Y-4.1437
X4.4252Y-4.624
X4.4754Y-2.4079
X4.4754Y-5.2591
X4.6614Y-4.065
X4.6722Y-2.4079
X4.6722Y-5.2591
X4.8691Y-2.4079
X4.8691Y-5.2591
X4.8976Y-4.1437
X4.8976Y-4.624
X5.0659Y-2.4079
X5.0659Y-5.2591
X5.1693Y-4.1437
X5.1693Y-4.624
X5.2628Y-2.4079
X5.2628Y-5.2591
X5.4055Y-4.065
X5.4596Y-2.4079
X5.4596Y-5.2591
X5.6417Y-4.1437
X5.6417Y-4.624
X5.6565Y-2.4079
X5.6565Y-5.2591
X6.247Y-2.4079
X6.247Y-5.2591
X6.252Y-4.1437
X6.252Y-4.624
X6.4439Y-2.4079
X6.4439Y-5.2591
X6.4882Y-4.065
X6.6407Y-2.4079
X6.6407Y-5.2591
X6.7244Y-4.1437
X6.7244Y-4.624
X6.8376Y-2.4079
X6.8376Y-5.2591
X7.002Y-4.1437
X7.002Y-4.624
X7.0344Y-2.4079
X7.0344Y-5.2591
X7.2313Y-2.4079
X7.2313Y-5.2591
X7.2382Y-4.065
X7.4281Y-2.4079
X7.4281Y-5.2591
X7.4744Y-4.1437
X7.4744Y-4.624
X7.625Y-2.4079
X7.625Y-5.2591
T6
X4.1358Y-2.8307
X4.1358Y-4.8346
X7.7677Y-2.8307
X7.7677Y-4.8346
M30
