%TF.GenerationSoftware,KiCad,Pcbnew,8.0.0*%
%TF.CreationDate,2024-08-19T17:47:18+02:00*%
%TF.ProjectId,esp32_blinds_controller,65737033-325f-4626-9c69-6e64735f636f,V0.1*%
%TF.SameCoordinates,Original*%
%TF.FileFunction,Legend,Top*%
%TF.FilePolarity,Positive*%
%FSLAX46Y46*%
G04 Gerber Fmt 4.6, Leading zero omitted, Abs format (unit mm)*
G04 Created by KiCad (PCBNEW 8.0.0) date 2024-08-19 17:47:18*
%MOMM*%
%LPD*%
G01*
G04 APERTURE LIST*
%ADD10C,0.300000*%
%ADD11C,0.150000*%
%ADD12C,0.500000*%
%ADD13C,0.120000*%
G04 APERTURE END LIST*
D10*
X116000000Y-124000000D02*
X116000000Y-127750000D01*
X186000000Y-123875000D02*
X186000000Y-127625000D01*
X165500000Y-124000000D02*
X165500000Y-127750000D01*
X136500000Y-123875000D02*
X136500000Y-127625000D01*
X175750000Y-123875000D02*
X175750000Y-127625000D01*
X126250000Y-123875000D02*
X126250000Y-127625000D01*
X119625939Y-127239638D02*
X118673558Y-127239638D01*
X118673558Y-127239638D02*
X118673558Y-125239638D01*
X120292606Y-127239638D02*
X120292606Y-125239638D01*
X120959273Y-125239638D02*
X121625939Y-127239638D01*
X121625939Y-127239638D02*
X122292606Y-125239638D01*
X122959273Y-126192019D02*
X123625940Y-126192019D01*
X123911654Y-127239638D02*
X122959273Y-127239638D01*
X122959273Y-127239638D02*
X122959273Y-125239638D01*
X122959273Y-125239638D02*
X123911654Y-125239638D01*
X169125939Y-127239638D02*
X168173558Y-127239638D01*
X168173558Y-127239638D02*
X168173558Y-125239638D01*
X169792606Y-127239638D02*
X169792606Y-125239638D01*
X170459273Y-125239638D02*
X171125939Y-127239638D01*
X171125939Y-127239638D02*
X171792606Y-125239638D01*
X172459273Y-126192019D02*
X173125940Y-126192019D01*
X173411654Y-127239638D02*
X172459273Y-127239638D01*
X172459273Y-127239638D02*
X172459273Y-125239638D01*
X172459273Y-125239638D02*
X173411654Y-125239638D01*
X189328320Y-127144400D02*
X189614034Y-127239638D01*
X189614034Y-127239638D02*
X190090225Y-127239638D01*
X190090225Y-127239638D02*
X190280701Y-127144400D01*
X190280701Y-127144400D02*
X190375939Y-127049161D01*
X190375939Y-127049161D02*
X190471177Y-126858685D01*
X190471177Y-126858685D02*
X190471177Y-126668209D01*
X190471177Y-126668209D02*
X190375939Y-126477733D01*
X190375939Y-126477733D02*
X190280701Y-126382495D01*
X190280701Y-126382495D02*
X190090225Y-126287257D01*
X190090225Y-126287257D02*
X189709272Y-126192019D01*
X189709272Y-126192019D02*
X189518796Y-126096780D01*
X189518796Y-126096780D02*
X189423558Y-126001542D01*
X189423558Y-126001542D02*
X189328320Y-125811066D01*
X189328320Y-125811066D02*
X189328320Y-125620590D01*
X189328320Y-125620590D02*
X189423558Y-125430114D01*
X189423558Y-125430114D02*
X189518796Y-125334876D01*
X189518796Y-125334876D02*
X189709272Y-125239638D01*
X189709272Y-125239638D02*
X190185463Y-125239638D01*
X190185463Y-125239638D02*
X190471177Y-125334876D01*
X191137844Y-125239638D02*
X191614034Y-127239638D01*
X191614034Y-127239638D02*
X191994987Y-125811066D01*
X191994987Y-125811066D02*
X192375939Y-127239638D01*
X192375939Y-127239638D02*
X192852130Y-125239638D01*
X107423558Y-127239638D02*
X107423558Y-125239638D01*
X107423558Y-125239638D02*
X107899748Y-125239638D01*
X107899748Y-125239638D02*
X108185463Y-125334876D01*
X108185463Y-125334876D02*
X108375939Y-125525352D01*
X108375939Y-125525352D02*
X108471177Y-125715828D01*
X108471177Y-125715828D02*
X108566415Y-126096780D01*
X108566415Y-126096780D02*
X108566415Y-126382495D01*
X108566415Y-126382495D02*
X108471177Y-126763447D01*
X108471177Y-126763447D02*
X108375939Y-126953923D01*
X108375939Y-126953923D02*
X108185463Y-127144400D01*
X108185463Y-127144400D02*
X107899748Y-127239638D01*
X107899748Y-127239638D02*
X107423558Y-127239638D01*
X109804510Y-125239638D02*
X110185463Y-125239638D01*
X110185463Y-125239638D02*
X110375939Y-125334876D01*
X110375939Y-125334876D02*
X110566415Y-125525352D01*
X110566415Y-125525352D02*
X110661653Y-125906304D01*
X110661653Y-125906304D02*
X110661653Y-126572971D01*
X110661653Y-126572971D02*
X110566415Y-126953923D01*
X110566415Y-126953923D02*
X110375939Y-127144400D01*
X110375939Y-127144400D02*
X110185463Y-127239638D01*
X110185463Y-127239638D02*
X109804510Y-127239638D01*
X109804510Y-127239638D02*
X109614034Y-127144400D01*
X109614034Y-127144400D02*
X109423558Y-126953923D01*
X109423558Y-126953923D02*
X109328320Y-126572971D01*
X109328320Y-126572971D02*
X109328320Y-125906304D01*
X109328320Y-125906304D02*
X109423558Y-125525352D01*
X109423558Y-125525352D02*
X109614034Y-125334876D01*
X109614034Y-125334876D02*
X109804510Y-125239638D01*
X111328320Y-125239638D02*
X111804510Y-127239638D01*
X111804510Y-127239638D02*
X112185463Y-125811066D01*
X112185463Y-125811066D02*
X112566415Y-127239638D01*
X112566415Y-127239638D02*
X113042606Y-125239638D01*
X113804510Y-127239638D02*
X113804510Y-125239638D01*
X113804510Y-125239638D02*
X114947367Y-127239638D01*
X114947367Y-127239638D02*
X114947367Y-125239638D01*
X104268256Y-114863774D02*
X103553970Y-115363774D01*
X104268256Y-115720917D02*
X102768256Y-115720917D01*
X102768256Y-115720917D02*
X102768256Y-115149488D01*
X102768256Y-115149488D02*
X102839685Y-115006631D01*
X102839685Y-115006631D02*
X102911113Y-114935202D01*
X102911113Y-114935202D02*
X103053970Y-114863774D01*
X103053970Y-114863774D02*
X103268256Y-114863774D01*
X103268256Y-114863774D02*
X103411113Y-114935202D01*
X103411113Y-114935202D02*
X103482542Y-115006631D01*
X103482542Y-115006631D02*
X103553970Y-115149488D01*
X103553970Y-115149488D02*
X103553970Y-115720917D01*
X103482542Y-114220917D02*
X103482542Y-113720917D01*
X104268256Y-113506631D02*
X104268256Y-114220917D01*
X104268256Y-114220917D02*
X102768256Y-114220917D01*
X102768256Y-114220917D02*
X102768256Y-113506631D01*
X102768256Y-113078059D02*
X104268256Y-112578059D01*
X104268256Y-112578059D02*
X102768256Y-112078059D01*
X102768256Y-110649488D02*
X104268256Y-110149488D01*
X104268256Y-110149488D02*
X102768256Y-109649488D01*
X102768256Y-108863774D02*
X102768256Y-108720917D01*
X102768256Y-108720917D02*
X102839685Y-108578060D01*
X102839685Y-108578060D02*
X102911113Y-108506632D01*
X102911113Y-108506632D02*
X103053970Y-108435203D01*
X103053970Y-108435203D02*
X103339685Y-108363774D01*
X103339685Y-108363774D02*
X103696828Y-108363774D01*
X103696828Y-108363774D02*
X103982542Y-108435203D01*
X103982542Y-108435203D02*
X104125399Y-108506632D01*
X104125399Y-108506632D02*
X104196828Y-108578060D01*
X104196828Y-108578060D02*
X104268256Y-108720917D01*
X104268256Y-108720917D02*
X104268256Y-108863774D01*
X104268256Y-108863774D02*
X104196828Y-109006632D01*
X104196828Y-109006632D02*
X104125399Y-109078060D01*
X104125399Y-109078060D02*
X103982542Y-109149489D01*
X103982542Y-109149489D02*
X103696828Y-109220917D01*
X103696828Y-109220917D02*
X103339685Y-109220917D01*
X103339685Y-109220917D02*
X103053970Y-109149489D01*
X103053970Y-109149489D02*
X102911113Y-109078060D01*
X102911113Y-109078060D02*
X102839685Y-109006632D01*
X102839685Y-109006632D02*
X102768256Y-108863774D01*
X104125399Y-107720918D02*
X104196828Y-107649489D01*
X104196828Y-107649489D02*
X104268256Y-107720918D01*
X104268256Y-107720918D02*
X104196828Y-107792346D01*
X104196828Y-107792346D02*
X104125399Y-107720918D01*
X104125399Y-107720918D02*
X104268256Y-107720918D01*
X104268256Y-106220917D02*
X104268256Y-107078060D01*
X104268256Y-106649489D02*
X102768256Y-106649489D01*
X102768256Y-106649489D02*
X102982542Y-106792346D01*
X102982542Y-106792346D02*
X103125399Y-106935203D01*
X103125399Y-106935203D02*
X103196828Y-107078060D01*
X179673558Y-125239638D02*
X179673558Y-126858685D01*
X179673558Y-126858685D02*
X179768796Y-127049161D01*
X179768796Y-127049161D02*
X179864034Y-127144400D01*
X179864034Y-127144400D02*
X180054510Y-127239638D01*
X180054510Y-127239638D02*
X180435463Y-127239638D01*
X180435463Y-127239638D02*
X180625939Y-127144400D01*
X180625939Y-127144400D02*
X180721177Y-127049161D01*
X180721177Y-127049161D02*
X180816415Y-126858685D01*
X180816415Y-126858685D02*
X180816415Y-125239638D01*
X181768796Y-127239638D02*
X181768796Y-125239638D01*
X181768796Y-125239638D02*
X182530701Y-125239638D01*
X182530701Y-125239638D02*
X182721177Y-125334876D01*
X182721177Y-125334876D02*
X182816415Y-125430114D01*
X182816415Y-125430114D02*
X182911653Y-125620590D01*
X182911653Y-125620590D02*
X182911653Y-125906304D01*
X182911653Y-125906304D02*
X182816415Y-126096780D01*
X182816415Y-126096780D02*
X182721177Y-126192019D01*
X182721177Y-126192019D02*
X182530701Y-126287257D01*
X182530701Y-126287257D02*
X181768796Y-126287257D01*
X130173558Y-125239638D02*
X130173558Y-126858685D01*
X130173558Y-126858685D02*
X130268796Y-127049161D01*
X130268796Y-127049161D02*
X130364034Y-127144400D01*
X130364034Y-127144400D02*
X130554510Y-127239638D01*
X130554510Y-127239638D02*
X130935463Y-127239638D01*
X130935463Y-127239638D02*
X131125939Y-127144400D01*
X131125939Y-127144400D02*
X131221177Y-127049161D01*
X131221177Y-127049161D02*
X131316415Y-126858685D01*
X131316415Y-126858685D02*
X131316415Y-125239638D01*
X132268796Y-127239638D02*
X132268796Y-125239638D01*
X132268796Y-125239638D02*
X133030701Y-125239638D01*
X133030701Y-125239638D02*
X133221177Y-125334876D01*
X133221177Y-125334876D02*
X133316415Y-125430114D01*
X133316415Y-125430114D02*
X133411653Y-125620590D01*
X133411653Y-125620590D02*
X133411653Y-125906304D01*
X133411653Y-125906304D02*
X133316415Y-126096780D01*
X133316415Y-126096780D02*
X133221177Y-126192019D01*
X133221177Y-126192019D02*
X133030701Y-126287257D01*
X133030701Y-126287257D02*
X132268796Y-126287257D01*
X156923558Y-127239638D02*
X156923558Y-125239638D01*
X156923558Y-125239638D02*
X157399748Y-125239638D01*
X157399748Y-125239638D02*
X157685463Y-125334876D01*
X157685463Y-125334876D02*
X157875939Y-125525352D01*
X157875939Y-125525352D02*
X157971177Y-125715828D01*
X157971177Y-125715828D02*
X158066415Y-126096780D01*
X158066415Y-126096780D02*
X158066415Y-126382495D01*
X158066415Y-126382495D02*
X157971177Y-126763447D01*
X157971177Y-126763447D02*
X157875939Y-126953923D01*
X157875939Y-126953923D02*
X157685463Y-127144400D01*
X157685463Y-127144400D02*
X157399748Y-127239638D01*
X157399748Y-127239638D02*
X156923558Y-127239638D01*
X159304510Y-125239638D02*
X159685463Y-125239638D01*
X159685463Y-125239638D02*
X159875939Y-125334876D01*
X159875939Y-125334876D02*
X160066415Y-125525352D01*
X160066415Y-125525352D02*
X160161653Y-125906304D01*
X160161653Y-125906304D02*
X160161653Y-126572971D01*
X160161653Y-126572971D02*
X160066415Y-126953923D01*
X160066415Y-126953923D02*
X159875939Y-127144400D01*
X159875939Y-127144400D02*
X159685463Y-127239638D01*
X159685463Y-127239638D02*
X159304510Y-127239638D01*
X159304510Y-127239638D02*
X159114034Y-127144400D01*
X159114034Y-127144400D02*
X158923558Y-126953923D01*
X158923558Y-126953923D02*
X158828320Y-126572971D01*
X158828320Y-126572971D02*
X158828320Y-125906304D01*
X158828320Y-125906304D02*
X158923558Y-125525352D01*
X158923558Y-125525352D02*
X159114034Y-125334876D01*
X159114034Y-125334876D02*
X159304510Y-125239638D01*
X160828320Y-125239638D02*
X161304510Y-127239638D01*
X161304510Y-127239638D02*
X161685463Y-125811066D01*
X161685463Y-125811066D02*
X162066415Y-127239638D01*
X162066415Y-127239638D02*
X162542606Y-125239638D01*
X163304510Y-127239638D02*
X163304510Y-125239638D01*
X163304510Y-125239638D02*
X164447367Y-127239638D01*
X164447367Y-127239638D02*
X164447367Y-125239638D01*
X139828320Y-127144400D02*
X140114034Y-127239638D01*
X140114034Y-127239638D02*
X140590225Y-127239638D01*
X140590225Y-127239638D02*
X140780701Y-127144400D01*
X140780701Y-127144400D02*
X140875939Y-127049161D01*
X140875939Y-127049161D02*
X140971177Y-126858685D01*
X140971177Y-126858685D02*
X140971177Y-126668209D01*
X140971177Y-126668209D02*
X140875939Y-126477733D01*
X140875939Y-126477733D02*
X140780701Y-126382495D01*
X140780701Y-126382495D02*
X140590225Y-126287257D01*
X140590225Y-126287257D02*
X140209272Y-126192019D01*
X140209272Y-126192019D02*
X140018796Y-126096780D01*
X140018796Y-126096780D02*
X139923558Y-126001542D01*
X139923558Y-126001542D02*
X139828320Y-125811066D01*
X139828320Y-125811066D02*
X139828320Y-125620590D01*
X139828320Y-125620590D02*
X139923558Y-125430114D01*
X139923558Y-125430114D02*
X140018796Y-125334876D01*
X140018796Y-125334876D02*
X140209272Y-125239638D01*
X140209272Y-125239638D02*
X140685463Y-125239638D01*
X140685463Y-125239638D02*
X140971177Y-125334876D01*
X141637844Y-125239638D02*
X142114034Y-127239638D01*
X142114034Y-127239638D02*
X142494987Y-125811066D01*
X142494987Y-125811066D02*
X142875939Y-127239638D01*
X142875939Y-127239638D02*
X143352130Y-125239638D01*
D11*
X104860588Y-127869819D02*
X104289160Y-127869819D01*
X104574874Y-127869819D02*
X104574874Y-126869819D01*
X104574874Y-126869819D02*
X104479636Y-127012676D01*
X104479636Y-127012676D02*
X104384398Y-127107914D01*
X104384398Y-127107914D02*
X104289160Y-127155533D01*
X130583333Y-72609580D02*
X130535714Y-72657200D01*
X130535714Y-72657200D02*
X130392857Y-72704819D01*
X130392857Y-72704819D02*
X130297619Y-72704819D01*
X130297619Y-72704819D02*
X130154762Y-72657200D01*
X130154762Y-72657200D02*
X130059524Y-72561961D01*
X130059524Y-72561961D02*
X130011905Y-72466723D01*
X130011905Y-72466723D02*
X129964286Y-72276247D01*
X129964286Y-72276247D02*
X129964286Y-72133390D01*
X129964286Y-72133390D02*
X130011905Y-71942914D01*
X130011905Y-71942914D02*
X130059524Y-71847676D01*
X130059524Y-71847676D02*
X130154762Y-71752438D01*
X130154762Y-71752438D02*
X130297619Y-71704819D01*
X130297619Y-71704819D02*
X130392857Y-71704819D01*
X130392857Y-71704819D02*
X130535714Y-71752438D01*
X130535714Y-71752438D02*
X130583333Y-71800057D01*
X131440476Y-72038152D02*
X131440476Y-72704819D01*
X131202381Y-71657200D02*
X130964286Y-72371485D01*
X130964286Y-72371485D02*
X131583333Y-72371485D01*
X137266666Y-71554819D02*
X137266666Y-72269104D01*
X137266666Y-72269104D02*
X137219047Y-72411961D01*
X137219047Y-72411961D02*
X137123809Y-72507200D01*
X137123809Y-72507200D02*
X136980952Y-72554819D01*
X136980952Y-72554819D02*
X136885714Y-72554819D01*
X138266666Y-72554819D02*
X137695238Y-72554819D01*
X137980952Y-72554819D02*
X137980952Y-71554819D01*
X137980952Y-71554819D02*
X137885714Y-71697676D01*
X137885714Y-71697676D02*
X137790476Y-71792914D01*
X137790476Y-71792914D02*
X137695238Y-71840533D01*
X193238095Y-74454819D02*
X193238095Y-75264342D01*
X193238095Y-75264342D02*
X193285714Y-75359580D01*
X193285714Y-75359580D02*
X193333333Y-75407200D01*
X193333333Y-75407200D02*
X193428571Y-75454819D01*
X193428571Y-75454819D02*
X193619047Y-75454819D01*
X193619047Y-75454819D02*
X193714285Y-75407200D01*
X193714285Y-75407200D02*
X193761904Y-75359580D01*
X193761904Y-75359580D02*
X193809523Y-75264342D01*
X193809523Y-75264342D02*
X193809523Y-74454819D01*
X194190476Y-74454819D02*
X194857142Y-74454819D01*
X194857142Y-74454819D02*
X194428571Y-75454819D01*
X182084819Y-93196666D02*
X181608628Y-93529999D01*
X182084819Y-93768094D02*
X181084819Y-93768094D01*
X181084819Y-93768094D02*
X181084819Y-93387142D01*
X181084819Y-93387142D02*
X181132438Y-93291904D01*
X181132438Y-93291904D02*
X181180057Y-93244285D01*
X181180057Y-93244285D02*
X181275295Y-93196666D01*
X181275295Y-93196666D02*
X181418152Y-93196666D01*
X181418152Y-93196666D02*
X181513390Y-93244285D01*
X181513390Y-93244285D02*
X181561009Y-93291904D01*
X181561009Y-93291904D02*
X181608628Y-93387142D01*
X181608628Y-93387142D02*
X181608628Y-93768094D01*
X181084819Y-92339523D02*
X181084819Y-92529999D01*
X181084819Y-92529999D02*
X181132438Y-92625237D01*
X181132438Y-92625237D02*
X181180057Y-92672856D01*
X181180057Y-92672856D02*
X181322914Y-92768094D01*
X181322914Y-92768094D02*
X181513390Y-92815713D01*
X181513390Y-92815713D02*
X181894342Y-92815713D01*
X181894342Y-92815713D02*
X181989580Y-92768094D01*
X181989580Y-92768094D02*
X182037200Y-92720475D01*
X182037200Y-92720475D02*
X182084819Y-92625237D01*
X182084819Y-92625237D02*
X182084819Y-92434761D01*
X182084819Y-92434761D02*
X182037200Y-92339523D01*
X182037200Y-92339523D02*
X181989580Y-92291904D01*
X181989580Y-92291904D02*
X181894342Y-92244285D01*
X181894342Y-92244285D02*
X181656247Y-92244285D01*
X181656247Y-92244285D02*
X181561009Y-92291904D01*
X181561009Y-92291904D02*
X181513390Y-92339523D01*
X181513390Y-92339523D02*
X181465771Y-92434761D01*
X181465771Y-92434761D02*
X181465771Y-92625237D01*
X181465771Y-92625237D02*
X181513390Y-92720475D01*
X181513390Y-92720475D02*
X181561009Y-92768094D01*
X181561009Y-92768094D02*
X181656247Y-92815713D01*
X146261905Y-103704819D02*
X146261905Y-102704819D01*
X146833333Y-103704819D02*
X146404762Y-103133390D01*
X146833333Y-102704819D02*
X146261905Y-103276247D01*
X147214286Y-102800057D02*
X147261905Y-102752438D01*
X147261905Y-102752438D02*
X147357143Y-102704819D01*
X147357143Y-102704819D02*
X147595238Y-102704819D01*
X147595238Y-102704819D02*
X147690476Y-102752438D01*
X147690476Y-102752438D02*
X147738095Y-102800057D01*
X147738095Y-102800057D02*
X147785714Y-102895295D01*
X147785714Y-102895295D02*
X147785714Y-102990533D01*
X147785714Y-102990533D02*
X147738095Y-103133390D01*
X147738095Y-103133390D02*
X147166667Y-103704819D01*
X147166667Y-103704819D02*
X147785714Y-103704819D01*
X154788333Y-72154819D02*
X154455000Y-71678628D01*
X154216905Y-72154819D02*
X154216905Y-71154819D01*
X154216905Y-71154819D02*
X154597857Y-71154819D01*
X154597857Y-71154819D02*
X154693095Y-71202438D01*
X154693095Y-71202438D02*
X154740714Y-71250057D01*
X154740714Y-71250057D02*
X154788333Y-71345295D01*
X154788333Y-71345295D02*
X154788333Y-71488152D01*
X154788333Y-71488152D02*
X154740714Y-71583390D01*
X154740714Y-71583390D02*
X154693095Y-71631009D01*
X154693095Y-71631009D02*
X154597857Y-71678628D01*
X154597857Y-71678628D02*
X154216905Y-71678628D01*
X155169286Y-71250057D02*
X155216905Y-71202438D01*
X155216905Y-71202438D02*
X155312143Y-71154819D01*
X155312143Y-71154819D02*
X155550238Y-71154819D01*
X155550238Y-71154819D02*
X155645476Y-71202438D01*
X155645476Y-71202438D02*
X155693095Y-71250057D01*
X155693095Y-71250057D02*
X155740714Y-71345295D01*
X155740714Y-71345295D02*
X155740714Y-71440533D01*
X155740714Y-71440533D02*
X155693095Y-71583390D01*
X155693095Y-71583390D02*
X155121667Y-72154819D01*
X155121667Y-72154819D02*
X155740714Y-72154819D01*
X141554819Y-76238094D02*
X140554819Y-76238094D01*
X140554819Y-76238094D02*
X140554819Y-75999999D01*
X140554819Y-75999999D02*
X140602438Y-75857142D01*
X140602438Y-75857142D02*
X140697676Y-75761904D01*
X140697676Y-75761904D02*
X140792914Y-75714285D01*
X140792914Y-75714285D02*
X140983390Y-75666666D01*
X140983390Y-75666666D02*
X141126247Y-75666666D01*
X141126247Y-75666666D02*
X141316723Y-75714285D01*
X141316723Y-75714285D02*
X141411961Y-75761904D01*
X141411961Y-75761904D02*
X141507200Y-75857142D01*
X141507200Y-75857142D02*
X141554819Y-75999999D01*
X141554819Y-75999999D02*
X141554819Y-76238094D01*
X141554819Y-75190475D02*
X141554819Y-74999999D01*
X141554819Y-74999999D02*
X141507200Y-74904761D01*
X141507200Y-74904761D02*
X141459580Y-74857142D01*
X141459580Y-74857142D02*
X141316723Y-74761904D01*
X141316723Y-74761904D02*
X141126247Y-74714285D01*
X141126247Y-74714285D02*
X140745295Y-74714285D01*
X140745295Y-74714285D02*
X140650057Y-74761904D01*
X140650057Y-74761904D02*
X140602438Y-74809523D01*
X140602438Y-74809523D02*
X140554819Y-74904761D01*
X140554819Y-74904761D02*
X140554819Y-75095237D01*
X140554819Y-75095237D02*
X140602438Y-75190475D01*
X140602438Y-75190475D02*
X140650057Y-75238094D01*
X140650057Y-75238094D02*
X140745295Y-75285713D01*
X140745295Y-75285713D02*
X140983390Y-75285713D01*
X140983390Y-75285713D02*
X141078628Y-75238094D01*
X141078628Y-75238094D02*
X141126247Y-75190475D01*
X141126247Y-75190475D02*
X141173866Y-75095237D01*
X141173866Y-75095237D02*
X141173866Y-74904761D01*
X141173866Y-74904761D02*
X141126247Y-74809523D01*
X141126247Y-74809523D02*
X141078628Y-74761904D01*
X141078628Y-74761904D02*
X140983390Y-74714285D01*
X143138095Y-73054819D02*
X143138095Y-72054819D01*
X143709523Y-73054819D02*
X143280952Y-72483390D01*
X143709523Y-72054819D02*
X143138095Y-72626247D01*
X136784819Y-89371904D02*
X137594342Y-89371904D01*
X137594342Y-89371904D02*
X137689580Y-89324285D01*
X137689580Y-89324285D02*
X137737200Y-89276666D01*
X137737200Y-89276666D02*
X137784819Y-89181428D01*
X137784819Y-89181428D02*
X137784819Y-88990952D01*
X137784819Y-88990952D02*
X137737200Y-88895714D01*
X137737200Y-88895714D02*
X137689580Y-88848095D01*
X137689580Y-88848095D02*
X137594342Y-88800476D01*
X137594342Y-88800476D02*
X136784819Y-88800476D01*
X136880057Y-88371904D02*
X136832438Y-88324285D01*
X136832438Y-88324285D02*
X136784819Y-88229047D01*
X136784819Y-88229047D02*
X136784819Y-87990952D01*
X136784819Y-87990952D02*
X136832438Y-87895714D01*
X136832438Y-87895714D02*
X136880057Y-87848095D01*
X136880057Y-87848095D02*
X136975295Y-87800476D01*
X136975295Y-87800476D02*
X137070533Y-87800476D01*
X137070533Y-87800476D02*
X137213390Y-87848095D01*
X137213390Y-87848095D02*
X137784819Y-88419523D01*
X137784819Y-88419523D02*
X137784819Y-87800476D01*
X185584819Y-69691666D02*
X185108628Y-70024999D01*
X185584819Y-70263094D02*
X184584819Y-70263094D01*
X184584819Y-70263094D02*
X184584819Y-69882142D01*
X184584819Y-69882142D02*
X184632438Y-69786904D01*
X184632438Y-69786904D02*
X184680057Y-69739285D01*
X184680057Y-69739285D02*
X184775295Y-69691666D01*
X184775295Y-69691666D02*
X184918152Y-69691666D01*
X184918152Y-69691666D02*
X185013390Y-69739285D01*
X185013390Y-69739285D02*
X185061009Y-69786904D01*
X185061009Y-69786904D02*
X185108628Y-69882142D01*
X185108628Y-69882142D02*
X185108628Y-70263094D01*
X185584819Y-69215475D02*
X185584819Y-69024999D01*
X185584819Y-69024999D02*
X185537200Y-68929761D01*
X185537200Y-68929761D02*
X185489580Y-68882142D01*
X185489580Y-68882142D02*
X185346723Y-68786904D01*
X185346723Y-68786904D02*
X185156247Y-68739285D01*
X185156247Y-68739285D02*
X184775295Y-68739285D01*
X184775295Y-68739285D02*
X184680057Y-68786904D01*
X184680057Y-68786904D02*
X184632438Y-68834523D01*
X184632438Y-68834523D02*
X184584819Y-68929761D01*
X184584819Y-68929761D02*
X184584819Y-69120237D01*
X184584819Y-69120237D02*
X184632438Y-69215475D01*
X184632438Y-69215475D02*
X184680057Y-69263094D01*
X184680057Y-69263094D02*
X184775295Y-69310713D01*
X184775295Y-69310713D02*
X185013390Y-69310713D01*
X185013390Y-69310713D02*
X185108628Y-69263094D01*
X185108628Y-69263094D02*
X185156247Y-69215475D01*
X185156247Y-69215475D02*
X185203866Y-69120237D01*
X185203866Y-69120237D02*
X185203866Y-68929761D01*
X185203866Y-68929761D02*
X185156247Y-68834523D01*
X185156247Y-68834523D02*
X185108628Y-68786904D01*
X185108628Y-68786904D02*
X185013390Y-68739285D01*
X193161905Y-103704819D02*
X193161905Y-102704819D01*
X193733333Y-103704819D02*
X193304762Y-103133390D01*
X193733333Y-102704819D02*
X193161905Y-103276247D01*
X194590476Y-103038152D02*
X194590476Y-103704819D01*
X194352381Y-102657200D02*
X194114286Y-103371485D01*
X194114286Y-103371485D02*
X194733333Y-103371485D01*
X180834819Y-69691666D02*
X180358628Y-70024999D01*
X180834819Y-70263094D02*
X179834819Y-70263094D01*
X179834819Y-70263094D02*
X179834819Y-69882142D01*
X179834819Y-69882142D02*
X179882438Y-69786904D01*
X179882438Y-69786904D02*
X179930057Y-69739285D01*
X179930057Y-69739285D02*
X180025295Y-69691666D01*
X180025295Y-69691666D02*
X180168152Y-69691666D01*
X180168152Y-69691666D02*
X180263390Y-69739285D01*
X180263390Y-69739285D02*
X180311009Y-69786904D01*
X180311009Y-69786904D02*
X180358628Y-69882142D01*
X180358628Y-69882142D02*
X180358628Y-70263094D01*
X180263390Y-69120237D02*
X180215771Y-69215475D01*
X180215771Y-69215475D02*
X180168152Y-69263094D01*
X180168152Y-69263094D02*
X180072914Y-69310713D01*
X180072914Y-69310713D02*
X180025295Y-69310713D01*
X180025295Y-69310713D02*
X179930057Y-69263094D01*
X179930057Y-69263094D02*
X179882438Y-69215475D01*
X179882438Y-69215475D02*
X179834819Y-69120237D01*
X179834819Y-69120237D02*
X179834819Y-68929761D01*
X179834819Y-68929761D02*
X179882438Y-68834523D01*
X179882438Y-68834523D02*
X179930057Y-68786904D01*
X179930057Y-68786904D02*
X180025295Y-68739285D01*
X180025295Y-68739285D02*
X180072914Y-68739285D01*
X180072914Y-68739285D02*
X180168152Y-68786904D01*
X180168152Y-68786904D02*
X180215771Y-68834523D01*
X180215771Y-68834523D02*
X180263390Y-68929761D01*
X180263390Y-68929761D02*
X180263390Y-69120237D01*
X180263390Y-69120237D02*
X180311009Y-69215475D01*
X180311009Y-69215475D02*
X180358628Y-69263094D01*
X180358628Y-69263094D02*
X180453866Y-69310713D01*
X180453866Y-69310713D02*
X180644342Y-69310713D01*
X180644342Y-69310713D02*
X180739580Y-69263094D01*
X180739580Y-69263094D02*
X180787200Y-69215475D01*
X180787200Y-69215475D02*
X180834819Y-69120237D01*
X180834819Y-69120237D02*
X180834819Y-68929761D01*
X180834819Y-68929761D02*
X180787200Y-68834523D01*
X180787200Y-68834523D02*
X180739580Y-68786904D01*
X180739580Y-68786904D02*
X180644342Y-68739285D01*
X180644342Y-68739285D02*
X180453866Y-68739285D01*
X180453866Y-68739285D02*
X180358628Y-68786904D01*
X180358628Y-68786904D02*
X180311009Y-68834523D01*
X180311009Y-68834523D02*
X180263390Y-68929761D01*
X187738095Y-74704819D02*
X187738095Y-75514342D01*
X187738095Y-75514342D02*
X187785714Y-75609580D01*
X187785714Y-75609580D02*
X187833333Y-75657200D01*
X187833333Y-75657200D02*
X187928571Y-75704819D01*
X187928571Y-75704819D02*
X188119047Y-75704819D01*
X188119047Y-75704819D02*
X188214285Y-75657200D01*
X188214285Y-75657200D02*
X188261904Y-75609580D01*
X188261904Y-75609580D02*
X188309523Y-75514342D01*
X188309523Y-75514342D02*
X188309523Y-74704819D01*
X189214285Y-74704819D02*
X189023809Y-74704819D01*
X189023809Y-74704819D02*
X188928571Y-74752438D01*
X188928571Y-74752438D02*
X188880952Y-74800057D01*
X188880952Y-74800057D02*
X188785714Y-74942914D01*
X188785714Y-74942914D02*
X188738095Y-75133390D01*
X188738095Y-75133390D02*
X188738095Y-75514342D01*
X188738095Y-75514342D02*
X188785714Y-75609580D01*
X188785714Y-75609580D02*
X188833333Y-75657200D01*
X188833333Y-75657200D02*
X188928571Y-75704819D01*
X188928571Y-75704819D02*
X189119047Y-75704819D01*
X189119047Y-75704819D02*
X189214285Y-75657200D01*
X189214285Y-75657200D02*
X189261904Y-75609580D01*
X189261904Y-75609580D02*
X189309523Y-75514342D01*
X189309523Y-75514342D02*
X189309523Y-75276247D01*
X189309523Y-75276247D02*
X189261904Y-75181009D01*
X189261904Y-75181009D02*
X189214285Y-75133390D01*
X189214285Y-75133390D02*
X189119047Y-75085771D01*
X189119047Y-75085771D02*
X188928571Y-75085771D01*
X188928571Y-75085771D02*
X188833333Y-75133390D01*
X188833333Y-75133390D02*
X188785714Y-75181009D01*
X188785714Y-75181009D02*
X188738095Y-75276247D01*
X165933333Y-69854819D02*
X165600000Y-69378628D01*
X165361905Y-69854819D02*
X165361905Y-68854819D01*
X165361905Y-68854819D02*
X165742857Y-68854819D01*
X165742857Y-68854819D02*
X165838095Y-68902438D01*
X165838095Y-68902438D02*
X165885714Y-68950057D01*
X165885714Y-68950057D02*
X165933333Y-69045295D01*
X165933333Y-69045295D02*
X165933333Y-69188152D01*
X165933333Y-69188152D02*
X165885714Y-69283390D01*
X165885714Y-69283390D02*
X165838095Y-69331009D01*
X165838095Y-69331009D02*
X165742857Y-69378628D01*
X165742857Y-69378628D02*
X165361905Y-69378628D01*
X166885714Y-69854819D02*
X166314286Y-69854819D01*
X166600000Y-69854819D02*
X166600000Y-68854819D01*
X166600000Y-68854819D02*
X166504762Y-68997676D01*
X166504762Y-68997676D02*
X166409524Y-69092914D01*
X166409524Y-69092914D02*
X166314286Y-69140533D01*
X176334819Y-93191666D02*
X175858628Y-93524999D01*
X176334819Y-93763094D02*
X175334819Y-93763094D01*
X175334819Y-93763094D02*
X175334819Y-93382142D01*
X175334819Y-93382142D02*
X175382438Y-93286904D01*
X175382438Y-93286904D02*
X175430057Y-93239285D01*
X175430057Y-93239285D02*
X175525295Y-93191666D01*
X175525295Y-93191666D02*
X175668152Y-93191666D01*
X175668152Y-93191666D02*
X175763390Y-93239285D01*
X175763390Y-93239285D02*
X175811009Y-93286904D01*
X175811009Y-93286904D02*
X175858628Y-93382142D01*
X175858628Y-93382142D02*
X175858628Y-93763094D01*
X175668152Y-92334523D02*
X176334819Y-92334523D01*
X175287200Y-92572618D02*
X176001485Y-92810713D01*
X176001485Y-92810713D02*
X176001485Y-92191666D01*
X150754819Y-76238094D02*
X149754819Y-76238094D01*
X149754819Y-76238094D02*
X149754819Y-75999999D01*
X149754819Y-75999999D02*
X149802438Y-75857142D01*
X149802438Y-75857142D02*
X149897676Y-75761904D01*
X149897676Y-75761904D02*
X149992914Y-75714285D01*
X149992914Y-75714285D02*
X150183390Y-75666666D01*
X150183390Y-75666666D02*
X150326247Y-75666666D01*
X150326247Y-75666666D02*
X150516723Y-75714285D01*
X150516723Y-75714285D02*
X150611961Y-75761904D01*
X150611961Y-75761904D02*
X150707200Y-75857142D01*
X150707200Y-75857142D02*
X150754819Y-75999999D01*
X150754819Y-75999999D02*
X150754819Y-76238094D01*
X149754819Y-74761904D02*
X149754819Y-75238094D01*
X149754819Y-75238094D02*
X150231009Y-75285713D01*
X150231009Y-75285713D02*
X150183390Y-75238094D01*
X150183390Y-75238094D02*
X150135771Y-75142856D01*
X150135771Y-75142856D02*
X150135771Y-74904761D01*
X150135771Y-74904761D02*
X150183390Y-74809523D01*
X150183390Y-74809523D02*
X150231009Y-74761904D01*
X150231009Y-74761904D02*
X150326247Y-74714285D01*
X150326247Y-74714285D02*
X150564342Y-74714285D01*
X150564342Y-74714285D02*
X150659580Y-74761904D01*
X150659580Y-74761904D02*
X150707200Y-74809523D01*
X150707200Y-74809523D02*
X150754819Y-74904761D01*
X150754819Y-74904761D02*
X150754819Y-75142856D01*
X150754819Y-75142856D02*
X150707200Y-75238094D01*
X150707200Y-75238094D02*
X150659580Y-75285713D01*
X152338095Y-72954819D02*
X152338095Y-71954819D01*
X152909523Y-72954819D02*
X152480952Y-72383390D01*
X152909523Y-71954819D02*
X152338095Y-72526247D01*
X176084819Y-69917857D02*
X175608628Y-70251190D01*
X176084819Y-70489285D02*
X175084819Y-70489285D01*
X175084819Y-70489285D02*
X175084819Y-70108333D01*
X175084819Y-70108333D02*
X175132438Y-70013095D01*
X175132438Y-70013095D02*
X175180057Y-69965476D01*
X175180057Y-69965476D02*
X175275295Y-69917857D01*
X175275295Y-69917857D02*
X175418152Y-69917857D01*
X175418152Y-69917857D02*
X175513390Y-69965476D01*
X175513390Y-69965476D02*
X175561009Y-70013095D01*
X175561009Y-70013095D02*
X175608628Y-70108333D01*
X175608628Y-70108333D02*
X175608628Y-70489285D01*
X176084819Y-68965476D02*
X176084819Y-69536904D01*
X176084819Y-69251190D02*
X175084819Y-69251190D01*
X175084819Y-69251190D02*
X175227676Y-69346428D01*
X175227676Y-69346428D02*
X175322914Y-69441666D01*
X175322914Y-69441666D02*
X175370533Y-69536904D01*
X175084819Y-68346428D02*
X175084819Y-68251190D01*
X175084819Y-68251190D02*
X175132438Y-68155952D01*
X175132438Y-68155952D02*
X175180057Y-68108333D01*
X175180057Y-68108333D02*
X175275295Y-68060714D01*
X175275295Y-68060714D02*
X175465771Y-68013095D01*
X175465771Y-68013095D02*
X175703866Y-68013095D01*
X175703866Y-68013095D02*
X175894342Y-68060714D01*
X175894342Y-68060714D02*
X175989580Y-68108333D01*
X175989580Y-68108333D02*
X176037200Y-68155952D01*
X176037200Y-68155952D02*
X176084819Y-68251190D01*
X176084819Y-68251190D02*
X176084819Y-68346428D01*
X176084819Y-68346428D02*
X176037200Y-68441666D01*
X176037200Y-68441666D02*
X175989580Y-68489285D01*
X175989580Y-68489285D02*
X175894342Y-68536904D01*
X175894342Y-68536904D02*
X175703866Y-68584523D01*
X175703866Y-68584523D02*
X175465771Y-68584523D01*
X175465771Y-68584523D02*
X175275295Y-68536904D01*
X175275295Y-68536904D02*
X175180057Y-68489285D01*
X175180057Y-68489285D02*
X175132438Y-68441666D01*
X175132438Y-68441666D02*
X175084819Y-68346428D01*
X107761905Y-103654819D02*
X107761905Y-102654819D01*
X108333333Y-103654819D02*
X107904762Y-103083390D01*
X108333333Y-102654819D02*
X107761905Y-103226247D01*
X109285714Y-103654819D02*
X108714286Y-103654819D01*
X109000000Y-103654819D02*
X109000000Y-102654819D01*
X109000000Y-102654819D02*
X108904762Y-102797676D01*
X108904762Y-102797676D02*
X108809524Y-102892914D01*
X108809524Y-102892914D02*
X108714286Y-102940533D01*
X166861905Y-74054819D02*
X166861905Y-73054819D01*
X166861905Y-73054819D02*
X167100000Y-73054819D01*
X167100000Y-73054819D02*
X167242857Y-73102438D01*
X167242857Y-73102438D02*
X167338095Y-73197676D01*
X167338095Y-73197676D02*
X167385714Y-73292914D01*
X167385714Y-73292914D02*
X167433333Y-73483390D01*
X167433333Y-73483390D02*
X167433333Y-73626247D01*
X167433333Y-73626247D02*
X167385714Y-73816723D01*
X167385714Y-73816723D02*
X167338095Y-73911961D01*
X167338095Y-73911961D02*
X167242857Y-74007200D01*
X167242857Y-74007200D02*
X167100000Y-74054819D01*
X167100000Y-74054819D02*
X166861905Y-74054819D01*
X167766667Y-73054819D02*
X168433333Y-73054819D01*
X168433333Y-73054819D02*
X168004762Y-74054819D01*
X158338095Y-72554819D02*
X158338095Y-71554819D01*
X158909523Y-72554819D02*
X158480952Y-71983390D01*
X158909523Y-71554819D02*
X158338095Y-72126247D01*
X166961905Y-78454819D02*
X166961905Y-77454819D01*
X166961905Y-77454819D02*
X167200000Y-77454819D01*
X167200000Y-77454819D02*
X167342857Y-77502438D01*
X167342857Y-77502438D02*
X167438095Y-77597676D01*
X167438095Y-77597676D02*
X167485714Y-77692914D01*
X167485714Y-77692914D02*
X167533333Y-77883390D01*
X167533333Y-77883390D02*
X167533333Y-78026247D01*
X167533333Y-78026247D02*
X167485714Y-78216723D01*
X167485714Y-78216723D02*
X167438095Y-78311961D01*
X167438095Y-78311961D02*
X167342857Y-78407200D01*
X167342857Y-78407200D02*
X167200000Y-78454819D01*
X167200000Y-78454819D02*
X166961905Y-78454819D01*
X168104762Y-77883390D02*
X168009524Y-77835771D01*
X168009524Y-77835771D02*
X167961905Y-77788152D01*
X167961905Y-77788152D02*
X167914286Y-77692914D01*
X167914286Y-77692914D02*
X167914286Y-77645295D01*
X167914286Y-77645295D02*
X167961905Y-77550057D01*
X167961905Y-77550057D02*
X168009524Y-77502438D01*
X168009524Y-77502438D02*
X168104762Y-77454819D01*
X168104762Y-77454819D02*
X168295238Y-77454819D01*
X168295238Y-77454819D02*
X168390476Y-77502438D01*
X168390476Y-77502438D02*
X168438095Y-77550057D01*
X168438095Y-77550057D02*
X168485714Y-77645295D01*
X168485714Y-77645295D02*
X168485714Y-77692914D01*
X168485714Y-77692914D02*
X168438095Y-77788152D01*
X168438095Y-77788152D02*
X168390476Y-77835771D01*
X168390476Y-77835771D02*
X168295238Y-77883390D01*
X168295238Y-77883390D02*
X168104762Y-77883390D01*
X168104762Y-77883390D02*
X168009524Y-77931009D01*
X168009524Y-77931009D02*
X167961905Y-77978628D01*
X167961905Y-77978628D02*
X167914286Y-78073866D01*
X167914286Y-78073866D02*
X167914286Y-78264342D01*
X167914286Y-78264342D02*
X167961905Y-78359580D01*
X167961905Y-78359580D02*
X168009524Y-78407200D01*
X168009524Y-78407200D02*
X168104762Y-78454819D01*
X168104762Y-78454819D02*
X168295238Y-78454819D01*
X168295238Y-78454819D02*
X168390476Y-78407200D01*
X168390476Y-78407200D02*
X168438095Y-78359580D01*
X168438095Y-78359580D02*
X168485714Y-78264342D01*
X168485714Y-78264342D02*
X168485714Y-78073866D01*
X168485714Y-78073866D02*
X168438095Y-77978628D01*
X168438095Y-77978628D02*
X168390476Y-77931009D01*
X168390476Y-77931009D02*
X168295238Y-77883390D01*
X164688095Y-81254819D02*
X164688095Y-80254819D01*
X165259523Y-81254819D02*
X164830952Y-80683390D01*
X165259523Y-80254819D02*
X164688095Y-80826247D01*
X181963095Y-74504819D02*
X181963095Y-75314342D01*
X181963095Y-75314342D02*
X182010714Y-75409580D01*
X182010714Y-75409580D02*
X182058333Y-75457200D01*
X182058333Y-75457200D02*
X182153571Y-75504819D01*
X182153571Y-75504819D02*
X182344047Y-75504819D01*
X182344047Y-75504819D02*
X182439285Y-75457200D01*
X182439285Y-75457200D02*
X182486904Y-75409580D01*
X182486904Y-75409580D02*
X182534523Y-75314342D01*
X182534523Y-75314342D02*
X182534523Y-74504819D01*
X183486904Y-74504819D02*
X183010714Y-74504819D01*
X183010714Y-74504819D02*
X182963095Y-74981009D01*
X182963095Y-74981009D02*
X183010714Y-74933390D01*
X183010714Y-74933390D02*
X183105952Y-74885771D01*
X183105952Y-74885771D02*
X183344047Y-74885771D01*
X183344047Y-74885771D02*
X183439285Y-74933390D01*
X183439285Y-74933390D02*
X183486904Y-74981009D01*
X183486904Y-74981009D02*
X183534523Y-75076247D01*
X183534523Y-75076247D02*
X183534523Y-75314342D01*
X183534523Y-75314342D02*
X183486904Y-75409580D01*
X183486904Y-75409580D02*
X183439285Y-75457200D01*
X183439285Y-75457200D02*
X183344047Y-75504819D01*
X183344047Y-75504819D02*
X183105952Y-75504819D01*
X183105952Y-75504819D02*
X183010714Y-75457200D01*
X183010714Y-75457200D02*
X182963095Y-75409580D01*
X141454819Y-81014285D02*
X140454819Y-81014285D01*
X140454819Y-81014285D02*
X140454819Y-80776190D01*
X140454819Y-80776190D02*
X140502438Y-80633333D01*
X140502438Y-80633333D02*
X140597676Y-80538095D01*
X140597676Y-80538095D02*
X140692914Y-80490476D01*
X140692914Y-80490476D02*
X140883390Y-80442857D01*
X140883390Y-80442857D02*
X141026247Y-80442857D01*
X141026247Y-80442857D02*
X141216723Y-80490476D01*
X141216723Y-80490476D02*
X141311961Y-80538095D01*
X141311961Y-80538095D02*
X141407200Y-80633333D01*
X141407200Y-80633333D02*
X141454819Y-80776190D01*
X141454819Y-80776190D02*
X141454819Y-81014285D01*
X141454819Y-79490476D02*
X141454819Y-80061904D01*
X141454819Y-79776190D02*
X140454819Y-79776190D01*
X140454819Y-79776190D02*
X140597676Y-79871428D01*
X140597676Y-79871428D02*
X140692914Y-79966666D01*
X140692914Y-79966666D02*
X140740533Y-80061904D01*
X140454819Y-78871428D02*
X140454819Y-78776190D01*
X140454819Y-78776190D02*
X140502438Y-78680952D01*
X140502438Y-78680952D02*
X140550057Y-78633333D01*
X140550057Y-78633333D02*
X140645295Y-78585714D01*
X140645295Y-78585714D02*
X140835771Y-78538095D01*
X140835771Y-78538095D02*
X141073866Y-78538095D01*
X141073866Y-78538095D02*
X141264342Y-78585714D01*
X141264342Y-78585714D02*
X141359580Y-78633333D01*
X141359580Y-78633333D02*
X141407200Y-78680952D01*
X141407200Y-78680952D02*
X141454819Y-78776190D01*
X141454819Y-78776190D02*
X141454819Y-78871428D01*
X141454819Y-78871428D02*
X141407200Y-78966666D01*
X141407200Y-78966666D02*
X141359580Y-79014285D01*
X141359580Y-79014285D02*
X141264342Y-79061904D01*
X141264342Y-79061904D02*
X141073866Y-79109523D01*
X141073866Y-79109523D02*
X140835771Y-79109523D01*
X140835771Y-79109523D02*
X140645295Y-79061904D01*
X140645295Y-79061904D02*
X140550057Y-79014285D01*
X140550057Y-79014285D02*
X140502438Y-78966666D01*
X140502438Y-78966666D02*
X140454819Y-78871428D01*
X147638095Y-83254819D02*
X147638095Y-82254819D01*
X148209523Y-83254819D02*
X147780952Y-82683390D01*
X148209523Y-82254819D02*
X147638095Y-82826247D01*
X167464819Y-89371904D02*
X168274342Y-89371904D01*
X168274342Y-89371904D02*
X168369580Y-89324285D01*
X168369580Y-89324285D02*
X168417200Y-89276666D01*
X168417200Y-89276666D02*
X168464819Y-89181428D01*
X168464819Y-89181428D02*
X168464819Y-88990952D01*
X168464819Y-88990952D02*
X168417200Y-88895714D01*
X168417200Y-88895714D02*
X168369580Y-88848095D01*
X168369580Y-88848095D02*
X168274342Y-88800476D01*
X168274342Y-88800476D02*
X167464819Y-88800476D01*
X168464819Y-87800476D02*
X168464819Y-88371904D01*
X168464819Y-88086190D02*
X167464819Y-88086190D01*
X167464819Y-88086190D02*
X167607676Y-88181428D01*
X167607676Y-88181428D02*
X167702914Y-88276666D01*
X167702914Y-88276666D02*
X167750533Y-88371904D01*
X145988333Y-72354819D02*
X145655000Y-71878628D01*
X145416905Y-72354819D02*
X145416905Y-71354819D01*
X145416905Y-71354819D02*
X145797857Y-71354819D01*
X145797857Y-71354819D02*
X145893095Y-71402438D01*
X145893095Y-71402438D02*
X145940714Y-71450057D01*
X145940714Y-71450057D02*
X145988333Y-71545295D01*
X145988333Y-71545295D02*
X145988333Y-71688152D01*
X145988333Y-71688152D02*
X145940714Y-71783390D01*
X145940714Y-71783390D02*
X145893095Y-71831009D01*
X145893095Y-71831009D02*
X145797857Y-71878628D01*
X145797857Y-71878628D02*
X145416905Y-71878628D01*
X146321667Y-71354819D02*
X146940714Y-71354819D01*
X146940714Y-71354819D02*
X146607381Y-71735771D01*
X146607381Y-71735771D02*
X146750238Y-71735771D01*
X146750238Y-71735771D02*
X146845476Y-71783390D01*
X146845476Y-71783390D02*
X146893095Y-71831009D01*
X146893095Y-71831009D02*
X146940714Y-71926247D01*
X146940714Y-71926247D02*
X146940714Y-72164342D01*
X146940714Y-72164342D02*
X146893095Y-72259580D01*
X146893095Y-72259580D02*
X146845476Y-72307200D01*
X146845476Y-72307200D02*
X146750238Y-72354819D01*
X146750238Y-72354819D02*
X146464524Y-72354819D01*
X146464524Y-72354819D02*
X146369286Y-72307200D01*
X146369286Y-72307200D02*
X146321667Y-72259580D01*
X101581667Y-68424819D02*
X101581667Y-67424819D01*
X101581667Y-67424819D02*
X101915000Y-68139104D01*
X101915000Y-68139104D02*
X102248333Y-67424819D01*
X102248333Y-67424819D02*
X102248333Y-68424819D01*
X102915000Y-67424819D02*
X103105476Y-67424819D01*
X103105476Y-67424819D02*
X103200714Y-67472438D01*
X103200714Y-67472438D02*
X103295952Y-67567676D01*
X103295952Y-67567676D02*
X103343571Y-67758152D01*
X103343571Y-67758152D02*
X103343571Y-68091485D01*
X103343571Y-68091485D02*
X103295952Y-68281961D01*
X103295952Y-68281961D02*
X103200714Y-68377200D01*
X103200714Y-68377200D02*
X103105476Y-68424819D01*
X103105476Y-68424819D02*
X102915000Y-68424819D01*
X102915000Y-68424819D02*
X102819762Y-68377200D01*
X102819762Y-68377200D02*
X102724524Y-68281961D01*
X102724524Y-68281961D02*
X102676905Y-68091485D01*
X102676905Y-68091485D02*
X102676905Y-67758152D01*
X102676905Y-67758152D02*
X102724524Y-67567676D01*
X102724524Y-67567676D02*
X102819762Y-67472438D01*
X102819762Y-67472438D02*
X102915000Y-67424819D01*
X103772143Y-68424819D02*
X103772143Y-67424819D01*
X103772143Y-67424819D02*
X104010238Y-67424819D01*
X104010238Y-67424819D02*
X104153095Y-67472438D01*
X104153095Y-67472438D02*
X104248333Y-67567676D01*
X104248333Y-67567676D02*
X104295952Y-67662914D01*
X104295952Y-67662914D02*
X104343571Y-67853390D01*
X104343571Y-67853390D02*
X104343571Y-67996247D01*
X104343571Y-67996247D02*
X104295952Y-68186723D01*
X104295952Y-68186723D02*
X104248333Y-68281961D01*
X104248333Y-68281961D02*
X104153095Y-68377200D01*
X104153095Y-68377200D02*
X104010238Y-68424819D01*
X104010238Y-68424819D02*
X103772143Y-68424819D01*
X105295952Y-68424819D02*
X104724524Y-68424819D01*
X105010238Y-68424819D02*
X105010238Y-67424819D01*
X105010238Y-67424819D02*
X104915000Y-67567676D01*
X104915000Y-67567676D02*
X104819762Y-67662914D01*
X104819762Y-67662914D02*
X104724524Y-67710533D01*
D12*
X102265851Y-134711619D02*
X104170613Y-134711619D01*
X101884899Y-135854476D02*
X103218232Y-131854476D01*
X103218232Y-131854476D02*
X104551566Y-135854476D01*
X199802042Y-62564523D02*
X199611566Y-62755000D01*
X199611566Y-62755000D02*
X199040137Y-62945476D01*
X199040137Y-62945476D02*
X198659185Y-62945476D01*
X198659185Y-62945476D02*
X198087756Y-62755000D01*
X198087756Y-62755000D02*
X197706804Y-62374047D01*
X197706804Y-62374047D02*
X197516327Y-61993095D01*
X197516327Y-61993095D02*
X197325851Y-61231190D01*
X197325851Y-61231190D02*
X197325851Y-60659761D01*
X197325851Y-60659761D02*
X197516327Y-59897857D01*
X197516327Y-59897857D02*
X197706804Y-59516904D01*
X197706804Y-59516904D02*
X198087756Y-59135952D01*
X198087756Y-59135952D02*
X198659185Y-58945476D01*
X198659185Y-58945476D02*
X199040137Y-58945476D01*
X199040137Y-58945476D02*
X199611566Y-59135952D01*
X199611566Y-59135952D02*
X199802042Y-59326428D01*
X198849661Y-133569238D02*
X199421089Y-133759714D01*
X199421089Y-133759714D02*
X199611566Y-133950190D01*
X199611566Y-133950190D02*
X199802042Y-134331142D01*
X199802042Y-134331142D02*
X199802042Y-134902571D01*
X199802042Y-134902571D02*
X199611566Y-135283523D01*
X199611566Y-135283523D02*
X199421089Y-135474000D01*
X199421089Y-135474000D02*
X199040137Y-135664476D01*
X199040137Y-135664476D02*
X197516327Y-135664476D01*
X197516327Y-135664476D02*
X197516327Y-131664476D01*
X197516327Y-131664476D02*
X198849661Y-131664476D01*
X198849661Y-131664476D02*
X199230613Y-131854952D01*
X199230613Y-131854952D02*
X199421089Y-132045428D01*
X199421089Y-132045428D02*
X199611566Y-132426380D01*
X199611566Y-132426380D02*
X199611566Y-132807333D01*
X199611566Y-132807333D02*
X199421089Y-133188285D01*
X199421089Y-133188285D02*
X199230613Y-133378761D01*
X199230613Y-133378761D02*
X198849661Y-133569238D01*
X198849661Y-133569238D02*
X197516327Y-133569238D01*
X102456327Y-62854476D02*
X102456327Y-58854476D01*
X102456327Y-58854476D02*
X103408708Y-58854476D01*
X103408708Y-58854476D02*
X103980137Y-59044952D01*
X103980137Y-59044952D02*
X104361089Y-59425904D01*
X104361089Y-59425904D02*
X104551566Y-59806857D01*
X104551566Y-59806857D02*
X104742042Y-60568761D01*
X104742042Y-60568761D02*
X104742042Y-61140190D01*
X104742042Y-61140190D02*
X104551566Y-61902095D01*
X104551566Y-61902095D02*
X104361089Y-62283047D01*
X104361089Y-62283047D02*
X103980137Y-62664000D01*
X103980137Y-62664000D02*
X103408708Y-62854476D01*
X103408708Y-62854476D02*
X102456327Y-62854476D01*
D11*
X175963095Y-74504819D02*
X175963095Y-75314342D01*
X175963095Y-75314342D02*
X176010714Y-75409580D01*
X176010714Y-75409580D02*
X176058333Y-75457200D01*
X176058333Y-75457200D02*
X176153571Y-75504819D01*
X176153571Y-75504819D02*
X176344047Y-75504819D01*
X176344047Y-75504819D02*
X176439285Y-75457200D01*
X176439285Y-75457200D02*
X176486904Y-75409580D01*
X176486904Y-75409580D02*
X176534523Y-75314342D01*
X176534523Y-75314342D02*
X176534523Y-74504819D01*
X177439285Y-74838152D02*
X177439285Y-75504819D01*
X177201190Y-74457200D02*
X176963095Y-75171485D01*
X176963095Y-75171485D02*
X177582142Y-75171485D01*
X193584819Y-93196666D02*
X193108628Y-93529999D01*
X193584819Y-93768094D02*
X192584819Y-93768094D01*
X192584819Y-93768094D02*
X192584819Y-93387142D01*
X192584819Y-93387142D02*
X192632438Y-93291904D01*
X192632438Y-93291904D02*
X192680057Y-93244285D01*
X192680057Y-93244285D02*
X192775295Y-93196666D01*
X192775295Y-93196666D02*
X192918152Y-93196666D01*
X192918152Y-93196666D02*
X193013390Y-93244285D01*
X193013390Y-93244285D02*
X193061009Y-93291904D01*
X193061009Y-93291904D02*
X193108628Y-93387142D01*
X193108628Y-93387142D02*
X193108628Y-93768094D01*
X192584819Y-92863332D02*
X192584819Y-92196666D01*
X192584819Y-92196666D02*
X193584819Y-92625237D01*
X109833333Y-87859580D02*
X109785714Y-87907200D01*
X109785714Y-87907200D02*
X109642857Y-87954819D01*
X109642857Y-87954819D02*
X109547619Y-87954819D01*
X109547619Y-87954819D02*
X109404762Y-87907200D01*
X109404762Y-87907200D02*
X109309524Y-87811961D01*
X109309524Y-87811961D02*
X109261905Y-87716723D01*
X109261905Y-87716723D02*
X109214286Y-87526247D01*
X109214286Y-87526247D02*
X109214286Y-87383390D01*
X109214286Y-87383390D02*
X109261905Y-87192914D01*
X109261905Y-87192914D02*
X109309524Y-87097676D01*
X109309524Y-87097676D02*
X109404762Y-87002438D01*
X109404762Y-87002438D02*
X109547619Y-86954819D01*
X109547619Y-86954819D02*
X109642857Y-86954819D01*
X109642857Y-86954819D02*
X109785714Y-87002438D01*
X109785714Y-87002438D02*
X109833333Y-87050057D01*
X110214286Y-87050057D02*
X110261905Y-87002438D01*
X110261905Y-87002438D02*
X110357143Y-86954819D01*
X110357143Y-86954819D02*
X110595238Y-86954819D01*
X110595238Y-86954819D02*
X110690476Y-87002438D01*
X110690476Y-87002438D02*
X110738095Y-87050057D01*
X110738095Y-87050057D02*
X110785714Y-87145295D01*
X110785714Y-87145295D02*
X110785714Y-87240533D01*
X110785714Y-87240533D02*
X110738095Y-87383390D01*
X110738095Y-87383390D02*
X110166667Y-87954819D01*
X110166667Y-87954819D02*
X110785714Y-87954819D01*
X103733333Y-82659580D02*
X103685714Y-82707200D01*
X103685714Y-82707200D02*
X103542857Y-82754819D01*
X103542857Y-82754819D02*
X103447619Y-82754819D01*
X103447619Y-82754819D02*
X103304762Y-82707200D01*
X103304762Y-82707200D02*
X103209524Y-82611961D01*
X103209524Y-82611961D02*
X103161905Y-82516723D01*
X103161905Y-82516723D02*
X103114286Y-82326247D01*
X103114286Y-82326247D02*
X103114286Y-82183390D01*
X103114286Y-82183390D02*
X103161905Y-81992914D01*
X103161905Y-81992914D02*
X103209524Y-81897676D01*
X103209524Y-81897676D02*
X103304762Y-81802438D01*
X103304762Y-81802438D02*
X103447619Y-81754819D01*
X103447619Y-81754819D02*
X103542857Y-81754819D01*
X103542857Y-81754819D02*
X103685714Y-81802438D01*
X103685714Y-81802438D02*
X103733333Y-81850057D01*
X104638095Y-81754819D02*
X104161905Y-81754819D01*
X104161905Y-81754819D02*
X104114286Y-82231009D01*
X104114286Y-82231009D02*
X104161905Y-82183390D01*
X104161905Y-82183390D02*
X104257143Y-82135771D01*
X104257143Y-82135771D02*
X104495238Y-82135771D01*
X104495238Y-82135771D02*
X104590476Y-82183390D01*
X104590476Y-82183390D02*
X104638095Y-82231009D01*
X104638095Y-82231009D02*
X104685714Y-82326247D01*
X104685714Y-82326247D02*
X104685714Y-82564342D01*
X104685714Y-82564342D02*
X104638095Y-82659580D01*
X104638095Y-82659580D02*
X104590476Y-82707200D01*
X104590476Y-82707200D02*
X104495238Y-82754819D01*
X104495238Y-82754819D02*
X104257143Y-82754819D01*
X104257143Y-82754819D02*
X104161905Y-82707200D01*
X104161905Y-82707200D02*
X104114286Y-82659580D01*
X119581095Y-71102319D02*
X119581095Y-71911842D01*
X119581095Y-71911842D02*
X119628714Y-72007080D01*
X119628714Y-72007080D02*
X119676333Y-72054700D01*
X119676333Y-72054700D02*
X119771571Y-72102319D01*
X119771571Y-72102319D02*
X119962047Y-72102319D01*
X119962047Y-72102319D02*
X120057285Y-72054700D01*
X120057285Y-72054700D02*
X120104904Y-72007080D01*
X120104904Y-72007080D02*
X120152523Y-71911842D01*
X120152523Y-71911842D02*
X120152523Y-71102319D01*
X120533476Y-71102319D02*
X121152523Y-71102319D01*
X121152523Y-71102319D02*
X120819190Y-71483271D01*
X120819190Y-71483271D02*
X120962047Y-71483271D01*
X120962047Y-71483271D02*
X121057285Y-71530890D01*
X121057285Y-71530890D02*
X121104904Y-71578509D01*
X121104904Y-71578509D02*
X121152523Y-71673747D01*
X121152523Y-71673747D02*
X121152523Y-71911842D01*
X121152523Y-71911842D02*
X121104904Y-72007080D01*
X121104904Y-72007080D02*
X121057285Y-72054700D01*
X121057285Y-72054700D02*
X120962047Y-72102319D01*
X120962047Y-72102319D02*
X120676333Y-72102319D01*
X120676333Y-72102319D02*
X120581095Y-72054700D01*
X120581095Y-72054700D02*
X120533476Y-72007080D01*
X153861905Y-103654819D02*
X153861905Y-102654819D01*
X154433333Y-103654819D02*
X154004762Y-103083390D01*
X154433333Y-102654819D02*
X153861905Y-103226247D01*
X154766667Y-102654819D02*
X155385714Y-102654819D01*
X155385714Y-102654819D02*
X155052381Y-103035771D01*
X155052381Y-103035771D02*
X155195238Y-103035771D01*
X155195238Y-103035771D02*
X155290476Y-103083390D01*
X155290476Y-103083390D02*
X155338095Y-103131009D01*
X155338095Y-103131009D02*
X155385714Y-103226247D01*
X155385714Y-103226247D02*
X155385714Y-103464342D01*
X155385714Y-103464342D02*
X155338095Y-103559580D01*
X155338095Y-103559580D02*
X155290476Y-103607200D01*
X155290476Y-103607200D02*
X155195238Y-103654819D01*
X155195238Y-103654819D02*
X154909524Y-103654819D01*
X154909524Y-103654819D02*
X154814286Y-103607200D01*
X154814286Y-103607200D02*
X154766667Y-103559580D01*
X190204819Y-70142857D02*
X189728628Y-70476190D01*
X190204819Y-70714285D02*
X189204819Y-70714285D01*
X189204819Y-70714285D02*
X189204819Y-70333333D01*
X189204819Y-70333333D02*
X189252438Y-70238095D01*
X189252438Y-70238095D02*
X189300057Y-70190476D01*
X189300057Y-70190476D02*
X189395295Y-70142857D01*
X189395295Y-70142857D02*
X189538152Y-70142857D01*
X189538152Y-70142857D02*
X189633390Y-70190476D01*
X189633390Y-70190476D02*
X189681009Y-70238095D01*
X189681009Y-70238095D02*
X189728628Y-70333333D01*
X189728628Y-70333333D02*
X189728628Y-70714285D01*
X190204819Y-69190476D02*
X190204819Y-69761904D01*
X190204819Y-69476190D02*
X189204819Y-69476190D01*
X189204819Y-69476190D02*
X189347676Y-69571428D01*
X189347676Y-69571428D02*
X189442914Y-69666666D01*
X189442914Y-69666666D02*
X189490533Y-69761904D01*
X190204819Y-68238095D02*
X190204819Y-68809523D01*
X190204819Y-68523809D02*
X189204819Y-68523809D01*
X189204819Y-68523809D02*
X189347676Y-68619047D01*
X189347676Y-68619047D02*
X189442914Y-68714285D01*
X189442914Y-68714285D02*
X189490533Y-68809523D01*
X150854819Y-80438094D02*
X149854819Y-80438094D01*
X149854819Y-80438094D02*
X149854819Y-80199999D01*
X149854819Y-80199999D02*
X149902438Y-80057142D01*
X149902438Y-80057142D02*
X149997676Y-79961904D01*
X149997676Y-79961904D02*
X150092914Y-79914285D01*
X150092914Y-79914285D02*
X150283390Y-79866666D01*
X150283390Y-79866666D02*
X150426247Y-79866666D01*
X150426247Y-79866666D02*
X150616723Y-79914285D01*
X150616723Y-79914285D02*
X150711961Y-79961904D01*
X150711961Y-79961904D02*
X150807200Y-80057142D01*
X150807200Y-80057142D02*
X150854819Y-80199999D01*
X150854819Y-80199999D02*
X150854819Y-80438094D01*
X149854819Y-79009523D02*
X149854819Y-79199999D01*
X149854819Y-79199999D02*
X149902438Y-79295237D01*
X149902438Y-79295237D02*
X149950057Y-79342856D01*
X149950057Y-79342856D02*
X150092914Y-79438094D01*
X150092914Y-79438094D02*
X150283390Y-79485713D01*
X150283390Y-79485713D02*
X150664342Y-79485713D01*
X150664342Y-79485713D02*
X150759580Y-79438094D01*
X150759580Y-79438094D02*
X150807200Y-79390475D01*
X150807200Y-79390475D02*
X150854819Y-79295237D01*
X150854819Y-79295237D02*
X150854819Y-79104761D01*
X150854819Y-79104761D02*
X150807200Y-79009523D01*
X150807200Y-79009523D02*
X150759580Y-78961904D01*
X150759580Y-78961904D02*
X150664342Y-78914285D01*
X150664342Y-78914285D02*
X150426247Y-78914285D01*
X150426247Y-78914285D02*
X150331009Y-78961904D01*
X150331009Y-78961904D02*
X150283390Y-79009523D01*
X150283390Y-79009523D02*
X150235771Y-79104761D01*
X150235771Y-79104761D02*
X150235771Y-79295237D01*
X150235771Y-79295237D02*
X150283390Y-79390475D01*
X150283390Y-79390475D02*
X150331009Y-79438094D01*
X150331009Y-79438094D02*
X150426247Y-79485713D01*
X158838095Y-81754819D02*
X158838095Y-80754819D01*
X159409523Y-81754819D02*
X158980952Y-81183390D01*
X159409523Y-80754819D02*
X158838095Y-81326247D01*
X187834819Y-93196666D02*
X187358628Y-93529999D01*
X187834819Y-93768094D02*
X186834819Y-93768094D01*
X186834819Y-93768094D02*
X186834819Y-93387142D01*
X186834819Y-93387142D02*
X186882438Y-93291904D01*
X186882438Y-93291904D02*
X186930057Y-93244285D01*
X186930057Y-93244285D02*
X187025295Y-93196666D01*
X187025295Y-93196666D02*
X187168152Y-93196666D01*
X187168152Y-93196666D02*
X187263390Y-93244285D01*
X187263390Y-93244285D02*
X187311009Y-93291904D01*
X187311009Y-93291904D02*
X187358628Y-93387142D01*
X187358628Y-93387142D02*
X187358628Y-93768094D01*
X186834819Y-92291904D02*
X186834819Y-92768094D01*
X186834819Y-92768094D02*
X187311009Y-92815713D01*
X187311009Y-92815713D02*
X187263390Y-92768094D01*
X187263390Y-92768094D02*
X187215771Y-92672856D01*
X187215771Y-92672856D02*
X187215771Y-92434761D01*
X187215771Y-92434761D02*
X187263390Y-92339523D01*
X187263390Y-92339523D02*
X187311009Y-92291904D01*
X187311009Y-92291904D02*
X187406247Y-92244285D01*
X187406247Y-92244285D02*
X187644342Y-92244285D01*
X187644342Y-92244285D02*
X187739580Y-92291904D01*
X187739580Y-92291904D02*
X187787200Y-92339523D01*
X187787200Y-92339523D02*
X187834819Y-92434761D01*
X187834819Y-92434761D02*
X187834819Y-92672856D01*
X187834819Y-92672856D02*
X187787200Y-92768094D01*
X187787200Y-92768094D02*
X187739580Y-92815713D01*
X124433333Y-68059580D02*
X124385714Y-68107200D01*
X124385714Y-68107200D02*
X124242857Y-68154819D01*
X124242857Y-68154819D02*
X124147619Y-68154819D01*
X124147619Y-68154819D02*
X124004762Y-68107200D01*
X124004762Y-68107200D02*
X123909524Y-68011961D01*
X123909524Y-68011961D02*
X123861905Y-67916723D01*
X123861905Y-67916723D02*
X123814286Y-67726247D01*
X123814286Y-67726247D02*
X123814286Y-67583390D01*
X123814286Y-67583390D02*
X123861905Y-67392914D01*
X123861905Y-67392914D02*
X123909524Y-67297676D01*
X123909524Y-67297676D02*
X124004762Y-67202438D01*
X124004762Y-67202438D02*
X124147619Y-67154819D01*
X124147619Y-67154819D02*
X124242857Y-67154819D01*
X124242857Y-67154819D02*
X124385714Y-67202438D01*
X124385714Y-67202438D02*
X124433333Y-67250057D01*
X125385714Y-68154819D02*
X124814286Y-68154819D01*
X125100000Y-68154819D02*
X125100000Y-67154819D01*
X125100000Y-67154819D02*
X125004762Y-67297676D01*
X125004762Y-67297676D02*
X124909524Y-67392914D01*
X124909524Y-67392914D02*
X124814286Y-67440533D01*
X170833333Y-90109580D02*
X170785714Y-90157200D01*
X170785714Y-90157200D02*
X170642857Y-90204819D01*
X170642857Y-90204819D02*
X170547619Y-90204819D01*
X170547619Y-90204819D02*
X170404762Y-90157200D01*
X170404762Y-90157200D02*
X170309524Y-90061961D01*
X170309524Y-90061961D02*
X170261905Y-89966723D01*
X170261905Y-89966723D02*
X170214286Y-89776247D01*
X170214286Y-89776247D02*
X170214286Y-89633390D01*
X170214286Y-89633390D02*
X170261905Y-89442914D01*
X170261905Y-89442914D02*
X170309524Y-89347676D01*
X170309524Y-89347676D02*
X170404762Y-89252438D01*
X170404762Y-89252438D02*
X170547619Y-89204819D01*
X170547619Y-89204819D02*
X170642857Y-89204819D01*
X170642857Y-89204819D02*
X170785714Y-89252438D01*
X170785714Y-89252438D02*
X170833333Y-89300057D01*
X171166667Y-89204819D02*
X171785714Y-89204819D01*
X171785714Y-89204819D02*
X171452381Y-89585771D01*
X171452381Y-89585771D02*
X171595238Y-89585771D01*
X171595238Y-89585771D02*
X171690476Y-89633390D01*
X171690476Y-89633390D02*
X171738095Y-89681009D01*
X171738095Y-89681009D02*
X171785714Y-89776247D01*
X171785714Y-89776247D02*
X171785714Y-90014342D01*
X171785714Y-90014342D02*
X171738095Y-90109580D01*
X171738095Y-90109580D02*
X171690476Y-90157200D01*
X171690476Y-90157200D02*
X171595238Y-90204819D01*
X171595238Y-90204819D02*
X171309524Y-90204819D01*
X171309524Y-90204819D02*
X171214286Y-90157200D01*
X171214286Y-90157200D02*
X171166667Y-90109580D01*
D13*
%TO.C,C4*%
X126670000Y-77322651D02*
X134830000Y-77322651D01*
X126670000Y-77362651D02*
X134830000Y-77362651D01*
X126670000Y-77402651D02*
X134830000Y-77402651D01*
X126671000Y-77282651D02*
X134829000Y-77282651D01*
X126673000Y-77242651D02*
X134827000Y-77242651D01*
X126674000Y-77202651D02*
X134826000Y-77202651D01*
X126676000Y-77162651D02*
X134824000Y-77162651D01*
X126679000Y-77122651D02*
X134821000Y-77122651D01*
X126682000Y-77082651D02*
X134818000Y-77082651D01*
X126685000Y-77042651D02*
X134815000Y-77042651D01*
X126689000Y-77002651D02*
X134811000Y-77002651D01*
X126693000Y-76962651D02*
X134807000Y-76962651D01*
X126698000Y-76922651D02*
X134802000Y-76922651D01*
X126702000Y-76882651D02*
X134798000Y-76882651D01*
X126708000Y-76842651D02*
X134792000Y-76842651D01*
X126713000Y-76802651D02*
X134787000Y-76802651D01*
X126720000Y-76762651D02*
X134780000Y-76762651D01*
X126726000Y-76722651D02*
X134774000Y-76722651D01*
X126733000Y-76681651D02*
X129710000Y-76681651D01*
X126740000Y-76641651D02*
X129710000Y-76641651D01*
X126748000Y-76601651D02*
X129710000Y-76601651D01*
X126756000Y-76561651D02*
X129710000Y-76561651D01*
X126765000Y-76521651D02*
X129710000Y-76521651D01*
X126774000Y-76481651D02*
X129710000Y-76481651D01*
X126783000Y-76441651D02*
X129710000Y-76441651D01*
X126793000Y-76401651D02*
X129710000Y-76401651D01*
X126803000Y-76361651D02*
X129710000Y-76361651D01*
X126814000Y-76321651D02*
X129710000Y-76321651D01*
X126825000Y-76281651D02*
X129710000Y-76281651D01*
X126836000Y-76241651D02*
X129710000Y-76241651D01*
X126848000Y-76201651D02*
X129710000Y-76201651D01*
X126861000Y-76161651D02*
X129710000Y-76161651D01*
X126873000Y-76121651D02*
X129710000Y-76121651D01*
X126887000Y-76081651D02*
X129710000Y-76081651D01*
X126900000Y-76041651D02*
X129710000Y-76041651D01*
X126915000Y-76001651D02*
X129710000Y-76001651D01*
X126929000Y-75961651D02*
X129710000Y-75961651D01*
X126945000Y-75921651D02*
X129710000Y-75921651D01*
X126960000Y-75881651D02*
X129710000Y-75881651D01*
X126976000Y-75841651D02*
X129710000Y-75841651D01*
X126993000Y-75801651D02*
X129710000Y-75801651D01*
X127010000Y-75761651D02*
X129710000Y-75761651D01*
X127028000Y-75721651D02*
X129710000Y-75721651D01*
X127046000Y-75681651D02*
X129710000Y-75681651D01*
X127064000Y-75641651D02*
X129710000Y-75641651D01*
X127084000Y-75601651D02*
X129710000Y-75601651D01*
X127103000Y-75561651D02*
X129710000Y-75561651D01*
X127123000Y-75521651D02*
X129710000Y-75521651D01*
X127144000Y-75481651D02*
X129710000Y-75481651D01*
X127166000Y-75441651D02*
X129710000Y-75441651D01*
X127188000Y-75401651D02*
X129710000Y-75401651D01*
X127210000Y-75361651D02*
X129710000Y-75361651D01*
X127233000Y-75321651D02*
X129710000Y-75321651D01*
X127257000Y-75281651D02*
X129710000Y-75281651D01*
X127281000Y-75241651D02*
X129710000Y-75241651D01*
X127306000Y-75201651D02*
X129710000Y-75201651D01*
X127332000Y-75161651D02*
X129710000Y-75161651D01*
X127358000Y-75121651D02*
X129710000Y-75121651D01*
X127385000Y-75081651D02*
X129710000Y-75081651D01*
X127412000Y-75041651D02*
X129710000Y-75041651D01*
X127441000Y-75001651D02*
X129710000Y-75001651D01*
X127470000Y-74961651D02*
X129710000Y-74961651D01*
X127500000Y-74921651D02*
X129710000Y-74921651D01*
X127530000Y-74881651D02*
X129710000Y-74881651D01*
X127561000Y-74841651D02*
X129710000Y-74841651D01*
X127594000Y-74801651D02*
X129710000Y-74801651D01*
X127626000Y-74761651D02*
X129710000Y-74761651D01*
X127660000Y-74721651D02*
X129710000Y-74721651D01*
X127695000Y-74681651D02*
X129710000Y-74681651D01*
X127731000Y-74641651D02*
X129710000Y-74641651D01*
X127767000Y-74601651D02*
X133733000Y-74601651D01*
X127805000Y-74561651D02*
X133695000Y-74561651D01*
X127843000Y-74521651D02*
X133657000Y-74521651D01*
X127883000Y-74481651D02*
X133617000Y-74481651D01*
X127924000Y-74441651D02*
X133576000Y-74441651D01*
X127966000Y-74401651D02*
X133534000Y-74401651D01*
X128009000Y-74361651D02*
X133491000Y-74361651D01*
X128035000Y-81412349D02*
X128835000Y-81412349D01*
X128053000Y-74321651D02*
X133447000Y-74321651D01*
X128099000Y-74281651D02*
X133401000Y-74281651D01*
X128146000Y-74241651D02*
X133354000Y-74241651D01*
X128194000Y-74201651D02*
X133306000Y-74201651D01*
X128245000Y-74161651D02*
X133255000Y-74161651D01*
X128296000Y-74121651D02*
X133204000Y-74121651D01*
X128350000Y-74081651D02*
X133150000Y-74081651D01*
X128405000Y-74041651D02*
X133095000Y-74041651D01*
X128435000Y-81812349D02*
X128435000Y-81012349D01*
X128463000Y-74001651D02*
X133037000Y-74001651D01*
X128522000Y-73961651D02*
X132978000Y-73961651D01*
X128584000Y-73921651D02*
X132916000Y-73921651D01*
X128648000Y-73881651D02*
X132852000Y-73881651D01*
X128716000Y-73841651D02*
X132784000Y-73841651D01*
X128786000Y-73801651D02*
X132714000Y-73801651D01*
X128860000Y-73761651D02*
X132640000Y-73761651D01*
X128937000Y-73721651D02*
X132563000Y-73721651D01*
X129019000Y-73681651D02*
X132481000Y-73681651D01*
X129105000Y-73641651D02*
X132395000Y-73641651D01*
X129198000Y-73601651D02*
X132302000Y-73601651D01*
X129297000Y-73561651D02*
X132203000Y-73561651D01*
X129404000Y-73521651D02*
X132096000Y-73521651D01*
X129521000Y-73481651D02*
X131979000Y-73481651D01*
X129652000Y-73441651D02*
X131848000Y-73441651D01*
X129802000Y-73401651D02*
X131698000Y-73401651D01*
X129982000Y-73361651D02*
X131518000Y-73361651D01*
X130217000Y-73321651D02*
X131283000Y-73321651D01*
X131790000Y-74641651D02*
X133769000Y-74641651D01*
X131790000Y-74681651D02*
X133805000Y-74681651D01*
X131790000Y-74721651D02*
X133840000Y-74721651D01*
X131790000Y-74761651D02*
X133874000Y-74761651D01*
X131790000Y-74801651D02*
X133906000Y-74801651D01*
X131790000Y-74841651D02*
X133939000Y-74841651D01*
X131790000Y-74881651D02*
X133970000Y-74881651D01*
X131790000Y-74921651D02*
X134000000Y-74921651D01*
X131790000Y-74961651D02*
X134030000Y-74961651D01*
X131790000Y-75001651D02*
X134059000Y-75001651D01*
X131790000Y-75041651D02*
X134088000Y-75041651D01*
X131790000Y-75081651D02*
X134115000Y-75081651D01*
X131790000Y-75121651D02*
X134142000Y-75121651D01*
X131790000Y-75161651D02*
X134168000Y-75161651D01*
X131790000Y-75201651D02*
X134194000Y-75201651D01*
X131790000Y-75241651D02*
X134219000Y-75241651D01*
X131790000Y-75281651D02*
X134243000Y-75281651D01*
X131790000Y-75321651D02*
X134267000Y-75321651D01*
X131790000Y-75361651D02*
X134290000Y-75361651D01*
X131790000Y-75401651D02*
X134312000Y-75401651D01*
X131790000Y-75441651D02*
X134334000Y-75441651D01*
X131790000Y-75481651D02*
X134356000Y-75481651D01*
X131790000Y-75521651D02*
X134377000Y-75521651D01*
X131790000Y-75561651D02*
X134397000Y-75561651D01*
X131790000Y-75601651D02*
X134416000Y-75601651D01*
X131790000Y-75641651D02*
X134436000Y-75641651D01*
X131790000Y-75681651D02*
X134454000Y-75681651D01*
X131790000Y-75721651D02*
X134472000Y-75721651D01*
X131790000Y-75761651D02*
X134490000Y-75761651D01*
X131790000Y-75801651D02*
X134507000Y-75801651D01*
X131790000Y-75841651D02*
X134524000Y-75841651D01*
X131790000Y-75881651D02*
X134540000Y-75881651D01*
X131790000Y-75921651D02*
X134555000Y-75921651D01*
X131790000Y-75961651D02*
X134571000Y-75961651D01*
X131790000Y-76001651D02*
X134585000Y-76001651D01*
X131790000Y-76041651D02*
X134600000Y-76041651D01*
X131790000Y-76081651D02*
X134613000Y-76081651D01*
X131790000Y-76121651D02*
X134627000Y-76121651D01*
X131790000Y-76161651D02*
X134639000Y-76161651D01*
X131790000Y-76201651D02*
X134652000Y-76201651D01*
X131790000Y-76241651D02*
X134664000Y-76241651D01*
X131790000Y-76281651D02*
X134675000Y-76281651D01*
X131790000Y-76321651D02*
X134686000Y-76321651D01*
X131790000Y-76361651D02*
X134697000Y-76361651D01*
X131790000Y-76401651D02*
X134707000Y-76401651D01*
X131790000Y-76441651D02*
X134717000Y-76441651D01*
X131790000Y-76481651D02*
X134726000Y-76481651D01*
X131790000Y-76521651D02*
X134735000Y-76521651D01*
X131790000Y-76561651D02*
X134744000Y-76561651D01*
X131790000Y-76601651D02*
X134752000Y-76601651D01*
X131790000Y-76641651D02*
X134760000Y-76641651D01*
X131790000Y-76681651D02*
X134767000Y-76681651D01*
X134870000Y-77402651D02*
G75*
G02*
X126630000Y-77402651I-4120000J0D01*
G01*
X126630000Y-77402651D02*
G75*
G02*
X134870000Y-77402651I4120000J0D01*
G01*
%TO.C,J1*%
X129595000Y-70745000D02*
X129595000Y-69415000D01*
X130925000Y-70745000D02*
X129595000Y-70745000D01*
X132195000Y-68085000D02*
X142415000Y-68085000D01*
X132195000Y-70745000D02*
X132195000Y-68085000D01*
X132195000Y-70745000D02*
X142415000Y-70745000D01*
X142415000Y-70745000D02*
X142415000Y-68085000D01*
%TO.C,U7*%
X191655000Y-78360000D02*
X191655000Y-83660000D01*
X191655000Y-83660000D02*
X196855000Y-83660000D01*
X196855000Y-78360000D02*
X191655000Y-78360000D01*
X196855000Y-80010000D02*
X196855000Y-78360000D01*
X196855000Y-83660000D02*
X196855000Y-82010000D01*
X196855000Y-82010000D02*
G75*
G02*
X196855000Y-80010000I0J1000000D01*
G01*
%TO.C,R6*%
X184000000Y-92930000D02*
X184000000Y-92860000D01*
X185370000Y-94300000D02*
G75*
G02*
X182630000Y-94300000I-1370000J0D01*
G01*
X182630000Y-94300000D02*
G75*
G02*
X185370000Y-94300000I1370000J0D01*
G01*
%TO.C,K2*%
X128950000Y-100600000D02*
X128950000Y-123300000D01*
X128950000Y-123300000D02*
X145650000Y-123300000D01*
X132800000Y-105450000D02*
X135950000Y-105450000D01*
X136300000Y-100340000D02*
X138300000Y-100340000D01*
X136950000Y-104850000D02*
X136950000Y-106050000D01*
X136950000Y-105650000D02*
X137650000Y-105250000D01*
X136950000Y-106050000D02*
X137650000Y-106050000D01*
X137650000Y-104850000D02*
X136950000Y-104850000D01*
X137650000Y-106050000D02*
X137650000Y-104850000D01*
X138650000Y-105450000D02*
X141800000Y-105450000D01*
X145650000Y-100600000D02*
X128950000Y-100600000D01*
X145650000Y-123300000D02*
X145650000Y-100600000D01*
%TO.C,R2*%
X155125000Y-69200000D02*
X155195000Y-69200000D01*
X155125000Y-69200000D02*
G75*
G02*
X152385000Y-69200000I-1370000J0D01*
G01*
X152385000Y-69200000D02*
G75*
G02*
X155125000Y-69200000I1370000J0D01*
G01*
%TO.C,D9*%
X145285000Y-75500000D02*
X144895000Y-75500000D01*
X149125000Y-75500000D02*
G75*
G02*
X145285000Y-75500000I-1920000J0D01*
G01*
X145285000Y-75500000D02*
G75*
G02*
X149125000Y-75500000I1920000J0D01*
G01*
%TO.C,U2*%
X115890000Y-86360000D02*
X115890000Y-90860000D01*
X115890000Y-90860000D02*
X136330000Y-90860000D01*
X136330000Y-86360000D02*
X115890000Y-86360000D01*
X136330000Y-87610000D02*
X136330000Y-86360000D01*
X136330000Y-90860000D02*
X136330000Y-89610000D01*
X136330000Y-89610000D02*
G75*
G02*
X136330000Y-87610000I0J1000000D01*
G01*
%TO.C,R9*%
X187500000Y-69425000D02*
X187500000Y-69355000D01*
X188870000Y-70795000D02*
G75*
G02*
X186130000Y-70795000I-1370000J0D01*
G01*
X186130000Y-70795000D02*
G75*
G02*
X188870000Y-70795000I1370000J0D01*
G01*
%TO.C,K4*%
X175500000Y-100600000D02*
X175500000Y-123300000D01*
X175500000Y-123300000D02*
X192200000Y-123300000D01*
X179350000Y-105450000D02*
X182500000Y-105450000D01*
X182850000Y-100340000D02*
X184850000Y-100340000D01*
X183500000Y-104850000D02*
X183500000Y-106050000D01*
X183500000Y-105650000D02*
X184200000Y-105250000D01*
X183500000Y-106050000D02*
X184200000Y-106050000D01*
X184200000Y-104850000D02*
X183500000Y-104850000D01*
X184200000Y-106050000D02*
X184200000Y-104850000D01*
X185200000Y-105450000D02*
X188350000Y-105450000D01*
X192200000Y-100600000D02*
X175500000Y-100600000D01*
X192200000Y-123300000D02*
X192200000Y-100600000D01*
%TO.C,R8*%
X182750000Y-69425000D02*
X182750000Y-69355000D01*
X184120000Y-70795000D02*
G75*
G02*
X181380000Y-70795000I-1370000J0D01*
G01*
X181380000Y-70795000D02*
G75*
G02*
X184120000Y-70795000I1370000J0D01*
G01*
%TO.C,U6*%
X185905000Y-78360000D02*
X185905000Y-83660000D01*
X185905000Y-83660000D02*
X191105000Y-83660000D01*
X191105000Y-78360000D02*
X185905000Y-78360000D01*
X191105000Y-80010000D02*
X191105000Y-78360000D01*
X191105000Y-83660000D02*
X191105000Y-82010000D01*
X191105000Y-82010000D02*
G75*
G02*
X191105000Y-80010000I0J1000000D01*
G01*
%TO.C,R1*%
X162625000Y-69300000D02*
X162695000Y-69300000D01*
X162625000Y-69300000D02*
G75*
G02*
X159885000Y-69300000I-1370000J0D01*
G01*
X159885000Y-69300000D02*
G75*
G02*
X162625000Y-69300000I1370000J0D01*
G01*
%TO.C,R4*%
X178250000Y-92925000D02*
X178250000Y-92855000D01*
X179620000Y-94295000D02*
G75*
G02*
X176880000Y-94295000I-1370000J0D01*
G01*
X176880000Y-94295000D02*
G75*
G02*
X179620000Y-94295000I1370000J0D01*
G01*
%TO.C,D5*%
X154485000Y-75600000D02*
X154095000Y-75600000D01*
X158325000Y-75600000D02*
G75*
G02*
X154485000Y-75600000I-1920000J0D01*
G01*
X154485000Y-75600000D02*
G75*
G02*
X158325000Y-75600000I1920000J0D01*
G01*
%TO.C,R10*%
X178000000Y-69175000D02*
X178000000Y-69105000D01*
X179370000Y-70545000D02*
G75*
G02*
X176630000Y-70545000I-1370000J0D01*
G01*
X176630000Y-70545000D02*
G75*
G02*
X179370000Y-70545000I1370000J0D01*
G01*
%TO.C,K1*%
X110050000Y-100600000D02*
X110050000Y-123300000D01*
X110050000Y-123300000D02*
X126750000Y-123300000D01*
X113900000Y-105450000D02*
X117050000Y-105450000D01*
X117400000Y-100340000D02*
X119400000Y-100340000D01*
X118050000Y-104850000D02*
X118050000Y-106050000D01*
X118050000Y-105650000D02*
X118750000Y-105250000D01*
X118050000Y-106050000D02*
X118750000Y-106050000D01*
X118750000Y-104850000D02*
X118050000Y-104850000D01*
X118750000Y-106050000D02*
X118750000Y-104850000D01*
X119750000Y-105450000D02*
X122900000Y-105450000D01*
X126750000Y-100600000D02*
X110050000Y-100600000D01*
X126750000Y-123300000D02*
X126750000Y-100600000D01*
%TO.C,D7*%
X162485000Y-73400000D02*
X162095000Y-73400000D01*
X166325000Y-73400000D02*
G75*
G02*
X162485000Y-73400000I-1920000J0D01*
G01*
X162485000Y-73400000D02*
G75*
G02*
X166325000Y-73400000I1920000J0D01*
G01*
%TO.C,D8*%
X163015000Y-77800000D02*
X163405000Y-77800000D01*
X163015000Y-77800000D02*
G75*
G02*
X159175000Y-77800000I-1920000J0D01*
G01*
X159175000Y-77800000D02*
G75*
G02*
X163015000Y-77800000I1920000J0D01*
G01*
%TO.C,U5*%
X180130000Y-78410000D02*
X180130000Y-83710000D01*
X180130000Y-83710000D02*
X185330000Y-83710000D01*
X185330000Y-78410000D02*
X180130000Y-78410000D01*
X185330000Y-80060000D02*
X185330000Y-78410000D01*
X185330000Y-83710000D02*
X185330000Y-82060000D01*
X185330000Y-82060000D02*
G75*
G02*
X185330000Y-80060000I0J1000000D01*
G01*
%TO.C,D10*%
X145915000Y-79800000D02*
X146305000Y-79800000D01*
X145915000Y-79800000D02*
G75*
G02*
X142075000Y-79800000I-1920000J0D01*
G01*
X142075000Y-79800000D02*
G75*
G02*
X145915000Y-79800000I1920000J0D01*
G01*
%TO.C,U1*%
X144030000Y-86360000D02*
X144030000Y-90860000D01*
X144030000Y-90860000D02*
X167010000Y-90860000D01*
X167010000Y-86360000D02*
X144030000Y-86360000D01*
X167010000Y-87610000D02*
X167010000Y-86360000D01*
X167010000Y-90860000D02*
X167010000Y-89610000D01*
X167010000Y-89610000D02*
G75*
G02*
X167010000Y-87610000I0J1000000D01*
G01*
%TO.C,R3*%
X146030000Y-69400000D02*
X146100000Y-69400000D01*
X146030000Y-69400000D02*
G75*
G02*
X143290000Y-69400000I-1370000J0D01*
G01*
X143290000Y-69400000D02*
G75*
G02*
X146030000Y-69400000I1370000J0D01*
G01*
%TO.C,MOD1*%
X105175000Y-65370000D02*
X102175000Y-65370000D01*
X105175000Y-129370000D02*
X102175000Y-129370000D01*
X105875000Y-137740000D02*
X105875000Y-138480000D01*
X105875000Y-138480000D02*
X106375000Y-138480000D01*
X106115000Y-66421000D02*
X106115000Y-56500000D01*
X106115000Y-128319000D02*
X106115000Y-138240000D01*
X106115000Y-128319000D02*
X146235000Y-128319000D01*
X106115000Y-131279000D02*
X146235000Y-131279000D01*
X106115000Y-136180000D02*
X146235000Y-136180000D01*
X106115000Y-137680000D02*
X146235000Y-137680000D01*
X106115000Y-138240000D02*
X146235000Y-138240000D01*
X107400000Y-62229000D02*
X107447000Y-62183000D01*
X107605000Y-62435000D02*
X107640000Y-62399000D01*
X109709000Y-59921000D02*
X109744000Y-59886000D01*
X109902000Y-60137000D02*
X109949000Y-60091000D01*
X112400000Y-62229000D02*
X112447000Y-62183000D01*
X112448000Y-134603000D02*
X112401000Y-134649000D01*
X112605000Y-62435000D02*
X112640000Y-62399000D01*
X112641000Y-134819000D02*
X112606000Y-134854000D01*
X114709000Y-59921000D02*
X114744000Y-59886000D01*
X114745000Y-132305000D02*
X114710000Y-132341000D01*
X114902000Y-60137000D02*
X114949000Y-60091000D01*
X114950000Y-132511000D02*
X114903000Y-132557000D01*
X117400000Y-62229000D02*
X117447000Y-62183000D01*
X117448000Y-134603000D02*
X117401000Y-134649000D01*
X117605000Y-62435000D02*
X117640000Y-62399000D01*
X117641000Y-134819000D02*
X117606000Y-134854000D01*
X119709000Y-59921000D02*
X119744000Y-59886000D01*
X119745000Y-132305000D02*
X119710000Y-132341000D01*
X119902000Y-60137000D02*
X119949000Y-60091000D01*
X119950000Y-132511000D02*
X119903000Y-132557000D01*
X122400000Y-62229000D02*
X122447000Y-62183000D01*
X122448000Y-134603000D02*
X122401000Y-134649000D01*
X122605000Y-62435000D02*
X122640000Y-62399000D01*
X122641000Y-134819000D02*
X122606000Y-134854000D01*
X124709000Y-59921000D02*
X124744000Y-59886000D01*
X124745000Y-132305000D02*
X124710000Y-132341000D01*
X124902000Y-60137000D02*
X124949000Y-60091000D01*
X124950000Y-132511000D02*
X124903000Y-132557000D01*
X127400000Y-62229000D02*
X127447000Y-62183000D01*
X127448000Y-134603000D02*
X127401000Y-134649000D01*
X127605000Y-62435000D02*
X127640000Y-62399000D01*
X127641000Y-134819000D02*
X127606000Y-134854000D01*
X129709000Y-59921000D02*
X129744000Y-59886000D01*
X129745000Y-132305000D02*
X129710000Y-132341000D01*
X129902000Y-60137000D02*
X129949000Y-60091000D01*
X129950000Y-132511000D02*
X129903000Y-132557000D01*
X132400000Y-62229000D02*
X132447000Y-62183000D01*
X132448000Y-134603000D02*
X132401000Y-134649000D01*
X132605000Y-62435000D02*
X132640000Y-62399000D01*
X132641000Y-134819000D02*
X132606000Y-134854000D01*
X134709000Y-59921000D02*
X134744000Y-59886000D01*
X134745000Y-132305000D02*
X134710000Y-132341000D01*
X134902000Y-60137000D02*
X134949000Y-60091000D01*
X134950000Y-132511000D02*
X134903000Y-132557000D01*
X137400000Y-62229000D02*
X137447000Y-62183000D01*
X137448000Y-134603000D02*
X137401000Y-134649000D01*
X137605000Y-62435000D02*
X137640000Y-62399000D01*
X137641000Y-134819000D02*
X137606000Y-134854000D01*
X139709000Y-59921000D02*
X139744000Y-59886000D01*
X139745000Y-132305000D02*
X139710000Y-132341000D01*
X139902000Y-60137000D02*
X139949000Y-60091000D01*
X139950000Y-132511000D02*
X139903000Y-132557000D01*
X142448000Y-134603000D02*
X142401000Y-134649000D01*
X142641000Y-134819000D02*
X142606000Y-134854000D01*
X144745000Y-132305000D02*
X144710000Y-132341000D01*
X144950000Y-132511000D02*
X144903000Y-132557000D01*
X146235000Y-56500000D02*
X106115000Y-56500000D01*
X146235000Y-57060000D02*
X106115000Y-57060000D01*
X146235000Y-58560000D02*
X106115000Y-58560000D01*
X146235000Y-63461000D02*
X106115000Y-63461000D01*
X146235000Y-66421000D02*
X106115000Y-66421000D01*
X146235000Y-66421000D02*
X146235000Y-56500000D01*
X146235000Y-128319000D02*
X146235000Y-138240000D01*
X146475000Y-56260000D02*
X145975000Y-56260000D01*
X146475000Y-57000000D02*
X146475000Y-56260000D01*
X147175000Y-65370000D02*
X155175000Y-65370000D01*
X147175000Y-129370000D02*
X155175000Y-129370000D01*
X151175000Y-57370000D02*
X151175000Y-65370000D01*
X151175000Y-137370000D02*
X151175000Y-129370000D01*
X155875000Y-137740000D02*
X155875000Y-138480000D01*
X155875000Y-138480000D02*
X156375000Y-138480000D01*
X156115000Y-66421000D02*
X156115000Y-56500000D01*
X156115000Y-128319000D02*
X156115000Y-138240000D01*
X156115000Y-128319000D02*
X196235000Y-128319000D01*
X156115000Y-131279000D02*
X196235000Y-131279000D01*
X156115000Y-136180000D02*
X196235000Y-136180000D01*
X156115000Y-137680000D02*
X196235000Y-137680000D01*
X156115000Y-138240000D02*
X196235000Y-138240000D01*
X157400000Y-62229000D02*
X157447000Y-62183000D01*
X157605000Y-62435000D02*
X157640000Y-62399000D01*
X159709000Y-59921000D02*
X159744000Y-59886000D01*
X159902000Y-60137000D02*
X159949000Y-60091000D01*
X162400000Y-62229000D02*
X162447000Y-62183000D01*
X162448000Y-134603000D02*
X162401000Y-134649000D01*
X162605000Y-62435000D02*
X162640000Y-62399000D01*
X162641000Y-134819000D02*
X162606000Y-134854000D01*
X164709000Y-59921000D02*
X164744000Y-59886000D01*
X164745000Y-132305000D02*
X164710000Y-132341000D01*
X164902000Y-60137000D02*
X164949000Y-60091000D01*
X164950000Y-132511000D02*
X164903000Y-132557000D01*
X167400000Y-62229000D02*
X167447000Y-62183000D01*
X167448000Y-134603000D02*
X167401000Y-134649000D01*
X167605000Y-62435000D02*
X167640000Y-62399000D01*
X167641000Y-134819000D02*
X167606000Y-134854000D01*
X169709000Y-59921000D02*
X169744000Y-59886000D01*
X169745000Y-132305000D02*
X169710000Y-132341000D01*
X169902000Y-60137000D02*
X169949000Y-60091000D01*
X169950000Y-132511000D02*
X169903000Y-132557000D01*
X172400000Y-62229000D02*
X172447000Y-62183000D01*
X172448000Y-134603000D02*
X172401000Y-134649000D01*
X172605000Y-62435000D02*
X172640000Y-62399000D01*
X172641000Y-134819000D02*
X172606000Y-134854000D01*
X174709000Y-59921000D02*
X174744000Y-59886000D01*
X174745000Y-132305000D02*
X174710000Y-132341000D01*
X174902000Y-60137000D02*
X174949000Y-60091000D01*
X174950000Y-132511000D02*
X174903000Y-132557000D01*
X177400000Y-62229000D02*
X177447000Y-62183000D01*
X177448000Y-134603000D02*
X177401000Y-134649000D01*
X177605000Y-62435000D02*
X177640000Y-62399000D01*
X177641000Y-134819000D02*
X177606000Y-134854000D01*
X179709000Y-59921000D02*
X179744000Y-59886000D01*
X179745000Y-132305000D02*
X179710000Y-132341000D01*
X179902000Y-60137000D02*
X179949000Y-60091000D01*
X179950000Y-132511000D02*
X179903000Y-132557000D01*
X182400000Y-62229000D02*
X182447000Y-62183000D01*
X182448000Y-134603000D02*
X182401000Y-134649000D01*
X182605000Y-62435000D02*
X182640000Y-62399000D01*
X182641000Y-134819000D02*
X182606000Y-134854000D01*
X184709000Y-59921000D02*
X184744000Y-59886000D01*
X184745000Y-132305000D02*
X184710000Y-132341000D01*
X184902000Y-60137000D02*
X184949000Y-60091000D01*
X184950000Y-132511000D02*
X184903000Y-132557000D01*
X187400000Y-62229000D02*
X187447000Y-62183000D01*
X187448000Y-134603000D02*
X187401000Y-134649000D01*
X187605000Y-62435000D02*
X187640000Y-62399000D01*
X187641000Y-134819000D02*
X187606000Y-134854000D01*
X189709000Y-59921000D02*
X189744000Y-59886000D01*
X189745000Y-132305000D02*
X189710000Y-132341000D01*
X189902000Y-60137000D02*
X189949000Y-60091000D01*
X189950000Y-132511000D02*
X189903000Y-132557000D01*
X192448000Y-134603000D02*
X192401000Y-134649000D01*
X192641000Y-134819000D02*
X192606000Y-134854000D01*
X194745000Y-132305000D02*
X194710000Y-132341000D01*
X194950000Y-132511000D02*
X194903000Y-132557000D01*
X196235000Y-56500000D02*
X156115000Y-56500000D01*
X196235000Y-57060000D02*
X156115000Y-57060000D01*
X196235000Y-58560000D02*
X156115000Y-58560000D01*
X196235000Y-63461000D02*
X156115000Y-63461000D01*
X196235000Y-66421000D02*
X156115000Y-66421000D01*
X196235000Y-66421000D02*
X196235000Y-56500000D01*
X196235000Y-128319000D02*
X196235000Y-138240000D01*
X196475000Y-56260000D02*
X195975000Y-56260000D01*
X196475000Y-57000000D02*
X196475000Y-56260000D01*
X197175000Y-129370000D02*
X200175000Y-129370000D01*
X200175000Y-65370000D02*
X197175000Y-65370000D01*
X107139574Y-134263042D02*
G75*
G02*
X107140000Y-132896000I1535426J683042D01*
G01*
X107991958Y-132044574D02*
G75*
G02*
X109359000Y-132045000I683042J-1535426D01*
G01*
X108703805Y-135260252D02*
G75*
G02*
X107991000Y-135114999I-28805J1680252D01*
G01*
X109358318Y-135114755D02*
G75*
G02*
X108675000Y-135259999I-683318J1534755D01*
G01*
X110210426Y-132896958D02*
G75*
G02*
X110210000Y-134264000I-1535426J-683042D01*
G01*
X142139574Y-61843042D02*
G75*
G02*
X142140000Y-60476000I1535426J683042D01*
G01*
X142991682Y-59625245D02*
G75*
G02*
X143675000Y-59480001I683318J-1534755D01*
G01*
X143646195Y-59479748D02*
G75*
G02*
X144359000Y-59625001I28805J-1680252D01*
G01*
X144358042Y-62695426D02*
G75*
G02*
X142991000Y-62695000I-683042J1535426D01*
G01*
X145210426Y-60476958D02*
G75*
G02*
X145210000Y-61844000I-1535426J-683042D01*
G01*
X157139574Y-134263042D02*
G75*
G02*
X157140000Y-132896000I1535426J683042D01*
G01*
X157991958Y-132044574D02*
G75*
G02*
X159359000Y-132045000I683042J-1535426D01*
G01*
X158703805Y-135260252D02*
G75*
G02*
X157991000Y-135114999I-28805J1680252D01*
G01*
X159358318Y-135114755D02*
G75*
G02*
X158675000Y-135259999I-683318J1534755D01*
G01*
X160210426Y-132896958D02*
G75*
G02*
X160210000Y-134264000I-1535426J-683042D01*
G01*
X192139574Y-61843042D02*
G75*
G02*
X192140000Y-60476000I1535426J683042D01*
G01*
X192991682Y-59625245D02*
G75*
G02*
X193675000Y-59480001I683318J-1534755D01*
G01*
X193646195Y-59479748D02*
G75*
G02*
X194359000Y-59625001I28805J-1680252D01*
G01*
X194358042Y-62695426D02*
G75*
G02*
X192991000Y-62695000I-683042J1535426D01*
G01*
X195210426Y-60476958D02*
G75*
G02*
X195210000Y-61844000I-1535426J-683042D01*
G01*
X110355000Y-61160000D02*
G75*
G02*
X106995000Y-61160000I-1680000J0D01*
G01*
X106995000Y-61160000D02*
G75*
G02*
X110355000Y-61160000I1680000J0D01*
G01*
X115355000Y-61160000D02*
G75*
G02*
X111995000Y-61160000I-1680000J0D01*
G01*
X111995000Y-61160000D02*
G75*
G02*
X115355000Y-61160000I1680000J0D01*
G01*
X115355000Y-133580000D02*
G75*
G02*
X111995000Y-133580000I-1680000J0D01*
G01*
X111995000Y-133580000D02*
G75*
G02*
X115355000Y-133580000I1680000J0D01*
G01*
X120355000Y-61160000D02*
G75*
G02*
X116995000Y-61160000I-1680000J0D01*
G01*
X116995000Y-61160000D02*
G75*
G02*
X120355000Y-61160000I1680000J0D01*
G01*
X120355000Y-133580000D02*
G75*
G02*
X116995000Y-133580000I-1680000J0D01*
G01*
X116995000Y-133580000D02*
G75*
G02*
X120355000Y-133580000I1680000J0D01*
G01*
X125355000Y-61160000D02*
G75*
G02*
X121995000Y-61160000I-1680000J0D01*
G01*
X121995000Y-61160000D02*
G75*
G02*
X125355000Y-61160000I1680000J0D01*
G01*
X125355000Y-133580000D02*
G75*
G02*
X121995000Y-133580000I-1680000J0D01*
G01*
X121995000Y-133580000D02*
G75*
G02*
X125355000Y-133580000I1680000J0D01*
G01*
X130355000Y-61160000D02*
G75*
G02*
X126995000Y-61160000I-1680000J0D01*
G01*
X126995000Y-61160000D02*
G75*
G02*
X130355000Y-61160000I1680000J0D01*
G01*
X130355000Y-133580000D02*
G75*
G02*
X126995000Y-133580000I-1680000J0D01*
G01*
X126995000Y-133580000D02*
G75*
G02*
X130355000Y-133580000I1680000J0D01*
G01*
X135355000Y-61160000D02*
G75*
G02*
X131995000Y-61160000I-1680000J0D01*
G01*
X131995000Y-61160000D02*
G75*
G02*
X135355000Y-61160000I1680000J0D01*
G01*
X135355000Y-133580000D02*
G75*
G02*
X131995000Y-133580000I-1680000J0D01*
G01*
X131995000Y-133580000D02*
G75*
G02*
X135355000Y-133580000I1680000J0D01*
G01*
X140355000Y-61160000D02*
G75*
G02*
X136995000Y-61160000I-1680000J0D01*
G01*
X136995000Y-61160000D02*
G75*
G02*
X140355000Y-61160000I1680000J0D01*
G01*
X140355000Y-133580000D02*
G75*
G02*
X136995000Y-133580000I-1680000J0D01*
G01*
X136995000Y-133580000D02*
G75*
G02*
X140355000Y-133580000I1680000J0D01*
G01*
X145355000Y-133580000D02*
G75*
G02*
X141995000Y-133580000I-1680000J0D01*
G01*
X141995000Y-133580000D02*
G75*
G02*
X145355000Y-133580000I1680000J0D01*
G01*
X160355000Y-61160000D02*
G75*
G02*
X156995000Y-61160000I-1680000J0D01*
G01*
X156995000Y-61160000D02*
G75*
G02*
X160355000Y-61160000I1680000J0D01*
G01*
X165355000Y-61160000D02*
G75*
G02*
X161995000Y-61160000I-1680000J0D01*
G01*
X161995000Y-61160000D02*
G75*
G02*
X165355000Y-61160000I1680000J0D01*
G01*
X165355000Y-133580000D02*
G75*
G02*
X161995000Y-133580000I-1680000J0D01*
G01*
X161995000Y-133580000D02*
G75*
G02*
X165355000Y-133580000I1680000J0D01*
G01*
X170355000Y-61160000D02*
G75*
G02*
X166995000Y-61160000I-1680000J0D01*
G01*
X166995000Y-61160000D02*
G75*
G02*
X170355000Y-61160000I1680000J0D01*
G01*
X170355000Y-133580000D02*
G75*
G02*
X166995000Y-133580000I-1680000J0D01*
G01*
X166995000Y-133580000D02*
G75*
G02*
X170355000Y-133580000I1680000J0D01*
G01*
X175355000Y-61160000D02*
G75*
G02*
X171995000Y-61160000I-1680000J0D01*
G01*
X171995000Y-61160000D02*
G75*
G02*
X175355000Y-61160000I1680000J0D01*
G01*
X175355000Y-133580000D02*
G75*
G02*
X171995000Y-133580000I-1680000J0D01*
G01*
X171995000Y-133580000D02*
G75*
G02*
X175355000Y-133580000I1680000J0D01*
G01*
X180355000Y-61160000D02*
G75*
G02*
X176995000Y-61160000I-1680000J0D01*
G01*
X176995000Y-61160000D02*
G75*
G02*
X180355000Y-61160000I1680000J0D01*
G01*
X180355000Y-133580000D02*
G75*
G02*
X176995000Y-133580000I-1680000J0D01*
G01*
X176995000Y-133580000D02*
G75*
G02*
X180355000Y-133580000I1680000J0D01*
G01*
X185355000Y-61160000D02*
G75*
G02*
X181995000Y-61160000I-1680000J0D01*
G01*
X181995000Y-61160000D02*
G75*
G02*
X185355000Y-61160000I1680000J0D01*
G01*
X185355000Y-133580000D02*
G75*
G02*
X181995000Y-133580000I-1680000J0D01*
G01*
X181995000Y-133580000D02*
G75*
G02*
X185355000Y-133580000I1680000J0D01*
G01*
X190355000Y-61160000D02*
G75*
G02*
X186995000Y-61160000I-1680000J0D01*
G01*
X186995000Y-61160000D02*
G75*
G02*
X190355000Y-61160000I1680000J0D01*
G01*
X190355000Y-133580000D02*
G75*
G02*
X186995000Y-133580000I-1680000J0D01*
G01*
X186995000Y-133580000D02*
G75*
G02*
X190355000Y-133580000I1680000J0D01*
G01*
X195355000Y-133580000D02*
G75*
G02*
X191995000Y-133580000I-1680000J0D01*
G01*
X191995000Y-133580000D02*
G75*
G02*
X195355000Y-133580000I1680000J0D01*
G01*
%TO.C,U4*%
X174380000Y-78410000D02*
X174380000Y-83710000D01*
X174380000Y-83710000D02*
X179580000Y-83710000D01*
X179580000Y-78410000D02*
X174380000Y-78410000D01*
X179580000Y-80060000D02*
X179580000Y-78410000D01*
X179580000Y-83710000D02*
X179580000Y-82060000D01*
X179580000Y-82060000D02*
G75*
G02*
X179580000Y-80060000I0J1000000D01*
G01*
%TO.C,R7*%
X195500000Y-92930000D02*
X195500000Y-92860000D01*
X196870000Y-94300000D02*
G75*
G02*
X194130000Y-94300000I-1370000J0D01*
G01*
X194130000Y-94300000D02*
G75*
G02*
X196870000Y-94300000I1370000J0D01*
G01*
%TO.C,C2*%
X107380000Y-88630000D02*
X107380000Y-88945000D01*
X107380000Y-88630000D02*
X112620000Y-88630000D01*
X107380000Y-91055000D02*
X107380000Y-91370000D01*
X107380000Y-91370000D02*
X112620000Y-91370000D01*
X112620000Y-88630000D02*
X112620000Y-88945000D01*
X112620000Y-91055000D02*
X112620000Y-91370000D01*
%TO.C,C5*%
X104937651Y-79935000D02*
X105737651Y-79935000D01*
X105337651Y-79535000D02*
X105337651Y-80335000D01*
X109347349Y-78170000D02*
X109347349Y-86330000D01*
X109387349Y-78170000D02*
X109387349Y-86330000D01*
X109427349Y-78170000D02*
X109427349Y-86330000D01*
X109467349Y-78171000D02*
X109467349Y-86329000D01*
X109507349Y-78173000D02*
X109507349Y-86327000D01*
X109547349Y-78174000D02*
X109547349Y-86326000D01*
X109587349Y-78176000D02*
X109587349Y-86324000D01*
X109627349Y-78179000D02*
X109627349Y-86321000D01*
X109667349Y-78182000D02*
X109667349Y-86318000D01*
X109707349Y-78185000D02*
X109707349Y-86315000D01*
X109747349Y-78189000D02*
X109747349Y-86311000D01*
X109787349Y-78193000D02*
X109787349Y-86307000D01*
X109827349Y-78198000D02*
X109827349Y-86302000D01*
X109867349Y-78202000D02*
X109867349Y-86298000D01*
X109907349Y-78208000D02*
X109907349Y-86292000D01*
X109947349Y-78213000D02*
X109947349Y-86287000D01*
X109987349Y-78220000D02*
X109987349Y-86280000D01*
X110027349Y-78226000D02*
X110027349Y-86274000D01*
X110068349Y-78233000D02*
X110068349Y-81210000D01*
X110068349Y-83290000D02*
X110068349Y-86267000D01*
X110108349Y-78240000D02*
X110108349Y-81210000D01*
X110108349Y-83290000D02*
X110108349Y-86260000D01*
X110148349Y-78248000D02*
X110148349Y-81210000D01*
X110148349Y-83290000D02*
X110148349Y-86252000D01*
X110188349Y-78256000D02*
X110188349Y-81210000D01*
X110188349Y-83290000D02*
X110188349Y-86244000D01*
X110228349Y-78265000D02*
X110228349Y-81210000D01*
X110228349Y-83290000D02*
X110228349Y-86235000D01*
X110268349Y-78274000D02*
X110268349Y-81210000D01*
X110268349Y-83290000D02*
X110268349Y-86226000D01*
X110308349Y-78283000D02*
X110308349Y-81210000D01*
X110308349Y-83290000D02*
X110308349Y-86217000D01*
X110348349Y-78293000D02*
X110348349Y-81210000D01*
X110348349Y-83290000D02*
X110348349Y-86207000D01*
X110388349Y-78303000D02*
X110388349Y-81210000D01*
X110388349Y-83290000D02*
X110388349Y-86197000D01*
X110428349Y-78314000D02*
X110428349Y-81210000D01*
X110428349Y-83290000D02*
X110428349Y-86186000D01*
X110468349Y-78325000D02*
X110468349Y-81210000D01*
X110468349Y-83290000D02*
X110468349Y-86175000D01*
X110508349Y-78336000D02*
X110508349Y-81210000D01*
X110508349Y-83290000D02*
X110508349Y-86164000D01*
X110548349Y-78348000D02*
X110548349Y-81210000D01*
X110548349Y-83290000D02*
X110548349Y-86152000D01*
X110588349Y-78361000D02*
X110588349Y-81210000D01*
X110588349Y-83290000D02*
X110588349Y-86139000D01*
X110628349Y-78373000D02*
X110628349Y-81210000D01*
X110628349Y-83290000D02*
X110628349Y-86127000D01*
X110668349Y-78387000D02*
X110668349Y-81210000D01*
X110668349Y-83290000D02*
X110668349Y-86113000D01*
X110708349Y-78400000D02*
X110708349Y-81210000D01*
X110708349Y-83290000D02*
X110708349Y-86100000D01*
X110748349Y-78415000D02*
X110748349Y-81210000D01*
X110748349Y-83290000D02*
X110748349Y-86085000D01*
X110788349Y-78429000D02*
X110788349Y-81210000D01*
X110788349Y-83290000D02*
X110788349Y-86071000D01*
X110828349Y-78445000D02*
X110828349Y-81210000D01*
X110828349Y-83290000D02*
X110828349Y-86055000D01*
X110868349Y-78460000D02*
X110868349Y-81210000D01*
X110868349Y-83290000D02*
X110868349Y-86040000D01*
X110908349Y-78476000D02*
X110908349Y-81210000D01*
X110908349Y-83290000D02*
X110908349Y-86024000D01*
X110948349Y-78493000D02*
X110948349Y-81210000D01*
X110948349Y-83290000D02*
X110948349Y-86007000D01*
X110988349Y-78510000D02*
X110988349Y-81210000D01*
X110988349Y-83290000D02*
X110988349Y-85990000D01*
X111028349Y-78528000D02*
X111028349Y-81210000D01*
X111028349Y-83290000D02*
X111028349Y-85972000D01*
X111068349Y-78546000D02*
X111068349Y-81210000D01*
X111068349Y-83290000D02*
X111068349Y-85954000D01*
X111108349Y-78564000D02*
X111108349Y-81210000D01*
X111108349Y-83290000D02*
X111108349Y-85936000D01*
X111148349Y-78584000D02*
X111148349Y-81210000D01*
X111148349Y-83290000D02*
X111148349Y-85916000D01*
X111188349Y-78603000D02*
X111188349Y-81210000D01*
X111188349Y-83290000D02*
X111188349Y-85897000D01*
X111228349Y-78623000D02*
X111228349Y-81210000D01*
X111228349Y-83290000D02*
X111228349Y-85877000D01*
X111268349Y-78644000D02*
X111268349Y-81210000D01*
X111268349Y-83290000D02*
X111268349Y-85856000D01*
X111308349Y-78666000D02*
X111308349Y-81210000D01*
X111308349Y-83290000D02*
X111308349Y-85834000D01*
X111348349Y-78688000D02*
X111348349Y-81210000D01*
X111348349Y-83290000D02*
X111348349Y-85812000D01*
X111388349Y-78710000D02*
X111388349Y-81210000D01*
X111388349Y-83290000D02*
X111388349Y-85790000D01*
X111428349Y-78733000D02*
X111428349Y-81210000D01*
X111428349Y-83290000D02*
X111428349Y-85767000D01*
X111468349Y-78757000D02*
X111468349Y-81210000D01*
X111468349Y-83290000D02*
X111468349Y-85743000D01*
X111508349Y-78781000D02*
X111508349Y-81210000D01*
X111508349Y-83290000D02*
X111508349Y-85719000D01*
X111548349Y-78806000D02*
X111548349Y-81210000D01*
X111548349Y-83290000D02*
X111548349Y-85694000D01*
X111588349Y-78832000D02*
X111588349Y-81210000D01*
X111588349Y-83290000D02*
X111588349Y-85668000D01*
X111628349Y-78858000D02*
X111628349Y-81210000D01*
X111628349Y-83290000D02*
X111628349Y-85642000D01*
X111668349Y-78885000D02*
X111668349Y-81210000D01*
X111668349Y-83290000D02*
X111668349Y-85615000D01*
X111708349Y-78912000D02*
X111708349Y-81210000D01*
X111708349Y-83290000D02*
X111708349Y-85588000D01*
X111748349Y-78941000D02*
X111748349Y-81210000D01*
X111748349Y-83290000D02*
X111748349Y-85559000D01*
X111788349Y-78970000D02*
X111788349Y-81210000D01*
X111788349Y-83290000D02*
X111788349Y-85530000D01*
X111828349Y-79000000D02*
X111828349Y-81210000D01*
X111828349Y-83290000D02*
X111828349Y-85500000D01*
X111868349Y-79030000D02*
X111868349Y-81210000D01*
X111868349Y-83290000D02*
X111868349Y-85470000D01*
X111908349Y-79061000D02*
X111908349Y-81210000D01*
X111908349Y-83290000D02*
X111908349Y-85439000D01*
X111948349Y-79094000D02*
X111948349Y-81210000D01*
X111948349Y-83290000D02*
X111948349Y-85406000D01*
X111988349Y-79126000D02*
X111988349Y-81210000D01*
X111988349Y-83290000D02*
X111988349Y-85374000D01*
X112028349Y-79160000D02*
X112028349Y-81210000D01*
X112028349Y-83290000D02*
X112028349Y-85340000D01*
X112068349Y-79195000D02*
X112068349Y-81210000D01*
X112068349Y-83290000D02*
X112068349Y-85305000D01*
X112108349Y-79231000D02*
X112108349Y-81210000D01*
X112108349Y-83290000D02*
X112108349Y-85269000D01*
X112148349Y-79267000D02*
X112148349Y-85233000D01*
X112188349Y-79305000D02*
X112188349Y-85195000D01*
X112228349Y-79343000D02*
X112228349Y-85157000D01*
X112268349Y-79383000D02*
X112268349Y-85117000D01*
X112308349Y-79424000D02*
X112308349Y-85076000D01*
X112348349Y-79466000D02*
X112348349Y-85034000D01*
X112388349Y-79509000D02*
X112388349Y-84991000D01*
X112428349Y-79553000D02*
X112428349Y-84947000D01*
X112468349Y-79599000D02*
X112468349Y-84901000D01*
X112508349Y-79646000D02*
X112508349Y-84854000D01*
X112548349Y-79694000D02*
X112548349Y-84806000D01*
X112588349Y-79745000D02*
X112588349Y-84755000D01*
X112628349Y-79796000D02*
X112628349Y-84704000D01*
X112668349Y-79850000D02*
X112668349Y-84650000D01*
X112708349Y-79905000D02*
X112708349Y-84595000D01*
X112748349Y-79963000D02*
X112748349Y-84537000D01*
X112788349Y-80022000D02*
X112788349Y-84478000D01*
X112828349Y-80084000D02*
X112828349Y-84416000D01*
X112868349Y-80148000D02*
X112868349Y-84352000D01*
X112908349Y-80216000D02*
X112908349Y-84284000D01*
X112948349Y-80286000D02*
X112948349Y-84214000D01*
X112988349Y-80360000D02*
X112988349Y-84140000D01*
X113028349Y-80437000D02*
X113028349Y-84063000D01*
X113068349Y-80519000D02*
X113068349Y-83981000D01*
X113108349Y-80605000D02*
X113108349Y-83895000D01*
X113148349Y-80698000D02*
X113148349Y-83802000D01*
X113188349Y-80797000D02*
X113188349Y-83703000D01*
X113228349Y-80904000D02*
X113228349Y-83596000D01*
X113268349Y-81021000D02*
X113268349Y-83479000D01*
X113308349Y-81152000D02*
X113308349Y-83348000D01*
X113348349Y-81302000D02*
X113348349Y-83198000D01*
X113388349Y-81482000D02*
X113388349Y-83018000D01*
X113428349Y-81717000D02*
X113428349Y-82783000D01*
X113467349Y-82250000D02*
G75*
G02*
X105227349Y-82250000I-4120000J0D01*
G01*
X105227349Y-82250000D02*
G75*
G02*
X113467349Y-82250000I4120000J0D01*
G01*
%TO.C,U3*%
X114192000Y-80267500D02*
X114192000Y-81507500D01*
X114192000Y-81507500D02*
X115432000Y-81507500D01*
X114432000Y-72647500D02*
X114432000Y-81267500D01*
X114432000Y-72647500D02*
X126153000Y-72647500D01*
X114432000Y-81267500D02*
X126153000Y-81267500D01*
X126153000Y-72647500D02*
X126153000Y-81267500D01*
%TO.C,K3*%
X156450000Y-100600000D02*
X156450000Y-123300000D01*
X156450000Y-123300000D02*
X173150000Y-123300000D01*
X160300000Y-105450000D02*
X163450000Y-105450000D01*
X163800000Y-100340000D02*
X165800000Y-100340000D01*
X164450000Y-104850000D02*
X164450000Y-106050000D01*
X164450000Y-105650000D02*
X165150000Y-105250000D01*
X164450000Y-106050000D02*
X165150000Y-106050000D01*
X165150000Y-104850000D02*
X164450000Y-104850000D01*
X165150000Y-106050000D02*
X165150000Y-104850000D01*
X166150000Y-105450000D02*
X169300000Y-105450000D01*
X173150000Y-100600000D02*
X156450000Y-100600000D01*
X173150000Y-123300000D02*
X173150000Y-100600000D01*
%TO.C,R11*%
X192000000Y-69425000D02*
X192000000Y-69355000D01*
X193370000Y-70795000D02*
G75*
G02*
X190630000Y-70795000I-1370000J0D01*
G01*
X190630000Y-70795000D02*
G75*
G02*
X193370000Y-70795000I1370000J0D01*
G01*
%TO.C,D6*%
X155115000Y-80000000D02*
X155505000Y-80000000D01*
X155115000Y-80000000D02*
G75*
G02*
X151275000Y-80000000I-1920000J0D01*
G01*
X151275000Y-80000000D02*
G75*
G02*
X155115000Y-80000000I1920000J0D01*
G01*
%TO.C,R5*%
X189750000Y-92930000D02*
X189750000Y-92860000D01*
X191120000Y-94300000D02*
G75*
G02*
X188380000Y-94300000I-1370000J0D01*
G01*
X188380000Y-94300000D02*
G75*
G02*
X191120000Y-94300000I1370000J0D01*
G01*
%TO.C,C1*%
X122130000Y-68945000D02*
X122130000Y-68630000D01*
X122130000Y-71370000D02*
X122130000Y-71055000D01*
X127370000Y-68630000D02*
X122130000Y-68630000D01*
X127370000Y-68945000D02*
X127370000Y-68630000D01*
X127370000Y-71370000D02*
X122130000Y-71370000D01*
X127370000Y-71370000D02*
X127370000Y-71055000D01*
%TO.C,C3*%
X168380000Y-90880000D02*
X168380000Y-91195000D01*
X168380000Y-90880000D02*
X173620000Y-90880000D01*
X168380000Y-93305000D02*
X168380000Y-93620000D01*
X168380000Y-93620000D02*
X173620000Y-93620000D01*
X173620000Y-90880000D02*
X173620000Y-91195000D01*
X173620000Y-93305000D02*
X173620000Y-93620000D01*
%TD*%
M02*
